<svg width="24" height="24" viewBox="0 0 24 24" fill="none" xmlns="http://www.w3.org/2000/svg">
<circle cx="12" cy="12" r="10" stroke="black" stroke-width="2"/>
<path fill-rule="evenodd" clip-rule="evenodd" d="M12.8236 7.88205C12.8236 7.4272 12.4549 7.05847 12.0001 7.05847C11.5452 7.05847 11.1765 7.4272 11.1765 7.88205V11.1765H7.88217C7.42732 11.1765 7.05859 11.5452 7.05859 12C7.05859 12.4549 7.42732 12.8236 7.88217 12.8236H11.1765V16.1178C11.1765 16.5727 11.5452 16.9414 12.0001 16.9414C12.4549 16.9414 12.8236 16.5727 12.8236 16.1178V12.8236H16.118C16.5728 12.8236 16.9415 12.4549 16.9415 12C16.9415 11.5452 16.5728 11.1765 16.118 11.1765H12.8236V7.88205Z" fill="black"/>
</svg>
