<svg width="24" height="24" viewBox="0 0 24 24" fill="none" xmlns="http://www.w3.org/2000/svg">
<circle cx="12" cy="12" r="8.25" stroke="black" stroke-width="1.5"/>
<path fill-rule="evenodd" clip-rule="evenodd" d="M16.3264 14.6538C16.4969 14.846 16.4732 15.1386 16.2743 15.3012C15.1433 16.2263 13.6979 16.7812 12.1228 16.7812C10.4777 16.7812 8.97397 16.1758 7.82228 15.1757C7.62865 15.0075 7.61313 14.7151 7.78843 14.5279C8.87168 13.3713 10.3589 12.6575 12 12.6575C13.6999 12.6575 15.2347 13.4233 16.3264 14.6538Z" fill="black"/>
<path d="M10 9.43176C10 10.1221 9.44036 10.6818 8.75 10.6818C8.05964 10.6818 7.5 10.1221 7.5 9.43176C7.5 8.74141 8.05964 8.18176 8.75 8.18176C9.44036 8.18176 10 8.74141 10 9.43176Z" fill="black"/>
<path d="M16.5 9.43176C16.5 10.1221 15.9404 10.6818 15.25 10.6818C14.5596 10.6818 14 10.1221 14 9.43176C14 8.74141 14.5596 8.18176 15.25 8.18176C15.9404 8.18176 16.5 8.74141 16.5 9.43176Z" fill="black"/>
<path d="M8.1291 7.64022L10.557 9.21895" stroke="black" stroke-linecap="round" stroke-linejoin="round"/>
<path d="M15.7811 7.60992L13.4945 9.0574" stroke="black" stroke-linecap="round" stroke-linejoin="round"/>
</svg>
