<svg width="24" height="24" viewBox="0 0 24 24" fill="none" xmlns="http://www.w3.org/2000/svg">
<path d="M9 10.5V18.5M9 10.5H15M9 10.5H6M9 18.5H7.15402C6.75672 18.5 6.3971 18.2648 6.23786 17.9008L3.61286 11.9008C3.32381 11.2401 3.80786 10.5 4.52902 10.5H6M9 18.5H15M15 10.5V18.5M15 10.5H18M15 18.5H17.307C17.7238 18.5 18.097 18.2414 18.2433 17.8511L20.4933 11.8511C20.7385 11.1974 20.2552 10.5 19.557 10.5H18M6 10.5L11.3243 5.61941C11.7066 5.26895 12.2934 5.26895 12.6757 5.61941L18 10.5" stroke="black" stroke-width="2" stroke-linecap="round"/>
</svg>
