<svg width="24" height="24" viewBox="0 0 24 24" fill="none" xmlns="http://www.w3.org/2000/svg">
<path d="M18.5 7.5L3.5 7.50001V16.5L18.5 16.5V14.3571H20.5V9.21429H18.5V7.5Z" stroke="black" stroke-width="2" stroke-linecap="round" stroke-linejoin="round"/>
<path d="M5.5 10.5C5.5 9.94772 5.94772 9.5 6.5 9.5H7.5C8.05228 9.5 8.5 9.94772 8.5 10.5V13.5C8.5 14.0523 8.05228 14.5 7.5 14.5H6.5C5.94772 14.5 5.5 14.0523 5.5 13.5V10.5Z" fill="black"/>
<path d="M9.5 10.5C9.5 9.94772 9.94772 9.5 10.5 9.5H11.5C12.0523 9.5 12.5 9.94772 12.5 10.5V13.5C12.5 14.0523 12.0523 14.5 11.5 14.5H10.5C9.94772 14.5 9.5 14.0523 9.5 13.5V10.5Z" fill="black"/>
<path d="M13.5 10.5C13.5 9.94772 13.9477 9.5 14.5 9.5H15.5C16.0523 9.5 16.5 9.94772 16.5 10.5V13.5C16.5 14.0523 16.0523 14.5 15.5 14.5H14.5C13.9477 14.5 13.5 14.0523 13.5 13.5V10.5Z" fill="black"/>
</svg>
