<svg width="24" height="24" viewBox="0 0 24 24" fill="none" xmlns="http://www.w3.org/2000/svg">
<rect x="6" y="4" width="12" height="17" rx="1" stroke="black" stroke-width="2"/>
<mask id="path-2-inside-1" fill="white">
<rect x="8" y="6" width="8" height="4" rx="1"/>
</mask>
<rect x="8" y="6" width="8" height="4" rx="1" stroke="black" stroke-width="3" mask="url(#path-2-inside-1)"/>
<path d="M12 11.5H9.5C8.94772 11.5 8.5 11.9477 8.5 12.5V15M12 11.5H14.5C15.0523 11.5 15.5 11.9477 15.5 12.5V15M12 11.5V18.5M12 18.5H14.5C15.0523 18.5 15.5 18.0523 15.5 17.5V15M12 18.5H9.5C8.94772 18.5 8.5 18.0523 8.5 17.5V15M8.5 15H15.5" stroke="black" stroke-width="1.5" stroke-linecap="round"/>
</svg>
