<svg width="24" height="24" viewBox="0 0 24 24" fill="none" xmlns="http://www.w3.org/2000/svg">
<path d="M21.8839 9.38388C22.372 8.89573 22.372 8.10427 21.8839 7.61612C21.3957 7.12796 20.6043 7.12796 20.1161 7.61612L21.8839 9.38388ZM18 11.5L17.1161 12.3839C17.3505 12.6183 17.6685 12.75 18 12.75C18.3315 12.75 18.6495 12.6183 18.8839 12.3839L18 11.5ZM15.8839 7.61612C15.3957 7.12796 14.6043 7.12796 14.1161 7.61612C13.628 8.10427 13.628 8.89573 14.1161 9.38388L15.8839 7.61612ZM4.75 8.5C4.75 9.19036 5.30964 9.75 6 9.75C6.69036 9.75 7.25 9.19036 7.25 8.5L4.75 8.5ZM18 5.5L19.25 5.5L18 5.5ZM20.1161 7.61612L17.1161 10.6161L18.8839 12.3839L21.8839 9.38388L20.1161 7.61612ZM18.8839 10.6161L15.8839 7.61612L14.1161 9.38388L17.1161 12.3839L18.8839 10.6161ZM19.25 11.5L19.25 5.5L16.75 5.5L16.75 11.5L19.25 11.5ZM17 3.25L7 3.25L7 5.75L17 5.75L17 3.25ZM4.75 5.5L4.75 8.5L7.25 8.5L7.25 5.5L4.75 5.5ZM7 3.25C5.75736 3.25 4.75 4.25736 4.75 5.5L7.25 5.5C7.25 5.63807 7.13807 5.75 7 5.75L7 3.25ZM19.25 5.5C19.25 4.25736 18.2426 3.25 17 3.25L17 5.75C16.8619 5.75 16.75 5.63807 16.75 5.5L19.25 5.5Z" fill="black"/>
<path d="M3 15.5L6 12.5M6 12.5L9 15.5M6 12.5V18.5C6 19.0523 6.44772 19.5 7 19.5H17C17.5523 19.5 18 19.0523 18 18.5V15.5" stroke="black" stroke-width="2.5" stroke-linecap="round" stroke-linejoin="round"/>
</svg>
