<svg width="24" height="24" viewBox="0 0 24 24" fill="none" xmlns="http://www.w3.org/2000/svg">
<circle cx="8.09954" cy="16.4577" r="1.95025" stroke="black" stroke-width="1.67164"/>
<circle cx="15.9004" cy="16.4577" r="1.95025" stroke="black" stroke-width="1.67164"/>
<path d="M5.31345 15.9005V15.9005C4.08249 15.9005 3.08459 14.9026 3.08459 13.6716V13.1144C3.08459 11.5757 4.33196 10.3284 5.87066 10.3284H18.1293C19.668 10.3284 20.9154 11.5757 20.9154 13.1144V13.1144C20.9154 14.6531 19.668 15.9005 18.1293 15.9005V15.9005" stroke="black" stroke-width="1.67164" stroke-linecap="round"/>
<path d="M9.77124 4.75618L9.77125 10.3284M9.77124 4.75618C9.77124 4.75618 8.65685 4.75624 7.54242 4.75624C6.428 4.75624 5.63941 5.3669 5.16578 6.51716C4.69216 7.66743 4.75634 10.3284 4.75634 10.3284H9.77125M9.77124 4.75618C9.77124 4.75618 10.8857 4.75618 12.0001 4.7561C13.1146 4.75603 13.8773 5.86118 14.1142 6.51716C14.7862 8.37789 14.7862 10.3284 14.7862 10.3284H9.77125" stroke="black" stroke-width="1.67164" stroke-linecap="round"/>
<path d="M10.3284 16.4578H13.6716" stroke="black" stroke-width="1.67164"/>
</svg>
