<svg width="24" height="24" viewBox="0 0 24 24" fill="none" xmlns="http://www.w3.org/2000/svg">
<path fill-rule="evenodd" clip-rule="evenodd" d="M18.0783 10.5268C17.6633 10.9252 17.0037 10.9118 16.6052 10.4967L12.9067 6.64406C12.4966 6.21695 11.8136 6.21695 11.4035 6.64406L7.70496 10.4967C7.30648 10.9118 6.64696 10.9252 6.23188 10.5268L5.85609 10.166C5.44101 9.76752 5.42756 9.10799 5.82604 8.69291L10.8666 3.44243C11.5668 2.71303 12.7434 2.71303 13.4437 3.44243L18.4842 8.69291C18.8827 9.10799 18.8692 9.76752 18.4541 10.166L18.0783 10.5268Z" fill="black"/>
<path fill-rule="evenodd" clip-rule="evenodd" d="M18.4541 13.9351C18.8692 14.3335 18.8827 14.9931 18.4842 15.4081L13.4437 20.6586C12.7434 21.388 11.5668 21.388 10.8666 20.6586L5.82604 15.4081C5.42756 14.9931 5.44101 14.3335 5.85609 13.9351L6.23188 13.5743C6.64696 13.1758 7.30648 13.1893 7.70497 13.6044L11.4035 17.457C11.8136 17.8841 12.4966 17.8841 12.9067 17.457L16.6052 13.6044C17.0037 13.1893 17.6633 13.1758 18.0783 13.5743L18.4541 13.9351Z" fill="black"/>
</svg>
