<svg width="24" height="24" viewBox="0 0 24 24" fill="none" xmlns="http://www.w3.org/2000/svg">
<mask id="path-1-inside-1" fill="white">
<path fill-rule="evenodd" clip-rule="evenodd" d="M6.78947 18H11.5263H17.2105C19.3034 18 21 16.2091 21 14C21 11.7909 19.3034 10 17.2105 10C17.1032 10 16.9968 10.0047 16.8917 10.014C16.1152 7.67628 14.0062 6 11.5263 6C9.03113 6 6.91145 7.69704 6.14667 10.0573C4.35995 10.3796 3 12.0221 3 14C3 16.2091 4.69661 18 6.78947 18Z"/>
</mask>
<path d="M16.8917 10.014L17.0669 12.0063L15.4921 12.1447L14.9937 10.6445L16.8917 10.014ZM6.14667 10.0573L8.04928 10.6738L7.68015 11.813L6.50166 12.0256L6.14667 10.0573ZM11.5263 20H6.78947V16H11.5263V20ZM17.2105 20H11.5263V16H17.2105V20ZM17.2105 16C18.0983 16 19 15.2078 19 14H23C23 17.2104 20.5085 20 17.2105 20V16ZM19 14C19 12.7922 18.0983 12 17.2105 12V8C20.5085 8 23 10.7896 23 14H19ZM17.2105 12C17.1618 12 17.1139 12.0021 17.0669 12.0063L16.7166 8.02164C16.8798 8.00729 17.0445 8 17.2105 8V12ZM14.9937 10.6445C14.4617 9.04299 13.0617 8 11.5263 8V4C14.9507 4 17.7686 6.30958 18.7897 9.38344L14.9937 10.6445ZM11.5263 8C9.98163 8 8.57345 9.05612 8.04928 10.6738L4.24405 9.44082C5.24945 6.33796 8.08064 4 11.5263 4V8ZM6.50166 12.0256C5.72563 12.1655 5 12.9292 5 14H1C1 11.1151 2.99428 8.59361 5.79167 8.08907L6.50166 12.0256ZM5 14C5 15.2078 5.90169 16 6.78947 16V20C3.49152 20 1 17.2104 1 14H5Z" fill="black" mask="url(#path-1-inside-1)"/>
</svg>
