<svg width="24" height="24" viewBox="0 0 24 24" fill="none" xmlns="http://www.w3.org/2000/svg">
<path fill-rule="evenodd" clip-rule="evenodd" d="M8.00385 6.87188C8.34581 7.22809 8.33427 7.79407 7.97806 8.13603L4.67184 11.31C4.30531 11.6619 4.30531 12.2481 4.67184 12.6L7.97806 15.774C8.33426 16.1159 8.34581 16.6819 8.00385 17.0381L7.69426 17.3606C7.35229 17.7168 6.78631 17.7284 6.4301 17.3864L1.92431 13.0608C1.29836 12.4599 1.29836 11.4501 1.92431 10.8492L6.4301 6.5236C6.78631 6.18164 7.35229 6.19318 7.69426 6.54939L8.00385 6.87188Z" fill="black"/>
<path fill-rule="evenodd" clip-rule="evenodd" d="M16.23 6.54939C16.572 6.19318 17.138 6.18164 17.4942 6.5236L22 10.8492C22.6259 11.4501 22.6259 12.4599 22 13.0608L17.4942 17.3864C17.138 17.7284 16.572 17.7168 16.23 17.3606L15.9204 17.0381C15.5785 16.6819 15.59 16.1159 15.9462 15.774L19.2525 12.6C19.619 12.2481 19.619 11.6619 19.2525 11.31L15.9462 8.13603C15.59 7.79407 15.5785 7.22809 15.9205 6.87188L16.23 6.54939Z" fill="black"/>
<path fill-rule="evenodd" clip-rule="evenodd" d="M12.8165 3.86738C12.9363 3.38834 13.4217 3.09709 13.9007 3.21685L14.3344 3.32527C14.8135 3.44503 15.1047 3.93045 14.985 4.4095L11.3002 19.1484C11.1805 19.6275 10.695 19.9187 10.216 19.799L9.7823 19.6906C9.30326 19.5708 9.012 19.0854 9.13176 18.6063L12.8165 3.86738Z" fill="black"/>
</svg>
