<svg width="24" height="24" viewBox="0 0 24 24" fill="none" xmlns="http://www.w3.org/2000/svg">
<circle cx="12" cy="12" r="10" stroke="black" stroke-width="2"/>
<path fill-rule="evenodd" clip-rule="evenodd" d="M15.4942 9.67058C15.8158 9.34895 15.8158 8.82749 15.4942 8.50586C15.1725 8.18423 14.6511 8.18423 14.3294 8.50586L11.9999 10.8354L9.67051 8.50593C9.34888 8.1843 8.82742 8.1843 8.50579 8.50593C8.18416 8.82755 8.18416 9.34902 8.50579 9.67064L10.8352 12.0001L8.50587 14.3294C8.18424 14.6511 8.18424 15.1725 8.50587 15.4942C8.8275 15.8158 9.34896 15.8158 9.67059 15.4942L11.9999 13.1648L14.3294 15.4942C14.651 15.8158 15.1725 15.8158 15.4941 15.4942C15.8157 15.1726 15.8157 14.6511 15.4941 14.3295L13.1647 12.0001L15.4942 9.67058Z" fill="black"/>
</svg>
