<svg width="24" height="24" viewBox="0 0 24 24" fill="none" xmlns="http://www.w3.org/2000/svg">
<path d="M20 6L11.3333 12.5M11.3333 12.5L20 19M11.3333 12.5L7.5 11M11.3333 12.5L7.5 14" stroke="black" stroke-width="2" stroke-linecap="round" stroke-linejoin="round"/>
<path d="M8 11C6.34315 11 5 9.65685 5 8C5 6.34315 6.34315 5 8 5C9.65685 5 11 6.34315 11 8C11 9.65685 9.65685 11 8 11Z" stroke="black" stroke-width="2"/>
<path d="M8 20C6.34315 20 5 18.6569 5 17C5 15.3431 6.34315 14 8 14C9.65685 14 11 15.3431 11 17C11 18.6569 9.65685 20 8 20Z" stroke="black" stroke-width="2"/>
</svg>
