<svg width="24" height="24" viewBox="0 0 24 24" fill="none" xmlns="http://www.w3.org/2000/svg">
<path d="M3.08285 5.56659C8.53419 1.42369 15.277 1.4876 20.1241 5.67709C20.5292 6.02728 20.5444 6.6409 20.1848 7.03769L17.9854 9.46456C17.6965 9.7833 17.2362 9.88159 16.8423 9.70862L15.4292 9.08803C14.9734 8.88787 14.7343 8.38296 14.8681 7.90351L15.4224 5.91854C15.5991 5.28538 15.1274 4.6568 14.47 4.64967L8.64108 4.58646C7.98908 4.57939 7.50482 5.18815 7.65835 5.82186L8.16893 7.92933C8.28258 8.39846 8.0449 8.88182 7.60397 9.07825L6.20003 9.70368C5.79206 9.88543 5.31302 9.7746 5.02633 9.43214L2.94671 6.94805C2.59467 6.52754 2.64621 5.89842 3.08285 5.56659Z" fill="black"/>
<path d="M3.08285 5.56659L2.78031 5.1685L3.08285 5.56659ZM20.1241 5.67709L20.451 5.29881L20.451 5.29881L20.1241 5.67709ZM20.1848 7.03769L19.8143 6.70193L19.8143 6.70193L20.1848 7.03769ZM17.9854 9.46456L17.6149 9.12879L17.6149 9.12879L17.9854 9.46456ZM16.8423 9.70862L16.6413 10.1664L16.6413 10.1664L16.8423 9.70862ZM15.4292 9.08803L15.6302 8.63023L15.6302 8.63023L15.4292 9.08803ZM14.8681 7.90351L14.3866 7.76904L14.3866 7.76904L14.8681 7.90351ZM15.4224 5.91854L14.9408 5.78408L14.9408 5.78408L15.4224 5.91854ZM14.47 4.64967L14.4646 5.14964L14.4646 5.14964L14.47 4.64967ZM8.64108 4.58646L8.63565 5.08643L8.63565 5.08643L8.64108 4.58646ZM7.65835 5.82186L7.17241 5.93959L7.17241 5.93959L7.65835 5.82186ZM8.16893 7.92933L7.68298 8.04706L7.68298 8.04706L8.16893 7.92933ZM7.60397 9.07825L7.40051 8.62152L7.40051 8.62152L7.60397 9.07825ZM6.20003 9.70368L5.99656 9.24695L5.99656 9.24695L6.20003 9.70368ZM5.02633 9.43214L4.64294 9.7531L4.64294 9.7531L5.02633 9.43214ZM2.94671 6.94805L3.3301 6.62709L3.3301 6.62709L2.94671 6.94805ZM3.38538 5.96467C8.6653 1.95205 15.1442 2.03374 19.7971 6.05537L20.451 5.29881C15.4097 0.941452 8.40308 0.895322 2.78031 5.1685L3.38538 5.96467ZM19.7971 6.05537C19.9739 6.20814 19.9999 6.49714 19.8143 6.70193L20.5553 7.37346C21.0889 6.78466 21.0846 5.84641 20.451 5.29881L19.7971 6.05537ZM19.8143 6.70193L17.6149 9.12879L18.3559 9.80033L20.5553 7.37346L19.8143 6.70193ZM17.6149 9.12879C17.4705 9.28816 17.2403 9.33731 17.0434 9.25082L16.6413 10.1664C17.2321 10.4259 17.9226 10.2784 18.3559 9.80032L17.6149 9.12879ZM17.0434 9.25082L15.6302 8.63023L15.2282 9.54583L16.6413 10.1664L17.0434 9.25082ZM15.6302 8.63023C15.4024 8.53015 15.2828 8.2777 15.3497 8.03797L14.3866 7.76904C14.1857 8.48822 14.5445 9.24559 15.2282 9.54583L15.6302 8.63023ZM15.3497 8.03797L15.9039 6.053L14.9408 5.78408L14.3866 7.76904L15.3497 8.03797ZM15.9039 6.05301C16.1691 5.10327 15.4615 4.1604 14.4755 4.1497L14.4646 5.14964C14.7933 5.15321 15.0292 5.4675 14.9408 5.78408L15.9039 6.05301ZM14.4755 4.1497L8.6465 4.08649L8.63565 5.08643L14.4646 5.14964L14.4755 4.1497ZM8.6465 4.08649C7.6685 4.07588 6.94211 4.98903 7.17241 5.93959L8.14429 5.70413C8.06753 5.38728 8.30965 5.08289 8.63565 5.08643L8.6465 4.08649ZM7.17241 5.93959L7.68298 8.04706L8.65487 7.8116L8.14429 5.70413L7.17241 5.93959ZM7.68298 8.04706C7.73981 8.28163 7.62097 8.52331 7.40051 8.62152L7.80744 9.53498C8.46883 9.24034 8.82535 8.5153 8.65487 7.8116L7.68298 8.04706ZM7.40051 8.62152L5.99656 9.24695L6.4035 10.1604L7.80744 9.53498L7.40051 8.62152ZM5.99656 9.24695C5.79258 9.33783 5.55306 9.28242 5.40971 9.11118L4.64294 9.7531C5.07299 10.2668 5.79153 10.433 6.4035 10.1604L5.99656 9.24695ZM5.40971 9.11118L3.3301 6.62709L2.56333 7.26901L4.64294 9.7531L5.40971 9.11118ZM3.3301 6.62709C3.14944 6.41129 3.19037 6.11288 3.38538 5.96467L2.78031 5.1685C2.10206 5.68396 2.03991 6.64379 2.56333 7.26901L3.3301 6.62709Z" fill="black"/>
<circle cx="12" cy="16" r="2.25" stroke="black" stroke-width="1.5"/>
<path d="M14.3931 11.4469L13.543 11.9735L13.543 11.9735L14.3931 11.4469ZM18.1093 17.4469L18.9594 16.9204L18.9594 16.9204L18.1093 17.4469ZM5.69631 17.5126L4.82669 17.0188L5.69631 17.5126ZM9.10276 11.5126L8.23314 11.0188L8.23314 11.0188L9.10276 11.5126ZM10.842 11.5H12.6928V9.5H10.842V11.5ZM13.543 11.9735L17.2591 17.9735L18.9594 16.9204L15.2433 10.9204L13.543 11.9735ZM16.409 19.5H7.43555V21.5H16.409V19.5ZM6.56593 18.0063L9.97239 12.0063L8.23314 11.0188L4.82669 17.0188L6.56593 18.0063ZM7.43555 19.5C6.66897 19.5 6.18745 18.6729 6.56593 18.0063L4.82669 17.0188C3.69125 19.0188 5.13579 21.5 7.43555 21.5V19.5ZM17.2591 17.9735C17.6717 18.6396 17.1926 19.5 16.409 19.5V21.5C18.7598 21.5 20.1972 18.9189 18.9594 16.9204L17.2591 17.9735ZM12.6928 11.5C13.0391 11.5 13.3607 11.6791 13.543 11.9735L15.2433 10.9204C14.6964 10.0373 13.7316 9.5 12.6928 9.5V11.5ZM10.842 9.5C9.76245 9.5 8.76614 10.08 8.23314 11.0188L9.97239 12.0063C10.1501 11.6933 10.4822 11.5 10.842 11.5V9.5Z" fill="black"/>
</svg>
