<svg width="24" height="24" viewBox="0 0 24 24" fill="none" xmlns="http://www.w3.org/2000/svg">
<path d="M3.08291 5.56656C8.53425 1.42366 15.277 1.48757 20.1241 5.67707C20.5293 6.02725 20.5445 6.64087 20.1849 7.03767L17.9855 9.46454C17.6966 9.78328 17.2362 9.88157 16.8424 9.7086L15.4293 9.08801C14.9735 8.88785 14.7343 8.38294 14.8682 7.90348L15.4224 5.91852C15.5992 5.28536 15.1274 4.65678 14.4701 4.64965L8.64114 4.58644C7.98914 4.57937 7.50488 5.18813 7.65841 5.82184L8.16899 7.92931C8.28264 8.39844 8.04496 8.8818 7.60403 9.07823L6.20009 9.70366C5.79212 9.88541 5.31309 9.77458 5.02639 9.43212L2.94677 6.94803C2.59473 6.52752 2.64627 5.8984 3.08291 5.56656Z" fill="black"/>
<path d="M3.08291 5.56656C8.53425 1.42366 15.277 1.48757 20.1241 5.67707C20.5293 6.02725 20.5445 6.64087 20.1849 7.03767L17.9855 9.46454C17.6966 9.78328 17.2362 9.88157 16.8424 9.7086L15.4293 9.08801C14.9735 8.88785 14.7343 8.38294 14.8682 7.90348L15.4224 5.91852C15.5992 5.28536 15.1274 4.65678 14.4701 4.64965L8.64114 4.58644C7.98914 4.57937 7.50488 5.18813 7.65841 5.82184L8.16899 7.92931C8.28264 8.39844 8.04496 8.8818 7.60403 9.07823L6.20009 9.70366C5.79212 9.88541 5.31309 9.77458 5.02639 9.43212L2.94677 6.94803C2.59473 6.52752 2.64627 5.8984 3.08291 5.56656Z" stroke="black" stroke-linecap="round" stroke-linejoin="round"/>
<circle cx="11.9148" cy="15.6737" r="2.55118" stroke="black" stroke-width="1.5"/>
<path d="M12.628 10.8502H10.7771C10.0574 10.8502 7.82072 10.7251 7.33582 12.1797L5.69613 17.5125C5.25002 18.8812 5.9022 20.5 7.43537 20.5H16.4088C17.976 20.5 18.5952 18.9144 18.1091 17.4469L16.0171 12.1797C15.5322 10.8502 13.3205 10.8502 12.628 10.8502Z" stroke="black" stroke-width="2" stroke-linecap="round" stroke-linejoin="round"/>
</svg>
