<svg width="24" height="24" viewBox="0 0 24 24" fill="none" xmlns="http://www.w3.org/2000/svg">
<g clip-path="url(#clip0)">
<path d="M3.08288 5.56659C8.53422 1.42369 15.277 1.4876 20.1241 5.6771C20.5292 6.02728 20.5445 6.6409 20.1849 7.0377L17.9854 9.46456C17.6966 9.7833 17.2362 9.88159 16.8424 9.70862L15.4292 9.08803C14.9735 8.88788 14.7343 8.38296 14.8682 7.90351L15.4224 5.91854C15.5992 5.28538 15.1274 4.6568 14.4701 4.64967L8.64111 4.58646C7.98911 4.57939 7.50485 5.18815 7.65838 5.82186L8.16896 7.92933C8.28262 8.39846 8.04493 8.88182 7.60401 9.07825L6.20006 9.70369C5.79209 9.88543 5.31306 9.77461 5.02636 9.43215L2.94674 6.94805C2.5947 6.52754 2.64625 5.89842 3.08288 5.56659Z" fill="black" stroke="black" stroke-linecap="round" stroke-linejoin="round"/>
<circle cx="12" cy="16" r="2.25" stroke="black" stroke-width="1.5"/>
<path d="M12.6926 10.5H10.8418C10.1221 10.5 9.45788 10.8867 9.10255 11.5126L5.69609 17.5126C4.93914 18.8458 5.90216 20.5 7.43534 20.5H16.4088C17.976 20.5 18.9343 18.7793 18.1091 17.4469L14.3929 11.4469C14.0283 10.8582 13.3851 10.5 12.6926 10.5Z" stroke="black" stroke-width="2" stroke-linecap="round" stroke-linejoin="round"/>
</g>
<defs>
<clipPath id="clip0">
<rect width="24" height="24" fill="white" transform="matrix(1 0 0 -1 0 24)"/>
</clipPath>
</defs>
</svg>
