<svg width="24" height="24" viewBox="0 0 24 24" fill="none" xmlns="http://www.w3.org/2000/svg">
<path d="M7.86667 10L6.93333 13.5M7.86667 10L12.0667 11.5M7.86667 10H6.93333L6 13.5H6.93333M6.93333 13.5L9.5 12.5L13 15" stroke="black" stroke-width="1.5" stroke-linecap="round" stroke-linejoin="round"/>
<path d="M17.4318 13.2369L13.0323 15.0001H6.70968H5.96315M5.96315 15.0001H4V17.0001L5.96315 15.0001Z" stroke="black" stroke-width="1.3" stroke-linecap="round" stroke-linejoin="round"/>
<path d="M17.9216 13.7529C18.2494 13.9877 18.651 14.1259 19.085 14.1259C19.4493 14.1259 19.7908 14.0285 20.085 13.8583M17.9216 13.7529C17.4151 13.3901 17.085 12.7966 17.085 12.1259C17.085 11.8765 17.1306 11.6378 17.214 11.4176M17.9216 13.7529L19.585 16.6259L20.085 13.8583M20.085 13.8583C20.6828 13.5125 21.085 12.8662 21.085 12.1259C21.085 11.0213 20.1895 10.1259 19.085 10.1259C18.2298 10.1259 17.5 10.6626 17.214 11.4176M17.214 11.4176L14.585 10.1259V8.62591" stroke="black" stroke-width="1.3" stroke-linecap="round" stroke-linejoin="round"/>
<path d="M9.39575 6.50006C9.39575 6.99476 8.99472 7.39579 8.50002 7.39579C8.00533 7.39579 7.6043 6.99476 7.6043 6.50006C7.6043 6.00536 8.00533 5.60433 8.50002 5.60433C8.99472 5.60433 9.39575 6.00536 9.39575 6.50006Z" fill="black" stroke="black" stroke-width="1.20855"/>
<path d="M6 14H7" stroke="black" stroke-width="0.5" stroke-linecap="round" stroke-linejoin="round"/>
<path d="M7 14.6747V13.8383H6V14.6747H7Z" fill="black" stroke="black" stroke-width="0.5" stroke-linecap="round" stroke-linejoin="round"/>
</svg>
