<svg width="24" height="24" viewBox="0 0 24 24" fill="none" xmlns="http://www.w3.org/2000/svg">
<path fill-rule="evenodd" clip-rule="evenodd" d="M3.18885 4.15169C3.51801 3.44892 4.22399 3 5.00002 3H19C19.7761 3 20.482 3.44892 20.8112 4.15169C21.1404 4.85446 21.0333 5.6842 20.5365 6.28037L13.5 14.5V19.3759C13.5 20.4805 13.1046 21 12 21C10.8955 21 10.5 20.4805 10.5 19.3759V14.5L3.46358 6.28037C2.96678 5.6842 2.85969 4.85446 3.18885 4.15169ZM11.6251 13.0751C11.8241 13.3007 12.1759 13.3007 12.3749 13.0751L18.7669 5.83081C19.0518 5.50796 18.8226 5 18.392 5H5.60799C5.17743 5 4.9482 5.50796 5.23307 5.83081L11.6251 13.0751Z" fill="black"/>
</svg>
