<svg width="24" height="24" viewBox="0 0 24 24" fill="none" xmlns="http://www.w3.org/2000/svg">
<path d="M5 18.125L4.30364 17.8465C4.15167 18.2264 4.33229 18.6581 4.70958 18.8165L5 18.125ZM20 18.125L20.2904 18.8165C20.6716 18.6564 20.8514 18.218 20.6922 17.8364L20 18.125ZM8.75 9.37503L9.33331 8.90359C9.17864 8.71222 8.93994 8.60889 8.69455 8.62708C8.44916 8.64527 8.22831 8.78267 8.10355 8.99476L8.75 9.37503ZM11.25 14.1875L10.5334 14.4089C10.6314 14.726 10.9261 14.941 11.258 14.9375C11.5899 14.9339 11.88 14.7127 11.9711 14.3936L11.25 14.1875ZM12.5 5.00003L11.8292 5.33545L12.5 5.00003ZM10 11.125L9.35198 11.5026L9.35198 11.5026L10 11.125ZM16.6667 11.125L17.3167 10.751L16.6667 11.125ZM14.375 13.5L15.0356 13.1449C14.8893 12.8727 14.5909 12.7181 14.2842 12.7555C13.9774 12.793 13.725 13.0148 13.6484 13.3142L14.375 13.5ZM9.21875 16L9.91766 15.728C9.81523 15.4648 9.57369 15.2815 9.29269 15.2537C9.01169 15.2258 8.73887 15.3582 8.5868 15.5961L9.21875 16ZM10.3675 18.951L10.3315 19.7001L10.3675 18.951ZM8.75 9.37503C8.16669 9.84646 8.16667 9.84644 8.16665 9.84642C8.16665 9.84642 8.16664 9.8464 8.16664 9.8464C8.16663 9.84639 8.16664 9.8464 8.16666 9.84642C8.1667 9.84647 8.16679 9.84658 8.16693 9.84676C8.1672 9.8471 8.16768 9.84768 8.16834 9.84851C8.16966 9.85015 8.17175 9.85275 8.17457 9.85625C8.1802 9.86326 8.18873 9.87391 8.19986 9.88788C8.22214 9.91582 8.25479 9.95698 8.29544 10.0088C8.37685 10.1126 8.4898 10.2585 8.61546 10.4263C8.87161 10.7684 9.16248 11.1774 9.35198 11.5026L10.648 10.7474C10.4129 10.344 10.0788 9.87797 9.8161 9.52718C9.68233 9.34856 9.56239 9.19362 9.47577 9.08316C9.4324 9.02787 9.39725 8.98355 9.37273 8.95279C9.36046 8.93741 9.35085 8.9254 9.34418 8.9171C9.34084 8.91295 9.33825 8.90972 9.33642 8.90745C9.33551 8.90632 9.33479 8.90543 9.33427 8.90479C9.33401 8.90446 9.3338 8.9042 9.33364 8.904C9.33356 8.9039 9.33349 8.90382 9.33344 8.90375C9.33341 8.90372 9.33338 8.90368 9.33336 8.90366C9.33334 8.90363 9.33331 8.90359 8.75 9.37503ZM9.35198 11.5026C9.64076 11.9982 9.93493 12.7126 10.164 13.3325C10.2764 13.6365 10.3693 13.9073 10.434 14.1018C10.4663 14.199 10.4915 14.2768 10.5084 14.3298C10.5169 14.3563 10.5233 14.3766 10.5275 14.3901C10.5296 14.3968 10.5312 14.4017 10.5322 14.4049C10.5327 14.4065 10.533 14.4076 10.5332 14.4083C10.5333 14.4086 10.5334 14.4089 10.5334 14.409C10.5335 14.409 10.5335 14.409 10.5335 14.409C10.5335 14.409 10.5334 14.409 10.5334 14.409C10.5334 14.409 10.5334 14.4089 11.25 14.1875C11.9666 13.9661 11.9666 13.9661 11.9665 13.966C11.9665 13.966 11.9665 13.9659 11.9665 13.9658C11.9664 13.9657 11.9664 13.9656 11.9663 13.9654C11.9662 13.965 11.9661 13.9645 11.9659 13.9639C11.9655 13.9627 11.965 13.961 11.9643 13.9589C11.963 13.9546 11.9611 13.9485 11.9586 13.9406C11.9537 13.9249 11.9465 13.9022 11.9372 13.8731C11.9186 13.815 11.8916 13.7316 11.8573 13.6284C11.7887 13.4221 11.6903 13.1354 11.571 12.8125C11.3368 12.1787 11.006 11.3618 10.648 10.7474L9.35198 11.5026ZM11.9711 14.3936C12.4182 12.8288 12.4007 13.4676 13.2296 9.98624L11.7704 9.63881C10.9326 13.1574 11.0581 12.1292 10.5289 13.9815L11.9711 14.3936ZM13.2296 9.98624C13.6467 8.23428 13.7981 7.18384 13.7484 6.42009C13.6949 5.59781 13.401 5.12489 13.1708 4.66461L11.8292 5.33545C12.099 5.87513 12.2217 6.05847 12.2516 6.51744C12.2852 7.03495 12.1866 7.89077 11.7704 9.63881L13.2296 9.98624ZM13.1708 4.66461C13.1722 4.66734 13.1784 4.6798 13.1861 4.69871C13.1899 4.70808 13.2131 4.76348 13.2268 4.84086C13.233 4.87631 13.2473 4.96872 13.2287 5.08575C13.2096 5.20603 13.136 5.45062 12.8784 5.60714C12.6351 5.75499 12.4008 5.71672 12.3084 5.69352C12.2082 5.66836 12.1374 5.6281 12.1089 5.61106C12.0478 5.57447 12.0078 5.53786 12.0001 5.53092C11.9859 5.51808 11.9769 5.50865 11.9748 5.50641C11.9703 5.50171 11.9723 5.50356 11.9833 5.51652C12.0291 5.57063 12.1195 5.68614 12.2527 5.86408C12.5133 6.21208 12.9003 6.74866 13.3417 7.38073C14.2269 8.64852 15.3095 10.2701 16.0166 11.4991L17.3167 10.751C16.5762 9.464 15.4636 7.79948 14.5715 6.52196C14.1242 5.88138 13.7271 5.3305 13.4535 4.96511C13.3197 4.78635 13.2056 4.63868 13.1276 4.54673C13.1077 4.52318 13.0838 4.49583 13.0588 4.46962C13.0552 4.46592 12.983 4.38603 12.8791 4.32389C12.8483 4.30542 12.7755 4.26422 12.6735 4.23863C12.5794 4.21501 12.3437 4.17682 12.0995 4.32527C11.8409 4.48239 11.7667 4.72809 11.7473 4.85C11.7284 4.96867 11.7428 5.06323 11.7496 5.10137C11.7723 5.23023 11.8282 5.33343 11.8292 5.33545L13.1708 4.66461ZM16.0166 11.4991C16.7502 12.7741 17.5713 14.4967 18.2147 15.9157C18.535 16.6221 18.8086 17.2475 19.0022 17.6962C19.0989 17.9205 19.1755 18.1004 19.2279 18.224C19.2541 18.2858 19.2741 18.3335 19.2876 18.3656C19.2944 18.3817 19.2995 18.3938 19.3029 18.4019C19.3045 18.406 19.3058 18.409 19.3066 18.4109C19.307 18.4119 19.3073 18.4126 19.3075 18.4131C19.3076 18.4133 19.3077 18.4135 19.3077 18.4136C19.3078 18.4136 19.3078 18.4137 19.3078 18.4137C19.3078 18.4137 19.3078 18.4137 20 18.125C20.6922 17.8364 20.6922 17.8363 20.6922 17.8363C20.6922 17.8362 20.6921 17.8361 20.6921 17.8361C20.692 17.8359 20.6919 17.8357 20.6918 17.8354C20.6915 17.8347 20.6912 17.8339 20.6907 17.8327C20.6898 17.8305 20.6884 17.8272 20.6866 17.8228C20.6829 17.8141 20.6776 17.8014 20.6706 17.7847C20.6565 17.7513 20.6359 17.7023 20.6091 17.6391C20.5556 17.5127 20.4777 17.3297 20.3795 17.1021C20.1832 16.647 19.9058 16.0129 19.5809 15.2963C18.9339 13.8694 18.0883 12.0919 17.3167 10.751L16.0166 11.4991ZM5 18.125C5.69636 18.4036 5.69636 18.4036 5.69636 18.4036C5.69637 18.4036 5.69637 18.4035 5.69638 18.4035C5.6964 18.4035 5.69642 18.4034 5.69646 18.4033C5.69653 18.4031 5.69664 18.4029 5.69679 18.4025C5.69708 18.4018 5.69753 18.4006 5.69813 18.3991C5.69933 18.3961 5.70114 18.3916 5.70356 18.3856C5.7084 18.3735 5.71569 18.3553 5.72541 18.3311C5.74486 18.2825 5.77408 18.2098 5.81306 18.1128C5.89102 17.9189 6.00805 17.6282 6.16413 17.2419C6.47631 16.4693 6.94472 15.3139 7.56939 13.7835L6.18061 13.2166C5.55528 14.7487 5.08619 15.9058 4.77337 16.68C4.61695 17.0671 4.4996 17.3585 4.42131 17.5533C4.38217 17.6507 4.35279 17.7239 4.33318 17.7728C4.32337 17.7972 4.31601 17.8156 4.31109 17.8279C4.30863 17.834 4.30677 17.8387 4.30553 17.8418C4.30491 17.8433 4.30445 17.8445 4.30413 17.8453C4.30397 17.8457 4.30385 17.846 4.30377 17.8462C4.30373 17.8463 4.3037 17.8463 4.30368 17.8464C4.30367 17.8464 4.30366 17.8464 4.30365 17.8465C4.30365 17.8465 4.30364 17.8465 5 18.125ZM7.56939 13.7835C8.1894 12.2644 8.65196 11.2474 8.95688 10.6147C9.10931 10.2984 9.22221 10.0784 9.29555 9.94001C9.33221 9.87082 9.35895 9.82205 9.37578 9.79186C9.3842 9.77677 9.39013 9.76633 9.39357 9.76031C9.39529 9.7573 9.3964 9.7554 9.39688 9.75457C9.39712 9.75416 9.3972 9.75401 9.39713 9.75414C9.39709 9.7542 9.39702 9.75432 9.39691 9.75452C9.39685 9.75461 9.39678 9.75473 9.39671 9.75486C9.39667 9.75492 9.39661 9.75503 9.39659 9.75506C9.39652 9.75518 9.39645 9.75529 8.75 9.37503C8.10355 8.99476 8.10348 8.99489 8.1034 8.99502C8.10337 8.99507 8.10329 8.9952 8.10323 8.9953C8.10312 8.99549 8.103 8.9957 8.10286 8.99593C8.1026 8.99638 8.1023 8.9969 8.10195 8.99748C8.10127 8.99865 8.10044 9.00008 8.09946 9.00177C8.0975 9.00515 8.09494 9.00958 8.09178 9.0151C8.08546 9.02614 8.07674 9.04152 8.06562 9.06146C8.04339 9.10135 8.01154 9.15951 7.97008 9.23778C7.88716 9.39428 7.76569 9.63134 7.60562 9.96348C7.28554 10.6276 6.8106 11.6731 6.18061 13.2166L7.56939 13.7835ZM12.5 19.75C12.6615 19.75 12.8201 19.7493 12.9759 19.7478L12.9616 18.2478C12.8106 18.2493 12.6567 18.25 12.5 18.25V19.75ZM13.6954 19.1837L15.1016 13.6859L13.6484 13.3142L12.2421 18.812L13.6954 19.1837ZM12.9759 19.7478C14.7715 19.7306 16.1916 19.6175 17.2841 19.4756L17.0909 17.9881C16.062 18.1217 14.7019 18.2312 12.9616 18.2478L12.9759 19.7478ZM17.2841 19.4756C18.304 19.3431 19.0385 19.1855 19.5267 19.0574C19.7708 18.9934 19.9532 18.9367 20.0789 18.8943C20.1418 18.873 20.1904 18.8554 20.2255 18.8421C20.243 18.8355 20.2571 18.83 20.2679 18.8257C20.2733 18.8235 20.2779 18.8217 20.2816 18.8202C20.2835 18.8194 20.2852 18.8187 20.2866 18.8181C20.2874 18.8178 20.2881 18.8175 20.2887 18.8172C20.289 18.8171 20.2893 18.817 20.2896 18.8169C20.2897 18.8168 20.2899 18.8167 20.29 18.8167C20.2902 18.8166 20.2904 18.8165 20 18.125C19.7096 17.4335 19.7098 17.4335 19.71 17.4334C19.71 17.4334 19.7102 17.4333 19.7103 17.4332C19.7106 17.4331 19.7108 17.433 19.711 17.4329C19.7114 17.4328 19.7118 17.4326 19.7121 17.4325C19.7128 17.4322 19.7132 17.432 19.7135 17.4319C19.7139 17.4317 19.7136 17.4319 19.7124 17.4323C19.7101 17.4333 19.7044 17.4355 19.6953 17.439C19.6771 17.4458 19.6452 17.4575 19.5991 17.4731C19.5069 17.5042 19.3575 17.551 19.146 17.6065C18.723 17.7175 18.0513 17.8633 17.0909 17.9881L17.2841 19.4756ZM13.7144 13.8552L16.5269 19.0869L17.8481 18.3767L15.0356 13.1449L13.7144 13.8552ZM5 18.125C4.70958 18.8165 4.70977 18.8166 4.70996 18.8167C4.71003 18.8167 4.71022 18.8168 4.71036 18.8168C4.71063 18.817 4.71092 18.8171 4.71121 18.8172C4.7118 18.8174 4.71244 18.8177 4.71312 18.818C4.71448 18.8186 4.71603 18.8192 4.71776 18.8199C4.72122 18.8213 4.72541 18.823 4.73035 18.825C4.74022 18.8289 4.75306 18.834 4.76894 18.84C4.80069 18.8521 4.84457 18.8681 4.90109 18.8875C5.01415 18.9261 5.17773 18.9778 5.39597 19.0368C5.83244 19.1548 6.48735 19.3018 7.39364 19.4316L7.60636 17.9468C6.757 17.8251 6.1619 17.69 5.7873 17.5888C5.59999 17.5381 5.46776 17.496 5.38638 17.4681C5.34569 17.4542 5.3177 17.4439 5.30189 17.4379C5.29398 17.4349 5.28912 17.433 5.28723 17.4322C5.28628 17.4318 5.28608 17.4317 5.28662 17.432C5.28689 17.4321 5.28734 17.4323 5.28797 17.4325C5.28829 17.4326 5.28865 17.4328 5.28906 17.433C5.28927 17.4331 5.28948 17.4331 5.28971 17.4332C5.28982 17.4333 5.29 17.4334 5.29006 17.4334C5.29024 17.4335 5.29042 17.4335 5 18.125ZM8.13195 19.0931L9.8507 16.4039L8.5868 15.5961L6.86805 18.2853L8.13195 19.0931ZM7.39364 19.4316C8.17765 19.5439 9.14981 19.6434 10.3315 19.7001L10.4034 18.2019C9.26625 18.1473 8.34116 18.052 7.60636 17.9468L7.39364 19.4316ZM10.3315 19.7001C10.9883 19.7317 11.7099 19.75 12.5 19.75V18.25C11.7331 18.25 11.0355 18.2322 10.4034 18.2019L10.3315 19.7001ZM8.51984 16.2721L9.66855 19.2231L11.0664 18.6789L9.91766 15.728L8.51984 16.2721Z" fill="black"/>
</svg>
