<svg width="24" height="24" viewBox="0 0 24 24" fill="none" xmlns="http://www.w3.org/2000/svg">
<path d="M17.1667 11.1733C17.1667 12.5307 17.1667 9.81592 17.1667 11.1733ZM17.1667 11.1733C17.1667 12.5307 17.1667 13.8881 17.1667 13.8881M17.1667 11.1733C17.1667 9.81592 20 9.81592 20 11.1733C20 12.5307 20 12.8701 20 18.2997C20 23.7294 7.95833 22.7113 5.83333 18.2997L3.70764 13.9716C3.3813 13.3071 3.86496 12.5307 4.60523 12.5307L5.20388 12.5307C5.58858 12.5307 5.93854 12.7501 6.10811 13.0954C6.81956 14.5441 8.66667 18.2156 8.66667 17.2817C8.66667 16.125 8.66667 12.5307 8.66667 11.1733C8.66667 9.81592 8.66667 5.37546 8.66667 4.01805C8.66667 2.66065 11.5 2.66065 11.5 4.01805M17.1667 11.1733C17.1667 9.81592 14.3238 9.81592 14.3333 11.1733M14.3333 11.1733C14.3333 9.81592 11.5 9.81592 11.5 11.1733C11.5 11.4976 11.5 3.66565 11.5 4.01805M14.3333 11.1733C14.3333 11.4976 14.3333 10.8209 14.3333 11.1733ZM14.3333 11.1733C14.3476 13.2094 14.3333 13.8881 14.3333 13.8881M11.5 13.8881C11.5 13.8881 11.5 7.41019 11.5 4.01805" stroke="black" stroke-width="1.75" stroke-linecap="round"/>
</svg>
