<svg width="24" height="24" viewBox="0 0 24 24" fill="none" xmlns="http://www.w3.org/2000/svg">
<g clip-path="url(#clip0)">
<path d="M2.51055 7.63472C8.64445 2.91406 16.2682 2.9874 21.713 7.76123C22.1156 8.11427 22.131 8.72747 21.7714 9.12427L19.1845 11.9786C18.8957 12.2974 18.4353 12.3957 18.0415 12.2227L16.2944 11.4555C15.8386 11.2553 15.5995 10.7504 15.7333 10.2709L16.4201 7.81126C16.5969 7.1781 16.1251 6.54952 15.4678 6.54239L8.65836 6.46854C8.00636 6.46147 7.52211 7.07023 7.67564 7.70394L8.3038 10.2968C8.41746 10.7659 8.17978 11.2493 7.73885 11.4457L6.00241 12.2192C5.59444 12.401 5.11541 12.2902 4.82871 11.9477L2.37639 9.01841C2.02435 8.5979 2.07594 7.9692 2.51055 7.63472Z" fill="black" stroke="black" stroke-linecap="round" stroke-linejoin="round"/>
<path d="M12 13V19M12 19L9.5 16.7895M12 19L14.5 16.7895" stroke="black" stroke-width="2" stroke-linecap="round" stroke-linejoin="round"/>
</g>
<defs>
<clipPath id="clip0">
<rect width="24" height="24" fill="white" transform="matrix(1 0 0 -1 0 24)"/>
</clipPath>
</defs>
</svg>
