<svg width="24" height="24" viewBox="0 0 24 24" fill="none" xmlns="http://www.w3.org/2000/svg">
<path d="M10.8783 5.40922L11.5402 4.65961C11.6174 4.72775 11.6836 4.8074 11.7364 4.89574L10.8783 5.40922ZM11.5417 19.3739L12.498 19.0814C12.6247 19.4956 12.4703 19.9444 12.1155 20.1929C11.7607 20.4414 11.2862 20.4333 10.9402 20.1727L11.5417 19.3739ZM8.98986 11.0309L9.94613 10.7384L9.94613 10.7384L8.98986 11.0309ZM9.21842 9.70001L8.41453 9.10524L8.41453 9.10524L9.21842 9.70001ZM10.4243 9.09217L10.4243 10.0922L10.4243 10.0922L10.4243 9.09217ZM13.0822 9.09217L13.9403 8.57869C14.1252 8.88766 14.1297 9.27217 13.9521 9.58539C13.7745 9.89861 13.4422 10.0922 13.0822 10.0922L13.0822 9.09217ZM12.4517 12.0922L11.4954 12.3847C11.4027 12.0815 11.4592 11.7523 11.6478 11.4974C11.8363 11.2425 12.1346 11.0922 12.4517 11.0922L12.4517 12.0922ZM14.4208 18.5301L15.0735 19.2877C14.8175 19.5082 14.4676 19.5846 14.1431 19.4907C13.8186 19.3969 13.5634 19.1456 13.4646 18.8226L14.4208 18.5301ZM15.7278 12.0922L15.7278 11.0922L15.7278 11.0922L15.7278 12.0922ZM17.0327 11.332L16.1628 10.8388L16.1628 10.8388L17.0327 11.332ZM17.015 9.82195L16.1569 10.3354L16.1569 10.3354L17.015 9.82195ZM14.2986 5.28259L13.4405 5.79607C13.188 5.37398 13.2799 4.83089 13.6572 4.51539L14.2986 5.28259ZM10.2164 6.15883C8.80885 4.91597 7.24415 4.76975 6.07559 5.26577C4.91138 5.75993 4 6.94825 4 8.70764H2C2 6.18525 3.35539 4.24769 5.29415 3.42475C7.22855 2.60367 9.60301 2.94913 11.5402 4.65961L10.2164 6.15883ZM4 8.70764C4 9.41846 4.28778 10.2716 4.85493 11.2346C5.4155 12.1865 6.203 13.1683 7.09047 14.1161C8.86499 16.0113 10.948 17.675 12.1433 18.575L10.9402 20.1727C9.70778 19.2447 7.51996 17.501 5.63053 15.4831C4.68602 14.4743 3.79327 13.3731 3.13159 12.2496C2.47648 11.1372 2 9.92266 2 8.70764H4ZM10.5855 19.6664L8.0336 11.3234L9.94613 10.7384L12.498 19.0814L10.5855 19.6664ZM8.0336 11.3234C7.80176 10.5654 7.94309 9.74243 8.41453 9.10524L10.0223 10.2948C9.92803 10.4222 9.89976 10.5868 9.94613 10.7384L8.0336 11.3234ZM8.41453 9.10524C8.88596 8.46805 9.63164 8.09217 10.4243 8.09217L10.4243 10.0922C10.2657 10.0922 10.1166 10.1673 10.0223 10.2948L8.41453 9.10524ZM10.4243 8.09217L13.0822 8.09217L13.0822 10.0922L10.4243 10.0922L10.4243 8.09217ZM12.2241 9.60565L10.0202 5.9227L11.7364 4.89574L13.9403 8.57869L12.2241 9.60565ZM13.4079 11.7997L15.3771 18.2376L13.4646 18.8226L11.4954 12.3847L13.4079 11.7997ZM15.7278 13.0922L12.4517 13.0922L12.4517 11.0922L15.7278 11.0922L15.7278 13.0922ZM17.9026 11.8252C17.4586 12.6083 16.628 13.0922 15.7278 13.0922L15.7278 11.0922C15.9078 11.0922 16.074 10.9954 16.1628 10.8388L17.9026 11.8252ZM17.8731 9.30847C18.3353 10.0809 18.3466 11.0422 17.9026 11.8252L16.1628 10.8388C16.2516 10.6822 16.2493 10.4899 16.1569 10.3354L17.8731 9.30847ZM15.1567 4.7691L17.8731 9.30847L16.1569 10.3354L13.4405 5.79607L15.1567 4.7691ZM20.5605 8.70764C20.5605 7.06613 19.7435 5.89841 18.7007 5.38338C17.6741 4.87636 16.2804 4.92915 14.9401 6.04978L13.6572 4.51539C15.5541 2.92955 17.7913 2.70364 19.5863 3.59016C21.3651 4.46867 22.5605 6.36671 22.5605 8.70764H20.5605ZM13.7682 17.7724C15.0757 16.6461 16.8117 15.0333 18.2125 13.3274C18.9127 12.4746 19.5108 11.6204 19.9299 10.8111C20.3537 9.99283 20.5605 9.28532 20.5605 8.70764H22.5605C22.5605 9.72978 22.2064 10.7644 21.7059 11.7308C21.2008 12.7061 20.5113 13.6793 19.7582 14.5965C18.2522 16.4307 16.4183 18.1293 15.0735 19.2877L13.7682 17.7724Z" fill="black"/>
</svg>
