<svg width="24" height="24" viewBox="0 0 24 24" fill="none" xmlns="http://www.w3.org/2000/svg">
<path fill-rule="evenodd" clip-rule="evenodd" d="M18.1545 16.8526C18.4726 17.1566 19 16.9312 19 16.4911L19 6.50001C19 6.22387 18.7761 6.00001 18.5 6.00001L5.5 6.00001C5.22386 6.00001 5 6.22387 5 6.50001L5 12.7647C5 13.0409 5.22386 13.2647 5.5 13.2647L13.7995 13.2647C14.1856 13.2647 14.5568 13.4136 14.8359 13.6804L18.1545 16.8526ZM21 18.8304C21 20.1505 19.4178 20.8269 18.4635 19.9147L13.7439 15.4033C13.6509 15.3143 13.5271 15.2647 13.3984 15.2647L4.5 15.2647C3.67157 15.2647 3 14.5931 3 13.7647L3 5.50001C3 4.67159 3.67157 4.00001 4.5 4.00001L19.5 4.00001C20.3284 4.00001 21 4.67159 21 5.50001L21 18.8304Z" fill="black"/>
<path d="M7 8H17" stroke="black" stroke-width="1.5" stroke-linecap="round" stroke-linejoin="round"/>
<path d="M7 11H17" stroke="black" stroke-width="1.5" stroke-linecap="round" stroke-linejoin="round"/>
</svg>
