<svg width="24" height="24" viewBox="0 0 24 24" fill="none" xmlns="http://www.w3.org/2000/svg">
<path d="M5 5L19 19" stroke="black" stroke-width="2" stroke-linecap="round" stroke-linejoin="round"/>
<path fill-rule="evenodd" clip-rule="evenodd" d="M8.93308 4.81223C9.5289 3.73186 10.679 3 12 3C13.933 3 15.5 4.567 15.5 6.5V10.5C15.5 10.7716 15.4691 11.0359 15.4105 11.2897L13.5 9.37915V6.5C13.5 5.67157 12.8284 5 12 5C11.2107 5 10.5639 5.60957 10.5044 6.3836L8.93308 4.81223ZM10.5053 10.6271L8.5 8.62179V10.5C8.5 12.433 10.067 14 12 14C12.5478 14 13.0663 13.8741 13.528 13.6498L11.8729 11.9947C11.1459 11.9337 10.5663 11.3541 10.5053 10.6271Z" fill="black"/>
<path d="M8.93308 4.81223L8.75631 4.98901L8.62339 4.8561L8.71417 4.6915L8.93308 4.81223ZM15.4105 11.2897L15.6542 11.3459L15.5528 11.7855L15.2338 11.4665L15.4105 11.2897ZM13.5 9.37915L13.3232 9.55593L13.25 9.4827V9.37915H13.5ZM10.5044 6.3836L10.7537 6.40273L10.7121 6.94482L10.3277 6.56038L10.5044 6.3836ZM10.5053 10.6271L10.6821 10.4503L10.7468 10.515L10.7544 10.6062L10.5053 10.6271ZM8.5 8.62179H8.25V8.01824L8.67678 8.44502L8.5 8.62179ZM13.528 13.6498L13.7047 13.473L13.9529 13.7212L13.6372 13.8746L13.528 13.6498ZM11.8729 11.9947L11.8938 11.7456L11.985 11.7532L12.0497 11.8179L11.8729 11.9947ZM8.71417 4.6915C9.35218 3.5346 10.5843 2.75 12 2.75V3.25C10.7737 3.25 9.70561 3.92911 9.152 4.93296L8.71417 4.6915ZM12 2.75C14.0711 2.75 15.75 4.42893 15.75 6.5H15.25C15.25 4.70507 13.7949 3.25 12 3.25V2.75ZM15.75 6.5V10.5H15.25V6.5H15.75ZM15.75 10.5C15.75 10.7906 15.7169 11.0738 15.6542 11.3459L15.1669 11.2335C15.2212 10.998 15.25 10.7525 15.25 10.5H15.75ZM13.6768 9.20237L15.5873 11.1129L15.2338 11.4665L13.3232 9.55593L13.6768 9.20237ZM13.25 9.37915V6.5H13.75V9.37915H13.25ZM13.25 6.5C13.25 5.80964 12.6904 5.25 12 5.25V4.75C12.9665 4.75 13.75 5.5335 13.75 6.5H13.25ZM12 5.25C11.3424 5.25 10.8032 5.75796 10.7537 6.40273L10.2552 6.36447C10.3245 5.46118 11.0791 4.75 12 4.75V5.25ZM9.10986 4.63546L10.6812 6.20682L10.3277 6.56038L8.75631 4.98901L9.10986 4.63546ZM10.3285 10.8039L8.32322 8.79857L8.67678 8.44502L10.6821 10.4503L10.3285 10.8039ZM8.25 10.5V8.62179H8.75V10.5H8.25ZM12 14.25C9.92893 14.25 8.25 12.5711 8.25 10.5H8.75C8.75 12.2949 10.2051 13.75 12 13.75V14.25ZM13.6372 13.8746C13.1422 14.1152 12.5865 14.25 12 14.25V13.75C12.5092 13.75 12.9903 13.6331 13.4187 13.4249L13.6372 13.8746ZM13.3512 13.8265L11.6961 12.1715L12.0497 11.8179L13.7047 13.473L13.3512 13.8265ZM10.7544 10.6062C10.8052 11.2117 11.2883 11.6948 11.8938 11.7456L11.852 12.2438C11.0034 12.1726 10.3274 11.4966 10.2562 10.648L10.7544 10.6062Z" fill="black"/>
<path fill-rule="evenodd" clip-rule="evenodd" d="M8.46291 13.7293C8.31338 13.1976 7.76117 12.8878 7.22951 13.0373C6.69785 13.1869 6.38808 13.7391 6.5376 14.2707C7.17394 16.5333 8.82364 18.063 11.0003 18.42V21C11.0003 21.5523 11.448 22 12.0003 22C12.5525 22 13.0003 21.5523 13.0003 21V18.42C13.7841 18.2914 14.4996 18.0108 15.124 17.5986L13.6608 16.1355C13.1713 16.3753 12.6119 16.5 12.0003 16.5C10.2727 16.5 8.9625 15.5056 8.46291 13.7293ZM15.7806 13.3054C16.0279 13.0495 16.4044 12.9342 16.771 13.0373C17.3027 13.1869 17.6124 13.7391 17.4629 14.2707C17.4108 14.456 17.3519 14.6363 17.2865 14.8114L15.7806 13.3054Z" fill="black"/>
</svg>
