<svg width="24" height="24" viewBox="0 0 24 24" fill="none" xmlns="http://www.w3.org/2000/svg">
<rect x="2" y="5.97083" width="20" height="10.5292" rx="1.2" stroke="black" stroke-width="2"/>
<circle cx="12.4699" cy="11.2354" r="4.80969" stroke="black" stroke-width="1.5"/>
<path fill-rule="evenodd" clip-rule="evenodd" d="M11.9006 8.33158C11.9006 8.38508 11.8632 8.43104 11.8115 8.44471C11.5221 8.5212 11.2587 8.65779 11.0425 8.87403C10.6703 9.24622 10.5341 9.75825 10.5341 10.3015C10.5341 10.5793 10.5981 10.8374 10.7395 11.0612C10.8797 11.2831 11.0714 11.4327 11.2654 11.5347C11.621 11.7218 12.0608 11.7836 12.379 11.8283L12.3907 11.8299C12.767 11.8828 13.0099 11.9181 13.173 11.9926C13.2151 12.0118 13.2369 12.0277 13.2471 12.0368C13.253 12.042 13.2575 12.0484 13.2597 12.0559V12.0559C13.2624 12.0648 13.2671 12.0857 13.2671 12.1235C13.2671 12.3895 13.1875 12.583 13.076 12.7041C12.9716 12.8174 12.7908 12.9207 12.4699 12.9207C12.1022 12.9207 11.931 12.8291 11.8477 12.7458C11.8286 12.7267 11.8091 12.7031 11.7904 12.6735C11.6221 12.4079 11.4179 12.1235 11.1034 12.1235V12.1235C10.789 12.1235 10.5241 12.3817 10.5908 12.689C10.6615 13.0149 10.8033 13.3118 11.0425 13.551C11.2587 13.7673 11.5221 13.9038 11.8115 13.9803C11.8632 13.994 11.9006 14.04 11.9006 14.0935V14.2994C11.9006 14.6139 12.1555 14.8688 12.4699 14.8688V14.8688C12.7844 14.8688 13.0393 14.6139 13.0393 14.2994L13.0393 14.0782C13.0393 14.0263 13.0746 13.9812 13.1242 13.966C13.4334 13.8715 13.7012 13.7062 13.9136 13.4755C14.2577 13.102 14.4058 12.6122 14.4058 12.1235C14.4058 11.8525 14.336 11.5996 14.1828 11.3845C14.0335 11.1749 13.8348 11.0429 13.6458 10.9566C13.3228 10.8092 12.9219 10.7538 12.6206 10.7122C12.5961 10.7088 12.5723 10.7055 12.5492 10.7023C12.185 10.6511 11.948 10.6071 11.7956 10.5269C11.7333 10.4942 11.7115 10.4678 11.7023 10.453C11.6942 10.4403 11.6728 10.4011 11.6728 10.3015C11.6728 9.93378 11.7644 9.76256 11.8477 9.67925C11.931 9.59594 12.1022 9.50439 12.4699 9.50439C12.8377 9.50439 13.0089 9.59594 13.0922 9.67925C13.1113 9.69831 13.1308 9.72197 13.1495 9.75153C13.3178 10.0172 13.522 10.3015 13.8364 10.3015V10.3015C14.1509 10.3015 14.4158 10.0433 14.3491 9.73603C14.2783 9.41016 14.1366 9.11321 13.8974 8.87403C13.6812 8.65779 13.4177 8.5212 13.1284 8.44471C13.0767 8.43104 13.0393 8.38508 13.0393 8.33158L13.0393 8.17131C13.0393 7.85685 12.7844 7.60193 12.4699 7.60193V7.60193C12.1555 7.60193 11.9006 7.85685 11.9006 8.17131V8.33158Z" fill="black"/>
</svg>
