<svg width="24" height="24" viewBox="0 0 24 24" fill="none" xmlns="http://www.w3.org/2000/svg">
<circle cx="12" cy="12" r="10" stroke="black" stroke-width="2"/>
<path fill-rule="evenodd" clip-rule="evenodd" d="M11.0642 7.22693C11.0642 7.31488 11.0028 7.39041 10.9177 7.41289C10.4421 7.53862 10.0091 7.76312 9.65365 8.11857C9.04187 8.73034 8.81799 9.57198 8.81799 10.465C8.81799 10.9215 8.92326 11.3458 9.15566 11.7137C9.38607 12.0784 9.70124 12.3243 10.02 12.492C10.6046 12.7996 11.3275 12.9011 11.8506 12.9746L11.8698 12.9773C12.4883 13.0642 12.8876 13.1222 13.1557 13.2446C13.225 13.2762 13.2607 13.3023 13.2776 13.3173C13.2871 13.3258 13.2946 13.3364 13.2983 13.3486V13.3486C13.3026 13.3633 13.3103 13.3977 13.3103 13.4598C13.3103 13.8971 13.1795 14.2151 12.9962 14.4141C12.8246 14.6004 12.5274 14.7701 12.0001 14.7701C11.3956 14.7701 11.1142 14.6196 10.9772 14.4827C10.9459 14.4514 10.9138 14.4125 10.8831 14.3639C10.6065 13.9272 10.2708 13.4598 9.75389 13.4598V13.4598C9.23701 13.4598 8.80158 13.8842 8.91125 14.3893C9.02753 14.925 9.26049 15.4131 9.65365 15.8062C10.0091 16.1617 10.4421 16.3862 10.9177 16.5119C11.0028 16.5344 11.0642 16.6099 11.0642 16.6979V17.0364C11.0642 17.5533 11.4832 17.9723 12.0001 17.9723V17.9723C12.5169 17.9723 12.9359 17.5533 12.9359 17.0364L12.9359 16.6728C12.9359 16.5874 12.9939 16.5134 13.0755 16.4884C13.5837 16.333 14.0239 16.0613 14.3731 15.6821C14.9386 15.0681 15.1821 14.2631 15.1821 13.4598C15.1821 13.0143 15.0674 12.5987 14.8155 12.245C14.57 11.9005 14.2435 11.6835 13.9329 11.5418C13.4019 11.2994 12.7429 11.2084 12.2477 11.14C12.2075 11.1344 12.1682 11.129 12.1303 11.1237C11.5317 11.0396 11.1421 10.9673 10.8916 10.8355C10.7892 10.7816 10.7535 10.7382 10.7382 10.714C10.7249 10.693 10.6898 10.6287 10.6898 10.465C10.6898 9.86051 10.8403 9.57907 10.9772 9.44213C11.1142 9.30519 11.3956 9.15471 12.0001 9.15471C12.6045 9.15471 12.8859 9.30519 13.0229 9.44213C13.0542 9.47345 13.0863 9.51235 13.117 9.56094C13.3936 9.99758 13.7293 10.465 14.2462 10.465V10.465C14.7631 10.465 15.1985 10.0406 15.0889 9.53546C14.9726 8.99982 14.7396 8.51173 14.3464 8.11857C13.991 7.76312 13.558 7.53862 13.0824 7.41289C12.9973 7.39041 12.9359 7.31488 12.9359 7.22693L12.9359 6.96349C12.9359 6.4466 12.5169 6.02759 12.0001 6.02759V6.02759C11.4832 6.02759 11.0642 6.4466 11.0642 6.96349V7.22693Z" fill="black"/>
</svg>
