<svg width="24" height="24" viewBox="0 0 24 24" fill="none" xmlns="http://www.w3.org/2000/svg">
<circle cx="5.20958" cy="16.2041" r="2.19277" stroke="black" stroke-width="1.46185"/>
<circle cx="18.8536" cy="16.2041" r="2.19277" stroke="black" stroke-width="1.46185"/>
<path d="M2.28608 13.2803L2.9579 12.9924L2.9579 12.9924L2.28608 13.2803ZM4.92398 8.91799L5.6549 8.91796L4.92398 8.91799ZM12.0752 10.095L12.7686 10.3261L12.0752 10.095ZM11.243 13.0387L10.5451 13.256L10.5451 13.256L11.243 13.0387ZM13.0063 14.4134L12.9657 15.1432L12.9657 15.1432L13.0063 14.4134ZM16.1263 7.6645L16.7583 7.2973L16.7583 7.2973L16.1263 7.6645ZM18.8537 12.3058L18.2239 12.6768L18.2269 12.6818L18.8537 12.3058ZM13.0063 16.6912L13.1542 17.407L13.0063 16.6912ZM15.1678 7.45657L15.0538 6.73459L15.0297 6.7384L15.0059 6.74382L15.1678 7.45657ZM14.0642 6.28209L14.7902 6.19791L14.0642 6.28209ZM15.6415 4.87632L15.6828 4.14656L15.6415 4.87632ZM16.8726 7.04904L16.2422 6.67911L16.8726 7.04904ZM16.1345 7.67847L15.5026 8.04585L15.5026 8.04585L16.1345 7.67847ZM12.8944 5.58279C12.5082 5.46534 12.0999 5.68321 11.9825 6.06942C11.865 6.45563 12.0829 6.86394 12.4691 6.98139L12.8944 5.58279ZM14.0642 6.7025L14.7835 6.57273L14.0642 6.7025ZM3.26065 14.2548C3.64993 13.6362 3.65003 13.6363 3.65012 13.6363C3.65015 13.6364 3.65025 13.6364 3.6503 13.6365C3.65042 13.6365 3.65052 13.6366 3.65061 13.6366C3.6508 13.6368 3.65094 13.6369 3.65103 13.6369C3.65122 13.637 3.65124 13.637 3.65109 13.6369C3.65078 13.6368 3.6498 13.6361 3.64817 13.6351C3.64492 13.633 3.63914 13.6292 3.63113 13.6239C3.61506 13.6133 3.59029 13.5966 3.55924 13.5747C3.4965 13.5305 3.41141 13.4674 3.32209 13.3927C3.11634 13.2204 2.99122 13.0701 2.9579 12.9924L1.61426 13.5682C1.79296 13.9852 2.15512 14.3222 2.38365 14.5135C2.51147 14.6205 2.63027 14.7084 2.71713 14.7696C2.76088 14.8004 2.79734 14.8251 2.82381 14.8426C2.83706 14.8514 2.84786 14.8584 2.85589 14.8636C2.8599 14.8662 2.86322 14.8683 2.86582 14.87C2.86711 14.8708 2.86823 14.8715 2.86915 14.8721C2.86962 14.8724 2.87003 14.8726 2.8704 14.8729C2.87058 14.873 2.87076 14.8731 2.87092 14.8732C2.871 14.8733 2.87111 14.8733 2.87115 14.8733C2.87126 14.8734 2.87136 14.8735 3.26065 14.2548ZM2.9579 12.9924C2.95287 12.9806 2.9525 12.9779 2.95518 12.9646C2.95985 12.9413 2.97797 12.8871 3.03891 12.8013C3.16709 12.621 3.40326 12.4136 3.7136 12.2047C4.01365 12.0028 4.33567 11.8307 4.58804 11.7075C4.71291 11.6465 4.81774 11.5989 4.89031 11.567C4.92653 11.551 4.95454 11.5391 4.9728 11.5314C4.98192 11.5276 4.98859 11.5248 4.99261 11.5231C4.99462 11.5223 4.99596 11.5218 4.99662 11.5215C4.99695 11.5214 4.99711 11.5213 4.99709 11.5213C4.99708 11.5213 4.99703 11.5213 4.99693 11.5214C4.99689 11.5214 4.99678 11.5214 4.99676 11.5214C4.99664 11.5215 4.99651 11.5215 4.72249 10.8439C4.44847 10.1663 4.44832 10.1664 4.44816 10.1664C4.44809 10.1665 4.44792 10.1665 4.44778 10.1666C4.4475 10.1667 4.44718 10.1668 4.44681 10.167C4.44608 10.1673 4.44516 10.1677 4.44407 10.1681C4.44188 10.169 4.43898 10.1702 4.43539 10.1717C4.42822 10.1746 4.41829 10.1787 4.40582 10.184C4.38087 10.1945 4.34567 10.2095 4.30182 10.2288C4.21423 10.2673 4.09145 10.3231 3.94649 10.3939C3.65921 10.5342 3.27274 10.7394 2.89743 10.9919C2.53242 11.2376 2.12635 11.562 1.8474 11.9544C1.56047 12.358 1.34431 12.9384 1.61426 13.5682L2.9579 12.9924ZM4.72249 10.8439C5.44547 10.9514 5.44547 10.9514 5.44547 10.9514C5.44548 10.9514 5.44548 10.9513 5.44549 10.9513C5.4455 10.9512 5.44551 10.9511 5.44553 10.951C5.44556 10.9508 5.44561 10.9505 5.44566 10.9501C5.44578 10.9493 5.44594 10.9482 5.44615 10.9468C5.44657 10.944 5.44717 10.9399 5.44794 10.9346C5.44949 10.924 5.45174 10.9087 5.45458 10.889C5.46025 10.8497 5.4683 10.7933 5.47795 10.7239C5.49721 10.5852 5.52293 10.394 5.54871 10.1841C5.59831 9.7803 5.65491 9.25519 5.6549 8.91796L4.19305 8.91801C4.19306 9.15166 4.14892 9.58952 4.09777 10.0059C4.07318 10.2062 4.04853 10.3894 4.03001 10.5227C4.02076 10.5892 4.01307 10.6431 4.00773 10.6802C4.00505 10.6987 4.00297 10.713 4.00157 10.7225C4.00087 10.7273 4.00034 10.7309 3.99999 10.7332C3.99982 10.7344 3.99969 10.7353 3.99961 10.7358C3.99957 10.7361 3.99955 10.7362 3.99953 10.7363C3.99952 10.7364 3.99952 10.7364 3.99952 10.7364C3.99951 10.7365 3.99952 10.7364 3.99951 10.7364C3.99952 10.7364 3.99952 10.7364 4.72249 10.8439ZM5.6549 8.91796C5.65491 9.16376 5.5287 9.33984 5.42019 9.43276C5.32877 9.51103 5.24508 9.53804 5.22738 9.54368C5.18804 9.55621 5.18943 9.54901 5.2711 9.54506C5.41749 9.53798 5.66003 9.54744 5.99108 9.5774C6.64207 9.63632 7.5245 9.76376 8.41592 9.91887C9.30611 10.0738 10.1859 10.2529 10.8297 10.4116C11.1554 10.4919 11.401 10.5623 11.5532 10.6168C11.6359 10.6464 11.6549 10.6588 11.6402 10.6501C11.6383 10.6489 11.5752 10.6135 11.5085 10.5355C11.445 10.4611 11.2675 10.2064 11.3817 9.86382L12.7686 10.3261C12.8897 9.96268 12.7047 9.6852 12.6203 9.58628C12.5327 9.48369 12.4351 9.42194 12.3861 9.39286C12.2772 9.32827 12.1516 9.27835 12.0463 9.24063C11.8226 9.16048 11.5191 9.07599 11.1796 8.99227C10.493 8.82295 9.57801 8.63727 8.66652 8.47867C7.75626 8.32028 6.83007 8.18551 6.12285 8.12151C5.77479 8.09 5.45084 8.07282 5.20051 8.08492C5.08382 8.09056 4.92929 8.1044 4.78363 8.15081C4.71277 8.17338 4.58831 8.22054 4.46942 8.32234C4.33343 8.43877 4.19304 8.64176 4.19305 8.91801L5.6549 8.91796ZM10.5451 13.256C10.7152 13.8025 10.9854 14.2806 11.4251 14.6234C11.8647 14.9661 12.3943 15.1114 12.9657 15.1432L13.0468 13.6836C12.6682 13.6625 12.4576 13.5747 12.3238 13.4704C12.19 13.3662 12.0535 13.1834 11.9409 12.8214L10.5451 13.256ZM12.9657 15.1432C14.1674 15.2099 14.9874 14.4405 15.4723 13.9556L14.4386 12.922C13.9489 13.4116 13.5446 13.7112 13.0468 13.6836L12.9657 15.1432ZM15.4723 13.9556C15.699 13.7289 15.9589 13.4784 16.1686 13.1675C16.3927 12.8353 16.547 12.4586 16.6466 11.9623L15.2134 11.6746C15.1455 12.0127 15.0562 12.2025 14.9567 12.3501C14.8428 12.5189 14.6991 12.6615 14.4386 12.922L15.4723 13.9556ZM16.6466 11.9623C16.7316 11.5388 16.6023 11.0896 16.4786 10.7556C16.3432 10.3896 16.1485 9.99734 15.9566 9.63136C15.7497 9.2369 15.5707 8.91736 15.3947 8.57474C15.2226 8.23955 15.1141 7.99485 15.0704 7.83556L13.6606 8.22205C13.7485 8.54281 13.9223 8.90755 14.0943 9.24256C14.2626 9.57014 14.4896 9.98157 14.6619 10.3102C14.8492 10.6673 15.0067 10.9903 15.1077 11.2632C15.2206 11.5679 15.2121 11.681 15.2134 11.6746L16.6466 11.9623ZM18.2269 12.6818L19.6887 15.1182L20.9423 14.3661L19.4804 11.9297L18.2269 12.6818ZM7.64619 17.1785C7.65988 17.9093 7.65993 17.9093 7.66 17.9093C7.66004 17.9093 7.66012 17.9093 7.6602 17.9093C7.66035 17.9093 7.66056 17.9093 7.66082 17.9093C7.66133 17.9093 7.66204 17.9092 7.66295 17.9092C7.66478 17.9092 7.66739 17.9091 7.67078 17.9091C7.67755 17.9089 7.68742 17.9087 7.70025 17.9084C7.72591 17.9079 7.7634 17.907 7.81162 17.9057C7.90804 17.9031 8.04742 17.8989 8.22085 17.8926C8.5675 17.88 9.05126 17.8587 9.60059 17.8238C10.6895 17.7548 12.0722 17.6306 13.1542 17.407L12.8584 15.9754C11.882 16.1772 10.5846 16.2967 9.5081 16.3649C8.9747 16.3987 8.50438 16.4195 8.16764 16.4317C7.99937 16.4379 7.86472 16.4419 7.77253 16.4443C7.72645 16.4456 7.691 16.4464 7.66728 16.447C7.65543 16.4472 7.64651 16.4474 7.64066 16.4475C7.63774 16.4476 7.63559 16.4476 7.63422 16.4477C7.63354 16.4477 7.63305 16.4477 7.63276 16.4477C7.63262 16.4477 7.63252 16.4477 7.63248 16.4477C7.63246 16.4477 7.63246 16.4477 7.63245 16.4477C7.63247 16.4477 7.6325 16.4477 7.64619 17.1785ZM13.1542 17.407C13.8673 17.2596 14.7468 17.0077 15.434 16.7979C15.7806 16.692 16.084 16.5951 16.3009 16.5247C16.4095 16.4894 16.4965 16.4607 16.5566 16.4407C16.5867 16.4308 16.6101 16.4229 16.6261 16.4176C16.6341 16.4149 16.6402 16.4128 16.6445 16.4114C16.6466 16.4107 16.6482 16.4102 16.6493 16.4098C16.6499 16.4096 16.6503 16.4094 16.6507 16.4093C16.6508 16.4093 16.651 16.4092 16.6511 16.4092C16.6511 16.4092 16.6512 16.4092 16.6512 16.4092C16.6512 16.4091 16.6513 16.4091 16.4173 15.7167C16.1833 15.0242 16.1833 15.0242 16.1833 15.0242C16.1833 15.0242 16.1833 15.0242 16.1833 15.0242C16.1833 15.0242 16.1832 15.0242 16.1831 15.0243C16.1829 15.0243 16.1826 15.0244 16.1822 15.0246C16.1814 15.0249 16.18 15.0253 16.1782 15.0259C16.1746 15.0271 16.169 15.029 16.1616 15.0315C16.1469 15.0364 16.1248 15.0438 16.096 15.0534C16.0386 15.0724 15.9545 15.1002 15.8492 15.1344C15.6386 15.2028 15.3436 15.297 15.0071 15.3997C14.3279 15.6071 13.5019 15.8424 12.8584 15.9754L13.1542 17.407ZM11.3817 9.86382C11.1896 10.4403 10.8354 11.4757 10.7217 11.7705L12.0857 12.2963C12.214 11.9636 12.5794 10.8937 12.7686 10.3261L11.3817 9.86382ZM10.7217 11.7705C10.6997 11.8276 10.6771 11.8708 10.6446 11.9297C10.6191 11.9761 10.5497 12.0949 10.503 12.2296C10.3837 12.5735 10.4352 12.9028 10.5451 13.256L11.9409 12.8214C11.903 12.6997 11.8972 12.649 11.8965 12.6387C11.8963 12.6364 11.8971 12.6455 11.8949 12.6622C11.8927 12.6797 11.8884 12.6961 11.8841 12.7085C11.8807 12.7185 11.8762 12.7237 11.9248 12.6355C11.9665 12.5599 12.0274 12.4476 12.0857 12.2963L10.7217 11.7705ZM4.59438 11.5635L11.2756 12.753L11.5318 11.3138L4.85061 10.1243L4.59438 11.5635ZM15.0704 7.83556C15.1 7.9436 15.0921 8.05642 15.0567 8.15228C15.0251 8.23751 14.9812 8.28533 14.9665 8.3001C14.951 8.31573 14.9459 8.31662 14.962 8.30657C14.9767 8.29744 14.9998 8.28486 15.0321 8.27011C15.098 8.24008 15.1738 8.21386 15.2387 8.19435C15.2698 8.18502 15.2953 8.17811 15.312 8.17379C15.3203 8.17165 15.3263 8.17019 15.3294 8.16943C15.331 8.16905 15.3318 8.16885 15.3319 8.16883C15.332 8.16882 15.3318 8.16886 15.3315 8.16894C15.3313 8.16898 15.3311 8.16903 15.3308 8.16909C15.3306 8.16913 15.3305 8.16916 15.3303 8.1692C15.3302 8.16922 15.3301 8.16925 15.3301 8.16926C15.3299 8.16929 15.3298 8.16932 15.1678 7.45657C15.0059 6.74382 15.0057 6.74385 15.0056 6.74388C15.0055 6.7439 15.0054 6.74393 15.0052 6.74396C15.005 6.74401 15.0048 6.74406 15.0045 6.74412C15.004 6.74423 15.0035 6.74436 15.0029 6.7445C15.0017 6.74478 15.0002 6.74512 14.9986 6.7455C14.9952 6.74628 14.991 6.74728 14.986 6.7485C14.976 6.75092 14.9626 6.75423 14.9464 6.75841C14.9141 6.76675 14.8699 6.77874 14.8179 6.79438C14.7167 6.82481 14.573 6.87284 14.4257 6.93997C14.2903 7.00171 14.093 7.1055 13.9303 7.26899C13.7579 7.44228 13.5399 7.78173 13.6606 8.22205L15.0704 7.83556ZM15.1678 7.45657C15.2818 8.17855 15.2817 8.17857 15.2815 8.1786C15.2815 8.17861 15.2813 8.17863 15.2812 8.17864C15.281 8.17867 15.2808 8.1787 15.2807 8.17873C15.2803 8.17878 15.28 8.17883 15.2798 8.17887C15.2792 8.17895 15.2789 8.179 15.2787 8.17903C15.2783 8.17908 15.2786 8.17904 15.2795 8.17891C15.2813 8.17865 15.2855 8.17807 15.2918 8.17728C15.3045 8.17569 15.3251 8.17336 15.3511 8.1712C15.4052 8.16671 15.473 8.16383 15.5387 8.16713C15.5709 8.16875 15.5982 8.17165 15.6199 8.17524C15.6305 8.177 15.6386 8.17872 15.6445 8.18016C15.6503 8.18161 15.6528 8.1825 15.6524 8.18235C15.652 8.18221 15.6474 8.18057 15.6395 8.17663C15.6317 8.1727 15.6193 8.16583 15.6042 8.15497C15.573 8.13262 15.53 8.09309 15.4943 8.0317L16.7583 7.2973C16.5905 7.00839 16.3272 6.87036 16.1394 6.80402C15.9481 6.73642 15.7565 6.71439 15.6121 6.70713C15.4621 6.69959 15.326 6.70642 15.2303 6.71436C15.1814 6.71842 15.1405 6.72298 15.1105 6.72673C15.0954 6.72861 15.083 6.73031 15.0734 6.73166C15.0687 6.73234 15.0646 6.73294 15.0614 6.73343C15.0597 6.73368 15.0583 6.7339 15.057 6.73409C15.0564 6.73419 15.0558 6.73428 15.0553 6.73436C15.055 6.7344 15.0548 6.73444 15.0545 6.73448C15.0544 6.7345 15.0542 6.73453 15.0542 6.73453C15.054 6.73456 15.0538 6.73459 15.1678 7.45657ZM14.7902 6.19791C14.7762 6.0766 14.812 5.91679 14.9067 5.80502C14.9777 5.72119 15.1513 5.58066 15.6002 5.60607L15.6828 4.14656C14.8557 4.09974 14.2067 4.36949 13.7911 4.8603C13.3991 5.32317 13.2843 5.90237 13.3381 6.36627L14.7902 6.19791ZM15.6002 5.60607C15.7617 5.61521 15.9505 5.61457 16.0862 5.61647C16.2406 5.61862 16.3553 5.6238 16.4428 5.63654C16.5427 5.65108 16.5246 5.66486 16.4684 5.62454C16.4314 5.59803 16.3831 5.5514 16.3466 5.48096C16.3101 5.41029 16.3016 5.34668 16.3016 5.3088H17.7634C17.7634 4.94233 17.5953 4.63379 17.3202 4.43653C17.0912 4.27228 16.8309 4.21579 16.6534 4.18995C16.4636 4.1623 16.2658 4.15699 16.1066 4.15476C15.9287 4.15227 15.8029 4.15336 15.6828 4.14656L15.6002 5.60607ZM16.3016 5.3088C16.3016 5.47869 16.3114 5.65042 16.3192 5.79576C16.3275 5.94909 16.3339 6.0789 16.3326 6.20178C16.3301 6.45106 16.2951 6.58885 16.2422 6.67911L17.5029 7.41897C17.746 7.00484 17.7909 6.56492 17.7944 6.21638C17.7962 6.04034 17.787 5.86622 17.779 5.71724C17.7705 5.56027 17.7634 5.43131 17.7634 5.3088H16.3016ZM15.4943 8.0317C15.497 8.03634 15.4998 8.04106 15.5026 8.04585L16.7663 7.31109C16.7636 7.30639 16.7609 7.30179 16.7583 7.2973L15.4943 8.0317ZM15.5026 8.04585C15.7555 8.48089 16.4365 9.63972 17.0529 10.6875C17.3614 11.2119 17.6541 11.7092 17.8697 12.0754C17.9775 12.2585 18.0661 12.4088 18.1277 12.5134C18.1585 12.5657 18.1825 12.6065 18.1989 12.6343C18.207 12.6481 18.2133 12.6588 18.2175 12.6659C18.2196 12.6695 18.2212 12.6722 18.2223 12.674C18.2228 12.6749 18.2232 12.6756 18.2235 12.6761C18.2236 12.6763 18.2237 12.6765 18.2238 12.6766C18.2238 12.6766 18.2238 12.6767 18.2239 12.6767C18.2239 12.6767 18.2239 12.6767 18.8537 12.3058C19.4834 11.9348 19.4834 11.9347 19.4834 11.9347C19.4834 11.9347 19.4834 11.9346 19.4833 11.9346C19.4833 11.9345 19.4832 11.9343 19.483 11.9341C19.4828 11.9336 19.4824 11.9329 19.4818 11.932C19.4808 11.9302 19.4792 11.9275 19.4771 11.924C19.4729 11.9168 19.4666 11.9062 19.4584 11.8923C19.4421 11.8646 19.4181 11.8238 19.3873 11.7715C19.3257 11.667 19.2372 11.5167 19.1294 11.3337C18.9139 10.9676 18.6212 10.4704 18.3129 9.94625C17.6955 8.89687 17.0169 7.74206 16.7663 7.31109L15.5026 8.04585ZM16.2422 6.67911C16.2434 6.67697 16.2396 6.68379 16.2266 6.69918C16.214 6.71416 16.1963 6.7331 16.1727 6.75547C16.1248 6.80103 16.0655 6.84885 16.0023 6.89471C15.9402 6.93981 15.8816 6.97771 15.8388 7.00418C15.8176 7.01724 15.801 7.02707 15.7906 7.03315C15.7854 7.03617 15.7818 7.03823 15.78 7.03925C15.7791 7.03976 15.7786 7.04001 15.7786 7.03999C15.7787 7.03999 15.7788 7.03991 15.7791 7.03976C15.7792 7.03969 15.7794 7.0396 15.7796 7.03949C15.7796 7.03944 15.7798 7.03938 15.7799 7.03932C15.7799 7.03929 15.78 7.03924 15.78 7.03922C15.7801 7.03917 15.7802 7.03912 16.1345 7.67847C16.4887 8.31782 16.4888 8.31777 16.4889 8.31771C16.4889 8.31769 16.489 8.31763 16.4891 8.31759C16.4892 8.31751 16.4894 8.31743 16.4896 8.31733C16.4899 8.31715 16.4902 8.31695 16.4906 8.31673C16.4914 8.31629 16.4924 8.31578 16.4934 8.31518C16.4955 8.314 16.4982 8.31251 16.5013 8.31072C16.5076 8.30715 16.5159 8.30239 16.526 8.2965C16.5462 8.28474 16.5738 8.26837 16.6069 8.24795C16.6725 8.20745 16.7625 8.14926 16.8609 8.07784C17.0331 7.95287 17.3254 7.72145 17.5029 7.41897L16.2422 6.67911ZM14.3655 8.0288C15.0729 7.8448 15.0729 7.84481 15.0729 7.84483C15.0729 7.84483 15.0729 7.84484 15.0729 7.84484C15.0729 7.84484 15.0729 7.84483 15.0729 7.8448C15.0729 7.84476 15.0728 7.84466 15.0728 7.84453C15.0727 7.84425 15.0726 7.84379 15.0724 7.84314C15.0721 7.84185 15.0716 7.83984 15.0709 7.83713C15.0695 7.83172 15.0674 7.82353 15.0646 7.81281C15.0591 7.79136 15.0511 7.75982 15.0411 7.72015C15.0211 7.64073 14.9934 7.52911 14.9627 7.40089C14.9006 7.1412 14.8291 6.82576 14.7835 6.57273L13.3448 6.83227C13.398 7.12697 13.4772 7.47468 13.541 7.74121C13.5733 7.8761 13.6024 7.99336 13.6235 8.07704C13.634 8.11892 13.6426 8.15248 13.6486 8.17575C13.6515 8.18739 13.6539 8.19646 13.6555 8.20272C13.6563 8.20585 13.6569 8.20827 13.6574 8.20997C13.6576 8.21081 13.6578 8.21147 13.6579 8.21195C13.6579 8.21219 13.658 8.21238 13.658 8.21252C13.6581 8.21259 13.6581 8.21265 13.6581 8.2127C13.6581 8.21272 13.6581 8.21275 13.6581 8.21276C13.6581 8.21279 13.6581 8.21281 14.3655 8.0288ZM14.7835 6.57273C14.789 6.60324 14.7842 6.61387 14.7894 6.53843C14.7912 6.51286 14.7954 6.4589 14.7973 6.40886C14.7992 6.35576 14.7999 6.28132 14.7902 6.19791L13.3381 6.36627C13.3358 6.3465 13.337 6.339 13.3364 6.35486C13.3357 6.37378 13.3343 6.39081 13.3311 6.43699C13.3264 6.50506 13.3142 6.66225 13.3448 6.83227L14.7835 6.57273ZM12.4691 6.98139L13.8515 7.4018L14.2768 6.0032L12.8944 5.58279L12.4691 6.98139Z" fill="black"/>
</svg>
