<svg width="24" height="24" viewBox="0 0 24 24" fill="none" xmlns="http://www.w3.org/2000/svg">
<path d="M20 15V6.5M10 17.5V9M20 6.5V4.28078C20 3.63021 19.3886 3.15285 18.7575 3.31063L10.7575 5.31063C10.3123 5.42193 10 5.82191 10 6.28078V9M20 6.5L10 9" stroke="black" stroke-width="2" stroke-linecap="round" stroke-linejoin="round"/>
<path d="M14 15.5C14 16.7595 15.2135 18 17 18C18.7865 18 20 16.7595 20 15.5C20 14.2405 18.7865 13 17 13C15.2135 13 14 14.2405 14 15.5Z" stroke="black" stroke-width="2"/>
<path d="M4 17.5C4 18.7595 5.21354 20 7 20C8.78646 20 10 18.7595 10 17.5C10 16.2405 8.78646 15 7 15C5.21354 15 4 16.2405 4 17.5Z" stroke="black" stroke-width="2"/>
</svg>
