<svg width="24" height="24" viewBox="0 0 24 24" fill="none" xmlns="http://www.w3.org/2000/svg">
<circle cx="12" cy="12" r="8.25" stroke="black" stroke-width="1.5"/>
<path d="M10 9C10 9.69036 9.44036 10.25 8.75 10.25C8.05964 10.25 7.5 9.69036 7.5 9C7.5 8.30964 8.05964 7.75 8.75 7.75C9.44036 7.75 10 8.30964 10 9Z" fill="black"/>
<path d="M16.5 9C16.5 9.69036 15.9404 10.25 15.25 10.25C14.5596 10.25 14 9.69036 14 9C14 8.30964 14.5596 7.75 15.25 7.75C15.9404 7.75 16.5 8.30964 16.5 9Z" fill="black"/>
<path d="M8 14.25C8 13.8358 8.33579 13.5 8.75 13.5H15.25C15.6642 13.5 16 13.8358 16 14.25V14.25C16 14.6642 15.6642 15 15.25 15H8.75C8.33579 15 8 14.6642 8 14.25V14.25Z" fill="black"/>
</svg>
