<svg width="24" height="24" viewBox="0 0 24 24" fill="none" xmlns="http://www.w3.org/2000/svg">
<path d="M10.2941 18.3529C9.23036 18.3529 7.85975 18.3529 6.77965 18.3529C5.99928 18.3529 5.5077 17.4924 5.87441 16.8035C6.6454 15.3553 7.64706 13.236 7.64706 12C7.64706 9.35294 7.64706 12.7566 7.64706 10C7.64706 8 9.85243 6 12.0588 6C14.2652 6 16.4706 8 16.4706 10C16.4706 12.7566 16.4706 9.35294 16.4706 12C16.4706 13.4636 17.5495 15.2508 18.5143 16.5564C19.0368 17.2635 18.5466 18.3529 17.6674 18.3529C16.452 18.3529 14.9818 18.3529 13.8235 18.3529M10.2941 18.3529C10.2941 19.2353 10.1241 21 12.0588 21C13.9936 21 13.8235 19.2353 13.8235 18.3529M10.2941 18.3529C11.6724 18.3529 12.4452 18.3529 13.8235 18.3529" stroke="black" stroke-width="2" stroke-linecap="round" stroke-linejoin="round"/>
<path d="M13.25 4C13.25 4.69036 12.6904 5.25 12 5.25C11.3096 5.25 10.75 4.69036 10.75 4C10.75 3.30964 11.3096 2.75 12 2.75C12.6904 2.75 13.25 3.30964 13.25 4Z" stroke="black" stroke-width="1.5"/>
</svg>
