<svg width="24" height="24" viewBox="0 0 24 24" fill="none" xmlns="http://www.w3.org/2000/svg">
<path d="M17.5228 19.8973C9.8475 18.898 4.50854 13.4553 4.03412 6.22965C3.99904 5.6953 4.42174 5.25081 4.9566 5.22451L8.80416 5.03536C9.23381 5.01424 9.62882 5.27025 9.78501 5.67106L10.4779 7.44896C10.6586 7.91277 10.4707 8.43891 10.037 8.68327L7.81212 9.93691C7.2394 10.2596 7.12852 11.0377 7.58829 11.5075L12.3511 16.3747C12.8071 16.8408 13.58 16.7527 13.9195 16.1961L15.3087 13.9185C15.5601 13.5064 16.0699 13.3327 16.5206 13.5056L18.2955 14.1864C18.7124 14.3464 18.9728 14.7635 18.9334 15.2084L18.5961 19.0137C18.5477 19.56 18.0667 19.9681 17.5228 19.8973Z" fill="black" stroke="black" stroke-linecap="round" stroke-linejoin="round"/>
<path d="M13.7674 10.0104L18.01 5.76776M18.01 5.76776L18.2147 9.09861M18.01 5.76776L14.6792 5.56307" stroke="black" stroke-width="2" stroke-linecap="round" stroke-linejoin="round"/>
</svg>
