<svg width="24" height="24" viewBox="0 0 24 24" fill="none" xmlns="http://www.w3.org/2000/svg">
<path fill-rule="evenodd" clip-rule="evenodd" d="M17.6053 12.9474C17.6053 16.014 15.1193 18.5 12.0526 18.5C8.986 18.5 6.5 16.014 6.5 12.9474C6.5 11.1423 7.36133 9.53838 8.69541 8.52423C9.09037 8.22399 9.36842 7.77755 9.36842 7.28142V7.28142C9.36842 6.34022 8.43174 5.69142 7.64453 6.20732C5.4497 7.64569 4 10.1272 4 12.9474C4 17.3947 7.60529 21 12.0526 21C16.5 21 20.1053 17.3947 20.1053 12.9474C20.1053 10.1272 18.6556 7.64569 16.4607 6.20732C15.6735 5.69142 14.7368 6.34022 14.7368 7.28142V7.28142C14.7368 7.77755 15.0149 8.22399 15.4099 8.52423C16.7439 9.53838 17.6053 11.1423 17.6053 12.9474Z" fill="black"/>
<path d="M12 4V13" stroke="black" stroke-width="2.5" stroke-linecap="round"/>
</svg>
