<svg width="24" height="24" viewBox="0 0 24 24" fill="none" xmlns="http://www.w3.org/2000/svg">
<path d="M8 17.5V15.5C8 14.6716 8.67157 14 9.5 14H14.5C15.3284 14 16 14.6716 16 15.5V17.5C16 18.3284 15.3284 19 14.5 19H9.5C8.67157 19 8 18.3284 8 17.5Z" stroke="black" stroke-width="2" stroke-linecap="round"/>
<path fill-rule="evenodd" clip-rule="evenodd" d="M8 15.75V17.5C8 17.5852 8.0071 17.6687 8.02074 17.75H6.25C4.86929 17.75 3.75 16.6307 3.75 15.25V10.25C3.75 8.86929 4.86929 7.75 6.25 7.75H17.25C18.6307 7.75 19.75 8.86929 19.75 10.25V15.25C19.75 16.6307 18.6307 17.75 17.25 17.75H15.9793C15.9929 17.6687 16 17.5852 16 17.5V15.75H17.25C17.5261 15.75 17.75 15.5261 17.75 15.25V10.25C17.75 9.97386 17.5261 9.75 17.25 9.75H6.25C5.97386 9.75 5.75 9.97386 5.75 10.25V15.25C5.75 15.5261 5.97386 15.75 6.25 15.75H8ZM10.25 5.25C10.25 4.97386 10.4739 4.75 10.75 4.75H13.25C13.5261 4.75 13.75 4.97386 13.75 5.25V5.75C13.75 6.30228 14.1977 6.75 14.75 6.75C15.3023 6.75 15.75 6.30228 15.75 5.75V5.25C15.75 3.86929 14.6307 2.75 13.25 2.75H10.75C9.36929 2.75 8.25 3.86929 8.25 5.25V5.75C8.25 6.30228 8.69772 6.75 9.25 6.75C9.80228 6.75 10.25 6.30228 10.25 5.75V5.25Z" fill="black"/>
</svg>
