<svg width="24" height="24" viewBox="0 0 24 24" fill="none" xmlns="http://www.w3.org/2000/svg">
<path d="M11 8.5C11 9.88071 9.88071 11 8.5 11C7.11929 11 6 9.88071 6 8.5C6 7.11929 7.11929 6 8.5 6C9.88071 6 11 7.11929 11 8.5Z" stroke="black" stroke-width="2"/>
<path d="M18 5.5C18 6.88071 16.8807 8 15.5 8C14.1193 8 13 6.88071 13 5.5C13 4.11929 14.1193 3 15.5 3C16.8807 3 18 4.11929 18 5.5Z" stroke="black" stroke-width="2"/>
<path d="M15.9996 12C18.7272 12 21.0623 14.8864 22.0268 16.2731C22.247 16.5897 22.0157 17 21.6301 17H13.2071C13.0745 17 12.9473 16.9473 12.8536 16.8536L12.0627 16.0627C12.0212 16.0212 11.9728 15.9874 11.9195 15.9627L11.0299 15.5502C10.7228 15.4078 10.6427 15.0079 10.8813 14.7677C12.2046 13.4352 14.0763 12 15.9996 12Z" stroke="black" stroke-width="2" stroke-linecap="round" stroke-linejoin="round"/>
<path d="M14.6305 20H2.94623C2.54449 20 2.31716 19.559 2.56788 19.2451C3.68379 17.8479 6.29072 15 9 15C11.7275 15 14.0627 17.8864 15.0272 19.2731C15.2474 19.5897 15.0161 20 14.6305 20Z" stroke="black" stroke-width="2" stroke-linecap="round" stroke-linejoin="round"/>
</svg>
