<svg width="24" height="24" viewBox="0 0 24 24" fill="none" xmlns="http://www.w3.org/2000/svg">
<path d="M20 12C20 16.4183 16.4183 20 12 20C7.58172 20 4 16.4183 4 12C4 7.58172 7.58172 4 12 4C16.4183 4 20 7.58172 20 12Z" stroke="black" stroke-width="2"/>
<path d="M12 14V12C12 12 15 11.3667 15 9.5C15 7.63332 12.9231 7 12 7C11.0769 7 9 7.5 9 9.5" stroke="black" stroke-width="2" stroke-linecap="round" stroke-linejoin="round"/>
<path d="M13.227 16.9535C13.227 17.6313 12.6775 18.1808 11.9997 18.1808C11.3219 18.1808 10.7725 17.6313 10.7725 16.9535C10.7725 16.2757 11.3219 15.7262 11.9997 15.7262C12.6775 15.7262 13.227 16.2757 13.227 16.9535Z" fill="black"/>
</svg>
