<svg width="24" height="24" viewBox="0 0 24 24" fill="none" xmlns="http://www.w3.org/2000/svg">
<path fill-rule="evenodd" clip-rule="evenodd" d="M5.5 3.5C4.39543 3.5 3.5 4.39543 3.5 5.5V18.5C3.5 19.6046 4.39543 20.5 5.5 20.5H18.5C19.6046 20.5 20.5 19.6046 20.5 18.5V5.5C20.5 4.39543 19.6046 3.5 18.5 3.5H5.5ZM7 19C8.10457 19 9 18.1046 9 17C9 15.8954 8.10457 15 7 15C5.89543 15 5 15.8954 5 17C5 18.1046 5.89543 19 7 19ZM6.14863 10.5052C6.14863 10.0379 6.52746 9.65906 6.99478 9.65906C7.95949 9.65906 8.91476 9.84908 9.80603 10.2183C10.6973 10.5874 11.5071 11.1285 12.1893 11.8107C12.8715 12.4929 13.4126 13.3027 13.7817 14.194C14.1509 15.0852 14.3409 16.0405 14.3409 17.0052C14.3409 17.4725 13.9621 17.8514 13.4948 17.8514C13.0275 17.8514 12.6486 17.4725 12.6486 17.0052C12.6486 16.2627 12.5024 15.5275 12.2183 14.8416C11.9341 14.1556 11.5177 13.5324 10.9927 13.0073C10.4676 12.4823 9.84437 12.0659 9.15842 11.7817C8.47246 11.4976 7.73726 11.3514 6.99478 11.3514C6.52746 11.3514 6.14863 10.9725 6.14863 10.5052ZM7 5.15385C6.53268 5.15385 6.15385 5.53268 6.15385 6C6.15385 6.46732 6.53268 6.84615 7 6.84615C8.33342 6.84615 9.65379 7.10879 10.8857 7.61907C12.1176 8.12935 13.237 8.87728 14.1799 9.82015C15.1227 10.763 15.8707 11.8824 16.3809 13.1143C16.8912 14.3462 17.1538 15.6666 17.1538 17C17.1538 17.4673 17.5327 17.8462 18 17.8462C18.4673 17.8462 18.8462 17.4673 18.8462 17C18.8462 15.4443 18.5397 13.9039 17.9444 12.4667C17.3491 11.0294 16.4765 9.72352 15.3765 8.6235C14.2765 7.52349 12.9706 6.65091 11.5333 6.05558C10.0961 5.46026 8.55566 5.15385 7 5.15385Z" fill="black"/>
</svg>
