<svg width="24" height="24" viewBox="0 0 24 24" fill="none" xmlns="http://www.w3.org/2000/svg">
<circle cx="12" cy="12" r="8.25" stroke="black" stroke-width="1.5"/>
<path fill-rule="evenodd" clip-rule="evenodd" d="M8.96011 15.4739C8.78404 15.652 8.50697 15.7017 8.30342 15.5557C8.13706 15.4365 7.97651 15.3096 7.82227 15.1757C7.62864 15.0075 7.61313 14.7151 7.78843 14.5279C8.87168 13.3713 10.3589 12.6575 12 12.6575C13.6999 12.6575 15.2347 13.4233 16.3264 14.6538C16.4969 14.846 16.4732 15.1386 16.2743 15.3012C16.1162 15.4305 15.952 15.5526 15.7822 15.6669C15.5749 15.8064 15.3002 15.7492 15.1294 15.5668C14.3023 14.6836 13.182 14.1575 12 14.1575C10.8602 14.1575 9.77764 14.6468 8.96011 15.4739Z" fill="black"/>
<path d="M10 9C10 9.69036 9.44036 10.25 8.75 10.25C8.05964 10.25 7.5 9.69036 7.5 9C7.5 8.30964 8.05964 7.75 8.75 7.75C9.44036 7.75 10 8.30964 10 9Z" fill="black"/>
<path d="M16.5 9C16.5 9.69036 15.9404 10.25 15.25 10.25C14.5596 10.25 14 9.69036 14 9C14 8.30964 14.5596 7.75 15.25 7.75C15.9404 7.75 16.5 8.30964 16.5 9Z" fill="black"/>
</svg>
