<svg width="24" height="24" viewBox="0 0 24 24" fill="none" xmlns="http://www.w3.org/2000/svg">
<path fill-rule="evenodd" clip-rule="evenodd" d="M10.024 19.2168L10.9501 18.6781L10.8959 18.5849L10.872 18.5438L10.8443 18.5052L10.7815 18.4175L10.7553 18.381L10.726 18.347L10.6557 18.2654L10.6247 18.2294L10.5903 18.1965L10.5126 18.1219L10.4808 18.0914L10.4464 18.0639L10.3625 17.9965L10.3249 17.9664L10.2846 17.94L10.1946 17.881L10.1557 17.8555L10.1146 17.8338L10.0197 17.7835L9.98015 17.7626L9.93891 17.7452L9.83981 17.7036L9.79544 17.685L9.74949 17.6707L9.64707 17.6389L9.60332 17.6253L9.5585 17.6157L9.45359 17.5934L9.40849 17.5838L9.36271 17.5784L9.25641 17.5658L9.20958 17.5602L9.16243 17.5591L9.0553 17.5566L9.00972 17.5556L8.96422 17.5586L8.85709 17.5659L8.80984 17.5691L8.76311 17.5768L8.65737 17.5941L8.61146 17.6016L8.56645 17.6133L8.46265 17.6404L8.69832 18.5435L8.4523 17.6434L8.33238 17.6762L8.24517 17.6939L8.15708 17.7053L8.06722 17.7109L7.97802 17.7104L7.88905 17.7038L7.80118 17.6912L7.71425 17.6725L7.62721 17.6475L7.54287 17.617L7.46205 17.5813L7.38208 17.5391L7.30491 17.4917L7.23236 17.4399L7.16293 17.3827L7.09666 17.3202L7.03461 17.2533L6.9777 17.1829L6.92601 17.1092L6.87859 17.0306L6.83631 16.949L6.80044 16.8663L6.76975 16.7799L6.74456 16.6906L6.72564 16.6012L6.71293 16.5108L6.70622 16.4192L6.70574 16.3274L6.71138 16.2349L6.72299 16.1443L6.74083 16.0546L6.77352 15.9329L5.78881 15.6685L6.77727 15.9219L6.80412 15.8171L6.81548 15.7728L6.82275 15.7276L6.83991 15.6209L6.8473 15.575L6.8504 15.5286L6.85759 15.4205L6.86057 15.3758L6.85954 15.331L6.85705 15.2229L6.85598 15.1766L6.85063 15.1306L6.83818 15.0233L6.83295 14.9783L6.82367 14.9339L6.80152 14.8281L6.79228 14.7839L6.77911 14.7408L6.74756 14.6374L6.73369 14.592L6.7156 14.5482L6.67435 14.4482L6.65749 14.4073L6.63709 14.3681L6.58726 14.2723L6.56598 14.2314L6.54103 14.1926L6.48263 14.1018L6.45669 14.0615L6.42701 14.0238L6.36029 13.9392L6.33309 13.9047L6.30297 13.8727L6.22906 13.7942L6.19645 13.7596L6.1607 13.7282L6.07987 13.6573L6.04597 13.6275L6.00953 13.6009L5.92261 13.5375L5.88396 13.5094L5.84279 13.485L5.75033 13.4302L5.16833 14.4132L5.74113 13.4257L5.63253 13.3627L5.55777 13.3126L5.48702 13.2575L5.41907 13.197L5.35573 13.1322L5.29693 13.0635L5.24276 12.9906L5.19305 12.9135L5.14909 12.8339L5.11064 12.7517L5.07765 12.6663L5.05014 12.5781L5.02876 12.4891L5.01359 12.3997L5.00441 12.3076L5.00121 12.2157L5.00441 12.1238L5.01359 12.0317L5.02876 11.9423L5.05014 11.8533L5.07765 11.7651L5.11064 11.6797L5.14909 11.5975L5.19305 11.5179L5.24277 11.4408L5.29693 11.3679L5.35573 11.2992L5.41907 11.2345L5.48702 11.1739L5.55777 11.1188L5.63252 11.0687L5.74113 11.0057L5.1682 10.018L5.75034 11.0012L5.8428 10.9464L5.88397 10.9221L5.92262 10.8939L6.00954 10.8305L6.04598 10.8039L6.07987 10.7741L6.1607 10.7032L6.19645 10.6718L6.22906 10.6372L6.30297 10.5587L6.3331 10.5267L6.3603 10.4922L6.42701 10.4076L6.45669 10.3699L6.48263 10.3296L6.54104 10.2388L6.56599 10.2L6.58726 10.1591L6.63709 10.0633L6.65749 10.0241L6.67435 9.98323L6.7156 9.88324L6.7337 9.83936L6.74756 9.79396L6.77911 9.69062L6.79229 9.64748L6.80152 9.60334L6.82367 9.49748L6.83295 9.45311L6.83818 9.40808L6.85064 9.30082L6.85598 9.25481L6.85705 9.2085L6.85954 9.10041L6.86057 9.05563L6.85759 9.01093L6.8504 8.90283L6.84731 8.8564L6.83992 8.81046L6.82275 8.70376L6.81548 8.65858L6.80412 8.61425L6.77727 8.50951L5.79065 8.76243L6.77352 8.49854L6.74083 8.37677L6.72299 8.28712L6.71138 8.19647L6.70574 8.10402L6.70622 8.01219L6.71293 7.9206L6.72564 7.83019L6.74456 7.74083L6.76975 7.65154L6.80044 7.56511L6.8363 7.48241L6.87859 7.4008L6.92601 7.32223L6.9777 7.24852L7.03461 7.17817L7.09666 7.11122L7.16292 7.0487L7.23236 6.99151L7.30491 6.93971L7.38208 6.89229L7.46205 6.85011L7.54287 6.81442L7.62721 6.78394L7.71425 6.75894L7.80118 6.7402L7.88904 6.72762L7.97802 6.72098L8.06722 6.72051L8.15708 6.7261L8.24517 6.73758L8.33238 6.75524L8.4523 6.78802L8.69835 5.88789L8.46264 6.791L8.56644 6.81809L8.61146 6.82984L8.65737 6.83736L8.76311 6.85467L8.80984 6.86233L8.85709 6.86553L8.96422 6.87279L9.00972 6.87588L9.05531 6.87481L9.16244 6.87229L9.20958 6.87119L9.25641 6.86565L9.36271 6.85308L9.40849 6.84767L9.45359 6.83806L9.5585 6.81572L9.60331 6.80617L9.64707 6.79257L9.74949 6.76073L9.79544 6.74644L9.83981 6.72781L9.93891 6.68619L9.98015 6.66888L10.0197 6.64795L10.1146 6.59767L10.1557 6.5759L10.1946 6.55042L10.2846 6.49148L10.3249 6.46506L10.3625 6.43488L10.4464 6.36757L10.4808 6.34L10.5126 6.30951L10.5904 6.23493L10.6247 6.20204L10.6557 6.16605L10.726 6.08449L10.7553 6.05046L10.7815 6.01395L10.8443 5.92624L10.872 5.88763L10.8959 5.84657L10.9501 5.75328L10.0235 5.21435L10.9559 5.74559L11.0185 5.63566L11.0686 5.55964L11.1234 5.48788L11.1836 5.41916L11.2477 5.35526L11.3156 5.2961L11.3875 5.24176L11.4633 5.192L11.5413 5.14811L11.6218 5.10981L11.7051 5.07702L11.7911 5.0497L11.8778 5.02851L11.9647 5.0135L12.0542 5.00442L12.1435 5.00126L12.2327 5.00442L12.3222 5.0135L12.4092 5.02851L12.4958 5.0497L12.5818 5.07702L12.6652 5.10981L12.7456 5.14811L12.8236 5.192L12.8994 5.24176L12.9713 5.2961L13.0392 5.35526L13.1034 5.41915L13.1635 5.48788L13.2184 5.55964L13.2684 5.63565L13.3311 5.74559L14.1162 5.29827L13.3338 5.75328L13.3881 5.84657L13.4119 5.88763L13.4396 5.92624L13.5024 6.01394L13.5286 6.05046L13.5579 6.08448L13.6282 6.16604L13.6593 6.20204L13.6936 6.23493L13.7714 6.30951L13.8032 6.33999L13.8375 6.36757L13.9214 6.43488L13.959 6.46506L13.9993 6.49148L14.0893 6.55041L14.1282 6.5759L14.1693 6.59767L14.2643 6.64795L14.3038 6.66887L14.345 6.68619L14.4441 6.72781L14.4885 6.74644L14.5344 6.76073L14.6369 6.79257L14.6806 6.80617L14.7254 6.81572L14.8303 6.83806L14.8754 6.84767L14.9212 6.85308L15.0275 6.86565L15.0743 6.87119L15.1215 6.87229L15.2286 6.87481L15.2742 6.87588L15.3197 6.87279L15.4268 6.86553L15.4741 6.86233L15.5208 6.85467L15.6266 6.83736L15.6725 6.82984L15.7175 6.81809L15.8213 6.791L15.541 5.71697L15.8337 6.78802L15.9537 6.75524L16.0409 6.73758L16.1289 6.7261L16.2188 6.72051L16.308 6.72098L16.397 6.72762L16.4848 6.7402L16.5718 6.75894L16.6588 6.78394L16.7432 6.81442L16.824 6.85011L16.9039 6.89229L16.9811 6.93971L17.0537 6.99151L17.1231 7.0487L17.1894 7.11122L17.2514 7.17817L17.3083 7.24852L17.36 7.32223L17.4074 7.4008L17.4497 7.4824L17.4856 7.56511L17.5163 7.65154L17.5415 7.74083L17.5604 7.83019L17.5731 7.92061L17.5798 8.01219L17.5803 8.10401L17.5746 8.19647L17.563 8.28712L17.5452 8.37678L17.5125 8.49854L18.4773 8.75757L17.5096 8.50951L17.4828 8.61426L17.4714 8.65858L17.4641 8.70376L17.447 8.81046L17.4396 8.8564L17.4365 8.90283L17.4293 9.01093L17.4263 9.05562L17.4273 9.1004L17.4298 9.20849L17.4309 9.25481L17.4362 9.30083L17.4487 9.40808L17.4539 9.45311L17.4632 9.49748L17.4854 9.60334L17.4946 9.64748L17.5078 9.69062L17.5393 9.79397L17.5532 9.83936L17.5713 9.88324L17.6125 9.98323L17.6294 10.0241L17.6498 10.0633L17.6996 10.1591L17.7209 10.2L17.7458 10.2388L17.8042 10.3296L17.8302 10.3699L17.8599 10.4076L17.9266 10.4922L17.9538 10.5267L17.9839 10.5587L18.0578 10.6372L18.0904 10.6718L18.1262 10.7032L18.207 10.7741L18.2409 10.8039L18.2773 10.8305L18.3643 10.8939L18.4029 10.9221L18.4441 10.9464L18.5365 11.0012L18.9654 10.2769L18.5426 11.0057L18.6512 11.0687L18.726 11.1188L18.7967 11.1739L18.8647 11.2345L18.928 11.2992L18.9868 11.3679L19.041 11.4408L19.0907 11.5179L19.1347 11.5975L19.1731 11.6797L19.2061 11.7651L19.2336 11.8533L19.255 11.9423L19.2702 12.0317L19.2793 12.1238L19.2825 12.2157L19.2793 12.3076L19.2702 12.3997L19.255 12.4891L19.2336 12.5781L19.2061 12.6663L19.1731 12.7517L19.1347 12.8339L19.0907 12.9135L19.041 12.9906L18.9868 13.0635L18.928 13.1323L18.8647 13.197L18.7967 13.2575L18.726 13.3126L18.6512 13.3627L18.5426 13.4257L18.9651 14.154L18.5365 13.4302L18.4441 13.485L18.4029 13.5094L18.3643 13.5375L18.2774 13.6009L18.2409 13.6275L18.207 13.6573L18.1262 13.7282L18.0904 13.7596L18.0578 13.7942L17.9839 13.8727L17.9538 13.9047L17.9266 13.9392L17.8599 14.0238L17.8302 14.0615L17.8043 14.1018L17.7458 14.1926L17.7209 14.2314L17.6996 14.2723L17.6498 14.3681L17.6294 14.4073L17.6125 14.4482L17.5713 14.5482L17.5532 14.592L17.5393 14.6374L17.5078 14.7408L17.4946 14.7839L17.4854 14.8281L17.4632 14.9339L17.4539 14.9783L17.4487 15.0233L17.4362 15.1306L17.4309 15.1766L17.4298 15.2229L17.4273 15.331L17.4263 15.3758L17.4293 15.4205L17.4365 15.5286L17.4396 15.575L17.447 15.6209L17.4641 15.7276L17.4714 15.7728L17.4828 15.8171L17.5096 15.9219L18.4791 15.6734L17.5125 15.9329L17.5452 16.0546L17.563 16.1443L17.5746 16.2349L17.5803 16.3274L17.5798 16.4192L17.5731 16.5108L17.5604 16.6012L17.5415 16.6906L17.5163 16.7799L17.4856 16.8663L17.4497 16.949L17.4074 17.0306L17.36 17.1092L17.3083 17.1829L17.2514 17.2533L17.1894 17.3202L17.1231 17.3827L17.0537 17.4399L16.9811 17.4917L16.9039 17.5391L16.824 17.5813L16.7432 17.617L16.6588 17.6475L16.5718 17.6725L16.4848 17.6912L16.397 17.7038L16.308 17.7104L16.2188 17.7109L16.129 17.7053L16.0409 17.6939L15.9537 17.6762L15.8337 17.6434L15.541 18.7142L15.8213 17.6404L15.7175 17.6133L15.6725 17.6016L15.6266 17.5941L15.5208 17.5768L15.4741 17.5691L15.4268 17.5659L15.3197 17.5586L15.2742 17.5556L15.2286 17.5566L15.1215 17.5591L15.0743 17.5602L15.0275 17.5658L14.9212 17.5784L14.8754 17.5838L14.8303 17.5934L14.7254 17.6157L14.6806 17.6253L14.6369 17.6389L14.5344 17.6707L14.4885 17.685L14.4441 17.7036L14.345 17.7452L14.3038 17.7626L14.2642 17.7835L14.1693 17.8338L14.1282 17.8555L14.0893 17.881L13.9993 17.94L13.959 17.9664L13.9214 17.9966L13.8375 18.0639L13.8032 18.0914L13.7714 18.1219L13.6936 18.1965L13.6593 18.2294L13.6282 18.2654L13.5579 18.347L13.5286 18.381L13.5024 18.4175L13.4396 18.5052L13.4119 18.5438L13.3881 18.5849L13.3338 18.6782L14.1157 19.1329L13.3311 18.6858L13.2684 18.7958L13.2184 18.8718L13.1635 18.9435L13.1034 19.0123L13.0392 19.0762L12.9713 19.1353L12.8994 19.1897L12.8236 19.2394L12.7456 19.2833L12.6652 19.3216L12.5818 19.3544L12.4958 19.3817L12.4092 19.4029L12.3222 19.4179L12.2327 19.427L12.1435 19.4302L12.0542 19.427L11.9647 19.4179L11.8778 19.4029L11.7911 19.3817L11.7051 19.3544L11.6218 19.3216L11.5413 19.2833L11.4633 19.2394L11.3875 19.1897L11.3156 19.1353L11.2477 19.0762L11.1836 19.0123L11.1234 18.9435L11.0686 18.8718L11.0185 18.7958L10.9559 18.6858L10.024 19.2168ZM4.84268 9.01695L4.84193 9.01716L4.80068 8.86353L4.79213 8.83168L4.7857 8.79933L4.75469 8.64347L4.74796 8.60962L4.74357 8.57538L4.72337 8.41757L4.71915 8.38465L4.71713 8.35152L4.70744 8.19287L4.70542 8.15981L4.70559 8.12669L4.70642 7.96776L4.7066 7.93378L4.70908 7.8999L4.72071 7.74125L4.72314 7.70807L4.72777 7.67513L4.74992 7.5176L4.75472 7.48342L4.76187 7.44966L4.79481 7.29408L4.80168 7.26163L4.81069 7.2297L4.85388 7.07664L4.86286 7.04479L4.87393 7.01361L4.92708 6.8639L4.93847 6.8318L4.95203 6.80055L5.01514 6.65503L5.02883 6.62346L5.04466 6.59291L5.11774 6.45185L5.13271 6.42297L5.14953 6.39511L5.23146 6.25937L5.24916 6.23005L5.26882 6.20201L5.35989 6.07213L5.37962 6.044L5.40123 6.01729L5.50089 5.89411L5.52202 5.86799L5.54486 5.84335L5.65254 5.72716L5.67534 5.70256L5.69973 5.67954L5.81489 5.57089L5.83938 5.54777L5.86538 5.52636L5.98745 5.42581L6.0141 5.40386L6.0422 5.3838L6.17092 5.29191L6.19899 5.27187L6.22838 5.25381L6.36291 5.17114L6.39089 5.15394L6.41993 5.13862L6.55972 5.06488L6.59051 5.04865L6.62234 5.03459L6.76656 4.97091L6.79813 4.95697L6.83058 4.94524L6.97896 4.89161L7.01053 4.8802L7.0428 4.87093L7.1945 4.82736L7.22689 4.81805L7.25984 4.81095L7.41403 4.77771L7.44834 4.77032L7.48308 4.76534L7.6392 4.743L7.67272 4.7382L7.70648 4.73569L7.86371 4.72395L7.8982 4.72138L7.93279 4.7212L8.0903 4.72036L8.12402 4.72018L8.15768 4.72227L8.31491 4.73205L8.34863 4.73414L8.38213 4.73851L8.53853 4.7589L8.57334 4.76344L8.60775 4.77041L8.76222 4.80169L8.79507 4.80834L8.8274 4.81718L8.97965 4.8588L8.97961 4.85893L9.02651 4.87117L9.03961 4.87331L9.05399 4.87429L9.06838 4.87395L9.08207 4.87233L9.09707 4.86914L9.10979 4.86518L9.12329 4.85952L9.1376 4.85194L9.14833 4.84491L9.16024 4.83534L9.17192 4.82415L9.18187 4.81261L9.19088 4.80003L9.22126 4.7478L9.2222 4.74835L9.29674 4.61752L9.31272 4.58948L9.33047 4.56252L9.41767 4.43013L9.43705 4.4007L9.45846 4.37271L9.55479 4.24674L9.57484 4.22053L9.59657 4.19569L9.70093 4.07642L9.72342 4.05072L9.74761 4.02661L9.85972 3.91489L9.88352 3.89117L9.90886 3.8691L10.0282 3.7652L10.0542 3.74252L10.0818 3.72169L10.2077 3.62645L10.2343 3.60637L10.2621 3.58811L10.3944 3.50124L10.4231 3.4824L10.453 3.46557L10.5906 3.3882L10.6202 3.37155L10.6509 3.35694L10.7935 3.28906L10.8249 3.2741L10.8573 3.26136L11.0043 3.20354L11.0355 3.19126L11.0675 3.1811L11.2178 3.13334L11.2501 3.12305L11.2831 3.11499L11.4362 3.07756L11.4696 3.06939L11.5036 3.06353L11.6589 3.03672L11.6933 3.03077L11.7281 3.02724L11.885 3.01132L11.9177 3.00801L11.9505 3.00684L12.108 3.00126L12.1435 3L12.1789 3.00126L12.3364 3.00684L12.3692 3.00801L12.4019 3.01132L12.5588 3.02724L12.5936 3.03077L12.6281 3.03672L12.7834 3.06353L12.8173 3.06939L12.8507 3.07756L13.0038 3.11499L13.0368 3.12305L13.0691 3.13334L13.2194 3.1811L13.2514 3.19126L13.2827 3.20354L13.4296 3.26136L13.462 3.2741L13.4935 3.28906L13.636 3.35694L13.6667 3.37155L13.6963 3.3882L13.8339 3.46557L13.8638 3.4824L13.8925 3.50124L14.0249 3.58811L14.0527 3.60637L14.0792 3.62645L14.2052 3.72169L14.2327 3.74252L14.2588 3.7652L14.3781 3.8691L14.4034 3.89117L14.4272 3.91489L14.5393 4.02661L14.5635 4.05072L14.586 4.07642L14.6904 4.19569L14.7121 4.22053L14.7321 4.24674L14.8285 4.37271L14.8499 4.4007L14.8693 4.43013L14.9565 4.56252L14.9742 4.58948L14.9902 4.61752L15.0688 4.7555L15.0676 4.7562L15.0931 4.80004L15.1021 4.81261L15.112 4.82415L15.1237 4.83535L15.1356 4.84491L15.1463 4.85194L15.1607 4.85952L15.1741 4.86518L15.1869 4.86914L15.2019 4.87233L15.2155 4.87395L15.2299 4.87429L15.2443 4.87331L15.2574 4.87117L15.3162 4.85583L15.3163 4.85609L15.4586 4.81718L15.491 4.80834L15.5238 4.80169L15.6783 4.77041L15.7127 4.76344L15.7475 4.7589L15.9039 4.73851L15.9374 4.73414L15.9711 4.73205L16.1284 4.72227L16.162 4.72018L16.1957 4.72036L16.3532 4.7212L16.3878 4.72138L16.4223 4.72395L16.5796 4.73569L16.6133 4.7382L16.6468 4.743L16.8029 4.76534L16.8377 4.77032L16.872 4.77771L17.0262 4.81095L17.0591 4.81805L17.0915 4.82736L17.2432 4.87093L17.2755 4.8802L17.3071 4.89161L17.4554 4.94524L17.4879 4.95697L17.5195 4.97091L17.6637 5.03459L17.6955 5.04865L17.7263 5.06489L17.8661 5.13862L17.8951 5.15394L17.9231 5.17114L18.0577 5.25381L18.087 5.27187L18.1151 5.29191L18.2438 5.3838L18.2719 5.40386L18.2986 5.42581L18.4207 5.52637L18.4466 5.54778L18.4711 5.57089L18.5863 5.67954L18.6107 5.70256L18.6335 5.72716L18.7412 5.84335L18.764 5.86799L18.7851 5.89411L18.8848 6.01728L18.9064 6.044L18.9261 6.07213L19.0172 6.20201L19.0369 6.23005L19.0546 6.25937L19.1365 6.39511L19.1533 6.42297L19.1683 6.45186L19.2414 6.59291L19.2572 6.62346L19.2709 6.65503L19.334 6.80055L19.3475 6.8318L19.3589 6.8639L19.4121 7.01362L19.4232 7.04479L19.4321 7.07664L19.4753 7.2297L19.4843 7.26163L19.4912 7.29408L19.5242 7.44966L19.5313 7.48342L19.5361 7.5176L19.5582 7.67513L19.5629 7.70807L19.5653 7.74124L19.5769 7.89989L19.5794 7.93378L19.5796 7.96776L19.5804 8.12669L19.5806 8.15981L19.5786 8.19286L19.5689 8.35151L19.5669 8.38465L19.5627 8.41758L19.5424 8.57539L19.5381 8.60962L19.5313 8.64347L19.5003 8.79933L19.4939 8.83168L19.4853 8.86353L19.4452 9.01285L19.4315 9.06657L19.429 9.08214L19.4278 9.09911L19.4282 9.11611L19.4301 9.13232L19.4337 9.14967L19.4383 9.16448L19.4446 9.17972L19.4527 9.19539L19.4602 9.20709L19.4701 9.21956L19.4812 9.23142L19.4924 9.24124L19.5043 9.24987L19.5555 9.28024L19.5551 9.28092L19.6829 9.35504L19.711 9.37136L19.7381 9.38948L19.8693 9.47746L19.8987 9.4972L19.9267 9.51897L20.0515 9.61617L20.0777 9.63652L20.1024 9.65854L20.2206 9.76384L20.2461 9.78658L20.27 9.81102L20.3808 9.92414L20.4042 9.94812L20.426 9.97362L20.529 10.094L20.5514 10.1201L20.5719 10.1477L20.6663 10.2748L20.686 10.3014L20.7039 10.3292L20.79 10.4627L20.8085 10.4913L20.8249 10.5211L20.9016 10.6599L20.9179 10.6894L20.9321 10.7198L20.9994 10.8637L21.0139 10.8948L21.0263 10.9269L21.0836 11.0752L21.0956 11.1061L21.1054 11.1377L21.1528 11.2893L21.1627 11.3212L21.1705 11.3537L21.2076 11.5082L21.2155 11.5411L21.2212 11.5745L21.2478 11.7312L21.2535 11.7651L21.2569 11.7993L21.2727 11.9576L21.2759 11.9897L21.277 12.022L21.2825 12.1809L21.2838 12.2157L21.2825 12.2505L21.277 12.4095L21.2759 12.4417L21.2727 12.4738L21.2569 12.6321L21.2535 12.6663L21.2478 12.7002L21.2212 12.8569L21.2155 12.8903L21.2076 12.9232L21.1705 13.0777L21.1627 13.1102L21.1528 13.1421L21.1054 13.2938L21.0956 13.3253L21.0836 13.3562L21.0263 13.5045L21.0139 13.5366L20.9994 13.5677L20.9321 13.7116L20.9179 13.7421L20.9016 13.7715L20.8249 13.9103L20.8085 13.9401L20.79 13.9687L20.7039 14.1022L20.686 14.13L20.6663 14.1566L20.5719 14.2837L20.5514 14.3113L20.529 14.3374L20.426 14.4578L20.4042 14.4833L20.3808 14.5073L20.27 14.6204L20.2461 14.6448L20.2206 14.6676L20.1024 14.7729L20.0777 14.7949L20.0515 14.8153L19.9267 14.9125L19.8987 14.9342L19.8693 14.954L19.7381 15.0419L19.7111 15.0601L19.6829 15.0764L19.5551 15.1505L19.5555 15.1512L19.5042 15.1816L19.4924 15.1902L19.4812 15.2L19.4701 15.2119L19.4602 15.2243L19.4527 15.236L19.4446 15.2517L19.4383 15.2669L19.4337 15.2817L19.4301 15.2991L19.4282 15.3153L19.4278 15.3323L19.429 15.3493L19.4315 15.3648L19.4454 15.4191L19.4853 15.5679L19.4939 15.5997L19.5003 15.6321L19.5313 15.7879L19.5381 15.8218L19.5424 15.856L19.5627 16.0138L19.5669 16.0468L19.5689 16.0799L19.5786 16.2386L19.5806 16.2716L19.5804 16.3047L19.5796 16.4637L19.5794 16.4976L19.5769 16.5315L19.5653 16.6902L19.5629 16.7233L19.5582 16.7563L19.5361 16.9138L19.5313 16.948L19.5242 16.9818L19.4912 17.1373L19.4843 17.1698L19.4753 17.2017L19.4321 17.3548L19.4232 17.3866L19.4121 17.4178L19.3589 17.5675L19.3475 17.5996L19.334 17.6309L19.2709 17.7764L19.2572 17.808L19.2414 17.8385L19.1683 17.9796L19.1533 18.0085L19.1365 18.0363L19.0546 18.1721L19.0369 18.2014L19.0172 18.2294L18.9261 18.3593L18.9064 18.3874L18.8848 18.4141L18.7851 18.5373L18.764 18.5634L18.7412 18.5881L18.6335 18.7043L18.6107 18.7289L18.5863 18.7519L18.4711 18.8605L18.4466 18.8836L18.4207 18.9051L18.2986 19.0056L18.2719 19.0276L18.2438 19.0476L18.1151 19.1395L18.087 19.1596L18.0577 19.1776L17.9231 19.2603L17.8951 19.2775L17.8661 19.2928L17.7263 19.3665L17.6955 19.3828L17.6637 19.3968L17.5195 19.4605L17.4879 19.4745L17.4554 19.4862L17.3071 19.5398L17.2755 19.5512L17.2432 19.5605L17.0915 19.6041L17.0591 19.6134L17.0262 19.6205L16.872 19.6537L16.8377 19.6611L16.8029 19.6661L16.6468 19.6884L16.6133 19.6932L16.5796 19.6957L16.4223 19.7075L16.3878 19.7101L16.3532 19.7102L16.1957 19.7111L16.162 19.7113L16.1284 19.7092L15.9711 19.6994L15.9374 19.6973L15.9039 19.6929L15.7475 19.6725L15.7127 19.668L15.6783 19.661L15.5238 19.6297L15.491 19.6231L15.4586 19.6142L15.3163 19.5753L15.3162 19.5756L15.2574 19.5603L15.2443 19.5581L15.2299 19.5571L15.2155 19.5575L15.2019 19.5591L15.1869 19.5623L15.1741 19.5663L15.1607 19.5719L15.1463 19.5795L15.1356 19.5865L15.1237 19.5961L15.112 19.6073L15.1021 19.6188L15.0931 19.6314L15.0676 19.6752L15.0688 19.6759L14.9902 19.8139L14.9742 19.842L14.9565 19.8689L14.8693 20.0013L14.8499 20.0307L14.8285 20.0587L14.7321 20.1847L14.7121 20.2109L14.6904 20.2357L14.586 20.355L14.5635 20.3807L14.5393 20.4048L14.4272 20.5165L14.4034 20.5403L14.3781 20.5623L14.2588 20.6662L14.2327 20.6889L14.2052 20.7097L14.0792 20.805L14.0527 20.8251L14.0249 20.8433L13.8925 20.9302L13.8638 20.949L13.8339 20.9659L13.6963 21.0432L13.6667 21.0599L13.636 21.0745L13.4935 21.1424L13.462 21.1573L13.4297 21.1701L13.2827 21.2279L13.2514 21.2402L13.2194 21.2503L13.0691 21.2981L13.0368 21.3084L13.0038 21.3164L12.8507 21.3539L12.8173 21.362L12.7834 21.3679L12.6281 21.3947L12.5936 21.4007L12.5588 21.4042L12.4019 21.4201L12.3692 21.4234L12.3364 21.4246L12.1789 21.4302L12.1435 21.4314L12.108 21.4302L11.9505 21.4246L11.9177 21.4234L11.885 21.4201L11.7281 21.4042L11.6933 21.4007L11.6589 21.3947L11.5036 21.3679L11.4696 21.362L11.4362 21.3539L11.2831 21.3164L11.2501 21.3084L11.2178 21.2981L11.0675 21.2503L11.0355 21.2402L11.0043 21.2279L10.8573 21.1701L10.8249 21.1573L10.7935 21.1424L10.6509 21.0745L10.6202 21.0599L10.5906 21.0432L10.453 20.9659L10.4231 20.949L10.3944 20.9302L10.2621 20.8433L10.2343 20.8251L10.2077 20.805L10.0818 20.7097L10.0542 20.6889L10.0282 20.6662L9.90887 20.5623L9.88353 20.5403L9.85972 20.5165L9.74761 20.4048L9.72342 20.3807L9.70093 20.355L9.59657 20.2357L9.57484 20.2109L9.55479 20.1847L9.45846 20.0587L9.43705 20.0307L9.41767 20.0013L9.33047 19.8689L9.31272 19.842L9.29674 19.8139L9.22221 19.6831L9.22126 19.6836L9.19088 19.6314L9.18187 19.6188L9.17192 19.6073L9.16025 19.5961L9.14833 19.5865L9.1376 19.5795L9.12328 19.5719L9.10979 19.5663L9.09707 19.5623L9.08207 19.5591L9.06839 19.5575L9.05399 19.5571L9.03961 19.5581L9.0265 19.5603L8.97961 19.5725L8.97965 19.5726L8.8274 19.6142L8.79507 19.6231L8.76222 19.6297L8.60775 19.661L8.57335 19.668L8.53854 19.6725L8.38214 19.6929L8.34863 19.6973L8.31491 19.6994L8.15767 19.7092L8.12402 19.7113L8.09031 19.7111L7.9328 19.7102L7.8982 19.7101L7.8637 19.7075L7.70647 19.6957L7.67271 19.6932L7.6392 19.6884L7.48308 19.6661L7.44834 19.6611L7.41403 19.6537L7.25984 19.6205L7.22689 19.6134L7.1945 19.6041L7.0428 19.5605L7.01053 19.5512L6.97896 19.5398L6.83059 19.4862L6.79813 19.4745L6.76656 19.4605L6.62233 19.3968L6.5905 19.3828L6.55973 19.3665L6.41994 19.2928L6.39089 19.2775L6.3629 19.2603L6.22837 19.1776L6.19899 19.1596L6.17092 19.1395L6.0422 19.0476L6.0141 19.0276L5.98745 19.0056L5.86537 18.9051L5.83938 18.8836L5.81489 18.8605L5.69973 18.7519L5.67533 18.7289L5.65254 18.7043L5.54485 18.5881L5.52202 18.5634L5.50088 18.5373L5.40123 18.4141L5.37962 18.3874L5.35989 18.3593L5.26882 18.2294L5.24916 18.2014L5.23146 18.1721L5.14953 18.0363L5.13271 18.0085L5.11774 17.9796L5.04466 17.8385L5.02883 17.808L5.01514 17.7764L4.95203 17.6309L4.93847 17.5996L4.92708 17.5675L4.87393 17.4178L4.86286 17.3866L4.85388 17.3548L4.81069 17.2017L4.80168 17.1698L4.79481 17.1373L4.76187 16.9818L4.75472 16.948L4.74992 16.9138L4.72777 16.7563L4.72314 16.7233L4.72071 16.6902L4.70908 16.5315L4.7066 16.4976L4.70642 16.4637L4.70559 16.3047L4.70542 16.2716L4.70744 16.2385L4.71713 16.0799L4.71915 16.0468L4.72337 16.0138L4.74357 15.856L4.74796 15.8218L4.75469 15.7879L4.7857 15.6321L4.79213 15.5997L4.80068 15.5679L4.84193 15.4143L4.84268 15.4145L4.8554 15.3648L4.85791 15.3493L4.85904 15.3323L4.85864 15.3153L4.85676 15.2991L4.85313 15.2817L4.84861 15.2669L4.84233 15.2517L4.83418 15.236L4.82666 15.2243L4.81683 15.2119L4.80565 15.2L4.79447 15.1902L4.78264 15.1816L4.73796 15.1551L4.7376 15.1557L4.60085 15.0764L4.57271 15.0601L4.54569 15.0419L4.41448 14.954L4.38504 14.9342L4.35708 14.9125L4.23224 14.8153L4.20611 14.7949L4.18138 14.7729L4.06318 14.6676L4.03765 14.6448L4.01374 14.6204L3.90301 14.5073L3.87954 14.4833L3.85773 14.4578L3.75475 14.3374L3.73239 14.3113L3.71188 14.2837L3.61748 14.1566L3.59776 14.13L3.57983 14.1022L3.49374 13.9687L3.4753 13.9401L3.45884 13.9103L3.38216 13.7715L3.36589 13.7421L3.35165 13.7116L3.28438 13.5677L3.26982 13.5366L3.25743 13.5045L3.20012 13.3562L3.1882 13.3253L3.17834 13.2938L3.131 13.1421L3.12104 13.1102L3.11324 13.0777L3.07614 12.9232L3.06824 12.8903L3.06257 12.8569L3.036 12.7002L3.03025 12.6663L3.02685 12.6321L3.01107 12.4738L3.00787 12.4417L3.00675 12.4095L3.00121 12.2505L3 12.2157L3.00121 12.1809L3.00675 12.022L3.00787 11.9897L3.01107 11.9576L3.02685 11.7993L3.03025 11.7651L3.036 11.7312L3.06257 11.5745L3.06824 11.5411L3.07614 11.5082L3.11324 11.3538L3.12104 11.3212L3.131 11.2893L3.17834 11.1377L3.1882 11.1061L3.20012 11.0752L3.25743 10.9269L3.26982 10.8948L3.28438 10.8637L3.35165 10.7198L3.36589 10.6894L3.38216 10.6599L3.45884 10.5211L3.4753 10.4913L3.49375 10.4627L3.57984 10.3292L3.59776 10.3014L3.61748 10.2748L3.71188 10.1478L3.73239 10.1201L3.75475 10.094L3.85773 9.97361L3.87954 9.94812L3.90301 9.92414L4.01373 9.81102L4.03765 9.78658L4.06318 9.76384L4.18138 9.65854L4.20611 9.63652L4.23223 9.61617L4.35708 9.51897L4.38505 9.4972L4.41448 9.47746L4.54569 9.38948L4.57271 9.37136L4.60085 9.35504L4.7376 9.27571L4.73795 9.27632L4.78263 9.24987L4.79446 9.24124L4.80564 9.23142L4.81682 9.21955L4.82665 9.20708L4.83417 9.1954L4.84232 9.17973L4.84861 9.16448L4.85313 9.14967L4.85676 9.13232L4.85864 9.11611L4.85904 9.09911L4.85791 9.08214L4.8554 9.06657L4.84268 9.01695Z" fill="black"/>
<path d="M14.5 12C14.5 13.3807 13.3807 14.5 12 14.5C10.6193 14.5 9.5 13.3807 9.5 12C9.5 10.6193 10.6193 9.5 12 9.5C13.3807 9.5 14.5 10.6193 14.5 12Z" stroke="black" stroke-width="2"/>
</svg>
