<svg width="24" height="24" viewBox="0 0 24 24" fill="none" xmlns="http://www.w3.org/2000/svg">
<path d="M8.5 13L6.5 16.5M8.5 13H6.5C5.94772 13 5.5 12.5523 5.5 12V6M8.5 13H10H14.5H15.882C16.2607 13 16.607 12.786 16.7764 12.4472L19.2764 7.44721C19.6088 6.78231 19.1253 6 18.382 6H14.5H10H5.5M6.5 16.5H17M6.5 16.5H5.5M5.5 6L4.77639 4.55279C4.607 4.214 4.26074 4 3.88197 4H2.5" stroke="black" stroke-width="2" stroke-linecap="round"/>
<path d="M16 19C16 20.1046 16.8954 21 18 21C19.1046 21 20 20.1046 20 19C20 17.8954 19.1046 17 18 17C16.8954 17 16 17.8954 16 19Z" stroke="black" stroke-width="2"/>
<path d="M3 19C3 20.1046 3.89543 21 5 21C6.10457 21 7 20.1046 7 19C7 17.8954 6.10457 17 5 17C3.89543 17 3 17.8954 3 19Z" stroke="black" stroke-width="2"/>
</svg>
