<svg width="24" height="24" viewBox="0 0 24 24" fill="none" xmlns="http://www.w3.org/2000/svg">
<path d="M16.18 7.57657L16.3669 8.13917L16.9574 8.08725C17.0407 8.07992 17.1251 8.07617 17.2105 8.07617C18.8515 8.07617 20.25 9.49252 20.25 11.3262C20.25 13.1598 18.8515 14.5762 17.2105 14.5762H6.78947C5.14851 14.5762 3.75 13.1598 3.75 11.3262C3.75 9.68846 4.87208 8.37547 6.27979 8.12157L6.72173 8.04187L6.86015 7.61467C7.5347 5.53286 9.38757 4.07617 11.5263 4.07617C13.652 4.07617 15.4951 5.51497 16.18 7.57657Z" stroke="black" stroke-width="1.5"/>
<circle cx="7.16008" cy="17.6873" r="0.873703" fill="black"/>
<circle cx="16.8399" cy="17.6873" r="0.873703" fill="black"/>
<circle cx="12" cy="17.6873" r="0.873703" fill="black"/>
<circle cx="14.4201" cy="20.7659" r="0.873703" fill="black"/>
<circle cx="9.58012" cy="20.7659" r="0.873703" fill="black"/>
</svg>
