<svg width="24" height="24" viewBox="0 0 24 24" fill="none" xmlns="http://www.w3.org/2000/svg">
<path d="M15.0355 8.52113C15.4261 8.1306 16.0674 8.12674 16.3881 8.57637C17.0882 9.55788 17.5 10.7592 17.5 12.0567C17.5 13.3541 17.0882 14.5554 16.3881 15.537C16.0674 15.9866 15.4261 15.9827 15.0355 15.5922C14.645 15.2017 14.6586 14.5725 14.9408 14.0978C15.296 13.5002 15.5 12.8023 15.5 12.0567C15.5 11.3111 15.296 10.6131 14.9408 10.0156C14.6586 9.54084 14.645 8.91165 15.0355 8.52113Z" fill="black"/>
<path d="M13 16.5858V7.41421C13 6.52331 11.9229 6.07714 11.2929 6.70711L9.29289 8.70711C9.10536 8.89464 8.851 9 8.58579 9H7C6.44772 9 6 9.44772 6 10V14C6 14.5523 6.44772 15 7 15H8.58579C8.851 15 9.10536 15.1054 9.29289 15.2929L11.2929 17.2929C11.9229 17.9229 13 17.4767 13 16.5858Z" stroke="black" stroke-width="2" stroke-linecap="round"/>
</svg>
