<svg width="24" height="24" viewBox="0 0 24 24" fill="none" xmlns="http://www.w3.org/2000/svg">
<rect x="18" y="20" width="11" height="16" rx="2" transform="rotate(-180 18 20)" stroke="black" stroke-width="2"/>
<path d="M9.25 14C9.25 12.2051 10.7051 10.75 12.5 10.75C14.2949 10.75 15.75 12.2051 15.75 14C15.75 15.7949 14.2949 17.25 12.5 17.25C10.7051 17.25 9.25 15.7949 9.25 14Z" stroke="black" stroke-width="1.5"/>
<path d="M11.5 7.5C11.5 6.94772 11.9477 6.5 12.5 6.5C13.0523 6.5 13.5 6.94772 13.5 7.5C13.5 8.05228 13.0523 8.5 12.5 8.5C11.9477 8.5 11.5 8.05228 11.5 7.5Z" fill="black" stroke="black"/>
<path d="M12 14C12 13.7239 12.2239 13.5 12.5 13.5C12.7761 13.5 13 13.7239 13 14C13 14.2761 12.7761 14.5 12.5 14.5C12.2239 14.5 12 14.2761 12 14Z" fill="black" stroke="black"/>
</svg>
