<svg width="24" height="24" viewBox="0 0 24 24" fill="none" xmlns="http://www.w3.org/2000/svg">
<path d="M18.6205 5.10955C18.6205 5.92509 17.9593 6.58623 17.1438 6.58623C16.3282 6.58623 15.6671 5.92509 15.6671 5.10955C15.6671 4.294 16.3282 3.63286 17.1438 3.63286C17.9593 3.63286 18.6205 4.294 18.6205 5.10955Z" fill="black" stroke="black" stroke-width="1.26573"/>
<path d="M15.0933 8.80542C15.8705 8.80542 16.862 9.61713 16.862 9.61713C15.8953 11.6829 15.0933 12.3947 15.0933 14.0387H12.941C14.6266 10.5669 14.1466 10.6712 15.0933 8.80542Z" fill="black"/>
<path d="M12.941 14.0387C11.6402 16.3375 8.86951 19.6281 8.86951 19.6281M12.941 14.0387C13.6347 14.0387 14.3996 14.0387 15.0933 14.0387M12.941 14.0387C14.6266 10.5669 14.1466 10.6712 15.0933 8.80542C15.8705 8.80542 16.862 9.61713 16.862 9.61713C15.8953 11.6829 15.0933 12.3947 15.0933 14.0387M15.0933 14.0387C16.4374 16.3375 14.4221 20.1391 14.4221 20.1391" stroke="black" stroke-width="2.21502" stroke-linecap="round" stroke-linejoin="round"/>
<path d="M17.0381 9.63306L17.9763 13.5358L21.1305 11.5577" stroke="black" stroke-width="1.91969" stroke-linecap="round" stroke-linejoin="round"/>
<path d="M15.0342 8.625L12.1826 8.5973L10.5451 11.5825" stroke="black" stroke-width="1.91969" stroke-linecap="round" stroke-linejoin="round"/>
<path d="M13.5 3.56958H4" stroke="black" stroke-width="1.5" stroke-linecap="round" stroke-linejoin="round"/>
<path d="M10 6.56958H5" stroke="black" stroke-width="1.5" stroke-linecap="round" stroke-linejoin="round"/>
<path d="M7 9.56958H2" stroke="black" stroke-width="1.5" stroke-linecap="round" stroke-linejoin="round"/>
</svg>
