<svg width="24" height="24" viewBox="0 0 24 24" fill="none" xmlns="http://www.w3.org/2000/svg">
<path fill-rule="evenodd" clip-rule="evenodd" d="M6.51589 12.5129C6.24786 12.2814 6.25625 11.8633 6.53334 11.6427L8.66904 9.94236C8.95338 9.71599 8.95338 9.28401 8.66904 9.05763L6.53334 7.35733C6.25625 7.13673 6.24786 6.7186 6.51589 6.48707L6.72483 6.30658C6.93064 6.12879 7.23387 6.12271 7.44664 6.29211L10.6725 8.86034C11.1092 9.20795 11.1092 9.79205 10.6725 10.1397L7.44664 12.7079C7.23387 12.8773 6.93064 12.8712 6.72483 12.6934L6.51589 12.5129Z" fill="black"/>
<path d="M3.5 5.76667C3.5 4.51482 4.51482 3.5 5.76667 3.5H18.2333C19.4852 3.5 20.5 4.51482 20.5 5.76667V18.2333C20.5 19.4852 19.4852 20.5 18.2333 20.5H5.76667C4.51482 20.5 3.5 19.4852 3.5 18.2333V5.76667Z" stroke="black" stroke-width="1.7"/>
<path d="M10 13.3667C10 13.0537 10.2537 12.8 10.5667 12.8H15.1C15.413 12.8 15.6667 13.0537 15.6667 13.3667V13.9333C15.6667 14.2463 15.413 14.5 15.1 14.5H10.5667C10.2537 14.5 10 14.2463 10 13.9333V13.3667Z" fill="black"/>
</svg>
