<svg width="25" height="24" viewBox="0 0 25 24" fill="none" xmlns="http://www.w3.org/2000/svg">
<path fill-rule="evenodd" clip-rule="evenodd" d="M7.46426 3.38917C8.86981 2.71985 10.7073 2.58496 12.5 2.58496C14.2927 2.58496 16.1302 2.71986 17.5358 3.38917C18.257 3.73259 18.8872 4.22671 19.3318 4.92993C19.7763 5.63291 20 6.48902 20 7.49875L20 16.2919C20 16.7339 19.8516 17.1349 19.5396 17.4457C19.2534 17.7308 18.887 17.8819 18.5519 17.9739C18.2262 18.0633 17.8409 18.1178 17.4305 18.1572L18.8562 20.5499L17.1552 20.5326L15.6962 18.2782C13.7526 18.3864 11.3691 18.3883 9.41055 18.284L7.84483 20.5326H6.15442L7.64232 18.1776C7.22515 18.1454 6.83239 18.0996 6.50397 18.0184C6.15715 17.9326 5.77255 17.7851 5.47256 17.4885C5.14593 17.1656 5 16.7474 5 16.2918L5.00001 7.49874C5.00002 6.48902 5.22374 5.6329 5.66821 4.92993C6.11285 4.22671 6.74307 3.7326 7.46426 3.38917ZM6.97977 5.75919C6.72185 6.16711 6.55174 6.72166 6.55173 7.49876L6.55172 16.2919C6.55172 16.3544 6.56106 16.3802 6.56241 16.3837C6.56241 16.3837 6.56125 16.3828 6.56351 16.385C6.57737 16.3987 6.64997 16.456 6.87656 16.512C7.25227 16.605 7.75015 16.6332 8.42177 16.6712C8.61588 16.6822 8.82451 16.694 9.04889 16.7084C11.175 16.8452 13.9687 16.8426 16.0684 16.7007C16.1604 16.6945 16.2497 16.6886 16.3365 16.6828C17.1454 16.6291 17.7306 16.5902 18.1412 16.4775C18.3521 16.4196 18.4262 16.3638 18.4433 16.3474C18.4451 16.3401 18.4483 16.3228 18.4483 16.2919L18.4483 7.49875C18.4483 6.72165 18.2782 6.16711 18.0203 5.75919C17.7625 5.35152 17.3818 5.03451 16.8686 4.79016C15.8055 4.28392 14.281 4.13668 12.5 4.13668C10.719 4.13668 9.19448 4.28392 8.1314 4.79016C7.61827 5.03451 7.23753 5.35152 6.97977 5.75919Z" fill="black"/>
<path d="M16.6379 7.0476V10.9131C16.6379 10.9988 15.8344 11.0578 14.7281 11.0901C14.0592 11.1097 13.2796 11.1194 12.5 11.1194C11.7489 11.1194 10.9977 11.1104 10.3456 11.0922C9.20145 11.0604 8.36207 11.0007 8.36207 10.9131L8.36207 7.0476C8.3621 6.0971 10.3008 5.94702 12.5 5.94702C14.6992 5.94702 16.6379 6.0971 16.6379 7.0476Z" stroke="black" stroke-width="1.55172"/>
<circle cx="9.39657" cy="14.2229" r="1.2931" fill="black" stroke="black" stroke-width="0.517241"/>
<circle cx="15.6034" cy="14.2229" r="1.2931" fill="black" stroke="black" stroke-width="0.517241"/>
</svg>
