<svg width="24" height="24" viewBox="0 0 24 24" fill="none" xmlns="http://www.w3.org/2000/svg">
<path fill-rule="evenodd" clip-rule="evenodd" d="M10.9288 5.22323C10.9288 5.56121 10.6548 5.8352 10.3168 5.8352L4.61197 5.83525C4.27399 5.83525 4 6.10924 4 6.44722V7.67118C4 8.00917 4.27399 8.28316 4.61198 8.28316L15.041 8.28316C15.4555 8.28316 15.7495 8.68697 15.5875 9.06846C15.0031 10.4441 14.0916 11.6494 12.7969 13.1761C12.5139 13.5098 12.2133 13.8331 11.8943 14.1421C11.6703 14.3591 11.3168 14.357 11.0908 14.1422C10.3474 13.4357 9.72168 12.7431 9.13268 12.0804C8.63512 11.5207 8.35672 10.9903 8.15732 10.561C8.01492 10.2545 7.65649 10.1279 7.35419 10.279L6.25945 10.8264C5.95715 10.9775 5.83242 11.3461 5.98306 11.6487C6.30487 12.295 6.69713 13.025 7.30309 13.7067C7.79203 14.2568 8.28477 14.8137 8.84682 15.3797C9.14012 15.6751 9.07891 16.1741 8.70023 16.347C7.50312 16.8934 6.14604 17.2449 4.61183 17.319C4.27424 17.3353 4 17.6076 4 17.9456V19.1695C4 19.5075 4.27436 19.7829 4.61207 19.7693C7.11328 19.6689 9.23705 18.956 11.0156 17.8907C11.2431 17.7544 11.5323 17.7698 11.7397 17.9352C13.1215 19.037 14.5544 20.0209 15.8146 20.6487C16.1171 20.7994 16.4773 20.6547 16.6104 20.344L17.0926 19.219C17.2257 18.9084 17.0814 18.5492 16.7809 18.3945C15.9395 17.9615 14.957 17.3144 13.9409 16.5458C13.6418 16.3195 13.6251 15.8793 13.8876 15.6114C14.1591 15.3343 14.4178 15.0496 14.6639 14.7593C16.5174 12.5737 17.6812 10.6924 18.2991 8.73224C18.3821 8.46875 18.6225 8.28316 18.8988 8.28316H19.2994C19.6374 8.28316 19.9114 8.00917 19.9114 7.67118V6.44722C19.9114 6.10924 19.6374 5.83525 19.2994 5.83525L13.9887 5.8352C13.6507 5.8352 13.3767 5.56121 13.3767 5.22323V4.61189C13.3767 4.27391 13.1027 3.99992 12.7647 3.99992L11.5408 3.99992C11.2028 3.99992 10.9288 4.27391 10.9288 4.61189V5.22323Z" fill="black"/>
</svg>
