<svg width="24" height="24" viewBox="0 0 24 24" fill="none" xmlns="http://www.w3.org/2000/svg">
<path d="M10.9629 14.6341C10.8999 14.4219 10.7049 14.2764 10.4835 14.2764H8.76458C8.54325 14.2764 8.34825 14.4219 8.28526 14.6341L8.01813 15.5339C7.95513 15.7461 7.76014 15.8916 7.5388 15.8916H6.70771C6.36245 15.8916 6.12109 15.55 6.23644 15.2246L8.67918 8.33296C8.74992 8.13338 8.93871 8 9.15045 8H10.0985C10.3098 8 10.4983 8.13291 10.5694 8.33198L13.0282 15.2236C13.1444 15.5492 12.903 15.8916 12.5573 15.8916H11.7093C11.488 15.8916 11.293 15.7461 11.23 15.5339L10.9629 14.6341ZM8.97585 12.3061C8.88058 12.6266 9.12073 12.9485 9.45513 12.9485H9.78685C10.1212 12.9485 10.3614 12.6266 10.2661 12.3061L10.1003 11.748C9.95857 11.2713 9.28341 11.2713 9.14171 11.748L8.97585 12.3061Z" fill="black"/>
<path d="M16.5992 15.8916C16.532 15.8916 16.4825 15.8826 16.4567 15.8205C16.3983 15.6803 16.1971 15.6012 16.0757 15.6925C15.8029 15.8975 15.4697 16 15.0762 16C14.5188 16 14.0557 15.8374 13.6868 15.5122C13.3221 15.187 13.1397 14.766 13.1397 14.2493C13.1397 13.635 13.361 13.1599 13.8036 12.8238C14.2504 12.4878 14.8918 12.3162 15.7279 12.3089H15.785C16.0454 12.3089 16.2566 12.0978 16.2566 11.8374C16.2566 11.5736 16.2053 11.3875 16.1029 11.2791C16.0004 11.1707 15.8508 11.1165 15.6541 11.1165C15.4169 11.1165 15.2445 11.1833 15.1368 11.3168C14.9634 11.5318 14.7786 11.7886 14.5024 11.7886H13.7626C13.4865 11.7886 13.2527 11.5595 13.3338 11.2956C13.4339 10.9696 13.6397 10.6877 13.9512 10.4499C14.4143 10.0958 14.9983 9.9187 15.7033 9.9187C16.4328 9.9187 16.9963 10.0867 17.3939 10.4228C17.7955 10.7552 17.9964 11.2322 17.9964 11.8537V14.6125C18.0046 15.1183 17.9964 15.4921 17.9964 15.7995C17.9964 15.8503 17.9551 15.8916 17.9042 15.8916H16.5992ZM15.4635 14.7967C15.6561 14.7967 15.8201 14.7624 15.9553 14.6938C16.0315 14.6551 16.0967 14.6124 16.1508 14.5657C16.2282 14.4988 16.2566 14.395 16.2566 14.2926V13.6484C16.2566 13.4175 16.0694 13.2304 15.8385 13.2304C15.5434 13.2304 15.3098 13.3135 15.1377 13.4797C14.9696 13.6459 14.8856 13.8681 14.8856 14.1463C14.8856 14.5799 15.0783 14.7967 15.4635 14.7967Z" fill="black"/>
<rect x="4" y="4" width="16" height="16" rx="1" stroke="black" stroke-width="2"/>
</svg>
