<svg width="24" height="24" viewBox="0 0 24 24" fill="none" xmlns="http://www.w3.org/2000/svg">
<path d="M13.3692 5.13905C13.3692 6.00924 12.6638 6.71466 11.7936 6.71466C10.9234 6.71466 10.218 6.00924 10.218 5.13905C10.218 4.26887 10.9234 3.56345 11.7936 3.56345C12.6638 3.56345 13.3692 4.26887 13.3692 5.13905Z" fill="black" stroke="black" stroke-width="1.35052"/>
<path d="M11.7782 14.8313H9.48168C9.94681 12.7756 9.94681 11.0994 9.94681 9.42322L12.1943 9.64358C12.1943 11.2195 11.7782 13.0771 11.7782 14.8313Z" fill="black"/>
<path d="M9.48168 14.8313C8.09375 17.284 6.95068 21.1119 6.95068 21.1119M9.48168 14.8313C10.2219 14.8313 11.038 14.8313 11.7782 14.8313M9.48168 14.8313C9.94681 12.7756 9.94681 11.0994 9.94681 9.42322L12.1943 9.64358C12.1943 11.2195 11.7782 13.0771 11.7782 14.8313M11.7782 14.8313C13.2124 17.284 12.4653 21.1119 12.4653 21.1119" stroke="black" stroke-width="2.36342" stroke-linecap="round" stroke-linejoin="round"/>
<path d="M12.6599 9.42322L14.8501 12.9967L17.5324 11.8874" stroke="black" stroke-width="1.67621" stroke-linecap="round" stroke-linejoin="round"/>
<path d="M9.80518 9.08887L6.53081 10.0556L8.79988 13.627" stroke="black" stroke-width="1.67621" stroke-linecap="round" stroke-linejoin="round"/>
</svg>
