<svg width="24" height="24" viewBox="0 0 24 24" fill="none" xmlns="http://www.w3.org/2000/svg">
<path fill-rule="evenodd" clip-rule="evenodd" d="M21.238 12.833C21.4647 13.0597 21.4647 13.4274 21.238 13.6541L13.8476 21.0445C13.6208 21.2712 13.2532 21.2712 13.0264 21.0445L12.204 20.222C11.9777 19.9958 11.9772 19.6292 12.2027 19.4022L15.3986 16.186L7.59766 8.38502L4.40432 11.5986C4.17778 11.8266 3.80914 11.8272 3.58187 11.5999L2.76202 10.7801C2.53526 10.5533 2.53526 10.1857 2.76202 9.95891L10.1524 2.56853C10.3792 2.34177 10.7468 2.34177 10.9736 2.56853L11.7932 3.3882C12.0206 3.61554 12.0199 3.98432 11.7918 4.21083L9.01187 6.97081L16.8128 14.7718L19.5957 12.0089C19.8227 11.7835 20.1892 11.7841 20.4154 12.0103L21.238 12.833Z" fill="black"/>
<path d="M16.4594 20.0751L15.6382 19.2539L19.1737 15.7184L19.9949 16.5396L16.4594 20.0751Z" stroke="black" stroke-width="1.74193" stroke-linecap="round" stroke-linejoin="round"/>
<path d="M4.55249 8.16821L3.73134 7.34706L7.26684 3.81155L8.088 4.63271L4.55249 8.16821Z" stroke="black" stroke-width="1.74193" stroke-linecap="round" stroke-linejoin="round"/>
</svg>
