<svg width="24" height="24" viewBox="0 0 24 24" fill="none" xmlns="http://www.w3.org/2000/svg">
<g clip-path="url(#clip0)">
<mask id="path-1-inside-1" fill="white">
<path d="M10.8827 17.3902C10.7495 17.4887 10.7506 17.6808 10.8677 17.7979L11.8577 18.7879C11.9748 18.905 12.1648 18.905 12.2819 18.7879L13.2719 17.7979C13.3891 17.6808 13.3902 17.4887 13.2569 17.3902C12.9249 17.145 12.5143 17 12.0698 17C11.6254 17 11.2148 17.145 10.8827 17.3902Z"/>
</mask>
<path d="M10.8827 17.3902C10.7495 17.4887 10.7506 17.6808 10.8677 17.7979L11.8577 18.7879C11.9748 18.905 12.1648 18.905 12.2819 18.7879L13.2719 17.7979C13.3891 17.6808 13.3902 17.4887 13.2569 17.3902C12.9249 17.145 12.5143 17 12.0698 17C11.6254 17 11.2148 17.145 10.8827 17.3902Z" fill="black"/>
<path d="M13.2719 17.7979L11.8577 16.3837L13.2719 17.7979ZM13.2569 17.3902L14.4452 15.7815L13.2569 17.3902ZM11.8577 18.7879L13.2719 17.3737L11.8577 18.7879ZM12.2819 18.7879L13.6962 20.2021L13.6962 20.2021L12.2819 18.7879ZM10.8677 17.7979L9.45352 19.2121L10.8677 17.7979ZM10.8827 17.3902L9.69446 15.7815L9.69446 15.7815L10.8827 17.3902ZM9.45352 19.2121L10.4435 20.2021L13.2719 17.3737L12.2819 16.3837L9.45352 19.2121ZM13.6962 20.2021L14.6861 19.2121L11.8577 16.3837L10.8677 17.3737L13.6962 20.2021ZM12.0698 19C12.072 19 12.0727 19.0002 12.0723 19.0001C12.0718 19 12.0711 18.9999 12.0702 18.9996C12.0684 18.999 12.068 18.9985 12.0686 18.999L14.4452 15.7815C13.7808 15.2908 12.9563 15 12.0698 15V19ZM12.071 18.999C12.0716 18.9985 12.0712 18.999 12.0694 18.9996C12.0685 18.9999 12.0678 19 12.0674 19.0001C12.0669 19.0002 12.0676 19 12.0698 19V15C11.1833 15 10.3588 15.2908 9.69446 15.7815L12.071 18.999ZM14.6861 19.2121C15.5162 18.3821 15.7274 16.7286 14.4452 15.7815L12.0686 18.999C11.0529 18.2487 11.2619 16.9795 11.8577 16.3837L14.6861 19.2121ZM10.4435 20.2021C11.3417 21.1003 12.798 21.1003 13.6962 20.2021L10.8677 17.3737C11.5316 16.7098 12.608 16.7098 13.2719 17.3737L10.4435 20.2021ZM12.2819 16.3837C12.8777 16.9795 13.0867 18.2487 12.071 18.999L9.69446 15.7815C8.41219 16.7286 8.62345 18.3821 9.45352 19.2121L12.2819 16.3837Z" fill="black" mask="url(#path-1-inside-1)"/>
<path d="M8.53578 15.4645C8.14525 15.0739 8.14139 14.4326 8.59102 14.1119C9.57253 13.4118 10.7738 13 12.0713 13C13.3688 13 14.5701 13.4118 15.5516 14.1119C16.0012 14.4326 15.9974 15.0739 15.6068 15.4645C15.2163 15.855 14.5871 15.8414 14.1124 15.5592C13.5149 15.204 12.8169 15 12.0713 15C11.3257 15 10.6278 15.204 10.0302 15.5592C9.55549 15.8414 8.9263 15.855 8.53578 15.4645Z" fill="black"/>
<path d="M5.7078 12.636C5.31728 12.2455 5.31441 11.6079 5.74177 11.2581C7.46582 9.84678 9.66991 9 12.0718 9C14.4736 9 16.6777 9.84678 18.4018 11.2581C18.8291 11.6079 18.8263 12.2455 18.4357 12.636C18.0452 13.0266 17.4154 13.0208 16.9794 12.6817C15.6244 11.6277 13.9214 11 12.0718 11C10.2221 11 8.5191 11.6277 7.16409 12.6817C6.72816 13.0208 6.09833 13.0266 5.7078 12.636Z" fill="black"/>
<path d="M2.80786 9.80725C2.41732 9.41672 2.41513 8.78051 2.8324 8.41868C5.28854 6.28888 8.49367 5 11.9998 5C15.5459 5 18.784 6.31835 21.2507 8.49165C21.6651 8.85675 21.658 9.4929 21.2644 9.88035C20.8708 10.2678 20.2402 10.2593 19.8215 9.89911C17.721 8.09218 14.988 7 11.9998 7C9.0459 7 6.34125 8.06732 4.2505 9.83735C3.82901 10.1942 3.19837 10.1978 2.80786 9.80725Z" fill="black"/>
</g>
<defs>
<clipPath id="clip0">
<rect width="24" height="24" fill="white" transform="matrix(1 0 0 -1 0 24)"/>
</clipPath>
</defs>
</svg>
