<svg width="20" height="14" viewBox="0 0 20 14" fill="none" xmlns="http://www.w3.org/2000/svg">
<path d="M8.88312 12.3902C8.74985 12.4887 8.75096 12.6808 8.86811 12.7979L9.85806 13.7879C9.97522 13.905 10.1652 13.905 10.2823 13.7879L11.2723 12.7979C11.3894 12.6808 11.3905 12.4887 11.2573 12.3902C10.9252 12.145 10.5147 12 10.0702 12C9.62574 12 9.21514 12.145 8.88312 12.3902Z" fill="black"/>
<path d="M6.53616 10.4645C6.14564 10.0739 6.14177 9.43263 6.5914 9.11193C7.57291 8.41184 8.77421 8 10.0717 8C11.3692 8 12.5705 8.41184 13.552 9.11193C14.0016 9.43263 13.9978 10.0739 13.6072 10.4645C13.2167 10.855 12.5875 10.8414 12.1128 10.5592C11.5152 10.204 10.8173 10 10.0717 10C9.32609 10 8.62814 10.204 8.0306 10.5592C7.55587 10.8414 6.92668 10.855 6.53616 10.4645Z" fill="black"/>
<path d="M3.70819 7.63602C3.31766 7.2455 3.31479 6.60791 3.74215 6.25808C5.46621 4.84676 7.67029 3.99998 10.0721 3.99998C12.474 3.99998 14.6781 4.84677 16.4021 6.25808C16.8295 6.60791 16.8266 7.2455 16.4361 7.63602C16.0456 8.02655 15.4158 8.0208 14.9798 7.68171C13.6248 6.62769 11.9218 5.99998 10.0721 5.99998C8.22251 5.99998 6.51948 6.62769 5.16447 7.68171C4.72854 8.0208 4.09871 8.02655 3.70819 7.63602Z" fill="black"/>
<path d="M0.808294 4.80725C0.417759 4.41672 0.415561 3.78051 0.832833 3.41868C3.28898 1.28888 6.4941 0 10.0003 0C13.5463 0 16.7844 1.31835 19.2512 3.49165C19.6656 3.85675 19.6584 4.4929 19.2648 4.88035C18.8712 5.2678 18.2406 5.25927 17.8219 4.89911C15.7214 3.09218 12.9884 2 10.0003 2C7.04633 2 4.34169 3.06732 2.25094 4.83735C1.82944 5.19419 1.19881 5.19776 0.808294 4.80725Z" fill="black"/>
</svg>
