<svg width="24" height="24" viewBox="0 0 24 24" fill="none" xmlns="http://www.w3.org/2000/svg">
<circle cx="11.5" cy="11.5" r="8.63636" stroke="black" stroke-width="1.72727"/>
<path d="M4.59094 6.31824C4.59094 6.31824 6.31822 9.77278 11.5 9.77278C16.6819 9.77278 18.4091 6.31824 18.4091 6.31824" stroke="black" stroke-width="1.29545" stroke-linecap="round" stroke-linejoin="round"/>
<path d="M2.86365 11.0682C2.86365 11.0682 6.31819 14.9546 11.5 14.9546C16.6818 14.9546 20.1364 11.0682 20.1364 11.0682" stroke="black" stroke-width="1.29545" stroke-linecap="round" stroke-linejoin="round"/>
<path d="M9.77271 3.29541C9.77271 3.29541 7.61361 6.74996 7.61361 11.9318C7.61361 17.1136 9.34089 19.7045 9.34089 19.7045" stroke="black" stroke-width="1.29545" stroke-linecap="round" stroke-linejoin="round"/>
<path d="M12.7954 20.1364C12.7954 20.1364 14.9545 17.1136 14.9545 11.9318C14.9545 6.74999 13.2272 3.29544 13.2272 3.29544" stroke="black" stroke-width="1.29545" stroke-linecap="round" stroke-linejoin="round"/>
</svg>
