<svg width="24" height="24" viewBox="0 0 24 24" fill="none" xmlns="http://www.w3.org/2000/svg">
<path fill-rule="evenodd" clip-rule="evenodd" d="M23 12C23 18.0751 18.0751 23 12 23C5.92487 23 1 18.0751 1 12C1 5.92487 5.92487 1 12 1C18.0751 1 23 5.92487 23 12ZM17.8316 8.65559C18.0218 9.11481 17.8037 9.64128 17.3445 9.83147L14.0157 11.2101C13.9556 11.6215 13.8512 12.0313 13.7606 12.3875L13.7601 12.3893L13.737 12.48C13.6079 12.9885 13.5056 13.4149 13.4741 13.7872L15.6717 17.5457C15.9226 17.9748 15.7782 18.526 15.3491 18.7769C14.92 19.0278 14.3688 18.8833 14.1179 18.4543L12.0477 14.9138H11.8858L9.88863 18.4432C9.64384 18.8758 9.09471 19.028 8.66211 18.7833C8.22951 18.5385 8.07727 17.9893 8.32206 17.5567L10.4515 13.7936C10.4189 13.4046 10.3053 12.9932 10.1595 12.4993L10.1314 12.4044C10.0264 12.0508 9.90316 11.6353 9.83545 11.2023L6.6438 9.82644C6.18735 9.62967 5.97684 9.10013 6.17361 8.64368C6.37038 8.18723 6.89992 7.97672 7.35637 8.17349L10.87 9.6882H12.9863L16.6557 8.16846C17.1149 7.97826 17.6414 8.19636 17.8316 8.65559ZM12.0714 8.85714C12.8604 8.85714 13.5 8.21755 13.5 7.42857C13.5 6.63959 12.8604 6 12.0714 6C11.2825 6 10.6429 6.63959 10.6429 7.42857C10.6429 8.21755 11.2825 8.85714 12.0714 8.85714Z" fill="black"/>
</svg>
