<svg width="24" height="24" viewBox="0 0 24 24" fill="none" xmlns="http://www.w3.org/2000/svg">
<path d="M18.2373 13.6504C18.2373 14.6793 17.9833 15.649 17.5346 16.5C16.5097 18.4439 14.4689 19.769 12.1186 19.769C9.76836 19.769 7.72759 18.4439 6.70269 16.5C6.25399 15.649 6 14.6793 6 13.6504C6 10.2711 8.7394 7.53174 12.1186 7.53174C15.4979 7.53174 18.2373 10.2711 18.2373 13.6504Z" stroke="black" stroke-width="1.68676"/>
<path d="M12 10V13.5L15 15" stroke="black" stroke-width="1.5" stroke-linecap="round"/>
<path d="M7.38142 5.13881C8.55299 6.31039 8.79565 5.8459 6.32076 8.32079C3.8459 10.7956 4.31035 10.553 3.13877 9.38145C1.9672 8.20988 1.9672 6.31039 3.13877 5.13881C4.31035 3.96724 6.20984 3.96724 7.38142 5.13881Z" fill="black"/>
<path d="M21.1169 9.38142C19.9454 10.553 20.4098 10.7957 17.9349 8.32076C15.4601 5.8459 15.7027 6.31035 16.8743 5.13877C18.0459 3.9672 19.9454 3.9672 21.1169 5.13877C22.2885 6.31035 22.2885 8.20984 21.1169 9.38142Z" fill="black"/>
<path d="M8 19.5C8 20.3284 7.32843 21 6.5 21C5.67157 21 5 20.3284 5 19.5C5 18.6716 5.67157 18 6.5 18C7.32843 18 8 18.6716 8 19.5Z" fill="black"/>
<path d="M19 19.5C19 20.3284 18.3284 21 17.5 21C16.6716 21 16 20.3284 16 19.5C16 18.6716 16.6716 18 17.5 18C18.3284 18 19 18.6716 19 19.5Z" fill="black"/>
</svg>
