<svg width="24" height="24" viewBox="0 0 24 24" fill="none" xmlns="http://www.w3.org/2000/svg">
<path d="M18 7.5L4 7.50001C3.72386 7.50001 3.5 7.72387 3.5 8.00001V16C3.5 16.2762 3.72386 16.5 4 16.5L18 16.5C18.2761 16.5 18.5 16.2761 18.5 16V14.8571C18.5 14.581 18.7239 14.3571 19 14.3571H20C20.2761 14.3571 20.5 14.1333 20.5 13.8571V9.71429C20.5 9.43814 20.2761 9.21429 20 9.21429H19C18.7239 9.21429 18.5 8.99043 18.5 8.71429V8C18.5 7.72386 18.2761 7.5 18 7.5Z" stroke="black" stroke-width="2" stroke-linecap="round" stroke-linejoin="round"/>
<path d="M5.5 10.5C5.5 9.94772 5.94772 9.5 6.5 9.5H7.5C8.05228 9.5 8.5 9.94772 8.5 10.5V13.5C8.5 14.0523 8.05228 14.5 7.5 14.5H6.5C5.94772 14.5 5.5 14.0523 5.5 13.5V10.5Z" fill="black"/>
<path d="M9.5 10.5C9.5 9.94772 9.94772 9.5 10.5 9.5H11.5C12.0523 9.5 12.5 9.94772 12.5 10.5V13.5C12.5 14.0523 12.0523 14.5 11.5 14.5H10.5C9.94772 14.5 9.5 14.0523 9.5 13.5V10.5Z" fill="black"/>
</svg>
