<svg width="24" height="24" viewBox="0 0 24 24" fill="none" xmlns="http://www.w3.org/2000/svg">
<path d="M6.41667 10.9583L8.04167 7.70833M8.04167 7.70833H16.1667M8.04167 7.70833L10.2083 15.2917L16.1667 7.70833M8.04167 7.70833L6.95833 5M16.1667 7.70833L17.25 10.9583M16.1667 7.70833L15.625 6.625L18.875 6.08333V7.70833M8.58333 14.2083C8.58333 16.3024 6.88575 18 4.79167 18C2.69759 18 1 16.3024 1 14.2083C1 12.1143 2.69759 10.4167 4.79167 10.4167C6.88575 10.4167 8.58333 12.1143 8.58333 14.2083Z" stroke="black" stroke-width="1.5" stroke-linejoin="round"/>
<circle cx="18.875" cy="14.2083" r="3.79167" stroke="black" stroke-width="1.5"/>
<path d="M6.41663 5H9.12496" stroke="black" stroke-width="1.08333" stroke-linecap="round"/>
</svg>
