<svg width="24" height="24" viewBox="0 0 24 24" fill="none" xmlns="http://www.w3.org/2000/svg">
<path d="M12 7H6.5C5.67157 7 5 7.67157 5 8.5V17.5C5 18.3284 5.67157 19 6.5 19H15.5C16.3284 19 17 18.3284 17 17.5V13" stroke="black" stroke-width="2" stroke-linecap="round"/>
<path fill-rule="evenodd" clip-rule="evenodd" d="M19.1888 6.725V6.725C19.5892 6.34461 19.6054 5.71165 19.225 5.31125V5.31125C18.8446 4.91084 18.2117 4.89461 17.8113 5.275V5.275L17.6171 5.45948C17.2094 5.84678 17.2011 6.49397 17.5987 6.89159V6.89159C17.9822 7.27505 18.6014 7.28299 18.9946 6.90948L19.1888 6.725ZM16.8372 7.5443C17.2348 7.94193 17.2265 8.58911 16.8188 8.97641L9.18875 16.225V16.225C8.78835 16.6054 8.15539 16.5892 7.775 16.1887V16.1887C7.39462 15.7883 7.41085 15.1554 7.81125 14.775V14.775L15.4413 7.52641C15.8345 7.1529 16.4537 7.16084 16.8372 7.5443V7.5443Z" fill="black"/>
</svg>
