<svg width="24" height="24" viewBox="0 0 24 24" fill="none" xmlns="http://www.w3.org/2000/svg">
<path fill-rule="evenodd" clip-rule="evenodd" d="M5 9.73357L9.85714 12.5378L5 15.3421L5 9.73357ZM12.0476 11.4931L4.5 7.13549C3.83333 6.75059 3 7.23172 3 8.00152V17.0742C3 17.844 3.83333 18.3251 4.5 17.9402L12.0476 13.5826V17.0742C12.0476 17.844 12.881 18.3251 13.5476 17.9402L21.4048 13.4039C22.0714 13.019 22.0714 12.0567 21.4048 11.6718L13.5476 7.13548C12.881 6.75058 12.0476 7.23171 12.0476 8.00151V11.4931ZM14.0476 9.73356L18.9048 12.5378L14.0476 15.3421V9.73356Z" fill="black"/>
</svg>
