<svg width="24" height="24" viewBox="0 0 24 24" fill="none" xmlns="http://www.w3.org/2000/svg">
<path d="M7 17.5V11.5C7 10.9477 7.44772 10.5 8 10.5H12H14H17H20C20.5523 10.5 21 10.9477 21 11.5V17.5C21 18.0523 20.5523 18.5 20 18.5H8C7.44772 18.5 7 18.0523 7 17.5Z" stroke="black" stroke-width="2" stroke-linecap="round" stroke-linejoin="round"/>
<path d="M20 10.5V8C20 7.44772 19.5523 7 19 7H13.3508C13.1237 7 12.9034 6.92272 12.7261 6.78087L10.7739 5.21913C10.5966 5.07728 10.3763 5 10.1492 5H4C3.44772 5 3 5.44772 3 6V17.5C3 18.0523 3.44772 18.5 4 18.5H8.5" stroke="black" stroke-width="2" stroke-linecap="round" stroke-linejoin="round"/>
</svg>
