<svg width="24" height="24" viewBox="0 0 24 24" fill="none" xmlns="http://www.w3.org/2000/svg">
<path d="M16.2 13.0182C16.2 13.0182 16.2 8.87273 16.2 7.49091M13.4 13.0182C13.4 13.0182 13.4 8.52586 13.4 5.07273M10.6 13.0182C10.6 13.0182 10.6 8.52586 10.6 5.07273M7.8 15.7818C7.8 15.7818 7.8 14.0628 7.8 11.0948M7.8 11.0948C7.8 9.71299 7.8 6.45454 7.8 5.07273C7.8 3.69091 10.6 3.69091 10.6 5.07273M7.8 11.0948C7.8 9.71299 5 9.71299 5 11.0948C5 12.4766 5 12.3273 5 17.8545C5 23.3818 19 23.3818 19 17.8545C19 12.3273 19 8.87273 19 7.49091C19 6.10909 16.2 6.10909 16.2 7.49091M16.2 7.49091C16.2 6.10909 16.2 6.3177 16.2 5.07273C16.2 3.82775 13.3921 3.91208 13.4 5.07273M13.4 5.07273C13.4 4.71399 13.4 4.36647 13.4 4.03637C13.4 2.65454 10.6 2.65454 10.6 4.03637C10.6 4.36647 10.6 4.71399 10.6 5.07273" stroke="black" stroke-width="1.75" stroke-linecap="round"/>
</svg>
