<svg width="24" height="24" viewBox="0 0 24 24" fill="none" xmlns="http://www.w3.org/2000/svg">
<path fill-rule="evenodd" clip-rule="evenodd" d="M8.60566 9.83622C8.20391 8.02832 10.2632 6.69256 11.7502 7.79654L18.8745 13.0858C20.2384 14.0984 19.7988 16.2427 18.1466 16.637L16.7718 16.9651L19.19 20.4274C19.5062 20.8802 19.3955 21.5036 18.9427 21.8198C18.49 22.1361 17.8665 22.0254 17.5503 21.5726L14.9995 17.9203L13.8791 19.1235C12.7816 20.3021 10.8124 19.7665 10.463 18.1944L8.60566 9.83622ZM17.6823 14.6916L10.558 9.40236L12.4154 17.7605L14.3791 15.6518L14.5849 15.4308L14.8788 15.3607L17.6823 14.6916Z" fill="black"/>
<path d="M12.0678 6.08734L14.3457 4.4108M4.6643 11.5361L6.94229 9.85955" stroke="black" stroke-width="2" stroke-linecap="round"/>
<path d="M12.0678 6.08734L14.3457 4.4108M4.6643 11.5361L6.94229 9.85955" stroke="black" stroke-width="2" stroke-linecap="round"/>
<path d="M3.99958 5.56264L6.5905 6.69716" stroke="black" stroke-width="2" stroke-linecap="round"/>
<path d="M8.84035 1.99999L9.15328 4.81105" stroke="black" stroke-width="2" stroke-linecap="round"/>
</svg>
