<svg width="24" height="24" viewBox="0 0 24 24" fill="none" xmlns="http://www.w3.org/2000/svg">
<path fill-rule="evenodd" clip-rule="evenodd" d="M5.5 3.5C4.39543 3.5 3.5 4.39543 3.5 5.5V18.5C3.5 19.6046 4.39543 20.5 5.5 20.5H18.5C19.6046 20.5 20.5 19.6046 20.5 18.5V5.5C20.5 4.39543 19.6046 3.5 18.5 3.5H5.5ZM6.84615 19C7.86576 19 8.69231 18.1735 8.69231 17.1539C8.69231 16.1343 7.86576 15.3077 6.84615 15.3077C5.82655 15.3077 5 16.1343 5 17.1539C5 18.1735 5.82655 19 6.84615 19ZM6.06028 11.1587C6.06028 10.7273 6.40997 10.3776 6.84134 10.3776C7.73184 10.3776 8.61363 10.553 9.43634 10.8938C10.2591 11.2346 11.0066 11.734 11.6363 12.3637C12.266 12.9934 12.7654 13.7409 13.1062 14.5637C13.447 15.3864 13.6224 16.2682 13.6224 17.1587C13.6224 17.59 13.2727 17.9397 12.8413 17.9397C12.41 17.9397 12.0603 17.59 12.0603 17.1587C12.0603 16.4733 11.9253 15.7947 11.663 15.1615C11.4007 14.5283 11.0163 13.9529 10.5317 13.4683C10.0471 12.9837 9.47173 12.5993 8.83854 12.337C8.20535 12.0747 7.5267 11.9397 6.84134 11.9397C6.40997 11.9397 6.06028 11.59 6.06028 11.1587ZM6.84613 6.21894C6.41476 6.21894 6.06507 6.56863 6.06507 7C6.06507 7.43137 6.41476 7.78106 6.84613 7.78106C8.07698 7.78106 9.29578 8.0235 10.4329 8.49453C11.5701 8.96555 12.6033 9.65595 13.4737 10.5263C14.344 11.3966 15.0344 12.4299 15.5055 13.567C15.9765 14.7042 16.2189 15.923 16.2189 17.1538C16.2189 17.5852 16.5686 17.9349 17 17.9349C17.4313 17.9349 17.781 17.5852 17.781 17.1538C17.781 15.7179 17.4982 14.2959 16.9487 12.9692C16.3991 11.6426 15.5937 10.4371 14.5783 9.4217C13.5629 8.4063 12.3574 7.60084 11.0307 7.05131C9.70406 6.50177 8.28212 6.21894 6.84613 6.21894Z" fill="black"/>
</svg>
