<svg width="24" height="24" viewBox="0 0 24 24" fill="none" xmlns="http://www.w3.org/2000/svg">
<path d="M14.5 13L16.5 16.5M14.5 13H16.5C17.0523 13 17.5 12.5523 17.5 12V6M14.5 13H13H8.5H7.11803C6.73926 13 6.393 12.786 6.22361 12.4472L3.72361 7.44721C3.39116 6.78231 3.87465 6 4.61803 6H8.5H13H17.5M16.5 16.5H6M16.5 16.5H17.5M17.5 6L18.2236 4.55279C18.393 4.214 18.7393 4 19.118 4H20.5" stroke="black" stroke-width="2" stroke-linecap="round"/>
<path d="M7 19C7 20.1046 6.10457 21 5 21C3.89543 21 3 20.1046 3 19C3 17.8954 3.89543 17 5 17C6.10457 17 7 17.8954 7 19Z" stroke="black" stroke-width="2"/>
<path d="M20 19C20 20.1046 19.1046 21 18 21C16.8954 21 16 20.1046 16 19C16 17.8954 16.8954 17 18 17C19.1046 17 20 17.8954 20 19Z" stroke="black" stroke-width="2"/>
</svg>
