<svg width="24" height="24" viewBox="0 0 24 24" fill="none" xmlns="http://www.w3.org/2000/svg">
<path d="M11.9836 3.6514C12.0992 3.39719 12.4603 3.39719 12.5758 3.6514L14.9142 8.79597C14.9613 8.89953 15.059 8.97097 15.172 8.98437L20.8065 9.65279C21.0904 9.68647 21.1958 10.0437 20.9758 10.2261L16.7665 13.7168C16.674 13.7935 16.6313 13.9149 16.6555 14.0326L17.8629 19.911C17.9203 20.1906 17.6155 20.4033 17.3729 20.2529L12.4512 17.2002C12.3461 17.135 12.2133 17.135 12.1083 17.2002L7.18655 20.2529C6.94398 20.4033 6.6391 20.1907 6.69652 19.9111L7.90382 14.0326C7.92799 13.9149 7.88532 13.7935 7.79285 13.7168L3.58363 10.2261C3.3636 10.0436 3.46908 9.68647 3.75294 9.65279L9.38735 8.98437C9.50031 8.97097 9.59805 8.89953 9.64512 8.79598L11.9836 3.6514Z" fill="black" stroke="black" stroke-width="1.62621" stroke-linejoin="round"/>
</svg>
