<svg width="24" height="24" viewBox="0 0 24 24" fill="none" xmlns="http://www.w3.org/2000/svg">
<path d="M14.4065 13.0466L14.5755 13.5552L15.1093 13.5083C15.1846 13.5017 15.2609 13.4983 15.3381 13.4983C16.8216 13.4983 18.0858 14.7787 18.0858 16.4363C18.0858 18.0939 16.8216 19.3743 15.3381 19.3743H5.91741C4.43397 19.3743 3.16971 18.0939 3.16971 16.4363C3.16971 14.9558 4.18408 13.7688 5.45666 13.5393L5.85617 13.4672L5.9813 13.0811C6.5911 11.1991 8.26611 9.88223 10.1996 9.88223C12.1212 9.88223 13.7874 11.1829 14.4065 13.0466Z" stroke="black" stroke-width="1.35601"/>
<path fill-rule="evenodd" clip-rule="evenodd" d="M10.8158 6.25572C10.5438 6.03735 10.1463 6.08083 9.92789 6.35282C9.70952 6.62482 9.75299 7.02234 10.025 7.24071L11.3445 8.30005C11.4496 8.1201 11.5692 7.94566 11.7036 7.77828C11.8379 7.61096 11.9823 7.45649 12.1352 7.31504L10.8158 6.25572ZM18.6898 12.5773C18.5848 12.7572 18.4652 12.9315 18.3308 13.0989C18.1965 13.2663 18.052 13.4208 17.899 13.5623L19.2182 14.6213C19.4902 14.8397 19.8877 14.7962 20.1061 14.5242C20.3245 14.2522 20.281 13.8547 20.009 13.6363L18.6898 12.5773Z" fill="black"/>
<path fill-rule="evenodd" clip-rule="evenodd" d="M21.5044 9.72929C21.5423 10.076 21.292 10.3879 20.9453 10.4258L19.2632 10.6097C19.2713 10.4016 19.2642 10.1903 19.2409 9.97697C19.2175 9.76359 19.1788 9.55563 19.1259 9.35409L20.8079 9.17013C21.1547 9.13221 21.4665 9.38255 21.5044 9.72929Z" fill="black"/>
<path fill-rule="evenodd" clip-rule="evenodd" d="M14.3076 3.9515C14.6543 3.91358 14.9662 4.16393 15.0041 4.51067L15.188 6.19272C14.9799 6.18461 14.7686 6.19172 14.5553 6.21505C14.3419 6.23838 14.1339 6.27714 13.9324 6.33008L13.7484 4.64799C13.7105 4.30125 13.9609 3.98942 14.3076 3.9515Z" fill="black"/>
<path fill-rule="evenodd" clip-rule="evenodd" d="M19.1029 5.34965C19.3749 5.56801 19.4184 5.96553 19.2 6.23753L18.1408 7.55688C17.9993 7.40397 17.8449 7.25957 17.6775 7.12524C17.5102 6.99085 17.3357 6.87121 17.1558 6.76613L18.215 5.44675C18.4334 5.17475 18.8309 5.13128 19.1029 5.34965Z" fill="black"/>
<path fill-rule="evenodd" clip-rule="evenodd" d="M11.7903 9.4692C12.1682 8.21357 13.2652 7.24189 14.6508 7.09035C16.5001 6.88811 18.1632 8.2233 18.3654 10.0726C18.5055 11.3537 17.9078 12.5454 16.9126 13.224C16.4412 12.9661 15.9058 12.8203 15.3382 12.8203C15.2411 12.8203 15.145 12.8246 15.05 12.833C15.0174 12.735 14.9823 12.6383 14.9447 12.543C15.0438 12.5463 15.1444 12.5426 15.2459 12.5315C16.4017 12.4051 17.2362 11.3657 17.1098 10.2099C16.9834 9.0541 15.9439 8.21961 14.7881 8.34601C13.8456 8.4491 13.1167 9.15938 12.9484 10.0448C12.59 9.80482 12.2015 9.61038 11.7903 9.4692Z" fill="black"/>
</svg>
