<svg width="24" height="24" viewBox="0 0 24 24" fill="none" xmlns="http://www.w3.org/2000/svg">
<circle cx="8" cy="3.5" r="1.75" fill="black" stroke="black" stroke-width="1.5"/>
<path d="M5 15.4118V8H6.21865H8.04871H9.99969H11V15.4118H9.99969H9L9.00015 22H7V15.4118H6.21865H5Z" fill="black"/>
<path d="M7 15.4118H6.21865H5V8L6.21865 8H8.04871L9.99969 8L11 8V15.4118H9.99969H9M7 15.4118V22H9.00015L9 15.4118M7 15.4118H9" stroke="black" stroke-width="1.5" stroke-linecap="round" stroke-linejoin="round"/>
<path d="M16 22V16.5H13.5L15.7186 8H18.2807L20.5 16.5H18V22H16Z" fill="black"/>
<path d="M16 16.5H18M16 16.5V22H18V16.5M16 16.5H13.5L15.7186 8H18.2807L20.5 16.5H18" stroke="black" stroke-width="1.5" stroke-linecap="round" stroke-linejoin="round"/>
<circle cx="17" cy="3.5" r="1.75" fill="black" stroke="black" stroke-width="1.5"/>
</svg>
