<svg xmlns="http://www.w3.org/2000/svg" width="20" height="20"><path fill="currentColor" stroke="currentColor" stroke-width="1.5" d="M10 2.686a7.315 7.315 0 1 1 0 14.629 7.315 7.315 0 0 1 0-14.63Zm.053 2.166A1.797 1.797 0 0 0 8.33 7.164l-1.45-.626-.132-.049a1.375 1.375 0 0 0-.957 2.575l1.997.86c.052.218.11.417.157.577l.021.068c.075.255.125.445.156.605l-1.44 2.548a1.376 1.376 0 0 0 2.393 1.354l.91-1.61.952 1.627a1.375 1.375 0 1 0 2.374-1.388l-1.489-2.544c.03-.167.08-.37.146-.633l.016-.065c.04-.153.084-.335.125-.53l2.083-.862a1.375 1.375 0 0 0-.918-2.588l-.133.047-1.347.558a1.797 1.797 0 0 0-1.74-2.236Z"/></svg>