<svg xmlns="http://www.w3.org/2000/svg" width="20" height="20"><path fill="currentColor" stroke="currentColor" stroke-width="1.5" d="M17.314 10a7.314 7.314 0 1 1-14.628 0 7.314 7.314 0 0 1 14.628 0ZM8.255 6.649c0 .179.026.351.075.515l-1.451-.626A1.375 1.375 0 0 0 5.79 9.063l1.996.86c.05.212.107.405.154.563l.005.015.02.068c.075.254.127.445.158.604l-1.442 2.549a1.375 1.375 0 0 0 2.394 1.354l.91-1.609.95 1.626a1.375 1.375 0 1 0 2.374-1.388l-1.487-2.544a9.22 9.22 0 0 1 .145-.633l.016-.065.004-.014c.038-.15.083-.327.124-.516l2.08-.862a1.375 1.375 0 1 0-1.051-2.54l-1.344.556a1.797 1.797 0 1 0-3.54-.438Z"/></svg>