<svg xmlns="http://www.w3.org/2000/svg" width="20" height="20"><g fill="none"><circle cx="10" cy="10" r="7.314" stroke="currentColor" stroke-width="1.5"/><path fill="currentColor" stroke="currentColor" stroke-width="1.5" d="M10.35 6.649a.297.297 0 1 1-.595 0 .297.297 0 0 1 .595 0Z"/><path fill="currentColor" d="M9.035 8.965h1.82c0 .733-.442 1.695-.442 2.511h-.882c0-.886-.496-1.735-.496-2.511Z"/><path stroke="currentColor" stroke-linecap="round" stroke-linejoin="round" stroke-width="1.5" d="M9.035 8.965h1.82m-1.82 0c0 .776.496 1.625.496 2.511m-.496-2.511-2.7-1.164m3.196 3.675L7.878 14.4m1.653-2.923h.882m0 0 1.71 2.923m-1.71-2.923c0-.816.441-1.778.441-2.511m0 0 2.812-1.164"/></g></svg>