<svg xmlns="http://www.w3.org/2000/svg" width="20" height="20"><g fill="none"><g stroke="currentColor" stroke-width="1.5" clip-path="url(#a)"><path d="M14.086 14.086C10.513 17.66 4.892 17.832 3.53 16.47 2.168 15.108 2.34 9.487 5.914 5.914 9.487 2.34 14.767 1.827 16.47 3.53c1.703 1.703 1.19 6.983-2.384 10.556Z"/><path stroke-linecap="round" stroke-linejoin="round" d="m12.72 7.28-.676.676M7.96 12.04l2.042-2.041m-2.042 2.04-1.021-1.02m1.021 1.02 1.022 1.022M7.961 12.04l-.685.685m4.768-4.768-1.022-1.021m1.022 1.021 1.021 1.022m-1.021-1.022-2.041 2.042m0 0-1.024-1.02m1.024 1.02 1.019 1.024m1.522-8.335s.34 1.703 1.703 3.065c1.362 1.362 3.065 1.703 3.065 1.703m-9.696 9.695s-.34-1.703-1.702-3.065c-1.363-1.362-3.065-1.702-3.065-1.702"/></g><defs><clipPath id="a"><path fill="currentColor" d="M0 20h20V0H0z"/></clipPath></defs></g></svg>