<svg xmlns="http://www.w3.org/2000/svg" width="20" height="20"><g fill="none"><circle cx="10" cy="10" r="7.314" stroke="currentColor" stroke-width="1.5"/><path fill="currentColor" fill-rule="evenodd" d="M13.896 12.4a.377.377 0 0 1-.044.54 5.856 5.856 0 0 1-3.742 1.344 5.86 5.86 0 0 1-3.875-1.457.377.377 0 0 1-.028-.541c.972-1.049 2.313-1.697 3.793-1.697 1.533 0 2.916.695 3.896 1.81Z" clip-rule="evenodd"/><path fill="currentColor" d="M8.208 7.699a1.12 1.12 0 1 1-2.24 0 1.12 1.12 0 0 1 2.24 0Zm5.824 0a1.12 1.12 0 1 1-2.24 0 1.12 1.12 0 0 1 2.24 0Z"/><path stroke="currentColor" stroke-linecap="round" stroke-linejoin="round" stroke-width="1.5" d="m6.532 6.093 2.175 1.415m4.681-1.442-2.049 1.297"/></g></svg>