<svg xmlns="http://www.w3.org/2000/svg" width="20" height="20"><g fill="none" stroke="currentColor" stroke-width="1.5"><path stroke-linecap="round" d="M10 7.535c.506 0 .928-.157 1.342-.312.761-.284 1.496-.558 2.681.171 1.83 1.127 1.83 2.334 1.83 4.034 0 1.858-1.376 4.536-2.859 5.541-.568.386-1.069.197-1.646-.02-.397-.15-.83-.313-1.348-.313-.518 0-.95.163-1.348.313-.576.217-1.075.405-1.644.02-1.482-1.005-2.862-3.683-2.862-5.54 0-1.7.169-3.02 1.771-4.035 1.037-.656 1.84-.404 2.667-.144.45.141.909.285 1.416.285Zm0 0c.06-.275-.483-3.019-2.605-4.974m5.192 6.45c.579.397 1.335 1.558 1.085 2.746"/><path d="M12.806 5.33c-.255.545-.719.956-1.194 1.201a2.196 2.196 0 0 1-.621.22.83.83 0 0 1-.175.014.834.834 0 0 1-.102-.144 2.196 2.196 0 0 1-.229-.618c-.115-.521-.097-1.14.159-1.686.26-.556.715-.972 1.176-1.216.23-.122.44-.19.605-.217a.655.655 0 0 1 .212-.007.654.654 0 0 1 .13.167c.084.143.167.35.22.603a2.71 2.71 0 0 1-.18 1.683Z"/></g></svg>