<svg xmlns="http://www.w3.org/2000/svg" width="20" height="20"><g fill="none" stroke="currentColor" stroke-width="1.5"><path stroke-linecap="round" d="M10 7.535c.506 0 .928-.157 1.342-.312.761-.284 1.496-.558 2.681.171 1.83 1.127 1.83 2.334 1.83 4.034 0 1.858-1.376 4.536-2.859 5.541-.568.386-1.069.197-1.646-.02-.397-.15-.83-.313-1.348-.313-.518 0-.95.163-1.348.313-.576.217-1.075.405-1.644.02-1.482-1.005-2.862-3.683-2.862-5.54 0-1.7.169-3.02 1.771-4.035 1.037-.656 1.84-.404 2.667-.144.45.141.909.285 1.416.285Zm0 0c.06-.275-.483-3.019-2.605-4.974m5.192 6.45c.579.397 1.335 1.558 1.085 2.746"/><path d="M12.638 2.875c-.025-.012.035.012.128.169.085.143.168.35.222.603.107.51.078 1.128-.182 1.683-.256.545-.719.956-1.194 1.201a2.2 2.2 0 0 1-.621.22.802.802 0 0 1-.176.013.82.82 0 0 1-.101-.142 2.203 2.203 0 0 1-.228-.618c-.116-.522-.098-1.141.157-1.686.26-.556.717-.973 1.178-1.218.229-.12.44-.19.604-.216.18-.028.237.002.213-.009Z"/></g></svg>