<svg xmlns="http://www.w3.org/2000/svg" width="20" height="20"><g fill="currentColor"><path fill-rule="evenodd" d="M7.847 4.174c-.229.27-.27.616-.27.991v.444a.363.363 0 0 1-.363.364h-.888a.364.364 0 0 1-.363-.364v-.444c0-.431.025-1.297.654-2.036.643-.758 1.746-1.193 3.45-1.193 1.763 0 2.837.573 3.425 1.398.545.765.546 1.584.546 1.82v.454a.363.363 0 0 1-.363.364l-.887.002a.364.364 0 0 1-.364-.363l-.001-.444c0-.183-.008-.561-.246-.896-.203-.285-.71-.72-2.11-.72-1.46 0-2.006.372-2.22.623Z" clip-rule="evenodd"/><path stroke="currentColor" stroke-linecap="round" stroke-width="1.5" d="m4.033 15.067-.856-4.921a2.183 2.183 0 0 1 2.15-2.557h9.455a2.182 2.182 0 0 1 2.164 2.465l-.642 4.92a2.183 2.183 0 0 1-2.164 1.901H6.183a2.183 2.183 0 0 1-2.15-1.808Z"/><path fill-rule="evenodd" d="M13.455 7.185c.322 0 .582.261.582.582v1.259c0 .321-.26.582-.582.582h-.45a.582.582 0 0 1-.583-.582V7.767c0-.32.26-.582.582-.582h.451Zm-6.459 0c.321 0 .582.261.582.582v1.259a.583.583 0 0 1-.582.582h-.451a.582.582 0 0 1-.582-.582V7.767c0-.32.26-.582.582-.582h.45Z" clip-rule="evenodd"/></g></svg>