<svg xmlns="http://www.w3.org/2000/svg" width="20" height="20"><g fill="none"><path stroke="currentColor" stroke-linecap="round" stroke-linejoin="round" stroke-width="1.5" d="M15 6.25H3.333a.417.417 0 0 0-.416.417v6.666c0 .23.186.417.416.417H15c.23 0 .417-.187.417-.417v-.952c0-.23.186-.417.416-.417h.834c.23 0 .416-.186.416-.416V8.095a.417.417 0 0 0-.416-.416h-.834a.417.417 0 0 1-.416-.417v-.595A.417.417 0 0 0 15 6.25Z"/><path fill="currentColor" d="M4.583 8.75c0-.46.373-.833.834-.833h.833c.46 0 .833.373.833.833v2.5c0 .46-.373.833-.833.833h-.833a.833.833 0 0 1-.834-.833v-2.5Zm3.334 0c0-.46.373-.833.833-.833h.833c.46 0 .834.373.834.833v2.5c0 .46-.373.833-.834.833H8.75a.833.833 0 0 1-.833-.833v-2.5Z"/></g></svg>