<svg xmlns="http://www.w3.org/2000/svg" width="20" height="20"><g fill="none"><path stroke="currentColor" stroke-linecap="round" stroke-linejoin="round" stroke-width="1.5" d="M15 6.25H3.333a.417.417 0 0 0-.416.417v6.666c0 .23.186.417.416.417H15c.23 0 .417-.187.417-.417v-.952c0-.23.186-.417.416-.417h.834c.23 0 .416-.186.416-.416V8.095a.417.417 0 0 0-.416-.416h-.834a.417.417 0 0 1-.416-.417v-.595A.417.417 0 0 0 15 6.25ZM9.167 8.333V10"/><path fill="currentColor" d="M9.792 11.875a.625.625 0 1 1-1.25 0 .625.625 0 0 1 1.25 0Z"/></g></svg>