<svg xmlns="http://www.w3.org/2000/svg" width="20" height="20"><path fill="currentColor" d="M1.936 3.007c0-.592.48-1.071 1.071-1.071h2.465c.592 0 1.072.48 1.072 1.071v2.465c0 .592-.48 1.072-1.072 1.072H3.007c-.592 0-1.071-.48-1.071-1.072V3.007Zm0 5.76c0-.591.48-1.071 1.071-1.071h2.465c.592 0 1.072.48 1.072 1.071v2.466c0 .591-.48 1.071-1.072 1.071H3.007c-.592 0-1.071-.48-1.071-1.071V8.767Zm0 5.76c0-.591.48-1.07 1.071-1.07h2.465c.592 0 1.072.479 1.072 1.07v2.466c0 .592-.48 1.071-1.072 1.071H3.007c-.592 0-1.071-.48-1.071-1.071v-2.465Zm5.76-11.52c0-.592.48-1.071 1.071-1.071h2.466c.592 0 1.071.48 1.071 1.071v2.465c0 .592-.48 1.072-1.071 1.072H8.767c-.591 0-1.071-.48-1.071-1.072V3.007Zm5.76 0c0-.592.48-1.071 1.072-1.071h2.465c.592 0 1.071.48 1.071 1.071v2.465c0 .592-.48 1.072-1.071 1.072h-2.465c-.592 0-1.072-.48-1.072-1.072V3.007Zm-5.76 5.76c0-.591.48-1.071 1.071-1.071h2.466c.592 0 1.071.48 1.071 1.071v2.466c0 .591-.48 1.071-1.071 1.071H8.767c-.591 0-1.071-.48-1.071-1.071V8.767Zm0 5.76c0-.591.48-1.07 1.071-1.07h2.466a1.07 1.07 0 0 1 1.071 1.07v2.466c0 .592-.48 1.071-1.071 1.071H8.767c-.591 0-1.071-.48-1.071-1.071v-2.465Zm5.76-5.76c0-.591.48-1.071 1.072-1.071h2.465c.592 0 1.071.48 1.071 1.071v2.466c0 .591-.48 1.071-1.071 1.071h-2.465c-.592 0-1.072-.48-1.072-1.071V8.767Zm0 5.76c0-.591.48-1.07 1.072-1.07h2.465a1.07 1.07 0 0 1 1.071 1.07v2.466c0 .592-.48 1.071-1.071 1.071h-2.465c-.592 0-1.072-.48-1.072-1.071v-2.465Z"/></svg>