<svg xmlns="http://www.w3.org/2000/svg" width="20" height="20"><path fill="none" stroke="currentColor" stroke-linecap="round" stroke-width="1.5" d="M11.299 12.127H8.526a.393.393 0 0 1-.374-.258 18.377 18.377 0 0 1-.456-1.52c-.328-1.26-1.488-2.43-1.109-3.677.432-1.422 1.765-2.101 3.326-2.101 1.56 0 2.893.68 3.325 2.101.379 1.247-.78 2.418-1.108 3.677a18.37 18.37 0 0 1-.457 1.52.393.393 0 0 1-.374.258Zm-.386 1.512H9.1a.417.417 0 0 0-.416.417v.907c0 .12.05.232.14.312l.591.526a.417.417 0 0 0 .277.105h.708c.11 0 .217-.044.295-.122l.511-.512a.416.416 0 0 0 .122-.294v-.922a.417.417 0 0 0-.416-.417Zm5.045-6.144h1.511M15.203 4.85l1.133-.756m-1.133 6.046 1.133.755m-12.469-3.4H2.356M4.623 4.85l-1.134-.756m1.134 6.046-1.134.755"/></svg>