<svg xmlns="http://www.w3.org/2000/svg" width="20" height="20"><path fill="none" stroke="currentColor" stroke-linecap="round" stroke-width="1.5" d="M11.725 12.328h-3.45a.395.395 0 0 1-.375-.258 21.609 21.609 0 0 1-.568-1.882c-.395-1.517-1.79-2.926-1.334-4.426.52-1.711 2.124-2.53 4.002-2.53 1.878 0 3.482.819 4.002 2.53.456 1.5-.939 2.91-1.334 4.426a21.63 21.63 0 0 1-.568 1.882.395.395 0 0 1-.375.258Zm-.436 1.819h-2.35a.417.417 0 0 0-.417.416v1.216c0 .119.05.232.14.311l.765.68a.417.417 0 0 0 .277.105h.92c.11 0 .216-.044.294-.122l.665-.665a.417.417 0 0 0 .122-.295v-1.23a.417.417 0 0 0-.416-.416Z"/></svg>