<svg xmlns="http://www.w3.org/2000/svg" width="20" height="20"><g fill="none" stroke="currentColor" stroke-width="1.5"><path d="M5.77 2.808h8.46c.507 0 .917.411.917.917v12.673c0 .506-.41.916-.916.916H5.77a.917.917 0 0 1-.917-.916V3.725c0-.506.41-.917.917-.917Z"/><path stroke-linecap="round" d="M10 9.219H7.885a.833.833 0 0 0-.833.833v2.115M10 9.22h2.115c.46 0 .834.373.834.833v2.115M10 9.22v5.897m0 0h2.115c.46 0 .834-.373.834-.833v-2.116M10 15.116H7.885a.833.833 0 0 1-.833-.833v-2.116m0 0h5.897"/><path d="M7.473 5.335h5.055c.05 0 .091.042.091.093v1.685c0 .05-.04.092-.091.093H7.473a.093.093 0 0 1-.093-.093V5.428c0-.05.042-.093.093-.093Z"/></g></svg>