<svg xmlns="http://www.w3.org/2000/svg" width="20" height="20"><g fill="none" stroke="currentColor" stroke-width="1.5"><path d="M4.853 3.725c0-.506.41-.917.917-.917h8.46c.507 0 .917.41.917.917v12.673c0 .506-.41.916-.917.916H5.77a.917.917 0 0 1-.917-.916V3.725Z"/><path stroke-linecap="round" d="M10 9.219H7.885a.833.833 0 0 0-.833.833v2.115M10 9.22h2.115c.46 0 .834.373.834.833v2.115M10 9.22v5.897m0 0h2.115c.46 0 .834-.373.834-.833v-2.116M10 15.116H7.885a.833.833 0 0 1-.833-.833v-2.116m0 0h5.897"/><path d="M7.38 5.428c0-.051.042-.093.093-.093h5.054c.051 0 .093.042.093.093v1.685a.092.092 0 0 1-.093.092H7.473a.092.092 0 0 1-.093-.092V5.428Z"/></g></svg>