<svg xmlns="http://www.w3.org/2000/svg" width="20" height="20"><g fill="none" stroke="currentColor" stroke-width="1.5"><circle cx="6.75" cy="13.715" r="1.572"/><circle cx="13.25" cy="13.715" r="1.572"/><path stroke-linecap="round" d="M4.428 13.25v0a1.857 1.857 0 0 1-1.858-1.857v-.464a2.322 2.322 0 0 1 2.322-2.322h10.216a2.322 2.322 0 0 1 2.321 2.322v0a2.322 2.322 0 0 1-2.321 2.322v0M8.143 3.964v4.643m0-4.643H6.285c-.928 0-1.585.508-1.98 1.467-.395.959-.341 3.176-.341 3.176h4.179m0-4.643H10c.929 0 1.564.92 1.762 1.467.56 1.55.56 3.176.56 3.176h-4.18"/><path d="M8.607 13.715h2.786"/></g></svg>