<svg xmlns="http://www.w3.org/2000/svg" width="20" height="20"><g fill="none"><path stroke="currentColor" stroke-linecap="round" stroke-linejoin="round" stroke-width="1.5" d="m3.4 13.974 4.8-5.999 4 3.2 4.4-5.2"/><circle cx="8.2" cy="7.575" r="1.6" fill="currentColor"/><path fill="currentColor" d="M13.65 11.625a1.6 1.6 0 1 1-3.2 0 1.6 1.6 0 0 1 3.2 0Z"/><circle cx="3.401" cy="13.974" r="1.6" fill="currentColor"/><path fill="currentColor" d="M18.199 6.026a1.6 1.6 0 1 1-3.2 0 1.6 1.6 0 0 1 3.2 0ZM13.8 11.575a1.6 1.6 0 1 1-3.2 0 1.6 1.6 0 0 1 3.2 0Z"/></g></svg>