<svg xmlns="http://www.w3.org/2000/svg" width="20" height="20"><g fill="none"><path stroke="currentColor" stroke-linecap="round" stroke-linejoin="round" stroke-width="1.5" d="m16.6 13.975-4.8-6-4 3.2-4.4-5.2"/><circle cx="1.6" cy="1.6" r="1.6" fill="currentColor" transform="matrix(-1 0 0 1 13.4 5.975)"/><path fill="currentColor" d="M6.35 11.625a1.6 1.6 0 1 0 3.2 0 1.6 1.6 0 0 0-3.2 0Z"/><circle cx="1.6" cy="1.6" r="1.6" fill="currentColor" transform="matrix(-1 0 0 1 18.2 12.375)"/><path fill="currentColor" d="M1.8 6.025a1.6 1.6 0 1 0 3.2 0 1.6 1.6 0 0 0-3.2 0Zm4.4 5.55a1.6 1.6 0 1 0 3.2 0 1.6 1.6 0 0 0-3.2 0Z"/></g></svg>