<svg xmlns="http://www.w3.org/2000/svg" width="20" height="20"><g fill="currentColor"><path fill-rule="evenodd" d="M13.24 5.739a.729.729 0 0 1 1.037-.03L17.76 9.04a1.28 1.28 0 0 1 0 1.843l-3.482 3.333a.73.73 0 0 1-1.009-1.053l2.776-2.664a.745.745 0 0 0 0-1.075L13.269 6.76a.73.73 0 0 1-.029-1.022Zm-6.83 8.447a.73.73 0 0 1-1.038.03l-3.481-3.332a1.28 1.28 0 0 1 0-1.843l3.481-3.333a.729.729 0 0 1 1.01 1.053L3.605 9.425a.745.745 0 0 0 0 1.075l2.775 2.664c.287.276.3.73.03 1.022Z" clip-rule="evenodd"/><path d="M10.749 3.133a.417.417 0 0 1 .504-.305l.81.2a.417.417 0 0 1 .304.505L9.25 16.147a.417.417 0 0 1-.504.304l-.81-.2a.417.417 0 0 1-.304-.504L10.75 3.133Z"/></g></svg>