<svg xmlns="http://www.w3.org/2000/svg" width="20" height="20"><g fill="none"><path stroke="currentColor" stroke-linecap="round" stroke-width="1.5" d="M10.177 4.353H3.845c-.69 0-1.25.56-1.25 1.25V16.1c0 .69.56 1.25 1.25 1.25h10.497c.69 0 1.25-.56 1.25-1.25v-5.248"/><path fill="currentColor" fill-rule="evenodd" d="M18.029 3.15a.833.833 0 1 0-1.179-1.18l-.323.323a.833.833 0 1 0 1.18 1.179l.322-.323Zm-2.385 1.207a.833.833 0 0 1 0 1.178l-8.182 8.184a.833.833 0 0 1-1.179-1.179l8.182-8.183a.833.833 0 0 1 1.179 0Z" clip-rule="evenodd"/></g></svg>