<svg xmlns="http://www.w3.org/2000/svg" width="20" height="20"><path fill="currentColor" fill-rule="evenodd" d="M17.924 4.37a.791.791 0 0 1-.21 1.107L11.023 10l6.69 4.523a.791.791 0 0 1 .21 1.108.812.812 0 0 1-1.121.207l-7.196-4.866-2.12 1.497c.06.23.094.47.094.719 0 1.54-1.264 2.79-2.823 2.79s-2.822-1.25-2.822-2.79 1.263-2.79 2.822-2.79c.723 0 1.382.269 1.881.71L8.21 10 6.64 8.892a2.83 2.83 0 0 1-1.88.71c-1.56 0-2.823-1.25-2.823-2.79s1.263-2.79 2.822-2.79c1.559 0 2.823 1.25 2.823 2.79 0 .248-.033.49-.095.719l2.12 1.497 7.197-4.866a.812.812 0 0 1 1.12.207ZM10.404 10c0 .44-.362.797-.807.797A.802.802 0 0 1 8.79 10c0-.44.361-.797.807-.797.445 0 .806.357.806.797Zm-6.855 3.188c0 .66.541 1.195 1.21 1.195.667 0 1.209-.535 1.209-1.195s-.542-1.196-1.21-1.196c-.668 0-1.21.536-1.21 1.196Zm0-6.376c0 .66.541 1.195 1.21 1.195.667 0 1.209-.535 1.209-1.195s-.542-1.196-1.21-1.196c-.668 0-1.21.536-1.21 1.196Z" clip-rule="evenodd"/></svg>