<svg xmlns="http://www.w3.org/2000/svg" width="20" height="20"><g fill="none"><path fill="currentColor" d="M3.153 5.219c4.393-3.34 9.828-3.288 13.735.089a.766.766 0 0 1 .049 1.097L15.164 8.36a.806.806 0 0 1-.921.196l-1.14-.5a.806.806 0 0 1-.451-.955l.446-1.6a.806.806 0 0 0-.767-1.022l-4.698-.051a.806.806 0 0 0-.793.996l.412 1.698a.806.806 0 0 1-.455.926l-1.132.504a.806.806 0 0 1-.946-.218L3.043 6.332a.772.772 0 0 1 .11-1.113Z"/><path stroke="currentColor" stroke-linecap="round" stroke-linejoin="round" stroke-width="1.5" d="M3.153 5.219c4.393-3.34 9.828-3.288 13.735.089a.766.766 0 0 1 .049 1.097L15.164 8.36a.806.806 0 0 1-.921.196l-1.14-.5a.806.806 0 0 1-.451-.955l.446-1.6a.806.806 0 0 0-.767-1.022l-4.698-.051a.806.806 0 0 0-.793.996l.412 1.698a.806.806 0 0 1-.455.926l-1.132.504a.806.806 0 0 1-.946-.218L3.043 6.332a.772.772 0 0 1 .11-1.113Z"/><circle cx="10.271" cy="13.365" r="1.911" stroke="currentColor" stroke-width="1.5"/><path stroke="currentColor" stroke-linecap="round" stroke-linejoin="round" stroke-width="1.5" d="M10.846 9.478H9.354c-.58 0-2.383-.101-2.773 1.071l-1.322 4.298c-.36 1.103.166 2.408 1.402 2.408h7.232c1.263 0 1.762-1.278 1.37-2.46l-1.685-4.246c-.391-1.071-2.174-1.071-2.732-1.071Z"/></g></svg>