<svg xmlns="http://www.w3.org/2000/svg" width="20" height="20"><g fill="none"><path fill="currentColor" d="M8.324 11.851 6.994 6.34h1.33l.185 1.53.48 3.981h-.665Z"/><path stroke="currentColor" stroke-linecap="round" stroke-linejoin="round" stroke-width="1.5" d="m16.638 14.951-1.663 1.033-1.995-4.133H8.99m0 0h-.666L6.994 6.34h1.33l.185 1.53m.48 3.981-.48-3.98m0 0h2.936"/><path fill="currentColor" fill-rule="evenodd" d="M13.044 15.12c-.3-.298-.815-.193-1.062.15a3.7 3.7 0 1 1-5.599-4.795c.195-.19.29-.469.212-.73-.124-.415-.612-.596-.934-.306a4.95 4.95 0 1 0 7.47 6.365.547.547 0 0 0-.087-.683Z" clip-rule="evenodd"/><path fill="currentColor" stroke="currentColor" stroke-width="1.5" d="M8.47 3.42a.734.734 0 1 1-1.468 0 .734.734 0 0 1 1.467 0Z"/></g></svg>