<svg xmlns="http://www.w3.org/2000/svg" width="20" height="20"><g fill="none"><path stroke="currentColor" stroke-width="1.5" d="M6.709 2.787h6.656c.966 0 1.75.784 1.75 1.75v11.027a1.75 1.75 0 0 1-1.75 1.75H6.709a1.75 1.75 0 0 1-1.75-1.75V4.537c0-.966.783-1.75 1.75-1.75Z"/><path stroke="currentColor" stroke-linecap="round" stroke-width="1.5" d="M4.937 7.137h10.2"/><path fill="currentColor" d="M6.394 4.951c0-.402.326-.728.729-.728h5.828a.728.728 0 1 1 0 1.457H7.123a.729.729 0 0 1-.729-.729Z"/></g></svg>