<svg xmlns="http://www.w3.org/2000/svg" width="20" height="20"><g fill="none" stroke="currentColor" stroke-width="1.5"><path stroke-linecap="round" stroke-linejoin="round" d="m5.957 9.135-.807 3.027m.807-3.027 3.632 1.297M5.957 9.135H5.15l-.807 3.027h.807m0 0 2.22-.865 3.026 2.162"/><path stroke-linecap="round" stroke-linejoin="round" d="m14.228 11.934-3.804 1.525H4.31m0 0H2.613v1.73l1.698-1.73Z"/><path stroke-linecap="round" stroke-linejoin="round" d="M14.651 12.38a1.724 1.724 0 0 0 1.871.092m-1.87-.092a1.727 1.727 0 0 1-.613-2.019m.612 2.02 1.439 2.484.432-2.393m0 0a1.729 1.729 0 1 0-2.483-2.111m0 0-2.273-1.117V7.947"/><path fill="currentColor" d="M7.051 6.109a.547.547 0 1 1-1.094 0 .547.547 0 0 1 1.094 0Z"/><path stroke-linecap="round" stroke-linejoin="round" d="M4.343 12.594h.864"/><path fill="currentColor" stroke-linecap="round" stroke-linejoin="round" d="M5.207 13.178v-.724h-.864v.723h.864Z"/></g></svg>