<svg xmlns="http://www.w3.org/2000/svg" width="20" height="20"><g fill="none" stroke="currentColor" stroke-width="1.5"><path d="M2.686 8.101c0-.966.783-1.75 1.75-1.75h11.129c.966 0 1.75.784 1.75 1.75V11.9a1.75 1.75 0 0 1-1.75 1.75H4.434a1.75 1.75 0 0 1-1.75-1.75V8.1Z"/><path stroke-linecap="round" d="M6.297 8.354H4.892a.167.167 0 0 0-.166.167v1.666m1.57 1.833H4.893a.167.167 0 0 1-.166-.167v-1.666m0 0h1.57m3.928-1.833-2.75 3.666m0-3.666 2.75 3.666m1.178-3.666v3.666m1.179-3.666h1.57m1.572 0h-1.571m0 0v3.666"/></g></svg>