<svg xmlns="http://www.w3.org/2000/svg" width="20" height="20"><path fill="currentColor" d="m2.86 15.848-.697-.279a.75.75 0 0 0 .406.97l.29-.691Zm14.28 0 .291.691a.75.75 0 0 0 .402-.98l-.692.289ZM6.43 7.517l.583-.471a.75.75 0 0 0-1.23.09l.647.381Zm2.38 4.582-.717.221a.75.75 0 0 0 1.438-.015l-.721-.206ZM10 3.352l-.67.335.67-.335ZM7.62 9.183l-.648.378.648-.378Zm6.347 0 .65-.374-.65.374Zm-2.182 2.261.66-.355a.75.75 0 0 0-1.386.17l.726.185Zm-4.91 2.38.7-.271a.75.75 0 0 0-1.331-.132l.632.404Zm1.095 2.81-.036.75.036-.75ZM6.43 7.517l-.584.471.002.002.006.008.024.03a18.845 18.845 0 0 1 .395.511c.243.326.52.714.699 1.022l1.296-.755a13.227 13.227 0 0 0-.795-1.166 24.284 24.284 0 0 0-.45-.582l-.007-.009-.002-.002v-.001h-.001l-.583.471Zm.542 2.044c.273.469.552 1.146.77 1.736a23.928 23.928 0 0 1 .346 1.005l.004.015.001.003.717-.221.716-.222v-.002l-.002-.005-.005-.017a10.508 10.508 0 0 0-.097-.298c-.065-.197-.16-.47-.273-.778-.223-.603-.539-1.384-.881-1.971l-1.296.755Zm2.559 2.744c.424-1.483.41-.884 1.199-4.198L9.27 7.76c-.797 3.35-.675 2.362-1.181 4.133l1.442.412Zm1.199-4.198c.397-1.668.542-2.673.494-3.406-.051-.791-.335-1.249-.553-1.685l-1.342.671c.258.516.37.683.399 1.112.031.486-.061 1.297-.458 2.96l1.46.348Zm-.06-5.09a.19.19 0 0 1 .017.034c.003.01.027.065.04.143a.748.748 0 0 1-1.118.77c-.061-.037-.101-.073-.11-.08a.503.503 0 0 1-.025-.025l.007.008c.042.05.128.16.255.329.248.33.616.841 1.036 1.443.843 1.207 1.873 2.75 2.545 3.918l1.3-.748c-.706-1.227-1.766-2.812-2.615-4.029a59.304 59.304 0 0 0-1.065-1.483 9.494 9.494 0 0 0-.312-.4 1.665 1.665 0 0 0-.067-.075c-.003-.003-.075-.083-.179-.145a.752.752 0 0 0-1.13.777c.024.129.08.232.08.233l1.342-.67Zm2.647 6.54c.697 1.213 1.479 2.851 2.091 4.202a101.183 101.183 0 0 1 1.021 2.332l.015.034.003.009a.016.016 0 0 0 .001.002l.693-.288.692-.289-.002-.003-.003-.01a36.111 36.111 0 0 0-.074-.175l-.219-.511c-.187-.434-.451-1.038-.76-1.72-.617-1.359-1.422-3.053-2.158-4.33l-1.3.747Zm-10.458 6.29.697.28v-.002l.001-.003.005-.013.021-.052.084-.207.334-.83c.297-.735.743-1.835 1.338-3.292L3.95 11.16a1024.363 1024.363 0 0 0-1.675 4.129l-.084.209-.021.053-.005.013-.002.003v.001l.696.279Zm2.48-4.12a54.408 54.408 0 0 1 1.32-3.014 19.086 19.086 0 0 1 .415-.811l.003-.006a.009.009 0 0 0 0 .001l-.647-.38-.647-.38-.001.002-.003.005a2.125 2.125 0 0 0-.032.057 20.558 20.558 0 0 0-.439.86 55.89 55.89 0 0 0-1.358 3.1l1.389.567ZM10 17.432c.154 0 .305 0 .453-.002l-.014-1.5-.439.002v1.5Zm1.173-.566 1.339-5.235-1.454-.372-1.338 5.235 1.453.372Zm-.72.564c1.711-.017 3.065-.124 4.107-.26l-.194-1.487c-.978.127-2.271.231-3.927.247l.014 1.5Zm4.107-.26a17.266 17.266 0 0 0 2.14-.399 8.038 8.038 0 0 0 .668-.206l.041-.016.013-.005.005-.002.002-.001h.001l-.29-.692-.29-.692h.003l.001-.001-.016.006a6.587 6.587 0 0 1-.52.158c-.4.106-1.039.244-1.952.363l.194 1.487Zm-3.436-5.37 2.678 4.982 1.322-.71-2.678-4.982-1.322.71ZM2.86 15.849a145.282 145.282 0 0 0-.29.692h.003l.005.003.012.005a2.582 2.582 0 0 0 .164.06c.109.037.265.086.474.143a16.36 16.36 0 0 0 1.906.376l.213-1.484a14.665 14.665 0 0 1-1.728-.34 6.163 6.163 0 0 1-.459-.143l-.013-.005h.002l.001.001-.29.692Zm3.012.94 1.637-2.56-1.264-.807-1.636 2.56 1.263.808Zm-.738.34a30.33 30.33 0 0 0 2.8.255l.073-1.498a28.44 28.44 0 0 1-2.66-.242l-.213 1.484Zm2.8.255c.627.03 1.314.048 2.067.048v-1.5c-.73 0-1.393-.017-1.994-.046l-.072 1.498Zm-1.756-3.286 1.094 2.81 1.397-.545-1.093-2.81-1.398.545Z"/></svg>