<svg xmlns="http://www.w3.org/2000/svg" width="20" height="20"><path fill="currentColor" fill-rule="evenodd" d="m6.905 7.368.003.004.007.01.028.034a20.352 20.352 0 0 1 .434.562c.256.342.583.798.813 1.192.193.331.377.722.543 1.11.121-.428.288-1.076.554-2.193.407-1.709.503-2.546.47-3.051-.025-.392-.12-.578-.32-.97l-.093-.186a.845.845 0 0 1-.077-.229.735.735 0 0 1 1.104-.76.82.82 0 0 1 .174.142h.001l.068.076c.076.09.187.235.318.41.268.356.656.895 1.093 1.521.872 1.249 1.96 2.876 2.683 4.134.755 1.31 1.581 3.048 2.214 4.443a106.273 106.273 0 0 1 1.005 2.29l.06.142.02.05-.676.283.677-.282a.733.733 0 0 1-.393.958l-.284-.676.284.676h-.002l-.002.001-.005.002-.013.006a2.61 2.61 0 0 1-.185.067 8.213 8.213 0 0 1-.54.16c-.477.124-1.195.279-2.192.408-1.068.139-2.456.25-4.21.266a47.255 47.255 0 0 1-2.586-.046 30.695 30.695 0 0 1-2.871-.263 16.527 16.527 0 0 1-1.953-.386 7.798 7.798 0 0 1-.65-.207l-.013-.005-.005-.002h-.001l-.002-.001.284-.676-.284.676a.733.733 0 0 1-.397-.948l.115-.287.344-.854c.306-.756.765-1.887 1.376-3.385a57.33 57.33 0 0 1 1.393-3.18 21.064 21.064 0 0 1 .475-.927l.008-.013.002-.004v-.002h.001l.633.37-.633-.37a.734.734 0 0 1 1.203-.09Zm-2.153 8.768 1.423-2.226a.733.733 0 0 1 1.3.129l.95 2.438a38.809 38.809 0 0 1-1.61-.093l-.182-.468-.273.427a25.183 25.183 0 0 1-1.608-.207Zm5.136.368 1.235-4.825a.733.733 0 0 1 1.356-.165l2.507 4.664a26.768 26.768 0 0 1-1.564.186l-1.345-2.5-.67 2.618a43.702 43.702 0 0 1-1.407.022h-.112Z" clip-rule="evenodd"/></svg>