<svg xmlns="http://www.w3.org/2000/svg" width="20" height="20"><g fill="none"><path fill="currentColor" d="M7.684 4.68c-2.315 0-4.052-1.014-4.052-1.014v7.094s2.342 1.5 4.052 1.2c1.826-.322 2.316-.98 4.053-.98 1.736 0 2.671.49 4.63 1.3v-7.6c-1.469-.558-2.894-1.014-4.63-1.014-1.517 0-2.502 1.013-4.053 1.013Z"/><path stroke="currentColor" stroke-linecap="round" stroke-linejoin="round" stroke-width="1.5" d="M3.632 3.666S5.37 4.679 7.684 4.679c1.551 0 2.536-1.013 4.053-1.013 1.736 0 3.161.456 4.63 1.013v7.601c-1.959-.81-2.894-1.3-4.63-1.3-1.737 0-2.227.658-4.053.98-1.71.3-4.052-1.2-4.052-1.2m0-7.094v7.094m0-7.094V2.653m0 14.695V10.76"/></g></svg>