<svg xmlns="http://www.w3.org/2000/svg" width="20" height="20"><path fill="currentColor" d="M1.936 2.769c0-.46.373-.833.833-.833h5.39c.46 0 .833.373.833.833v5.39c0 .46-.373.833-.833.833h-5.39a.833.833 0 0 1-.833-.833v-5.39Zm0 9.072c0-.46.373-.833.833-.833h5.39c.46 0 .833.373.833.833v5.39c0 .46-.373.833-.833.833h-5.39a.833.833 0 0 1-.833-.833v-5.39Zm9.072-9.072c0-.46.373-.833.833-.833h5.39c.46 0 .833.373.833.833v5.39c0 .46-.373.833-.833.833h-5.39a.833.833 0 0 1-.833-.833v-5.39Zm0 9.072c0-.46.373-.833.833-.833h5.39c.46 0 .833.373.833.833v5.39c0 .46-.373.833-.833.833h-5.39a.833.833 0 0 1-.833-.833v-5.39Z"/></svg>