<svg xmlns="http://www.w3.org/2000/svg" width="20" height="20"><g fill="none"><path stroke="currentColor" stroke-width="1.5" d="M9.605 3.522c1.713 0 3.204 1.16 3.76 2.83l.187.563.59-.051c.066-.006.133-.01.2-.01 1.292 0 2.408 1.12 2.408 2.585 0 1.465-1.116 2.583-2.408 2.583H5.658c-1.292 0-2.408-1.118-2.408-2.583 0-1.308.895-2.348 2.005-2.548l.442-.08.139-.427c.547-1.688 2.047-2.862 3.77-2.862Z"/><path fill="currentColor" d="M5.393 14.346c.01-.113.104-.2.218-.2h1.252c.127 0 .228.11.217.237l-.107 1.253a.218.218 0 0 1-.217.2H5.504a.218.218 0 0 1-.217-.237l.106-1.253Z"/><path fill="currentColor" d="M5.393 14.346c.01-.113.104-.2.218-.2h1.252c.127 0 .228.11.217.237l-.107 1.253a.218.218 0 0 1-.217.2H5.504a.218.218 0 0 1-.217-.237l.106-1.253Zm3.817 0c.01-.113.104-.2.217-.2h1.252c.128 0 .229.11.218.237l-.107 1.253a.218.218 0 0 1-.217.2H9.32a.218.218 0 0 1-.218-.237l.107-1.253Zm3.447 0c.01-.113.104-.2.218-.2h1.252c.127 0 .228.11.217.237l-.107 1.253a.218.218 0 0 1-.217.2h-1.252a.218.218 0 0 1-.218-.237l.107-1.253Zm-1.613 3.064c.01-.113.104-.2.217-.2h1.252c.128 0 .228.11.217.237l-.106 1.253a.218.218 0 0 1-.218.2h-1.252a.218.218 0 0 1-.217-.237l.107-1.253Zm-3.817 0c.01-.113.104-.2.217-.2h1.252c.128 0 .229.11.218.237L8.807 18.7a.218.218 0 0 1-.217.2H7.338a.218.218 0 0 1-.218-.237l.107-1.253Z"/></g></svg>