<svg xmlns="http://www.w3.org/2000/svg" width="20" height="20"><g fill="none"><path stroke="currentColor" stroke-width="1.5" d="m13.365 6.353.187.563.59-.052c.066-.006.133-.009.2-.009 1.292 0 2.408 1.118 2.408 2.583 0 1.466-1.116 2.584-2.408 2.584H5.658c-1.292 0-2.408-1.118-2.408-2.584 0-1.308.895-2.347 2.005-2.547l.442-.08.139-.427c.547-1.688 2.046-2.862 3.77-2.862 1.712 0 3.203 1.16 3.759 2.831Z"/><path fill="currentColor" d="M5.393 14.346c.01-.113.104-.2.218-.2h1.252c.127 0 .228.11.217.237l-.107 1.253a.218.218 0 0 1-.217.2H5.504a.218.218 0 0 1-.217-.237l.106-1.253Z"/><path fill="currentColor" d="M5.393 14.346c.01-.113.104-.2.218-.2h1.252c.127 0 .228.11.217.237l-.107 1.253a.218.218 0 0 1-.217.2H5.504a.218.218 0 0 1-.217-.237l.106-1.253Zm3.817 0c.01-.113.104-.2.217-.2h1.252c.128 0 .229.11.218.237l-.107 1.253a.218.218 0 0 1-.217.2H9.32a.218.218 0 0 1-.218-.237l.107-1.253Zm3.447 0c.01-.113.104-.2.218-.2h1.252c.127 0 .228.11.217.237l-.107 1.253a.218.218 0 0 1-.217.2h-1.252a.218.218 0 0 1-.218-.237l.107-1.253Zm-1.613 3.064c.01-.113.104-.2.217-.2h1.252c.128 0 .228.11.217.237l-.106 1.253a.218.218 0 0 1-.218.2h-1.252a.218.218 0 0 1-.217-.237l.107-1.253Zm-3.817 0c.01-.113.104-.2.217-.2h1.252c.128 0 .229.11.218.237L8.807 18.7a.218.218 0 0 1-.217.2H7.338a.218.218 0 0 1-.218-.237l.107-1.253Z"/></g></svg>