<svg xmlns="http://www.w3.org/2000/svg" width="20" height="20"><path fill="none" stroke="currentColor" stroke-linecap="round" stroke-width="1.5" d="M13.986 8.81c0 1.062 0-1.06 0 0Zm0 0v2.123m0-2.122c0-1.061 2.215-1.061 2.215 0v5.57c0 4.244-9.492 4.28-11.193 0-.63-1.588-.521-1.248-1.101-2.625s1.329-2.198 2.091-.823c.763 1.375 1.345 3.556 1.345 2.652V3.218c0-1.06 2.214-1.06 2.214 0m4.43 5.593c0-1.061-2.223-1.061-2.215 0m0 0c0-1.061-2.215-1.061-2.215 0V3.218m2.215 5.593c0 .253 0-.276 0 0Zm0 0c.01 1.591 0 2.122 0 2.122m-2.215 0V3.218"/></svg>