<svg xmlns="http://www.w3.org/2000/svg" width="20" height="20"><g fill="none"><path fill="currentColor" d="M2.871 7.065c4.576-3.522 10.264-3.467 14.327.094.3.264.311.721.043 1.017l-1.93 2.13a.746.746 0 0 1-.853.182l-1.303-.572a.746.746 0 0 1-.419-.884l.513-1.835a.746.746 0 0 0-.71-.947l-5.081-.055a.746.746 0 0 0-.733.922l.468 1.934a.746.746 0 0 1-.421.857l-1.296.577a.746.746 0 0 1-.875-.202L2.77 8.097a.718.718 0 0 1 .1-1.032Z"/><path stroke="currentColor" stroke-linecap="round" stroke-linejoin="round" stroke-width="1.5" d="M2.871 7.065c4.576-3.522 10.264-3.467 14.327.094.3.264.311.721.043 1.017l-1.93 2.13a.746.746 0 0 1-.853.182l-1.303-.572a.746.746 0 0 1-.419-.884l.513-1.835a.746.746 0 0 0-.71-.947l-5.081-.055a.746.746 0 0 0-.733.922l.468 1.934a.746.746 0 0 1-.421.857l-1.296.577a.746.746 0 0 1-.875-.202L2.77 8.097a.718.718 0 0 1 .1-1.032Zm7.079 4.003v4.476m0 0-1.864-1.649m1.865 1.65 1.865-1.65"/></g></svg>