<svg xmlns="http://www.w3.org/2000/svg" width="20" height="20"><g fill="none"><circle cx="10" cy="10" r="7.314" stroke="currentColor" stroke-width="1.5"/><path fill="currentColor" fill-rule="evenodd" d="M13.243 11.239c.149-.194.428-.249.611-.088.125.109.244.223.359.341a.38.38 0 0 1 .029.496c-.986 1.294-2.478 2.12-4.148 2.12-1.728 0-3.265-.884-4.249-2.255a.38.38 0 0 1 .045-.496 5.91 5.91 0 0 1 .368-.33c.189-.154.465-.09.608.107.772 1.065 1.958 1.723 3.228 1.723 1.227 0 2.377-.615 3.149-1.618Z" clip-rule="evenodd"/><path fill="currentColor" d="M8.208 7.312a1.12 1.12 0 1 1-2.24 0 1.12 1.12 0 0 1 2.24 0Zm5.824 0a1.12 1.12 0 1 1-2.24 0 1.12 1.12 0 0 1 2.24 0Z"/></g></svg>