<svg xmlns="http://www.w3.org/2000/svg" width="20" height="20"><path fill="currentColor" d="m9.065 4.508.497-.562a.75.75 0 0 1 .147.177l-.644.385Zm.553 11.637.717-.22a.75.75 0 0 1-1.168.819l.451-.6ZM7.492 9.192l.717-.219-.717.22Zm.19-1.109-.603-.446.603.446Zm1.005-.506v-.75.75Zm2.215 0 .643-.385a.75.75 0 0 1-.643 1.135v-.75Zm-.526 2.5-.717.22a.75.75 0 0 1 .717-.97v.75Zm1.641 5.365.49.568a.75.75 0 0 1-1.207-.349l.717-.22Zm1.09-5.365v-.75.75Zm1.087-.634-.653-.37.653.37Zm-.015-1.258.644-.385-.644.385Zm-2.264-3.783-.643.385a.75.75 0 0 1 .162-.96l.482.575ZM8.57 5.07c-1.196-1.055-2.534-1.185-3.54-.76-1.002.426-1.78 1.447-1.78 2.945h-1.5c0-2.07 1.111-3.653 2.694-4.325 1.58-.671 3.525-.391 5.118 1.015L8.569 5.07ZM3.25 7.256c0 .614.248 1.34.724 2.148.471.8 1.132 1.624 1.874 2.416 1.484 1.585 3.224 2.975 4.221 3.726l-.902 1.198c-1.025-.772-2.844-2.222-4.414-3.898-.785-.838-1.524-1.751-2.072-2.68-.542-.921-.931-1.918-.931-2.91h1.5Zm5.65 9.108L6.775 9.412l1.435-.439 2.126 6.953-1.434.438ZM6.775 9.412a2 2 0 0 1 .305-1.775l1.206.892a.5.5 0 0 0-.076.444l-1.435.439Zm.305-1.775a2 2 0 0 1 1.608-.81v1.5a.5.5 0 0 0-.402.202L7.08 7.637Zm1.608-.81h2.215v1.5H8.687v-1.5Zm1.571 1.135-1.836-3.07 1.287-.77 1.836 3.07-1.287.77Zm.836 1.895 1.64 5.365-1.434.44-1.64-5.366 1.434-.439Zm2.013.97h-2.73v-1.5h2.73v1.5Zm1.74-1.014a2 2 0 0 1-1.74 1.014v-1.5a.5.5 0 0 0 .434-.254l1.305.74ZM14.822 7.8a2 2 0 0 1 .023 2.013l-1.305-.74a.5.5 0 0 0-.005-.503l1.287-.77Zm-2.264-3.783L14.823 7.8l-1.287.77-2.264-3.783 1.287-.77Zm4.658 3.24c0-1.398-.697-2.401-1.596-2.846-.888-.438-2.084-.387-3.224.567l-.963-1.151c1.558-1.302 3.387-1.483 4.851-.76 1.452.716 2.432 2.268 2.432 4.19h-1.5Zm-5.69 7.616c1.092-.94 2.543-2.287 3.715-3.714.585-.713 1.087-1.43 1.44-2.111.357-.689.535-1.292.535-1.792h1.5c0 .834-.289 1.682-.703 2.481-.417.806-.988 1.612-1.613 2.374-1.25 1.523-2.775 2.935-3.894 3.899l-.98-1.137Z"/></svg>