<svg xmlns="http://www.w3.org/2000/svg" width="20" height="20"><g fill="none" stroke="currentColor" stroke-linecap="round" stroke-linejoin="round" stroke-width="1.5"><path fill="currentColor" d="M15.148 17.346C7.985 16.45 3.006 11.373 2.603 4.632a.8.8 0 0 1 .77-.837l3.703-.182a.833.833 0 0 1 .817.53l.692 1.773a.833.833 0 0 1-.368 1.029L5.994 8.198a.833.833 0 0 0-.187 1.309l4.56 4.659a.833.833 0 0 0 1.306-.15l1.382-2.264a.833.833 0 0 1 1.01-.344l1.771.68c.348.133.565.48.532.851l-.325 3.669a.805.805 0 0 1-.895.738Z"/><path d="m16.433 3.369-3.917 3.916m0 0-.189-3.075m.19 3.075 3.074.19"/></g></svg>