<svg xmlns="http://www.w3.org/2000/svg" width="20" height="20"><g fill="none"><path stroke="currentColor" stroke-width="1.25" d="M5.906 6.661 4.515 8.07a1.25 1.25 0 0 0-.361.879v7.264c0 .69.56 1.25 1.25 1.25h9.87c.69 0 1.25-.56 1.25-1.25V5.134a2.5 2.5 0 0 0-2.5-2.5h-3.61c-.347 0-.68.145-.916.4L8.266 4.362m-2.36 2.3L4.454 5.186a.417.417 0 0 1 .013-.598L6.291 2.89a.417.417 0 0 1 .585.017l1.39 1.454m-2.36 2.3 2.36-2.3"/><path fill="currentColor" d="M13.115 6.592v1.25h-1.918v-1.25h1.918Zm.465-.465a.465.465 0 0 0-.465-.465h-1.918a.465.465 0 0 0 0 .93v1.25l-.176-.009a1.716 1.716 0 0 1-1.53-1.531l-.009-.175c0-.888.675-1.618 1.54-1.706l.175-.009h1.918c.947 0 1.715.768 1.715 1.715l-.009.175a1.716 1.716 0 0 1-1.53 1.531l-.176.009v-1.25a.465.465 0 0 0 .465-.465Z"/><path stroke="currentColor" stroke-linecap="round" stroke-width="1.25" d="M11.826 11.116v2.561m0-2.56H8.851m2.975 0 1.45-1.451m-1.45 4.011H8.851m2.975 0 .725.726.726.725m-4.426-1.45v-2.562m0 2.561-1.45 1.45m1.45-4.01-1.45-1.451"/></g></svg>