<svg xmlns="http://www.w3.org/2000/svg" width="20" height="20"><g fill="currentColor"><path fill-rule="evenodd" d="M8.518 8.058h8.863v2.33H15.05v3.496h-1.942v-3.496h-4.59s-.849 1.943-2.791 1.943-3.108-1.392-3.108-3.108c0-1.716 1.166-3.108 3.108-3.108 1.942 0 2.791 1.943 2.791 1.943ZM3.396 9.223a2.33 2.33 0 1 0 4.662 0 2.33 2.33 0 0 0-4.662 0Z" clip-rule="evenodd"/><path d="M17.38 8.058v-.75a.75.75 0 0 1 .75.75h-.75Zm-8.861 0v.75a.75.75 0 0 1-.688-.45l.687-.3Zm8.862 2.33h.75a.75.75 0 0 1-.75.75v-.75Zm-2.331 0h-.75a.75.75 0 0 1 .75-.75v.75Zm0 3.496h.75a.75.75 0 0 1-.75.75v-.75Zm-1.942 0v.75a.75.75 0 0 1-.75-.75h.75Zm0-3.496v-.75a.75.75 0 0 1 .75.75h-.75Zm-4.59 0-.687-.3a.75.75 0 0 1 .687-.45v.75Zm-2.791 1.943v.75-.75ZM2.619 9.223h.75-.75Zm.777 0h.75-.75Zm13.985-.415H8.518v-1.5h8.863v1.5Zm-.75 1.58v-2.33h1.5v2.33h-1.5Zm-1.581-.75h2.33v1.5h-2.33v-1.5Zm-.75 4.246v-3.496h1.5v3.496h-1.5Zm-1.192-.75h1.942v1.5h-1.942v-1.5Zm.75-2.746v3.496h-1.5v-3.496h1.5Zm-5.34-.75h4.59v1.5h-4.59v-1.5Zm-2.791 1.943c.696 0 1.21-.342 1.577-.734a3.291 3.291 0 0 0 .526-.756l.003-.007v.002h-.001v.001l.686.301c.688.3.688.301.687.302v.002l-.002.003-.004.009a2.042 2.042 0 0 1-.052.108 4.789 4.789 0 0 1-.748 1.06c-.543.58-1.426 1.209-2.672 1.209v-1.5ZM3.369 9.223c0 .689.233 1.274.62 1.681.38.401.955.677 1.738.677v1.5c-1.16 0-2.139-.42-2.826-1.144-.681-.717-1.032-1.686-1.032-2.714h1.5Zm2.358-2.358c-.783 0-1.357.276-1.738.677-.387.407-.62.992-.62 1.681h-1.5c0-1.028.35-1.996 1.032-2.714.687-.723 1.666-1.144 2.826-1.144v1.5Zm2.791 1.193-.686.3v.002a.055.055 0 0 0 0 .002.601.601 0 0 0-.022-.048 3.292 3.292 0 0 0-.506-.715c-.368-.392-.881-.734-1.577-.734v-1.5c1.246 0 2.129.63 2.671 1.209a4.792 4.792 0 0 1 .79 1.143l.011.025.004.01.002.003v.001l-.687.302Zm-2.791 4.246a3.08 3.08 0 0 1-3.08-3.08h1.5c0 .872.707 1.58 1.58 1.58v1.5Zm3.08-3.08a3.08 3.08 0 0 1-3.08 3.08v-1.5a1.58 1.58 0 0 0 1.58-1.58h1.5Zm-3.08-3.082a3.08 3.08 0 0 1 3.08 3.081h-1.5a1.58 1.58 0 0 0-1.58-1.58v-1.5Zm-3.08 3.081a3.08 3.08 0 0 1 3.08-3.08v1.5a1.58 1.58 0 0 0-1.58 1.58h-1.5Z"/></g></svg>