<svg xmlns="http://www.w3.org/2000/svg" width="20" height="20"><path fill="currentColor" d="M13.548 12.128c-.188-.187-.223-.474-.122-.719a3.7 3.7 0 0 0-.007-2.835c-.102-.245-.068-.534.12-.722l2.538-2.538c.25-.25.664-.227.86.067A8.294 8.294 0 0 1 18.333 10c0 1.7-.509 3.282-1.383 4.6-.196.296-.61.32-.861.07l-2.541-2.542ZM6.452 7.872c.188.187.223.474.122.719-.179.434-.278.91-.278 1.409 0 .489.095.956.267 1.383.098.244.062.528-.123.714l-2.546 2.546c-.251.25-.667.226-.862-.07A8.295 8.295 0 0 1 1.667 10c0-1.7.51-3.282 1.384-4.6.195-.296.61-.32.86-.07l2.541 2.542Zm1.42-1.42c.187.188.474.223.719.122.434-.18.91-.278 1.409-.278.489 0 .956.095 1.383.267.244.098.528.062.714-.123l2.546-2.546c.25-.251.226-.667-.07-.862A8.295 8.295 0 0 0 10 1.667c-1.7 0-3.282.509-4.6 1.383a.557.557 0 0 0-.07.861l2.542 2.541Zm4.256 7.096c-.187-.188-.474-.223-.719-.122a3.7 3.7 0 0 1-2.835-.007c-.245-.102-.534-.068-.722.12l-2.538 2.538c-.25.25-.227.664.067.86A8.294 8.294 0 0 0 10 18.333c1.7 0 3.282-.509 4.6-1.383.296-.196.32-.61.07-.861l-2.542-2.541Z"/></svg>