<svg xmlns="http://www.w3.org/2000/svg" width="20" height="20"><g fill="none" stroke="currentColor" stroke-width="1.5"><path d="m13.799 5.729.184.57.596-.054c.069-.006.138-.01.209-.01 1.34 0 2.526 1.196 2.526 2.8 0 1.604-1.186 2.8-2.526 2.8H5.777c-1.34 0-2.527-1.196-2.527-2.8 0-1.43.953-2.548 2.107-2.761l.443-.082.136-.43c.576-1.824 2.148-3.076 3.937-3.076 1.777 0 3.34 1.236 3.926 3.043Z"/><path stroke-linecap="round" stroke-linejoin="round" d="m12.822 14.223-.492 1.635h.82l-.656 1.642m-4.587-3.277-.492 1.635h.82L7.578 17.5"/></g></svg>