<svg xmlns="http://www.w3.org/2000/svg" width="20" height="20"><g fill="none" stroke="currentColor" stroke-width="1.5"><path d="M9.873 2.686c1.777 0 3.341 1.236 3.926 3.043l.184.57.596-.054a2.33 2.33 0 0 1 .21-.01c1.339 0 2.525 1.196 2.525 2.8 0 1.604-1.186 2.8-2.526 2.8H5.776c-1.34 0-2.526-1.196-2.526-2.8 0-1.43.953-2.548 2.107-2.762l.444-.082.136-.43c.576-1.823 2.148-3.075 3.936-3.075Z"/><path stroke-linecap="round" stroke-linejoin="round" d="m12.822 14.223-.492 1.635h.82l-.656 1.642m-4.587-3.277-.492 1.635h.82L7.578 17.5"/></g></svg>