<svg xmlns="http://www.w3.org/2000/svg" width="20" height="20"><g fill="none"><path fill="currentColor" fill-rule="evenodd" d="M13.54 6.713c1.994.164 3.084 1.538 3.084 3.184 0 1.64-1.083 2.994-3.084 3.159h-.271c-.193.002-.462.002-.783.003h-1.412v1.666a938.393 938.393 0 0 0 2.203-.002h.012c.162 0 .327-.001.388-.006 2.861-.236 4.613-2.309 4.613-4.82 0-2.504-1.745-4.608-4.613-4.845-.061-.005-.226-.006-.388-.007h-.012l-.79-.002h-1.413V6.71a978.725 978.725 0 0 1 2.4.003h.066Zm-4.133 6.344-2.35-.003h-.342c-1.134 0-1.953-.378-2.488-.924-.54-.55-.85-1.332-.85-2.246 0-.914.31-1.696.85-2.246.535-.545 1.354-.922 2.488-.922l.34-.001 2.352-.004V5.045l-2.355.003h-.337c-1.524 0-2.79.52-3.677 1.423-.882.898-1.328 2.117-1.328 3.413 0 1.296.446 2.515 1.328 3.414.886.903 2.153 1.422 3.677 1.422h.339l2.353.004v-1.667Z" clip-rule="evenodd"/><path stroke="currentColor" stroke-linecap="round" stroke-linejoin="round" stroke-width="1.5" d="M13.333 10H6.667"/></g></svg>