<svg xmlns="http://www.w3.org/2000/svg" width="20" height="20"><g fill="none"><path stroke="currentColor" stroke-linecap="round" stroke-linejoin="round" stroke-width="1.5" d="M14.54 7.17V2.63m0 4.54-2.27-1.816m2.27 1.816 2.27-1.816"/><path fill="currentColor" d="M8.708 16.4a.417.417 0 0 0-.397-.292H5.937a.417.417 0 0 0-.397.291l-.397 1.252a.417.417 0 0 1-.397.29H3.34a.417.417 0 0 1-.39-.564l3.071-8.122a.417.417 0 0 1 .39-.27h1.427c.172 0 .327.107.389.269l3.091 8.123a.417.417 0 0 1-.39.564H9.503a.417.417 0 0 1-.398-.29l-.396-1.252Zm-2.531-2.016a.167.167 0 0 0 .159.217h1.569c.112 0 .192-.11.158-.217L7.28 11.91a.167.167 0 0 0-.318 0l-.784 2.474Zm9.385 3.557c-.078 0-.136-.01-.168-.082-.072-.163-.304-.256-.449-.152-.332.238-.74.357-1.221.357-.675 0-1.236-.184-1.682-.553-.442-.37-.662-.847-.662-1.433 0-.697.268-1.237.803-1.618.541-.382 1.318-.576 2.33-.585h.223c.23 0 .417-.186.417-.416v-.119c0-.299-.062-.51-.186-.633-.125-.123-.306-.185-.544-.185-.36 0-.596.12-.71.357-.099.208-.265.406-.495.406h-1.273c-.23 0-.423-.189-.371-.413.1-.433.362-.801.788-1.106.56-.402 1.268-.603 2.12-.603.884 0 1.566.19 2.047.572.487.377.73.918.73 1.624v3.13c.01.575 0 .999 0 1.348a.105.105 0 0 1-.105.104h-1.592Zm-1.37-1.242c.234 0 .432-.04.596-.117.11-.052.2-.11.271-.175a.316.316 0 0 0 .094-.24v-.83a.417.417 0 0 0-.417-.416h-.09c-.357 0-.64.095-.848.283-.203.189-.305.441-.305.757 0 .492.233.738.7.738Z"/></g></svg>