<svg xmlns="http://www.w3.org/2000/svg" width="20" height="20"><g fill="none"><path stroke="currentColor" stroke-linecap="round" stroke-linejoin="round" stroke-width="1.5" d="m3.923 3.583 12.154 12.154"/><path fill="currentColor" fill-rule="evenodd" d="M7.239 4.446a2.796 2.796 0 0 1 5.557.439v3.473c0 .476-.12.924-.33 1.316l-.961-.962a1.55 1.55 0 0 0 .04-.354V4.885a1.546 1.546 0 0 0-3.09 0v.777L7.238 4.446ZM8.454 7.43l-1.25-1.25v2.178a2.795 2.795 0 0 0 4.44 2.261l-.904-.904a1.546 1.546 0 0 1-2.285-1.357V7.43Z" clip-rule="evenodd"/><path fill="currentColor" fill-rule="evenodd" d="M6.695 11.227a.625.625 0 1 0-1.204.339c.548 1.946 1.99 3.227 3.884 3.457v2.45a.625.625 0 1 0 1.25 0v-2.45c1.405-.17 2.56-.918 3.287-2.087l-.916-.915c-.593 1.148-1.663 1.79-2.996 1.79-1.614 0-2.843-.942-3.305-2.584Zm6.902-.373a.623.623 0 0 1 .912.712 5.74 5.74 0 0 1-.046.154l-.866-.866Z" clip-rule="evenodd"/></g></svg>