<svg xmlns="http://www.w3.org/2000/svg" width="20" height="20"><g fill="none"><path stroke="currentColor" stroke-linecap="round" stroke-linejoin="round" stroke-width="1.5" d="m3.885 3.482 12.23 12.23"/><path fill="currentColor" fill-rule="evenodd" d="M7.951 4.034a2.185 2.185 0 0 1 4.233.759v3.474L7.951 4.034Zm2.777 6.313L7.816 7.435v.852a2.184 2.184 0 0 0 2.912 2.06Z" clip-rule="evenodd"/><path fill="currentColor" d="m7.951 4.034-.53.53-.34-.34.167-.45.703.26Zm4.233 4.233h.75v1.81l-1.28-1.28.53-.53Zm-1.456 2.08.53-.53.842.84-1.122.397-.25-.707ZM7.816 7.435h-.75V5.623l1.28 1.28-.53.53Zm-.568-3.661A2.935 2.935 0 0 1 10 1.859v1.5c-.616 0-1.143.388-1.345.936l-1.407-.521ZM10 1.859a2.934 2.934 0 0 1 2.934 2.934h-1.5c0-.792-.642-1.434-1.434-1.434v-1.5Zm2.934 2.934v3.474h-1.5V4.793h1.5Zm-4.452-1.29 4.232 4.234-1.06 1.06L7.42 4.565l1.06-1.061Zm1.716 7.374L7.286 7.965l1.06-1.06 2.913 2.911-1.061 1.061Zm-3.132-2.59v-.853h1.5v.853h-1.5ZM10 11.221a2.934 2.934 0 0 1-2.934-2.934h1.5c0 .792.642 1.434 1.434 1.434v1.5Zm.978-.167a2.932 2.932 0 0 1-.978.167v-1.5c.169 0 .33-.029.478-.081l.5 1.414Z"/><path fill="currentColor" fill-rule="evenodd" d="M6.67 11.175a.625.625 0 1 0-1.203.339c.551 1.958 2.001 3.246 3.908 3.476v2.47a.625.625 0 1 0 1.25 0v-2.47a4.45 4.45 0 0 0 2.633-1.25l-.883-.884c-.609.598-1.426.921-2.375.921-1.626 0-2.864-.948-3.33-2.602Zm6.428.636a4.34 4.34 0 0 0 .231-.636.625.625 0 1 1 1.204.339 5.405 5.405 0 0 1-.508 1.224l-.928-.927Z" clip-rule="evenodd"/></g></svg>