<svg xmlns="http://www.w3.org/2000/svg" width="20" height="20"><g fill="none"><circle cx="10" cy="10" r="7.314" stroke="currentColor" stroke-width="1.5"/><path fill="currentColor" fill-rule="evenodd" d="M9.314 6.486a.163.163 0 0 1-.122.155 2.007 2.007 0 0 0-.912.513c-.449.449-.613 1.066-.613 1.72 0 .335.077.646.248.916.169.268.4.448.633.57.429.226.959.3 1.342.354l.014.002c.454.064.747.107.943.197a.377.377 0 0 1 .09.053.05.05 0 0 1 .015.023c.003.01.009.036.009.081 0 .32-.096.554-.23.7-.127.136-.344.26-.731.26-.443 0-.65-.11-.75-.21a.505.505 0 0 1-.069-.087c-.203-.32-.449-.663-.828-.663-.379 0-.698.311-.618.682.086.392.257.75.545 1.038.257.257.569.421.912.514.07.02.122.082.122.155v.233a.686.686 0 0 0 1.372 0v-.252c0-.07.048-.132.116-.154.367-.114.685-.312.938-.586.414-.45.593-1.04.593-1.63 0-.326-.084-.631-.269-.89a1.586 1.586 0 0 0-.647-.516c-.39-.178-.872-.244-1.235-.294l-.087-.012c-.438-.062-.724-.115-.908-.212a.282.282 0 0 1-.112-.089c-.01-.015-.036-.062-.036-.182 0-.443.11-.65.211-.75.1-.1.307-.21.75-.21s.65.11.75.21a.503.503 0 0 1 .069.087c.203.32.449.663.828.663.379 0 .698-.311.617-.682a2.052 2.052 0 0 0-.544-1.039 2.007 2.007 0 0 0-.912-.513.163.163 0 0 1-.122-.155v-.178a.686.686 0 0 0-1.372 0v.178Z" clip-rule="evenodd"/></g></svg>