<svg xmlns="http://www.w3.org/2000/svg" width="20" height="20"><g fill="none"><path fill="currentColor" fill-rule="evenodd" d="M10 7.938c-.073.061-.147.167-.147.386v1.043c0 .092.075.166.167.166h.497c.23 0 .417.187.417.417v.633c0 .23-.186.417-.417.417h-.497a.167.167 0 0 0-.167.166v.866c0 .092.075.167.167.167h2.056c.23 0 .417.187.417.417v.633c0 .23-.187.417-.417.417H8.153a.417.417 0 0 1-.417-.417v-.633c0-.23.187-.417.417-.417h.067a.167.167 0 0 0 .167-.166v-.867A.167.167 0 0 0 8.22 11h-.496a.417.417 0 0 1-.417-.417V9.95c0-.23.187-.417.417-.417h.496a.167.167 0 0 0 .167-.166V8.324c0-.619.24-1.14.656-1.498.4-.344.91-.492 1.397-.492.486 0 .996.148 1.397.492.415.357.656.88.656 1.498v.317c0 .23-.187.416-.417.416h-.633a.417.417 0 0 1-.417-.416v-.317c0-.219-.074-.325-.145-.386a.676.676 0 0 0-.441-.137.676.676 0 0 0-.44.137Z" clip-rule="evenodd"/><circle cx="10" cy="10" r="7.314" stroke="currentColor" stroke-width="1.5"/></g></svg>