<svg xmlns="http://www.w3.org/2000/svg" width="20" height="20"><g fill="none"><path stroke="currentColor" stroke-width="1.5" d="M2.123 6.98c0-.598.485-1.083 1.084-1.083h13.377c.599 0 1.084.485 1.084 1.083v6.04c0 .598-.485 1.083-1.084 1.083H3.207a1.083 1.083 0 0 1-1.084-1.083V6.98Z"/><circle cx="10.26" cy="10" r="3.557" stroke="currentColor" stroke-width="1.5"/><path fill="currentColor" fill-rule="evenodd" d="M9.819 7.745a.099.099 0 0 1-.075.094c-.222.06-.424.165-.59.331-.289.289-.394.686-.394 1.106 0 .216.05.416.159.589.109.172.257.288.407.367.276.145.617.193.863.227l.01.002c.29.04.479.068.605.126.033.014.05.027.058.034a.032.032 0 0 1 .01.015.19.19 0 0 1 .005.052c0 .206-.061.356-.148.45-.08.088-.22.168-.47.168-.284 0-.417-.071-.481-.136a.321.321 0 0 1-.045-.056c-.13-.206-.288-.426-.532-.426-.244 0-.449.2-.397.438.055.253.164.483.35.668.166.166.368.272.59.331a.1.1 0 0 1 .075.095v.154a.441.441 0 0 0 .882 0v-.167a.1.1 0 0 1 .07-.093c.238-.074.444-.201.607-.379.267-.289.381-.668.381-1.047a.968.968 0 0 0-.172-.573 1.02 1.02 0 0 0-.416-.331c-.25-.114-.561-.157-.795-.19l-.055-.007c-.282-.04-.466-.074-.584-.136a.176.176 0 0 1-.072-.057c-.006-.01-.023-.04-.023-.118 0-.284.071-.417.136-.482.064-.064.197-.135.482-.135s.417.07.482.135c.015.015.03.033.044.056.13.206.289.426.532.426.244 0 .45-.2.398-.438a1.318 1.318 0 0 0-.35-.668 1.291 1.291 0 0 0-.591-.33.099.099 0 0 1-.074-.095v-.119a.441.441 0 1 0-.882 0v.119Z" clip-rule="evenodd"/></g></svg>