<svg xmlns="http://www.w3.org/2000/svg" width="20" height="20"><g fill="none"><circle cx="4.983" cy="13.617" r="1.573" stroke="currentColor" stroke-width="1.5"/><circle cx="15.825" cy="13.617" r="1.573" stroke="currentColor" stroke-width="1.5"/><path fill="currentColor" d="m2.66 11.293.689-.295-.69.295Zm2.096-3.466h.75-.75Zm5.682.935L11.15 9l-.712-.237Zm-.661 2.34-.716.222.716-.223Zm1.401 1.092-.042.748.042-.748Zm2.48-5.363.648-.377-.649.377Zm2.167 3.688-.647.38.003.006.644-.386Zm-4.647 3.485.152.734-.152-.734Zm1.718-7.338-.117-.741-.025.004-.024.005.166.732Zm-.877-.934.745-.086-.745.086Zm1.253-1.117.043-.749-.043.75Zm.978 1.727-.646-.38.646.38Zm-.586.5-.649.377.649-.377Zm-2.525-1.827a.75.75 0 0 0-.437 1.435l.437-1.435Zm.88 1.051.738-.133-.738.133Zm-8.585 6.002.4-.635.001.001-.001-.001a1.129 1.129 0 0 1-.065-.044 2.748 2.748 0 0 1-.178-.136 1.7 1.7 0 0 1-.178-.17c-.051-.058-.065-.088-.064-.085l-1.379.59c.159.371.474.66.658.815a4.225 4.225 0 0 0 .393.29l.008.006.003.002h.002v.001l.4-.634Zm-.085-1.07c.036.083-.03.12.047.013.084-.12.252-.27.492-.432a5.785 5.785 0 0 1 .909-.492l.063-.027.015-.007h.002l-.281-.696-.282-.695h-.001l-.003.002-.007.003a4.24 4.24 0 0 0-.11.047 8.01 8.01 0 0 0-1.142.62c-.297.2-.639.471-.878.808-.247.348-.45.872-.203 1.447l1.379-.591Zm1.247-1.64.741.11v-.002l.001-.002.001-.01a20.216 20.216 0 0 0 .081-.6c.04-.32.086-.747.086-1.027h-1.5c0 .174-.034.511-.075.844a26.387 26.387 0 0 1-.07.532l-.006.033v.009l-.001.002.742.11Zm.91-1.531c0 .256-.131.44-.246.537a.617.617 0 0 1-.212.121c-.053.017-.07.012-.008.01.104-.006.287 0 .548.024.511.047 1.207.147 1.913.27.705.123 1.4.264 1.907.389.257.063.446.118.558.158.064.023.066.028.04.013-.007-.005-.076-.044-.147-.127a.723.723 0 0 1-.132-.697l1.423.474a.777.777 0 0 0-.15-.751.907.907 0 0 0-.228-.19 1.76 1.76 0 0 0-.3-.134 7.653 7.653 0 0 0-.705-.202 31.441 31.441 0 0 0-2.008-.41 26.856 26.856 0 0 0-2.035-.287 5.811 5.811 0 0 0-.757-.03 1.486 1.486 0 0 0-.374.061.885.885 0 0 0-.309.169.791.791 0 0 0-.278.602h1.5Zm3.555 3.497c.142.456.372.87.757 1.17.384.3.842.422 1.319.449l.083-1.498c-.279-.016-.41-.079-.48-.134-.071-.055-.164-.166-.247-.433l-1.432.446Zm2.075 1.619c1.037.057 1.737-.609 2.121-.993l-1.06-1.061c-.39.39-.663.573-.977.556l-.084 1.498Zm2.121-.993c.177-.177.396-.388.574-.652.193-.285.323-.606.406-1.019l-1.471-.295c-.05.25-.114.38-.178.476-.08.117-.18.218-.391.429l1.06 1.06Zm.98-1.67c.077-.387-.042-.783-.141-1.052a8.137 8.137 0 0 0-.424-.913c-.168-.32-.305-.564-.446-.838a3.414 3.414 0 0 1-.245-.555l-1.446.397c.075.273.22.577.357.843.133.259.319.596.452.85.148.282.269.531.345.737.089.239.066.29.077.235l1.47.295Zm.944.625 1.162 1.936 1.286-.772-1.161-1.936-1.287.772ZM6.92 14.39l.014.75h.009a2.35 2.35 0 0 0 .113-.003l.327-.01c.276-.01.662-.028 1.1-.056.867-.054 1.976-.154 2.848-.334l-.304-1.469c-.763.158-1.784.252-2.638.306a39.807 39.807 0 0 1-1.373.063l-.083.002H6.91l-.005.001h-.001l.014.75Zm4.41.347c.576-.119 1.28-.32 1.828-.488a40.226 40.226 0 0 0 .896-.285l.055-.018.015-.005.004-.002h.001l-.24-.71-.24-.711-.003.001-.013.004a10.943 10.943 0 0 1-.247.082c-.167.054-.4.128-.666.21-.54.164-1.19.35-1.693.453l.304 1.47ZM9.728 8.525a60.69 60.69 0 0 1-.522 1.508l1.4.54c.103-.27.395-1.124.545-1.574l-1.423-.474Zm-.522 1.508a.796.796 0 0 1-.052.105c-.017.032-.081.141-.124.265-.112.324-.06.628.032.921l1.432-.446c-.028-.09-.029-.116-.028-.106 0 .008.001.026-.002.052a.365.365 0 0 1-.017.07l-.008.022.029-.053c.034-.062.087-.16.137-.29l-1.4-.54Zm-4.74.063 5.308.945.263-1.477-5.309-.945-.263 1.477Zm8.517-3.174a.584.584 0 0 1-.016.355.496.496 0 0 1-.11.178c-.024.024-.04.033-.034.03a1.174 1.174 0 0 1 .23-.085l.012-.004s.001 0 0 0h-.001l-.167-.73-.167-.732h-.002l-.004.002a1.717 1.717 0 0 0-.154.041 2.66 2.66 0 0 0-.333.124 1.51 1.51 0 0 0-.444.296c-.16.162-.375.491-.257.922l1.447-.397Zm-.086-.256.116.74h-.002l-.001.001h.006a.983.983 0 0 1 .167-.008c.048.003.059.009.042.003a.433.433 0 0 1-.215-.194l1.297-.754a1.075 1.075 0 0 0-.582-.466 1.664 1.664 0 0 0-.467-.087 2.484 2.484 0 0 0-.475.023h-.002l.116.742Zm-.132-1.02a.263.263 0 0 1 .053-.183.224.224 0 0 1 .095-.064.763.763 0 0 1 .318-.035l.085-1.498c-.701-.04-1.272.19-1.642.627a1.761 1.761 0 0 0-.4 1.326l1.49-.173Zm.466-.282c.133.008.29.007.393.009.122.001.204.005.261.014.07.01.024.016-.053-.04a.494.494 0 0 1-.204-.388h1.5c0-.347-.16-.643-.422-.83a1.369 1.369 0 0 0-.604-.227 3.558 3.558 0 0 0-.457-.03c-.146-.001-.239 0-.33-.006l-.084 1.498Zm.397-.405c0 .14.009.282.015.396.006.122.011.22.01.312-.002.186-.028.26-.048.295l1.293.76c.215-.367.252-.752.255-1.04a6.454 6.454 0 0 0-.012-.408c-.007-.126-.013-.223-.013-.315h-1.5Zm-.618 2.249.006.01 1.297-.753-.006-.011-1.297.754Zm.006.01a702.206 702.206 0 0 0 1.882 3.204l.205.348.056.096.015.025.004.006.001.002.647-.38.646-.38v-.001l-.002-.002-.003-.006a75.626 75.626 0 0 0-.276-.469l-.65-1.103c-.49-.834-1.029-1.751-1.228-2.093l-1.296.754Zm.588-1.256c.011-.018.01-.01-.025.024-.031.03-.072.063-.118.096a1.987 1.987 0 0 1-.155.1l-.006.005.001-.001a244.781 244.781 0 0 1 .727 1.312h.001l.001-.001.003-.002.007-.004a1.47 1.47 0 0 0 .09-.053 3.13 3.13 0 0 0 .212-.142c.139-.101.396-.302.556-.575l-1.293-.759ZM12.258 7.12l.726-.189c0-.002 0-.003-.002-.005l-.004-.02a30.238 30.238 0 0 1-.08-.324 11.73 11.73 0 0 1-.141-.649L11.28 6.2a14.248 14.248 0 0 0 .223 1l.02.079.006.022.002.006v.002l.726-.189Zm.499-1.187c.005.03.005.048.005.048v-.007l.002-.026c.001-.018.005-.065.006-.109a1.254 1.254 0 0 0-.006-.193l-1.49.173c-.003-.028-.002-.043-.003-.035 0 .011 0 .02-.004.06-.003.053-.015.197.014.356l1.476-.267Zm-2.055.517 1.098.334.437-1.435-1.098-.334-.437 1.435Z"/></g></svg>