<svg xmlns="http://www.w3.org/2000/svg" width="20" height="20"><g fill="currentColor"><path fill-rule="evenodd" d="M2.661 14.953a.167.167 0 0 0 .142.253h14.394c.12 0 .2-.124.152-.234L12.915 4.893a.167.167 0 0 0-.307.006l-1.93 4.822a.167.167 0 0 0 .024.165l1.427 1.816a.833.833 0 1 1-1.31 1.03L7.14 8.052a.167.167 0 0 0-.273.016L2.66 14.953Z" clip-rule="evenodd"/><path d="m12.129 11.702.59-.463-.59.463Zm-.14 1.17-.464-.59.464.59Zm-1.17-.14-.59.463.59-.463Zm-.14-3.01.696.278-.697-.279Zm.023.164.59-.463-.59.463Zm-3.56-1.834-.59.463.59-.463Zm-.274.016.64.391-.64-.391Zm6.047-3.175.686-.302-.686.302Zm-.307.006-.697-.279.697.279ZM2.66 14.952l-.64-.39.64.39Zm14.688.02.687-.302-.687.302Zm-.152.984H2.803v-1.5h14.394v1.5ZM13.6 4.591l4.435 10.08-1.373.603-4.435-10.078 1.373-.605ZM9.982 9.443l1.93-4.823 1.392.557L11.374 10l-1.392-.557Zm1.31-.02 1.427 1.816-1.18.926-1.426-1.816 1.179-.926Zm1.427 1.816c.54.687.42 1.683-.267 2.223l-.927-1.18a.083.083 0 0 0 .014-.117l1.18-.926Zm-.267 2.223c-.688.54-1.683.42-2.223-.267l1.18-.927a.08.08 0 0 0 .116.014l.927 1.18Zm-2.223-.267-3.677-4.68 1.18-.927 3.676 4.68-1.18.927ZM2.02 14.561l4.207-6.884 1.28.782L3.3 15.344l-1.28-.783ZM11.375 10a.583.583 0 0 0-.083-.577l-1.18.926a.917.917 0 0 1-.13-.906l1.393.557ZM6.552 8.515c.251.32.744.291.956-.056l-1.28-.782a.917.917 0 0 1 1.503-.089l-1.18.927Zm5.676-3.32a.583.583 0 0 0 1.076-.018L11.91 4.62c.302-.754 1.363-.772 1.69-.029l-1.373.605ZM2.803 15.957a.917.917 0 0 1-.782-1.395l1.28.783a.583.583 0 0 0-.498-.888v1.5Zm14.394-1.5a.583.583 0 0 0-.534.818l1.373-.604a.917.917 0 0 1-.84 1.286v-1.5Z"/></g></svg>