<svg xmlns="http://www.w3.org/2000/svg" width="20" height="20"><g fill="none" stroke="currentColor" stroke-width="1.5"><path stroke-linecap="round" stroke-linejoin="round" d="M16.667 12.5V5.417m-8.334 9.166V7.5m8.334-2.083v-1.85c0-.542-.51-.94-1.036-.808L8.965 4.426a.833.833 0 0 0-.632.808V7.5m8.334-2.083L8.333 7.5"/><path d="M11.402 12.917c0 1.105 1.06 2.166 2.583 2.166 1.524 0 2.584-1.06 2.584-2.166 0-1.106-1.06-2.167-2.584-2.167s-2.583 1.061-2.583 2.167Zm-8.379 1.666c0 1.106 1.06 2.167 2.584 2.167s2.583-1.061 2.583-2.167c0-1.105-1.06-2.166-2.583-2.166-1.524 0-2.584 1.06-2.584 2.166Z"/></g></svg>