<svg xmlns="http://www.w3.org/2000/svg" width="20" height="20"><g fill="none"><path fill="currentColor" fill-rule="evenodd" d="m8.873 8.772 2.355 2.355a1.667 1.667 0 0 0-2.355-2.355Z" clip-rule="evenodd"/><path fill="currentColor" fill-rule="evenodd" d="M11.594 15.028a7.293 7.293 0 0 1-1.594.18c-1.824 0-3.47-.725-4.764-1.557a15.036 15.036 0 0 1-2.803-2.364 1.338 1.338 0 0 1-.085-1.732c.359-.471.979-1.211 1.825-1.947l.887.886a12.106 12.106 0 0 0-1.718 1.819.091.091 0 0 0-.022.061.1.1 0 0 0 .03.063A13.793 13.793 0 0 0 5.912 12.6c1.182.76 2.592 1.358 4.088 1.358.168 0 .336-.007.502-.022l1.092 1.092Zm1.615-1.92.923.923c.22-.122.43-.25.632-.38a15.034 15.034 0 0 0 2.803-2.364 1.338 1.338 0 0 0 .085-1.732 13.068 13.068 0 0 0-2.673-2.62C13.692 6.008 12.002 5.208 10 5.208c-1.41 0-2.666.397-3.735.956l.933.933A6.653 6.653 0 0 1 10 6.458c1.659 0 3.098.662 4.248 1.491a11.814 11.814 0 0 1 2.41 2.364.092.092 0 0 1 .022.061.1.1 0 0 1-.03.063 13.792 13.792 0 0 1-2.562 2.163c-.28.18-.574.352-.879.508Z" clip-rule="evenodd"/><path stroke="currentColor" stroke-linecap="round" stroke-width="1.5" d="m3.333 4.167 12.5 12.5"/></g></svg>