<svg xmlns="http://www.w3.org/2000/svg" width="20" height="20"><g fill="none" stroke="currentColor" stroke-width="1.5"><path stroke-linecap="round" stroke-linejoin="round" d="M8.578 15.294H5.65c-.65 0-1.06-.717-.755-1.291.643-1.207 1.478-2.973 1.478-4.003V8.333C6.373 6.667 8.21 5 10.049 5c1.839 0 3.676 1.667 3.676 3.333V10c0 1.22.9 2.709 1.704 3.797.435.59.027 1.497-.706 1.497H11.52m-2.942 0c0 .735-.141 2.206 1.471 2.206s1.47-1.47 1.47-2.206m-2.94 0h2.94"/><path d="M10 2.417a.917.917 0 1 1 0 1.833.917.917 0 0 1 0-1.833Z"/></g></svg>