<svg xmlns="http://www.w3.org/2000/svg" width="20" height="20"><g fill="none" stroke="currentColor" stroke-linecap="round" stroke-linejoin="round" stroke-width="1.5"><path fill="currentColor" d="M15.142 17.243C7.995 16.35 3.027 11.283 2.624 4.557a.8.8 0 0 1 .771-.837l3.692-.182a.833.833 0 0 1 .817.53l.689 1.768a.833.833 0 0 1-.367 1.028L6.01 8.113a.833.833 0 0 0-.187 1.309l4.547 4.646a.833.833 0 0 0 1.307-.149l1.377-2.257a.833.833 0 0 1 1.01-.344l1.765.677a.833.833 0 0 1 .531.852l-.324 3.658a.805.805 0 0 1-.894.738Z"/><path d="m11.596 8.124 3.908-3.908m0 0 .189 3.068m-.189-3.068-3.068-.188"/></g></svg>