<svg xmlns="http://www.w3.org/2000/svg" width="20" height="20"><g fill="none"><path stroke="currentColor" stroke-width="1.5" d="M6.635 2.815h6.636c.966 0 1.75.783 1.75 1.75v10.999a1.75 1.75 0 0 1-1.75 1.75H6.635a1.75 1.75 0 0 1-1.75-1.75v-11c0-.966.783-1.75 1.75-1.75Z"/><path fill="currentColor" d="M6.317 4.974c0-.402.325-.727.727-.727h5.818a.727.727 0 0 1 0 1.454H7.044a.727.727 0 0 1-.727-.727Z"/><path stroke="currentColor" stroke-width="1.5" d="M7.984 10.087h3.938c.506 0 .917.411.917.917v3.212c0 .506-.41.916-.917.916H7.984a.917.917 0 0 1-.917-.916v-3.212c0-.506.41-.917.917-.917Z"/><path stroke="currentColor" stroke-linecap="round" stroke-width="1.5" d="M4.862 7.156h10.182"/></g></svg>