<svg xmlns="http://www.w3.org/2000/svg" width="20" height="20"><g fill="none"><path stroke="currentColor" stroke-linecap="round" stroke-linejoin="round" stroke-width="1.5" d="M6.966 8.621H5.27a.833.833 0 0 0-.833.833v5.696c0 1.997 3.088 2.448 5.562 2.448 2.475 0 5.563-.451 5.563-2.448V9.454a.833.833 0 0 0-.834-.833h-1.695m-6.068 0V5.356C6.966 3.887 8.179 2.5 10 2.5c1.82 0 3.034 1.387 3.034 2.856v3.265m-6.068 0h6.068"/><path fill="currentColor" fill-rule="evenodd" d="M9.205 13.322a1.192 1.192 0 1 1 1.59 0v1.098a.795.795 0 0 1-1.59 0v-1.098Z" clip-rule="evenodd"/></g></svg>