<svg xmlns="http://www.w3.org/2000/svg" width="20" height="20"><g fill="none"><path fill="currentColor" fill-rule="evenodd" d="M4.052 9.297v6.15c0 2.134 3.302 2.617 5.948 2.617 2.646 0 5.948-.483 5.948-2.618v-6.15a.832.832 0 0 0-.834-.83H4.886a.832.832 0 0 0-.833.83Zm6.883 5.755v-1.19a1.275 1.275 0 1 0-1.7 0v1.19c0 .46.373.834.834.834h.032c.46 0 .834-.373.834-.833Z" clip-rule="evenodd"/><path stroke="currentColor" stroke-linecap="round" stroke-linejoin="round" stroke-width="1.5" d="M6.972 8.709V5.45c0-1.466 1.21-2.85 3.028-2.85 1.817 0 3.028 1.384 3.028 2.85"/></g></svg>