<svg xmlns="http://www.w3.org/2000/svg" width="20" height="20"><g fill="none"><path stroke="currentColor" stroke-linecap="round" stroke-linejoin="round" stroke-width="1.5" d="M6.964 8.683V5.417c0-1.47 1.214-2.859 3.036-2.859s3.036 1.388 3.036 2.859v3.266"/><path fill="currentColor" fill-rule="evenodd" d="M4.036 9.27v6.17c0 2.14 3.311 2.624 5.964 2.624 2.653 0 5.964-.484 5.964-2.625V9.271a.832.832 0 0 0-.833-.832H4.869a.832.832 0 0 0-.833.832Zm6.901 5.777V13.85a1.278 1.278 0 1 0-1.704 0v1.196c0 .46.373.833.833.833h.038c.46 0 .833-.373.833-.833Z" clip-rule="evenodd"/></g></svg>