<svg xmlns="http://www.w3.org/2000/svg" width="20" height="20"><g fill="none"><path stroke="currentColor" stroke-linecap="round" stroke-linejoin="round" stroke-width="1.5" d="M6.964 8.626H5.266a.833.833 0 0 0-.833.833v5.7c0 2 3.09 2.451 5.567 2.451 2.476 0 5.567-.452 5.567-2.45V9.459a.833.833 0 0 0-.833-.833h-7.77Zm0 0V5.359C6.964 3.889 8.178 2.5 10 2.5s3.037 1.388 3.037 2.859"/><path fill="currentColor" fill-rule="evenodd" d="M10.795 13.33v1.1a.795.795 0 0 1-1.59 0v-1.1a1.193 1.193 0 1 1 1.59 0Z" clip-rule="evenodd"/></g></svg>