<svg xmlns="http://www.w3.org/2000/svg" width="20" height="20"><g fill="none"><path stroke="currentColor" stroke-width="1.5" d="M16.852 8.31c0 .862-.038 1.524-.223 2.064-.17.497-.474.917-1.096 1.267-.663.373-1.104.526-1.562.597-.495.078-1.03.068-1.948.068-.681 0-1.25.34-1.539.906-.274.536-.25 1.175-.01 1.745.14.333.397.642.613.88.205.226.51.533.69.725.188.202.314.357.387.472-.123.16-.155.155-.198.166a2.26 2.26 0 0 1-.464.048c-.25.009-.568.008-1.008.008-4.78 0-7.808-3.24-7.808-7.256A7.314 7.314 0 0 1 10 2.686c1.995 0 3.716.896 4.95 2.088C16.21 5.99 16.852 7.4 16.852 8.31Z"/><circle cx="5.74" cy="8.648" r="1" fill="currentColor"/><circle cx="8.656" cy="5.965" r="1" fill="currentColor"/><circle cx="11.908" cy="5.965" r="1" fill="currentColor"/><circle cx="14.229" cy="8.648" r="1" fill="currentColor"/></g></svg>