<svg xmlns="http://www.w3.org/2000/svg" width="20" height="20"><g fill="none"><path fill="currentColor" d="M7.8 2.769c0-.46.374-.833.834-.833h2.732c.46 0 .833.373.833.833v.533c0 .46-.373.833-.833.833H8.634a.833.833 0 0 1-.833-.833v-.533Z"/><path stroke="currentColor" stroke-width="1.5" d="M5.618 4.019c0-.736.597-1.333 1.333-1.333h6.098c.736 0 1.333.597 1.333 1.333V15.98c0 .736-.597 1.333-1.333 1.333H6.95a1.333 1.333 0 0 1-1.333-1.333V4.02Z"/><path stroke="currentColor" stroke-linecap="round" stroke-width="1.5" d="M7.8 15.498h4.4"/></g></svg>