<svg xmlns="http://www.w3.org/2000/svg" width="20" height="20"><path fill="currentColor" stroke="currentColor" stroke-linecap="round" stroke-linejoin="round" stroke-width="1.5" d="M16.003 17.22C8.407 16.29 3.128 10.907 2.722 3.76a.801.801 0 0 1 .772-.838l3.982-.196a.833.833 0 0 1 .817.53l.756 1.939a.833.833 0 0 1-.367 1.029L6.25 7.594a.833.833 0 0 0-.187 1.309l4.892 5a.833.833 0 0 0 1.307-.15l1.508-2.472a.833.833 0 0 1 1.01-.344l1.936.743a.833.833 0 0 1 .532.852l-.35 3.95a.806.806 0 0 1-.895.739Z"/></svg>