<svg xmlns="http://www.w3.org/2000/svg" width="20" height="20"><g fill="none" stroke="currentColor" stroke-width="1.5"><path stroke-linecap="round" stroke-linejoin="round" d="M9.852 6.77h-5.45a.833.833 0 0 0-.834.833v4.483M9.852 6.77h5.45c.46 0 .834.373.834.834v4.483M9.852 6.77v10.634m0 0h-5.45a.833.833 0 0 1-.834-.833v-4.484m6.284 5.317h5.45c.46 0 .834-.373.834-.833v-4.484m-12.568 0h12.568"/><path d="M10.069 5.077a1.425 1.425 0 1 1-2.85 0 1.425 1.425 0 0 1 2.85 0Z"/><circle cx="11.785" cy="4.352" r="1.667"/></g></svg>