<svg xmlns="http://www.w3.org/2000/svg" width="20" height="20"><g fill="none"><path stroke="currentColor" stroke-linecap="round" stroke-width="1.5" d="M6.331 16.323V13.93c0-.69.56-1.25 1.25-1.25h5.327c.69 0 1.25.56 1.25 1.25v2.392c0 .69-.56 1.25-1.25 1.25H7.58c-.69 0-1.25-.56-1.25-1.25Z"/><path fill="currentColor" fill-rule="evenodd" d="M6.331 15.996H4.402a1.875 1.875 0 0 1-1.875-1.875V8.795c0-1.035.84-1.875 1.875-1.875h11.196c1.035 0 1.875.84 1.875 1.875v5.326c0 1.036-.84 1.875-1.875 1.875h-1.44v-1.25h1.44c.345 0 .625-.28.625-.625V8.795a.625.625 0 0 0-.625-.625H4.402a.625.625 0 0 0-.625.625v5.326c0 .345.28.625.625.625h1.93v1.25ZM8.18 4.303c0-.346.28-.625.625-.625h2.88c.346 0 .626.28.626.625v.706a.625.625 0 1 0 1.25 0v-.706c0-1.036-.84-1.875-1.875-1.875h-2.88A1.875 1.875 0 0 0 6.93 4.303v.706a.625.625 0 0 0 1.25 0v-.706Z" clip-rule="evenodd"/></g></svg>