<svg xmlns="http://www.w3.org/2000/svg" width="20" height="20"><g fill="none"><g clip-path="url(#a)"><path stroke="currentColor" stroke-width="1.5" d="M9.25 7.43a2.167 2.167 0 1 1-4.333 0 2.167 2.167 0 0 1 4.333 0Zm6.875-2.578a2.167 2.167 0 1 1-4.333 0 2.167 2.167 0 0 1 4.333 0Z"/><path stroke="currentColor" stroke-linecap="round" stroke-linejoin="round" stroke-width="1.5" d="M12.9 16.817c-.833.833-10.593.718-11.175.116C1.143 16.332 4.509 12.5 7.5 12.5c2.992 0 5.88 3.837 5.4 4.317Z"/><path fill="currentColor" fill-rule="evenodd" d="M12.68 13.76c.41.446.77.9 1.07 1.312l.198.009c.477.02 1.122.04 1.788.044.663.003 1.361-.01 1.94-.063.289-.026.564-.063.798-.116.202-.047.487-.13.693-.314.28-.25.352-.588.34-.869a2.135 2.135 0 0 0-.218-.799c-.237-.506-.655-1.058-1.175-1.564-1.03-1.004-2.617-1.973-4.336-1.973-.947 0-1.71.107-2.401.408-.693.302-1.255.775-1.837 1.409l-.211.23c.427.12.835.3 1.22.52.482-.511.885-.82 1.327-1.013.472-.205 1.044-.304 1.902-.304 1.272 0 2.562.74 3.464 1.618.447.435.76.868.915 1.2.043.092.069.166.084.221a4.88 4.88 0 0 1-.676.101 20.38 20.38 0 0 1-1.823.058 48.387 48.387 0 0 1-2.458-.078l-.04-.003h-.012l-.552-.034Z" clip-rule="evenodd"/></g><defs><clipPath id="a"><path fill="currentColor" d="M0 20h20V0H0z"/></clipPath></defs></g></svg>