<svg xmlns="http://www.w3.org/2000/svg" width="20" height="20"><g fill="none"><path fill="currentColor" d="M10.833 11.25c0-.23.187-.417.417-.417h1.667c.23 0 .416.187.416.417v1.667c0 .23-.186.416-.416.416H11.25a.417.417 0 0 1-.417-.416V11.25Zm2.5 2.5c0-.23.187-.417.417-.417h1.667c.23 0 .416.187.416.417v1.667c0 .23-.186.416-.416.416H13.75a.417.417 0 0 1-.417-.416V13.75Zm2.5-2.5c0-.23.187-.417.417-.417h1.667c.23 0 .416.187.416.417v1.667c0 .23-.186.416-.416.416H16.25a.417.417 0 0 1-.417-.416V11.25Zm0 5c0-.23.187-.417.417-.417h1.667c.23 0 .416.187.416.417v1.667c0 .23-.186.416-.416.416H16.25a.417.417 0 0 1-.417-.416V16.25Zm-5 0c0-.23.187-.417.417-.417h1.667c.23 0 .416.187.416.417v1.667c0 .23-.186.416-.416.416H11.25a.417.417 0 0 1-.417-.416V16.25Z"/><path stroke="currentColor" stroke-linejoin="round" stroke-width="1.5" d="M3.81 2.417h3.214c.77 0 1.392.623 1.393 1.392v3.215c0 .77-.624 1.393-1.393 1.393H3.809a1.393 1.393 0 0 1-1.392-1.393V3.81c0-.769.623-1.392 1.392-1.392Zm0 9.166h3.214c.77 0 1.392.624 1.393 1.393v3.215c0 .769-.624 1.392-1.393 1.392H3.809a1.393 1.393 0 0 1-1.392-1.392v-3.215c0-.77.623-1.393 1.392-1.393Zm9.166-9.166h3.215c.769 0 1.392.623 1.392 1.392v3.215c0 .77-.623 1.393-1.392 1.393h-3.215c-.77 0-1.393-.624-1.393-1.393V3.81c0-.769.624-1.392 1.393-1.392Z"/></g></svg>