<svg xmlns="http://www.w3.org/2000/svg" width="20" height="20"><g fill="none"><path stroke="currentColor" stroke-linejoin="round" stroke-width="1.5" d="M14.167 2.417h2.5c.506 0 .916.41.916.917v2.5c0 .506-.41.916-.916.916h-2.5a.917.917 0 0 1-.917-.916v-2.5c0-.507.41-.917.917-.917Zm-10.833 0h2.5c.506 0 .916.41.916.917v2.5c0 .506-.41.916-.916.916h-2.5a.917.917 0 0 1-.917-.916v-2.5c0-.507.41-.917.917-.917Zm0 10.833h2.5c.506 0 .916.41.916.917v2.5c0 .506-.41.916-.916.916h-2.5a.917.917 0 0 1-.917-.916v-2.5c0-.506.41-.917.917-.917Z"/><path fill="currentColor" d="M5 8.75c0-.23.187-.417.417-.417h.833c.23 0 .417.187.417.417v.833c0 .23-.187.417-.417.417h-.833A.417.417 0 0 1 5 9.583V8.75Zm5.417-7.083h.833c.23 0 .417.186.417.416v2.5c0 .23-.187.417-.417.417h-.833a.417.417 0 0 0-.417.417v.833c0 .23-.187.417-.417.417H8.75a.417.417 0 0 1-.417-.417v-2.5c0-.23.187-.417.417-.417h.833c.23 0 .417-.186.417-.416v-.834c0-.23.187-.416.417-.416Zm-3.75 8.75c0-.23.186-.417.416-.417h2.5c.23 0 .417.187.417.417v.833c0 .23-.187.417-.417.417h-2.5a.417.417 0 0 1-.416-.417v-.833ZM15 8.75c0-.23.187-.417.417-.417h2.5c.23 0 .416.187.416.417v.833c0 .23-.186.417-.416.417h-2.5A.417.417 0 0 1 15 9.583V8.75Zm-5 6.667c0-.23.187-.417.417-.417h2.5c.23 0 .416.187.416.417v.833c0 .23-.186.417-.416.417h-2.5A.417.417 0 0 1 10 16.25v-.833ZM8.333 13.75c0-.23.187-.417.417-.417h.833c.23 0 .417.187.417.417v.833c0 .23-.187.417-.417.417H8.75a.417.417 0 0 1-.417-.417v-.833ZM10 9.583V8.75c0-.23.187-.417.417-.417h2.5c.23 0 .416.187.416.417v2.917h1.25c.23 0 .417.186.417.416v.834c0 .23-.187.416-.417.416h-2.5a.417.417 0 0 1-.416-.416v-2.5A.417.417 0 0 0 11.25 10h-.833A.417.417 0 0 1 10 9.583Zm3.75 7.084h.833c.23 0 .417-.187.417-.417v-.833c0-.23.187-.417.417-.417h.833c.23 0 .417-.187.417-.417v-2.5c0-.23.186-.416.416-.416h.834c.23 0 .416.186.416.416v4.167c0 .23-.186.417-.416.417h-.834a.417.417 0 0 0-.416.416v.834c0 .23-.187.416-.417.416h-2.5a.417.417 0 0 1-.417-.416v-.834c0-.23.187-.416.417-.416ZM1.667 11.25v-2.5c0-.23.186-.417.416-.417h.834c.23 0 .416.187.416.417v.833c0 .23.187.417.417.417h.833c.23 0 .417.187.417.417v.833c0 .23-.187.417-.417.417h-2.5a.417.417 0 0 1-.416-.417Z"/><path fill="currentColor" d="M11.25 18.333h-2.5a.417.417 0 0 1-.417-.416v-.834c0-.23.187-.416.417-.416h.833c.23 0 .417-.187.417-.417v-.833c0-.23.187-.417.417-.417h2.5c.23 0 .416.187.416.417v.833c0 .23-.186.417-.416.417h-.834a.417.417 0 0 0-.416.416v.834c0 .23-.187.416-.417.416Z"/></g></svg>