<svg xmlns="http://www.w3.org/2000/svg" width="20" height="20"><g fill="none" stroke="currentColor" stroke-width="1.5"><path d="M10 2.542c1.815 0 3.41 1.262 4.006 3.104l.184.57.597-.053c.07-.007.141-.01.213-.01 1.371 0 2.583 1.224 2.583 2.861 0 1.638-1.212 2.86-2.583 2.86H5.833c-1.371 0-2.583-1.222-2.583-2.86 0-1.46.973-2.603 2.154-2.822l.444-.082.135-.43C6.571 3.82 8.174 2.542 10 2.542Z"/><path stroke-linecap="round" d="m5.828 14.547.747 2.791m3.319-2.791.748 2.791m3.318-2.791.748 2.791"/></g></svg>