<svg xmlns="http://www.w3.org/2000/svg" width="20" height="20"><g fill="none"><path stroke="currentColor" stroke-linecap="round" stroke-width="1.5" d="m13.56 2.609.979 2.519a.833.833 0 0 1-.475 1.078l-2.52.979M6.012 17.36l-.568-2.642a.833.833 0 0 1 .64-.99l2.642-.568"/><path fill="currentColor" fill-rule="evenodd" d="M14.583 6.316c.36-.177.47-.64.193-.93a6.667 6.667 0 0 0-11.41 5.627c.061.397.495.59.855.414a.694.694 0 0 0 .363-.722 5.417 5.417 0 0 1 9.206-4.54c.209.21.527.282.793.151ZM5.326 13.67a.694.694 0 0 1 .794.15 5.417 5.417 0 0 0 9.206-4.54.694.694 0 0 1 .363-.72c.36-.178.793.016.855.412A6.667 6.667 0 0 1 5.134 14.6c-.277-.29-.167-.753.192-.93Z" clip-rule="evenodd"/></g></svg>