<svg xmlns="http://www.w3.org/2000/svg" width="20" height="20"><g fill="none"><path stroke="currentColor" stroke-linecap="round" stroke-width="1.5" d="m13.942 2.633.568 2.642a.833.833 0 0 1-.64.99l-2.641.568"/><path fill="currentColor" fill-rule="evenodd" d="M5.108 8.34a5.167 5.167 0 0 1 7.715-2.669c.26.17.592.21.87.068.48-.245.576-.89.134-1.2a6.667 6.667 0 1 0 2.841 5.48c.002-.535-.572-.829-1.048-.586a.87.87 0 0 0-.455.754 5.172 5.172 0 0 1-6.826 4.706 5.167 5.167 0 0 1-3.231-6.554Z" clip-rule="evenodd"/></g></svg>