<svg xmlns="http://www.w3.org/2000/svg" width="20" height="20"><mask id="a" fill="currentColor"><path fill-rule="evenodd" d="M4.546 3.125a1.42 1.42 0 0 0-1.421 1.421v10.908a1.42 1.42 0 0 0 1.421 1.421h10.908a1.42 1.42 0 0 0 1.421-1.421V4.546a1.42 1.42 0 0 0-1.421-1.421H4.546Zm2.148 11.454a1.25 1.25 0 1 0 0-2.5 1.25 1.25 0 0 0 0 2.5ZM5.446 9.018c0-.345.28-.625.625-.625a5.536 5.536 0 0 1 5.536 5.536.625.625 0 0 1-1.25 0 4.286 4.286 0 0 0-4.286-4.286.625.625 0 0 1-.625-.625Zm.625-4.554a.625.625 0 0 0 0 1.25 8.214 8.214 0 0 1 8.215 8.215.625.625 0 1 0 1.25 0A9.463 9.463 0 0 0 6.07 4.464Z" clip-rule="evenodd"/></mask><g fill="currentColor"><path fill-rule="evenodd" d="M4.546 3.125a1.42 1.42 0 0 0-1.421 1.421v10.908a1.42 1.42 0 0 0 1.421 1.421h10.908a1.42 1.42 0 0 0 1.421-1.421V4.546a1.42 1.42 0 0 0-1.421-1.421H4.546Zm2.148 11.454a1.25 1.25 0 1 0 0-2.5 1.25 1.25 0 0 0 0 2.5ZM5.446 9.018c0-.345.28-.625.625-.625a5.536 5.536 0 0 1 5.536 5.536.625.625 0 0 1-1.25 0 4.286 4.286 0 0 0-4.286-4.286.625.625 0 0 1-.625-.625Zm.625-4.554a.625.625 0 0 0 0 1.25 8.214 8.214 0 0 1 8.215 8.215.625.625 0 1 0 1.25 0A9.463 9.463 0 0 0 6.07 4.464Z" clip-rule="evenodd"/><path d="m11.186 11.81-1.386.574 1.386-.574Zm-1.155.479-1.386.574 1.386-.574Zm-.93-1.39 1.061-1.062-1.06 1.061Zm-1.39-.93.574-1.386-.574 1.386Zm1.504-3.63L8.64 7.725l.574-1.386ZM11.88 8.12l-1.06 1.06 1.06-1.06Zm1.78 2.665-1.385.574 1.386-.574Zm.626 3.144h-1.5 1.5Zm.53-3.622-1.386.574 1.385-.574ZM9.692 5.185 9.12 6.57l.574-1.385Zm-8.068-.639a2.922 2.922 0 0 1 2.921-2.921v3a.078.078 0 0 0 .079-.079h-3Zm0 10.908V4.546h3v10.908h-3Zm2.921 2.921a2.922 2.922 0 0 1-2.921-2.921h3a.078.078 0 0 0-.079-.079v3Zm10.908 0H4.546v-3h10.908v3Zm2.921-2.921a2.922 2.922 0 0 1-2.921 2.921v-3a.078.078 0 0 0-.079.079h3Zm0-10.908v10.908h-3V4.546h3Zm-2.921-2.921a2.922 2.922 0 0 1 2.921 2.921h-3c0 .044.035.079.079.079v-3Zm-10.908 0h10.908v3H4.546v-3Zm4.898 11.704a2.75 2.75 0 0 1-2.75 2.75v-3a.25.25 0 0 0-.25.25h3Zm-2.75-2.75a2.75 2.75 0 0 1 2.75 2.75h-3c0 .138.112.25.25.25v-3Zm-2.75 2.75a2.75 2.75 0 0 1 2.75-2.75v3a.25.25 0 0 0 .25-.25h-3Zm2.75 2.75a2.75 2.75 0 0 1-2.75-2.75h3a.25.25 0 0 0-.25-.25v3ZM6.07 9.893a.875.875 0 0 0 .875-.875h-3c0-1.174.952-2.125 2.125-2.125v3Zm1.545.307a4.037 4.037 0 0 0-1.545-.307v-3c.924 0 1.84.182 2.693.535L7.616 10.2Zm1.309.875a4.037 4.037 0 0 0-1.31-.875l1.149-2.772a7.035 7.035 0 0 1 2.282 1.526l-2.121 2.12Zm.875 1.31c-.203-.49-.5-.935-.875-1.31l2.121-2.121a7.035 7.035 0 0 1 1.526 2.282L9.8 12.384Zm.307 1.544c0-.53-.104-1.055-.307-1.545l2.771-1.148c.354.854.536 1.769.536 2.693h-3Zm.875-.875a.875.875 0 0 0-.875.875h3a2.125 2.125 0 0 1-2.125 2.125v-3Zm.875.875a.875.875 0 0 0-.875-.875v3a2.125 2.125 0 0 1-2.125-2.125h3Zm-.44-2.215c.29.702.44 1.455.44 2.215h-3c0-.366-.072-.728-.212-1.066l2.772-1.149Zm-1.255-1.877a5.786 5.786 0 0 1 1.255 1.877l-2.772 1.149a2.786 2.786 0 0 0-.604-.904l2.121-2.122ZM8.285 8.583a5.79 5.79 0 0 1 1.877 1.254l-2.12 2.122a2.786 2.786 0 0 0-.905-.604l1.148-2.772Zm-2.214-.44c.76 0 1.512.15 2.214.44l-1.148 2.772c-.338-.14-.7-.212-1.066-.212v-3Zm.875.875a.875.875 0 0 0-.875-.875v3a2.125 2.125 0 0 1-2.125-2.125h3Zm-3-3.929c0-1.173.952-2.125 2.125-2.125v3a.875.875 0 0 0 .875-.875h-3Zm2.125 2.125A2.125 2.125 0 0 1 3.946 5.09h3a.875.875 0 0 0-.875-.875v3Zm2.57.511a6.715 6.715 0 0 0-2.57-.51v-3c1.276 0 2.54.25 3.718.739L8.64 7.725Zm2.178 1.456a6.714 6.714 0 0 0-2.178-1.456l1.148-2.771A9.715 9.715 0 0 1 12.94 7.06l-2.122 2.12Zm1.456 2.178a6.715 6.715 0 0 0-1.456-2.178l2.121-2.122a9.716 9.716 0 0 1 2.106 3.152l-2.771 1.148Zm.51 2.57c0-.882-.173-1.755-.51-2.57l2.771-1.148a9.715 9.715 0 0 1 .74 3.718h-3Zm2.126 2.125a2.125 2.125 0 0 1-2.125-2.125h3a.875.875 0 0 0-.875-.875v3Zm2.125-2.125a2.125 2.125 0 0 1-2.125 2.125v-3a.875.875 0 0 0-.875.875h3ZM16.2 9.733c.551 1.33.835 2.756.835 4.196h-3a7.964 7.964 0 0 0-.606-3.048L16.2 9.733Zm-2.377-3.557A10.965 10.965 0 0 1 16.2 9.733l-2.77 1.147a7.963 7.963 0 0 0-1.727-2.584l2.121-2.121Zm-3.557-2.377a10.964 10.964 0 0 1 3.557 2.377l-2.121 2.12A7.965 7.965 0 0 0 9.119 6.57l1.148-2.77ZM6.07 2.964c1.44 0 2.866.284 4.196.835L9.12 6.57a7.965 7.965 0 0 0-3.048-.606v-3Z" mask="url(#a)"/></g></svg>