<svg xmlns="http://www.w3.org/2000/svg" width="20" height="20"><g fill="none"><path fill="currentColor" stroke="currentColor" stroke-width="1.5" d="M13.112 4.16a1.157 1.157 0 1 1-2.315 0 1.157 1.157 0 0 1 2.315 0Z"/><path fill="currentColor" d="M10.1 7.501c.703 0 1.6.734 1.6.734-.874 1.867-1.6 2.511-1.6 3.997H8.156c1.524-3.138 1.09-3.044 1.946-4.731Z"/><path stroke="currentColor" stroke-linecap="round" stroke-linejoin="round" stroke-width="1.5" d="M11.7 8.235s-.897-.734-1.6-.734m1.6.734c-.874 1.867-1.6 2.511-1.6 3.997m1.6-3.997 1.005 3.546 2.821-1.768m-5.425-2.512c-.856 1.687-.422 1.593-1.946 4.731M10.1 7.501H7.513l-1.58 2.775m2.222 1.956c-1.176 2.079-3.681 5.053-3.681 5.053m3.68-5.053h1.947m0 0c1.215 2.079-.607 5.515-.607 5.515"/></g></svg>