<svg xmlns="http://www.w3.org/2000/svg" width="20" height="20"><g fill="none"><circle cx="10" cy="9.875" r="7.189" stroke="currentColor" stroke-width="1.5"/><path fill="currentColor" fill-rule="evenodd" d="M7.244 12.91c-.147.151-.381.192-.552.067a5.82 5.82 0 0 1-.394-.316.376.376 0 0 1-.028-.54c.957-1.03 2.275-1.667 3.73-1.667 1.507 0 2.867.683 3.831 1.778a.376.376 0 0 1-.043.54c-.13.107-.265.209-.404.304-.173.12-.406.073-.548-.082-.745-.807-1.76-1.29-2.836-1.29-1.038 0-2.02.45-2.756 1.206Z" clip-rule="evenodd"/><path fill="currentColor" d="M8.236 7.228a1.103 1.103 0 1 1-2.205 0 1.103 1.103 0 0 1 2.205 0Zm5.734 0a1.103 1.103 0 1 1-2.206 0 1.103 1.103 0 0 1 2.205 0Z"/></g></svg>