<svg xmlns="http://www.w3.org/2000/svg" width="20" height="20"><g fill="none" stroke="currentColor" stroke-linecap="round" stroke-linejoin="round" stroke-width="1.5"><path d="M6.318 2.721h-2.44a.833.833 0 0 0-.833.834v10.082c0 .245.108.477.294.635l3.564 3.03c.15.128.342.198.54.198h8.678c.46 0 .834-.373.834-.833V3.555a.833.833 0 0 0-.834-.834h-2.44m-7.363 0v4.383c0 .46.373.833.833.833h5.697c.46 0 .834-.373.834-.833V2.721m-7.364 0h7.364"/><path d="M7.392 17.5v-4.383c0-.46.373-.833.833-.833h3.55c.46 0 .833.373.833.833V17.5"/></g></svg>