<svg xmlns="http://www.w3.org/2000/svg" width="20" height="20"><path fill="currentColor" d="M16.86 17.921a.75.75 0 0 0 1.06-1.062l-1.06 1.062Zm-3.176-9.399a5.162 5.162 0 0 1-5.162 5.162v1.5a6.662 6.662 0 0 0 6.662-6.662h-1.5Zm-5.162 5.162A5.162 5.162 0 0 1 3.36 8.522h-1.5a6.662 6.662 0 0 0 6.662 6.662v-1.5ZM3.36 8.522A5.162 5.162 0 0 1 8.522 3.36v-1.5A6.662 6.662 0 0 0 1.86 8.522h1.5ZM8.522 3.36a5.162 5.162 0 0 1 5.162 5.162h1.5A6.662 6.662 0 0 0 8.522 1.86v1.5Zm3.643 9.88 4.695 4.681 1.06-1.062-4.696-4.68-1.059 1.062Z"/></svg>