<svg xmlns="http://www.w3.org/2000/svg" width="20" height="20"><g fill="none"><path fill="currentColor" fill-rule="evenodd" d="m7.997 16.35.594-.344-.049-.085-.015-.025-.017-.024-.057-.08-.016-.023-.018-.021-.064-.074-.02-.023-.02-.02-.071-.068-.02-.019-.022-.017-.075-.061-.024-.02-.025-.016-.081-.053-.025-.016-.026-.014-.085-.046-.025-.013-.026-.01-.09-.039-.027-.011-.03-.01-.092-.028-.027-.009-.028-.006-.095-.02-.029-.006-.028-.003-.096-.012-.03-.003h-.03l-.096-.003h-.029l-.028.001-.097.007-.03.002-.03.005-.095.015-.029.005-.028.007-.094.025.145.551-.151-.55-.118.033-.097.02-.099.013-.1.006h-.1l-.099-.008-.098-.014-.098-.021-.097-.028-.094-.034-.09-.04-.09-.047-.085-.053-.082-.059-.077-.064-.074-.07-.069-.074-.063-.079-.058-.083-.053-.087-.047-.091-.04-.093-.034-.097-.028-.099-.021-.1-.014-.1-.008-.103v-.103l.006-.102.013-.102.02-.1.032-.12-.622-.166.624.16.025-.096.007-.027.004-.028.016-.097.004-.029.002-.029.007-.098.002-.028-.001-.028-.002-.098v-.029l-.004-.028-.011-.098-.004-.028-.006-.027-.02-.096-.005-.028-.008-.027-.029-.094-.009-.028-.01-.027-.038-.091-.01-.025-.013-.025-.045-.087-.014-.025-.015-.025-.053-.082-.016-.025-.019-.024-.06-.077-.017-.021-.019-.02-.067-.072-.02-.021-.022-.02-.073-.064-.022-.019-.022-.017-.079-.057-.024-.018-.026-.015-.084-.05-.383.646.377-.649-.106-.061-.083-.056-.08-.062-.075-.068-.07-.072-.066-.077-.06-.082-.056-.086-.049-.089-.043-.092-.036-.095-.031-.098-.024-.1-.017-.1-.01-.102-.003-.103.003-.102.01-.103.017-.1.024-.1.03-.098.037-.095.043-.092.05-.09.054-.085.06-.082.066-.077.071-.072.076-.068.079-.061.083-.057.106-.061-.377-.65.383.647.084-.05.026-.015.024-.018.079-.057.022-.017.022-.019.073-.064.022-.02.02-.021.067-.072.019-.02.017-.021.06-.077.019-.024.016-.025.053-.082.015-.024.014-.026.045-.087.012-.024.01-.026.038-.09.011-.028.009-.028.029-.094.008-.027.005-.028.02-.096.006-.027.004-.028.01-.098.004-.028v-.03l.003-.097v-.028l-.001-.028-.007-.098-.002-.03-.004-.028-.016-.097-.004-.028L4.81 6.8l-.025-.095-.622.159.62-.166-.032-.12-.02-.1-.013-.102-.006-.102V6.17l.008-.102.014-.101.021-.1.028-.1.034-.096.04-.093.047-.09.053-.088.058-.083.063-.079.07-.074.073-.07.077-.064.082-.058.086-.053.089-.047.09-.04.094-.035.097-.028.098-.02.098-.015.1-.007h.1l.1.005.098.013.097.02.118.032.15-.55-.144.552.094.025.028.007.03.005.095.016.029.004.03.002.097.007.028.002h.029l.097-.003h.03l.029-.004.096-.012.028-.003.029-.006.095-.02.028-.006.027-.009.093-.029.029-.009.027-.011.09-.038.026-.011.025-.013.085-.046.026-.014.025-.016.08-.053.026-.017.024-.018.075-.062.022-.017.02-.019.07-.068.022-.02.019-.023.064-.074.018-.021.016-.023.057-.08.017-.024.015-.025.05-.085-.596-.345.599.34.061-.108.056-.084.061-.08.067-.078.072-.071.075-.066.08-.061.085-.056.087-.049.09-.043.093-.037.096-.03.097-.024.098-.017.1-.01.1-.004.099.004.1.01.097.017.097.024.096.03.093.037.09.043.087.05.085.055.08.06.075.067.072.071.067.077.061.08.056.085.061.108.467-.265-.466.27.05.085.014.025.018.024.056.08.017.023.018.021.063.074.02.023.021.02.07.068.02.02.022.016.076.062.023.018.025.017.082.053.024.016.026.014.086.046.025.013.025.01.09.039.028.011.029.01.092.028.028.009.028.006.095.02.028.006.029.003.096.012.03.003.029.001.097.002.028.001.029-.002.097-.007.03-.002.029-.004.095-.016.03-.005.027-.007.094-.025-.182-.697.19.695.118-.032.098-.02.098-.013.1-.006h.1l.1.008.098.014.097.021.097.028.094.034.09.04.09.048.086.053.08.058.079.064.073.07.07.074.063.08.058.082.052.087.047.091.04.093.034.097.028.099.021.1.014.101.008.102v.103l-.006.102-.013.102-.02.1-.032.12.602.16-.603-.153-.025.095-.007.027-.004.028-.016.097-.004.029-.002.029-.007.098-.002.028.001.028.002.098.001.029.003.028.012.098.003.028.006.027.02.096.005.028.009.027.028.094.009.028.011.027.037.091.01.026.014.024.045.087.013.026.015.024.053.082.016.025.019.024.06.077.017.021.019.02.067.072.02.021.022.02.074.064.02.019.024.017.078.057.024.018.026.015.084.05.245-.413-.242.416.106.061.084.057.079.061.075.068.07.072.067.077.06.082.055.086.05.089.042.092.037.095.03.098.024.1.017.1.01.103.004.102-.004.103-.01.102-.017.1-.024.1-.03.098-.037.095-.043.092-.049.09-.055.085-.06.082-.066.077-.07.072-.076.068-.08.062-.083.056-.106.061.242.415-.245-.412-.084.05-.026.015-.024.018-.079.057-.022.017-.021.019-.074.064-.022.02-.02.021-.067.072-.019.02-.017.021-.06.077-.019.024-.016.025-.053.082-.015.024-.013.026-.045.087-.013.024-.01.026-.038.09-.011.028-.009.028-.028.094-.009.027-.005.028-.02.096-.006.027-.003.028-.012.098-.003.028v.03l-.003.097v.028l.001.028.007.098.002.03.004.028.016.097.004.028.007.027.025.096.605-.155-.604.161.032.12.02.1.013.102.007.102-.001.103-.008.102-.014.101-.02.1-.029.1-.034.096-.04.093-.047.09-.052.088-.058.083-.064.079-.069.074-.074.07-.077.064-.081.059-.086.053-.09.047-.09.04-.094.034-.097.028-.097.02-.099.015-.1.008h-.099l-.1-.006-.098-.013-.098-.02-.118-.032-.19.694.182-.696-.094-.025-.028-.007-.029-.005-.095-.015-.03-.005-.03-.002-.096-.007-.029-.002h-.028l-.097.003h-.03l-.03.004-.095.012-.029.003-.028.006-.095.02-.028.006-.028.009-.092.029-.03.009-.027.011-.09.038-.025.011-.025.013-.086.046-.026.014-.024.016-.081.053-.026.017-.023.019-.076.06-.021.018-.02.02-.07.067-.022.02-.02.023-.063.074-.018.021-.017.023-.056.08-.018.024-.015.025-.049.085.466.27-.467-.265-.061.108-.056.085-.061.08-.067.077-.072.071-.075.066-.08.061-.085.056-.087.049-.09.043-.093.037-.096.03-.097.024-.098.017-.1.01-.099.004-.1-.004-.1-.01-.097-.017-.097-.024-.096-.03-.093-.037-.09-.043-.087-.05-.084-.055-.08-.06-.076-.067-.072-.071-.067-.077-.061-.08-.056-.085-.061-.108-.598.34Zm-4.42-9.33-.038-.14-.005-.02-.004-.02-.028-.141-.005-.021-.002-.022-.019-.143-.002-.02-.001-.02-.01-.145v-.207l.002-.02.01-.145.002-.02.003-.02.02-.144.003-.021.004-.021.03-.141.004-.02.006-.02.04-.14.005-.02.007-.019.048-.136.007-.02.008-.02.057-.131.009-.02.01-.02.066-.127.01-.018.01-.018.074-.123.01-.018.013-.018.082-.118.013-.017.013-.017.09-.112.013-.016.015-.015.097-.106.014-.015.016-.015.104-.098.015-.015.016-.013.11-.091.017-.014.018-.013.116-.083.018-.013.018-.011.122-.075.017-.01.019-.01.126-.067.02-.01.02-.01.13-.057.02-.01.02-.006.134-.05.02-.006.02-.006.137-.04.02-.006.021-.004.14-.03.021-.005.022-.003.141-.02.021-.003.022-.002.142-.01.021-.002h.022l.143-.001h.02l.022.001.142.01h.021l.021.003.142.019.022.003.021.004.14.028.02.005.02.005.138.038.059.015.037.006.039.003h.039l.038-.005.038-.009.037-.011.036-.015.035-.02.032-.02.031-.025.03-.028.025-.03.023-.033.035-.059.07-.12.01-.018.01-.017.08-.12.011-.018.013-.018.088-.114.012-.016.014-.016.094-.108.014-.016.015-.015.102-.102.014-.015.016-.014.108-.094.017-.014.017-.013.114-.087.016-.012.018-.012.12-.078.017-.012.019-.01.124-.071.019-.01.02-.01.128-.061.02-.01.02-.008.133-.052.02-.008.02-.006.136-.044.02-.006.02-.005.14-.034.02-.005.021-.004.14-.024.022-.004.022-.002.142-.015.02-.002h.021l.143-.006h.044l.143.005.02.001.02.002.143.015.022.002.021.004.14.024.022.004.021.005.138.034.021.005.02.006.136.044.02.006.02.008.133.052.02.008.02.01.129.061.02.01.018.01.124.07.019.01.018.013.12.078.017.012.017.012.113.087.018.013.016.014.108.095.016.013.014.015.102.102.015.015.014.016.094.108.014.016.013.016.087.114.013.018.012.018.079.12.011.017.01.018.071.125h-.001l.031.054.023.033.026.03.03.028.03.025.032.02.036.02.036.015.036.011.039.009.038.004.039.001.038-.003.038-.006.066-.017.132-.036.02-.005.02-.005.14-.028.022-.004.022-.003.141-.019.021-.003h.021l.142-.01.021-.001h.187l.021.003.143.01.02.002.022.003.141.02.022.003.021.005.14.03.02.004.02.006.138.04.02.006.02.007.134.049.02.007.02.009.13.058.02.008.02.01.127.067.018.01.017.01.122.076.018.011.018.013.116.083.018.013.017.014.11.09.016.014.015.015.105.098.015.015.014.015.098.106.014.015.013.016.09.112.014.017.012.017.082.118.013.018.01.018.075.123.01.018.01.018.066.128.01.019.008.02.057.132.008.02.008.02.048.135.006.02.006.02.04.138.005.02.004.02.03.142.004.02.003.022.02.143.003.02.002.021.01.144.002.021v.207l-.01.144v.02l-.003.021-.019.143-.002.022-.004.02-.028.142-.004.02-.006.02-.035.133-.017.067-.007.04-.003.042.001.041.005.04.009.042.011.038.016.038.02.037.02.033.025.032.028.03.03.026.031.023.058.034.117.07.018.01.017.011.119.08.018.012.018.014.112.088.017.013.015.014.107.095.016.014.015.016.1.102.015.015.014.016.093.11.014.016.012.017.086.116.012.016.011.018.078.12.012.019.01.018.07.126.01.019.008.019.061.13.01.02.007.02.052.134.007.02.006.02.043.137.006.02.005.02.034.14.005.02.003.022.024.142.004.021.002.021.014.144.002.02v.02l.006.144v.044l-.005.144-.001.02-.002.02-.014.144-.002.021-.004.021-.024.143-.003.02-.005.02-.034.141-.005.02-.006.02-.043.138-.006.02-.007.019-.052.134-.008.02-.009.02-.06.13-.01.02-.01.018-.07.126-.01.018-.01.018-.079.122-.01.017-.013.016-.086.116-.012.017-.014.016-.093.11-.014.016-.015.015-.1.102-.015.016-.016.014-.107.096-.015.013-.017.013-.112.088-.018.014-.018.012-.119.08-.017.011-.018.01-.117.07-.058.034-.031.024-.03.026-.028.03-.025.03-.02.034-.02.037-.016.038-.011.038-.009.041-.005.04v.042l.002.042.007.04.017.067.035.133.006.02.004.02.028.141.004.021.002.022.019.143.002.02.002.021.009.144v.207l-.002.02-.01.145-.002.02-.003.021-.02.143-.003.021-.004.021-.03.142-.004.02-.006.02-.039.139-.005.02-.007.019-.048.136-.008.02-.008.02-.057.131-.009.02-.01.02-.066.127-.009.018-.01.018-.074.123-.011.018-.013.018-.082.118-.012.017-.014.017-.09.112-.013.016-.014.015-.098.106-.014.015-.015.015-.105.098-.015.015-.016.013-.11.092-.017.013-.018.013-.116.083-.018.013-.018.011-.122.075-.017.011-.018.01-.127.067-.02.01-.02.009-.13.057-.02.01-.02.007-.134.048-.02.007-.02.006-.137.04-.02.006-.021.004-.14.03-.021.005-.022.003-.141.02-.021.003-.021.002-.143.01-.021.002h-.022l-.142.001h-.021l-.022-.001-.142-.009-.021-.001-.021-.003-.141-.019-.022-.002-.022-.005-.14-.028-.02-.004-.02-.006-.132-.036-.066-.017-.038-.006-.038-.003-.04.001-.037.005-.039.008-.036.011-.036.015-.036.02-.032.02-.03.025-.03.028-.026.03-.023.033-.031.053.001.001-.071.125-.01.018-.011.017-.079.12-.012.018-.013.018-.087.114-.013.017-.014.015-.094.108-.014.016-.015.016-.101.101-.015.015-.016.014-.108.094-.016.014-.018.013-.114.087-.016.012-.018.012-.12.079-.017.011-.019.01-.124.071-.019.01-.02.01-.128.061-.02.01-.02.008-.133.052-.02.008-.02.006-.136.044-.02.006-.02.005-.139.034-.021.005-.021.004-.14.024-.022.004-.022.002-.142.015-.02.002h-.021l-.143.006H9.89l-.143-.005-.02-.001-.02-.002-.143-.015-.022-.002-.021-.004-.14-.024-.022-.004-.02-.005-.14-.034-.02-.005-.02-.006-.136-.044-.02-.006-.02-.008-.133-.052-.02-.008-.02-.01-.129-.061-.019-.01-.019-.01-.124-.07-.019-.01-.018-.012-.12-.08-.017-.01-.016-.013-.114-.087-.017-.013-.017-.014-.108-.094-.016-.014-.014-.015-.102-.101-.015-.016-.014-.016-.094-.108-.014-.015-.012-.017-.088-.114-.013-.018-.012-.018-.079-.12-.01-.017-.01-.018-.07-.12-.035-.06-.023-.032-.026-.03-.029-.028-.03-.025-.033-.02-.035-.02-.036-.015-.037-.011-.038-.008-.038-.005h-.04l-.038.002-.037.006-.059.015-.137.038-.02.006-.021.004-.14.028-.021.005-.022.002-.142.019-.02.003-.022.001-.142.009-.021.001h-.186l-.021-.002-.142-.011-.022-.002-.02-.003-.142-.02-.022-.003-.021-.005-.14-.03-.02-.004-.02-.006-.138-.04-.02-.006-.02-.007-.134-.048-.02-.008-.02-.009-.13-.057-.02-.01-.02-.01-.126-.066-.019-.01-.017-.01-.122-.076-.018-.011-.018-.013-.116-.083-.018-.013-.016-.013-.11-.092-.017-.013-.015-.015-.104-.098-.016-.015-.014-.015-.097-.106-.015-.015-.013-.016-.09-.112-.013-.017-.013-.017-.082-.118-.012-.018-.011-.018-.074-.123-.01-.018-.01-.018-.066-.128-.01-.019-.009-.02-.057-.132-.008-.02-.007-.02-.048-.135-.007-.02-.006-.02-.039-.138-.006-.02-.004-.02-.03-.142-.004-.02-.003-.022-.02-.143-.003-.02-.001-.021-.011-.144-.002-.021v-.206l.01-.145v-.02l.003-.021.019-.143.002-.022.005-.02.028-.142.004-.02.005-.02.037-.14h.001l.016-.06.006-.04.003-.042-.001-.041-.005-.04-.008-.042-.012-.038-.016-.038-.019-.037-.021-.033-.025-.032-.028-.03-.03-.025-.031-.024-.054-.032-.124-.071-.018-.01-.017-.012-.118-.08-.019-.012-.017-.014-.113-.088-.017-.013-.015-.013-.107-.096-.016-.014-.015-.016-.1-.102-.015-.015-.013-.016-.093-.11-.014-.016-.013-.017-.086-.116-.012-.016-.011-.018-.078-.12-.011-.019-.01-.018-.07-.126-.01-.019-.009-.019-.06-.13-.01-.02-.008-.02-.051-.134-.008-.02-.006-.02-.043-.137-.006-.02-.005-.02-.033-.14-.005-.02-.004-.022-.024-.142-.003-.02-.002-.022-.015-.144-.002-.02v-.02l-.005-.144-.001-.022v-.022l.006-.144v-.02l.002-.02.015-.144.002-.021.003-.021.024-.142.004-.021.005-.02.033-.14.005-.021.006-.02.043-.138.006-.02.008-.019.051-.134.008-.02.01-.02.06-.13.009-.02.01-.018.07-.126.01-.018.011-.018.078-.121.011-.018.012-.016.086-.116.013-.017.014-.016.093-.11.013-.016.015-.015.1-.102.015-.016.016-.014.107-.095.015-.014.017-.013.113-.088.017-.014.019-.012.118-.08.017-.011.018-.01.123-.073.055-.031.032-.023.03-.027.027-.03.025-.03.021-.034.02-.037.015-.038.012-.038.008-.041.005-.04v-.042L3.6 7.12l-.006-.04-.016-.06Z" clip-rule="evenodd"/><path stroke="currentColor" stroke-width="1.5" d="M9.782 7.374a2.422 2.422 0 0 1 2.417 2.427 2.423 2.423 0 0 1-2.417 2.428A2.422 2.422 0 0 1 7.366 9.8a2.422 2.422 0 0 1 2.416-2.427Z"/></g></svg>