<svg xmlns="http://www.w3.org/2000/svg" width="20" height="20"><g fill="none" stroke="currentColor" stroke-width="1.5"><path stroke-linecap="round" d="M7.917 10.1 6.25 13.017M7.917 10.1H6.25a.833.833 0 0 1-.833-.833v-5m2.5 5.833h6.151a.833.833 0 0 0 .746-.46l2.083-4.167a.833.833 0 0 0-.745-1.206H5.417m.833 8.75H15m-8.75 0h-.833m0-8.75L4.814 3.06a.833.833 0 0 0-.746-.46H2.917"/><path d="M13.25 14.9a1.75 1.75 0 1 0 3.5 0 1.75 1.75 0 0 0-3.5 0Zm-10 0a1.75 1.75 0 1 0 3.5 0 1.75 1.75 0 0 0-3.5 0Z"/></g></svg>