<svg xmlns="http://www.w3.org/2000/svg" width="20" height="20"><g fill="none"><path stroke="currentColor" stroke-width="1.5" d="M9.605 3.25c1.713 0 3.204 1.16 3.76 2.831l.187.563.59-.052c.066-.006.133-.009.2-.009 1.292 0 2.408 1.119 2.408 2.584s-1.116 2.583-2.408 2.583H5.658c-1.292 0-2.408-1.118-2.408-2.583 0-1.308.895-2.347 2.005-2.548l.442-.08.139-.427c.547-1.688 2.047-2.862 3.77-2.862Z"/><circle cx="5.833" cy="15" r=".833" fill="currentColor"/><circle cx="14.167" cy="15" r=".833" fill="currentColor"/><circle cx="10" cy="15" r=".833" fill="currentColor"/><circle cx="11.667" cy="17.5" r=".833" fill="currentColor"/><circle cx="7.5" cy="17.5" r=".833" fill="currentColor"/></g></svg>