<svg xmlns="http://www.w3.org/2000/svg" width="20" height="20"><g fill="none"><path stroke="currentColor" stroke-width="1.5" d="m13.365 6.081.187.563.59-.052c.066-.006.133-.009.2-.009 1.292 0 2.408 1.118 2.408 2.584 0 1.465-1.116 2.583-2.408 2.583H5.658c-1.292 0-2.408-1.118-2.408-2.583 0-1.308.895-2.348 2.005-2.548l.442-.08.139-.427c.547-1.688 2.046-2.862 3.77-2.862 1.712 0 3.203 1.16 3.759 2.831Z"/><circle cx="5.833" cy="15" r=".833" fill="currentColor"/><circle cx="14.167" cy="15" r=".833" fill="currentColor"/><circle cx="10" cy="15" r=".833" fill="currentColor"/><circle cx="11.667" cy="17.5" r=".833" fill="currentColor"/><circle cx="7.5" cy="17.5" r=".833" fill="currentColor"/></g></svg>