<svg xmlns="http://www.w3.org/2000/svg" width="20" height="20"><g fill="none" stroke="currentColor" stroke-width="1.5"><path d="M15.002 15.464a1.75 1.75 0 0 1-1.75 1.75H6.748a1.75 1.75 0 0 1-1.75-1.75V4.536c0-.967.784-1.75 1.75-1.75h6.504c.966 0 1.75.783 1.75 1.75v10.928Z"/><path d="M7.21 11.77a2.79 2.79 0 1 1 5.58 0 2.79 2.79 0 0 1-5.58 0Z"/><path fill="currentColor" d="M9.423 6.018a.577.577 0 1 1 1.154 0 .577.577 0 0 1-1.154 0Zm.442 5.752a.135.135 0 1 1 .27 0 .135.135 0 0 1-.27 0Z"/></g></svg>