<svg xmlns="http://www.w3.org/2000/svg" width="20" height="20"><path fill="none" stroke="currentColor" stroke-linecap="round" stroke-width="1.5" d="M8.333 13.822V6.179a.833.833 0 0 0-1.422-.59L5.244 7.256a.833.833 0 0 1-.59.244h-1.32a.833.833 0 0 0-.834.833v3.334c0 .46.373.833.833.833h1.322a.84.84 0 0 1 .59.244l1.666 1.667a.833.833 0 0 0 1.422-.59Zm6.76-11.112A10.774 10.774 0 0 1 17.92 10c0 2.794-1.06 5.34-2.8 7.26M12.86 5.275a6.998 6.998 0 0 1 1.836 4.735 6.998 6.998 0 0 1-1.818 4.715m-2.41-7.064c.576.631.927 1.47.927 2.392 0 .916-.348 1.751-.918 2.38"/></svg>