<svg xmlns="http://www.w3.org/2000/svg" width="20" height="20"><path fill="none" stroke="currentColor" stroke-linecap="round" stroke-width="1.5" d="M9.167 13.822V6.179a.833.833 0 0 0-1.423-.59L6.077 7.256a.833.833 0 0 1-.589.244H4.167a.833.833 0 0 0-.834.833v3.334c0 .46.373.833.834.833h1.321c.221 0 .433.088.59.244l1.666 1.667a.833.833 0 0 0 1.423-.59Zm4.543-8.547a6.997 6.997 0 0 1 1.837 4.735 6.998 6.998 0 0 1-1.818 4.715m-2.411-7.064c.576.631.927 1.47.927 2.392 0 .916-.347 1.751-.918 2.38"/></svg>