<svg xmlns="http://www.w3.org/2000/svg" width="20" height="20"><g fill="none"><path fill="currentColor" stroke="currentColor" stroke-width="1.5" d="M14.29 4.15a.875.875 0 1 1 0 1.75.875.875 0 0 1 0-1.75Z"/><path stroke="currentColor" stroke-linecap="round" stroke-linejoin="round" stroke-width="1.5" d="M11.484 3.838H4.167m4.621 2.311H4.937m1.54 2.311h-3.85"/><path fill="currentColor" stroke="currentColor" stroke-width="1.5" d="M14.33 4.15a.875.875 0 1 1 0 1.75.875.875 0 0 1 0-1.75Z"/><path fill="currentColor" d="M12.751 7.87c.6 0 1.363.626 1.363.626-.745 1.591-1.363 2.14-1.363 3.406h-1.657c1.298-2.674.928-2.594 1.657-4.031Z"/><path stroke="currentColor" stroke-linecap="round" stroke-linejoin="round" stroke-width="1.5" d="M14.114 8.496s-.764-.625-1.363-.625m1.363.625c-.745 1.591-1.363 2.14-1.363 3.406m1.363-3.406.856 3.022 2.404-1.507m-4.623-2.14c-.729 1.437-.36 1.357-1.657 4.03m1.657-4.03h-2.204L9.2 10.235m1.894 1.667c-1.002 1.77-3.136 4.305-3.136 4.305m3.136-4.305h1.657m0 0c1.036 1.77-.517 4.699-.517 4.699"/></g></svg>