<svg xmlns="http://www.w3.org/2000/svg" width="20" height="20"><path fill="none" stroke="currentColor" stroke-linejoin="round" stroke-width="1.5" d="M9.753 3.074a.271.271 0 0 1 .494 0l1.983 4.364a.27.27 0 0 0 .215.157l4.78.568a.271.271 0 0 1 .141.477l-3.571 2.962a.271.271 0 0 0-.093.263l1.024 4.987a.271.271 0 0 1-.408.285l-4.175-2.59a.27.27 0 0 0-.286 0l-4.175 2.59a.271.271 0 0 1-.409-.285l1.024-4.987a.271.271 0 0 0-.092-.263L2.634 8.64a.271.271 0 0 1 .14-.477l4.78-.568a.271.271 0 0 0 .216-.157l1.983-4.364Z"/></svg>