<svg xmlns="http://www.w3.org/2000/svg" width="20" height="20"><g fill="none"><circle cx="10" cy="10" r="3.497" stroke="currentColor" stroke-width="1.5"/><path fill="currentColor" fill-rule="evenodd" d="M10.625 2.567a.625.625 0 1 0-1.25 0v2.11a5.415 5.415 0 0 1 1.25 0v-2.11Zm0 12.755v2.11a.625.625 0 1 1-1.25 0v-2.11a5.419 5.419 0 0 0 1.25 0Zm6.808-4.697a.625.625 0 0 0 0-1.25h-2.11a5.42 5.42 0 0 1 0 1.25h2.11Zm-12.755 0a5.412 5.412 0 0 1 0-1.25h-2.11a.625.625 0 0 0 0 1.25h2.11Zm11.02-5.439a.625.625 0 1 0-.884-.884l-1.493 1.493a5.418 5.418 0 0 1 .884.884l1.493-1.493Zm-9.02 9.02a5.407 5.407 0 0 1-.883-.885l-1.493 1.493a.625.625 0 0 0 .884.884l1.493-1.493ZM5.186 4.302a.625.625 0 1 0-.884.884L5.795 6.68a5.415 5.415 0 0 1 .884-.884L5.186 4.302Zm9.02 9.02a5.41 5.41 0 0 1-.884.883l1.492 1.493a.625.625 0 0 0 .884-.884l-1.493-1.493Z" clip-rule="evenodd"/></g></svg>