<svg xmlns="http://www.w3.org/2000/svg" width="20" height="20"><g fill="none"><path stroke="currentColor" stroke-width="1.5" d="M8.517 8.363c1.56 0 2.922 1.057 3.43 2.585l.186.562.59-.051c.06-.006.12-.008.181-.008 1.164 0 2.175 1.007 2.175 2.337 0 1.33-1.011 2.337-2.175 2.338H4.86c-1.163 0-2.174-1.009-2.174-2.338 0-1.187.811-2.124 1.811-2.305l.443-.08.138-.427c.5-1.543 1.87-2.613 3.439-2.613Z"/><path fill="currentColor" fill-rule="evenodd" d="M9.035 5.106a.526.526 0 0 0-.66.82l1.126.904a3.66 3.66 0 0 1 .659-.821l-1.125-.903Zm6.724 5.398a3.668 3.668 0 0 1-.659.821l1.125.903a.526.526 0 1 0 .659-.82l-1.125-.904Zm2.397-2.441a.526.526 0 0 1-.466.58l-1.434.157a3.653 3.653 0 0 0-.114-1.047l1.434-.156a.526.526 0 0 1 .58.466ZM12.025 3.14a.526.526 0 0 1 .58.467l.158 1.434a3.659 3.659 0 0 0-1.047.115L11.56 3.72a.526.526 0 0 1 .465-.58Zm4.085 1.192a.526.526 0 0 1 .081.74l-.903 1.125a3.65 3.65 0 0 0-.82-.66l.902-1.124a.526.526 0 0 1 .74-.081ZM9.875 7.84a2.877 2.877 0 1 1 4.373 3.205 2.789 2.789 0 0 0-1.59-.334 4.846 4.846 0 0 0-.08-.221 1.823 1.823 0 1 0-1.738-2.175 4.265 4.265 0 0 0-.965-.476Z" clip-rule="evenodd"/></g></svg>