<svg xmlns="http://www.w3.org/2000/svg" width="20" height="20"><g fill="none"><path fill="currentColor" fill-rule="evenodd" d="M5.162 10.43a.471.471 0 0 1 .015-.725L7.1 8.174a.471.471 0 0 0 0-.737L5.177 5.905a.471.471 0 0 1-.015-.725l.223-.192a.471.471 0 0 1 .601-.012l2.849 2.268c.383.305.383.818 0 1.123l-2.849 2.267a.471.471 0 0 1-.601-.011l-.223-.193Z" clip-rule="evenodd"/><path stroke="currentColor" stroke-width="1.5" d="M2.537 4.426c0-1.043.846-1.888 1.89-1.888h11.147c1.043 0 1.888.845 1.888 1.888v11.148a1.889 1.889 0 0 1-1.888 1.888H4.426a1.889 1.889 0 0 1-1.889-1.888V4.426Z"/><path fill="currentColor" d="M8.244 11.175c0-.261.212-.473.472-.473h4.03c.262 0 .473.212.473.473v.548c0 .26-.211.472-.472.472h-4.03a.472.472 0 0 1-.473-.472v-.548Z"/></g></svg>