<svg xmlns="http://www.w3.org/2000/svg" width="20" height="20"><g fill="none"><path stroke="currentColor" stroke-linecap="round" stroke-width="1.5" d="M8.07 11.59c.2-1.702.624-2.974 1.866-2.974s2 .944 2 2.545c0 1.6-.69 4.258-1.267 5.887"/><path stroke="currentColor" stroke-linecap="round" stroke-width="1.5" d="M10.012 10.924c-.113 1.418-.507 4.462-1.183 5.296"/><path fill="currentColor" fill-rule="evenodd" d="M4.545 15.718c.282.269.583.517.902.742a14.823 14.823 0 0 0 1.26-3.575.568.568 0 1 0-1.114-.228 13.689 13.689 0 0 1-1.048 3.061Zm1.417 1.076a7.79 7.79 0 0 0 1.017.51c.12-.258.24-.536.358-.82.387-.935.754-1.968.974-2.666a.568.568 0 0 0-1.084-.343 34.54 34.54 0 0 1-.94 2.575c-.11.262-.218.514-.325.744ZM3.29 14.18c.228.365.485.71.768 1.031.397-.789.742-1.633.84-2.291a.568.568 0 0 0-1.125-.166c-.055.372-.234.877-.483 1.427Z" clip-rule="evenodd"/><path fill="currentColor" fill-rule="evenodd" d="m13.092 17.285.218-.764c.121-.423.244-.853.364-1.287.417-1.515.79-3.084.79-4.45 0-1.381-.382-2.623-1.15-3.53-.778-.919-1.908-1.439-3.277-1.439-1.385 0-2.512.569-3.282 1.5-.76.918-1.144 2.153-1.144 3.47a.625.625 0 1 0 1.25 0c0-1.084.316-2.02.857-2.674.531-.642 1.304-1.046 2.319-1.046 1.03 0 1.8.38 2.323.997.533.629.853 1.56.853 2.723 0 1.178-.326 2.6-.744 4.117-.111.403-.228.813-.346 1.225a95.568 95.568 0 0 0-.45 1.604 7.868 7.868 0 0 0 1.42-.446Z" clip-rule="evenodd"/><path fill="currentColor" fill-rule="evenodd" d="M15.567 15.632c.44-1.351.765-2.841.765-4.298 0-2.277-.49-4.178-1.557-5.522-1.085-1.369-2.699-2.072-4.738-2.072-2.065 0-3.639.802-4.678 2.17-1.022 1.345-1.48 3.174-1.48 5.173a.625.625 0 1 0 1.25 0c0-1.83.422-3.36 1.225-4.417.785-1.033 1.977-1.676 3.683-1.676 1.73 0 2.952.582 3.76 1.599.825 1.04 1.285 2.623 1.285 4.745 0 1.92-.645 3.974-1.359 5.65.68-.36 1.3-.817 1.844-1.352Z" clip-rule="evenodd"/><path stroke="currentColor" stroke-linecap="round" stroke-width="1.5" d="M2.862 12.15a7.463 7.463 0 0 1 1.616-7.035m1.926-1.539a7.463 7.463 0 0 1 7.809.333m1.837 1.767a7.463 7.463 0 0 1 1.014 6.93"/></g></svg>