<svg xmlns="http://www.w3.org/2000/svg" width="20" height="20"><g fill="none"><path fill="currentColor" fill-rule="evenodd" d="M5.479 2.658C6.74 2.057 8.39 1.936 10 1.936c1.61 0 3.26.12 4.521.722.647.308 1.213.752 1.613 1.383.399.631.6 1.4.6 2.306v7.895c0 .396-.134.756-.414 1.035-.257.257-.586.392-.887.475a6.11 6.11 0 0 1-1.006.164l1.28 2.148-1.528-.015-1.31-2.024a55.64 55.64 0 0 1-5.643.005l-1.405 2.02H4.303l1.336-2.114a6.492 6.492 0 0 1-1.022-.143c-.312-.077-.657-.21-.926-.476-.293-.29-.424-.665-.424-1.074V6.347c0-.906.2-1.675.6-2.306.399-.631.964-1.075 1.612-1.383Zm-.435 2.127c-.232.367-.384.865-.384 1.562v7.895c0 .056.008.079.01.082 0 0-.002 0 0 .001.013.013.078.064.281.114.338.084.785.109 1.388.143.174.01.361.02.563.034 1.908.122 4.417.12 6.302-.007l.24-.016c.727-.049 1.252-.084 1.62-.185.19-.052.256-.102.272-.117a.219.219 0 0 0 .004-.05V6.348c0-.697-.152-1.195-.384-1.562-.231-.366-.573-.65-1.034-.87C12.968 3.461 11.6 3.33 10 3.33c-1.599 0-2.968.132-3.922.586-.46.22-.803.504-1.034.87Z" clip-rule="evenodd"/><path stroke="currentColor" stroke-width="1.5" d="M13.715 5.942v3.47c0 .078-.721.13-1.715.16a72.78 72.78 0 0 1-3.934.001c-1.027-.028-1.781-.082-1.781-.16v-3.47c0-.854 1.74-.989 3.715-.989 1.974 0 3.715.135 3.715.988Z"/><circle cx="7.214" cy="12.384" r=".75" fill="currentColor" stroke="currentColor" stroke-width="1.286"/><circle cx="12.786" cy="12.384" r=".75" fill="currentColor" stroke="currentColor" stroke-width="1.286"/></g></svg>