<svg xmlns="http://www.w3.org/2000/svg" width="20" height="20"><g fill="none"><g clip-path="url(#a)"><path fill="currentColor" d="M11.202 5.333a.75.75 0 0 0 0-1.5v1.5ZM1.75 14.167c0 .601.49.872.697.96.247.106.527.152.743.176a5.999 5.999 0 0 0 .807.032l.058-.002h.025l-.034-.75-.034-.749h-.011a6.387 6.387 0 0 1-.192.003 4.48 4.48 0 0 1-.453-.024 1.332 1.332 0 0 1-.32-.065c-.02-.009.021.004.076.062a.526.526 0 0 1 .138.357h-1.5Zm17.75-.417v-2.5H18v2.5h1.5Zm0-2.5v-2.5H18v2.5h1.5Zm-1.167-3.667h-1.25v1.5h1.25v-1.5Zm-1.25 0h-1.666v1.5h1.666v-1.5Zm-3.333 0h-3.514v1.5h3.514v-1.5Zm-12-2.587v9.171h1.5V4.996h-1.5Zm8.82 2.92V4.584h-1.5v3.334h1.5ZM2.917 5.334H9.82v-1.5H2.917v1.5Zm6.903 0h1.382v-1.5H9.82v1.5Zm3.93 3.75h1.667v-1.5H13.75v1.5Zm-2.083 6.25h1.905v-1.5h-1.905v1.5Zm5.833-.416h.833v-1.5H17.5v1.5Zm-7.264-7.334c.185 0 .334.15.334.334h-1.5c0 .644.522 1.166 1.166 1.166v-1.5ZM3.25 4.996c0 .194-.16.337-.333.337v-1.5c-.635 0-1.167.509-1.167 1.163h1.5ZM19.5 8.75c0-.644-.522-1.167-1.167-1.167v1.5A.333.333 0 0 1 18 8.75h1.5Zm-1.5 5c0-.184.15-.333.333-.333v1.5c.645 0 1.167-.523 1.167-1.167H18Z"/><path stroke="currentColor" stroke-width="1.5" d="M4.463 9.167V7.5c0-.46.373-.833.833-.833h1.667c.46 0 .833.373.833.833v1.667c0 .46-.373.833-.833.833H5.296a.833.833 0 0 1-.833-.833Zm9.704-.834V6.25c0-.23.186-.417.416-.417h.834c.23 0 .416.187.416.417v2.083"/><circle cx="5.962" cy="14.587" r="1.49" stroke="currentColor" stroke-width="1.5"/><circle cx="9.875" cy="14.587" r="1.49" stroke="currentColor" stroke-width="1.5"/><circle cx="15.549" cy="14.587" r="1.49" stroke="currentColor" stroke-width="1.5"/></g><defs><clipPath id="a"><path fill="currentColor" d="M0 20h20V0H0z"/></clipPath></defs></g></svg>