<svg xmlns="http://www.w3.org/2000/svg" width="20" height="20"><path fill="currentColor" fill-rule="evenodd" d="M10.31 3.99a6.02 6.02 0 0 1 5.426 4.193h1.079c.69 0 1.25.56 1.25 1.25v1.134c0 .69-.56 1.25-1.25 1.25h-1.078a6.02 6.02 0 0 1-5.736 4.2l-.31-.008a6.019 6.019 0 0 1-5.426-4.192H3.186l-.128-.006a1.25 1.25 0 0 1-1.122-1.244V9.433c0-.647.492-1.18 1.122-1.244l.128-.006h1.078A6.02 6.02 0 0 1 10 3.983l.31.008Zm-4.716 7.827a4.767 4.767 0 0 0 8.813 0H5.594Zm-2.408-1.25h13.629V9.433H3.186v1.134Zm6.815-5.334a4.768 4.768 0 0 0-4.407 2.95h8.813A4.768 4.768 0 0 0 10 5.233Z" clip-rule="evenodd"/></svg>