<svg xmlns="http://www.w3.org/2000/svg" width="20" height="20"><g fill="none"><path fill="currentColor" d="M8.986 12.177a.417.417 0 0 0-.394-.28H6.788a.417.417 0 0 0-.393.28l-.272.786a.417.417 0 0 1-.394.28h-.94a.417.417 0 0 1-.384-.576L6.78 6.924a.417.417 0 0 1 .385-.257h1.051c.168 0 .32.1.385.256l2.39 5.743a.417.417 0 0 1-.384.577H9.65a.417.417 0 0 1-.393-.28l-.272-.786Zm-1.92-1.94a.417.417 0 0 0 .394.553h.454a.417.417 0 0 0 .394-.553l-.227-.655a.417.417 0 0 0-.788 0l-.227.655Zm7.396 3.006c-.06 0-.105-.008-.13-.062-.06-.123-.234-.195-.347-.118-.27.18-.6.27-.994.27-.542 0-.992-.135-1.351-.406-.355-.271-.532-.622-.532-1.053 0-.511.215-.907.646-1.188.434-.28 1.058-.422 1.87-.429h.121a.393.393 0 0 0 .393-.393c0-.22-.05-.374-.15-.465-.099-.09-.244-.135-.435-.135-.235 0-.404.057-.509.172-.154.171-.312.388-.542.388h-.858c-.23 0-.425-.192-.348-.41.097-.272.298-.507.601-.706.45-.295 1.018-.442 1.703-.442.71 0 1.258.14 1.644.42.39.277.586.674.586 1.192v2.3c.008.42 0 .732 0 .988a.077.077 0 0 1-.077.077h-1.29Zm-1.095-.912c.188 0 .347-.029.478-.086a.982.982 0 0 0 .185-.103c.078-.056.108-.153.108-.249v-.461a.406.406 0 0 0-.406-.407c-.287 0-.514.07-.681.208a.692.692 0 0 0-.245.556c0 .361.187.542.561.542Z"/><path stroke="currentColor" stroke-width="1.5" d="M2.417 3.333c0-.506.41-.916.916-.916h13.334c.506 0 .916.41.916.916v13.334c0 .506-.41.916-.916.916H3.333a.917.917 0 0 1-.916-.916V3.333Z"/></g></svg>