<svg xmlns="http://www.w3.org/2000/svg" width="20" height="20"><g fill="none"><path stroke="currentColor" stroke-linecap="round" stroke-linejoin="round" stroke-width="1.5" d="M7.3 7.26v-4.5m0 4.5-2.252-1.8M7.3 7.26l2.25-1.8"/><path fill="currentColor" d="M8.72 16.416a.417.417 0 0 0-.398-.291H5.973a.417.417 0 0 0-.397.29l-.391 1.236a.417.417 0 0 1-.397.291H3.4a.417.417 0 0 1-.39-.564l3.043-8.047a.417.417 0 0 1 .39-.27h1.41c.172 0 .327.107.389.269l3.062 8.048a.417.417 0 0 1-.389.564H9.508a.417.417 0 0 1-.397-.29l-.391-1.236Zm-2.51-2.003a.167.167 0 0 0 .158.217H7.92c.113 0 .193-.11.16-.217l-.777-2.447a.167.167 0 0 0-.318 0l-.776 2.447Zm9.306 3.529c-.078 0-.136-.01-.167-.081-.071-.162-.302-.254-.445-.151-.33.236-.733.354-1.211.354-.67 0-1.225-.183-1.668-.549a1.766 1.766 0 0 1-.657-1.42c0-.692.266-1.227.797-1.605.536-.378 1.306-.571 2.31-.58h.218c.23 0 .417-.186.417-.416v-.114c0-.297-.062-.506-.185-.628s-.303-.183-.539-.183c-.355 0-.59.117-.702.35-.1.208-.266.406-.497.406h-1.255c-.23 0-.423-.189-.37-.413.099-.428.359-.792.78-1.094.556-.398 1.257-.597 2.103-.597.876 0 1.553.189 2.03.567.482.374.723.91.723 1.61v3.105c.01.57 0 .99 0 1.336a.104.104 0 0 1-.104.103h-1.578Zm-1.358-1.232c.23 0 .428-.038.59-.116a1.11 1.11 0 0 0 .268-.173.316.316 0 0 0 .094-.24v-.817a.417.417 0 0 0-.417-.417h-.085c-.354 0-.635.094-.842.281-.201.187-.302.437-.302.75 0 .488.231.732.694.732Z"/></g></svg>