<svg xmlns="http://www.w3.org/2000/svg" width="20" height="20"><g fill="none"><path stroke="currentColor" stroke-linecap="round" stroke-linejoin="round" stroke-width="1.5" d="M15.545 5.066H4.455c-.92 0-1.667.746-1.667 1.666v6.536c0 .92.746 1.666 1.667 1.666h11.09c.92 0 1.667-.746 1.667-1.666V6.732c0-.92-.746-1.666-1.667-1.666Z"/><path fill="currentColor" fill-rule="evenodd" d="M13.037 8.102c-.223 0-.38.198-.38.42v2.956c0 .222.157.42.38.42a1.898 1.898 0 1 0 0-3.796Zm-6.074 0c.223 0 .38.198.38.42v2.956c0 .222-.157.42-.38.42a1.898 1.898 0 0 1 0-3.796Z" clip-rule="evenodd"/><path fill="currentColor" d="M8.861 8.935c0-.46.373-.833.834-.833h.61c.46 0 .834.373.834.833v2.13c0 .46-.373.833-.834.833h-.61a.833.833 0 0 1-.834-.833v-2.13Z"/></g></svg>