<svg xmlns="http://www.w3.org/2000/svg" width="20" height="20"><g fill="none"><path fill="currentColor" stroke="currentColor" stroke-width="1.5" d="M9.808 2.921a1.184 1.184 0 1 1 0 2.369 1.184 1.184 0 0 1 0-2.369Z"/><path fill="currentColor" d="M9.795 12.433H7.822c.4-1.767.4-3.207.4-4.647l1.93.19c0 1.353-.357 2.95-.357 4.457Z"/><path stroke="currentColor" stroke-linecap="round" stroke-linejoin="round" stroke-width="1.5" d="M7.822 12.433c-1.193 2.107-2.175 5.396-2.175 5.396m2.175-5.396h1.973m-1.973 0c.4-1.767.4-3.207.4-4.647l1.93.19c0 1.353-.357 2.95-.357 4.457m0 0c1.232 2.107.59 5.396.59 5.396m-.201-9.832 2.25 2.86 2.305-.954M8.162 7.785l-2.876.544 1.95 3.069"/></g></svg>