<svg xmlns="http://www.w3.org/2000/svg" width="20" height="20"><g fill="none"><path stroke="currentColor" stroke-width="1.5" d="M6.635 2.686h6.73c.967 0 1.75.783 1.75 1.75v11.129a1.75 1.75 0 0 1-1.75 1.75h-6.73a1.75 1.75 0 0 1-1.75-1.75V4.434c0-.966.783-1.75 1.75-1.75Z"/><path fill="currentColor" d="M6.334 4.868c0-.405.329-.733.733-.733h5.865a.733.733 0 0 1 0 1.466H7.067a.733.733 0 0 1-.733-.733Z"/><circle cx="10" cy="12.199" r="2.183" stroke="currentColor" stroke-width="1.5"/><path stroke="currentColor" stroke-linecap="round" stroke-width="1.5" d="M4.868 7.067h10.264"/></g></svg>