<svg xmlns="http://www.w3.org/2000/svg" width="20" height="20"><g fill="none"><circle cx="6.491" cy="3.783" r="1.097" fill="currentColor" stroke="currentColor" stroke-width="1.5"/><path fill="currentColor" d="M4.275 12.583V7.107h4.433v5.476H7.23v4.867H5.752v-4.867H4.275Z"/><path stroke="currentColor" stroke-linecap="round" stroke-linejoin="round" stroke-width="1.5" d="M5.752 12.583H4.275V7.107h4.433v5.476H7.23m-1.478 0v4.867H7.23v-4.867m-1.478 0H7.23"/><path fill="currentColor" d="M12.401 17.45v-4.063h-1.847l1.64-6.28h1.892l1.64 6.28h-1.847v4.063H12.4Z"/><path stroke="currentColor" stroke-linecap="round" stroke-linejoin="round" stroke-width="1.5" d="M12.401 13.387h1.478m-1.478 0v4.063h1.478v-4.063m-1.478 0h-1.847l1.64-6.28h1.892l1.64 6.28h-1.847"/><circle cx="13.14" cy="3.783" r="1.097" fill="currentColor" stroke="currentColor" stroke-width="1.5"/></g></svg>