<svg xmlns="http://www.w3.org/2000/svg" width="20" height="20"><path fill="currentColor" d="m8.53 11.478.792-5.248a.833.833 0 0 1 .824-.71h.183c.519 0 .911.47.82.98l-1.39 7.813a.833.833 0 0 1-.82.687h-.538a.833.833 0 0 1-.817-.671L6.61 9.414l-.962 4.913A.833.833 0 0 1 4.83 15h-.543a.833.833 0 0 1-.82-.687L2.072 6.501a.833.833 0 0 1 .82-.98h.194c.413 0 .763.302.825.71l.785 5.24.986-5.27a.833.833 0 0 1 .82-.68h.223c.402 0 .746.286.82.68l.986 5.277Zm9.086.364c.237 0 .428.199.4.435-.102.868-.394 1.541-.876 2.02-.56.555-1.35.833-2.37.833-1.072 0-1.894-.351-2.467-1.055-.569-.707-.853-1.714-.853-3.02V9.46c0-1.302.295-2.305.885-3.008.59-.708 1.41-1.061 2.461-1.061 1.033 0 1.817.288 2.35.866.462.495.753 1.176.873 2.043a.396.396 0 0 1-.4.443h-1.07a.44.44 0 0 1-.429-.405c-.043-.453-.14-.778-.289-.975-.186-.256-.531-.384-1.035-.384-.512 0-.874.18-1.087.54-.213.356-.326.945-.339 1.765v1.79c0 .942.105 1.589.313 1.94.213.352.575.528 1.087.528.504 0 .85-.122 1.042-.365.148-.192.247-.504.296-.936a.44.44 0 0 1 .43-.399h1.078Z"/></svg>