<svg xmlns="http://www.w3.org/2000/svg" width="20" height="20"><g fill="none"><path fill="currentColor" fill-rule="evenodd" d="M17.698 10.694a.484.484 0 0 1 0 .684l-6.158 6.16a.484.484 0 0 1-.685 0l-.685-.686a.484.484 0 0 1-.001-.683l2.663-2.68-6.5-6.502L3.67 9.665a.484.484 0 0 1-.685.002l-.683-.684a.484.484 0 0 1 0-.684L8.46 2.14a.484.484 0 0 1 .685 0l.683.683c.19.19.189.497-.002.686l-2.316 2.3 6.5 6.5 2.32-2.302a.484.484 0 0 1 .683.002l.685.685Z" clip-rule="evenodd"/><path stroke="currentColor" stroke-linecap="round" stroke-linejoin="round" stroke-width="1.5" d="m13.716 16.73-.684-.685 2.946-2.946.684.684-2.946 2.946ZM3.794 6.807l-.685-.684 2.947-2.947.684.685-2.946 2.946Z"/></g></svg>