<svg xmlns="http://www.w3.org/2000/svg" width="20" height="20"><g fill="none"><path fill="currentColor" d="M9.069 14.492c-.111.082-.11.242-.013.34l.825.825a.25.25 0 0 0 .354 0l.825-.825c.098-.098.098-.258-.013-.34a1.659 1.659 0 0 0-.989-.325c-.37 0-.712.12-.99.325Z"/><path stroke="currentColor" stroke-linecap="round" stroke-width="1.5" d="M2.725 7.805a10.774 10.774 0 0 1 7.29-2.827c2.794 0 5.34 1.06 7.26 2.8M5.29 10.038a6.998 6.998 0 0 1 4.735-1.836c1.814 0 3.468.689 4.715 1.818m-7.064 2.41a3.534 3.534 0 0 1 2.391-.926c.917 0 1.752.347 2.382.918"/></g></svg>