<svg width="24" height="24" viewBox="0 0 24 24" fill="none" xmlns="http://www.w3.org/2000/svg">
<circle cx="12" cy="12" r="8.92731" stroke="#151515" stroke-width="1.5"/>
<path d="M12.0629 7.47147C12.3428 7.47147 12.5697 7.69841 12.5697 7.9783C12.5697 8.25817 12.3428 8.48513 12.0629 8.48514C11.783 8.48514 11.5561 8.25818 11.5561 7.9783C11.5561 7.69841 11.783 7.47147 12.0629 7.47147Z" fill="#151515" stroke="#151515" stroke-width="1.5"/>
<path d="M10.8424 10.758H12.1252H13.0251C13.0251 11.6379 12.4961 12.7922 12.4961 13.7717H11.4378C11.4378 12.7075 10.8424 11.6895 10.8424 10.758Z" fill="#151515"/>
<path d="M10.8424 10.758C11.3055 10.758 12.1252 10.758 12.1252 10.758C12.1252 10.758 12.6737 10.758 13.0251 10.758M10.8424 10.758C10.8424 11.6895 11.4378 12.7075 11.4378 13.7717M10.8424 10.758C9.57666 10.2123 7.60123 9.36075 7.60123 9.36075M11.4378 13.7717C10.6628 15.1412 9.45334 17.2785 9.45334 17.2785M11.4378 13.7717C11.8511 13.7717 12.0828 13.7717 12.4961 13.7717M12.4961 13.7717C13.2969 15.1412 14.5467 17.2785 14.5467 17.2785M12.4961 13.7717C12.4961 12.7922 13.0251 11.6379 13.0251 10.758M13.0251 10.758C14.3426 10.2123 16.3988 9.36075 16.3988 9.36075" stroke="#151515" stroke-width="1.5" stroke-linecap="round" stroke-linejoin="round"/>
</svg>
