<svg width="24" height="24" viewBox="0 0 24 24" fill="none" xmlns="http://www.w3.org/2000/svg">
<path d="M12.0004 3.07269C16.9306 3.07292 20.9272 7.07015 20.9272 12.0004C20.927 16.9305 16.9305 20.927 12.0004 20.9272C7.07015 20.9272 3.07292 16.9306 3.07269 12.0004C3.07269 7.07001 7.07001 3.07269 12.0004 3.07269ZM12.0629 5.97113C10.9547 5.97113 10.0562 6.86978 10.0561 7.97797C10.0561 8.3015 10.134 8.60674 10.27 8.87738L8.19476 7.98285C7.43411 7.65519 6.55196 8.00643 6.22406 8.76703C5.89615 9.52768 6.24673 10.4097 7.00726 10.7377L9.47308 11.8002C9.53772 12.0851 9.6144 12.3464 9.67719 12.558L9.7016 12.6401C9.79958 12.9718 9.86752 13.2209 9.90472 13.434L8.14789 16.5395C7.73991 17.2605 7.99336 18.1764 8.71429 18.5844C9.43529 18.9924 10.3512 18.738 10.7592 18.017L11.9789 15.8598L13.2514 18.0356C13.6696 18.7507 14.589 18.9918 15.3041 18.5737C16.0192 18.1555 16.2594 17.236 15.8412 16.5209L14.0287 13.4203C14.0644 13.2008 14.1279 12.9373 14.2143 12.5971L14.2348 12.519C14.287 12.3142 14.3474 12.0701 14.4008 11.811L16.9731 10.7465C17.7383 10.4294 18.1016 9.55184 17.7846 8.78656C17.4675 8.02131 16.59 7.65807 15.8246 7.97504L13.9067 8.76898C14.0109 8.52623 14.0698 8.2589 14.0698 7.97797C14.0696 6.86981 13.1711 5.97118 12.0629 5.97113Z" fill="#151515" stroke="#151515" stroke-width="1.5"/>
</svg>
