<svg width="24" height="24" viewBox="0 0 24 24" fill="none" xmlns="http://www.w3.org/2000/svg">
<path d="M20.9273 12C20.9273 16.9304 16.9304 20.9273 12 20.9273C7.06958 20.9273 3.07269 16.9304 3.07269 12C3.07269 7.06958 7.06958 3.07269 12 3.07269C16.9304 3.07269 20.9273 7.06958 20.9273 12ZM8.71462 18.584L9.08399 17.9313L8.71462 18.584C9.43562 18.992 10.3508 18.7383 10.7588 18.0173L11.9796 15.86L13.2518 18.0357C13.67 18.7508 14.5887 18.9916 15.3038 18.5734C16.019 18.1553 16.2597 17.2365 15.8416 16.5214L14.0291 13.4217C14.0647 13.2019 14.1279 12.9379 14.2144 12.597C14.2144 12.5969 14.2145 12.5967 14.2145 12.5966L14.2343 12.5187L14.2344 12.5185L14.238 12.5042C14.2894 12.3025 14.3501 12.0643 14.4022 11.8112L16.9728 10.7466C17.7381 10.4296 18.1016 9.55215 17.7846 8.78677C17.4676 8.02139 16.5902 7.65791 15.8248 7.9749L13.9079 8.76882C14.012 8.52622 14.0696 8.25897 14.0696 7.97825C14.0696 6.86993 13.1712 5.97146 12.0628 5.97146C10.9545 5.97146 10.056 6.86993 10.056 7.97825C10.056 8.30133 10.1324 8.60657 10.268 8.87693L8.19505 7.98329C7.4343 7.65533 6.55173 8.00618 6.22378 8.76693C5.89583 9.52768 6.24668 10.4102 7.00742 10.7382L9.4719 11.8006C9.53496 12.0786 9.6107 12.3338 9.67266 12.5425L9.67729 12.5581L9.67738 12.5584L9.70152 12.6399C9.70155 12.64 9.70158 12.6401 9.70161 12.6402C9.79962 12.9721 9.86796 13.2212 9.90515 13.4343L8.14787 16.5398C7.73988 17.2608 7.99363 18.176 8.71462 18.584Z" fill="#151515" stroke="#151515" stroke-width="1.5"/>
</svg>
