<svg width="24" height="24" viewBox="0 0 24 24" fill="none" xmlns="http://www.w3.org/2000/svg">
<circle cx="12" cy="12" r="8.92731" stroke="#151515" stroke-width="1.5"/>
<path fill-rule="evenodd" clip-rule="evenodd" d="M12.8236 8.37724C12.8236 7.92239 12.4549 7.55366 12.0001 7.55366C11.5452 7.55366 11.1765 7.92239 11.1765 8.37724V11.1765H8.37729C7.92244 11.1765 7.55371 11.5452 7.55371 12.0001C7.55371 12.4549 7.92244 12.8236 8.37729 12.8236H11.1765V15.6227C11.1765 16.0776 11.5452 16.4463 12.0001 16.4463C12.4549 16.4463 12.8236 16.0776 12.8236 15.6227V12.8236H15.6228C16.0776 12.8236 16.4463 12.4549 16.4463 12.0001C16.4463 11.5452 16.0776 11.1765 15.6228 11.1765H12.8236V8.37724Z" fill="#151515"/>
</svg>
