<svg width="24" height="24" viewBox="0 0 24 24" fill="none" xmlns="http://www.w3.org/2000/svg">
<path d="M18.1094 13.6504C18.1094 14.6794 17.8554 15.649 17.4067 16.5001C16.3818 18.4439 14.341 19.7691 11.9907 19.7691C9.64046 19.7691 7.59969 18.4439 6.5748 16.5001C6.12609 15.649 5.8721 14.6794 5.8721 13.6504C5.8721 10.2712 8.61151 7.5318 11.9907 7.5318C15.37 7.5318 18.1094 10.2712 18.1094 13.6504Z" stroke="#151515" stroke-width="1.5"/>
<path d="M11.8721 10V13.5L14.8721 15" stroke="#151515" stroke-width="1.5" stroke-linecap="round"/>
<path d="M7.25352 5.13881C8.42509 6.31039 8.66775 5.8459 6.19286 8.32079C3.718 10.7956 4.18245 10.553 3.01088 9.38145C1.8393 8.20988 1.8393 6.31039 3.01088 5.13881C4.18245 3.96724 6.08194 3.96724 7.25352 5.13881Z" fill="#151515"/>
<path d="M20.9891 9.38142C19.8175 10.553 20.282 10.7957 17.8071 8.32076C15.3322 5.8459 15.5748 6.31035 16.7464 5.13877C17.918 3.9672 19.8175 3.9672 20.9891 5.13877C22.1606 6.31035 22.1606 8.20984 20.9891 9.38142Z" fill="#151515"/>
<path d="M7.8721 19.5C7.8721 20.3284 7.20053 21 6.3721 21C5.54367 21 4.8721 20.3284 4.8721 19.5C4.8721 18.6716 5.54367 18 6.3721 18C7.20053 18 7.8721 18.6716 7.8721 19.5Z" fill="#151515"/>
<path d="M18.8721 19.5C18.8721 20.3284 18.2006 21 17.3721 21C16.5437 21 15.8721 20.3284 15.8721 19.5C15.8721 18.6716 16.5437 18 17.3721 18C18.2006 18 18.8721 18.6716 18.8721 19.5Z" fill="#151515"/>
</svg>
