<svg width="24" height="24" viewBox="0 0 24 24" fill="none" xmlns="http://www.w3.org/2000/svg">
<g clip-path="url(#clip0_1460_1051)">
<path d="M16.9036 16.9036C12.6156 21.1916 5.87046 21.3986 4.23593 19.764C2.60139 18.1295 2.8084 11.3843 7.09637 7.09638C11.3843 2.80842 17.7209 2.19277 19.764 4.23594C21.8072 6.27912 21.1915 12.6156 16.9036 16.9036Z" stroke="#151515" stroke-width="1.5"/>
<path d="M15.2638 8.73637L14.4525 9.54766M9.5538 14.4464L12.0032 11.997M9.5538 14.4464L8.3279 13.2205M9.5538 14.4464L10.7797 15.6723M9.5538 14.4464L8.73105 15.2691M14.4525 9.54766L13.2266 8.32176M14.4525 9.54766L15.6784 10.7736M14.4525 9.54766L12.0032 11.997M12.0032 11.997L10.7742 10.7742M12.0032 11.997L13.226 13.226" stroke="#151515" stroke-width="1.5" stroke-linecap="round" stroke-linejoin="round"/>
<path d="M15.0531 3.22598C15.0531 3.22598 15.4618 5.26915 17.0963 6.90369C18.7308 8.53822 20.774 8.94686 20.774 8.94686" stroke="#151515" stroke-width="1.5" stroke-linecap="round" stroke-linejoin="round"/>
<path d="M9.13959 20.5813C9.13959 20.5813 8.73095 18.5381 7.09642 16.9036C5.46188 15.269 3.41871 14.8604 3.41871 14.8604" stroke="#151515" stroke-width="1.5" stroke-linecap="round" stroke-linejoin="round"/>
</g>
<defs>
<clipPath id="clip0_1460_1051">
<rect width="24" height="24" fill="white" transform="matrix(1 0 0 -1 0 24)"/>
</clipPath>
</defs>
</svg>
