<svg width="24" height="24" viewBox="0 0 24 24" fill="none" xmlns="http://www.w3.org/2000/svg">
<path d="M16.2028 16.2028C12.4928 19.9128 6.65688 20.0919 5.24267 18.6777C3.82846 17.2635 4.00756 11.4275 7.71754 7.71751C11.4275 4.00753 16.9099 3.47487 18.6777 5.24264C20.4455 7.01041 19.9128 12.4928 16.2028 16.2028Z" stroke="black" stroke-width="1.72727"/>
<path d="M14.784 9.13647L14.0821 9.8384M9.84371 14.0768L11.9629 11.9576M9.84371 14.0768L8.78305 13.0161M9.84371 14.0768L10.9044 15.1375M9.84371 14.0768L9.13186 14.7887M14.0821 9.8384L13.0215 8.77774M14.0821 9.8384L15.1428 10.8991M14.0821 9.8384L11.9629 11.9576M11.9629 11.9576L10.8996 10.8996M11.9629 11.9576L13.0209 13.0209" stroke="black" stroke-width="1.5" stroke-linecap="round" stroke-linejoin="round"/>
<path d="M14.7886 4.18201C14.7886 4.18201 15.1421 5.94977 16.5563 7.36399C17.9706 8.7782 19.7383 9.13175 19.7383 9.13175" stroke="black" stroke-width="1.5" stroke-linecap="round" stroke-linejoin="round"/>
<path d="M9.48535 19.3848C9.48535 19.3848 9.1318 17.617 7.71758 16.2028C6.30337 14.7886 4.5356 14.435 4.5356 14.435" stroke="black" stroke-width="1.5" stroke-linecap="round" stroke-linejoin="round"/>
</svg>
