<svg width="24" height="24" viewBox="0 0 24 24" fill="none" xmlns="http://www.w3.org/2000/svg">
<circle cx="12" cy="12" r="8.92728" stroke="#151515" stroke-width="1.5"/>
<path fill-rule="evenodd" clip-rule="evenodd" d="M16.6746 14.879C16.8441 15.0721 16.8204 15.3644 16.6223 15.528C15.4023 16.5356 13.8379 17.141 12.132 17.141C10.3509 17.141 8.72393 16.481 7.48229 15.3923C7.28947 15.2232 7.27398 14.931 7.44834 14.743C8.61502 13.4847 10.2237 12.7069 12.0001 12.7069C13.8396 12.7069 15.4993 13.541 16.6746 14.879Z" fill="#151515"/>
<path d="M9.84949 9.23848C9.84949 9.98078 9.24773 10.5825 8.50542 10.5825C7.76311 10.5825 7.16135 9.98078 7.16135 9.23848C7.16135 8.49617 7.76311 7.89441 8.50542 7.89441C9.24773 7.89441 9.84949 8.49617 9.84949 9.23848Z" fill="#151515"/>
<path d="M16.8386 9.23848C16.8386 9.98078 16.2369 10.5825 15.4946 10.5825C14.7523 10.5825 14.1505 9.98078 14.1505 9.23848C14.1505 8.49617 14.7523 7.89441 15.4946 7.89441C16.2369 7.89441 16.8386 8.49617 16.8386 9.23848Z" fill="#151515"/>
<path d="M7.83781 7.31213L10.4484 9.00966" stroke="#151515" stroke-linecap="round" stroke-linejoin="round"/>
<path d="M16.0657 7.27956L13.607 8.83597" stroke="#151515" stroke-linecap="round" stroke-linejoin="round"/>
</svg>
