<svg width="24" height="24" viewBox="0 0 24 24" fill="none" xmlns="http://www.w3.org/2000/svg">
<path d="M12 9.04184C12.6078 9.04184 13.1141 8.85299 13.6112 8.6676C14.5243 8.32703 15.4061 7.99815 16.8281 8.87332C19.0241 10.2249 19.0241 11.674 19.0241 13.7138C19.0241 15.9432 17.372 19.1564 15.5931 20.3627C14.9109 20.8254 14.3106 20.5994 13.6176 20.3385C13.1412 20.1592 12.6209 19.9633 12 19.9633C11.3789 19.9633 10.859 20.1593 10.3831 20.3386C9.69108 20.5995 9.09198 20.8253 8.40989 20.3627C6.63098 19.1564 4.97589 15.9432 4.97589 13.7138C4.97589 11.674 5.1778 10.0904 7.10086 8.87332C8.34537 8.08567 9.30869 8.38805 10.3009 8.69951C10.8419 8.86932 11.3915 9.04184 12 9.04184ZM12 9.04184C12.0713 8.7117 11.4208 5.41966 8.87355 3.07271M15.1041 10.8128C15.7987 11.29 16.7066 12.6828 16.4071 14.1085" stroke="black" stroke-width="1.5" stroke-linecap="round"/>
<path d="M15.5031 6.45964C15.1797 7.15003 14.5959 7.66487 14.0031 7.97073C13.7086 8.12268 13.4323 8.21213 13.2135 8.24881C13.0264 8.28016 12.934 8.26489 12.9122 8.26129C12.912 8.26125 12.9118 8.26122 12.9115 8.26118C12.9114 8.26103 12.9112 8.26088 12.911 8.26072C12.8943 8.24631 12.8234 8.18506 12.7277 8.02129C12.6158 7.82969 12.5076 7.5602 12.4358 7.23667C12.2913 6.58548 12.313 5.80738 12.6364 5.11699C12.9646 4.41612 13.5369 3.89383 14.1138 3.58808C14.401 3.43583 14.6704 3.3476 14.8868 3.31299C14.9943 3.2958 15.0794 3.29331 15.1415 3.29815C15.2012 3.30282 15.2269 3.31325 15.2286 3.31394C15.2287 3.31398 15.2287 3.31398 15.2286 3.31395C15.2286 3.31392 15.2286 3.31393 15.2287 3.31398C15.2303 3.31483 15.2547 3.32786 15.2966 3.3708C15.34 3.41533 15.3926 3.48234 15.4482 3.5759C15.5601 3.76429 15.6648 4.02772 15.7317 4.34585C15.8662 4.98475 15.8313 5.75877 15.5031 6.45964Z" stroke="black" stroke-width="1.5"/>
</svg>
