<svg width="24" height="24" viewBox="0 0 24 24" fill="none" xmlns="http://www.w3.org/2000/svg">
<path d="M12 9.04184C12.6078 9.04184 13.1141 8.85299 13.6112 8.6676C14.5243 8.32703 15.4061 7.99815 16.8281 8.87332C19.0241 10.2249 19.0241 11.674 19.0241 13.7138C19.0241 15.9432 17.372 19.1564 15.5931 20.3627C14.9109 20.8254 14.3106 20.5994 13.6176 20.3385C13.1412 20.1592 12.6209 19.9633 12 19.9633C11.3789 19.9633 10.859 20.1593 10.3831 20.3386C9.69108 20.5995 9.09198 20.8253 8.40989 20.3627C6.63098 19.1564 4.97589 15.9432 4.97589 13.7138C4.97589 11.674 5.1778 10.0904 7.10086 8.87332C8.34537 8.08567 9.30869 8.38805 10.3009 8.69951C10.8419 8.86932 11.3915 9.04184 12 9.04184ZM12 9.04184C12.0713 8.7117 11.4208 5.41966 8.87355 3.07271M15.1041 10.8128C15.7987 11.29 16.7066 12.6828 16.4071 14.1085" stroke="black" stroke-width="1.5" stroke-linecap="round"/>
<path d="M15.2288 3.31405C15.2315 3.31546 15.2556 3.3288 15.2962 3.37043C15.3397 3.41496 15.3923 3.48269 15.4479 3.57624C15.5598 3.76462 15.6654 4.02766 15.7323 4.34571C15.8668 4.98461 15.8317 5.75907 15.5034 6.45994C15.1801 7.15028 14.5958 7.66528 14.0031 7.97111C13.7086 8.12301 13.4321 8.21157 13.2133 8.24824C12.971 8.28884 12.8877 8.2521 12.9109 8.26299C12.9335 8.27353 12.8514 8.23239 12.7278 8.02085C12.616 7.82936 12.5078 7.5603 12.436 7.23715C12.2914 6.58599 12.313 5.80746 12.6363 5.1171C12.9646 4.41622 13.5371 3.89347 14.1139 3.58772C14.4008 3.43569 14.6701 3.34788 14.8863 3.31322C14.9938 3.29603 15.0795 3.2931 15.1415 3.29794C15.2034 3.30278 15.2288 3.31407 15.2288 3.31405Z" stroke="black" stroke-width="1.5"/>
</svg>
