<svg width="24" height="24" viewBox="0 0 24 24" fill="none" xmlns="http://www.w3.org/2000/svg">
<path d="M9.94309 7.03165C9.94309 7.03165 9.94301 12.9995 9.94309 14.9887C9.94315 16.2323 10.7142 17.4753 12 17.4753C13.2859 17.4753 14.057 16.2323 14.057 14.9887C14.057 12.9995 14.057 8.02629 14.057 6.03702C14.057 4.04775 11.9471 2.92672 9.94309 3.05312C8.09553 3.16964 6.34343 4.04775 6.34343 6.03702C6.34343 8.02629 6.34305 12.0048 6.34343 14.9887C6.34388 18.4466 8.42433 20.9565 11.9999 20.9565C15.5754 20.9565 17.6564 17.9726 17.6567 14.9887C17.657 12.0048 17.6567 7.03165 17.6567 7.03165" stroke="#151515" stroke-width="1.5" stroke-linecap="round" stroke-linejoin="round"/>
</svg>
