<svg width="24" height="24" viewBox="0 0 24 24" fill="none" xmlns="http://www.w3.org/2000/svg">
<path fill-rule="evenodd" clip-rule="evenodd" d="M9.67284 6.34437C9.42515 6.63595 9.38101 7.00972 9.38101 7.41605V7.85255C9.38101 8.09362 9.18558 8.28905 8.94451 8.28905H8.07151C7.83044 8.28905 7.63501 8.09362 7.63501 7.85255V7.41605C7.63501 6.94939 7.66285 6.01366 8.34215 5.21399C9.03817 4.39463 10.2307 3.92406 12.072 3.92406C13.9787 3.92406 15.1401 4.54436 15.7756 5.4363C16.3645 6.26293 16.3654 7.14849 16.3657 7.40351C16.3657 7.40737 16.3657 7.41109 16.3657 7.41466L16.3664 7.85115C16.3668 8.09223 16.1717 8.28797 15.9306 8.28835L15.0576 8.28975C14.8165 8.29014 14.6208 8.09502 14.6204 7.85395L14.6197 7.41745C14.6194 7.22025 14.6109 6.81062 14.3536 6.44941C14.1338 6.14099 13.5852 5.67006 12.072 5.67006C10.4933 5.67006 9.9038 6.07249 9.67284 6.34437Z" fill="black"/>
<path d="M5.51163 17.9057L4.67659 13.1042C4.39801 11.5024 5.631 10.0365 7.25685 10.0365H16.8742C18.4552 10.0365 19.6757 11.4266 19.4712 12.9942L18.845 17.7957C18.6748 19.1002 17.5635 20.076 16.248 20.076H14.619H9.38106H8.09189C6.8186 20.076 5.7298 19.1602 5.51163 17.9057Z" fill="black" stroke="black" stroke-width="1.746" stroke-linecap="round"/>
<path fill-rule="evenodd" clip-rule="evenodd" d="M15.6665 9.59998C16.0522 9.59998 16.3649 9.91266 16.3649 10.2984V11.5206C16.3649 11.9063 16.0522 12.219 15.6665 12.219H15.3173C14.9316 12.219 14.6189 11.9063 14.6189 11.5206V10.2984C14.6189 9.91266 14.9316 9.59998 15.3173 9.59998H15.6665Z" fill="white"/>
<path fill-rule="evenodd" clip-rule="evenodd" d="M8.68261 9.59998C9.06832 9.59998 9.38101 9.91266 9.38101 10.2984V11.5206C9.38101 11.9063 9.06832 12.219 8.68261 12.219H8.33341C7.94769 12.219 7.63501 11.9063 7.63501 11.5206V10.2984C7.63501 9.91266 7.94769 9.59998 8.33341 9.59998H8.68261Z" fill="white"/>
</svg>
