<svg width="24" height="24" viewBox="0 0 24 24" fill="none" xmlns="http://www.w3.org/2000/svg">
<path fill-rule="evenodd" clip-rule="evenodd" d="M9.41694 5.0091C9.14202 5.33273 9.09302 5.74759 9.09302 6.19859V6.73106C9.09302 6.97213 8.8976 7.16756 8.65652 7.16756H7.59159C7.35052 7.16756 7.15509 6.97213 7.15509 6.73106V6.19859C7.15509 5.68062 7.18599 4.64203 7.93996 3.75446C8.7125 2.84502 10.0361 2.32272 12.0798 2.32272C14.1961 2.32272 15.4852 3.01121 16.1905 4.0012C16.8442 4.91871 16.8452 5.90161 16.8455 6.18467C16.8455 6.18895 16.8455 6.19308 16.8455 6.19704L16.8464 6.72951C16.8468 6.97058 16.6517 7.16632 16.4106 7.1667L15.3457 7.16841C15.1046 7.1688 14.9088 6.97368 14.9085 6.73261L14.9076 6.20014C14.9073 5.98126 14.8978 5.5266 14.6122 5.12568C14.3683 4.78335 13.7594 4.26066 12.0798 4.26066C10.3276 4.26066 9.67329 4.70733 9.41694 5.0091Z" fill="#151515"/>
<path d="M4.83977 18.08L3.81279 12.1748C3.53421 10.573 4.7672 9.10709 6.39305 9.10709H17.7379C19.3188 9.10709 20.5394 10.4972 20.3349 12.0648L19.5646 17.9699C19.3945 19.2744 18.2831 20.2502 16.9676 20.2502H14.9069H9.09307H7.42003C6.14673 20.2502 5.05793 19.3344 4.83977 18.08Z" fill="#151515" stroke="#151515" stroke-width="1.5" stroke-linecap="round"/>
<path fill-rule="evenodd" clip-rule="evenodd" d="M16.1464 8.62259C16.5321 8.62259 16.8448 8.93527 16.8448 9.32099V10.8311C16.8448 11.2168 16.5321 11.5295 16.1464 11.5295H15.6053C15.2195 11.5295 14.9069 11.2168 14.9069 10.8311V9.32099C14.9069 8.93527 15.2195 8.62259 15.6053 8.62259H16.1464Z" fill="white"/>
<path fill-rule="evenodd" clip-rule="evenodd" d="M8.39463 8.62259C8.78034 8.62259 9.09302 8.93527 9.09302 9.32099V10.8311C9.09302 11.2168 8.78034 11.5295 8.39463 11.5295H7.85349C7.46777 11.5295 7.15509 11.2168 7.15509 10.8311V9.32099C7.15509 8.93527 7.46777 8.62259 7.85349 8.62259H8.39463Z" fill="white"/>
</svg>
