<svg width="24" height="24" viewBox="0 0 24 24" fill="none" xmlns="http://www.w3.org/2000/svg">
<path d="M7.83691 8.35733H8.87767H15.1223H16.163M7.83691 8.35733H6.19986C4.33748 8.35733 2.92512 10.0365 3.24422 11.8714L4.28227 17.8401C4.53218 19.2771 5.77937 20.3261 7.23791 20.3261H8.87767H15.1223H17.1716C18.6785 20.3261 19.9515 19.2083 20.1464 17.7141L20.9249 11.7453C21.1592 9.94962 19.7611 8.35733 17.9501 8.35733H16.163M7.83691 8.35733C7.83691 8.35733 6.79615 3.67389 12 3.67389C17.2038 3.67389 16.163 8.35733 16.163 8.35733M7.83691 8.35733V10.9592M16.163 8.35733V10.9592" stroke="#151515" stroke-width="1.5" stroke-linecap="round"/>
</svg>
