<svg width="24" height="24" viewBox="0 0 24 24" fill="none" xmlns="http://www.w3.org/2000/svg">
<path d="M8.84765 10.6865V19.0928M8.84765 10.6865H15.1524M8.84765 10.6865H5.69529M8.84765 19.0928H6.8747C6.4774 19.0928 6.11779 18.8576 5.95854 18.4936L3.1558 12.0873C2.86675 11.4266 3.3508 10.6865 4.07195 10.6865H5.69529M8.84765 19.0928H15.1524M15.1524 10.6865V19.0928M15.1524 10.6865H18.3047M15.1524 19.0928H17.6117C18.0286 19.0928 18.4017 18.8342 18.548 18.4439L20.9504 12.0376C21.1955 11.3839 20.7123 10.6865 20.0141 10.6865H18.3047M5.69529 10.6865L11.3243 5.52661C11.7066 5.17615 12.2934 5.17615 12.6757 5.52661L18.3047 10.6865" stroke="#151515" stroke-width="1.5" stroke-linecap="round"/>
</svg>
