<svg width="24" height="24" viewBox="0 0 24 24" fill="none" xmlns="http://www.w3.org/2000/svg">
<path d="M18 7.5L4 7.50001C3.72386 7.50001 3.5 7.72387 3.5 8.00001V16C3.5 16.2762 3.72386 16.5 4 16.5L18 16.5C18.2761 16.5 18.5 16.2761 18.5 16V14.8571C18.5 14.581 18.7239 14.3571 19 14.3571H20C20.2761 14.3571 20.5 14.1333 20.5 13.8571V9.71429C20.5 9.43814 20.2761 9.21429 20 9.21429H19C18.7239 9.21429 18.5 8.99043 18.5 8.71429V8C18.5 7.72386 18.2761 7.5 18 7.5Z" stroke="#151515" stroke-width="1.5" stroke-linecap="round" stroke-linejoin="round"/>
<path d="M11 10V12" stroke="#151515" stroke-width="1.5" stroke-linecap="round" stroke-linejoin="round"/>
<path d="M11.751 14.25C11.751 14.6642 11.4152 15 11.001 15C10.5868 15 10.251 14.6642 10.251 14.25C10.251 13.8358 10.5868 13.5 11.001 13.5C11.4152 13.5 11.751 13.8358 11.751 14.25Z" fill="#151515"/>
</svg>
