<svg width="24" height="24" viewBox="0 0 24 24" fill="none" xmlns="http://www.w3.org/2000/svg">
<path d="M18 7.49998L4 7.49999C3.72386 7.49999 3.5 7.72385 3.5 7.99999V16C3.5 16.2761 3.72386 16.5 4 16.5L18 16.5C18.2761 16.5 18.5 16.2761 18.5 16V14.8571C18.5 14.581 18.7239 14.3571 19 14.3571H20C20.2761 14.3571 20.5 14.1333 20.5 13.8571V9.71427C20.5 9.43813 20.2761 9.21427 20 9.21427H19C18.7239 9.21427 18.5 8.99041 18.5 8.71427V7.99999C18.5 7.72384 18.2761 7.49998 18 7.49998Z" stroke="#151515" stroke-width="1.5" stroke-linecap="round" stroke-linejoin="round"/>
</svg>
