<svg width="24" height="24" viewBox="0 0 24 24" fill="none" xmlns="http://www.w3.org/2000/svg">
<path d="M7.56121 11.1443L8.88573 8.49522M8.88573 8.49522H15.5083M8.88573 8.49522L10.6518 14.6763L15.5083 8.49522M8.88573 8.49522L8.00272 6.28768M15.5083 8.49522L16.3914 11.1443M15.5083 8.49522L15.0668 7.6122L17.7159 7.1707V8.49522M9.32724 13.7933C9.32724 15.5002 7.94355 16.8839 6.23669 16.8839C4.52982 16.8839 3.14613 15.5002 3.14613 13.7933C3.14613 12.0864 4.52982 10.7028 6.23669 10.7028C7.94355 10.7028 9.32724 12.0864 9.32724 13.7933Z" stroke="#151515" stroke-width="1.5" stroke-linejoin="round"/>
<circle cx="17.7159" cy="13.7933" r="3.09055" stroke="#151515" stroke-width="1.5"/>
<path d="M7.56117 6.28768H9.76871" stroke="#151515" stroke-width="1.5" stroke-linecap="round"/>
</svg>
