<svg width="24" height="24" viewBox="0 0 24 24" fill="none" xmlns="http://www.w3.org/2000/svg">
<path d="M13.8685 15.6307H10.1317C9.93062 15.6307 9.75023 15.5101 9.68217 15.3209C9.55355 14.9633 9.33027 14.291 9.0665 13.2777C8.63254 11.6107 7.09803 10.0613 7.59956 8.41141C8.1714 6.53022 9.93465 5.63066 12 5.63066C14.0654 5.63066 15.8286 6.53022 16.4004 8.41141C16.902 10.0613 15.3677 11.6107 14.9338 13.2777C14.67 14.291 14.4467 14.9633 14.318 15.3209C14.25 15.5101 14.0696 15.6307 13.8685 15.6307Z" stroke="black" stroke-width="2" stroke-linecap="round"/>
<path d="M13.375 17.6307H10.875C10.5989 17.6307 10.375 17.8545 10.375 18.1307V19.4061C10.375 19.5489 10.4361 19.6849 10.5428 19.7798L11.3579 20.5044C11.4494 20.5857 11.5676 20.6307 11.6901 20.6307H12.6679C12.8005 20.6307 12.9277 20.578 13.0214 20.4842L13.7286 19.7771C13.8223 19.6833 13.875 19.5562 13.875 19.4236V18.1307C13.875 17.8545 13.6511 17.6307 13.375 17.6307Z" stroke="black" stroke-width="1.5" stroke-linecap="round"/>
<path d="M20 9.5H22" stroke="black" stroke-width="2" stroke-linecap="round"/>
<path d="M19 6L20.5 5" stroke="black" stroke-width="2" stroke-linecap="round"/>
<path d="M19 13L20.5 14" stroke="black" stroke-width="2" stroke-linecap="round"/>
<path d="M4 9.5H2" stroke="black" stroke-width="2" stroke-linecap="round"/>
<path d="M5 6L3.5 5" stroke="black" stroke-width="2" stroke-linecap="round"/>
<path d="M5 13L3.5 14" stroke="black" stroke-width="2" stroke-linecap="round"/>
</svg>
