<svg width="24" height="24" viewBox="0 0 24 24" fill="none" xmlns="http://www.w3.org/2000/svg">
<path d="M13.5586 14.553H10.2318C10.0307 14.553 9.85042 14.4325 9.78287 14.2431C9.66481 13.9121 9.46718 13.3114 9.23494 12.4193C8.84141 10.9076 7.44987 9.50259 7.90468 8.0064C8.42324 6.30049 10.0222 5.48474 11.8951 5.48474C13.768 5.48474 15.367 6.30049 15.8856 8.0064C16.3404 9.50259 14.9491 10.9076 14.5555 12.4193C14.3233 13.3115 14.1256 13.9122 14.0076 14.2431C13.94 14.4325 13.7597 14.553 13.5586 14.553Z" stroke="#151515" stroke-width="1.5" stroke-linecap="round"/>
<path d="M13.0954 16.3667H10.9215C10.6454 16.3667 10.4215 16.5905 10.4215 16.8667V17.9558C10.4215 18.0986 10.4826 18.2346 10.5894 18.3295L11.2996 18.9609C11.3912 19.0422 11.5094 19.0872 11.6318 19.0872H12.4815C12.6141 19.0872 12.7413 19.0345 12.8351 18.9407L13.449 18.3268C13.5428 18.233 13.5954 18.1058 13.5954 17.9732V16.8667C13.5954 16.5905 13.3716 16.3667 13.0954 16.3667Z" stroke="#151515" stroke-width="1.5" stroke-linecap="round"/>
<path d="M19.1497 8.99358H20.9634" stroke="#151515" stroke-width="1.5" stroke-linecap="round"/>
<path d="M18.2429 5.81967L19.6032 4.91284" stroke="#151515" stroke-width="1.5" stroke-linecap="round"/>
<path d="M18.2429 12.1675L19.6032 13.0743" stroke="#151515" stroke-width="1.5" stroke-linecap="round"/>
<path d="M4.6405 8.99358H2.82685" stroke="#151515" stroke-width="1.5" stroke-linecap="round"/>
<path d="M5.54733 5.81967L4.18709 4.91284" stroke="#151515" stroke-width="1.5" stroke-linecap="round"/>
<path d="M5.54733 12.1675L4.18709 13.0743" stroke="#151515" stroke-width="1.5" stroke-linecap="round"/>
</svg>
