<svg width="24" height="24" viewBox="0 0 24 24" fill="none" xmlns="http://www.w3.org/2000/svg">
<path d="M14.0696 14.7931H9.93056C9.72946 14.7931 9.54907 14.6727 9.48058 14.4836C9.34202 14.1011 9.09337 13.3586 8.7983 12.2251C8.32467 10.4057 6.64987 8.71467 7.19726 6.91392C7.82137 4.86076 9.74581 3.87897 12 3.87897C14.2541 3.87897 16.1786 4.86076 16.8027 6.91392C17.3501 8.71467 15.6756 10.4057 15.2019 12.2251C14.9068 13.3586 14.6582 14.1012 14.5196 14.4837C14.4511 14.6727 14.2707 14.7931 14.0696 14.7931Z" stroke="#151515" stroke-width="1.5" stroke-linecap="round"/>
<path d="M13.5464 16.976H10.7264C10.4503 16.976 10.2264 17.1998 10.2264 17.476V18.9343C10.2264 19.0771 10.2875 19.2131 10.3943 19.308L11.3122 20.1239C11.4037 20.2053 11.5219 20.2502 11.6444 20.2502H12.7479C12.8805 20.2502 13.0077 20.1975 13.1014 20.1038L13.9 19.3052C13.9937 19.2115 14.0464 19.0843 14.0464 18.9517V17.476C14.0464 17.1998 13.8225 16.976 13.5464 16.976Z" stroke="#151515" stroke-width="1.5" stroke-linecap="round"/>
</svg>
