<svg width="24" height="24" viewBox="0 0 24 24" fill="none" xmlns="http://www.w3.org/2000/svg">
<path d="M6.92352 3.21972H17.0768C17.767 3.21991 18.3268 3.77948 18.3268 4.46972V19.6777C18.3266 20.3678 17.7669 20.9275 17.0768 20.9277H6.92352C6.23331 20.9277 5.67375 20.3679 5.67352 19.6777V4.46972C5.67352 3.77936 6.23317 3.21972 6.92352 3.21972Z" stroke="black" stroke-width="1.5"/>
<path d="M12 11.0626H9.46176C8.90948 11.0626 8.46176 11.5103 8.46176 12.0626V14.6008M12 11.0626H14.5382C15.0905 11.0626 15.5382 11.5103 15.5382 12.0626V14.6008M12 11.0626V18.1391M12 18.1391H14.5382C15.0905 18.1391 15.5382 17.6914 15.5382 17.1391V14.6008M12 18.1391H9.46176C8.90948 18.1391 8.46176 17.6914 8.46176 17.1391V14.6008M8.46176 14.6008H15.5382" stroke="#151515" stroke-width="1.5" stroke-linecap="round"/>
<path d="M8.96704 6.2525H15.0325C15.1765 6.2525 15.2941 6.36922 15.2942 6.51324V8.53571C15.294 8.67962 15.1764 8.79645 15.0325 8.79645H8.96704C8.82316 8.79635 8.70653 8.67955 8.7063 8.53571V6.51324C8.7064 6.36928 8.82308 6.2526 8.96704 6.2525Z" stroke="#151515" stroke-width="1.5"/>
</svg>
