<svg width="24" height="24" viewBox="0 0 24 24" fill="none" xmlns="http://www.w3.org/2000/svg">
<rect x="6" y="4" width="12" height="17" rx="1" stroke="black" stroke-width="2"/>
<path d="M12 11.5H9.5C8.94772 11.5 8.5 11.9477 8.5 12.5V15M12 11.5H14.5C15.0523 11.5 15.5 11.9477 15.5 12.5V15M12 11.5V18.5M12 18.5H14.5C15.0523 18.5 15.5 18.0523 15.5 17.5V15M12 18.5H9.5C8.94772 18.5 8.5 18.0523 8.5 17.5V15M8.5 15H15.5" stroke="black" stroke-width="1.5" stroke-linecap="round"/>
<path d="M9 6.75H15C15.1381 6.75 15.25 6.86193 15.25 7V9C15.25 9.13807 15.1381 9.25 15 9.25H9C8.86193 9.25 8.75 9.13807 8.75 9V7C8.75 6.86193 8.86193 6.75 9 6.75Z" stroke="black" stroke-width="1.5"/>
</svg>
