<svg width="24" height="24" viewBox="0 0 24 24" fill="none" xmlns="http://www.w3.org/2000/svg">
<path d="M5.67352 4.46972C5.67352 3.77936 6.23317 3.21972 6.92352 3.21972H17.0765C17.7668 3.21972 18.3265 3.77936 18.3265 4.46972V19.6773C18.3265 20.3677 17.7668 20.9273 17.0765 20.9273H6.92352C6.23317 20.9273 5.67352 20.3677 5.67352 19.6773V4.46972Z" stroke="black" stroke-width="1.5"/>
<path d="M12 11.0626H9.46176C8.90948 11.0626 8.46176 11.5103 8.46176 12.0626V14.6008M12 11.0626H14.5382C15.0905 11.0626 15.5382 11.5103 15.5382 12.0626V14.6008M12 11.0626V18.1391M12 18.1391H14.5382C15.0905 18.1391 15.5382 17.6914 15.5382 17.1391V14.6008M12 18.1391H9.46176C8.90948 18.1391 8.46176 17.6914 8.46176 17.1391V14.6008M8.46176 14.6008H15.5382" stroke="#151515" stroke-width="1.5" stroke-linecap="round"/>
<path d="M8.7063 6.51343C8.7063 6.36932 8.82312 6.2525 8.96722 6.2525H15.0328C15.1769 6.2525 15.2937 6.36932 15.2937 6.51343V8.53528C15.2937 8.67938 15.1769 8.79621 15.0328 8.79621H8.96722C8.82312 8.79621 8.7063 8.67938 8.7063 8.53528V6.51343Z" stroke="#151515" stroke-width="1.5"/>
</svg>
