<svg width="24" height="24" viewBox="0 0 24 24" fill="none" xmlns="http://www.w3.org/2000/svg">
<path fill-rule="evenodd" clip-rule="evenodd" d="M17.5 12.75C17.1685 12.75 16.8505 12.6183 16.6161 12.3839L13.4393 9.20711C13.0488 8.81658 13.0488 8.18342 13.4393 7.79289L13.7929 7.43934C14.1834 7.04882 14.8166 7.04881 15.2071 7.43934L16.0793 8.31152C16.1423 8.37452 16.25 8.3299 16.25 8.24081L16.25 6.75C16.25 6.19771 15.8023 5.75 15.25 5.75L9.01775 5.75C8.46547 5.75 8.01776 6.19772 8.01775 6.75L8.01775 8.75C8.01775 9.30228 7.57004 9.75 7.01776 9.75L6.51776 9.75C5.96547 9.75 5.51776 9.30228 5.51776 8.75L5.51776 5.5C5.51776 4.25736 6.52511 3.25 7.76776 3.25L16.5 3.25C17.7426 3.25 18.75 4.25736 18.75 5.5L18.75 8.24081C18.75 8.3299 18.8577 8.37452 18.9207 8.31152L19.7929 7.43934C20.1834 7.04882 20.8166 7.04882 21.2071 7.43934L21.5607 7.79289C21.9512 8.18342 21.9512 8.81658 21.5607 9.20711L18.3839 12.3839C18.1495 12.6183 17.8315 12.75 17.5 12.75Z" fill="black"/>
<path fill-rule="evenodd" clip-rule="evenodd" d="M5.88388 11.6161C6.37204 11.128 7.16349 11.128 7.65165 11.6161L10.8284 14.7929C11.219 15.1834 11.219 15.8166 10.8284 16.2071L10.4749 16.5607C10.0843 16.9512 9.45118 16.9512 9.06066 16.5607L8.18848 15.6885C8.12548 15.6255 8.01777 15.6701 8.01777 15.7592V17.25C8.01777 17.8023 8.46548 18.25 9.01777 18.25H15.2678C15.82 18.25 16.2678 17.8023 16.2678 17.25V15.25C16.2678 14.6977 16.7155 14.25 17.2678 14.25H17.7678C18.32 14.25 18.7678 14.6977 18.7678 15.25V18.5C18.7678 19.7426 17.7604 20.75 16.5178 20.75H7.76777C6.52513 20.75 5.51777 19.7426 5.51777 18.5V15.7592C5.51777 15.6701 5.41005 15.6255 5.34706 15.6885L4.47487 16.5607C4.08435 16.9512 3.45118 16.9512 3.06066 16.5607L2.70711 16.2071C2.31658 15.8166 2.31658 15.1834 2.70711 14.7929L5.88388 11.6161Z" fill="black"/>
</svg>
