<svg width="24" height="24" viewBox="0 0 24 24" fill="none" xmlns="http://www.w3.org/2000/svg">
<path d="M15.322 6.7553H4.74367C3.91524 6.7553 3.24367 7.42688 3.24367 8.2553V16.7447C3.24367 17.5731 3.91524 18.2447 4.74367 18.2447H15.322C16.1505 18.2447 16.822 17.5731 16.822 16.7447V14.8807C16.822 14.7402 16.9631 14.6435 17.0941 14.6941L20.3462 15.9508C20.6738 16.0774 21.0265 15.8356 21.0265 15.4844V9.57407C21.0265 9.19908 20.629 8.95754 20.2961 9.13027L17.1142 10.7817C16.981 10.8507 16.822 10.7541 16.822 10.6041V8.2553C16.822 7.42688 16.1505 6.7553 15.322 6.7553Z" fill="#151515" stroke="#151515" stroke-width="1.5" stroke-linecap="round"/>
</svg>
