<svg width="24" height="24" viewBox="0 0 24 24" fill="none" xmlns="http://www.w3.org/2000/svg">
<circle cx="8.09954" cy="16.4578" r="2.03606" stroke="#151515" stroke-width="1.5"/>
<circle cx="15.9004" cy="16.4578" r="2.03606" stroke="#151515" stroke-width="1.5"/>
<path d="M5.31345 15.9006V15.9006C4.08249 15.9006 3.08459 14.9027 3.08459 13.6717V13.1145C3.08459 11.5758 4.33196 10.3284 5.87066 10.3284H18.1293C19.668 10.3284 20.9154 11.5758 20.9154 13.1145V13.1145C20.9154 14.6532 19.668 15.9006 18.1293 15.9006V15.9006" stroke="#151515" stroke-width="1.5" stroke-linecap="round"/>
<path d="M9.77124 4.75624L9.77125 10.3285M9.77124 4.75624C9.77124 4.75624 8.65685 4.7563 7.54242 4.7563C6.428 4.7563 5.63941 5.36696 5.16578 6.51722C4.69216 7.66749 4.75634 10.3285 4.75634 10.3285H9.77125M9.77124 4.75624C9.77124 4.75624 10.8857 4.75624 12.0001 4.75616C13.1146 4.75609 13.8773 5.86124 14.1142 6.51722C14.7862 8.37795 14.7862 10.3285 14.7862 10.3285H9.77125" stroke="#151515" stroke-width="1.5" stroke-linecap="round"/>
<path d="M10.3284 16.4578H13.6716" stroke="#151515" stroke-width="1.67164"/>
</svg>
