<svg width="24" height="24" viewBox="0 0 24 24" fill="none" xmlns="http://www.w3.org/2000/svg">
<path d="M19.92 16.7699L14.16 9.56967L9.35998 13.4098L4.07998 7.16959" stroke="#151515" stroke-width="1.5" stroke-linecap="round" stroke-linejoin="round"/>
<ellipse cx="1.92" cy="1.92007" rx="1.92" ry="1.92007" transform="matrix(-1 0 0 1 16.08 7.16959)" fill="#151515"/>
<path d="M7.61969 13.9502C7.61969 15.0107 8.4793 15.8703 9.53969 15.8703C10.6001 15.8703 11.4597 15.0107 11.4597 13.9502C11.4597 12.8898 10.6001 12.0302 9.53969 12.0302C8.4793 12.0302 7.61969 12.8898 7.61969 13.9502Z" fill="#151515"/>
<ellipse cx="1.92" cy="1.92007" rx="1.92" ry="1.92007" transform="matrix(-1 0 0 1 21.84 14.8498)" fill="#151515"/>
<path d="M2.16 7.23008C2.16 8.29051 3.01961 9.15015 4.08 9.15015C5.14039 9.15015 6 8.29051 6 7.23008C6 6.16966 5.14039 5.31002 4.08 5.31002C3.01961 5.31002 2.16 6.16966 2.16 7.23008Z" fill="#151515"/>
<path d="M7.44 13.8898C7.44 14.9502 8.29961 15.8099 9.36 15.8099C10.4204 15.8099 11.28 14.9502 11.28 13.8898C11.28 12.8294 10.4204 11.9697 9.36 11.9697C8.29961 11.9697 7.44 12.8294 7.44 13.8898Z" fill="#151515"/>
</svg>
