<svg width="24" height="24" viewBox="0 0 24 24" fill="none" xmlns="http://www.w3.org/2000/svg">
<path d="M4.08105 16.7691L9.84027 9.57011L14.6396 13.4096L19.9189 7.17044" stroke="#151515" stroke-width="1.5" stroke-linecap="round" stroke-linejoin="round"/>
<circle cx="9.84027" cy="9.09018" r="1.91974" fill="#151515"/>
<path d="M16.3797 13.95C16.3797 15.0102 15.5202 15.8697 14.46 15.8697C13.3997 15.8697 12.5402 15.0102 12.5402 13.95C12.5402 12.8897 13.3997 12.0302 14.46 12.0302C15.5202 12.0302 16.3797 12.8897 16.3797 13.95Z" fill="#151515"/>
<circle cx="4.08105" cy="16.7691" r="1.91974" fill="#151515"/>
<path d="M21.8386 7.23091C21.8386 8.29116 20.9791 9.15065 19.9189 9.15065C18.8586 9.15065 17.9991 8.29116 17.9991 7.23091C17.9991 6.17067 18.8586 5.31118 19.9189 5.31118C20.9791 5.31118 21.8386 6.17067 21.8386 7.23091Z" fill="#151515"/>
<path d="M16.5594 13.8895C16.5594 14.9497 15.6999 15.8092 14.6396 15.8092C13.5794 15.8092 12.7199 14.9497 12.7199 13.8895C12.7199 12.8293 13.5794 11.9698 14.6396 11.9698C15.6999 11.9698 16.5594 12.8293 16.5594 13.8895Z" fill="#151515"/>
</svg>
