<svg width="24" height="24" viewBox="0 0 24 24" fill="none" xmlns="http://www.w3.org/2000/svg">
<path fill-rule="evenodd" clip-rule="evenodd" d="M15.887 6.88637C16.2193 6.52868 16.7801 6.51225 17.1328 6.84986L21.3107 10.8492C21.9366 11.4501 21.9366 12.4599 21.3107 13.0608L17.1328 17.0601C16.7801 17.3978 16.2193 17.3813 15.887 17.0236C15.5619 16.6738 15.5775 16.1279 15.922 15.7972L19.2524 12.6C19.6189 12.2481 19.6189 11.6619 19.2524 11.31L15.922 8.11283C15.5775 7.78211 15.5619 7.23623 15.887 6.88637Z" fill="#151515"/>
<path fill-rule="evenodd" clip-rule="evenodd" d="M7.69269 17.0236C7.36038 17.3813 6.79959 17.3978 6.44691 17.0601L2.269 13.0608C1.64305 12.4599 1.64305 11.4501 2.269 10.8492L6.4469 6.84987C6.79959 6.51225 7.36038 6.52869 7.6927 6.88638C8.01774 7.23624 8.00213 7.78213 7.65763 8.11285L4.32726 11.31C3.96073 11.6619 3.96073 12.2481 4.32726 12.6L7.65763 15.7972C8.00213 16.1279 8.01773 16.6738 7.69269 17.0236Z" fill="#151515"/>
<rect x="13.0184" y="3.27409" width="2" height="16.592" rx="0.5" transform="rotate(13.8735 13.0184 3.27409)" fill="#151515"/>
</svg>
