<svg width="24" height="24" viewBox="0 0 24 24" fill="none" xmlns="http://www.w3.org/2000/svg">
<path fill-rule="evenodd" clip-rule="evenodd" d="M10.6312 6.12736C11.0297 6.54244 11.0163 7.20196 10.6012 7.60044L6.74855 11.299C6.32144 11.709 6.32144 12.3921 6.74855 12.8022L10.6012 16.5007C11.0163 16.8992 11.0297 17.5587 10.6312 17.9738L10.2705 18.3496C9.87201 18.7647 9.21249 18.7781 8.79741 18.3796L3.54692 13.3391C2.81752 12.6389 2.81752 11.4623 3.54692 10.762L8.79741 5.72151C9.21249 5.32303 9.87201 5.33649 10.2705 5.75157L10.6312 6.12736Z" fill="black"/>
<path fill-rule="evenodd" clip-rule="evenodd" d="M14.0395 5.75157C14.438 5.33649 15.0976 5.32303 15.5126 5.72152L20.7631 10.762C21.4925 11.4623 21.4925 12.6389 20.7631 13.3391L15.5126 18.3796C15.0976 18.7781 14.438 18.7647 14.0395 18.3496L13.6788 17.9738C13.2803 17.5587 13.2938 16.8992 13.7088 16.5007L17.5615 12.8022C17.9886 12.3921 17.9886 11.709 17.5615 11.299L13.7088 7.60044C13.2938 7.20196 13.2803 6.54244 13.6788 6.12736L14.0395 5.75157Z" fill="black"/>
</svg>
