<svg width="24" height="24" viewBox="0 0 24 24" fill="none" xmlns="http://www.w3.org/2000/svg">
<circle cx="12" cy="12" r="8.92728" stroke="#151515" stroke-width="1.5"/>
<path fill-rule="evenodd" clip-rule="evenodd" d="M15.8009 8.19843L10.4787 10.4794L8.19776 15.8016L13.52 13.5207L15.8009 8.19843ZM10.9243 13.0753C11.5182 13.6691 12.481 13.6691 13.0749 13.0753C13.6687 12.4814 13.6687 11.5186 13.0749 10.9247C12.481 10.3309 11.5182 10.3309 10.9243 10.9247C10.3305 11.5186 10.3305 12.4814 10.9243 13.0753Z" fill="#151515"/>
<path d="M10.4787 10.4794L10.0191 10.2824C10.0697 10.1644 10.1638 10.0704 10.2818 10.0198L10.4787 10.4794ZM15.8009 8.19843L15.604 7.73885C15.7919 7.65831 16.0099 7.7003 16.1545 7.84487C16.2991 7.98944 16.3411 8.20746 16.2605 8.39538L15.8009 8.19843ZM8.19776 15.8016L8.39472 16.2612C8.2068 16.3417 7.98878 16.2997 7.84421 16.1552C7.69964 16.0106 7.65765 15.7926 7.73819 15.6047L8.19776 15.8016ZM13.52 13.5207L13.9796 13.7176C13.929 13.8356 13.835 13.9297 13.717 13.9802L13.52 13.5207ZM13.0749 13.0753L13.4284 13.4288V13.4288L13.0749 13.0753ZM10.9243 13.0753L10.5708 13.4288V13.4288L10.9243 13.0753ZM10.9243 10.9247L11.2779 11.2783H11.2779L10.9243 10.9247ZM10.2818 10.0198L15.604 7.73885L15.9979 8.658L10.6757 10.939L10.2818 10.0198ZM7.73819 15.6047L10.0191 10.2824L10.9383 10.6763L8.65733 15.9986L7.73819 15.6047ZM13.717 13.9802L8.39472 16.2612L8.0008 15.342L13.323 13.0611L13.717 13.9802ZM16.2605 8.39538L13.9796 13.7176L13.0604 13.3237L15.3414 8.00147L16.2605 8.39538ZM13.4284 13.4288C12.6393 14.218 11.3599 14.218 10.5708 13.4288L11.2779 12.7217C11.6765 13.1203 12.3227 13.1203 12.7213 12.7217L13.4284 13.4288ZM13.4284 10.5712C14.2176 11.3603 14.2176 12.6397 13.4284 13.4288L12.7213 12.7217C13.1199 12.3231 13.1199 11.6769 12.7213 11.2783L13.4284 10.5712ZM10.5708 10.5712C11.3599 9.78205 12.6393 9.78205 13.4284 10.5712L12.7213 11.2783C12.3227 10.8797 11.6765 10.8797 11.2779 11.2783L10.5708 10.5712ZM10.5708 13.4288C9.78165 12.6397 9.78165 11.3603 10.5708 10.5712L11.2779 11.2783C10.8793 11.6769 10.8793 12.3231 11.2779 12.7217L10.5708 13.4288Z" fill="#151515"/>
</svg>
