<svg width="24" height="24" viewBox="0 0 24 24" fill="none" xmlns="http://www.w3.org/2000/svg">
<path d="M12.2123 5.22414H4.61444C3.78601 5.22414 3.11444 5.89572 3.11444 6.72414V19.3205C3.11444 20.149 3.78601 20.8205 4.61444 20.8205H17.2108C18.0393 20.8205 18.7108 20.149 18.7108 19.3205V13.0223" stroke="#151515" stroke-width="1.5" stroke-linecap="round"/>
<path fill-rule="evenodd" clip-rule="evenodd" d="M21.6344 3.77978C22.0249 3.38923 22.0249 2.75606 21.6343 2.36557C21.2438 1.97507 20.6106 1.97512 20.2201 2.36567L19.8329 2.75289C19.4425 3.14342 19.4425 3.77655 19.833 4.16705C20.2235 4.5576 20.8567 4.55757 21.2472 4.167L21.6344 3.77978ZM18.7725 5.2279C19.163 5.6184 19.163 6.25153 18.7726 6.64206L8.95393 16.4622C8.56343 16.8527 7.93027 16.8528 7.53971 16.4623C7.14916 16.0718 7.14911 15.4386 7.53961 15.0481L17.3582 5.22795C17.7488 4.83738 18.382 4.83735 18.7725 5.2279Z" fill="#151515"/>
</svg>
