<svg width="24" height="24" viewBox="0 0 24 24" fill="none" xmlns="http://www.w3.org/2000/svg">
<path d="M20.8849 17.5599L6.38489 17.5599M6.38489 17.5599L6.38489 3.05992M6.38489 17.5599L20.8849 3.05992" stroke="black" stroke-width="1.5" stroke-linecap="round" stroke-linejoin="round"/>
<path fill-rule="evenodd" clip-rule="evenodd" d="M18.3227 15.31V7.42728C18.3227 6.46078 17.5392 5.67728 16.5727 5.67728H8.63001V7.17728H16.5727C16.7108 7.17728 16.8227 7.28921 16.8227 7.42728V15.31H18.3227ZM7.13001 7.17728V5.67728H3.07269C2.65848 5.67728 2.32269 6.01306 2.32269 6.42728C2.32269 6.84149 2.65848 7.17728 3.07269 7.17728H7.13001ZM16.8227 16.81H18.3227V20.9273C18.3227 21.3415 17.9869 21.6773 17.5727 21.6773C17.1585 21.6773 16.8227 21.3415 16.8227 20.9273V16.81Z" fill="black"/>
</svg>
