<svg width="24" height="24" viewBox="0 0 24 24" fill="none" xmlns="http://www.w3.org/2000/svg">
<circle cx="12" cy="12" r="9.25" stroke="#151515" stroke-width="1.5"/>
<path fill-rule="evenodd" clip-rule="evenodd" d="M15.2295 9.93522C15.5511 9.6136 15.5511 9.09214 15.2295 8.77051C14.9079 8.44888 14.3864 8.44888 14.0648 8.77051L12 10.8353L9.93529 8.77057C9.61366 8.44894 9.0922 8.44894 8.77057 8.77057C8.44894 9.09219 8.44894 9.61366 8.77057 9.93528L10.8353 12L8.77064 14.0647C8.44902 14.3863 8.44902 14.9078 8.77064 15.2294C9.09227 15.551 9.61373 15.551 9.93536 15.2294L12 13.1647L14.0647 15.2294C14.3864 15.5511 14.9078 15.5511 15.2294 15.2294C15.5511 14.9078 15.5511 14.3864 15.2294 14.0647L13.1647 12L15.2295 9.93522Z" fill="#151515"/>
</svg>
