<svg width="24" height="24" viewBox="0 0 24 24" fill="none" xmlns="http://www.w3.org/2000/svg">
<path fill-rule="evenodd" clip-rule="evenodd" d="M20.8253 5.43529C21.1371 5.89109 21.0204 6.51341 20.5646 6.82528L12.2709 12.5L20.5646 18.1747C21.0204 18.4865 21.1371 19.1089 20.8253 19.5647C20.5134 20.0205 19.8911 20.1371 19.4353 19.8253L10.5123 13.7201L7.88276 15.5983C7.95924 15.886 8 16.1882 8 16.4999C8 18.4329 6.433 19.9999 4.5 19.9999C2.567 19.9999 1 18.4329 1 16.4999C1 14.5669 2.567 12.9999 4.5 12.9999C5.39609 12.9999 6.21353 13.3367 6.83267 13.8906L8.77949 12.5L6.83264 11.1094C6.2135 11.6632 5.39608 11.9999 4.5 11.9999C2.567 11.9999 1 10.4329 1 8.49995C1 6.56695 2.567 4.99995 4.5 4.99995C6.433 4.99995 8 6.56695 8 8.49995C8 8.81171 7.95924 9.11395 7.88275 9.40164L10.5123 11.2799L19.4353 5.17467C19.8911 4.8628 20.5134 4.97948 20.8253 5.43529ZM11.5 12.5C11.5 13.0523 11.0522 13.5 10.5 13.5C9.94767 13.5 9.49996 13.0523 9.49996 12.5C9.49996 11.9477 9.94767 11.5 10.5 11.5C11.0522 11.5 11.5 11.9477 11.5 12.5ZM3 16.4999C3 17.3284 3.67157 17.9999 4.5 17.9999C5.32843 17.9999 6 17.3284 6 16.4999C6 15.6715 5.32843 14.9999 4.5 14.9999C3.67157 14.9999 3 15.6715 3 16.4999ZM3 8.49995C3 9.32837 3.67157 9.99995 4.5 9.99995C5.32843 9.99995 6 9.32837 6 8.49995C6 7.67152 5.32843 6.99995 4.5 6.99995C3.67157 6.99995 3 7.67152 3 8.49995Z" fill="black"/>
</svg>
