<svg width="24" height="24" viewBox="0 0 24 24" fill="none" xmlns="http://www.w3.org/2000/svg">
<path fill-rule="evenodd" clip-rule="evenodd" d="M21.5082 5.24322C21.8099 5.67916 21.697 6.27435 21.2559 6.57263L13.2298 12L21.2559 17.4274C21.697 17.7256 21.8099 18.3208 21.5082 18.7568C21.2063 19.1927 20.6041 19.3043 20.163 19.006L11.528 13.1669L8.98337 14.9633C9.05738 15.2384 9.09683 15.5275 9.09683 15.8256C9.09683 17.6744 7.5804 19.1731 5.70979 19.1731C3.83918 19.1731 2.32275 17.6744 2.32275 15.8256C2.32275 13.9769 3.83918 12.4782 5.70979 12.4782C6.57696 12.4782 7.36802 12.8003 7.96717 13.33L9.85116 12L7.96714 10.67C7.36799 11.1997 6.57695 11.5218 5.70979 11.5218C3.83918 11.5218 2.32275 10.0231 2.32275 8.1743C2.32275 6.32555 3.83918 4.82685 5.70979 4.82685C7.5804 4.82685 9.09683 6.32555 9.09683 8.1743C9.09683 8.47248 9.05738 8.76155 8.98336 9.0367L11.528 10.8331L20.163 4.99395C20.6041 4.69568 21.2064 4.80728 21.5082 5.24322ZM12.4838 12C12.4838 12.5282 12.0506 12.9564 11.5161 12.9564C10.9816 12.9564 10.5484 12.5282 10.5484 12C10.5484 11.4718 10.9816 11.0436 11.5161 11.0436C12.0506 11.0436 12.4838 11.4718 12.4838 12ZM4.2582 15.8256C4.2582 16.618 4.9081 17.2603 5.70979 17.2603C6.51148 17.2603 7.16138 16.618 7.16138 15.8256C7.16138 15.0333 6.51148 14.391 5.70979 14.391C4.9081 14.391 4.2582 15.0333 4.2582 15.8256ZM4.2582 8.1743C4.2582 8.96662 4.9081 9.60893 5.70979 9.60893C6.51148 9.60893 7.16138 8.96662 7.16138 8.1743C7.16138 7.38198 6.51148 6.73968 5.70979 6.73968C4.9081 6.73968 4.2582 7.38198 4.2582 8.1743Z" fill="#151515"/>
</svg>
