<svg width="24" height="24" viewBox="0 0 24 24" fill="none" xmlns="http://www.w3.org/2000/svg">
<path d="M3.78324 6.26275C9.05572 2.25577 15.5773 2.31759 20.2654 6.36963C20.6572 6.70832 20.6719 7.30181 20.3241 7.68559L18.1968 10.0328C17.9175 10.3411 17.4722 10.4362 17.0913 10.2689L15.7245 9.66866C15.2837 9.47507 15.0524 8.98672 15.1819 8.523L15.7179 6.60316C15.8889 5.99077 15.4326 5.38281 14.7968 5.37592L9.15911 5.31478C8.5285 5.30794 8.06013 5.89673 8.20862 6.50965L8.70245 8.54798C8.81237 9.00171 8.58249 9.46922 8.15603 9.6592L6.79815 10.2641C6.40356 10.4399 5.94024 10.3327 5.66295 10.0015L3.65157 7.59889C3.31108 7.19217 3.36093 6.5837 3.78324 6.26275Z" fill="#151515"/>
<path d="M3.78324 6.26275C9.05572 2.25577 15.5773 2.31759 20.2654 6.36963C20.6572 6.70832 20.6719 7.30181 20.3241 7.68559L18.1968 10.0328C17.9175 10.3411 17.4722 10.4362 17.0913 10.2689L15.7245 9.66866C15.2837 9.47507 15.0524 8.98672 15.1819 8.523L15.7179 6.60316C15.8889 5.99077 15.4326 5.38281 14.7968 5.37592L9.15911 5.31478C8.5285 5.30794 8.06013 5.89673 8.20862 6.50965L8.70245 8.54798C8.81237 9.00171 8.58249 9.46922 8.15603 9.6592L6.79815 10.2641C6.40356 10.4399 5.94024 10.3327 5.66295 10.0015L3.65157 7.59889C3.31108 7.19217 3.36093 6.5837 3.78324 6.26275Z" stroke="#151515" stroke-width="1.5" stroke-linecap="round" stroke-linejoin="round"/>
<circle cx="12.3253" cy="16.0383" r="2.44287" stroke="#151515" stroke-width="1.5"/>
<path d="M13.0152 11.373H11.2251C10.529 11.373 8.36564 11.252 7.89665 12.6589L6.31075 17.8168C5.87927 19.1405 6.51006 20.7062 7.99293 20.7062H16.6719C18.1877 20.7062 18.7866 19.1727 18.3165 17.7533L16.2931 12.6589C15.8241 11.373 13.6849 11.373 13.0152 11.373Z" stroke="#151515" stroke-width="1.5" stroke-linecap="round" stroke-linejoin="round"/>
</svg>
