<svg width="24" height="24" viewBox="0 0 24 24" fill="none" xmlns="http://www.w3.org/2000/svg">
<path d="M9.98885 14.2213L8.39255 7.60807H9.98885L10.2105 9.44465L10.787 14.2213H9.98885Z" fill="#151515"/>
<path d="M19.9657 17.9413L17.9704 19.1812L15.5759 14.2213H10.787M10.787 14.2213H9.98885L8.39255 7.60807H9.98885L10.2105 9.44465M10.787 14.2213L10.2105 9.44465M10.2105 9.44465H13.734" stroke="#151515" stroke-width="1.5" stroke-linecap="round" stroke-linejoin="round"/>
<path fill-rule="evenodd" clip-rule="evenodd" d="M15.6528 18.145C15.2936 17.7859 14.6754 17.9122 14.3791 18.3247C13.5734 19.4466 12.2575 20.1773 10.7709 20.1773C8.31912 20.1773 6.33157 18.1897 6.33157 15.738C6.33157 14.4974 6.84041 13.3757 7.66076 12.5702C7.89398 12.3412 8.00823 12.0073 7.91431 11.6942C7.7649 11.1962 7.17982 10.9785 6.79374 11.3268C5.58888 12.4138 4.83157 13.9874 4.83157 15.738C4.83157 19.0182 7.4907 21.6773 10.7709 21.6773C12.8611 21.6773 14.6992 20.5975 15.7577 18.9654C15.9267 18.7047 15.8725 18.3648 15.6528 18.145Z" fill="#151515"/>
<path d="M9.28258 3.07269C9.85163 3.07269 10.3127 3.53394 10.3129 4.10297C10.3129 4.67209 9.8517 5.13324 9.28258 5.13324C8.71355 5.13312 8.2523 4.67202 8.2523 4.10297C8.25242 3.53401 8.71362 3.07281 9.28258 3.07269Z" fill="#151515" stroke="#151515" stroke-width="1.5"/>
</svg>
