<svg width="24" height="24" viewBox="0 0 24 24" fill="none" xmlns="http://www.w3.org/2000/svg">
<path d="M21 18.5441L18.7586 19.937L16.069 14.3656H10.6897M10.6897 14.3656H9.7931L8 6.93699H9.7931L10.0421 9M10.6897 14.3656L10.0421 9M10.0421 9H14" stroke="black" stroke-width="2" stroke-linecap="round" stroke-linejoin="round"/>
<path fill-rule="evenodd" clip-rule="evenodd" d="M16.086 18.7037C15.6069 18.2246 14.7732 18.407 14.3563 18.9411C13.5014 20.0365 12.1687 20.7407 10.6716 20.7407C8.09153 20.7407 6 18.6492 6 16.0692C6 14.8581 6.46089 13.7546 7.21684 12.9246C7.50743 12.6055 7.65437 12.1655 7.53036 11.7521C7.32854 11.0794 6.53699 10.7863 6.03229 11.2747C4.77908 12.4876 4 14.1874 4 16.0692C4 19.7538 6.98696 22.7407 10.6716 22.7407C12.9844 22.7407 15.0223 21.5639 16.2192 19.7763C16.4458 19.4379 16.374 18.9917 16.086 18.7037Z" fill="black"/>
<path d="M10.25 3C10.25 3.69035 9.69036 4.25 9 4.25C8.30964 4.25 7.75 3.69035 7.75 3C7.75 2.30964 8.30964 1.75 9 1.75C9.69036 1.75 10.25 2.30964 10.25 3Z" fill="black" stroke="black" stroke-width="1.5"/>
</svg>
