<svg width="24" height="24" viewBox="0 0 24 24" fill="none" xmlns="http://www.w3.org/2000/svg">
<path d="M5.80051 5.44444C5.80051 4.2018 6.80787 3.19444 8.05051 3.19444H16.038C17.2807 3.19444 18.288 4.2018 18.288 5.44444V9.00109V18.6773C18.288 19.9199 17.2807 20.9273 16.038 20.9273H8.05051C6.80787 20.9273 5.80051 19.9199 5.80051 18.6773V9.00109V5.44444Z" stroke="#151515" stroke-width="1.5"/>
<path d="M5.92473 8.56398L18.1638 8.56398" stroke="#151515" stroke-width="1.5" stroke-linecap="round"/>
<path d="M7.67317 5.94133C7.67317 5.45851 8.06457 5.06711 8.54739 5.06711H15.5411C16.024 5.06711 16.4154 5.45851 16.4154 5.94133C16.4154 6.42415 16.024 6.81555 15.5411 6.81555H8.54739C8.06457 6.81555 7.67317 6.42415 7.67317 5.94133Z" fill="#151515"/>
</svg>
