<svg width="24" height="24" viewBox="0 0 24 24" fill="none" xmlns="http://www.w3.org/2000/svg">
<path d="M8.05051 3.19444H16.0378C17.2805 3.19444 18.2878 4.2018 18.2878 5.44444V18.6769C18.2878 19.9195 17.2805 20.9269 16.0378 20.9269H8.05051C6.80787 20.9269 5.80051 19.9195 5.80051 18.6769V5.44444C5.80051 4.2018 6.80787 3.19444 8.05051 3.19444Z" stroke="#151515" stroke-width="1.5"/>
<path d="M5.92473 8.56398L18.1638 8.56398" stroke="#151515" stroke-width="1.5" stroke-linecap="round"/>
<path d="M7.67317 5.94133C7.67317 5.45851 8.06457 5.06711 8.54739 5.06711H15.5411C16.024 5.06711 16.4154 5.45851 16.4154 5.94133C16.4154 6.42415 16.024 6.81555 15.5411 6.81555H8.54739C8.06457 6.81555 7.67317 6.42415 7.67317 5.94133Z" fill="#151515"/>
</svg>
