<svg width="24" height="24" viewBox="0 0 24 24" fill="none" xmlns="http://www.w3.org/2000/svg">
<path d="M7.14819 10.9624L6.17974 14.5941M7.14819 10.9624L11.5062 12.5188M7.14819 10.9624H6.17974L5.21129 14.5941H6.17974M6.17974 14.5941L8.84298 13.5564L12.4747 16.1505" stroke="#151515" stroke-width="1.5" stroke-linecap="round" stroke-linejoin="round"/>
<path d="M17.0733 14.3211L12.5082 16.1506H5.94772H5.17311M5.17311 16.1506H3.13609V18.2258L5.17311 16.1506Z" stroke="#151515" stroke-width="1.5" stroke-linecap="round" stroke-linejoin="round"/>
<path d="M17.5816 14.8565C17.9217 15.1001 18.3384 15.2435 18.7887 15.2435C19.1667 15.2435 19.5211 15.1424 19.8263 14.9658M17.5816 14.8565C17.0559 14.48 16.7134 13.8641 16.7134 13.1682C16.7134 12.9094 16.7608 12.6617 16.8473 12.4333M17.5816 14.8565L19.3075 17.8375L19.8263 14.9658M19.8263 14.9658C20.4466 14.607 20.8639 13.9364 20.8639 13.1682C20.8639 12.0221 19.9348 11.093 18.7887 11.093C17.9013 11.093 17.1441 11.6499 16.8473 12.4333M16.8473 12.4333L14.1194 11.093V9.53654" stroke="#151515" stroke-width="1.5" stroke-linecap="round" stroke-linejoin="round"/>
<path d="M8.61185 7.33069C8.61185 7.77608 8.25079 8.13713 7.80541 8.13713C7.36003 8.13713 6.99897 7.77608 6.99897 7.33069C6.99897 6.88531 7.36003 6.52426 7.80541 6.52426C8.25079 6.52426 8.61185 6.88531 8.61185 7.33069Z" fill="#151515" stroke="#151515" stroke-width="1.5"/>
<path d="M5.21129 15.1128H6.24891" stroke="#151515" stroke-width="0.585309" stroke-linecap="round" stroke-linejoin="round"/>
<path d="M6.24891 15.813V14.9451H5.21129V15.813H6.24891Z" fill="#151515" stroke="#151515" stroke-width="0.585309" stroke-linecap="round" stroke-linejoin="round"/>
</svg>
