<svg width="24" height="24" viewBox="0 0 24 24" fill="none" xmlns="http://www.w3.org/2000/svg">
<path d="M6.52634 10.8531L5.43376 14.9503M6.52634 10.8531L11.4429 12.6091M6.52634 10.8531H5.43376L4.34119 14.9503H5.43376M5.43376 14.9503L8.43835 13.7797L12.5355 16.7062" stroke="black" stroke-width="1.75593" stroke-linecap="round" stroke-linejoin="round"/>
<path d="M17.7236 14.6423L12.5733 16.7063H5.172H4.2981M4.2981 16.7063H2V19.0475L4.2981 16.7063Z" stroke="black" stroke-width="1.5218" stroke-linecap="round" stroke-linejoin="round"/>
<path d="M18.297 15.2464C18.6806 15.5212 19.1508 15.683 19.6588 15.683C20.0852 15.683 20.485 15.569 20.8294 15.3698M18.297 15.2464C17.704 14.8216 17.3176 14.1268 17.3176 13.3417C17.3176 13.0498 17.371 12.7703 17.4686 12.5126M18.297 15.2464L20.2441 18.6095L20.8294 15.3698M20.8294 15.3698C21.5292 14.9649 22 14.2083 22 13.3417C22 12.0487 20.9518 11.0005 19.6588 11.0005C18.6577 11.0005 17.8034 11.6288 17.4686 12.5126M17.4686 12.5126L14.391 11.0005V9.24457" stroke="black" stroke-width="1.5218" stroke-linecap="round" stroke-linejoin="round"/>
<path d="M8.31635 6.756C8.31635 7.3351 7.84689 7.80455 7.2678 7.80455C6.6887 7.80455 6.21924 7.3351 6.21924 6.756C6.21924 6.1769 6.6887 5.70744 7.2678 5.70744C7.84689 5.70744 8.31635 6.1769 8.31635 6.756Z" fill="black" stroke="black" stroke-width="1.41475"/>
<path d="M4.34119 15.5355H5.5118" stroke="black" stroke-width="0.585309" stroke-linecap="round" stroke-linejoin="round"/>
<path d="M5.5118 16.3254V15.3463H4.34119V16.3254H5.5118Z" fill="black" stroke="black" stroke-width="0.585309" stroke-linecap="round" stroke-linejoin="round"/>
</svg>
