<svg width="24" height="24" viewBox="0 0 24 24" fill="none" xmlns="http://www.w3.org/2000/svg">
<path d="M3.07272 9.72148C3.07272 8.47884 4.08008 7.47148 5.32272 7.47148H18.6773C19.9199 7.47148 20.9273 8.47884 20.9273 9.72148V14.2785C20.9273 15.5212 19.9199 16.5285 18.6773 16.5285H5.32272C4.08008 16.5285 3.07272 15.5212 3.07272 14.2785V9.72148Z" stroke="black" stroke-width="1.5"/>
<path d="M7.556 10.0248H5.87082C5.76036 10.0248 5.67082 10.1143 5.67082 10.2248V12.2242M7.556 14.4235H5.87082C5.76036 14.4235 5.67082 14.334 5.67082 14.2235V12.2242M5.67082 12.2242H7.556M12.269 10.0248L8.96989 14.4235M8.96989 10.0248L12.269 14.4235M13.6828 10.0248V14.4235M15.0967 10.0248H16.9819M18.8671 10.0248H16.9819M16.9819 10.0248V14.4235" stroke="#151515" stroke-width="1.5" stroke-linecap="round"/>
</svg>
