<svg width="24" height="24" viewBox="0 0 24 24" fill="none" xmlns="http://www.w3.org/2000/svg">
<path fill-rule="evenodd" clip-rule="evenodd" d="M13 3C14.1046 3 15 3.89543 15 5L15 7.63636C15 8.18865 14.5523 8.63636 14 8.63636C13.4477 8.63636 13 8.18865 13 7.63636L13 5V5C13 5 13 5 13 5L6 5C5.44772 5 5 5.44772 5 6L5 18C5 18.5523 5.44772 19 6 19L12 19C12.5523 19 13 18.5523 13 18L13 16.3636C13 15.8114 13.4477 15.3636 14 15.3636C14.5523 15.3636 15 15.8114 15 16.3636L15 19C15 20.1046 14.1046 21 13 21L5 21C3.89543 21 3 20.1046 3 19L3 5C3 3.89543 3.89543 3 5 3L13 3Z" fill="black"/>
<path d="M9.99963 12L20.9996 12M20.9996 12L18 8.5M20.9996 12L17.9996 15.5" stroke="black" stroke-width="2" stroke-linecap="round" stroke-linejoin="round"/>
</svg>
