<svg width="24" height="24" viewBox="0 0 24 24" fill="none" xmlns="http://www.w3.org/2000/svg">
<path fill-rule="evenodd" clip-rule="evenodd" d="M4 8.86754L10.3571 12.5378L4 16.2081L4 8.86754ZM11.5477 11.4931L4 7.13549C3.33333 6.75059 2.5 7.23172 2.5 8.00152V17.0742C2.5 17.844 3.33333 18.3251 4 17.9402L11.5477 13.5825V17.0742C11.5477 17.844 12.381 18.3251 13.0477 17.9402L20.9048 13.4039C21.5715 13.019 21.5715 12.0567 20.9048 11.6718L13.0477 7.13548C12.381 6.75058 11.5477 7.23171 11.5477 8.00151V11.4931ZM13.0477 8.86753L19.4048 12.5378L13.0477 16.2081V8.86753Z" fill="#151515"/>
</svg>
