<svg width="24" height="24" viewBox="0 0 24 24" fill="none" xmlns="http://www.w3.org/2000/svg">
<path d="M3.43112 19.0174L2.73476 18.7388C2.58279 19.1188 2.76342 19.5504 3.1407 19.7089L3.43112 19.0174ZM20.5688 19.0174L20.8593 19.7089C21.2405 19.5487 21.4202 19.1103 21.2611 18.7287L20.5688 19.0174ZM7.71555 9.02037L8.29886 8.54894C8.14419 8.35757 7.90549 8.25423 7.6601 8.27243C7.41471 8.29062 7.19386 8.42802 7.0691 8.64011L7.71555 9.02037ZM10.5718 14.5187L9.85526 14.7401C9.95323 15.0572 10.248 15.2722 10.5798 15.2687C10.9117 15.2651 11.2018 15.0439 11.293 14.7248L10.5718 14.5187ZM12 4.02188L11.3292 4.35729L12 4.02188ZM9.14369 11.0198L8.49567 11.3973L9.14369 11.0198ZM16.7604 11.0198L17.4105 10.6457L16.7604 11.0198ZM14.1422 13.7332L14.8028 13.3781C14.6565 13.1059 14.3581 12.9513 14.0513 12.9888C13.7446 13.0262 13.4922 13.248 13.4156 13.5474L14.1422 13.7332ZM8.2511 16.5895L8.95002 16.3175C8.84758 16.0543 8.60604 15.871 8.32504 15.8432C8.04404 15.8153 7.77122 15.9477 7.61915 16.1856L8.2511 16.5895ZM9.56353 19.9611L9.52755 20.7102L9.56353 19.9611ZM7.71555 9.02037C7.13224 9.49181 7.13222 9.49178 7.1322 9.49176C7.1322 9.49176 7.13219 9.49175 7.13219 9.49175C7.13219 9.49175 7.1322 9.49176 7.13223 9.4918C7.13228 9.49186 7.13239 9.492 7.13256 9.49221C7.13289 9.49262 7.13345 9.49331 7.13423 9.49427C7.13578 9.4962 7.1382 9.49921 7.14145 9.50326C7.14796 9.51136 7.15778 9.52362 7.17058 9.53968C7.19619 9.5718 7.23368 9.61905 7.28031 9.67852C7.3737 9.79761 7.50324 9.96496 7.64739 10.1574C7.94051 10.5488 8.27592 11.0202 8.49567 11.3973L9.79171 10.6422C9.52636 10.1868 9.1477 9.65844 8.84802 9.25828C8.69577 9.05498 8.55923 8.87859 8.46064 8.75287C8.41129 8.68995 8.37131 8.63954 8.34345 8.60459C8.32952 8.58712 8.31861 8.5735 8.31106 8.5641C8.30729 8.5594 8.30436 8.55576 8.30231 8.55322C8.30129 8.55195 8.30048 8.55095 8.29991 8.55024C8.29962 8.54988 8.29939 8.54959 8.29921 8.54938C8.29912 8.54927 8.29905 8.54918 8.29899 8.5491C8.29896 8.54907 8.29893 8.54903 8.29891 8.54901C8.29888 8.54897 8.29886 8.54894 7.71555 9.02037ZM8.49567 11.3973C8.83053 11.9721 9.16924 12.7955 9.43134 13.5048C9.56021 13.8535 9.66672 14.164 9.74093 14.3871C9.778 14.4985 9.8069 14.5878 9.82638 14.6487C9.83612 14.6792 9.8435 14.7026 9.84837 14.7181C9.8508 14.7258 9.85261 14.7316 9.85376 14.7353C9.85434 14.7372 9.85475 14.7385 9.855 14.7393C9.85513 14.7397 9.85521 14.74 9.85525 14.7401C9.85528 14.7402 9.85529 14.7402 9.85529 14.7402C9.85529 14.7402 9.85528 14.7402 9.85528 14.7402C9.85527 14.7402 9.85526 14.7401 10.5718 14.5187C11.2884 14.2973 11.2884 14.2973 11.2884 14.2972C11.2884 14.2972 11.2883 14.2971 11.2883 14.297C11.2883 14.2969 11.2882 14.2967 11.2882 14.2965C11.288 14.2961 11.2879 14.2956 11.2877 14.2949C11.2872 14.2935 11.2867 14.2917 11.2859 14.2893C11.2844 14.2844 11.2822 14.2775 11.2795 14.2686C11.2739 14.2508 11.2657 14.225 11.2552 14.192C11.2341 14.126 11.2033 14.0311 11.1642 13.9136C11.0861 13.6788 10.9742 13.3523 10.8383 12.9848C10.5711 12.2616 10.1957 11.3356 9.79171 10.6422L8.49567 11.3973ZM11.293 14.7248C11.8096 12.9165 11.7819 13.6741 12.7296 9.69394L11.2704 9.34651C10.3138 13.3639 10.4495 12.2169 9.85069 14.3127L11.293 14.7248ZM12.7296 9.69394C13.2061 7.69258 13.3753 6.5063 13.3197 5.65125C13.2602 4.73768 12.9366 4.218 12.6708 3.68646L11.3292 4.35729C11.6346 4.96824 11.787 5.19833 11.8228 5.74861C11.8624 6.35741 11.746 7.34907 11.2704 9.34651L12.7296 9.69394ZM12.6708 3.68646C12.6717 3.68819 12.6775 3.69981 12.6849 3.71804C12.6885 3.72673 12.7115 3.78159 12.7251 3.85859C12.7313 3.89385 12.7456 3.9861 12.727 4.10302C12.7078 4.22318 12.6343 4.46769 12.3768 4.62416C12.1336 4.77198 11.8994 4.73369 11.8071 4.71053C11.707 4.6854 11.6364 4.6452 11.6081 4.62827C11.5473 4.59188 11.5077 4.55562 11.5006 4.54917C11.4869 4.53683 11.4785 4.52802 11.4771 4.52655C11.4741 4.52338 11.478 4.5273 11.4912 4.54287C11.5458 4.60739 11.6508 4.74165 11.803 4.94501C12.1016 5.34385 12.5446 5.95791 13.0492 6.68067C14.0612 8.12983 15.3001 9.98557 16.1104 11.3938L17.4105 10.6457C16.5668 9.17946 15.2978 7.28079 14.2791 5.8219C13.7685 5.09063 13.3154 4.46226 13.0038 4.04604C12.851 3.84186 12.7222 3.67543 12.6355 3.57308C12.6133 3.54693 12.5877 3.5175 12.5611 3.48976C12.5561 3.48452 12.4828 3.40365 12.3783 3.3411C12.3472 3.32253 12.2743 3.28126 12.1722 3.25564C12.078 3.23199 11.8422 3.1938 11.5979 3.3423C11.3392 3.49946 11.265 3.74524 11.2456 3.86727C11.2267 3.98605 11.2411 4.08077 11.2479 4.11909C11.2707 4.24872 11.3272 4.35329 11.3292 4.35729L12.6708 3.68646ZM16.1104 11.3938C16.9513 12.8552 17.8911 14.8272 18.6265 16.4491C18.9927 17.2568 19.3056 17.972 19.5269 18.4851C19.6376 18.7415 19.7252 18.9473 19.7851 19.0888C19.815 19.1595 19.838 19.2141 19.8535 19.2509C19.8612 19.2693 19.8671 19.2832 19.8709 19.2925C19.8729 19.2971 19.8743 19.3005 19.8753 19.3028C19.8757 19.304 19.8761 19.3048 19.8763 19.3053C19.8764 19.3056 19.8765 19.3058 19.8766 19.3059C19.8766 19.306 19.8766 19.306 19.8766 19.306C19.8766 19.306 19.8766 19.306 20.5688 19.0174C21.2611 18.7287 21.261 18.7287 21.261 18.7286C21.261 18.7286 21.261 18.7285 21.2609 18.7284C21.2608 18.7282 21.2607 18.7279 21.2606 18.7276C21.2603 18.7269 21.2599 18.7259 21.2594 18.7246C21.2583 18.7221 21.2567 18.7183 21.2546 18.7134C21.2505 18.7035 21.2444 18.6889 21.2364 18.6699C21.2204 18.6319 21.1969 18.5759 21.1664 18.5038C21.1053 18.3597 21.0163 18.1508 20.9043 17.891C20.6802 17.3715 20.3635 16.6477 19.9926 15.8297C19.2537 14.1999 18.2894 12.1731 17.4105 10.6457L16.1104 11.3938ZM3.43112 19.0174C4.12748 19.2959 4.12748 19.2959 4.12748 19.2959C4.12749 19.2959 4.12749 19.2959 4.1275 19.2958C4.12752 19.2958 4.12755 19.2957 4.1276 19.2956C4.12768 19.2954 4.1278 19.2951 4.12797 19.2947C4.12831 19.2938 4.12882 19.2926 4.12951 19.2908C4.13089 19.2874 4.13296 19.2822 4.13573 19.2753C4.14127 19.2615 4.14959 19.2407 4.16071 19.213C4.18294 19.1575 4.21634 19.0743 4.26088 18.9635C4.34998 18.7419 4.48371 18.4098 4.66206 17.9684C5.01877 17.0855 5.55399 15.7653 6.26772 14.0167L4.87895 13.4498C4.16454 15.2001 3.62865 16.522 3.27129 17.4064C3.09261 17.8487 2.95856 18.1816 2.86914 18.404C2.82443 18.5152 2.79087 18.5988 2.76848 18.6547C2.75728 18.6826 2.74887 18.7036 2.74325 18.7176C2.74044 18.7246 2.73833 18.7299 2.73692 18.7334C2.73621 18.7352 2.73568 18.7365 2.73532 18.7374C2.73514 18.7379 2.735 18.7382 2.73491 18.7385C2.73486 18.7386 2.73483 18.7387 2.7348 18.7387C2.73479 18.7388 2.73478 18.7388 2.73478 18.7388C2.73477 18.7388 2.73476 18.7388 3.43112 19.0174ZM6.26772 14.0167C6.97681 12.2794 7.50617 11.1154 7.85563 10.3903C8.03033 10.0278 8.15993 9.77527 8.24439 9.61584C8.28662 9.53613 8.31754 9.47975 8.33716 9.44457C8.34696 9.42698 8.35393 9.4147 8.35808 9.40747C8.36015 9.40385 8.36151 9.40149 8.36216 9.40037C8.36249 9.3998 8.36264 9.39955 8.36261 9.39959C8.3626 9.39962 8.36254 9.39971 8.36244 9.39989C8.36239 9.39998 8.36233 9.40008 8.36225 9.40021C8.36222 9.40027 8.36215 9.40038 8.36213 9.40041C8.36207 9.40052 8.362 9.40064 7.71555 9.02037C7.0691 8.64011 7.06902 8.64023 7.06895 8.64037C7.06892 8.64041 7.06884 8.64055 7.06878 8.64065C7.06866 8.64085 7.06853 8.64107 7.0684 8.6413C7.06812 8.64177 7.0678 8.64232 7.06744 8.64294C7.06671 8.64418 7.06582 8.64572 7.06475 8.64756C7.06261 8.65124 7.05979 8.65613 7.05628 8.66225C7.04927 8.67451 7.03951 8.69173 7.027 8.71417C7.00198 8.75904 6.96596 8.82483 6.91893 8.9136C6.82488 9.09112 6.6867 9.36075 6.50436 9.7391C6.13975 10.4957 5.598 11.6881 4.87895 13.4498L6.26772 14.0167ZM12 20.7671C12.1841 20.7671 12.365 20.7662 12.5427 20.7645L12.5284 19.2646C12.3555 19.2662 12.1794 19.2671 12 19.2671V20.7671ZM13.2621 20.2004L14.8688 13.9191L13.4156 13.5474L11.8089 19.8287L13.2621 20.2004ZM12.5427 20.7645C14.5903 20.7449 16.2084 20.616 17.4521 20.4544L17.2589 18.9669C16.0788 19.1202 14.5206 19.2455 12.5284 19.2646L12.5427 20.7645ZM17.4521 20.4544C18.6131 20.3036 19.4478 20.1244 20.0009 19.9792C20.2775 19.9067 20.4836 19.8426 20.6248 19.795C20.6954 19.7711 20.7498 19.7514 20.7887 19.7367C20.8081 19.7293 20.8236 19.7233 20.8353 19.7186C20.8412 19.7163 20.8461 19.7143 20.8501 19.7126C20.8521 19.7118 20.8539 19.7111 20.8554 19.7105C20.8561 19.7102 20.8568 19.7099 20.8575 19.7096C20.8578 19.7095 20.8581 19.7093 20.8584 19.7092C20.8586 19.7091 20.8588 19.7091 20.8588 19.709C20.8591 19.7089 20.8593 19.7089 20.5688 19.0174C20.2784 18.3259 20.2786 18.3258 20.2788 18.3257C20.2788 18.3257 20.279 18.3256 20.2792 18.3256C20.2794 18.3255 20.2796 18.3254 20.2798 18.3253C20.2802 18.3251 20.2806 18.325 20.2809 18.3248C20.2815 18.3246 20.2818 18.3245 20.2819 18.3244C20.2822 18.3243 20.2815 18.3246 20.2798 18.3253C20.2765 18.3266 20.2694 18.3294 20.2584 18.3335C20.2365 18.3418 20.1989 18.3556 20.145 18.3738C20.0372 18.4102 19.8642 18.4643 19.6202 18.5284C19.1323 18.6564 18.3604 18.8238 17.2589 18.9669L17.4521 20.4544ZM13.4816 14.0884L16.6949 20.0658L18.0161 19.3555L14.8028 13.3781L13.4816 14.0884ZM3.43112 19.0174C3.1407 19.7089 3.14089 19.7089 3.14108 19.709C3.14115 19.709 3.14135 19.7091 3.14149 19.7092C3.14176 19.7093 3.14205 19.7094 3.14235 19.7095C3.14296 19.7098 3.14361 19.7101 3.14432 19.7104C3.14573 19.711 3.14736 19.7116 3.14919 19.7124C3.15286 19.7139 3.15737 19.7157 3.16272 19.7178C3.17343 19.7221 3.18754 19.7277 3.20511 19.7343C3.24025 19.7477 3.28925 19.7656 3.3527 19.7873C3.47961 19.8307 3.66427 19.8891 3.9114 19.9559C4.40568 20.0895 5.14966 20.2566 6.18105 20.4043L6.39377 18.9195C5.4193 18.7799 4.73514 18.6247 4.30273 18.5079C4.08653 18.4494 3.93322 18.4006 3.83798 18.368C3.79037 18.3517 3.75726 18.3395 3.73806 18.3322C3.72845 18.3286 3.72233 18.3261 3.7196 18.3251C3.71824 18.3245 3.71773 18.3243 3.71805 18.3244C3.71822 18.3245 3.71859 18.3246 3.71917 18.3249C3.71946 18.325 3.71981 18.3252 3.7202 18.3253C3.7204 18.3254 3.72061 18.3255 3.72084 18.3256C3.72095 18.3256 3.72113 18.3257 3.72118 18.3257C3.72136 18.3258 3.72155 18.3259 3.43112 19.0174ZM6.91936 20.0658L8.88305 16.9934L7.61915 16.1856L5.65546 19.258L6.91936 20.0658ZM6.18105 20.4043C7.07328 20.5322 8.18063 20.6455 9.52755 20.7102L9.5995 19.2119C8.29707 19.1494 7.2368 19.0403 6.39377 18.9195L6.18105 20.4043ZM9.52755 20.7102C10.2762 20.7462 11.099 20.7671 12 20.7671V19.2671C11.1222 19.2671 10.3235 19.2467 9.5995 19.2119L9.52755 20.7102ZM7.55219 16.8616L8.86461 20.2331L10.2624 19.689L8.95002 16.3175L7.55219 16.8616Z" fill="#151515"/>
</svg>
