<svg width="24" height="24" viewBox="0 0 24 24" fill="none" xmlns="http://www.w3.org/2000/svg">
<path fill-rule="evenodd" clip-rule="evenodd" d="M9.33337 8.90366L9.33643 8.90745L9.34419 8.9171L9.37274 8.95279C9.39726 8.98355 9.43241 9.02787 9.47578 9.08316C9.5624 9.19362 9.68234 9.34856 9.8161 9.52718C10.0788 9.87797 10.4129 10.344 10.648 10.7474C10.8453 11.086 11.0343 11.486 11.2034 11.883C11.3278 11.445 11.4983 10.7818 11.7704 9.63881C12.1866 7.89077 12.2852 7.03495 12.2516 6.51744C12.2255 6.11674 12.1287 5.92613 11.925 5.52507C11.8953 5.46674 11.8635 5.40397 11.8292 5.33545C11.8248 5.32707 11.7715 5.22594 11.7496 5.10137C11.7429 5.06323 11.7285 4.96867 11.7473 4.85C11.7667 4.72809 11.8409 4.48239 12.0995 4.32527C12.3437 4.17682 12.5794 4.21501 12.6735 4.23863C12.7755 4.26422 12.8483 4.30542 12.8791 4.32389C12.9785 4.38331 13.0489 4.45897 13.0579 4.46871L13.0588 4.46962C13.0838 4.49583 13.1077 4.52318 13.1276 4.54673C13.2056 4.63868 13.3197 4.78635 13.4535 4.96511C13.7271 5.3305 14.1242 5.88138 14.5715 6.52196C15.4636 7.79948 16.5762 9.464 17.3167 10.751C18.0883 12.0919 18.9339 13.8694 19.5809 15.2963C19.9058 16.0129 20.1832 16.647 20.3795 17.1021C20.4777 17.3297 20.5556 17.5127 20.6091 17.6391L20.6706 17.7847L20.6918 17.8354C20.6918 17.8354 20.6922 17.8364 20 18.125L20.6922 17.8364C20.8514 18.218 20.6716 18.6564 20.2904 18.8165L20 18.125C20.2904 18.8165 20.2906 18.8164 20.2904 18.8165L20.2887 18.8172L20.2867 18.8181L20.2816 18.8202L20.2679 18.8257C20.2571 18.83 20.243 18.8355 20.2255 18.8421C20.1904 18.8554 20.1418 18.873 20.0789 18.8943C19.9532 18.9367 19.7708 18.9934 19.5267 19.0574C19.0385 19.1855 18.304 19.3431 17.2841 19.4756C16.1916 19.6175 14.7716 19.7306 12.9759 19.7478C12.8201 19.7493 12.6615 19.75 12.5 19.75C11.71 19.75 10.9883 19.7317 10.3315 19.7001C9.14981 19.6434 8.17766 19.5439 7.39365 19.4316C6.48736 19.3018 5.83245 19.1548 5.39597 19.0368C5.17774 18.9778 5.01415 18.9261 4.9011 18.8875C4.84458 18.8681 4.8007 18.8521 4.76895 18.84C4.75307 18.834 4.74023 18.8289 4.73036 18.825L4.71777 18.8199L4.71313 18.818L4.71122 18.8172L4.70997 18.8167C4.70977 18.8166 4.70958 18.8165 5.00001 18.125L4.70997 18.8167C4.33268 18.6582 4.15167 18.2264 4.30365 17.8465L4.42132 17.5533C4.49961 17.3585 4.61696 17.0671 4.77337 16.68C5.0862 15.9058 5.55528 14.7487 6.18062 13.2166C6.8106 11.6731 7.28555 10.6276 7.60562 9.96348C7.76569 9.63134 7.88717 9.39428 7.97009 9.23778C8.01155 9.15951 8.0434 9.10135 8.06563 9.06146C8.07675 9.04152 8.08547 9.02614 8.09179 9.0151L8.09947 9.00177L8.10196 8.99748L8.10287 8.99593L8.10341 8.99502C8.10348 8.99489 8.10364 8.99475 8.75005 9.37499L8.10341 8.99502C8.22817 8.78293 8.44917 8.64527 8.69456 8.62708C8.93995 8.60889 9.1787 8.71229 9.33337 8.90366ZM7.13135 17.8732L8.58681 15.596C8.73888 15.3581 9.0117 15.2258 9.2927 15.2536C9.57369 15.2814 9.81524 15.4647 9.91767 15.7279L10.8886 18.2222C10.7228 18.2162 10.5611 18.2094 10.4035 18.2019C9.98842 18.1819 9.60165 18.1566 9.24206 18.1273L9.05549 17.648L8.77568 18.0858C8.34203 18.0438 7.95302 17.9964 7.60637 17.9468C7.43814 17.9227 7.27989 17.898 7.13135 17.8732ZM12.3859 18.2499L13.6484 13.3141C13.725 13.0147 13.9774 12.7929 14.2842 12.7555C14.5909 12.718 14.8893 12.8726 15.0356 13.1448L17.6005 17.9161C17.4406 17.9406 17.2708 17.9647 17.0909 17.9881C16.7617 18.0308 16.3986 18.0711 16 18.1067L14.625 15.549L13.9398 18.2279C13.628 18.2378 13.3021 18.2446 12.9616 18.2478C12.8106 18.2493 12.6568 18.25 12.5 18.25C12.4618 18.25 12.4238 18.25 12.3859 18.2499Z" fill="black"/>
</svg>
