<svg width="24" height="24" viewBox="0 0 24 24" fill="none" xmlns="http://www.w3.org/2000/svg">
<path fill-rule="evenodd" clip-rule="evenodd" d="M8.28556 8.84173L8.28915 8.84618L8.29825 8.85749L8.33174 8.89936C8.3605 8.93544 8.40173 8.98742 8.4526 9.05228C8.5542 9.18184 8.69489 9.36359 8.8518 9.57311C9.15994 9.98457 9.55186 10.5312 9.82763 11.0045C10.059 11.4015 10.2807 11.8708 10.4791 12.3365C10.6249 11.8227 10.8249 11.0448 11.1442 9.70404C11.6323 7.65363 11.7481 6.64977 11.7086 6.04274C11.678 5.57272 11.5644 5.34914 11.3255 4.8787C11.2907 4.81029 11.2533 4.73665 11.2131 4.65628C11.2079 4.64646 11.1455 4.52784 11.1197 4.38171C11.1118 4.33698 11.0949 4.22606 11.1171 4.08687C11.1399 3.94386 11.2269 3.65566 11.5301 3.47137C11.8167 3.29723 12.0931 3.34203 12.2035 3.36974C12.3231 3.39975 12.4085 3.44808 12.4447 3.46975C12.5612 3.53945 12.6437 3.62819 12.6544 3.63962L12.6554 3.64069C12.6848 3.67143 12.7128 3.70351 12.7362 3.73113C12.8276 3.83898 12.9614 4.0122 13.1184 4.22188C13.4393 4.65048 13.9051 5.29665 14.4298 6.04804C15.4762 7.54655 16.7813 9.49899 17.6499 11.0086C18.5549 12.5815 19.5468 14.6664 20.3057 16.3402C20.6868 17.1808 21.0122 17.9245 21.2425 18.4583C21.3576 18.7253 21.4491 18.94 21.5118 19.0882L21.5839 19.259L21.6088 19.3184C21.6088 19.3185 21.6093 19.3196 20.7973 19.6582L21.6093 19.3196C21.7959 19.7673 21.5851 20.2815 21.138 20.4693L20.7973 19.6582C21.138 20.4693 21.1382 20.4692 21.138 20.4693L21.1359 20.4702L21.1335 20.4712L21.1277 20.4736L21.1116 20.4801C21.0989 20.4851 21.0823 20.4916 21.0618 20.4994C21.0207 20.5149 20.9636 20.5356 20.8899 20.5605C20.7425 20.6103 20.5284 20.6767 20.2421 20.7519C19.6695 20.9021 18.8079 21.087 17.6116 21.2424C16.3301 21.4088 14.6644 21.5415 12.5582 21.5617C12.3755 21.5634 12.1894 21.5643 12 21.5643C11.0732 21.5643 10.2268 21.5428 9.45635 21.5058C8.07025 21.4392 6.92993 21.3225 6.0103 21.1908C4.94725 21.0385 4.17905 20.8661 3.66707 20.7277C3.41109 20.6585 3.2192 20.5979 3.0866 20.5525C3.0203 20.5299 2.96883 20.511 2.93158 20.4969C2.91296 20.4898 2.8979 20.4839 2.88631 20.4793L2.87155 20.4733L2.86611 20.471L2.86387 20.4701L2.8624 20.4695C2.86217 20.4694 2.86195 20.4693 3.20261 19.6582L2.8624 20.4695C2.41985 20.2836 2.20753 19.7771 2.3858 19.3315L2.52382 18.9876C2.61565 18.7591 2.7533 18.4173 2.93677 17.9632C3.30372 17.055 3.85394 15.6978 4.58745 13.9007C5.32641 12.0903 5.8835 10.8639 6.25895 10.0849C6.44671 9.69528 6.5892 9.41722 6.68645 9.23364C6.73509 9.14184 6.77245 9.07361 6.79853 9.02682C6.81157 9.00343 6.8218 8.98539 6.82921 8.97244L6.83822 8.9568L6.84114 8.95178L6.84221 8.94996L6.84284 8.94889C6.84293 8.94874 6.84311 8.94857 7.60134 9.39459L6.84284 8.94889C6.98918 8.70011 7.24841 8.53864 7.53625 8.5173C7.82408 8.49597 8.10414 8.61725 8.28556 8.84173ZM5.70263 19.3629L7.40986 16.6917C7.58823 16.4127 7.90824 16.2574 8.23785 16.2901C8.56745 16.3227 8.85078 16.5377 8.97093 16.8464L10.1098 19.7721C9.91531 19.7652 9.72564 19.7572 9.54074 19.7483C9.05392 19.725 8.60024 19.6952 8.17845 19.6609L7.95961 19.0987L7.6314 19.6122C7.12274 19.563 6.66644 19.5073 6.25982 19.4491C6.06249 19.4208 5.87686 19.3919 5.70263 19.3629ZM11.8661 19.8047L13.347 14.0151C13.4368 13.6639 13.7329 13.4037 14.0927 13.3598C14.4526 13.3159 14.8025 13.4972 14.9742 13.8165L17.9828 19.4131C17.7952 19.4419 17.596 19.4701 17.385 19.4976C16.9988 19.5477 16.5729 19.595 16.1054 19.6367L14.4926 16.6366L13.6888 19.7789C13.3231 19.7905 12.9408 19.7985 12.5414 19.8023C12.3643 19.804 12.1838 19.8048 12 19.8048C11.9551 19.8048 11.9105 19.8048 11.8661 19.8047Z" fill="#151515"/>
</svg>
