<svg width="24" height="24" viewBox="0 0 24 24" fill="none" xmlns="http://www.w3.org/2000/svg">
<path d="M9.22133 5.61534C6.44265 5.61531 4.35864 4.3992 4.35864 4.3992V12.9121C4.35864 12.9121 7.16879 14.712 9.22133 14.3512C11.4122 13.9661 12 13.1756 14.084 13.1756C16.168 13.1756 17.2902 13.7634 19.6414 14.7363V5.61531C17.878 4.94644 16.168 4.39915 14.084 4.39918C12.2642 4.3992 11.0819 5.61535 9.22133 5.61534Z" fill="#151515"/>
<path d="M4.35864 4.3992C4.35864 4.3992 6.44265 5.61531 9.22133 5.61534C11.0819 5.61535 12.2642 4.3992 14.084 4.39918C16.168 4.39915 17.878 4.94644 19.6414 5.61531V14.7363C17.2902 13.7634 16.168 13.1756 14.084 13.1756C12 13.1756 11.4122 13.9661 9.22133 14.3512C7.16879 14.712 4.35864 12.9121 4.35864 12.9121M4.35864 4.3992V12.9121M4.35864 4.3992V3.18304M4.35864 20.817V12.9121" stroke="#151515" stroke-width="1.5" stroke-linecap="round" stroke-linejoin="round"/>
</svg>
