<svg width="24" height="24" viewBox="0 0 24 24" fill="none" xmlns="http://www.w3.org/2000/svg">
<path d="M9.13636 6.06899C6.77273 6.06897 5 5.03451 5 5.03451V12.2759C5 12.2759 7.39041 13.8069 9.13636 13.5C11 13.1724 11.5 12.5 13.2727 12.5C15.0455 12.5 16 13 18 13.8276V6.06897C16.5 5.5 15.0455 5.03446 13.2727 5.03448C11.7247 5.0345 10.7191 6.069 9.13636 6.06899Z" fill="black"/>
<path d="M5 5.03451C5 5.03451 6.77273 6.06897 9.13636 6.06899C10.7191 6.069 11.7247 5.0345 13.2727 5.03448C15.0455 5.03446 16.5 5.5 18 6.06897V13.8276C16 13 15.0455 12.5 13.2727 12.5C11.5 12.5 11 13.1724 9.13636 13.5C7.39041 13.8069 5 12.2759 5 12.2759M5 5.03451V12.2759M5 5.03451V4M5 19V12.2759" stroke="black" stroke-width="1.5" stroke-linecap="round" stroke-linejoin="round"/>
</svg>
