<svg width="24" height="24" viewBox="0 0 24 24" fill="none" xmlns="http://www.w3.org/2000/svg">
<path d="M6.99999 18.5V11.5C6.99999 10.9477 7.44771 10.5 7.99999 10.5H12H14H17H20.0287M6.99999 18.5H20C20.5523 18.5 21 18.0523 21 17.5V11.4713C21 10.9348 20.5651 10.5 20.0287 10.5V10.5M6.99999 18.5H4.22498C3.67269 18.5 3.22498 18.0523 3.22498 17.5V6.05563C3.22498 5.50335 3.67269 5.05563 4.22498 5.05563H10.2065C10.4443 5.05563 10.6742 5.14034 10.8552 5.29455L12.7632 6.92069C12.9441 7.0749 13.1741 7.1596 13.4118 7.1596H19.0287C19.581 7.1596 20.0287 7.60732 20.0287 8.1596V10.5" stroke="#151515" stroke-width="1.5" stroke-linecap="round" stroke-linejoin="round"/>
</svg>
