<svg width="24" height="24" viewBox="0 0 24 24" fill="none" xmlns="http://www.w3.org/2000/svg">
<path d="M16.6797 11.2851C16.9059 11.2133 17.1532 11.2527 17.3457 11.3916C17.5382 11.5304 17.653 11.7528 17.6562 11.9902L17.709 15.8095C17.713 16.1136 17.5326 16.3904 17.2529 16.5097L12.3134 18.6171C12.1255 18.6973 11.9125 18.6973 11.7246 18.6171L6.7861 16.5097C6.50975 16.3918 6.33005 16.1197 6.33005 15.8193V12C6.33005 11.7612 6.44421 11.5368 6.63669 11.3955C6.82908 11.2544 7.077 11.2127 7.30466 11.2841L12.0166 12.7646L16.6797 11.2851Z" stroke="#151515" stroke-width="1.5" stroke-linecap="round" stroke-linejoin="round"/>
<path d="M3.12863 8.61302L12.0193 6.0729L20.9101 8.61302L12.0193 12L3.12863 8.61302ZM3.12863 8.61302V12" stroke="#151515" stroke-width="1.5" stroke-linecap="round" stroke-linejoin="round"/>
</svg>
