<svg width="24" height="24" viewBox="0 0 24 24" fill="none" xmlns="http://www.w3.org/2000/svg">
<path d="M6.33005 15.8195C6.33005 16.12 6.50935 16.3914 6.7857 16.5094L11.725 18.6169C11.913 18.6972 12.1257 18.6972 12.3137 18.6169L17.253 16.5094C17.5327 16.39 17.7127 16.1135 17.7086 15.8093L17.6567 11.9898C17.6535 11.7524 17.5381 11.5306 17.3456 11.3917C17.1531 11.2528 16.9062 11.2133 16.6799 11.2851L12.0181 12.7645L7.30474 11.2844C7.07694 11.2129 6.82869 11.2541 6.63621 11.3954C6.44374 11.5367 6.33005 11.7612 6.33005 12V15.8195Z" stroke="#151515" stroke-width="1.5" stroke-linecap="round" stroke-linejoin="round"/>
<path d="M3.12863 8.61302L12.0193 6.0729L20.9101 8.61302L12.0193 12L3.12863 8.61302ZM3.12863 8.61302V12" stroke="#151515" stroke-width="1.5" stroke-linecap="round" stroke-linejoin="round"/>
</svg>
