<svg width="24" height="24" viewBox="0 0 24 24" fill="none" xmlns="http://www.w3.org/2000/svg">
<path d="M7.82185 11.4852C7.55186 11.4004 7.25763 11.4493 7.02952 11.6167C6.8014 11.7842 6.66665 12.0503 6.66665 12.3333V15.7702C6.66665 16.1263 6.87916 16.448 7.20669 16.5877L11.6511 18.4842C11.874 18.5792 12.126 18.5792 12.3488 18.4842L16.7933 16.5877C17.1248 16.4463 17.3381 16.1185 17.3332 15.7581L17.2866 12.3212C17.2828 12.0399 17.146 11.777 16.9178 11.6124C16.6897 11.4478 16.3971 11.4009 16.1289 11.486L11.9986 12.7968L7.82185 11.4852Z" stroke="black" stroke-width="1.77778" stroke-linecap="round" stroke-linejoin="round"/>
<path d="M4 9.28564L12 7L20 9.28564L12 12.3333L4 9.28564ZM4 9.28564V12.3333" stroke="black" stroke-width="1.77778" stroke-linecap="round" stroke-linejoin="round"/>
</svg>
