<svg width="24" height="24" viewBox="0 0 24 24" fill="none" xmlns="http://www.w3.org/2000/svg">
<path d="M16.18 7.57651L16.3669 8.13911L16.9574 8.08719C17.0407 8.07986 17.1251 8.07611 17.2105 8.07611C18.8515 8.07611 20.25 9.49246 20.25 11.3261C20.25 13.1598 18.8515 14.5761 17.2105 14.5761H6.78947C5.14851 14.5761 3.75 13.1598 3.75 11.3261C3.75 9.6884 4.87208 8.37541 6.27979 8.12151L6.72173 8.04181L6.86015 7.61461C7.5347 5.5328 9.38757 4.07611 11.5263 4.07611C13.652 4.07611 15.4951 5.51491 16.18 7.57651Z" stroke="#151515" stroke-width="1.5"/>
<path d="M6.47194 17.2148C6.48347 17.0793 6.59688 16.9751 6.73293 16.9751H8.23511C8.38853 16.9751 8.5091 17.1064 8.4961 17.2592L8.36815 18.7633C8.35662 18.8989 8.24322 19.003 8.10716 19.003H6.60498C6.45156 19.003 6.33099 18.8718 6.34399 18.7189L6.47194 17.2148Z" fill="#151515"/>
<path d="M6.47194 17.2148C6.48347 17.0793 6.59688 16.9751 6.73293 16.9751H8.23511C8.38853 16.9751 8.5091 17.1064 8.4961 17.2592L8.36815 18.7633C8.35662 18.8989 8.24322 19.003 8.10716 19.003H6.60498C6.45156 19.003 6.33099 18.8718 6.34399 18.7189L6.47194 17.2148Z" fill="#151515"/>
<path d="M11.0519 17.2148C11.0634 17.0793 11.1768 16.9751 11.3129 16.9751H12.8151C12.9685 16.9751 13.0891 17.1064 13.0761 17.2592L12.9481 18.7633C12.9366 18.8989 12.8232 19.003 12.6871 19.003H11.1849C11.0315 19.003 10.9109 18.8718 10.924 18.7189L11.0519 17.2148Z" fill="#151515"/>
<path d="M15.1886 17.2148C15.2002 17.0793 15.3136 16.9751 15.4496 16.9751H16.9518C17.1052 16.9751 17.2258 17.1064 17.2128 17.2592L17.0849 18.7633C17.0733 18.8989 16.9599 19.003 16.8239 19.003H15.3217C15.1683 19.003 15.0477 18.8718 15.0607 18.7189L15.1886 17.2148Z" fill="#151515"/>
<path d="M13.2523 20.8918C13.2639 20.7563 13.3773 20.6521 13.5133 20.6521H15.0155C15.1689 20.6521 15.2895 20.7834 15.2765 20.9362L15.1485 22.4403C15.137 22.5759 15.0236 22.68 14.8876 22.68H13.3854C13.232 22.68 13.1114 22.5488 13.1244 22.3959L13.2523 20.8918Z" fill="#151515"/>
<path d="M8.67238 20.8918C8.68391 20.7563 8.79731 20.6521 8.93337 20.6521H10.4356C10.589 20.6521 10.7095 20.7834 10.6965 20.9362L10.5686 22.4403C10.5571 22.5759 10.4437 22.68 10.3076 22.68H8.80542C8.652 22.68 8.53143 22.5488 8.54443 22.3959L8.67238 20.8918Z" fill="#151515"/>
</svg>
