<svg width="24" height="24" viewBox="0 0 24 24" fill="none" xmlns="http://www.w3.org/2000/svg">
<path d="M15.9604 12.4886C15.9604 12.4886 15.9604 8.57963 15.9604 7.27663M13.3201 12.4886C13.3201 12.4886 13.3201 8.25254 13.3201 4.99637M10.6799 12.4886C10.6799 12.4886 10.6799 8.25254 10.6799 4.99637M8.03956 15.0946C8.03956 15.0946 8.03956 13.4737 8.03956 10.675M8.03956 10.675C8.03956 9.37196 8.03956 6.29937 8.03956 4.99637C8.03956 3.69338 10.6799 3.69338 10.6799 4.99637M8.03956 10.675C8.03956 9.37196 5.39927 9.37196 5.39927 10.675C5.39927 11.978 5.39927 11.8371 5.39927 17.0491C5.39927 22.2611 18.6007 22.2611 18.6007 17.0491C18.6007 11.8371 18.6007 8.57963 18.6007 7.27663C18.6007 5.97362 15.9604 5.97362 15.9604 7.27663M15.9604 7.27663C15.9604 5.97362 15.9604 6.17034 15.9604 4.99637C15.9604 3.82241 13.3127 3.90193 13.3201 4.99637M13.3201 4.99637C13.3201 4.6581 13.3201 4.3304 13.3201 4.01912C13.3201 2.71612 10.6799 2.71612 10.6799 4.01912C10.6799 4.3304 10.6799 4.6581 10.6799 4.99637" stroke="#151515" stroke-width="1.5" stroke-linecap="round"/>
</svg>
