<svg width="24" height="24" viewBox="0 0 24 24" fill="none" xmlns="http://www.w3.org/2000/svg">
<path d="M16.7837 10.573C16.7837 11.8462 16.7837 9.29985 16.7837 10.573ZM16.7837 10.573C16.7837 11.8462 16.7837 13.1194 16.7837 13.1194M16.7837 10.573C16.7837 9.29985 19.4413 9.29985 19.4413 10.573C19.4413 11.8462 19.4413 12.1645 19.4413 17.2573C19.4413 22.3501 8.05048 22.3935 6.00978 17.2573C5.25277 15.3521 5.38401 15.7594 4.68826 14.107C3.9925 12.4546 6.28264 11.469 7.19815 13.1194C8.11366 14.7699 8.81104 17.3873 8.81104 16.3024C8.81104 15.2175 8.81104 11.8462 8.81104 10.573C8.81104 9.29985 8.81104 5.13486 8.81104 3.86166C8.81104 2.58847 11.4686 2.58847 11.4686 3.86166M16.7837 10.573C16.7837 9.29985 14.1173 9.29984 14.1262 10.573M14.1262 10.573C14.1262 9.29985 11.4686 9.29985 11.4686 10.573C11.4686 10.8772 11.4686 3.53113 11.4686 3.86166M14.1262 10.573C14.1262 10.8772 14.1262 10.2425 14.1262 10.573ZM14.1262 10.573C14.1395 12.4828 14.1262 13.1194 14.1262 13.1194M11.4686 13.1194C11.4686 13.1194 11.4686 7.04336 11.4686 3.86166" stroke="#151515" stroke-width="1.5" stroke-linecap="round"/>
</svg>
