<svg width="24" height="24" viewBox="0 0 24 24" fill="none" xmlns="http://www.w3.org/2000/svg">
<path d="M3.44527 8.47802C8.9369 4.25165 15.7624 4.31731 20.6371 8.59129C20.9976 8.90736 21.0113 9.45635 20.6894 9.8116L18.3734 12.3671C18.1147 12.6525 17.7026 12.7405 17.35 12.5856L15.7858 11.8987C15.3778 11.7195 15.1637 11.2675 15.2835 10.8382L15.8984 8.63607C16.0567 8.06921 15.6343 7.50645 15.0458 7.50007L8.94936 7.43395C8.36563 7.42762 7.93208 7.97264 8.06953 8.53999L8.63192 10.8613C8.73368 11.2813 8.52089 11.7141 8.12613 11.8899L6.57151 12.5825C6.20625 12.7452 5.77738 12.646 5.5207 12.3394L3.32516 9.71683C3.00998 9.34035 3.05617 8.77748 3.44527 8.47802Z" fill="#151515"/>
<path d="M3.44527 8.47802C8.9369 4.25165 15.7624 4.31731 20.6371 8.59129C20.9976 8.90736 21.0113 9.45635 20.6894 9.8116L18.3734 12.3671C18.1147 12.6525 17.7026 12.7405 17.35 12.5856L15.7858 11.8987C15.3778 11.7195 15.1637 11.2675 15.2835 10.8382L15.8984 8.63607C16.0567 8.06921 15.6343 7.50645 15.0458 7.50007L8.94936 7.43395C8.36563 7.42762 7.93208 7.97264 8.06953 8.53999L8.63192 10.8613C8.73368 11.2813 8.52089 11.7141 8.12613 11.8899L6.57151 12.5825C6.20625 12.7452 5.77738 12.646 5.5207 12.3394L3.32516 9.71683C3.00998 9.34035 3.05617 8.77748 3.44527 8.47802Z" stroke="#151515" stroke-width="1.5" stroke-linecap="round" stroke-linejoin="round"/>
<path d="M11.9411 13.2815V18.6533M11.9411 18.6533L9.70288 16.6742M11.9411 18.6533L14.1793 16.6742" stroke="#151515" stroke-width="1.5" stroke-linecap="round" stroke-linejoin="round"/>
</svg>
