<svg width="24" height="24" viewBox="0 0 24 24" fill="none" xmlns="http://www.w3.org/2000/svg">
<path d="M2.51071 7.63472C8.64461 2.91406 16.2684 2.9874 21.7131 7.76123C22.1158 8.11427 22.1312 8.72747 21.7716 9.12426L19.1847 11.9786C18.8958 12.2974 18.4355 12.3957 18.0416 12.2227L16.2946 11.4555C15.8388 11.2553 15.5996 10.7504 15.7335 10.2709L16.4203 7.81125C16.5971 7.1781 16.1253 6.54952 15.468 6.54239L8.65853 6.46854C8.00653 6.46147 7.52227 7.07023 7.6758 7.70394L8.30396 10.2968C8.41762 10.7659 8.17994 11.2492 7.73901 11.4457L6.00258 12.2192C5.5946 12.401 5.11557 12.2902 4.82887 11.9477L2.37655 9.01841C2.02451 8.59789 2.0761 7.9692 2.51071 7.63472Z" fill="black"/>
<path d="M2.51071 7.63472L2.81566 8.03096L2.81566 8.03096L2.51071 7.63472ZM21.7131 7.76123L22.0428 7.38527L21.7131 7.76123ZM21.7716 9.12426L22.1421 9.46003L22.1421 9.46003L21.7716 9.12426ZM19.1847 11.9786L18.8142 11.6429L18.8142 11.6429L19.1847 11.9786ZM18.0416 12.2227L18.2427 11.7649L18.2427 11.7649L18.0416 12.2227ZM16.2946 11.4555L16.4956 10.9977L16.4956 10.9977L16.2946 11.4555ZM15.7335 10.2709L15.2519 10.1365L15.7335 10.2709ZM16.4203 7.81125L16.9018 7.94572L16.9018 7.94572L16.4203 7.81125ZM15.468 6.54239L15.4734 6.04242L15.4734 6.04242L15.468 6.54239ZM8.65853 6.46854L8.65311 6.96851L8.65311 6.96851L8.65853 6.46854ZM7.6758 7.70394L7.18986 7.82167L7.18986 7.82167L7.6758 7.70394ZM8.30396 10.2968L7.81802 10.4145L7.81802 10.4145L8.30396 10.2968ZM7.73901 11.4457L7.94248 11.9024L7.94248 11.9024L7.73901 11.4457ZM6.00258 12.2192L5.79911 11.7625L5.79911 11.7625L6.00258 12.2192ZM4.82887 11.9477L4.44549 12.2687L4.44549 12.2687L4.82887 11.9477ZM2.37655 9.01841L2.75994 8.69745L2.75994 8.69745L2.37655 9.01841ZM2.81566 8.03096C8.77733 3.44285 16.134 3.53451 21.3835 8.13719L22.0428 7.38527C16.4028 2.44029 8.51189 2.38527 2.20576 7.23848L2.81566 8.03096ZM21.3835 8.13719C21.562 8.29365 21.586 8.58448 21.4011 8.7885L22.1421 9.46003C22.6764 8.87045 22.6696 7.93489 22.0428 7.38527L21.3835 8.13719ZM21.4011 8.7885L18.8142 11.6429L19.5552 12.3144L22.1421 9.46003L21.4011 8.7885ZM18.8142 11.6429C18.6698 11.8023 18.4396 11.8514 18.2427 11.7649L17.8406 12.6805C18.4314 12.94 19.1219 12.7925 19.5552 12.3144L18.8142 11.6429ZM18.2427 11.7649L16.4956 10.9977L16.0935 11.9133L17.8406 12.6805L18.2427 11.7649ZM16.4956 10.9977C16.2677 10.8976 16.1481 10.6451 16.2151 10.4054L15.2519 10.1365C15.0511 10.8557 15.4098 11.613 16.0935 11.9133L16.4956 10.9977ZM16.2151 10.4054L16.9018 7.94572L15.9387 7.67679L15.2519 10.1365L16.2151 10.4054ZM16.9018 7.94572C17.167 6.99598 16.4594 6.05311 15.4734 6.04242L15.4625 7.04236C15.7912 7.04592 16.0271 7.36021 15.9387 7.67679L16.9018 7.94572ZM15.4734 6.04242L8.66395 5.96857L8.65311 6.96851L15.4625 7.04236L15.4734 6.04242ZM8.66395 5.96857C7.68595 5.95796 6.95957 6.87111 7.18986 7.82167L8.16174 7.58621C8.08498 7.26936 8.32711 6.96497 8.65311 6.96851L8.66395 5.96857ZM7.18986 7.82167L7.81802 10.4145L8.78991 10.179L8.16174 7.58621L7.18986 7.82167ZM7.81802 10.4145C7.87485 10.6491 7.75601 10.8907 7.53555 10.9889L7.94248 11.9024C8.60387 11.6078 8.96039 10.8827 8.78991 10.179L7.81802 10.4145ZM7.53555 10.9889L5.79911 11.7625L6.20604 12.676L7.94248 11.9024L7.53555 10.9889ZM5.79911 11.7625C5.59512 11.8534 5.35561 11.798 5.21226 11.6267L4.44549 12.2687C4.87553 12.7823 5.59408 12.9486 6.20604 12.676L5.79911 11.7625ZM5.21226 11.6267L2.75994 8.69745L1.99317 9.33937L4.44549 12.2687L5.21226 11.6267ZM2.75994 8.69745C2.57981 8.48228 2.61905 8.18227 2.81566 8.03096L2.20576 7.23848C1.53315 7.75612 1.46922 8.71351 1.99317 9.33937L2.75994 8.69745Z" fill="black"/>
<path d="M12 13V19M12 19L9.5 16.7895M12 19L14.5 16.7895" stroke="black" stroke-width="2" stroke-linecap="round" stroke-linejoin="round"/>
</svg>
