<svg width="24" height="24" viewBox="0 0 24 24" fill="none" xmlns="http://www.w3.org/2000/svg">
<circle cx="12" cy="12" r="8.92728" stroke="#151515" stroke-width="1.5"/>
<path fill-rule="evenodd" clip-rule="evenodd" d="M15.8915 13.4865C16.0704 13.2542 16.4048 13.1884 16.6254 13.3814C16.7743 13.5118 16.9177 13.6483 17.0552 13.7906C17.2126 13.9535 17.2275 14.2056 17.0902 14.3857C15.9069 15.9387 14.1163 16.9286 12.1123 16.9286C10.0393 16.9286 8.19465 15.8693 7.01435 14.2232C6.88201 14.0387 6.90466 13.7864 7.06766 13.6282C7.20953 13.4906 7.35717 13.3589 7.51017 13.2334C7.73626 13.0481 8.06749 13.1237 8.23901 13.3605C9.16512 14.6389 10.5888 15.4286 12.1123 15.4286C13.5852 15.4286 14.9647 14.6906 15.8915 13.4865Z" fill="#151515"/>
<path d="M9.84951 8.7743C9.84951 9.51661 9.24775 10.1184 8.50544 10.1184C7.76314 10.1184 7.16138 9.51661 7.16138 8.7743C7.16138 8.032 7.76314 7.43024 8.50544 7.43024C9.24775 7.43024 9.84951 8.032 9.84951 8.7743Z" fill="#151515"/>
<path d="M16.8387 8.7743C16.8387 9.51661 16.2369 10.1184 15.4946 10.1184C14.7523 10.1184 14.1505 9.51661 14.1505 8.7743C14.1505 8.032 14.7523 7.43024 15.4946 7.43024C16.2369 7.43024 16.8387 8.032 16.8387 8.7743Z" fill="#151515"/>
</svg>
