<svg width="24" height="24" viewBox="0 0 24 24" fill="none" xmlns="http://www.w3.org/2000/svg">
<circle cx="12" cy="12" r="8.25" stroke="black" stroke-width="1.5"/>
<path fill-rule="evenodd" clip-rule="evenodd" d="M15.5161 13.3443C15.6947 13.1155 16.0245 13.0471 16.245 13.2358C16.3971 13.3659 16.5431 13.5027 16.6826 13.646C16.8406 13.8082 16.8556 14.0605 16.7175 14.2401C15.6169 15.6721 13.9589 16.5836 12.1044 16.5836C10.1856 16.5836 8.47726 15.6079 7.37893 14.0895C7.24583 13.9055 7.26852 13.653 7.43216 13.4955C7.57612 13.357 7.72639 13.225 7.8825 13.0999C8.10843 12.919 8.43492 12.997 8.60634 13.2302C9.4502 14.3784 10.7359 15.0836 12.1044 15.0836C13.4269 15.0836 14.6722 14.4249 15.5161 13.3443Z" fill="black"/>
<path d="M10 9C10 9.69036 9.44036 10.25 8.75 10.25C8.05964 10.25 7.5 9.69036 7.5 9C7.5 8.30964 8.05964 7.75 8.75 7.75C9.44036 7.75 10 8.30964 10 9Z" fill="black"/>
<path d="M16.5 9C16.5 9.69036 15.9404 10.25 15.25 10.25C14.5596 10.25 14 9.69036 14 9C14 8.30964 14.5596 7.75 15.25 7.75C15.9404 7.75 16.5 8.30964 16.5 9Z" fill="black"/>
</svg>
