<svg width="24" height="24" viewBox="0 0 24 24" fill="none" xmlns="http://www.w3.org/2000/svg">
<path d="M10.8783 5.40921L11.3747 4.847C11.4326 4.89811 11.4823 4.95784 11.5219 5.0241L10.8783 5.40921ZM11.5417 19.3739L12.2589 19.1545C12.354 19.4652 12.2381 19.8017 11.972 19.9881C11.706 20.1745 11.3501 20.1684 11.0906 19.973L11.5417 19.3739ZM8.98986 11.0309L9.70706 10.8115L8.98986 11.0309ZM9.21842 9.7L9.82134 10.1461H9.82134L9.21842 9.7ZM10.4243 9.09216L10.4243 9.84216H10.4243L10.4243 9.09216ZM13.0822 9.09216L13.7258 8.70705C13.8644 8.93878 13.8678 9.22716 13.7346 9.46207C13.6014 9.69699 13.3522 9.84216 13.0822 9.84216L13.0822 9.09216ZM12.4517 12.0922L11.7345 12.3115C11.6649 12.0841 11.7073 11.8372 11.8487 11.6461C11.9902 11.4549 12.2139 11.3422 12.4517 11.3422L12.4517 12.0922ZM14.4208 18.5301L14.9103 19.0983C14.7184 19.2637 14.4559 19.3209 14.2125 19.2506C13.9691 19.1802 13.7777 18.9917 13.7036 18.7494L14.4208 18.5301ZM15.7278 12.0922L15.7278 11.3422V11.3422L15.7278 12.0922ZM17.0327 11.332L16.3802 10.9621V10.9621L17.0327 11.332ZM17.015 9.82194L16.3714 10.2071L16.3714 10.2071L17.015 9.82194ZM14.2986 5.28258L13.6551 5.66769C13.4656 5.35112 13.5345 4.9438 13.8176 4.70718L14.2986 5.28258ZM10.3819 5.97142C8.90812 4.67011 7.2422 4.49898 5.97791 5.03563C4.71688 5.57089 3.75 6.85287 3.75 8.70763H2.25C2.25 6.28062 3.54989 4.43671 5.39183 3.65487C7.2305 2.87442 9.50374 3.19497 11.3747 4.847L10.3819 5.97142ZM3.75 8.70763C3.75 9.48147 4.06137 10.3798 4.63951 11.3615C5.21272 12.3348 6.01338 13.3315 6.90798 14.287C8.69686 16.1975 10.793 17.8712 11.9929 18.7747L11.0906 19.973C9.86281 19.0485 7.68809 17.3148 5.81302 15.3122C4.87564 14.3111 3.99605 13.2247 3.347 12.1227C2.70289 11.029 2.25 9.85962 2.25 8.70763H3.75ZM10.8245 19.5932L8.27266 11.2503L9.70706 10.8115L12.2589 19.1545L10.8245 19.5932ZM8.27266 11.2503C8.06401 10.5681 8.19121 9.8274 8.6155 9.25392L9.82134 10.1461C9.67991 10.3372 9.63751 10.5841 9.70706 10.8115L8.27266 11.2503ZM8.6155 9.25392C9.03979 8.68045 9.7109 8.34216 10.4243 8.34216L10.4243 9.84216C10.1865 9.84216 9.96277 9.95492 9.82134 10.1461L8.6155 9.25392ZM10.4243 8.34216L13.0822 8.34216L13.0822 9.84216L10.4243 9.84216L10.4243 8.34216ZM12.4386 9.47727L10.2347 5.79432L11.5219 5.0241L13.7258 8.70705L12.4386 9.47727ZM13.1689 11.8728L15.138 18.3107L13.7036 18.7494L11.7345 12.3115L13.1689 11.8728ZM15.7278 12.8422L12.4517 12.8422L12.4517 11.3422L15.7278 11.3422L15.7278 12.8422ZM17.6851 11.7019C17.2855 12.4066 16.5379 12.8422 15.7278 12.8422L15.7278 11.3422C15.9979 11.3422 16.2471 11.197 16.3802 10.9621L17.6851 11.7019ZM17.6585 9.43683C18.0745 10.132 18.0847 10.9972 17.6851 11.7019L16.3802 10.9621C16.5134 10.7272 16.5101 10.4388 16.3714 10.2071L17.6585 9.43683ZM14.9422 4.89747L17.6585 9.43683L16.3714 10.2071L13.6551 5.66769L14.9422 4.89747ZM20.8105 8.70764C20.8105 6.9787 19.9462 5.71968 18.8114 5.15922C17.6888 4.60476 16.1896 4.67919 14.7797 5.85797L13.8176 4.70718C15.6449 3.17949 17.7767 2.97522 19.4756 3.8143C21.1624 4.64738 22.3105 6.45413 22.3105 8.70764H20.8105ZM13.9313 17.9618C15.2436 16.8315 16.9918 15.208 18.4057 13.486C19.1125 12.6251 19.722 11.7561 20.1519 10.926C20.5853 10.0893 20.8105 9.34087 20.8105 8.70764H22.3105C22.3105 9.67421 21.9748 10.6679 21.4839 11.6158C20.9896 12.5704 20.3115 13.5287 19.565 14.4379C18.0721 16.256 16.2505 17.9439 14.9103 19.0983L13.9313 17.9618Z" fill="#151515"/>
</svg>
