<svg width="24" height="24" viewBox="0 0 24 24" fill="none" xmlns="http://www.w3.org/2000/svg">
<path d="M18.1781 20.8155C9.58226 19.7405 3.60664 13.6474 3.12345 5.55853C3.09152 5.02397 3.51387 4.57983 4.04873 4.55353L8.49134 4.33513C8.92098 4.31401 9.31599 4.57002 9.47219 4.97082L10.3018 7.09964C10.4825 7.56346 10.2946 8.08959 9.86093 8.33396L7.19266 9.83742C6.61995 10.1601 6.50906 10.9382 6.96883 11.408L12.4397 16.9989C12.8957 17.4649 13.6686 17.3769 14.0082 16.8202L15.6659 14.1024C15.9173 13.6903 16.4271 13.5166 16.8778 13.6895L19.0035 14.5049C19.4205 14.6649 19.6809 15.082 19.6415 15.5269L19.2513 19.9294C19.2028 20.4757 18.7223 20.8835 18.1781 20.8155Z" fill="#151515" stroke="#151515" stroke-width="1.5" stroke-linecap="round" stroke-linejoin="round"/>
<path d="M19.7191 4.0425L15.0194 8.74219M15.0194 8.74219L14.7927 5.05252M15.0194 8.74219L18.7091 8.96893" stroke="#151515" stroke-width="1.5" stroke-linecap="round" stroke-linejoin="round"/>
</svg>
