<svg width="24" height="24" viewBox="0 0 24 24" fill="none" xmlns="http://www.w3.org/2000/svg">
<path d="M7.08705 7.99375L5.41756 9.68339C5.14013 9.96416 4.98456 10.343 4.98456 10.7377V19.4538C4.98456 20.2822 5.65613 20.9538 6.48456 20.9538L18.328 20.9538C19.1565 20.9538 19.828 20.2822 19.828 19.4538V6.16107C19.828 4.50422 18.4849 3.16107 16.828 3.16107H12.4973C12.08 3.16107 11.6815 3.33496 11.3977 3.64094L9.91925 5.23464M7.08705 7.99375L5.34516 6.22403C5.14764 6.02336 5.15471 5.69924 5.36078 5.50736L7.5492 3.4697C7.74941 3.28328 8.06227 3.29238 8.25132 3.49011L9.91925 5.23464M7.08705 7.99375L9.91925 5.23464" stroke="black" stroke-width="1.5"/>
<path d="M14.1913 13.3394V16.4127M14.1913 13.3394H10.6214M14.1913 13.3394L15.9319 11.5989M14.1913 16.4127H10.6214M14.1913 16.4127L15.0616 17.283L15.9319 18.1532M10.6214 16.4127V13.3394M10.6214 16.4127L8.88083 18.1532M10.6214 13.3394L8.88083 11.5989" stroke="black" stroke-width="1.5" stroke-linecap="round"/>
<path d="M15.738 7.86793V9.36792H13.4363V7.86793H15.738ZM16.2957 7.31032C16.2957 7.00237 16.046 6.7527 15.738 6.7527H13.4363C13.1283 6.7527 12.8787 7.00237 12.8787 7.31032C12.8787 7.61826 13.1283 7.86793 13.4363 7.86793V9.36792L13.2263 9.35718C12.2576 9.259 11.4876 8.48898 11.3894 7.52028L11.3787 7.31032C11.3787 6.24483 12.1886 5.36864 13.2263 5.26346L13.4363 5.25272H15.738C16.8744 5.25272 17.7957 6.17394 17.7957 7.31032L17.7849 7.52028C17.6867 8.48898 16.9167 9.259 15.948 9.35718L15.738 9.36792V7.86793C16.046 7.86793 16.2956 7.61826 16.2957 7.31032Z" fill="black"/>
</svg>
