<svg width="24" height="24" viewBox="0 0 24 24" fill="none" xmlns="http://www.w3.org/2000/svg">
<path fill-rule="evenodd" clip-rule="evenodd" d="M10.2222 9.66922L20.8568 9.66922V12.4661L18.0599 12.4661V16.6614L15.7292 16.6614V12.4661L10.2222 12.4661C10.2222 12.4661 9.2031 14.7968 6.87236 14.7968C4.54163 14.7968 3.14318 13.1272 3.14318 11.0677C3.14318 9.00809 4.54163 7.33848 6.87236 7.33848C9.2031 7.33848 10.2222 9.66922 10.2222 9.66922ZM4.07548 11.0677C4.07548 12.6123 5.32768 13.8645 6.87236 13.8645C8.41704 13.8645 9.66924 12.6123 9.66924 11.0677C9.66924 9.52299 8.41704 8.27078 6.87236 8.27078C5.32768 8.27078 4.07548 9.52298 4.07548 11.0677Z" fill="#151515"/>
<path d="M20.8568 9.66922V8.91922C21.271 8.91922 21.6068 9.25501 21.6068 9.66922H20.8568ZM10.2222 9.66922V10.4192C9.92414 10.4192 9.65439 10.2428 9.53499 9.96968L10.2222 9.66922ZM20.8568 12.4661H21.6068C21.6068 12.665 21.5278 12.8558 21.3871 12.9964C21.2465 13.1371 21.0557 13.2161 20.8568 13.2161V12.4661ZM18.0599 12.4661H17.3099C17.3099 12.2672 17.3889 12.0764 17.5296 11.9358C17.6702 11.7951 17.861 11.7161 18.0599 11.7161V12.4661ZM18.0599 16.6614H18.8099C18.8099 16.8603 18.7309 17.0511 18.5902 17.1918C18.4496 17.3324 18.2588 17.4114 18.0599 17.4114V16.6614ZM15.7292 16.6614V17.4114C15.3149 17.4114 14.9792 17.0756 14.9792 16.6614H15.7292ZM15.7292 12.4661V11.7161C16.1434 11.7161 16.4792 12.0519 16.4792 12.4661H15.7292ZM10.2222 12.4661L9.53499 12.1656C9.65439 11.8926 9.92414 11.7161 10.2222 11.7161V12.4661ZM6.87236 14.7968V14.0468V14.7968ZM3.14318 11.0677H3.89318H3.14318ZM6.87236 13.8645V13.1145V13.8645ZM20.8568 10.4192L10.2222 10.4192V8.91922L20.8568 8.91922V10.4192ZM20.1068 12.4661V9.66922H21.6068V12.4661H20.1068ZM18.0599 11.7161L20.8568 11.7161V13.2161L18.0599 13.2161V11.7161ZM17.3099 16.6614V12.4661H18.8099V16.6614H17.3099ZM15.7292 15.9114L18.0599 15.9114V17.4114L15.7292 17.4114V15.9114ZM16.4792 12.4661V16.6614H14.9792V12.4661H16.4792ZM10.2222 11.7161L15.7292 11.7161V13.2161L10.2222 13.2161V11.7161ZM6.87236 14.0468C7.76249 14.0468 8.41545 13.6079 8.87407 13.1186C9.10293 12.8744 9.27259 12.6279 9.38452 12.4426C9.44006 12.3506 9.48021 12.2756 9.50535 12.2262C9.51789 12.2016 9.5266 12.1834 9.53155 12.1729C9.53401 12.1677 9.53553 12.1644 9.53611 12.1631C9.53639 12.1625 9.53644 12.1624 9.53626 12.1628C9.53616 12.163 9.53601 12.1633 9.5358 12.1638C9.5357 12.164 9.53558 12.1643 9.53544 12.1646C9.53537 12.1648 9.53526 12.165 9.53523 12.1651C9.53511 12.1654 9.53499 12.1656 10.2222 12.4661C10.9094 12.7666 10.9092 12.7669 10.9091 12.7672C10.9091 12.7673 10.9089 12.7676 10.9088 12.7678C10.9086 12.7683 10.9084 12.7687 10.9082 12.7693C10.9077 12.7703 10.9072 12.7715 10.9066 12.7728C10.9054 12.7755 10.904 12.7787 10.9023 12.7825C10.8988 12.79 10.8943 12.7998 10.8888 12.8116C10.8777 12.8353 10.8622 12.8672 10.8423 12.9063C10.8026 12.9843 10.745 13.0915 10.6685 13.218C10.5166 13.4697 10.2858 13.8059 9.96852 14.1444C9.33492 14.8204 8.31297 15.5468 6.87236 15.5468V14.0468ZM3.89318 11.0677C3.89318 11.928 4.18389 12.6683 4.67756 13.1881C5.16557 13.7019 5.89554 14.0468 6.87236 14.0468V15.5468C5.51845 15.5468 4.38383 15.057 3.58994 14.2211C2.8017 13.3912 2.39318 12.2669 2.39318 11.0677H3.89318ZM6.87236 8.08848C5.89554 8.08848 5.16557 8.43341 4.67756 8.94723C4.18389 9.46701 3.89318 10.2073 3.89318 11.0677H2.39318C2.39318 9.86844 2.8017 8.74416 3.58994 7.91424C4.38383 7.07836 5.51845 6.58848 6.87236 6.58848V8.08848ZM10.2222 9.66922C9.53499 9.96968 9.53511 9.96996 9.53523 9.97022C9.53526 9.9703 9.53537 9.97055 9.53544 9.97071C9.53558 9.97101 9.5357 9.97129 9.5358 9.97153C9.53601 9.972 9.53616 9.97234 9.53626 9.97255C9.53644 9.97297 9.53639 9.97285 9.53611 9.97222C9.53553 9.97095 9.53401 9.96763 9.53155 9.96238C9.5266 9.95188 9.51789 9.93376 9.50535 9.90911C9.48021 9.85969 9.44006 9.78472 9.38452 9.69276C9.27259 9.50742 9.10293 9.26092 8.87407 9.01673C8.41545 8.5274 7.76249 8.08848 6.87236 8.08848V6.58848C8.31298 6.58848 9.33492 7.31494 9.96852 7.99098C10.2858 8.32947 10.5166 8.66565 10.6685 8.91733C10.745 9.04387 10.8026 9.15099 10.8423 9.22904C10.8622 9.26812 10.8777 9.30007 10.8888 9.32371C10.8943 9.33554 10.8988 9.3453 10.9023 9.35285C10.904 9.35663 10.9054 9.35986 10.9066 9.36251C10.9072 9.36384 10.9077 9.36503 10.9082 9.36607C10.9084 9.36659 10.9086 9.36708 10.9088 9.36753C10.9089 9.36775 10.9091 9.36806 10.9091 9.36817C10.9092 9.36847 10.9094 9.36876 10.2222 9.66922ZM6.87236 14.6145C4.91347 14.6145 3.32548 13.0266 3.32548 11.0677H4.82548C4.82548 12.1981 5.7419 13.1145 6.87236 13.1145V14.6145ZM10.4192 11.0677C10.4192 13.0266 8.83125 14.6145 6.87236 14.6145V13.1145C8.00282 13.1145 8.91924 12.1981 8.91924 11.0677H10.4192ZM6.87236 7.52078C8.83125 7.52078 10.4192 9.10877 10.4192 11.0677H8.91924C8.91924 9.9372 8.00282 9.02078 6.87236 9.02078V7.52078ZM3.32548 11.0677C3.32548 9.10877 4.91347 7.52078 6.87236 7.52078V9.02078C5.7419 9.02078 4.82548 9.9372 4.82548 11.0677H3.32548Z" fill="#151515"/>
</svg>
