<svg width="24" height="24" viewBox="0 0 24 24" fill="none" xmlns="http://www.w3.org/2000/svg">
<path d="M21 9.16836L10.2332 9.16836C10.2332 9.16836 9.20148 7.28059 6.84178 7.28059C4.48207 7.28059 3.06625 8.97095 3.06625 11.0561C3.06625 13.1413 4.48207 14.8316 6.84178 14.8316C9.20148 14.8316 10.2332 12.9439 10.2332 12.9439L15.3367 12.9439L15.3367 16.7194L19.1122 16.7194L19.1122 12.9439L21 12.9439L21 9.16836Z" stroke="#151515" stroke-width="1.5" stroke-linecap="round" stroke-linejoin="round"/>
<path d="M6.84178 12.4719C6.05984 12.4719 5.42595 11.8381 5.42595 11.0561C5.42595 10.2742 6.05984 9.6403 6.84178 9.6403C7.62371 9.6403 8.2576 10.2742 8.2576 11.0561C8.2576 11.8381 7.62371 12.4719 6.84178 12.4719Z" fill="#151515"/>
</svg>
