<svg width="24" height="24" viewBox="0 0 24 24" fill="none" xmlns="http://www.w3.org/2000/svg">
<path d="M15.5596 14.1353C15.3719 13.9475 15.3367 13.6594 15.4378 13.4138C15.6172 12.978 15.7162 12.5005 15.7162 12C15.7162 11.4929 15.6146 11.0096 15.4307 10.5692C15.3279 10.3229 15.3625 10.0331 15.5511 9.84448L18.0978 7.29777C18.3487 7.04693 18.7639 7.07056 18.9607 7.36566C19.8456 8.69213 20.3615 10.2858 20.3615 12C20.3615 13.7062 19.8504 15.2931 18.973 16.6159C18.7766 16.912 18.3606 16.9362 18.1093 16.685L15.5596 14.1353Z" fill="black"/>
<path d="M8.44041 9.86462C8.62819 10.0524 8.66333 10.3405 8.56223 10.5861C8.38278 11.022 8.2838 11.4994 8.2838 12C8.2838 12.4905 8.37884 12.9589 8.55152 13.3876C8.65002 13.6322 8.61394 13.9177 8.42751 14.1041L5.87314 16.6585C5.62126 16.9104 5.20407 16.8853 5.00837 16.5877C4.14238 15.2706 3.63855 13.6941 3.63855 12C3.63855 10.2937 4.14964 8.70679 5.02709 7.38398C5.2235 7.08788 5.63947 7.06368 5.89072 7.31493L8.44041 9.86462Z" fill="black"/>
<path d="M9.86473 8.44036C10.0525 8.62814 10.3406 8.66329 10.5862 8.56219C11.022 8.38276 11.4995 8.2838 12 8.2838C12.4905 8.2838 12.9589 8.37884 13.3876 8.55152C13.6322 8.65002 13.9177 8.61394 14.1041 8.42751L16.6585 5.87314C16.9104 5.62126 16.8853 5.20407 16.5877 5.00837C15.2706 4.14238 13.6941 3.63855 12 3.63855C10.2938 3.63855 8.70687 4.14962 7.38408 5.02703C7.08798 5.22343 7.06377 5.6394 7.31503 5.89065L9.86473 8.44036Z" fill="black"/>
<path d="M14.1354 15.5596C13.9476 15.3718 13.6595 15.3367 13.4139 15.4378C12.9781 15.6172 12.5006 15.7162 12 15.7162C11.4929 15.7162 11.0096 15.6146 10.5692 15.4307C10.3229 15.3279 10.0331 15.3625 9.84448 15.5511L7.29777 18.0978C7.04693 18.3487 7.07056 18.7639 7.36566 18.9607C8.69213 19.8456 10.2858 20.3615 12 20.3615C13.7063 20.3615 15.2932 19.8504 16.616 18.9729C16.9121 18.7765 16.9363 18.3605 16.6851 18.1093L14.1354 15.5596Z" fill="black"/>
</svg>
