<svg width="24" height="24" viewBox="0 0 24 24" fill="none" xmlns="http://www.w3.org/2000/svg">
<path d="M16.2572 14.5537C16.0326 14.3291 15.9906 13.9845 16.1115 13.6909C16.3261 13.1696 16.4444 12.5986 16.4444 12C16.4444 11.3936 16.323 10.8155 16.1031 10.2888C15.9801 9.9943 16.0214 9.64772 16.247 9.42208L19.2928 6.3763C19.5928 6.0763 20.0893 6.10456 20.3248 6.4575C21.3831 8.0439 22 9.94991 22 12C22 14.0406 21.3888 15.9385 20.3394 17.5205C20.1045 17.8746 19.6071 17.9036 19.3066 17.6031L16.2572 14.5537Z" fill="#151515"/>
<path d="M7.74285 9.44616C7.96744 9.67075 8.00946 10.0153 7.88854 10.309C7.67393 10.8303 7.55556 11.4013 7.55556 12C7.55556 12.5867 7.66922 13.1468 7.87574 13.6595C7.99354 13.952 7.95039 14.2935 7.72743 14.5165L4.67249 17.5714C4.37125 17.8727 3.87231 17.8427 3.63826 17.4867C2.60256 15.9115 2 14.0261 2 12C2 9.95933 2.61125 8.06144 3.66065 6.4794C3.89555 6.12528 4.39303 6.09634 4.69351 6.39682L7.74285 9.44616Z" fill="#151515"/>
<path d="M9.4463 7.7428C9.67088 7.96738 10.0155 8.00941 10.3091 7.8885C10.8304 7.67391 11.4014 7.55556 12 7.55556C12.5867 7.55556 13.1468 7.66922 13.6595 7.87574C13.952 7.99354 14.2935 7.95039 14.5165 7.72743L17.5714 4.67249C17.8727 4.37125 17.8427 3.87231 17.4867 3.63826C15.9115 2.60256 14.0261 2 12 2C9.95939 2 8.06153 2.61122 6.47953 3.66057C6.12539 3.89547 6.09645 4.39295 6.39694 4.69344L9.4463 7.7428Z" fill="#151515"/>
<path d="M14.5538 16.2571C14.3293 16.0326 13.9847 15.9905 13.691 16.1115C13.1697 16.3261 12.5987 16.4444 12 16.4444C11.3936 16.4444 10.8155 16.323 10.2888 16.1031C9.9943 15.9801 9.64772 16.0214 9.42208 16.247L6.3763 19.2928C6.0763 19.5928 6.10456 20.0893 6.4575 20.3248C8.0439 21.3831 9.94991 22 12 22C14.0407 22 15.9386 21.3888 17.5206 20.3394C17.8747 20.1045 17.9037 19.607 17.6032 19.3065L14.5538 16.2571Z" fill="#151515"/>
</svg>
