<svg width="24" height="24" viewBox="0 0 24 24" fill="none" xmlns="http://www.w3.org/2000/svg">
<path d="M16.7009 6.82826L16.8854 7.39809L17.4819 7.34426C17.5686 7.33643 17.6564 7.33243 17.7452 7.33243C19.4473 7.33243 20.9273 8.84614 20.9273 10.8422C20.9273 12.8382 19.4473 14.3519 17.7452 14.3519H6.93206C5.23005 14.3519 3.75 12.8382 3.75 10.8422C3.75 9.06093 4.9379 7.65188 6.40158 7.38093L6.84462 7.29892L6.98027 6.86926C7.68853 4.62593 9.62716 3.07269 11.8471 3.07269C14.0536 3.07269 15.9819 4.60682 16.7009 6.82826Z" stroke="#151515" stroke-width="1.5"/>
<path d="M15.386 17.0679L14.7962 19.0297H15.7792L14.9928 21" stroke="#151515" stroke-width="1.5" stroke-linecap="round" stroke-linejoin="round"/>
<path d="M9.4879 17.0679L8.89809 19.0297H9.88111L9.0947 21" stroke="#151515" stroke-width="1.5" stroke-linecap="round" stroke-linejoin="round"/>
</svg>
