<svg width="24" height="24" viewBox="0 0 24 24" fill="none" xmlns="http://www.w3.org/2000/svg">
<path d="M11.8467 3.07269C14.0531 3.07269 15.9821 4.60712 16.7012 6.82855L16.8857 7.39789L17.4814 7.34418C17.5681 7.33636 17.6563 7.33246 17.7451 7.33246C19.4471 7.33246 20.9277 8.8462 20.9277 10.8422C20.9277 12.8382 19.4471 14.352 17.7451 14.352H6.93164C5.22982 14.3517 3.75003 12.8381 3.75 10.8422C3.75 9.0611 4.93781 7.65235 6.40137 7.38129L6.84473 7.29926L6.98047 6.86957C7.68868 4.62639 9.62689 3.07291 11.8467 3.07269Z" stroke="#151515" stroke-width="1.5"/>
<path d="M15.386 17.0679L14.7962 19.0297H15.7792L14.9928 21" stroke="#151515" stroke-width="1.5" stroke-linecap="round" stroke-linejoin="round"/>
<path d="M9.4879 17.0679L8.89809 19.0297H9.88111L9.0947 21" stroke="#151515" stroke-width="1.5" stroke-linecap="round" stroke-linejoin="round"/>
</svg>
