<svg width="24" height="24" viewBox="0 0 24 24" fill="none" xmlns="http://www.w3.org/2000/svg">
<path fill-rule="evenodd" clip-rule="evenodd" d="M16.2475 8.05525C18.641 8.25291 19.9483 9.90144 19.9483 11.8769C19.9483 13.844 18.6492 15.4688 16.2475 15.6672C16.2635 15.6658 16.2424 15.666 16.1686 15.6666C16.1158 15.6671 16.0359 15.6678 15.9233 15.6683C15.6909 15.6693 15.3679 15.67 14.9837 15.6704C14.4954 15.6708 13.9098 15.6708 13.2886 15.6705L13.2886 17.6705C13.9101 17.6708 14.4963 17.6708 14.9856 17.6704C15.3705 17.67 15.6964 17.6693 15.9324 17.6683L15.9464 17.6682L15.9466 17.6682C16.1408 17.6673 16.3392 17.6664 16.4122 17.6604C19.8457 17.3768 21.9483 14.8901 21.9483 11.8769C21.9483 8.87187 19.8539 6.34627 16.4122 6.06204C16.3391 6.05601 16.1407 6.0551 15.9464 6.05421L15.9325 6.05415C15.6964 6.05307 15.3705 6.05239 14.9856 6.05202C14.4963 6.05155 13.9101 6.05158 13.2886 6.05191L13.2886 8.05191C13.9098 8.05158 14.4954 8.05155 14.9836 8.05202C15.3679 8.05239 15.6909 8.05306 15.9233 8.05413C16.036 8.05464 16.1158 8.05532 16.1687 8.05576L16.1687 8.05576C16.2424 8.05639 16.2634 8.05656 16.2475 8.05525ZM11.2886 15.6686C10.1116 15.6671 9.0357 15.6653 8.47034 15.6644L8.4682 15.6643L8.05763 15.6637C6.69738 15.6637 5.71469 15.2108 5.07263 14.5565C4.42482 13.8964 4.05167 12.9578 4.05167 11.861C4.05167 10.7643 4.42481 9.82571 5.0726 9.16565C5.71465 8.51144 6.69734 8.05862 8.05764 8.05862L8.46607 8.05797L8.46662 8.05797C9.03097 8.05701 10.109 8.05519 11.2886 8.05375L11.2886 6.05375C10.1048 6.05519 9.02622 6.05702 8.46337 6.05797L8.46301 6.05797L8.05764 6.05862C6.22924 6.05862 4.70895 6.68085 3.64518 7.76477C2.58716 8.84284 2.05167 10.3055 2.05167 11.861C2.05167 13.4165 2.58715 14.8792 3.64515 15.9574C4.7089 17.0414 6.2292 17.6637 8.05763 17.6637L8.46482 17.6643L8.46564 17.6643C9.02912 17.6653 10.1064 17.6671 11.2886 17.6686L11.2886 15.6686Z" fill="#151515"/>
<path d="M16 12L8 12" stroke="#151515" stroke-width="1.5" stroke-linecap="round" stroke-linejoin="round"/>
</svg>
