<svg width="24" height="24" viewBox="0 0 24 24" fill="none" xmlns="http://www.w3.org/2000/svg">
<path fill-rule="evenodd" clip-rule="evenodd" d="M15.4177 9.01399C17.4205 9.17939 18.5 10.5484 18.5 12.1904C18.5 13.8241 17.4287 15.1736 15.4177 15.3396C15.4365 15.3381 15.4202 15.3382 15.3496 15.3388C15.3052 15.3392 15.2394 15.3397 15.1473 15.3401C14.9463 15.3411 14.6668 15.3416 14.334 15.342C13.9464 15.3423 13.4881 15.3423 13 15.3421L13 17.3421C13.4884 17.3423 13.9474 17.3423 14.3359 17.342C14.6693 17.3416 14.9518 17.3411 15.1565 17.3401L15.1773 17.34L15.1774 17.34C15.339 17.3393 15.5137 17.3385 15.5823 17.3328C18.6252 17.0816 20.5 14.8701 20.5 12.1904C20.5 9.51886 18.6334 7.27275 15.5823 7.02078C15.5137 7.01511 15.3389 7.01432 15.1773 7.01359L15.1565 7.01349C14.9518 7.01256 14.6693 7.01197 14.3359 7.01165C13.9474 7.01128 13.4884 7.01127 13 7.01149L13 9.01149C13.4881 9.01127 13.9464 9.01128 14.334 9.01165C14.6667 9.01197 14.9463 9.01255 15.1473 9.01347C15.2393 9.01389 15.3051 9.01444 15.3495 9.01481L15.3496 9.01481C15.4201 9.0154 15.4364 9.01554 15.4177 9.01399ZM11 15.3403C10.0331 15.339 9.16041 15.3375 8.6924 15.3367L8.69133 15.3367L8.3356 15.3362C7.18885 15.3362 6.37375 14.9553 5.84591 14.4174C5.31231 13.8737 5 13.0958 5 12.1766C5 11.2575 5.31231 10.4797 5.84588 9.93603C6.37371 9.39821 7.18881 9.01737 8.3356 9.01737L8.68952 9.0168C9.15681 9.01601 10.0311 9.01453 11 9.01331L11 7.01331C10.0274 7.01453 9.15265 7.01602 8.68662 7.01681L8.68648 7.01681L8.3356 7.01737C6.7207 7.01737 5.36801 7.56761 4.41846 8.53515C3.47465 9.49684 3 10.7987 3 12.1766C3 13.5546 3.47465 14.8565 4.41843 15.8182C5.36796 16.7858 6.72066 17.3362 8.3356 17.3362L8.68798 17.3367C9.15436 17.3375 10.0284 17.339 11 17.3403L11 15.3403Z" fill="black"/>
<path d="M15.5 12.1681L8 12.1681" stroke="black" stroke-width="2" stroke-linecap="round" stroke-linejoin="round"/>
</svg>
