<svg width="24" height="24" viewBox="0 0 24 24" fill="none" xmlns="http://www.w3.org/2000/svg">
<path d="M17.4474 8.60364L17.4474 3.1563M17.4474 8.60364L14.7237 6.4247M17.4474 8.60364L20.171 6.4247" stroke="#151515" stroke-width="1.5" stroke-linecap="round" stroke-linejoin="round"/>
<path d="M10.4497 19.6791C10.3839 19.4713 10.191 19.33 9.97304 19.33H7.12426C6.90627 19.33 6.7134 19.4713 6.64759 19.6791L6.1721 21.1806C6.10629 21.3884 5.91342 21.5297 5.69543 21.5297H4.00783C3.65815 21.5297 3.41647 21.1799 3.54014 20.8528L7.22534 11.1058C7.29887 10.9113 7.4851 10.7826 7.69303 10.7826H9.40508C9.61261 10.7826 9.79856 10.9108 9.87238 11.1047L13.5819 20.8518C13.7064 21.1791 13.4647 21.5297 13.1146 21.5297H11.4019C11.1839 21.5297 10.991 21.3884 10.9252 21.1806L10.4497 19.6791ZM7.41223 17.2612C7.37135 17.3902 7.46761 17.5216 7.60288 17.5216H9.48549C9.62076 17.5216 9.71702 17.3902 9.67613 17.2612L8.73483 14.2921C8.67584 14.1061 8.41253 14.1061 8.35354 14.2921L7.41223 17.2612Z" fill="#151515"/>
<path d="M18.675 21.5297C18.5806 21.5297 18.511 21.517 18.4729 21.4307C18.3866 21.2352 18.1082 21.124 17.9346 21.2484C17.5357 21.5343 17.047 21.6773 16.4686 21.6773C15.6589 21.6773 14.9861 21.4558 14.4503 21.013C13.9205 20.5701 13.6555 19.9968 13.6555 19.2931C13.6555 18.4566 13.977 17.8095 14.62 17.3519C15.2689 16.8942 16.2007 16.6605 17.4152 16.6507H17.6832C17.9593 16.6507 18.1832 16.4268 18.1832 16.1507V16.0085C18.1832 15.6493 18.1088 15.3959 17.9599 15.2482C17.8111 15.1006 17.5938 15.0268 17.308 15.0268C16.8763 15.0268 16.5922 15.1696 16.4559 15.4552C16.3369 15.7043 16.1376 15.9421 15.8614 15.9421H14.3341C14.058 15.9421 13.8268 15.7152 13.8887 15.4461C14.0081 14.9271 14.3233 14.4847 14.8343 14.1189C15.5071 13.6367 16.3555 13.3955 17.3795 13.3955C18.4392 13.3955 19.2578 13.6244 19.8353 14.082C20.4187 14.5347 20.7105 15.1843 20.7105 16.0306V19.7877C20.7224 20.4766 20.7105 20.9856 20.7105 21.4042C20.7105 21.4735 20.6543 21.5297 20.585 21.5297H18.675ZM17.0312 20.0386C17.311 20.0386 17.5491 19.9919 17.7456 19.8984C17.8767 19.836 17.9853 19.7659 18.0714 19.6882C18.1512 19.616 18.1832 19.5081 18.1832 19.4006V18.4055C18.1832 18.1293 17.9593 17.9055 17.6832 17.9055H17.5759C17.1473 17.9055 16.8079 18.0186 16.5579 18.245C16.3138 18.4714 16.1917 18.774 16.1917 19.1529C16.1917 19.7434 16.4715 20.0386 17.0312 20.0386Z" fill="#151515"/>
</svg>
