<svg width="24" height="24" viewBox="0 0 24 24" fill="none" xmlns="http://www.w3.org/2000/svg">
<path d="M6.36261 7.43817H17.6332" stroke="#151515" stroke-width="1.5" stroke-linecap="round" stroke-linejoin="round"/>
<path d="M6.36261 10.8193H17.6332" stroke="#151515" stroke-width="1.5" stroke-linecap="round" stroke-linejoin="round"/>
<path d="M18.7698 4.32504H5.30157C4.19701 4.32504 3.30157 5.22047 3.30157 6.32504V12.5914C3.30157 13.696 4.197 14.5914 5.30157 14.5914H12.3328C12.4854 14.5914 12.6296 14.6611 12.7245 14.7806L16.4149 19.4309C16.7093 19.8019 17.3066 19.5937 17.3066 19.1201V15.0914C17.3066 14.8153 17.5304 14.5914 17.8066 14.5914H20.2698C20.5459 14.5914 20.7698 14.3676 20.7698 14.0914V6.32504C20.7698 5.22047 19.8743 4.32504 18.7698 4.32504Z" stroke="#151515" stroke-width="1.5" stroke-linejoin="round"/>
</svg>
