<svg width="24" height="24" viewBox="0 0 24 24" fill="none" xmlns="http://www.w3.org/2000/svg">
<path d="M4.70712 4.29916L19.2929 18.8849" stroke="#151515" stroke-width="1.5" stroke-linecap="round" stroke-linejoin="round"/>
<path fill-rule="evenodd" clip-rule="evenodd" d="M8.68649 5.33527C8.93918 3.73277 10.3265 2.50733 12 2.50733C13.8527 2.50733 15.3546 4.00924 15.3546 5.86193V10.0293C15.3546 10.6004 15.2119 11.1382 14.9601 11.6089L13.8056 10.4544C13.8377 10.3179 13.8546 10.1756 13.8546 10.0293V5.86193C13.8546 4.83766 13.0243 4.00733 12 4.00733C10.9757 4.00733 10.1454 4.83766 10.1454 5.86193V6.79416L8.68649 5.33527ZM10.1454 8.91548L8.64539 7.41548V10.0293C8.64539 11.882 10.1473 13.3839 12 13.3839C12.7373 13.3839 13.4191 13.146 13.9727 12.7428L12.8879 11.658C12.6242 11.802 12.3216 11.8839 12 11.8839C10.9757 11.8839 10.1454 11.0536 10.1454 10.0293V8.91548Z" fill="#151515"/>
<path fill-rule="evenodd" clip-rule="evenodd" d="M8.0337 13.4727C7.92156 13.0739 7.5074 12.8416 7.10866 12.9537C6.70991 13.0659 6.47758 13.4801 6.58973 13.8788C7.24667 16.2146 8.97612 17.7516 11.25 18.0275V20.9686C11.25 21.3828 11.5858 21.7186 12 21.7186C12.4142 21.7186 12.75 21.3828 12.75 20.9686V18.0275C14.4355 17.823 15.8218 16.9256 16.694 15.5237L15.595 14.4247C14.8838 15.8024 13.5992 16.5722 12 16.5722C10.0632 16.5722 8.5879 15.4432 8.0337 13.4727ZM16.3162 13.0246C16.4846 12.9283 16.6899 12.8971 16.8913 12.9537C17.2901 13.0659 17.5224 13.4801 17.4103 13.8788C17.3928 13.941 17.3745 14.0027 17.3555 14.0638L16.3162 13.0246Z" fill="#151515"/>
</svg>
