<svg width="24" height="24" viewBox="0 0 24 24" fill="none" xmlns="http://www.w3.org/2000/svg">
<path d="M4.66187 4.17883L19.3381 18.8551" stroke="#151515" stroke-width="1.5" stroke-linecap="round" stroke-linejoin="round"/>
<path fill-rule="evenodd" clip-rule="evenodd" d="M9.5416 4.84113C9.9115 3.84238 10.8726 3.13052 12 3.13052C13.4474 3.13052 14.6208 4.30388 14.6208 5.75129V9.92029L9.5416 4.84113ZM12.8739 12.416L9.37924 8.92141V9.9445C9.37924 11.3919 10.5526 12.5653 12 12.5653C12.3064 12.5653 12.6006 12.5127 12.8739 12.416Z" fill="#151515"/>
<path d="M9.5416 4.84113L9.01127 5.37146L8.67131 5.0315L8.83829 4.58065L9.5416 4.84113ZM14.6208 9.92029H15.3708V11.7309L14.0904 10.4506L14.6208 9.92029ZM12.8739 12.416L13.4042 11.8857L14.2452 12.7267L13.1239 13.1231L12.8739 12.416ZM9.37924 8.92141H8.62924V7.11075L9.90957 8.39108L9.37924 8.92141ZM8.83829 4.58065C9.31362 3.29722 10.5488 2.38052 12 2.38052V3.88052C11.1964 3.88052 10.5094 4.38753 10.2449 5.10161L8.83829 4.58065ZM12 2.38052C13.8616 2.38052 15.3708 3.88967 15.3708 5.75129H13.8708C13.8708 4.71809 13.0332 3.88052 12 3.88052V2.38052ZM15.3708 5.75129V9.92029H13.8708V5.75129H15.3708ZM10.0719 4.3108L15.1511 9.38996L14.0904 10.4506L9.01127 5.37146L10.0719 4.3108ZM12.3435 12.9464L8.84891 9.45174L9.90957 8.39108L13.4042 11.8857L12.3435 12.9464ZM8.62924 9.9445V8.92141H10.1292V9.9445H8.62924ZM12 13.3153C10.1384 13.3153 8.62924 11.8061 8.62924 9.9445H10.1292C10.1292 10.9777 10.9668 11.8153 12 11.8153V13.3153ZM13.1239 13.1231C12.7714 13.2478 12.3928 13.3153 12 13.3153V11.8153C12.2201 11.8153 12.4297 11.7776 12.6239 11.7089L13.1239 13.1231Z" fill="#151515"/>
<path fill-rule="evenodd" clip-rule="evenodd" d="M8.00462 13.4105C7.89247 13.0118 7.47832 12.7794 7.07957 12.8916C6.68083 13.0037 6.4485 13.4179 6.56064 13.8166C7.22157 16.1666 8.96192 17.7122 11.25 17.9882V20.9517C11.25 21.3659 11.5858 21.7017 12 21.7017C12.4142 21.7017 12.75 21.3659 12.75 20.9517V17.9882C13.9936 17.8382 15.0754 17.3131 15.9101 16.4877L14.8496 15.4273C14.1196 16.1449 13.139 16.5326 12 16.5326C10.049 16.5326 8.56279 15.3951 8.00462 13.4105ZM15.717 14.1733C15.8262 13.9352 15.9194 13.6807 15.9954 13.4105C16.1075 13.0118 16.5217 12.7794 16.9204 12.8916C17.3192 13.0037 17.5515 13.4179 17.4394 13.8166C17.2895 14.3495 17.0841 14.841 16.8294 15.2857L15.717 14.1733Z" fill="#151515"/>
</svg>
