<svg width="24" height="24" viewBox="0 0 24 24" fill="none" xmlns="http://www.w3.org/2000/svg">
<path d="M3.8483 6.92581H19.901C20.7018 6.92581 21.3512 7.5752 21.3512 8.37601V15.6241C21.3512 16.4249 20.7018 17.0742 19.901 17.0742H3.8483C3.04748 17.0742 2.3981 16.4249 2.3981 15.6241V8.37601C2.3981 7.57519 3.04749 6.92581 3.8483 6.92581Z" stroke="#151515" stroke-width="1.5"/>
<circle cx="12.3116" cy="11.9999" r="4.41881" stroke="black" stroke-width="1.5"/>
<path fill-rule="evenodd" clip-rule="evenodd" d="M11.7823 9.29383C11.7823 9.34733 11.7449 9.39326 11.6932 9.4071C11.4267 9.47853 11.184 9.60509 10.9845 9.80458C10.6385 10.1506 10.5118 10.6266 10.5118 11.1317C10.5118 11.3899 10.5714 11.6299 10.7028 11.838C10.8331 12.0443 11.0114 12.1833 11.1917 12.2782C11.5224 12.4522 11.9312 12.5096 12.2271 12.5511L12.238 12.5527C12.5878 12.6018 12.8136 12.6347 12.9652 12.7039C13.0044 12.7218 13.0246 12.7365 13.0342 12.745C13.0396 12.7498 13.0438 12.7558 13.0459 12.7627C13.0483 12.771 13.0527 12.7905 13.0527 12.8256C13.0527 13.0729 12.9787 13.2528 12.8751 13.3653C12.778 13.4707 12.6099 13.5667 12.3116 13.5667C11.9697 13.5667 11.8106 13.4816 11.7331 13.4041C11.7154 13.3864 11.6973 13.3644 11.6799 13.3369C11.5234 13.09 11.3335 12.8256 11.0412 12.8256C10.7488 12.8256 10.5026 13.0657 10.5646 13.3513C10.6304 13.6543 10.7621 13.9304 10.9845 14.1527C11.184 14.3522 11.4267 14.4788 11.6932 14.5502C11.7449 14.5641 11.7823 14.61 11.7823 14.6635V14.8485C11.7823 15.1409 12.0193 15.3779 12.3116 15.3779C12.604 15.3779 12.841 15.1409 12.841 14.8485V14.649C12.841 14.5971 12.8762 14.5521 12.9258 14.5368C13.2107 14.4485 13.4577 14.2955 13.6538 14.0826C13.9737 13.7353 14.1114 13.2799 14.1114 12.8256C14.1114 12.5736 14.0465 12.3386 13.904 12.1385C13.7652 11.9437 13.5805 11.8209 13.4048 11.7408C13.1045 11.6037 12.7318 11.5522 12.4517 11.5135C12.4289 11.5104 12.4068 11.5073 12.3853 11.5043C12.0467 11.4567 11.8264 11.4158 11.6847 11.3413C11.6268 11.3108 11.6065 11.2863 11.5979 11.2726C11.5904 11.2607 11.5705 11.2243 11.5705 11.1317C11.5705 10.7898 11.6556 10.6306 11.7331 10.5532C11.8106 10.4757 11.9697 10.3906 12.3116 10.3906C12.6535 10.3906 12.8127 10.4757 12.8901 10.5532C12.9079 10.5709 12.926 10.5929 12.9434 10.6204C13.0998 10.8674 13.2897 11.1317 13.5821 11.1317C13.8744 11.1317 14.1207 10.8917 14.0587 10.606C13.9929 10.303 13.8611 10.027 13.6387 9.80458C13.4393 9.60509 13.1966 9.47853 12.93 9.4071C12.8783 9.39326 12.841 9.34733 12.841 9.29383V9.15126C12.841 8.85891 12.604 8.62192 12.3116 8.62192C12.0193 8.62192 11.7823 8.85891 11.7823 9.15126V9.29383Z" fill="black"/>
</svg>
