<svg width="24" height="24" viewBox="0 0 24 24" fill="none" xmlns="http://www.w3.org/2000/svg">
<circle cx="12" cy="12" r="8.92731" stroke="#151515" stroke-width="1.5"/>
<path fill-rule="evenodd" clip-rule="evenodd" d="M11.1766 7.78281C11.1766 7.87075 11.1152 7.94621 11.0303 7.9692C10.6188 8.08067 10.2441 8.27701 9.93574 8.58534C9.39752 9.12356 9.20056 9.86399 9.20056 10.6496C9.20056 11.0512 9.29317 11.4245 9.49763 11.7482C9.70033 12.069 9.9776 12.2853 10.2581 12.4329C10.7724 12.7035 11.4083 12.7928 11.8685 12.8574L11.8854 12.8598C12.4296 12.9363 12.7808 12.9873 13.0167 13.095C13.0776 13.1228 13.109 13.1458 13.1239 13.159C13.1323 13.1664 13.1389 13.1757 13.1421 13.1865C13.1459 13.1995 13.1527 13.2297 13.1527 13.2844C13.1527 13.669 13.0376 13.9488 12.8764 14.1239C12.7254 14.2878 12.464 14.4371 12 14.4371C11.4682 14.4371 11.2206 14.3047 11.1001 14.1842C11.0726 14.1566 11.0444 14.1224 11.0173 14.0797C10.774 13.6955 10.4787 13.2844 10.0239 13.2844C9.56919 13.2844 9.18613 13.6577 9.2826 14.1021C9.38491 14.5733 9.58985 15.0027 9.93574 15.3486C10.2441 15.6569 10.6188 15.8533 11.0303 15.9648C11.1152 15.9877 11.1766 16.0632 11.1766 16.1511V16.4308C11.1766 16.8856 11.5453 17.2542 12 17.2542C12.4547 17.2542 12.8234 16.8856 12.8234 16.4308V16.1284C12.8234 16.043 12.8813 15.9691 12.9628 15.9436C13.4028 15.8061 13.7843 15.5688 14.0877 15.2394C14.5852 14.6993 14.7994 13.991 14.7994 13.2844C14.7994 12.8924 14.6985 12.5268 14.4769 12.2156C14.261 11.9125 13.9737 11.7216 13.7004 11.5969C13.2333 11.3837 12.6535 11.3036 12.2179 11.2435C12.1825 11.2386 12.148 11.2338 12.1146 11.2291C11.5879 11.1551 11.2452 11.0915 11.0248 10.9756C10.9348 10.9282 10.9033 10.89 10.8899 10.8687C10.8782 10.8502 10.8473 10.7936 10.8473 10.6496C10.8473 10.1178 10.9797 9.87023 11.1001 9.74975C11.2206 9.62928 11.4682 9.49689 12 9.49689C12.5318 9.49689 12.7794 9.62928 12.8998 9.74975C12.9274 9.77731 12.9556 9.81153 12.9827 9.85427C13.226 10.2384 13.5213 10.6496 13.9761 10.6496C14.4308 10.6496 14.8139 10.2762 14.7174 9.83186C14.6151 9.36062 14.4101 8.93122 14.0642 8.58534C13.7559 8.27701 13.3812 8.08067 12.9697 7.9692C12.8848 7.94621 12.8234 7.87075 12.8234 7.78281V7.56915C12.8234 7.11442 12.4547 6.74579 12 6.74579C11.5453 6.74579 11.1766 7.11442 11.1766 7.56916V7.78281Z" fill="#151515"/>
</svg>
