<svg width="24" height="24" viewBox="0 0 24 24" fill="none" xmlns="http://www.w3.org/2000/svg">
<path fill-rule="evenodd" clip-rule="evenodd" d="M11.9989 9.52509C11.9129 9.59906 11.8241 9.72661 11.8241 9.98915V11.2402C11.8241 11.3506 11.9136 11.4402 12.0241 11.4402H12.6209C12.897 11.4402 13.1209 11.664 13.1209 11.9402V12.6997C13.1209 12.9758 12.897 13.1997 12.6209 13.1997H12.0241C11.9136 13.1997 11.8241 13.2892 11.8241 13.3997V14.4386C11.8241 14.5491 11.9136 14.6386 12.024 14.6386L14.4913 14.6392C14.7674 14.6392 14.9912 14.8631 14.9912 15.1392V15.8988C14.9912 16.1749 14.7673 16.3988 14.4912 16.3988H9.78341C9.50727 16.3988 9.28341 16.1749 9.28341 15.8988V15.1393C9.28341 14.8631 9.50727 14.6393 9.78341 14.6393H9.86455C9.97501 14.6393 10.0646 14.5497 10.0646 14.4393V13.3997C10.0646 13.2892 9.97501 13.1997 9.86455 13.1997H9.26901C8.99287 13.1997 8.76901 12.9758 8.76901 12.6997V11.9402C8.76901 11.664 8.99287 11.4402 9.26901 11.4402H9.86455C9.97501 11.4402 10.0646 11.3506 10.0646 11.2402V9.98915C10.0646 9.24626 10.3532 8.61973 10.8517 8.19099C11.3322 7.77787 11.944 7.60125 12.5279 7.60125C13.1117 7.60125 13.7235 7.77787 14.204 8.19099C14.7026 8.61973 14.9912 9.24626 14.9912 9.98915V10.3689C14.9912 10.645 14.7673 10.8689 14.4912 10.8689H13.7317C13.4555 10.8689 13.2317 10.645 13.2317 10.3689V9.98915C13.2317 9.72661 13.1428 9.59906 13.0568 9.52509C12.9526 9.4355 12.7726 9.36076 12.5279 9.36076C12.2831 9.36076 12.1031 9.4355 11.9989 9.52509Z" fill="#151515"/>
<circle cx="12" cy="12" r="8.92729" stroke="#151515" stroke-width="1.5"/>
</svg>
