<svg width="24" height="24" viewBox="0 0 24 24" fill="none" xmlns="http://www.w3.org/2000/svg">
<path fill-rule="evenodd" clip-rule="evenodd" d="M11.9988 9.18679C11.901 9.27088 11.8 9.41586 11.8 9.71429V11.1636C11.8 11.2741 11.8896 11.3636 12 11.3636H12.7741C13.0502 11.3636 13.2741 11.5875 13.2741 11.8636V12.8636C13.2741 13.1398 13.0502 13.3636 12.7741 13.3636H12C11.8896 13.3636 11.8 13.4532 11.8 13.5636V14.7992C11.8 14.9097 11.8895 14.9992 12 14.9992L14.9001 14.9999C15.1762 15 15.4 15.2238 15.4 15.4999V16.5C15.4 16.7761 15.1761 17 14.9 17H9.4121C9.13596 17 8.9121 16.7761 8.9121 16.5V15.5C8.9121 15.2239 9.13596 15 9.4121 15H9.60001C9.71046 15 9.80001 14.9105 9.80001 14.8V13.5636C9.80001 13.4532 9.71046 13.3636 9.60001 13.3636H8.82739C8.55125 13.3636 8.32739 13.1398 8.32739 12.8636V11.8636C8.32739 11.5875 8.55125 11.3636 8.82739 11.3636H9.60001C9.71046 11.3636 9.80001 11.2741 9.80001 11.1636V9.71429C9.80001 8.86985 10.1281 8.15769 10.6948 7.67035C11.2409 7.20076 11.9364 7 12.6 7C13.2637 7 13.9591 7.20076 14.5052 7.67035C15.072 8.15769 15.4 8.86985 15.4 9.71429V10.2143C15.4 10.4904 15.1762 10.7143 14.9 10.7143L13.9 10.7143C13.6239 10.7143 13.4 10.4904 13.4 10.2143V9.71429C13.4 9.41586 13.299 9.27088 13.2012 9.18679C13.0828 9.08496 12.8782 9 12.6 9C12.3218 9 12.1172 9.08496 11.9988 9.18679Z" fill="black"/>
<circle cx="12" cy="12" r="10" stroke="black" stroke-width="2"/>
</svg>
