<svg width="24" height="24" viewBox="0 0 24 24" fill="none" xmlns="http://www.w3.org/2000/svg">
<path d="M6.28725 3.66589C7.57096 3.16974 8.95013 3.0059 10.3073 3.18833C11.6645 3.37077 12.9595 3.89407 14.082 4.71367C15.2045 5.53327 16.1212 6.62489 16.7541 7.89555C17.3871 9.16621 17.7174 10.5783 17.717 12.0115C17.7167 13.4447 17.3856 14.8566 16.752 16.1269C16.1185 17.3972 15.2012 18.4883 14.0783 19.3073C12.9554 20.1262 11.6601 20.6488 10.3028 20.8305C8.94556 21.0122 7.56647 20.8476 6.28302 20.3507C6.28302 20.3507 11.3648 17.2404 11.3648 12.0091C11.3648 6.77786 6.28725 3.66589 6.28725 3.66589Z" fill="#151515" stroke="#151515" stroke-width="1.5" stroke-linejoin="round"/>
</svg>
