<svg width="24" height="24" viewBox="0 0 24 24" fill="none" xmlns="http://www.w3.org/2000/svg">
<path d="M6.33025 3.72213C7.60428 3.22971 8.97307 3.06711 10.32 3.24817C11.667 3.42923 12.9522 3.94859 14.0662 4.76201C15.1803 5.57544 16.0901 6.65883 16.7183 7.91992C17.3464 9.18101 17.6743 10.5824 17.6739 12.0048C17.6736 13.4272 17.345 14.8285 16.7162 16.0892C16.0874 17.35 15.177 18.4328 14.0626 19.2456C12.9481 20.0585 11.6626 20.5771 10.3156 20.7574C8.96853 20.9377 7.59983 20.7744 6.32605 20.2812C6.32605 20.2812 11.3695 17.1943 11.3695 12.0025C11.3695 6.81065 6.33025 3.72213 6.33025 3.72213Z" stroke="#151515" stroke-width="1.5" stroke-linejoin="round"/>
</svg>
