<svg width="24" height="24" viewBox="0 0 24 24" fill="none" xmlns="http://www.w3.org/2000/svg">
<circle cx="5.97912" cy="16.3399" r="2.0379" stroke="#151515" stroke-width="1.5"/>
<circle cx="18.9894" cy="16.3399" r="2.0379" stroke="#151515" stroke-width="1.5"/>
<path d="M3.1914 13.5519L3.88076 13.2564L3.1914 13.5519ZM5.70678 9.39219L6.45678 9.39216L5.70678 9.39219ZM12.5258 10.5145L13.2373 10.7517L12.5258 10.5145ZM11.7323 13.3215L11.0162 13.5445L11.7323 13.3215ZM13.4137 14.6323L13.3721 15.3812L13.4137 14.6323ZM16.3888 8.19692L17.0373 7.82013L16.3888 8.19692ZM18.9895 12.6226L18.3433 13.0033L18.3464 13.0085L18.9895 12.6226ZM13.4137 16.8044L13.5655 17.5389L13.4137 16.8044ZM15.4748 7.99864L15.3579 7.25782L15.3331 7.26173L15.3086 7.26729L15.4748 7.99864ZM14.4224 6.87872L15.1674 6.79234L14.4224 6.87872ZM15.9265 5.53823L15.9689 4.78943L15.9265 5.53823ZM17.1004 7.61004L16.4535 7.23046L17.1004 7.61004ZM16.3966 8.21024L15.7482 8.58721L16.3966 8.21024ZM13.3225 6.16117C12.9262 6.04065 12.5072 6.2642 12.3867 6.6605C12.2662 7.05679 12.4897 7.47575 12.886 7.59627L13.3225 6.16117ZM14.4224 7.2796L15.1605 7.14645L14.4224 7.2796ZM4.1207 14.4812C4.52014 13.8464 4.52024 13.8465 4.52034 13.8465C4.52037 13.8465 4.52047 13.8466 4.52053 13.8466C4.52065 13.8467 4.52076 13.8468 4.52086 13.8468C4.52105 13.847 4.5212 13.8471 4.52132 13.8471C4.52154 13.8473 4.5216 13.8473 4.52149 13.8472C4.52128 13.8471 4.52043 13.8466 4.51897 13.8456C4.51604 13.8437 4.51071 13.8403 4.50326 13.8353C4.48832 13.8254 4.46512 13.8098 4.43597 13.7893C4.37702 13.7477 4.2971 13.6885 4.21333 13.6184C4.01797 13.4548 3.90726 13.3183 3.88076 13.2564L2.50204 13.8473C2.67772 14.2572 3.03166 14.5853 3.2504 14.7685C3.37368 14.8717 3.48819 14.9564 3.57189 15.0154C3.61406 15.0451 3.64925 15.0689 3.67487 15.0858C3.68769 15.0943 3.69818 15.1012 3.706 15.1062C3.70992 15.1087 3.71317 15.1108 3.71572 15.1124C3.717 15.1133 3.7181 15.114 3.71903 15.1145C3.71949 15.1148 3.71991 15.1151 3.72028 15.1153C3.72047 15.1155 3.72064 15.1156 3.7208 15.1157C3.72088 15.1157 3.721 15.1158 3.72104 15.1158C3.72115 15.1159 3.72126 15.116 4.1207 14.4812ZM3.88076 13.2564C3.8804 13.2556 3.88087 13.2639 3.8814 13.2613C3.884 13.2484 3.89734 13.2035 3.95248 13.1259C4.06924 12.9616 4.28828 12.7681 4.58222 12.5703C4.8656 12.3796 5.17033 12.2167 5.40972 12.0998C5.52805 12.042 5.62737 11.9969 5.69602 11.9667C5.73028 11.9516 5.75673 11.9403 5.77389 11.9331C5.78247 11.9295 5.78871 11.9269 5.79243 11.9254C5.79429 11.9246 5.79552 11.9241 5.79609 11.9239C5.79638 11.9238 5.7965 11.9237 5.79646 11.9237C5.79643 11.9237 5.79637 11.9238 5.79626 11.9238C5.79621 11.9238 5.7961 11.9239 5.79607 11.9239C5.79595 11.9239 5.79582 11.924 5.51465 11.2287C5.23348 10.5334 5.23333 10.5334 5.23316 10.5335C5.23309 10.5335 5.23292 10.5336 5.23278 10.5337C5.2325 10.5338 5.23218 10.5339 5.23181 10.5341C5.23109 10.5343 5.23018 10.5347 5.22911 10.5352C5.22697 10.536 5.22415 10.5372 5.22067 10.5386C5.21372 10.5415 5.20414 10.5455 5.19212 10.5505C5.16809 10.5606 5.13426 10.5751 5.09217 10.5936C5.0081 10.6306 4.89037 10.6841 4.75141 10.7519C4.47621 10.8863 4.10536 11.0831 3.74475 11.3258C3.3947 11.5614 3.00134 11.8749 2.72988 12.2568C2.45022 12.6503 2.23466 13.2235 2.50204 13.8473L3.88076 13.2564ZM5.51465 11.2287C6.25649 11.339 6.2565 11.339 6.2565 11.3389C6.2565 11.3389 6.25651 11.3389 6.25651 11.3388C6.25653 11.3388 6.25654 11.3387 6.25655 11.3386C6.25659 11.3384 6.25663 11.3381 6.25669 11.3377C6.2568 11.337 6.25695 11.3359 6.25715 11.3345C6.25755 11.3318 6.25813 11.3279 6.25887 11.3229C6.26036 11.3127 6.2625 11.298 6.26521 11.2793C6.27063 11.2417 6.27833 11.1878 6.28754 11.1215C6.30593 10.9891 6.3305 10.8065 6.35513 10.606C6.40237 10.2214 6.45679 9.71748 6.45678 9.39216L4.95678 9.39221C4.95678 9.61126 4.91514 10.0256 4.86631 10.4231C4.84291 10.6137 4.81944 10.7882 4.80181 10.9151C4.79301 10.9784 4.78569 11.0297 4.7806 11.0649C4.77806 11.0825 4.77608 11.0961 4.77474 11.1052C4.77408 11.1098 4.77358 11.1132 4.77325 11.1154C4.77309 11.1165 4.77297 11.1173 4.77289 11.1178C4.77286 11.118 4.77283 11.1182 4.77282 11.1183C4.77281 11.1184 4.7728 11.1184 4.7728 11.1184C4.7728 11.1184 4.7728 11.1184 4.7728 11.1184C4.7728 11.1184 4.77281 11.1184 5.51465 11.2287ZM6.45678 9.39216C6.45678 9.64547 6.32677 9.82713 6.21443 9.92332C6.11963 10.0045 6.03227 10.0329 6.01219 10.0393C5.96796 10.0534 5.96374 10.0468 6.04034 10.0431C6.17616 10.0365 6.40448 10.0453 6.71954 10.0738C7.33825 10.1298 8.17811 10.251 9.02745 10.3988C9.87552 10.5464 10.7132 10.7169 11.3255 10.8679C11.6356 10.9444 11.8677 11.011 12.0103 11.062C12.0883 11.09 12.1025 11.1004 12.084 11.0894C12.0803 11.0873 12.0143 11.05 11.9452 10.969C11.8793 10.8918 11.6969 10.6296 11.8143 10.2773L13.2373 10.7517C13.3614 10.3795 13.1719 10.0956 13.086 9.99501C12.9968 9.89063 12.898 9.82822 12.8494 9.7994C12.7411 9.73515 12.6174 9.68619 12.5162 9.64993C12.3003 9.57257 12.0088 9.49149 11.6846 9.41154C11.0282 9.24969 10.1545 9.0724 9.28458 8.92103C8.41591 8.76988 7.53115 8.64111 6.85475 8.57989C6.52224 8.5498 6.21038 8.53313 5.96791 8.54485C5.85536 8.55029 5.70246 8.56373 5.55685 8.61012C5.48607 8.63267 5.35984 8.68032 5.23884 8.78392C5.1003 8.90255 4.95677 9.10986 4.95678 9.39221L6.45678 9.39216ZM11.0162 13.5445C11.1805 14.0723 11.443 14.5389 11.8733 14.8744C12.3037 15.2099 12.8202 15.3505 13.3721 15.3812L13.4553 13.8835C13.1013 13.8638 12.912 13.7822 12.7955 13.6914C12.6791 13.6006 12.5538 13.437 12.4484 13.0986L11.0162 13.5445ZM13.3721 15.3812C14.5435 15.4462 15.3405 14.6955 15.8026 14.2334L14.742 13.1727C14.2749 13.6398 13.9044 13.9084 13.4553 13.8835L13.3721 15.3812ZM15.8026 14.2334C16.0176 14.0184 16.2697 13.7756 16.4731 13.474C16.6913 13.1505 16.8408 12.7846 16.9369 12.3056L15.4663 12.0104C15.4027 12.327 15.3199 12.5012 15.2295 12.6352C15.1244 12.7911 14.9916 12.9231 14.742 13.1727L15.8026 14.2334ZM16.9369 12.3056C17.0211 11.8861 16.8928 11.4456 16.7745 11.126C16.6441 10.7737 16.4571 10.3971 16.2739 10.0478C16.0754 9.66928 15.9064 9.36791 15.7384 9.04066C15.5742 8.72103 15.4731 8.49205 15.4331 8.34601L13.9865 8.74259C14.0719 9.05431 14.24 9.40646 14.404 9.72591C14.5642 10.0377 14.7824 10.4334 14.9455 10.7444C15.1239 11.0846 15.2727 11.39 15.3678 11.6468C15.475 11.9363 15.4619 12.032 15.4663 12.0104L16.9369 12.3056ZM18.3464 13.0085L19.7403 15.3317L21.0266 14.5599L19.6326 12.2367L18.3464 13.0085ZM8.30255 17.269C8.3166 18.0189 8.31665 18.0189 8.31672 18.0189C8.31676 18.0189 8.31684 18.0189 8.31691 18.0189C8.31707 18.0189 8.31727 18.0189 8.31752 18.0189C8.31802 18.0189 8.3187 18.0189 8.31958 18.0188C8.32134 18.0188 8.32384 18.0188 8.32709 18.0187C8.33359 18.0186 8.34303 18.0184 8.3553 18.0181C8.37984 18.0175 8.41566 18.0167 8.46172 18.0154C8.55381 18.013 8.68689 18.009 8.85245 18.003C9.18336 17.9909 9.64514 17.9706 10.1695 17.9373C11.2084 17.8715 12.5299 17.7529 13.5655 17.5389L13.2619 16.0699C12.3347 16.2615 11.1007 16.3753 10.0746 16.4403C9.56658 16.4725 9.1186 16.4923 8.79785 16.504C8.63759 16.5098 8.50936 16.5136 8.42161 16.516C8.37775 16.5171 8.34401 16.5179 8.32147 16.5185C8.3102 16.5187 8.30173 16.5189 8.29619 16.519C8.29342 16.5191 8.29139 16.5191 8.2901 16.5191C8.28945 16.5191 8.289 16.5192 8.28873 16.5192C8.2886 16.5192 8.28851 16.5192 8.28847 16.5192C8.28846 16.5192 8.28846 16.5192 8.28845 16.5192C8.28847 16.5192 8.2885 16.5192 8.30255 17.269ZM13.5655 17.5389C14.248 17.3978 15.0886 17.1569 15.7441 16.9568C16.075 16.8558 16.3646 16.7633 16.5717 16.696C16.6753 16.6623 16.7584 16.6349 16.8159 16.6159C16.8446 16.6063 16.8669 16.5989 16.8822 16.5937C16.8899 16.5912 16.8958 16.5892 16.8998 16.5878C16.9018 16.5872 16.9034 16.5866 16.9045 16.5863C16.905 16.5861 16.9055 16.5859 16.9058 16.5858C16.9059 16.5858 16.9061 16.5857 16.9061 16.5857C16.9062 16.5857 16.9062 16.5857 16.9063 16.5857C16.9063 16.5856 16.9063 16.5856 16.6663 15.8751C16.4262 15.1646 16.4262 15.1646 16.4262 15.1646C16.4262 15.1646 16.4262 15.1646 16.4262 15.1646C16.4262 15.1646 16.4261 15.1646 16.426 15.1646C16.4259 15.1647 16.4256 15.1648 16.4252 15.1649C16.4244 15.1652 16.4231 15.1656 16.4214 15.1662C16.4179 15.1673 16.4127 15.1691 16.4057 15.1715C16.3916 15.1762 16.3706 15.1832 16.3432 15.1923C16.2885 15.2104 16.2085 15.2368 16.1082 15.2694C15.9076 15.3346 15.6266 15.4243 15.3061 15.5222C14.6588 15.7198 13.8731 15.9436 13.2619 16.0699L13.5655 17.5389ZM11.8143 10.2773C11.6309 10.8274 11.2936 11.8134 11.1857 12.0931L12.5853 12.6327C12.7082 12.3141 13.057 11.2925 13.2373 10.7517L11.8143 10.2773ZM11.1857 12.0931C11.166 12.1442 11.1459 12.1828 11.1153 12.2384C11.0917 12.2811 11.0229 12.3989 10.9765 12.5326C10.8573 12.8764 10.9101 13.2037 11.0162 13.5445L12.4484 13.0986C12.4313 13.0437 12.4211 13.0041 12.4151 12.9763C12.4122 12.9626 12.4105 12.9527 12.4095 12.946C12.4085 12.9394 12.4083 12.9364 12.4083 12.9364C12.4091 12.9473 12.4077 12.984 12.3938 13.0241C12.3886 13.0388 12.3817 13.0482 12.4289 12.9627C12.4689 12.89 12.5284 12.7804 12.5853 12.6327L11.1857 12.0931ZM5.38319 11.9671L11.7541 13.1013L12.017 11.6245L5.64611 10.4903L5.38319 11.9671ZM15.4331 8.34601C15.4644 8.46021 15.456 8.57911 15.4186 8.68043C15.3851 8.77084 15.3381 8.82267 15.3205 8.8404C15.302 8.85901 15.2936 8.86229 15.3067 8.85415C15.3182 8.84696 15.3381 8.83602 15.3674 8.82265C15.4273 8.79535 15.4971 8.77115 15.5577 8.75294C15.5865 8.74427 15.6102 8.73787 15.6256 8.7339C15.6333 8.73192 15.6386 8.7306 15.6414 8.72994C15.6428 8.72961 15.6435 8.72944 15.6434 8.72945C15.6434 8.72946 15.6432 8.72951 15.6428 8.7296C15.6426 8.72964 15.6424 8.7297 15.6421 8.72976C15.6419 8.7298 15.6418 8.72983 15.6416 8.72987C15.6415 8.72989 15.6414 8.72992 15.6413 8.72993C15.6412 8.72997 15.641 8.73 15.4748 7.99864C15.3086 7.26729 15.3085 7.26732 15.3083 7.26736C15.3083 7.26737 15.3081 7.26741 15.308 7.26743C15.3078 7.26748 15.3076 7.26754 15.3073 7.2676C15.3068 7.26771 15.3062 7.26784 15.3056 7.26798C15.3044 7.26826 15.303 7.26859 15.3013 7.26898C15.298 7.26975 15.2939 7.27073 15.289 7.27192C15.2792 7.27429 15.2662 7.27751 15.2504 7.28158C15.2191 7.28967 15.1763 7.30129 15.1259 7.31643C15.0281 7.34584 14.8886 7.39243 14.7452 7.4578C14.614 7.51762 14.419 7.61977 14.2572 7.78237C14.0854 7.95505 13.8644 8.29744 13.9865 8.74259L15.4331 8.34601ZM15.4748 7.99864C15.5918 8.73947 15.5916 8.73949 15.5915 8.73952C15.5914 8.73953 15.5913 8.73955 15.5912 8.73957C15.591 8.7396 15.5908 8.73963 15.5906 8.73966C15.5902 8.73971 15.5899 8.73976 15.5897 8.7398C15.5891 8.73989 15.5887 8.73995 15.5885 8.73999C15.588 8.74006 15.5881 8.74004 15.5888 8.73993C15.5903 8.73973 15.594 8.73921 15.5997 8.7385C15.6112 8.73706 15.63 8.73492 15.654 8.73293C15.7041 8.72877 15.7662 8.72617 15.8258 8.72916C15.8912 8.73245 15.9199 8.74094 15.9192 8.74071C15.9164 8.7397 15.8929 8.73131 15.86 8.70769C15.8252 8.68271 15.7787 8.63968 15.7403 8.5737L17.0373 7.82013C16.8685 7.52965 16.6045 7.39195 16.419 7.3264C16.2298 7.25958 16.0415 7.23811 15.9011 7.23106C15.755 7.22371 15.6228 7.23037 15.53 7.23807C15.4826 7.242 15.4428 7.24643 15.4136 7.25009C15.3989 7.25192 15.3867 7.25358 15.3774 7.25491C15.3727 7.25558 15.3687 7.25617 15.3654 7.25666C15.3638 7.2569 15.3624 7.25713 15.3611 7.25732C15.3605 7.25742 15.3599 7.25751 15.3593 7.25759C15.3591 7.25763 15.3588 7.25767 15.3586 7.25771C15.3585 7.25773 15.3583 7.25776 15.3582 7.25777C15.3581 7.25779 15.3579 7.25782 15.4748 7.99864ZM15.1674 6.79234C15.1555 6.68909 15.1868 6.55191 15.2663 6.45807C15.3215 6.3929 15.4698 6.26358 15.8841 6.28704L15.9689 4.78943C15.1665 4.74401 14.5304 5.00592 14.1216 5.48869C13.737 5.94281 13.6247 6.51031 13.6774 6.9651L15.1674 6.79234ZM15.8841 6.28704C16.0396 6.29584 16.222 6.29524 16.3498 6.29703C16.4968 6.29908 16.6033 6.30402 16.683 6.31562C16.7754 6.32908 16.7481 6.34066 16.6841 6.2948C16.643 6.26535 16.5909 6.21477 16.5518 6.13916C16.5126 6.06332 16.5029 5.99413 16.5029 5.95063H18.0029C18.0029 5.58384 17.8342 5.27369 17.5582 5.07578C17.3294 4.91174 17.0711 4.85632 16.8991 4.83127C16.7143 4.80437 16.5227 4.7993 16.3708 4.79717C16.1995 4.79478 16.0819 4.79583 15.9689 4.78943L15.8841 6.28704ZM16.5029 5.95063C16.5029 6.11435 16.5124 6.27965 16.5198 6.41782C16.5277 6.56419 16.5337 6.68637 16.5325 6.80161C16.5302 7.0357 16.4972 7.15614 16.4535 7.23046L17.7472 7.98963C17.9859 7.58299 18.0291 7.15254 18.0324 6.81658C18.0341 6.6468 18.0253 6.47915 18.0177 6.33725C18.0096 6.18715 18.0029 6.06573 18.0029 5.95063H16.5029ZM15.7403 8.5737C15.7429 8.57813 15.7455 8.58264 15.7482 8.58721L17.045 7.83327C17.0424 7.82879 17.0398 7.82441 17.0373 7.82013L15.7403 8.5737ZM15.7482 8.58721C15.9895 9.00219 16.6389 10.1073 17.2266 11.1064C17.5208 11.6064 17.8 12.0806 18.0056 12.4298C18.1084 12.6044 18.1928 12.7478 18.2515 12.8475C18.2809 12.8973 18.3038 12.9363 18.3194 12.9628C18.3272 12.976 18.3332 12.9861 18.3372 12.993C18.3392 12.9964 18.3407 12.9989 18.3417 13.0007C18.3422 13.0015 18.3426 13.0022 18.3429 13.0026C18.343 13.0028 18.3431 13.003 18.3432 13.0031C18.3432 13.0032 18.3432 13.0032 18.3433 13.0032C18.3433 13.0033 18.3433 13.0033 18.9895 12.6226C19.6357 12.2419 19.6357 12.2419 19.6357 12.2419C19.6357 12.2419 19.6356 12.2418 19.6356 12.2418C19.6355 12.2417 19.6354 12.2415 19.6353 12.2413C19.6351 12.2408 19.6347 12.2402 19.6342 12.2393C19.6332 12.2376 19.6316 12.235 19.6296 12.2316C19.6256 12.2248 19.6197 12.2147 19.6119 12.2015C19.5963 12.175 19.5734 12.1361 19.544 12.0863C19.4853 11.9866 19.4009 11.8433 19.2982 11.6688C19.0926 11.3197 18.8136 10.8456 18.5195 10.3458C17.9308 9.3451 17.2838 8.24408 17.045 7.83327L15.7482 8.58721ZM16.4535 7.23046C16.4566 7.2252 16.4437 7.24685 16.3965 7.29168C16.353 7.33304 16.2984 7.37714 16.2394 7.41997C16.1815 7.46201 16.1268 7.49742 16.0867 7.52215C16.067 7.53434 16.0516 7.54348 16.042 7.54906C16.0372 7.55184 16.0339 7.55371 16.0324 7.55459C16.0316 7.55503 16.0313 7.55523 16.0314 7.55517C16.0314 7.55513 16.0316 7.55504 16.0319 7.55488C16.032 7.5548 16.0322 7.5547 16.0324 7.55459C16.0325 7.55453 16.0326 7.55447 16.0327 7.55441C16.0328 7.55437 16.0329 7.55432 16.0329 7.55431C16.033 7.55425 16.0331 7.5542 16.3966 8.21024C16.7601 8.86628 16.7602 8.86622 16.7603 8.86616C16.7603 8.86614 16.7604 8.86609 16.7605 8.86604C16.7606 8.86596 16.7608 8.86587 16.7609 8.86578C16.7613 8.8656 16.7616 8.8654 16.762 8.86518C16.7628 8.86474 16.7637 8.86422 16.7648 8.86364C16.7669 8.86246 16.7695 8.861 16.7726 8.85925C16.7787 8.85575 16.7868 8.85111 16.7967 8.84539C16.8163 8.83397 16.843 8.81813 16.8749 8.79838C16.9383 8.75926 17.0253 8.70303 17.1204 8.63397C17.2855 8.5142 17.5721 8.28816 17.7472 7.98963L16.4535 7.23046ZM14.7098 8.5443C15.4356 8.3555 15.4356 8.35551 15.4356 8.35552C15.4356 8.35552 15.4356 8.35554 15.4356 8.35554C15.4356 8.35554 15.4356 8.35553 15.4356 8.35551C15.4356 8.35547 15.4356 8.35539 15.4356 8.35526C15.4355 8.355 15.4354 8.35456 15.4352 8.35396C15.4349 8.35274 15.4344 8.35084 15.4338 8.34827C15.4324 8.34314 15.4304 8.33536 15.4278 8.32517C15.4226 8.30479 15.4149 8.27479 15.4054 8.23704C15.3864 8.16146 15.36 8.05523 15.3308 7.93321C15.2716 7.68582 15.2038 7.38621 15.1605 7.14645L13.6843 7.41276C13.7353 7.69528 13.8111 8.02802 13.872 8.28241C13.9029 8.41128 13.9307 8.5233 13.9508 8.60324C13.9609 8.64325 13.9691 8.67534 13.9748 8.69759C13.9776 8.70872 13.9799 8.71741 13.9814 8.7234C13.9822 8.7264 13.9828 8.72873 13.9832 8.73036C13.9834 8.73117 13.9836 8.73181 13.9837 8.73227C13.9838 8.7325 13.9838 8.73268 13.9839 8.73282C13.9839 8.73289 13.9839 8.73295 13.9839 8.733C13.9839 8.73302 13.9839 8.73305 13.9839 8.73306C13.9839 8.73309 13.9839 8.73311 14.7098 8.5443ZM15.1605 7.14645C15.1671 7.18281 15.1619 7.19903 15.1669 7.12683C15.1685 7.1032 15.1727 7.0504 15.1745 7.00155C15.1764 6.94957 15.1771 6.87562 15.1674 6.79234L13.6774 6.9651C13.6748 6.9425 13.676 6.93237 13.6755 6.94615C13.6749 6.96306 13.6736 6.97796 13.6705 7.02275C13.666 7.08738 13.6538 7.24336 13.6843 7.41276L15.1605 7.14645ZM12.886 7.59627L14.2042 7.99715L14.6407 6.56205L13.3225 6.16117L12.886 7.59627Z" fill="#151515"/>
</svg>
