<svg width="24" height="24" viewBox="0 0 24 24" fill="none" xmlns="http://www.w3.org/2000/svg">
<path fill-rule="evenodd" clip-rule="evenodd" d="M3.19314 17.943C3.1117 18.0763 3.20761 18.2473 3.3638 18.2473H20.6363C20.7807 18.2473 20.8775 18.0989 20.8193 17.9667L15.4977 5.87215C15.4263 5.70991 15.1948 5.71385 15.129 5.87842L12.8142 11.6653C12.7877 11.7316 12.7985 11.807 12.8426 11.8632L14.5549 14.0424C14.8961 14.4766 14.8206 15.1053 14.3864 15.4465C13.9521 15.7877 13.3234 15.7123 12.9822 15.278L8.56979 9.66217C8.48365 9.55253 8.31457 9.56247 8.24187 9.68144L3.19314 17.943Z" fill="#151515"/>
<path d="M14.5549 14.0424L15.1446 13.579L14.5549 14.0424ZM14.3864 15.4465L13.923 14.8568V14.8568L14.3864 15.4465ZM12.9822 15.278L13.572 14.8146V14.8146L12.9822 15.278ZM12.8142 11.6653L13.5106 11.9439L12.8142 11.6653ZM12.8426 11.8632L12.2529 12.3265L12.8426 11.8632ZM8.56979 9.66217L9.15953 9.1988L8.56979 9.66217ZM8.24187 9.68144L7.60191 9.29035L8.24187 9.68144ZM15.4977 5.87215L14.8112 6.17421L15.4977 5.87215ZM15.129 5.87842L14.4326 5.59988L15.129 5.87842ZM20.8193 17.9667L21.5058 17.6647L20.8193 17.9667ZM20.6363 18.9973H3.3638V17.4973H20.6363V18.9973ZM16.1842 5.5701L21.5058 17.6647L20.1329 18.2688L14.8112 6.17421L16.1842 5.5701ZM12.1179 11.3868L14.4326 5.59988L15.8253 6.15697L13.5106 11.9439L12.1179 11.3868ZM13.4324 11.3998L15.1446 13.579L13.9651 14.5057L12.2529 12.3265L13.4324 11.3998ZM15.1446 13.579C15.7417 14.339 15.6097 15.4391 14.8497 16.0362L13.923 14.8568C14.0316 14.7715 14.0504 14.6143 13.9651 14.5057L15.1446 13.579ZM14.8497 16.0362C14.0898 16.6334 12.9896 16.5013 12.3925 15.7414L13.572 14.8146C13.6573 14.9232 13.8144 14.9421 13.923 14.8568L14.8497 16.0362ZM12.3925 15.7414L7.98005 10.1255L9.15953 9.1988L13.572 14.8146L12.3925 15.7414ZM2.55318 17.5519L7.60191 9.29035L8.88183 10.0725L3.8331 18.3341L2.55318 17.5519ZM13.5106 11.9439C13.5835 11.7616 13.5537 11.5542 13.4324 11.3998L12.2529 12.3265C12.0434 12.0598 11.9919 11.7017 12.1179 11.3868L13.5106 11.9439ZM7.98005 10.1255C8.21694 10.427 8.68189 10.3997 8.88183 10.0725L7.60191 9.29035C7.94726 8.72523 8.75035 8.67803 9.15953 9.1988L7.98005 10.1255ZM14.8112 6.17421C15.0076 6.62038 15.6443 6.60955 15.8253 6.15697L14.4326 5.59988C14.7453 4.81814 15.8451 4.79944 16.1842 5.5701L14.8112 6.17421ZM3.3638 18.9973C2.62191 18.9973 2.16633 18.1849 2.55318 17.5519L3.8331 18.3341C4.05707 17.9676 3.79331 17.4973 3.3638 17.4973V18.9973ZM20.6363 17.4973C20.2391 17.4973 19.9729 17.9053 20.1329 18.2688L21.5058 17.6647C21.7821 18.2925 21.3222 18.9973 20.6363 18.9973V17.4973Z" fill="#151515"/>
</svg>
