<svg width="24" height="24" viewBox="0 0 24 24" fill="none" xmlns="http://www.w3.org/2000/svg">
<path d="M20 15V6.5M10 17.5V9M20 6.5V4.28078C20 3.63021 19.3886 3.15285 18.7575 3.31063L10.7575 5.31063C10.3123 5.42193 10 5.82191 10 6.28078V9M20 6.5L10 9" stroke="#151515" stroke-width="1.5" stroke-linecap="round" stroke-linejoin="round"/>
<path d="M13.5325 15.5C13.5325 16.9278 14.8904 18.25 16.7825 18.25C18.6746 18.25 20.0325 16.9278 20.0325 15.5C20.0325 14.0722 18.6746 12.75 16.7825 12.75C14.8904 12.75 13.5325 14.0722 13.5325 15.5Z" stroke="#151515" stroke-width="1.5"/>
<path d="M3.47813 17.5C3.47813 18.9278 4.836 20.25 6.72813 20.25C8.62026 20.25 9.97813 18.9278 9.97813 17.5C9.97813 16.0722 8.62026 14.75 6.72813 14.75C4.836 14.75 3.47813 16.0722 3.47813 17.5Z" stroke="#151515" stroke-width="1.5"/>
</svg>
