<svg width="24" height="24" viewBox="0 0 24 24" fill="none" xmlns="http://www.w3.org/2000/svg">
<circle cx="12" cy="12" r="8.92728" stroke="#151515" stroke-width="1.5"/>
<path d="M9.84949 8.77426C9.84949 9.51656 9.24773 10.1183 8.50542 10.1183C7.76311 10.1183 7.16135 9.51656 7.16135 8.77426C7.16135 8.03195 7.76311 7.43019 8.50542 7.43019C9.24773 7.43019 9.84949 8.03195 9.84949 8.77426Z" fill="#151515"/>
<path d="M16.8386 8.77426C16.8386 9.51656 16.2369 10.1183 15.4946 10.1183C14.7523 10.1183 14.1505 9.51656 14.1505 8.77426C14.1505 8.03195 14.7523 7.43019 15.4946 7.43019C16.2369 7.43019 16.8386 8.03195 16.8386 8.77426Z" fill="#151515"/>
<path d="M7.699 14.4193C7.699 13.9739 8.06005 13.6129 8.50544 13.6129H15.4946C15.94 13.6129 16.301 13.9739 16.301 14.4193C16.301 14.8647 15.94 15.2258 15.4946 15.2258H8.50544C8.06005 15.2258 7.699 14.8647 7.699 14.4193Z" fill="#151515"/>
</svg>
