<svg width="24" height="24" viewBox="0 0 24 24" fill="none" xmlns="http://www.w3.org/2000/svg">
<path d="M5.37738 9.72162V9.1273C5.37738 8.86208 5.48274 8.60773 5.67027 8.42019L10.6033 3.48716C10.7908 3.29962 11.0452 3.19427 11.3104 3.19427H11.8616M5.37738 9.72162V19.8545C5.37738 20.4068 5.8251 20.8545 6.37738 20.8545H17.6225C18.1748 20.8545 18.6225 20.4068 18.6225 19.8545V4.19427C18.6225 3.64198 18.1748 3.19427 17.6225 3.19427H11.8616M5.37738 9.72162H10.8616C11.4139 9.72162 11.8616 9.27391 11.8616 8.72162V3.19427" stroke="black" stroke-width="1.5" stroke-linejoin="round"/>
<path d="M9.79245 14.7838H14.2075M12 12.5763V16.9913" stroke="#151515" stroke-width="1.5" stroke-linecap="round" stroke-linejoin="round"/>
</svg>
