<svg width="24" height="24" viewBox="0 0 24 24" fill="none" xmlns="http://www.w3.org/2000/svg">
<path fill-rule="evenodd" clip-rule="evenodd" d="M10.6477 10.5264L13.4736 13.3523C13.8005 12.9962 14 12.5214 14 12C14 10.8954 13.1046 10 12 10C11.4786 10 11.0038 10.1995 10.6477 10.5264Z" fill="#151515"/>
<path fill-rule="evenodd" clip-rule="evenodd" d="M13.9126 18.0339C13.2982 18.1712 12.6588 18.25 12 18.25C9.81082 18.25 7.83538 17.38 6.28328 16.3817C4.72672 15.3806 3.54224 14.216 2.91968 13.5447C2.38362 12.9666 2.33411 12.0995 2.81703 11.4661C3.24831 10.9005 3.99219 10.0127 5.00797 9.12929L6.07148 10.1928C5.11671 11.0101 4.4133 11.8464 4.00988 12.3756C3.98819 12.404 3.98324 12.4292 3.98427 12.4493C3.98531 12.4696 3.99324 12.4964 4.01953 12.5247C4.59293 13.143 5.68125 14.211 7.09471 15.1202C8.51262 16.0321 10.2044 16.75 12 16.75C12.2021 16.75 12.4029 16.7409 12.6021 16.7235L13.9126 18.0339ZM15.8513 15.7299L16.9588 16.8375C17.2213 16.6906 17.4742 16.5377 17.7167 16.3817C19.2733 15.3806 20.4578 14.216 21.0803 13.5447C21.6164 12.9666 21.6659 12.0995 21.183 11.4661C20.6186 10.7258 19.5188 9.43401 17.9749 8.32206C16.4302 7.20952 14.402 6.25 12 6.25C10.3077 6.25 8.80097 6.72628 7.51812 7.3968L8.63817 8.51685C9.64569 8.05206 10.7727 7.75 12 7.75C13.9906 7.75 15.7171 8.54454 17.0983 9.53924C18.4802 10.5345 19.4774 11.7031 19.9901 12.3756C20.0118 12.404 20.0168 12.4292 20.0157 12.4493C20.0147 12.4696 20.0068 12.4964 19.9805 12.5247C19.4071 13.143 18.3188 14.211 16.9053 15.1202C16.5686 15.3367 16.2165 15.5423 15.8513 15.7299Z" fill="#151515"/>
<path d="M4 5L19 20" stroke="#151515" stroke-width="1.5" stroke-linecap="round"/>
</svg>
