<svg width="24" height="24" viewBox="0 0 24 24" fill="none" xmlns="http://www.w3.org/2000/svg">
<path d="M18.1704 20.692C9.59405 19.6186 3.6319 13.5393 3.14889 5.46869C3.1169 4.93414 3.53926 4.48998 4.07412 4.46369L8.50413 4.24591C8.93377 4.22479 9.32878 4.48079 9.48498 4.8816L10.3117 7.00298C10.4924 7.4668 10.3045 7.99294 9.87082 8.2373L7.21195 9.73548C6.63923 10.0582 6.52834 10.8362 6.98811 11.3061L12.444 16.8816C12.9 17.3476 13.6729 17.2596 14.0124 16.7029L15.6645 13.9945C15.9159 13.5824 16.4257 13.4086 16.8764 13.5815L18.9947 14.3942C19.4117 14.5541 19.6721 14.9712 19.6326 15.4161L19.2436 19.806C19.1951 20.3523 18.7146 20.7601 18.1704 20.692Z" fill="#151515" stroke="#151515" stroke-width="1.5" stroke-linecap="round" stroke-linejoin="round"/>
<path d="M13.9148 9.74929L18.6049 5.05927M18.6049 5.05927L18.8311 8.74134M18.6049 5.05927L14.9228 4.83299" stroke="#151515" stroke-width="1.5" stroke-linecap="round" stroke-linejoin="round"/>
</svg>
