<svg width="24" height="24" viewBox="0 0 24 24" fill="none" xmlns="http://www.w3.org/2000/svg">
<path d="M7.96194 3.22789H15.9248C17.1675 3.22789 18.1748 4.23525 18.1748 5.47789V18.6771C18.1748 19.9197 17.1675 20.9271 15.9248 20.9271H7.96194C6.71931 20.9271 5.71194 19.9197 5.71194 18.6771V5.47789C5.71194 4.23525 6.7193 3.22789 7.96194 3.22789Z" stroke="#151515" stroke-width="1.5"/>
<path d="M7.58005 5.96869C7.58005 5.48671 7.97077 5.09599 8.45275 5.09599H15.4344C15.9163 5.09599 16.3071 5.48671 16.3071 5.96869C16.3071 6.45067 15.9163 6.84139 15.4344 6.84139H8.45275C7.97077 6.84139 7.58005 6.45067 7.58005 5.96869Z" fill="#151515"/>
<path d="M9.58005 11.9549H14.3066C14.997 11.9549 15.5566 12.5145 15.5566 13.2049V17.0594C15.5565 17.7497 14.9969 18.3094 14.3066 18.3094H9.58005C8.88975 18.3094 8.33015 17.7497 8.33005 17.0594V13.2049C8.33005 12.5145 8.88969 11.9549 9.58005 11.9549Z" stroke="#151515" stroke-width="1.5"/>
<path d="M5.83466 8.58681L18.0525 8.58681" stroke="#151515" stroke-width="1.5" stroke-linecap="round"/>
</svg>
