<svg width="24" height="24" viewBox="0 0 24 24" fill="none" xmlns="http://www.w3.org/2000/svg">
<path d="M5.71194 5.47789C5.71194 4.23525 6.7193 3.22789 7.96194 3.22789H15.9252C17.1678 3.22789 18.1752 4.23525 18.1752 5.47789V9.02315V18.6773C18.1752 19.9199 17.1678 20.9273 15.9252 20.9273H7.96194C6.7193 20.9273 5.71194 19.9199 5.71194 18.6773V9.02315V5.47789Z" stroke="#151515" stroke-width="1.5"/>
<path d="M7.58005 5.96869C7.58005 5.48671 7.97077 5.09599 8.45275 5.09599H15.4344C15.9163 5.09599 16.3071 5.48671 16.3071 5.96869C16.3071 6.45067 15.9163 6.84139 15.4344 6.84139H8.45275C7.97077 6.84139 7.58005 6.45067 7.58005 5.96869Z" fill="#151515"/>
<path d="M8.33005 13.2049C8.33005 12.5145 8.88969 11.9549 9.58005 11.9549H14.3071C14.9974 11.9549 15.5571 12.5145 15.5571 13.2049V17.0592C15.5571 17.7496 14.9974 18.3092 14.3071 18.3092H9.58005C8.88969 18.3092 8.33005 17.7496 8.33005 17.0592V13.2049Z" stroke="#151515" stroke-width="1.5"/>
<path d="M5.83466 8.58681L18.0525 8.58681" stroke="#151515" stroke-width="1.5" stroke-linecap="round"/>
</svg>
