<svg width="24" height="24" viewBox="0 0 24 24" fill="none" xmlns="http://www.w3.org/2000/svg">
<path d="M8.35624 10.3509H6.31974C5.76746 10.3509 5.31975 10.7982 5.31974 11.3505C5.31971 12.9383 5.31966 16.0737 5.31976 18.1919C5.31988 20.5899 9.02836 21.1323 12 21.1323C14.9717 21.1323 18.6802 20.5899 18.6803 18.1919C18.6803 16.0737 18.6803 12.9383 18.6803 11.3505C18.6803 10.7982 18.2326 10.3509 17.6803 10.3509H15.6438H8.35624ZM8.35624 10.3509C8.35624 10.3509 8.35628 7.90062 8.35624 6.43043C8.3562 4.66599 9.81348 3 12 3C14.1866 3 15.6438 4.66599 15.6438 6.43043" stroke="#151515" stroke-width="1.5" stroke-linecap="round" stroke-linejoin="round"/>
<path fill-rule="evenodd" clip-rule="evenodd" d="M12.9543 15.9961V17.315C12.9543 17.842 12.527 18.2693 12 18.2693C11.4729 18.2693 11.0457 17.842 11.0457 17.315V15.9961C10.7528 15.734 10.5685 15.3531 10.5685 14.9291C10.5685 14.1385 11.2094 13.4976 12 13.4976C12.7906 13.4976 13.4315 14.1385 13.4315 14.9291C13.4315 15.3531 13.2472 15.734 12.9543 15.9961Z" fill="#151515"/>
</svg>
