<svg width="24" height="24" viewBox="0 0 24 24" fill="none" xmlns="http://www.w3.org/2000/svg">
<path d="M8.35638 10.42C8.35638 10.42 8.35642 7.96998 8.35638 6.49996C8.35634 4.7357 9.81346 3.0699 11.9998 3.0699C14.1861 3.0699 15.6431 4.7357 15.6431 6.49996C15.6431 7.96998 15.6431 10.42 15.6431 10.42" stroke="#151515" stroke-width="1.5" stroke-linecap="round" stroke-linejoin="round"/>
<path fill-rule="evenodd" clip-rule="evenodd" d="M4.8433 11.1247C4.84327 12.8011 4.84322 16.225 4.84333 18.5272C4.84345 21.0963 8.81642 21.6773 12 21.6773C15.1836 21.6773 19.1567 21.0963 19.1567 18.5272L19.1567 11.1247C19.1567 10.5725 18.709 10.127 18.1567 10.127H5.8433C5.29103 10.127 4.84332 10.5724 4.8433 11.1247ZM10.5686 15.4776C10.5686 15.9318 10.7661 16.3398 11.0798 16.6206V18.0559C11.0798 18.6082 11.5275 19.0559 12.0798 19.0559H12.1246C12.6769 19.0559 13.1246 18.6082 13.1246 18.0559V16.6207C13.4383 16.3398 13.6358 15.9318 13.6358 15.4776C13.6358 14.6306 12.9492 13.944 12.1022 13.944C11.2552 13.944 10.5686 14.6306 10.5686 15.4776Z" fill="#151515"/>
</svg>
