<svg width="24" height="24" viewBox="0 0 24 24" fill="none" xmlns="http://www.w3.org/2000/svg">
<path d="M8.35915 10.3451H6.32503C5.77275 10.3451 5.32504 10.7924 5.32503 11.3447C5.325 12.9316 5.32496 16.0638 5.32506 18.18C5.32517 20.5761 9.03074 21.118 12.0001 21.118C14.9694 21.118 18.675 20.5761 18.6751 18.18C18.6751 16.0638 18.6751 12.9316 18.6751 11.3447C18.6751 10.7924 18.2273 10.3451 17.6751 10.3451H15.641M8.35915 10.3451C8.35915 10.3451 8.35918 7.89676 8.35915 6.42773C8.35911 4.66468 9.81523 3 12.0001 3C14.1849 3 15.641 4.66468 15.641 6.42773C15.641 7.89676 15.641 10.3451 15.641 10.3451M8.35915 10.3451H15.641" stroke="#151515" stroke-width="1.5" stroke-linecap="round" stroke-linejoin="round"/>
<path fill-rule="evenodd" clip-rule="evenodd" d="M12.9536 15.9859V17.3037C12.9536 17.8303 12.5267 18.2573 12 18.2573C11.4734 18.2573 11.0464 17.8303 11.0464 17.3037V15.9859C10.7538 15.724 10.5696 15.3434 10.5696 14.9197C10.5696 14.1298 11.21 13.4894 12 13.4894C12.79 13.4894 13.4304 14.1298 13.4304 14.9197C13.4304 15.3434 13.2462 15.724 12.9536 15.9859Z" fill="#151515"/>
</svg>
