<svg width="24" height="24" viewBox="0 0 24 24" fill="none" xmlns="http://www.w3.org/2000/svg">
<path fill-rule="evenodd" clip-rule="evenodd" d="M4.86259 11.1558C4.86256 12.8287 4.86251 16.2409 4.86261 18.5357C4.86274 21.0978 8.82501 21.6773 12 21.6773C15.175 21.6773 19.1374 21.0978 19.1374 18.5357L19.1374 11.1559C19.1374 10.6036 18.6897 10.1581 18.1374 10.1581H5.86259C5.31031 10.1581 4.8626 10.6036 4.86259 11.1558ZM10.5725 15.4942C10.5725 15.9472 10.7694 16.3542 11.0823 16.6342V18.0629C11.0823 18.6152 11.53 19.0629 12.0823 19.0629H12.1216C12.6739 19.0629 13.1216 18.6152 13.1216 18.0629V16.6342C13.4345 16.3542 13.6314 15.9472 13.6314 15.4942C13.6314 14.6495 12.9466 13.9648 12.1019 13.9648C11.2573 13.9648 10.5725 14.6495 10.5725 15.4942Z" fill="#151515"/>
<path d="M8.36621 10.4503C8.36621 10.4503 8.36625 8.00686 8.36621 6.5408C8.36617 4.7813 9.81936 3.11998 11.9998 3.11998C14.1802 3.11998 15.6333 4.7813 15.6333 6.5408" stroke="#151515" stroke-width="1.5" stroke-linecap="round" stroke-linejoin="round"/>
</svg>
