<svg width="24" height="24" viewBox="0 0 24 24" fill="none" xmlns="http://www.w3.org/2000/svg">
<path d="M20.3731 9.97214C20.3731 11.0059 20.3277 11.8231 20.0968 12.4975C19.8805 13.129 19.4918 13.6618 18.714 14.1001C17.9074 14.5545 17.3599 14.7439 16.7882 14.8335C16.1792 14.9289 15.5236 14.9174 14.4288 14.9174C13.6632 14.9174 13.035 15.2971 12.7149 15.9223C12.4097 16.5187 12.433 17.2383 12.7071 17.8901C12.8645 18.2643 13.1572 18.6188 13.4151 18.9038C13.6624 19.177 14.0177 19.5325 14.2413 19.7719C14.5067 20.0561 14.6828 20.2731 14.7696 20.435C14.7722 20.4397 14.7742 20.4444 14.7765 20.4487C14.5707 20.736 14.5043 20.7574 14.3976 20.7856C14.2872 20.8148 14.1148 20.8373 13.8077 20.8481C13.5037 20.8588 13.1195 20.8569 12.5938 20.8569C6.78006 20.8569 3.07259 16.9074 3.07236 12.0005C3.07236 7.07006 7.06969 3.07272 12.0001 3.07272C14.4401 3.07274 16.5422 4.1691 18.045 5.6196C19.5738 7.09525 20.373 8.82569 20.3731 9.97214Z" stroke="#151515" stroke-width="1.5"/>
<circle cx="6.68799" cy="10.1776" r="1" fill="#151515"/>
<circle cx="10.1869" cy="6.95749" r="1" fill="#151515"/>
<circle cx="14.0894" cy="6.95749" r="1" fill="#151515"/>
<circle cx="16.8755" cy="10.1776" r="1" fill="#151515"/>
</svg>
