<svg width="24" height="24" viewBox="0 0 24 24" fill="none" xmlns="http://www.w3.org/2000/svg">
<path d="M19.2042 20.6649C10.0889 19.5476 3.75386 13.0873 3.26606 4.51121C3.23565 3.97657 3.65784 3.53268 4.1927 3.50638L8.97108 3.27147C9.40073 3.25035 9.79574 3.50636 9.95193 3.90717L10.8587 6.234C11.0394 6.69782 10.8515 7.22395 10.4178 7.46832L7.49938 9.11276C6.92666 9.43546 6.81577 10.2135 7.27554 10.6834L13.146 16.6825C13.602 17.1486 14.3749 17.0605 14.7144 16.5039L16.5237 13.5377C16.7751 13.1256 17.2849 12.9518 17.7356 13.1247L20.0594 14.0162C20.4764 14.1761 20.7367 14.5932 20.6973 15.0381L20.2772 19.7776C20.2288 20.3239 19.7486 20.7316 19.2042 20.6649Z" fill="#151515" stroke="#151515" stroke-width="1.5" stroke-linecap="round" stroke-linejoin="round"/>
</svg>
