<svg width="24" height="24" viewBox="0 0 24 24" fill="none" xmlns="http://www.w3.org/2000/svg">
<path d="M9.36075 3.32272C9.36075 2.77044 9.80846 2.32272 10.3607 2.32272H13.6393C14.1915 2.32272 14.6393 2.77044 14.6393 3.32272V3.96198C14.6393 4.51427 14.1915 4.96198 13.6393 4.96198H10.3607C9.80846 4.96198 9.36075 4.51427 9.36075 3.96198V3.32272Z" fill="#151515"/>
<path d="M8.34174 3.07272H15.6581C16.6246 3.07272 17.4081 3.85623 17.4081 4.82272V19.1772C17.4081 20.1437 16.6246 20.9272 15.6581 20.9272H8.34174C7.37524 20.9272 6.59174 20.1437 6.59174 19.1772V4.82272C6.59174 3.85623 7.37524 3.07272 8.34174 3.07272Z" stroke="#151515" stroke-width="1.5"/>
<path d="M9.3609 18.5981H14.6394" stroke="#151515" stroke-width="1.5" stroke-linecap="round"/>
</svg>
