<svg width="24" height="24" viewBox="0 0 24 24" fill="none" xmlns="http://www.w3.org/2000/svg">
<path fill-rule="evenodd" clip-rule="evenodd" d="M19.2317 12.8567C19.2317 16.8507 15.994 20.0885 12 20.0885C8.00601 20.0885 4.76825 16.8507 4.76825 12.8567C4.76825 10.0793 6.33401 7.66751 8.63101 6.456C8.9047 6.31164 9.08942 6.03481 9.08942 5.72538C9.08942 5.18678 8.55591 4.81232 8.07496 5.05475C5.22385 6.49192 3.26825 9.44594 3.26825 12.8567C3.26825 17.6791 7.17759 21.5885 12 21.5885C16.8224 21.5885 20.7317 17.6791 20.7317 12.8567C20.7317 9.44594 18.7761 6.49193 15.925 5.05476C15.4441 4.81232 14.9106 5.18679 14.9106 5.72539C14.9106 6.03482 15.0953 6.31165 15.369 6.456C17.666 7.66752 19.2317 10.0793 19.2317 12.8567Z" fill="#151515"/>
<path d="M11.9429 3.15475V12.9138" stroke="#151515" stroke-width="1.5" stroke-linecap="round"/>
</svg>
