<svg width="24" height="24" viewBox="0 0 24 24" fill="none" xmlns="http://www.w3.org/2000/svg">
<path d="M5.39978 3.74973V20.2502" stroke="#151515" stroke-width="1.5" stroke-linecap="round"/>
<path d="M12 3.74973V20.2502" stroke="#151515" stroke-width="1.5" stroke-linecap="round"/>
<path d="M18.6002 3.74973V20.2502" stroke="#151515" stroke-width="1.5" stroke-linecap="round"/>
<path d="M8.14993 15.8501C8.14993 17.3689 6.91868 18.6001 5.39986 18.6001C3.88103 18.6001 2.64978 17.3689 2.64978 15.8501C2.64978 14.3312 3.88103 13.1 5.39986 13.1C6.91868 13.1 8.14993 14.3312 8.14993 15.8501Z" fill="#151515"/>
<path d="M14.7497 8.14984C14.7497 9.66867 13.5184 10.8999 11.9996 10.8999C10.4808 10.8999 9.24951 9.66867 9.24951 8.14984C9.24951 6.63102 10.4808 5.39977 11.9996 5.39977C13.5184 5.39977 14.7497 6.63102 14.7497 8.14984Z" fill="#151515"/>
<path d="M21.3503 15.8501C21.3503 17.3689 20.119 18.6001 18.6002 18.6001C17.0813 18.6001 15.8501 17.3689 15.8501 15.8501C15.8501 14.3312 17.0813 13.1 18.6002 13.1C20.119 13.1 21.3503 14.3312 21.3503 15.8501Z" fill="#151515"/>
</svg>
