<svg width="24" height="24" viewBox="0 0 24 24" fill="none" xmlns="http://www.w3.org/2000/svg">
<path d="M11.5 9H6C5.44772 9 5 9.44772 5 10V14.5M11.5 9H17C17.5523 9 18 9.44772 18 10V14.5M11.5 9V20M11.5 20H6C5.44772 20 5 19.5523 5 19V14.5M11.5 20H17C17.5523 20 18 19.5523 18 19V14.5M5 14.5H18" stroke="black" stroke-width="2" stroke-linecap="round" stroke-linejoin="round"/>
<path d="M11.75 7.25C11.75 8.07843 11.0784 8.75 10.25 8.75C9.42157 8.75 8.75 8.07843 8.75 7.25C8.75 6.42157 9.42157 5.75 10.25 5.75C11.0784 5.75 11.75 6.42157 11.75 7.25Z" stroke="black" stroke-width="1.5"/>
<circle cx="13.5" cy="6.5" r="1.75" stroke="black" stroke-width="1.5"/>
</svg>
