<svg width="24" height="24" viewBox="0 0 24 24" fill="none" xmlns="http://www.w3.org/2000/svg">
<path d="M11.8223 8.12312H5.28177C4.72948 8.12312 4.28177 8.57083 4.28177 9.12312V14.5035M11.8223 8.12312H18.3628C18.9151 8.12312 19.3628 8.57083 19.3628 9.12312V14.5035M11.8223 8.12312V20.884M11.8223 20.884H5.28177C4.72948 20.884 4.28177 20.4363 4.28177 19.884V14.5035M11.8223 20.884H18.3628C18.9151 20.884 19.3628 20.4363 19.3628 19.884V14.5035M4.28177 14.5035H19.3628" stroke="#151515" stroke-width="1.5" stroke-linecap="round" stroke-linejoin="round"/>
<path d="M10.3723 4.2328C11.3996 4.2329 12.2327 5.06587 12.2327 6.09315C12.2326 7.12036 11.3996 7.95341 10.3723 7.95351C9.34506 7.95351 8.51209 7.12042 8.51199 6.09315C8.51199 5.06581 9.345 4.2328 10.3723 4.2328Z" stroke="#151515" stroke-width="1.5"/>
<circle cx="14.1424" cy="5.22292" r="2.1502" stroke="#151515" stroke-width="1.5"/>
</svg>
