<svg width="24" height="24" viewBox="0 0 24 24" fill="none" xmlns="http://www.w3.org/2000/svg">
<path d="M7.59778 19.587V16.7173C7.59778 15.8889 8.26935 15.2173 9.09778 15.2173H15.4892C16.3176 15.2173 16.9892 15.8889 16.9892 16.7173V19.587C16.9892 20.4154 16.3176 21.087 15.4892 21.087H9.09778C8.26935 21.087 7.59778 20.4154 7.59778 19.587Z" stroke="#151515" stroke-width="1.5" stroke-linecap="round"/>
<path fill-rule="evenodd" clip-rule="evenodd" d="M7.59774 19.1956H5.28247C4.03983 19.1956 3.03247 18.1883 3.03247 16.9456V10.5542C3.03247 9.31154 4.03983 8.30418 5.28247 8.30418H18.7175C19.9601 8.30418 20.9675 9.31154 20.9675 10.5542V16.9456C20.9675 18.1883 19.9601 19.1956 18.7175 19.1956H16.9892V17.6956H18.7175C19.1317 17.6956 19.4675 17.3598 19.4675 16.9456V10.5542C19.4675 10.14 19.1317 9.80418 18.7175 9.80418H5.28247C4.86826 9.80418 4.53247 10.14 4.53247 10.5542V16.9456C4.53247 17.3598 4.86826 17.6956 5.28247 17.6956H7.59774V19.1956ZM9.81516 5.16303C9.81516 4.74882 10.1509 4.41303 10.5652 4.41303H14.0218C14.436 4.41303 14.7718 4.74882 14.7718 5.16303V6.01089C14.7718 6.4251 15.1076 6.76089 15.5218 6.76089C15.936 6.76089 16.2718 6.4251 16.2718 6.01089V5.16303C16.2718 3.92039 15.2644 2.91303 14.0218 2.91303H10.5652C9.32251 2.91303 8.31516 3.92039 8.31516 5.16303V6.01089C8.31516 6.4251 8.65094 6.76089 9.06516 6.76089C9.47937 6.76089 9.81516 6.4251 9.81516 6.01089V5.16303Z" fill="#151515"/>
</svg>
