<svg width="24" height="24" viewBox="0 0 24 24" fill="none" xmlns="http://www.w3.org/2000/svg">
<path d="M8.5 6.16514C10.0188 6.16514 11.25 7.39636 11.25 8.91514C11.25 10.4339 10.0188 11.6651 8.5 11.6651C6.98122 11.6651 5.75 10.4339 5.75 8.91514C5.75 7.39636 6.98122 6.16514 8.5 6.16514Z" stroke="#151515" stroke-width="1.5"/>
<path d="M16.7502 3.07269C18.269 3.07269 19.5002 4.30391 19.5002 5.82269C19.5002 7.34148 18.269 8.57269 16.7502 8.57269C15.2314 8.57269 14.0002 7.34148 14.0002 5.82269C14.0002 4.30391 15.2314 3.07269 16.7502 3.07269Z" stroke="#151515" stroke-width="1.5"/>
<path d="M15.4802 20.1805C14.4802 21.1805 2.76806 21.0419 2.06959 20.3202C1.37112 19.5984 5.41038 15 9.00024 15C12.5901 15 16.0562 19.6045 15.4802 20.1805Z" stroke="#151515" stroke-width="1.5" stroke-linecap="round" stroke-linejoin="round"/>
<path fill-rule="evenodd" clip-rule="evenodd" d="M15.2161 16.5116C15.7087 17.0471 16.1409 17.5928 16.5004 18.0865C16.5749 18.0899 16.6542 18.0933 16.7376 18.0968C17.3103 18.1209 18.0841 18.146 18.8834 18.15C19.679 18.1541 20.5169 18.1373 21.2119 18.0748C21.558 18.0436 21.8883 17.9995 22.1686 17.9349C22.4108 17.879 22.7533 17.78 23.0005 17.5586C23.3355 17.2584 23.4228 16.853 23.4087 16.5158C23.3949 16.1877 23.287 15.8575 23.1463 15.5571C22.8622 14.9501 22.3607 14.2873 21.7369 13.6798C20.5 12.4751 18.597 11.3126 16.5335 11.3126C15.3978 11.3126 14.4808 11.4412 13.6522 11.8024C12.8214 12.1646 12.1465 12.7316 11.4476 13.4927L11.1945 13.7683C11.7077 13.9123 12.197 14.1295 12.658 14.3937C13.2372 13.7796 13.7204 13.4091 14.2517 13.1774C14.8172 12.9309 15.5042 12.8126 16.5335 12.8126C18.0599 12.8126 19.6077 13.6998 20.6903 14.7543C21.2264 15.2764 21.6018 15.7956 21.7878 16.193C21.8398 16.3041 21.8709 16.3926 21.8887 16.4593C21.8715 16.4637 21.8526 16.4684 21.8317 16.4732C21.6458 16.516 21.3913 16.5526 21.0774 16.5808C20.4525 16.6371 19.6697 16.654 18.891 16.65C18.1162 16.6461 17.3621 16.6217 16.8005 16.5981C16.5201 16.5864 16.2885 16.5749 16.1274 16.5663C16.0468 16.5621 15.9839 16.5585 15.9414 16.5561L15.8932 16.5533L15.8812 16.5525L15.8784 16.5524L15.8778 16.5523L15.8777 16.5523L15.8776 16.5523L15.2161 16.5116Z" fill="#151515"/>
</svg>
