<svg width="24" height="24" viewBox="0 0 24 24" fill="none" xmlns="http://www.w3.org/2000/svg">
<path d="M13 13.5C13 13.2239 13.2239 13 13.5 13H15.5C15.7761 13 16 13.2239 16 13.5V15.5C16 15.7761 15.7761 16 15.5 16H13.5C13.2239 16 13 15.7761 13 15.5V13.5Z" fill="#151515"/>
<path d="M16 16.5C16 16.2239 16.2239 16 16.5 16H18.5C18.7761 16 19 16.2239 19 16.5V18.5C19 18.7761 18.7761 19 18.5 19H16.5C16.2239 19 16 18.7761 16 18.5V16.5Z" fill="#151515"/>
<path d="M19 13.5C19 13.2239 19.2239 13 19.5 13H21.5C21.7761 13 22 13.2239 22 13.5V15.5C22 15.7761 21.7761 16 21.5 16H19.5C19.2239 16 19 15.7761 19 15.5V13.5Z" fill="#151515"/>
<path d="M19 19.5C19 19.2239 19.2239 19 19.5 19H21.5C21.7761 19 22 19.2239 22 19.5V21.5C22 21.7761 21.7761 22 21.5 22H19.5C19.2239 22 19 21.7761 19 21.5V19.5Z" fill="#151515"/>
<path d="M13 19.5C13 19.2239 13.2239 19 13.5 19H15.5C15.7761 19 16 19.2239 16 19.5V21.5C16 21.7761 15.7761 22 15.5 22H13.5C13.2239 22 13 21.7761 13 21.5V19.5Z" fill="#151515"/>
<path d="M4.57129 2.75H8.42871C9.43455 2.75008 10.2499 3.56545 10.25 4.57129V8.42871C10.2499 9.43455 9.43455 10.2499 8.42871 10.25H4.57129C3.56545 10.2499 2.75008 9.43455 2.75 8.42871V4.57129C2.75008 3.56545 3.56545 2.75008 4.57129 2.75Z" stroke="black" stroke-width="1.5" stroke-linejoin="round"/>
<path d="M4.57129 13.75H8.42871C9.43455 13.7501 10.2499 14.5655 10.25 15.5713V19.4287C10.2499 20.4345 9.43455 21.2499 8.42871 21.25H4.57129C3.56545 21.2499 2.75008 20.4345 2.75 19.4287V15.5713C2.75008 14.5655 3.56545 13.7501 4.57129 13.75Z" stroke="black" stroke-width="1.5" stroke-linejoin="round"/>
<path d="M15.5713 2.75H19.4287C20.4345 2.75008 21.2499 3.56545 21.25 4.57129V8.42871C21.2499 9.43455 20.4345 10.2499 19.4287 10.25H15.5713C14.5655 10.2499 13.7501 9.43455 13.75 8.42871V4.57129C13.7501 3.56545 14.5655 2.75008 15.5713 2.75Z" stroke="black" stroke-width="1.5" stroke-linejoin="round"/>
</svg>
