<svg width="24" height="24" viewBox="0 0 24 24" fill="none" xmlns="http://www.w3.org/2000/svg">
<path d="M13 13.5C13 13.2239 13.2239 13 13.5 13H15.5C15.7761 13 16 13.2239 16 13.5V15.5C16 15.7761 15.7761 16 15.5 16H13.5C13.2239 16 13 15.7761 13 15.5V13.5Z" fill="#151515"/>
<path d="M16 16.5C16 16.2239 16.2239 16 16.5 16H18.5C18.7761 16 19 16.2239 19 16.5V18.5C19 18.7761 18.7761 19 18.5 19H16.5C16.2239 19 16 18.7761 16 18.5V16.5Z" fill="#151515"/>
<path d="M19 13.5C19 13.2239 19.2239 13 19.5 13H21.5C21.7761 13 22 13.2239 22 13.5V15.5C22 15.7761 21.7761 16 21.5 16H19.5C19.2239 16 19 15.7761 19 15.5V13.5Z" fill="#151515"/>
<path d="M19 19.5C19 19.2239 19.2239 19 19.5 19H21.5C21.7761 19 22 19.2239 22 19.5V21.5C22 21.7761 21.7761 22 21.5 22H19.5C19.2239 22 19 21.7761 19 21.5V19.5Z" fill="#151515"/>
<path d="M13 19.5C13 19.2239 13.2239 19 13.5 19H15.5C15.7761 19 16 19.2239 16 19.5V21.5C16 21.7761 15.7761 22 15.5 22H13.5C13.2239 22 13 21.7761 13 21.5V19.5Z" fill="#151515"/>
<path d="M2.75 4.57143C2.75 3.56548 3.56548 2.75 4.57143 2.75H8.42857C9.43452 2.75 10.25 3.56548 10.25 4.57143V8.42857C10.25 9.43452 9.43452 10.25 8.42857 10.25H4.57143C3.56548 10.25 2.75 9.43452 2.75 8.42857V4.57143Z" stroke="black" stroke-width="1.5" stroke-linejoin="round"/>
<path d="M2.75 15.5714C2.75 14.5655 3.56548 13.75 4.57143 13.75H8.42857C9.43452 13.75 10.25 14.5655 10.25 15.5714V19.4286C10.25 20.4345 9.43452 21.25 8.42857 21.25H4.57143C3.56548 21.25 2.75 20.4345 2.75 19.4286V15.5714Z" stroke="black" stroke-width="1.5" stroke-linejoin="round"/>
<path d="M13.75 4.57143C13.75 3.56548 14.5655 2.75 15.5714 2.75H19.4286C20.4345 2.75 21.25 3.56548 21.25 4.57143V8.42857C21.25 9.43452 20.4345 10.25 19.4286 10.25H15.5714C14.5655 10.25 13.75 9.43452 13.75 8.42857V4.57143Z" stroke="black" stroke-width="1.5" stroke-linejoin="round"/>
</svg>
