<svg width="24" height="24" viewBox="0 0 24 24" fill="none" xmlns="http://www.w3.org/2000/svg">
<path d="M15.75 4C15.75 3.30964 16.3096 2.75 17 2.75H20C20.6904 2.75 21.25 3.30964 21.25 4V7C21.25 7.69036 20.6904 8.25 20 8.25H17C16.3096 8.25 15.75 7.69036 15.75 7V4Z" stroke="black" stroke-width="1.5" stroke-linejoin="round"/>
<path d="M2.75 4C2.75 3.30964 3.30964 2.75 4 2.75H7C7.69036 2.75 8.25 3.30964 8.25 4V7C8.25 7.69036 7.69036 8.25 7 8.25H4C3.30964 8.25 2.75 7.69036 2.75 7V4Z" stroke="black" stroke-width="1.5" stroke-linejoin="round"/>
<path d="M2.75 17C2.75 16.3096 3.30964 15.75 4 15.75H7C7.69036 15.75 8.25 16.3096 8.25 17V20C8.25 20.6904 7.69036 21.25 7 21.25H4C3.30964 21.25 2.75 20.6904 2.75 20V17Z" stroke="black" stroke-width="1.5" stroke-linejoin="round"/>
<path d="M6 10.5C6 10.2239 6.22386 10 6.5 10H7.5C7.77614 10 8 10.2239 8 10.5V11.5C8 11.7761 7.77614 12 7.5 12H6.5C6.22386 12 6 11.7761 6 11.5V10.5Z" fill="#151515"/>
<path d="M12.5 2H13.5C13.7761 2 14 2.22386 14 2.5V5.5C14 5.77614 13.7761 6 13.5 6H12.5C12.2239 6 12 6.22386 12 6.5V7.5C12 7.77614 11.7761 8 11.5 8H10.5C10.2239 8 10 7.77614 10 7.5V4.5C10 4.22386 10.2239 4 10.5 4H11.5C11.7761 4 12 3.77614 12 3.5V2.5C12 2.22386 12.2239 2 12.5 2Z" fill="#151515"/>
<path d="M8 12.5C8 12.2239 8.22386 12 8.5 12H11.5C11.7761 12 12 12.2239 12 12.5V13.5C12 13.7761 11.7761 14 11.5 14H8.5C8.22386 14 8 13.7761 8 13.5V12.5Z" fill="#151515"/>
<path d="M18 10.5C18 10.2239 18.2239 10 18.5 10H21.5C21.7761 10 22 10.2239 22 10.5V11.5C22 11.7761 21.7761 12 21.5 12H18.5C18.2239 12 18 11.7761 18 11.5V10.5Z" fill="#151515"/>
<path d="M12 18.5C12 18.2239 12.2239 18 12.5 18H15.5C15.7761 18 16 18.2239 16 18.5V19.5C16 19.7761 15.7761 20 15.5 20H12.5C12.2239 20 12 19.7761 12 19.5V18.5Z" fill="#151515"/>
<path d="M10 16.5C10 16.2239 10.2239 16 10.5 16H11.5C11.7761 16 12 16.2239 12 16.5V17.5C12 17.7761 11.7761 18 11.5 18H10.5C10.2239 18 10 17.7761 10 17.5V16.5Z" fill="#151515"/>
<path d="M12 11.5V10.5C12 10.2239 12.2239 10 12.5 10H15.5C15.7761 10 16 10.2239 16 10.5V14H17.5C17.7761 14 18 14.2239 18 14.5V15.5C18 15.7761 17.7761 16 17.5 16H16H14.5C14.2239 16 14 15.7761 14 15.5V12.5C14 12.2239 13.7761 12 13.5 12H12.5C12.2239 12 12 11.7761 12 11.5Z" fill="#151515"/>
<path d="M16.5 20L17.5 20C17.7761 20 18 19.7761 18 19.5L18 18.5C18 18.2239 18.2239 18 18.5 18L19.5 18C19.7761 18 20 17.7761 20 17.5L20 14.5C20 14.2239 20.2239 14 20.5 14L21.5 14C21.7761 14 22 14.2239 22 14.5L22 16L22 18L22 19.5C22 19.7761 21.7761 20 21.5 20L20.5 20C20.2239 20 20 20.2239 20 20.5L20 21.5C20 21.7761 19.7761 22 19.5 22L16.5 22C16.2239 22 16 21.7761 16 21.5L16 20.5C16 20.2239 16.2239 20 16.5 20Z" fill="#151515"/>
<path d="M2 13.5V10.5C2 10.2239 2.22386 10 2.5 10H3.5C3.77614 10 4 10.2239 4 10.5V11.5C4 11.7761 4.22386 12 4.5 12H5.5C5.77614 12 6 12.2239 6 12.5V13.5C6 13.7761 5.77614 14 5.5 14H2.5C2.22386 14 2 13.7761 2 13.5Z" fill="#151515"/>
<path d="M13.5 22H10.5C10.2239 22 10 21.7761 10 21.5V20.5C10 20.2239 10.2239 20 10.5 20H11.5C11.7761 20 12 19.7761 12 19.5V18.5C12 18.2239 12.2239 18 12.5 18H15.5C15.7761 18 16 18.2239 16 18.5V19.5C16 19.7761 15.7761 20 15.5 20H14.5C14.2239 20 14 20.2239 14 20.5V21.5C14 21.7761 13.7761 22 13.5 22Z" fill="#151515"/>
</svg>
