<svg width="24" height="24" viewBox="0 0 24 24" fill="none" xmlns="http://www.w3.org/2000/svg">
<path d="M16.95 6.72944L17.1344 7.29927L17.7309 7.24544C17.8195 7.23745 17.9092 7.23336 18 7.23336C19.7395 7.23336 21.25 8.78002 21.25 10.8167C21.25 12.8534 19.7395 14.4 18 14.4H7C5.26047 14.4 3.75 12.8534 3.75 10.8167C3.75 8.99906 4.96228 7.55979 6.45799 7.28292L6.90103 7.20091L7.03668 6.77125C7.75865 4.48448 9.73528 2.90002 12 2.90002C14.2509 2.90002 16.217 4.465 16.95 6.72944Z" stroke="#151515" stroke-width="1.5"/>
<path d="M6.99313 17.4569L7.89048 20.8058" stroke="#151515" stroke-width="1.5" stroke-linecap="round"/>
<path d="M11.8727 17.4569L12.7701 20.8058" stroke="#151515" stroke-width="1.5" stroke-linecap="round"/>
<path d="M16.7523 17.4569L17.6497 20.8058" stroke="#151515" stroke-width="1.5" stroke-linecap="round"/>
</svg>
