<svg width="24" height="24" viewBox="0 0 24 24" fill="none" xmlns="http://www.w3.org/2000/svg">
<path d="M12 2.90002C14.2509 2.90002 16.2172 4.4648 16.9502 6.72913L17.1348 7.29944L17.7305 7.24573C17.8191 7.23773 17.9092 7.23303 18 7.23303C19.7395 7.23303 21.25 8.78034 21.25 10.817C21.2498 12.8535 19.7394 14.4 18 14.4H7C5.26056 14.4 3.75016 12.8535 3.75 10.817C3.75 8.99939 4.96229 7.55971 6.45801 7.28284L6.90137 7.20081L7.03711 6.77112C7.75914 4.48448 9.73536 2.90002 12 2.90002Z" stroke="#151515" stroke-width="1.5"/>
<path d="M6.99313 17.4569L7.89048 20.8058" stroke="#151515" stroke-width="1.5" stroke-linecap="round"/>
<path d="M11.8727 17.4569L12.7701 20.8058" stroke="#151515" stroke-width="1.5" stroke-linecap="round"/>
<path d="M16.7523 17.4569L17.6497 20.8058" stroke="#151515" stroke-width="1.5" stroke-linecap="round"/>
</svg>
