<svg width="24" height="24" viewBox="0 0 24 24" fill="none" xmlns="http://www.w3.org/2000/svg">
<path d="M8.67819 9.29339L10.8354 5.77794C11.3457 4.94634 12.5695 4.9939 13.0137 5.8626L14.7681 9.29339M14.7681 9.29339L12.5536 8.75206M14.7681 9.29339L15.8754 7.12808M17.5363 12.5413C17.5363 12.5413 18.5854 14.2148 19.7184 16.07C20.2242 16.8982 19.6263 17.9546 18.6559 17.9546C16.4996 17.9546 14.2145 17.9546 14.2145 17.9546M14.2145 17.9546L15.8754 15.7893M14.2145 17.9546L15.8754 20.1199M9.78545 17.9546H5.37554C4.39834 17.9546 3.79904 16.8837 4.31013 16.0508L6.46368 12.5413M6.46368 12.5413L7.01731 15.248M6.46368 12.5413L3.69554 13.0827" stroke="#151515" stroke-width="1.5" stroke-linecap="round" stroke-linejoin="round"/>
</svg>
