<svg width="24" height="24" viewBox="0 0 24 24" fill="none" xmlns="http://www.w3.org/2000/svg">
<path d="M16.2724 3.13079L17.4464 6.15342C17.6464 6.66824 17.3912 7.24768 16.8763 7.44764L13.8537 8.6217" stroke="#151515" stroke-width="1.5" stroke-linecap="round"/>
<path d="M7.21482 20.8317L6.53319 17.6615C6.41709 17.1215 6.76069 16.5897 7.30063 16.4736L10.4708 15.792" stroke="#151515" stroke-width="1.5" stroke-linecap="round"/>
<path fill-rule="evenodd" clip-rule="evenodd" d="M17.4996 7.57942C17.931 7.36667 18.0633 6.8118 17.7313 6.46372C16.8691 5.55968 15.7818 4.84487 14.5169 4.41551C10.3331 2.99538 5.79017 5.23581 4.37005 9.41964C3.94069 10.6846 3.84594 11.9823 4.03834 13.2167C4.11242 13.692 4.63319 13.9247 5.06458 13.712C5.38361 13.5547 5.5477 13.1991 5.50063 12.8465C5.37237 11.8859 5.45784 10.8817 5.79045 9.90177C6.9443 6.50241 10.6354 4.68206 14.0348 5.83591C15.0147 6.16853 15.8634 6.71198 16.5475 7.39851C16.7986 7.65048 17.1806 7.73675 17.4996 7.57942ZM6.3915 16.4026C6.71053 16.2452 7.09253 16.3315 7.34361 16.5835C8.02768 17.27 8.87639 17.8135 9.85631 18.1461C13.2557 19.2999 16.9468 17.4796 18.1006 14.0802C18.4332 13.1003 18.5187 12.0961 18.3905 11.1355C18.3434 10.7829 18.5075 10.4273 18.8265 10.27C19.2579 10.0573 19.7787 10.29 19.8527 10.7653C20.0451 11.9997 19.9504 13.2974 19.521 14.5624C18.1009 18.7462 13.558 20.9866 9.37418 19.5665C8.10924 19.1371 7.02194 18.4223 6.15975 17.5183C5.82779 17.1702 5.96011 16.6153 6.3915 16.4026Z" fill="#151515"/>
</svg>
