<svg width="24" height="24" viewBox="0 0 24 24" fill="none" xmlns="http://www.w3.org/2000/svg">
<path d="M17.1445 3.30925L17.8261 6.47944C17.9422 7.01939 17.5986 7.55121 17.0586 7.66731L13.8885 8.34894" stroke="#151515" stroke-width="1.5" stroke-linecap="round"/>
<path fill-rule="evenodd" clip-rule="evenodd" d="M6.25856 10.0607C7.41241 6.66131 11.1035 4.84096 14.5029 5.99481C15.116 6.20292 15.6777 6.49357 16.1799 6.85016C16.4357 7.03177 16.7708 7.07376 17.0503 6.93128C17.526 6.68873 17.6219 6.05107 17.1936 5.73221C16.5394 5.24517 15.799 4.85069 14.985 4.5744C10.8012 3.15428 6.25828 5.39471 4.83816 9.57854C3.41803 13.7624 5.65846 18.3053 9.84229 19.7254C14.0261 21.1455 18.569 18.9051 19.9891 14.7213C20.3015 13.8009 20.4368 12.8632 20.4132 11.9451C20.3996 11.4161 19.8313 11.1257 19.3598 11.3661C19.0772 11.5102 18.9144 11.8112 18.9154 12.1285C18.9176 12.8279 18.8061 13.5397 18.5687 14.2391C17.4149 17.6385 13.7238 19.4588 10.3244 18.305C6.92506 17.1511 5.10471 13.46 6.25856 10.0607Z" fill="#151515"/>
</svg>
