<svg width="24" height="24" viewBox="0 0 24 24" fill="none" xmlns="http://www.w3.org/2000/svg">
<path fill-rule="evenodd" clip-rule="evenodd" d="M19.9375 16.2081L13.5804 12.5378L19.9375 8.86753L19.9375 16.2081ZM12.3899 13.5826L19.9375 17.9402C20.6042 18.3251 21.4375 17.844 21.4375 17.0742L21.4375 8.00151C21.4375 7.23171 20.6042 6.75058 19.9375 7.13548L12.3899 11.4931L12.3899 8.00152C12.3899 7.23172 11.5566 6.75059 10.8899 7.13549L3.03278 11.6718C2.36611 12.0567 2.36611 13.019 3.03278 13.4039L10.8899 17.9402C11.5566 18.3251 12.3899 17.844 12.3899 17.0742L12.3899 13.5826ZM10.8899 16.2081L4.53278 12.5378L10.8899 8.86754L10.8899 16.2081Z" fill="#151515"/>
</svg>
