<svg width="24" height="24" viewBox="0 0 24 24" fill="none" xmlns="http://www.w3.org/2000/svg">
<mask id="path-1-inside-1_1505_3307" fill="white">
<path fill-rule="evenodd" clip-rule="evenodd" d="M5.45564 3.74982C4.51351 3.74982 3.74976 4.51357 3.74976 5.4557V18.5444C3.74976 19.4865 4.51351 20.2502 5.45564 20.2502H18.5443C19.4864 20.2502 20.2502 19.4865 20.2502 18.5444V5.4557C20.2502 4.51357 19.4864 3.74982 18.5443 3.74982H5.45564ZM8.03284 17.4943C8.86126 17.4943 9.53284 16.8227 9.53284 15.9943C9.53284 15.1659 8.86126 14.4943 8.03284 14.4943C7.20441 14.4943 6.53284 15.1659 6.53284 15.9943C6.53284 16.8227 7.20441 17.4943 8.03284 17.4943ZM6.5355 10.8214C6.5355 10.4072 6.87128 10.0714 7.2855 10.0714C8.15787 10.0714 9.0217 10.2432 9.82767 10.5771C10.6336 10.9109 11.366 11.4002 11.9828 12.0171C12.5997 12.634 13.089 13.3663 13.4228 14.1722C13.7567 14.9782 13.9285 15.842 13.9285 16.7144C13.9285 17.1286 13.5927 17.4644 13.1785 17.4644C12.7643 17.4644 12.4285 17.1286 12.4285 16.7144C12.4285 16.039 12.2955 15.3702 12.037 14.7463C11.7786 14.1223 11.3997 13.5553 10.9222 13.0778C10.4446 12.6002 9.87762 12.2213 9.25364 11.9629C8.62966 11.7044 7.96089 11.5714 7.2855 11.5714C6.87128 11.5714 6.5355 11.2356 6.5355 10.8214ZM7.28552 5.35702C6.87131 5.35702 6.53552 5.6928 6.53552 6.10702C6.53552 6.52123 6.87131 6.85702 7.28552 6.85702C8.58002 6.85702 9.86184 7.11199 11.0578 7.60737C12.2537 8.10275 13.3404 8.82884 14.2558 9.74419C15.1711 10.6595 15.8972 11.7462 16.3926 12.9422C16.888 14.1381 17.1429 15.4199 17.1429 16.7144C17.1429 17.1286 17.4787 17.4644 17.8929 17.4644C18.3072 17.4644 18.6429 17.1286 18.6429 16.7144C18.6429 15.223 18.3492 13.7461 17.7784 12.3681C17.2076 10.9902 16.3711 9.73816 15.3164 8.68353C14.2618 7.62889 13.0098 6.79231 11.6318 6.22155C10.2539 5.65079 8.777 5.35702 7.28552 5.35702Z"/>
</mask>
<path fill-rule="evenodd" clip-rule="evenodd" d="M5.45564 3.74982C4.51351 3.74982 3.74976 4.51357 3.74976 5.4557V18.5444C3.74976 19.4865 4.51351 20.2502 5.45564 20.2502H18.5443C19.4864 20.2502 20.2502 19.4865 20.2502 18.5444V5.4557C20.2502 4.51357 19.4864 3.74982 18.5443 3.74982H5.45564ZM8.03284 17.4943C8.86126 17.4943 9.53284 16.8227 9.53284 15.9943C9.53284 15.1659 8.86126 14.4943 8.03284 14.4943C7.20441 14.4943 6.53284 15.1659 6.53284 15.9943C6.53284 16.8227 7.20441 17.4943 8.03284 17.4943ZM6.5355 10.8214C6.5355 10.4072 6.87128 10.0714 7.2855 10.0714C8.15787 10.0714 9.0217 10.2432 9.82767 10.5771C10.6336 10.9109 11.366 11.4002 11.9828 12.0171C12.5997 12.634 13.089 13.3663 13.4228 14.1722C13.7567 14.9782 13.9285 15.842 13.9285 16.7144C13.9285 17.1286 13.5927 17.4644 13.1785 17.4644C12.7643 17.4644 12.4285 17.1286 12.4285 16.7144C12.4285 16.039 12.2955 15.3702 12.037 14.7463C11.7786 14.1223 11.3997 13.5553 10.9222 13.0778C10.4446 12.6002 9.87762 12.2213 9.25364 11.9629C8.62966 11.7044 7.96089 11.5714 7.2855 11.5714C6.87128 11.5714 6.5355 11.2356 6.5355 10.8214ZM7.28552 5.35702C6.87131 5.35702 6.53552 5.6928 6.53552 6.10702C6.53552 6.52123 6.87131 6.85702 7.28552 6.85702C8.58002 6.85702 9.86184 7.11199 11.0578 7.60737C12.2537 8.10275 13.3404 8.82884 14.2558 9.74419C15.1711 10.6595 15.8972 11.7462 16.3926 12.9422C16.888 14.1381 17.1429 15.4199 17.1429 16.7144C17.1429 17.1286 17.4787 17.4644 17.8929 17.4644C18.3072 17.4644 18.6429 17.1286 18.6429 16.7144C18.6429 15.223 18.3492 13.7461 17.7784 12.3681C17.2076 10.9902 16.3711 9.73816 15.3164 8.68353C14.2618 7.62889 13.0098 6.79231 11.6318 6.22155C10.2539 5.65079 8.777 5.35702 7.28552 5.35702Z" fill="#151515"/>
<path d="M9.82767 10.5771L9.25364 11.9629L9.25364 11.9629L9.82767 10.5771ZM11.9828 12.0171L10.9222 13.0778H10.9222L11.9828 12.0171ZM13.4228 14.1722L12.037 14.7463L12.037 14.7463L13.4228 14.1722ZM12.037 14.7463L13.4228 14.1722L13.4228 14.1722L12.037 14.7463ZM10.9222 13.0778L9.86149 14.1384L9.86149 14.1384L10.9222 13.0778ZM9.25364 11.9629L9.82767 10.5771L9.82767 10.5771L9.25364 11.9629ZM11.0578 7.60737L11.6318 6.22155L11.6318 6.22155L11.0578 7.60737ZM17.7784 12.3681L19.1642 11.7941L17.7784 12.3681ZM15.3164 8.68353L16.3771 7.62287H16.3771L15.3164 8.68353ZM2.24976 5.4557C2.24976 3.68514 3.68508 2.24982 5.45564 2.24982V5.24982C5.34193 5.24982 5.24976 5.34199 5.24976 5.4557H2.24976ZM2.24976 18.5444V5.4557H5.24976V18.5444H2.24976ZM5.45564 21.7502C3.68508 21.7502 2.24976 20.3149 2.24976 18.5444H5.24976C5.24976 18.6581 5.34193 18.7502 5.45564 18.7502V21.7502ZM18.5443 21.7502H5.45564V18.7502H18.5443V21.7502ZM21.7502 18.5444C21.7502 20.3149 20.3149 21.7502 18.5443 21.7502V18.7502C18.658 18.7502 18.7502 18.6581 18.7502 18.5444H21.7502ZM21.7502 5.4557V18.5444H18.7502V5.4557H21.7502ZM18.5443 2.24982C20.3149 2.24982 21.7502 3.68514 21.7502 5.4557H18.7502C18.7502 5.34199 18.658 5.24982 18.5443 5.24982V2.24982ZM5.45564 2.24982H18.5443V5.24982H5.45564V2.24982ZM11.0328 15.9943C11.0328 17.6511 9.68969 18.9943 8.03284 18.9943V15.9943H11.0328ZM8.03284 12.9943C9.68969 12.9943 11.0328 14.3374 11.0328 15.9943H8.03284V12.9943ZM5.03284 15.9943C5.03284 14.3374 6.37598 12.9943 8.03284 12.9943V15.9943H5.03284ZM8.03284 18.9943C6.37598 18.9943 5.03284 17.6511 5.03284 15.9943H8.03284V18.9943ZM7.2855 11.5714C7.69971 11.5714 8.0355 11.2356 8.0355 10.8214H5.0355C5.0355 9.57876 6.04285 8.5714 7.2855 8.5714V11.5714ZM9.25364 11.9629C8.62966 11.7044 7.96089 11.5714 7.2855 11.5714V8.5714C8.35485 8.5714 9.41374 8.78202 10.4017 9.19125L9.25364 11.9629ZM10.9222 13.0778C10.4446 12.6002 9.87762 12.2213 9.25364 11.9629L10.4017 9.19125C11.3896 9.60047 12.2873 10.2003 13.0435 10.9564L10.9222 13.0778ZM12.037 14.7463C11.7786 14.1223 11.3997 13.5553 10.9222 13.0778L13.0435 10.9564C13.7996 11.7126 14.3994 12.6103 14.8087 13.5982L12.037 14.7463ZM12.4285 16.7144C12.4285 16.039 12.2955 15.3702 12.037 14.7463L14.8087 13.5982C15.2179 14.5862 15.4285 15.6451 15.4285 16.7144H12.4285ZM13.1785 15.9644C12.7643 15.9644 12.4285 16.3002 12.4285 16.7144H15.4285C15.4285 17.957 14.4211 18.9644 13.1785 18.9644V15.9644ZM13.9285 16.7144C13.9285 16.3002 13.5927 15.9644 13.1785 15.9644V18.9644C11.9359 18.9644 10.9285 17.957 10.9285 16.7144H13.9285ZM13.4228 14.1722C13.7567 14.9782 13.9285 15.842 13.9285 16.7144H10.9285C10.9285 16.236 10.8343 15.7623 10.6512 15.3203L13.4228 14.1722ZM11.9828 12.0171C12.5997 12.634 13.089 13.3663 13.4228 14.1722L10.6512 15.3203C10.4681 14.8783 10.1998 14.4767 9.86149 14.1384L11.9828 12.0171ZM9.82767 10.5771C10.6336 10.9109 11.366 11.4002 11.9828 12.0171L9.86149 14.1384C9.52321 13.8001 9.12161 13.5318 8.67962 13.3487L9.82767 10.5771ZM7.2855 10.0714C8.15787 10.0714 9.0217 10.2432 9.82767 10.5771L8.67962 13.3487C8.23763 13.1656 7.7639 13.0714 7.2855 13.0714V10.0714ZM8.0355 10.8214C8.0355 10.4072 7.69971 10.0714 7.2855 10.0714V13.0714C6.04285 13.0714 5.0355 12.064 5.0355 10.8214H8.0355ZM5.03552 6.10702C5.03552 4.86438 6.04288 3.85702 7.28552 3.85702V6.85702C7.69974 6.85702 8.03552 6.52123 8.03552 6.10702H5.03552ZM7.28552 8.35702C6.04288 8.35702 5.03552 7.34966 5.03552 6.10702H8.03552C8.03552 5.6928 7.69974 5.35702 7.28552 5.35702V8.35702ZM10.4838 8.99319C9.4698 8.57319 8.38303 8.35702 7.28552 8.35702V5.35702C8.777 5.35702 10.2539 5.65079 11.6318 6.22155L10.4838 8.99319ZM13.1951 10.8048C12.4191 10.0288 11.4977 9.41319 10.4838 8.99319L11.6318 6.22155C13.0098 6.79231 14.2618 7.62889 15.3164 8.68353L13.1951 10.8048ZM15.0068 13.5162C14.5868 12.5022 13.9712 11.5809 13.1951 10.8048L15.3164 8.68353C16.3711 9.73816 17.2076 10.9902 17.7784 12.3681L15.0068 13.5162ZM15.6429 16.7144C15.6429 15.6169 15.4268 14.5302 15.0068 13.5162L17.7784 12.3681C18.3492 13.7461 18.6429 15.223 18.6429 16.7144H15.6429ZM17.8929 18.9644C16.6503 18.9644 15.6429 17.9571 15.6429 16.7144H18.6429C18.6429 16.3002 18.3072 15.9644 17.8929 15.9644V18.9644ZM20.1429 16.7144C20.1429 17.9571 19.1356 18.9644 17.8929 18.9644V15.9644C17.4787 15.9644 17.1429 16.3002 17.1429 16.7144H20.1429ZM19.1642 11.7941C19.8104 13.354 20.1429 15.026 20.1429 16.7144H17.1429C17.1429 15.4199 16.888 14.1381 16.3926 12.9422L19.1642 11.7941ZM16.3771 7.62287C17.571 8.81679 18.5181 10.2342 19.1642 11.7941L16.3926 12.9422C15.8972 11.7462 15.1711 10.6595 14.2558 9.74419L16.3771 7.62287ZM12.2058 4.83573C13.7658 5.48188 15.1832 6.42895 16.3771 7.62287L14.2558 9.74419C13.3404 8.82884 12.2537 8.10275 11.0578 7.60737L12.2058 4.83573ZM7.28552 3.85702C8.97398 3.85702 10.6459 4.18958 12.2058 4.83573L11.0578 7.60737C9.86184 7.11199 8.58002 6.85702 7.28552 6.85702V3.85702Z" fill="#151515" mask="url(#path-1-inside-1_1505_3307)"/>
</svg>
