<svg width="24" height="24" viewBox="0 0 24 24" fill="none" xmlns="http://www.w3.org/2000/svg">
<path d="M5.45581 2.99982H18.5447C19.9009 3.00002 20.9998 4.09965 20.9998 5.45587V18.5447C20.9996 19.9008 19.9007 20.9996 18.5447 20.9998H5.45581C4.09959 20.9998 2.99996 19.9009 2.99976 18.5447V5.45587C2.99976 4.09953 4.09946 2.99982 5.45581 2.99982Z" stroke="#151515" stroke-width="1.5"/>
<circle cx="8.03287" cy="15.9943" r="1.5" fill="#151515"/>
<path d="M7.28553 10.8214C8.05941 10.8214 8.82571 10.9738 9.54068 11.27C10.2557 11.5661 10.9053 12.0002 11.4525 12.5474C11.9997 13.0946 12.4338 13.7443 12.73 14.4593C13.0261 15.1742 13.1785 15.9405 13.1785 16.7144" stroke="#151515" stroke-width="1.5" stroke-linecap="round"/>
<path d="M7.28555 6.10702C8.67854 6.10702 10.0579 6.38139 11.3448 6.91446C12.6318 7.44753 13.8011 8.22887 14.7861 9.21386C15.7711 10.1988 16.5525 11.3682 17.0855 12.6552C17.6186 13.9421 17.893 15.3214 17.893 16.7144" stroke="#151515" stroke-width="1.5" stroke-linecap="round"/>
</svg>
