<svg width="24" height="24" viewBox="0 0 24 24" fill="none" xmlns="http://www.w3.org/2000/svg">
<path d="M15.8839 4.99165C15.8839 5.84141 15.195 6.53027 14.3452 6.53027C13.4955 6.53027 12.8066 5.84141 12.8066 4.99165C12.8066 4.1419 13.4955 3.45304 14.3452 3.45304C15.195 3.45304 15.8839 4.1419 15.8839 4.99165Z" fill="#151515" stroke="#151515" stroke-width="1.5"/>
<path d="M12.1207 9.00125C12.9639 9.00125 14.0396 9.88185 14.0396 9.88185C12.9908 12.1229 12.1207 12.8952 12.1207 14.6788H9.78569C11.6144 10.9122 11.0936 11.0255 12.1207 9.00125Z" fill="#151515"/>
<path d="M14.0396 9.88185C14.0396 9.88185 12.9639 9.00125 12.1207 9.00125M14.0396 9.88185C12.9908 12.1229 12.1207 12.8952 12.1207 14.6788M14.0396 9.88185L15.2454 14.1376L18.6314 12.0157M12.1207 9.00125C11.0936 11.0255 11.6144 10.9122 9.78569 14.6788M12.1207 9.00125H9.01528L7.11915 12.3317M9.78569 14.6788C8.37449 17.1726 5.36862 20.7426 5.36862 20.7426M9.78569 14.6788C10.5383 14.6788 11.3681 14.6788 12.1207 14.6788M12.1207 14.6788C13.579 17.1726 11.3925 21.297 11.3925 21.297" stroke="#151515" stroke-width="1.5" stroke-linecap="round" stroke-linejoin="round"/>
</svg>
