<svg width="24" height="24" viewBox="0 0 24 24" fill="none" xmlns="http://www.w3.org/2000/svg">
<circle cx="12" cy="11.8495" r="8.77672" stroke="#151515" stroke-width="1.5"/>
<path fill-rule="evenodd" clip-rule="evenodd" d="M8.69309 15.492C8.51638 15.6736 8.23521 15.7221 8.03081 15.5724C7.86761 15.4529 7.70981 15.3265 7.55787 15.1935C7.36488 15.0246 7.34938 14.7324 7.52394 14.5446C8.67209 13.3089 10.2538 12.5453 12.0001 12.5453C13.8085 12.5453 15.4405 13.3642 16.5972 14.6783C16.7669 14.8712 16.7432 15.1635 16.5449 15.327C16.3892 15.4553 16.2278 15.5771 16.0611 15.6917C15.8529 15.8349 15.574 15.7787 15.4027 15.5929C14.5097 14.6247 13.291 14.0453 12.0001 14.0453C10.7547 14.0453 9.57647 14.5846 8.69309 15.492Z" fill="#151515"/>
<path d="M9.88293 8.67392C9.88293 9.40468 9.29053 9.99708 8.55977 9.99708C7.82901 9.99708 7.23662 9.40468 7.23662 8.67392C7.23662 7.94317 7.82901 7.35077 8.55977 7.35077C9.29053 7.35077 9.88293 7.94317 9.88293 8.67392Z" fill="#151515"/>
<path d="M16.7634 8.67392C16.7634 9.40468 16.171 9.99708 15.4402 9.99708C14.7094 9.99708 14.1171 9.40468 14.1171 8.67392C14.1171 7.94317 14.7094 7.35077 15.4402 7.35077C16.171 7.35077 16.7634 7.94317 16.7634 8.67392Z" fill="#151515"/>
</svg>
