<svg width="24" height="24" viewBox="0 0 24 24" fill="none" xmlns="http://www.w3.org/2000/svg">
<path d="M7.58176 3.26567H4.65443C4.10215 3.26567 3.65443 3.71339 3.65443 4.26567V16.3648C3.65443 16.6581 3.78326 16.9367 4.00679 17.1267L8.28352 20.7619C8.46432 20.9156 8.69388 21 8.93117 21H19.3456C19.8979 21 20.3456 20.5523 20.3456 20V4.26567C20.3456 3.71339 19.8979 3.26567 19.3456 3.26567H16.4182M7.58176 3.26567V8.52484C7.58176 9.07713 8.02947 9.52485 8.58176 9.52485H15.4182C15.9705 9.52485 16.4182 9.07713 16.4182 8.52485V3.26567M7.58176 3.26567H16.4182" stroke="#151515" stroke-width="1.5" stroke-linecap="round" stroke-linejoin="round"/>
<path d="M8.87041 21V15.7408C8.87041 15.1885 9.31812 14.7408 9.87041 14.7408H14.1296C14.6819 14.7408 15.1296 15.1885 15.1296 15.7408V21" stroke="#151515" stroke-width="1.5" stroke-linecap="round" stroke-linejoin="round"/>
</svg>
