<svg width="24" height="24" viewBox="0 0 24 24" fill="none" xmlns="http://www.w3.org/2000/svg">
<path d="M20.3383 21.399C20.6317 21.6914 21.1065 21.6907 21.399 21.3973C21.6914 21.104 21.6906 20.6291 21.3973 20.3367L20.3383 21.399ZM16.5707 10.2264C16.5707 13.7303 13.7302 16.5707 10.2264 16.5707V18.0707C14.5587 18.0707 18.0707 14.5587 18.0707 10.2264H16.5707ZM10.2264 16.5707C6.72256 16.5707 3.88214 13.7303 3.88214 10.2264H2.38214C2.38214 14.5587 5.89414 18.0707 10.2264 18.0707V16.5707ZM3.88214 10.2264C3.88214 6.72259 6.72256 3.88217 10.2264 3.88217V2.38217C5.89414 2.38217 2.38214 5.89417 2.38214 10.2264H3.88214ZM10.2264 3.88217C13.7302 3.88217 16.5707 6.72259 16.5707 10.2264H18.0707C18.0707 5.89417 14.5587 2.38217 10.2264 2.38217V3.88217ZM14.7045 15.7828L20.3383 21.399L21.3973 20.3367L15.7634 14.7205L14.7045 15.7828Z" fill="#151515"/>
</svg>
