<svg width="24" height="24" viewBox="0 0 24 24" fill="none" xmlns="http://www.w3.org/2000/svg">
<path fill-rule="evenodd" clip-rule="evenodd" d="M9.59445 19.6217L10.3093 19.2073L10.2504 19.1057L10.2325 19.0749L10.2118 19.046L10.1436 18.9505L10.1241 18.9231L10.1021 18.8975L10.0258 18.8087L10.0026 18.7817L9.97688 18.7569L9.89243 18.6757L9.86861 18.6528L9.84287 18.6321L9.75181 18.5587L9.72361 18.536L9.69337 18.5162L9.59569 18.452L9.5665 18.4328L9.53565 18.4164L9.43257 18.3616L9.40288 18.3459L9.37189 18.3328L9.26431 18.2875L9.23096 18.2734L9.19642 18.2626L9.08523 18.228L9.05233 18.2177L9.01862 18.2105L8.90472 18.1862L8.8708 18.1789L8.83636 18.1748L8.72095 18.1611L8.68572 18.1569L8.65024 18.1561L8.53394 18.1534L8.49963 18.1526L8.46539 18.1549L8.34909 18.1628L8.31354 18.1652L8.27838 18.171L8.16358 18.1899L8.12905 18.1955L8.09519 18.2044L7.9825 18.2339L8.15428 18.8899L7.97498 18.2362L7.834 18.2748L7.7169 18.2986L7.59849 18.3141L7.47849 18.3216L7.35889 18.321L7.23955 18.312L7.12141 18.2951L7.0046 18.2698L6.88853 18.2363L6.77557 18.1954L6.66663 18.1471L6.55978 18.0906L6.45678 18.027L6.35916 17.9571L6.26608 17.8802L6.17767 17.7965L6.09493 17.7069L6.0187 17.6124L5.94927 17.513L5.88609 17.408L5.82975 17.2989L5.78156 17.1874L5.74061 17.0717L5.70715 16.9527L5.68183 16.8327L5.66482 16.7113L5.65586 16.5887L5.65522 16.4657L5.66273 16.3424L5.67826 16.2207L5.7021 16.1004L5.7405 15.9569L4.9952 15.7575L5.74361 15.9487L5.77276 15.8346L5.78123 15.8014L5.78665 15.7677L5.80528 15.6514L5.81079 15.6171L5.81309 15.5824L5.82091 15.4646L5.82312 15.4312L5.82235 15.3977L5.81965 15.28L5.81885 15.2454L5.81487 15.211L5.80135 15.0942L5.79745 15.0605L5.79053 15.0273L5.76649 14.912L5.75961 14.879L5.74979 14.8467L5.71553 14.7341L5.70519 14.7002L5.69169 14.6673L5.64691 14.5584L5.63433 14.5278L5.6191 14.4984L5.565 14.3941L5.54911 14.3634L5.53048 14.3344L5.46707 14.2355L5.44768 14.2053L5.42549 14.177L5.35306 14.0848L5.33271 14.0589L5.31017 14.0349L5.22993 13.9494L5.20551 13.9234L5.17874 13.8998L5.09098 13.8225L5.06558 13.8002L5.03826 13.7802L4.94389 13.7111L4.9149 13.6899L4.88401 13.6715L4.78363 13.6119L4.32154 14.3898L4.77623 13.6085L4.64889 13.5344L4.54879 13.467L4.4538 13.3928L4.36312 13.3118L4.27839 13.2249L4.19964 13.1326L4.12724 13.0348L4.06096 12.9316L4.00215 12.8248L3.95062 12.7143L3.90655 12.5998L3.86994 12.4821L3.84138 12.3628L3.82103 12.2424L3.80882 12.1195L3.80455 11.9965L3.80882 11.8735L3.82103 11.7505L3.84138 11.6301L3.86994 11.5108L3.90655 11.3931L3.95062 11.2787L4.00215 11.1681L4.06096 11.0613L4.12724 10.9582L4.19964 10.8604L4.27839 10.768L4.36312 10.6812L4.4538 10.6001L4.54879 10.5259L4.64888 10.4586L4.77623 10.3844L4.32143 9.60302L4.78364 10.381L4.88402 10.3214L4.91491 10.303L4.9439 10.2818L5.03826 10.2128L5.06558 10.1928L5.09098 10.1704L5.17874 10.0931L5.20551 10.0695L5.22993 10.0435L5.31017 9.95803L5.33271 9.93401L5.35306 9.90811L5.42549 9.81592L5.44768 9.78768L5.46707 9.75745L5.53048 9.65857L5.54912 9.62951L5.56501 9.59886L5.6191 9.4945L5.63433 9.46512L5.64691 9.43451L5.69169 9.32559L5.70519 9.29276L5.71553 9.25879L5.74979 9.14622L5.75961 9.11395L5.76649 9.08093L5.79053 8.96562L5.79745 8.93245L5.80135 8.89878L5.81487 8.78195L5.81885 8.74755L5.81965 8.71293L5.82235 8.59519L5.82312 8.56171L5.82091 8.5283L5.81309 8.41056L5.81079 8.37585L5.80528 8.3415L5.78665 8.22528L5.78123 8.19149L5.77276 8.15833L5.74361 8.04424L4.99681 8.23505L5.7405 8.03604L5.7021 7.89253L5.67826 7.77227L5.66273 7.65058L5.65522 7.52725L5.65586 7.40429L5.66482 7.28161L5.68183 7.1602L5.70715 7.04025L5.74061 6.92124L5.78156 6.80551L5.82975 6.69403L5.88609 6.58492L5.94927 6.47991L6.0187 6.38056L6.09492 6.28603L6.17767 6.19645L6.26607 6.11276L6.35915 6.03584L6.45678 5.96591L6.55979 5.9024L6.66663 5.84585L6.77557 5.79758L6.88853 5.75662L7.0046 5.72317L7.12141 5.69791L7.23955 5.68094L7.35889 5.67201L7.47849 5.67137L7.5985 5.67886L7.7169 5.69434L7.834 5.71814L7.97498 5.7568L8.15433 5.10284L7.98249 5.75906L8.09519 5.78857L8.12904 5.79743L8.16358 5.80311L8.27838 5.82197L8.31354 5.82775L8.34909 5.83017L8.4654 5.83808L8.49963 5.84041L8.53394 5.8396L8.65025 5.83686L8.68572 5.83602L8.72095 5.83184L8.83636 5.81815L8.8708 5.81407L8.90473 5.80682L9.01863 5.78248L9.05233 5.77528L9.08523 5.76501L9.19642 5.73033L9.23096 5.71955L9.26431 5.7055L9.3719 5.66017L9.40287 5.64712L9.43256 5.63135L9.53564 5.57658L9.5665 5.56019L9.5957 5.541L9.69337 5.4768L9.72362 5.45692L9.75181 5.43422L9.84287 5.3609L9.86861 5.34017L9.89244 5.31725L9.97688 5.23602L10.0026 5.21131L10.0258 5.18428L10.1021 5.09544L10.1241 5.06991L10.1436 5.04251L10.2118 4.94698L10.2325 4.91803L10.2504 4.88725L10.3093 4.78563L9.59391 4.37097L10.314 4.77987L10.3874 4.65059L10.4543 4.54865L10.5279 4.4521L10.6081 4.36013L10.6939 4.27436L10.7849 4.19482L10.8811 4.12184L10.9823 4.05515L11.087 3.9961L11.1951 3.94445L11.3069 3.90034L11.4217 3.86374L11.5379 3.83522L11.6551 3.81492L11.7748 3.80275L11.8944 3.79849L12.014 3.80275L12.1337 3.81492L12.2509 3.83522L12.3671 3.86374L12.4819 3.90034L12.5937 3.94445L12.7018 3.9961L12.8065 4.05515L12.9077 4.12184L13.0039 4.19482L13.0949 4.27436L13.1807 4.36013L13.2609 4.4521L13.3345 4.54865L13.4014 4.65059L13.4748 4.77987L14.0369 4.46071L13.4763 4.78562L13.5352 4.88724L13.5531 4.91802L13.5737 4.94697L13.642 5.04251L13.6615 5.0699L13.6835 5.09544L13.7598 5.18428L13.783 5.21131L13.8087 5.23602L13.8931 5.31725L13.917 5.34016L13.9427 5.36089L14.0338 5.43422L14.062 5.45692L14.0922 5.4768L14.1899 5.541L14.2191 5.56019L14.2499 5.57658L14.353 5.63135L14.3827 5.64712L14.4137 5.66017L14.5213 5.7055L14.5546 5.71955L14.5892 5.73033L14.7003 5.76501L14.7332 5.77528L14.7669 5.78248L14.8808 5.80682L14.9148 5.81407L14.9492 5.81815L15.0646 5.83184L15.0999 5.83602L15.1353 5.83686L15.2516 5.8396L15.2859 5.84041L15.3202 5.83808L15.4365 5.83017L15.472 5.82775L15.5072 5.82197L15.622 5.80311L15.6565 5.79743L15.6904 5.78857L15.8031 5.75906L15.5831 4.91884L15.8129 5.7568L15.9538 5.71814L16.0709 5.69434L16.1894 5.67886L16.3094 5.67137L16.429 5.67201L16.5483 5.68094L16.6664 5.69791L16.7832 5.72317L16.8993 5.75662L17.0123 5.79758L17.1212 5.84585L17.2281 5.9024L17.3311 5.96591L17.4287 6.03584L17.5218 6.11275L17.6102 6.19644L17.6929 6.28603L17.7691 6.38056L17.8386 6.47991L17.9017 6.58492L17.9581 6.69403L18.0063 6.80551L18.0472 6.92123L18.0807 7.04025L18.106 7.1602L18.123 7.28162L18.132 7.40429L18.1326 7.52725L18.1251 7.65058L18.1096 7.77227L18.0857 7.89253L18.0473 8.03604L18.771 8.22969L18.0452 8.04425L18.016 8.15834L18.0076 8.19149L18.0021 8.22528L17.9835 8.3415L17.978 8.37585L17.9757 8.41056L17.9679 8.5283L17.9657 8.56171L17.9664 8.59518L17.9691 8.71293L17.9699 8.74755L17.9739 8.78195L17.9874 8.89878L17.9913 8.93245L17.9983 8.96562L18.0223 9.08093L18.0292 9.11395L18.039 9.14622L18.0733 9.25879L18.0836 9.29276L18.0971 9.32559L18.1419 9.43451L18.1545 9.46512L18.1697 9.4945L18.2238 9.59886L18.2397 9.62951L18.2583 9.65857L18.3217 9.75745L18.3411 9.78768L18.3633 9.81592L18.4357 9.90811L18.4561 9.93401L18.4786 9.95803L18.5589 10.0435L18.5833 10.0695L18.6101 10.0931L18.6978 10.1704L18.7232 10.1928L18.7505 10.2128L18.8449 10.2818L18.8739 10.303L18.9048 10.3214L19.0051 10.381L19.3007 9.88361L19.0092 10.3844L19.1365 10.4586L19.2366 10.5259L19.3316 10.6001L19.4223 10.6812L19.507 10.768L19.5858 10.8604L19.6581 10.9582L19.7244 11.0613L19.7832 11.1681L19.8348 11.2787L19.8788 11.3931L19.9154 11.5108L19.944 11.6301L19.9644 11.7505L19.9766 11.8735L19.9808 11.9965L19.9766 12.1195L19.9644 12.2424L19.944 12.3628L19.9154 12.4821L19.8788 12.5998L19.8348 12.7143L19.7832 12.8248L19.7244 12.9316L19.6582 13.0348L19.5858 13.1326L19.507 13.2249L19.4223 13.3118L19.3316 13.3928L19.2366 13.4671L19.1365 13.5344L19.0092 13.6085L19.3003 14.1088L19.0052 13.6119L18.9048 13.6715L18.8739 13.6899L18.8449 13.7111L18.7505 13.7802L18.7232 13.8002L18.6978 13.8225L18.6101 13.8998L18.5833 13.9234L18.5589 13.9494L18.4786 14.0349L18.4561 14.0589L18.4357 14.0848L18.3633 14.177L18.3411 14.2053L18.3217 14.2355L18.2583 14.3344L18.2397 14.3634L18.2238 14.3941L18.1697 14.4984L18.1545 14.5278L18.1419 14.5584L18.0971 14.6673L18.0836 14.7002L18.0733 14.7341L18.039 14.8467L18.0292 14.879L18.0223 14.912L17.9983 15.0273L17.9913 15.0605L17.9874 15.0941L17.9739 15.211L17.9699 15.2454L17.9691 15.28L17.9664 15.3977L17.9657 15.4312L17.9679 15.4646L17.9757 15.5824L17.978 15.6171L17.9835 15.6514L18.0021 15.7676L18.0076 15.8014L18.016 15.8346L18.0452 15.9487L18.7726 15.7628L18.0473 15.9569L18.0857 16.1004L18.1096 16.2207L18.1251 16.3424L18.1326 16.4657L18.132 16.5887L18.123 16.7113L18.106 16.8327L18.0807 16.9527L18.0472 17.0717L18.0063 17.1874L17.9581 17.2989L17.9017 17.408L17.8386 17.513L17.7691 17.6124L17.6929 17.7069L17.6102 17.7965L17.5218 17.8802L17.4287 17.9571L17.3311 18.027L17.2281 18.0906L17.1212 18.1471L17.0123 18.1954L16.8993 18.2363L16.7832 18.2698L16.6664 18.2951L16.5483 18.312L16.429 18.321L16.3094 18.3216L16.1894 18.3141L16.0709 18.2986L15.9538 18.2748L15.8129 18.2362L15.5831 19.0738L15.8031 18.2339L15.6904 18.2044L15.6565 18.1955L15.622 18.1899L15.5072 18.171L15.472 18.1652L15.4365 18.1628L15.3202 18.1549L15.2859 18.1526L15.2516 18.1534L15.1353 18.1561L15.0999 18.1569L15.0646 18.1611L14.9492 18.1748L14.9148 18.1789L14.8808 18.1862L14.7669 18.2105L14.7332 18.2177L14.7003 18.228L14.5892 18.2626L14.5546 18.2734L14.5213 18.2875L14.4137 18.3328L14.3827 18.3459L14.353 18.3616L14.2499 18.4164L14.2191 18.4328L14.1899 18.452L14.0922 18.5162L14.062 18.536L14.0338 18.5588L13.9427 18.6321L13.917 18.6528L13.8931 18.6757L13.8087 18.757L13.783 18.7817L13.7598 18.8087L13.6835 18.8975L13.6615 18.9231L13.642 18.9505L13.5737 19.046L13.5531 19.0749L13.5352 19.1057L13.4763 19.2073L14.0364 19.532L13.4748 19.2131L13.4014 19.3424L13.3345 19.4443L13.2609 19.5409L13.1807 19.6328L13.0949 19.7186L13.0039 19.7981L12.9077 19.8711L12.8065 19.9378L12.7018 19.9969L12.5937 20.0485L12.4819 20.0926L12.3671 20.1292L12.2509 20.1577L12.1337 20.178L12.014 20.1902L11.8944 20.1945L11.7748 20.1902L11.6551 20.178L11.5379 20.1577L11.4217 20.1292L11.3069 20.0926L11.1951 20.0485L11.087 19.9969L10.9823 19.9378L10.8811 19.8711L10.7849 19.7981L10.6939 19.7186L10.6081 19.6328L10.5279 19.5409L10.4543 19.4443L10.3874 19.3424L10.314 19.2131L9.59445 19.6217ZM4.29234 8.42357L4.29149 8.4238L4.24671 8.25646L4.24033 8.23263L4.23554 8.20844L4.20188 8.03867L4.19686 8.01336L4.19359 7.98776L4.17166 7.81586L4.16851 7.79125L4.16701 7.76648L4.15649 7.59367L4.15498 7.56896L4.15511 7.5442L4.15601 7.37108L4.15615 7.34568L4.158 7.32035L4.17062 7.14754L4.17243 7.12274L4.17588 7.09811L4.19992 6.92651L4.2035 6.90096L4.20883 6.87572L4.24459 6.70625L4.24972 6.68198L4.25643 6.6581L4.30331 6.49137L4.31001 6.46754L4.31827 6.44421L4.37597 6.28114L4.38447 6.25711L4.39458 6.23372L4.4631 6.07521L4.47332 6.05157L4.48514 6.02869L4.56448 5.87504L4.57565 5.8534L4.58821 5.83252L4.67717 5.68466L4.69039 5.66268L4.70508 5.64166L4.80396 5.50019L4.81871 5.47908L4.83487 5.45904L4.94306 5.32487L4.95887 5.30526L4.97596 5.28676L5.09286 5.16019L5.10993 5.14172L5.12819 5.12442L5.25321 5.00607L5.27157 4.9887L5.29104 4.9726L5.42358 4.86308L5.44355 4.84657L5.46462 4.83148L5.60437 4.73138L5.62542 4.7163L5.64747 4.7027L5.79353 4.61265L5.81452 4.5997L5.83633 4.58816L5.9881 4.50784L6.01121 4.4956L6.03513 4.48501L6.1917 4.41564L6.21542 4.40513L6.23981 4.39629L6.40089 4.33787L6.42463 4.32927L6.44889 4.32228L6.61358 4.27481L6.63794 4.26779L6.66272 4.26243L6.83011 4.22623L6.85592 4.22064L6.88206 4.21689L7.05156 4.19255L7.07677 4.18893L7.10218 4.18703L7.27288 4.17425L7.29883 4.17231L7.32486 4.17217L7.49586 4.17126L7.52123 4.17112L7.54656 4.1727L7.71726 4.18335L7.74263 4.18493L7.76783 4.18823L7.93763 4.21044L7.96382 4.21387L7.98971 4.21912L8.1574 4.2532L8.18211 4.25822L8.20643 4.26489L8.37172 4.31022L8.37167 4.31039L8.44132 4.32863L8.48643 4.33604L8.53294 4.3392L8.57947 4.33811L8.62519 4.33269L8.67146 4.3228L8.71522 4.30915L8.75848 4.29092L8.80102 4.26832L8.83924 4.2432L8.87637 4.2133L8.91131 4.17969L8.94248 4.14342L8.97046 4.10423L9.01152 4.03339L9.01254 4.03398L9.09495 3.88886L9.10689 3.86785L9.12015 3.84764L9.21482 3.70343L9.2293 3.68136L9.2453 3.66037L9.34989 3.52315L9.36488 3.50348L9.38114 3.48483L9.49444 3.35492L9.51127 3.33562L9.52938 3.31751L9.6511 3.19581L9.66892 3.17799L9.6879 3.16141L9.81743 3.04823L9.83694 3.03117L9.85759 3.01551L9.99433 2.91176L10.0142 2.89666L10.0351 2.88291L10.1788 2.78829L10.2003 2.77411L10.2228 2.76143L10.3721 2.67716L10.3944 2.66461L10.4174 2.6536L10.5722 2.57967L10.5958 2.56839L10.6201 2.55879L10.7797 2.49581L10.8032 2.48654L10.8272 2.47888L10.9904 2.42685L11.0147 2.4191L11.0395 2.41301L11.2057 2.37225L11.2309 2.36608L11.2564 2.36166L11.425 2.33245L11.4509 2.32796L11.4771 2.32529L11.6475 2.30795L11.672 2.30545L11.6967 2.30457L11.8677 2.29849L11.8944 2.29754L11.9211 2.29849L12.0921 2.30457L12.1168 2.30545L12.1413 2.30795L12.3117 2.32529L12.3379 2.32796L12.3638 2.33245L12.5324 2.36166L12.5579 2.36608L12.5831 2.37225L12.7493 2.41301L12.7741 2.4191L12.7984 2.42685L12.9616 2.47888L12.9856 2.48654L13.0091 2.49581L13.1687 2.55879L13.193 2.56839L13.2166 2.57967L13.3714 2.6536L13.3944 2.66461L13.4167 2.67716L13.566 2.76143L13.5885 2.77411L13.61 2.78829L13.7537 2.88291L13.7746 2.89666L13.7945 2.91176L13.9312 3.01551L13.9519 3.03117L13.9714 3.04823L14.1009 3.16141L14.1199 3.17799L14.1377 3.19581L14.2594 3.31751L14.2775 3.33562L14.2944 3.35492L14.4077 3.48483L14.4239 3.50348L14.4389 3.52315L14.5435 3.66037L14.5595 3.68136L14.574 3.70343L14.6686 3.84764L14.6819 3.86785L14.6938 3.88886L14.7792 4.03916L14.7778 4.03992L14.8151 4.10423L14.8431 4.14342L14.8743 4.1797L14.9092 4.21331L14.9463 4.2432L14.9846 4.26832L15.0271 4.29092L15.0704 4.30915L15.1141 4.3228L15.1604 4.33269L15.2061 4.33811L15.2526 4.3392L15.2991 4.33604L15.3442 4.32863L15.4231 4.30799L15.4232 4.30829L15.5814 4.26489L15.6057 4.25822L15.6304 4.2532L15.7981 4.21912L15.824 4.21387L15.8502 4.21044L16.02 4.18823L16.0452 4.18493L16.0706 4.18335L16.2413 4.1727L16.2666 4.17112L16.292 4.17126L16.463 4.17217L16.489 4.17231L16.515 4.17425L16.6857 4.18703L16.7111 4.18893L16.7363 4.19255L16.9058 4.21689L16.9319 4.22064L16.9577 4.22623L17.1251 4.26243L17.1499 4.26779L17.1743 4.27481L17.339 4.32228L17.3632 4.32927L17.387 4.33787L17.548 4.39629L17.5724 4.40513L17.5961 4.41564L17.7527 4.48501L17.7766 4.4956L17.7997 4.50784L17.9515 4.58816L17.9733 4.5997L17.9943 4.61265L18.1404 4.70271L18.1624 4.7163L18.1835 4.73138L18.3232 4.83148L18.3443 4.84657L18.3643 4.86308L18.4968 4.97261L18.5163 4.9887L18.5346 5.00608L18.6596 5.12443L18.6779 5.14172L18.695 5.16019L18.8119 5.28676L18.829 5.30526L18.8448 5.32487L18.953 5.45904L18.9691 5.47908L18.9839 5.50019L19.0828 5.64166L19.0974 5.66268L19.1107 5.68466L19.1996 5.83252L19.2122 5.8534L19.2234 5.87505L19.3027 6.02869L19.3145 6.05157L19.3247 6.07521L19.3933 6.23372L19.4034 6.25711L19.4119 6.28114L19.4696 6.44422L19.4778 6.46755L19.4845 6.49137L19.5314 6.6581L19.5381 6.68198L19.5432 6.70625L19.579 6.87572L19.5843 6.90096L19.5879 6.92652L19.612 7.09811L19.6154 7.12274L19.6172 7.14754L19.6298 7.32035L19.6317 7.34568L19.6318 7.37109L19.6327 7.5442L19.6329 7.56896L19.6313 7.59367L19.6208 7.76648L19.6193 7.79125L19.6162 7.81587L19.5942 7.98777L19.591 8.01336L19.586 8.03867L19.5523 8.20844L19.5475 8.23263L19.5411 8.25646L19.4972 8.42054L19.4778 8.4965L19.4701 8.54459L19.4668 8.59422L19.4679 8.64387L19.4736 8.69263L19.4838 8.74175L19.4979 8.78809L19.5166 8.83356L19.5396 8.87789L19.565 8.91748L19.5949 8.95552L19.6282 8.99098L19.6637 9.02231L19.7018 9.05016L19.7713 9.09144L19.7708 9.09219L19.9122 9.17444L19.9333 9.18673L19.9535 9.20037L20.096 9.29621L20.1181 9.31106L20.139 9.32744L20.2746 9.43332L20.2942 9.44862L20.3127 9.46518L20.441 9.57988L20.4601 9.59697L20.478 9.61533L20.5983 9.73855L20.6158 9.75655L20.6321 9.7757L20.7439 9.90683L20.7607 9.92645L20.776 9.94716L20.8785 10.0856L20.8932 10.1055L20.9066 10.1264L21.0001 10.2718L21.0139 10.2932L21.0262 10.3156L21.1094 10.4668L21.1216 10.4888L21.1322 10.5116L21.2052 10.6683L21.2161 10.6917L21.2253 10.7157L21.2875 10.8772L21.2964 10.9003L21.3038 10.924L21.3552 11.0892L21.3626 11.113L21.3684 11.1373L21.4087 11.3056L21.4146 11.3302L21.4188 11.3552L21.4477 11.5259L21.4519 11.5512L21.4545 11.5767L21.4716 11.7493L21.474 11.7732L21.4748 11.7973L21.4808 11.9705L21.4817 11.9965L21.4808 12.0225L21.4748 12.1956L21.474 12.2197L21.4716 12.2437L21.4545 12.4162L21.4519 12.4418L21.4477 12.4671L21.4188 12.6378L21.4146 12.6627L21.4087 12.6874L21.3684 12.8556L21.3626 12.8799L21.3552 12.9038L21.3038 13.069L21.2964 13.0926L21.2875 13.1157L21.2253 13.2773L21.2161 13.3013L21.2052 13.3246L21.1322 13.4813L21.1216 13.5041L21.1094 13.5262L21.0262 13.6774L21.0139 13.6997L21.0001 13.7212L20.9066 13.8666L20.8932 13.8874L20.8785 13.9074L20.776 14.0458L20.7607 14.0665L20.7439 14.0861L20.6321 14.2173L20.6158 14.2364L20.5983 14.2544L20.478 14.3776L20.4601 14.396L20.441 14.4131L20.3127 14.5278L20.2942 14.5443L20.2746 14.5596L20.139 14.6655L20.1181 14.6819L20.096 14.6967L19.9535 14.7926L19.9333 14.8062L19.9122 14.8185L19.7708 14.9008L19.7713 14.9015L19.7018 14.9428L19.6637 14.9706L19.6282 15.002L19.5949 15.0374L19.565 15.0755L19.5396 15.1151L19.5166 15.1594L19.4979 15.2049L19.4838 15.2512L19.4736 15.3003L19.4679 15.3491L19.4668 15.3987L19.4701 15.4483L19.4778 15.4964L19.4973 15.5727L19.5411 15.7365L19.5475 15.7603L19.5523 15.7845L19.586 15.9543L19.591 15.9796L19.5942 16.0052L19.6162 16.1771L19.6193 16.2017L19.6208 16.2265L19.6313 16.3993L19.6329 16.424L19.6327 16.4487L19.6318 16.6219L19.6317 16.6473L19.6298 16.6726L19.6172 16.8454L19.6154 16.8702L19.612 16.8948L19.5879 17.0664L19.5843 17.092L19.579 17.1172L19.5432 17.2867L19.5381 17.311L19.5314 17.3349L19.4845 17.5016L19.4778 17.5254L19.4696 17.5487L19.4119 17.7118L19.4034 17.7358L19.3933 17.7592L19.3247 17.9177L19.3145 17.9414L19.3027 17.9643L19.2234 18.1179L19.2122 18.1396L19.1996 18.1604L19.1107 18.3083L19.0974 18.3303L19.0828 18.3513L18.9839 18.4928L18.9691 18.5139L18.953 18.5339L18.8448 18.6681L18.829 18.6877L18.8119 18.7062L18.695 18.8328L18.6779 18.8512L18.6596 18.8685L18.5346 18.9869L18.5163 19.0042L18.4968 19.0203L18.3643 19.1299L18.3443 19.1464L18.3232 19.1615L18.1835 19.2616L18.1624 19.2767L18.1404 19.2902L17.9943 19.3803L17.9733 19.3933L17.9515 19.4048L17.7997 19.4851L17.7766 19.4974L17.7527 19.5079L17.5961 19.5773L17.5724 19.5878L17.548 19.5967L17.3869 19.6551L17.3632 19.6637L17.339 19.6707L17.1743 19.7181L17.1499 19.7252L17.1251 19.7305L16.9577 19.7667L16.9319 19.7723L16.9058 19.7761L16.7363 19.8004L16.7111 19.804L16.6857 19.8059L16.515 19.8187L16.489 19.8207L16.463 19.8208L16.292 19.8217L16.2666 19.8218L16.2413 19.8203L16.0706 19.8096L16.0452 19.808L16.02 19.8047L15.8502 19.7825L15.824 19.7791L15.7981 19.7738L15.6304 19.7398L15.6057 19.7347L15.5814 19.7281L15.4232 19.6847L15.4231 19.685L15.3442 19.6643L15.2991 19.6569L15.2526 19.6538L15.2061 19.6549L15.1604 19.6603L15.1141 19.6702L15.0704 19.6838L15.0271 19.702L14.9846 19.7246L14.9463 19.7498L14.9092 19.7797L14.8743 19.8133L14.8431 19.8495L14.8151 19.8887L14.7779 19.953L14.7792 19.9538L14.6938 20.1041L14.6819 20.1251L14.6686 20.1453L14.574 20.2895L14.5595 20.3116L14.5435 20.3326L14.4389 20.4698L14.4239 20.4895L14.4077 20.5081L14.2944 20.638L14.2775 20.6573L14.2594 20.6754L14.1377 20.7971L14.1199 20.815L14.1009 20.8316L13.9714 20.9447L13.9519 20.9618L13.9312 20.9775L13.7945 21.0812L13.7746 21.0963L13.7537 21.1101L13.61 21.2047L13.5885 21.2189L13.566 21.2315L13.4167 21.3158L13.3944 21.3284L13.3714 21.3394L13.2166 21.4133L13.193 21.4246L13.1687 21.4342L13.0091 21.4972L12.9856 21.5064L12.9616 21.5141L12.7984 21.5661L12.7741 21.5739L12.7493 21.5799L12.5831 21.6207L12.5579 21.6269L12.5324 21.6313L12.3638 21.6605L12.3379 21.665L12.3117 21.6677L12.1413 21.685L12.1168 21.6875L12.0921 21.6884L11.9211 21.6945L11.8944 21.6954L11.8677 21.6945L11.6967 21.6884L11.672 21.6875L11.6475 21.685L11.4771 21.6677L11.4509 21.665L11.425 21.6605L11.2564 21.6313L11.2309 21.6269L11.2057 21.6207L11.0395 21.5799L11.0147 21.5739L10.9904 21.5661L10.8272 21.5141L10.8032 21.5064L10.7797 21.4972L10.6201 21.4342L10.5958 21.4246L10.5722 21.4133L10.4174 21.3394L10.3944 21.3284L10.3721 21.3158L10.2227 21.2315L10.2003 21.2189L10.1788 21.2047L10.0351 21.1101L10.0142 21.0963L9.99433 21.0812L9.85759 20.9775L9.83694 20.9618L9.81743 20.9447L9.6879 20.8316L9.66892 20.815L9.65109 20.7971L9.52938 20.6754L9.51127 20.6573L9.49444 20.638L9.38114 20.5081L9.36488 20.4895L9.34989 20.4698L9.2453 20.3326L9.2293 20.3116L9.21482 20.2895L9.12015 20.1453L9.10689 20.1251L9.09495 20.1041L9.01255 19.959L9.01153 19.9596L8.97046 19.8887L8.94248 19.8496L8.91131 19.8133L8.87637 19.7797L8.83925 19.7498L8.80102 19.7247L8.75848 19.7021L8.71522 19.6838L8.67146 19.6702L8.62519 19.6603L8.57947 19.6549L8.53295 19.6538L8.48643 19.6569L8.44132 19.6643L8.37167 19.6826L8.37172 19.6827L8.20643 19.7281L8.18211 19.7347L8.1574 19.7398L7.98971 19.7738L7.96383 19.7791L7.93764 19.7825L7.76784 19.8047L7.74263 19.808L7.71726 19.8096L7.54656 19.8203L7.52123 19.8218L7.49586 19.8217L7.32486 19.8208L7.29883 19.8207L7.27287 19.8187L7.10217 19.8059L7.07677 19.804L7.05156 19.8004L6.88206 19.7761L6.85592 19.7723L6.83011 19.7667L6.66272 19.7305L6.63794 19.7252L6.61358 19.7181L6.44889 19.6707L6.42463 19.6637L6.40089 19.6551L6.23981 19.5967L6.21542 19.5878L6.1917 19.5773L6.03512 19.5079L6.01121 19.4974L5.9881 19.4851L5.83633 19.4048L5.81452 19.3933L5.79352 19.3803L5.64747 19.2903L5.62542 19.2767L5.60437 19.2616L5.46462 19.1615L5.44355 19.1464L5.42357 19.1299L5.29104 19.0203L5.27156 19.0043L5.25321 18.9869L5.12819 18.8685L5.10993 18.8512L5.09286 18.8328L4.97595 18.7062L4.95886 18.6877L4.94306 18.6681L4.83487 18.5339L4.8187 18.5139L4.80396 18.4928L4.70508 18.3513L4.69039 18.3303L4.67717 18.3083L4.58821 18.1604L4.57565 18.1396L4.56448 18.1179L4.48514 17.9643L4.47332 17.9414L4.4631 17.9177L4.39458 17.7592L4.38447 17.7358L4.37597 17.7118L4.31827 17.5487L4.31001 17.5254L4.30331 17.5016L4.25643 17.3349L4.24972 17.311L4.24459 17.2867L4.20883 17.1172L4.2035 17.092L4.19992 17.0664L4.17588 16.8948L4.17243 16.8702L4.17062 16.8454L4.158 16.6726L4.15615 16.6473L4.15601 16.6219L4.15511 16.4487L4.15498 16.424L4.15649 16.3993L4.16701 16.2265L4.16851 16.2017L4.17165 16.1771L4.19359 16.0052L4.19686 15.9796L4.20188 15.9543L4.23554 15.7845L4.24033 15.7603L4.24671 15.7365L4.29149 15.5691L4.29234 15.5694L4.31098 15.4964L4.31869 15.4483L4.32198 15.3987L4.32084 15.3491L4.31519 15.3003L4.30496 15.2512L4.29085 15.2049L4.27216 15.1594L4.24918 15.1151L4.2238 15.0755L4.19391 15.0374L4.16063 15.002L4.12505 14.9706L4.087 14.9428L4.0221 14.9042L4.0217 14.9049L3.87324 14.8185L3.85212 14.8062L3.83185 14.7926L3.6894 14.6967L3.66732 14.6819L3.64636 14.6655L3.51082 14.5596L3.49123 14.5443L3.4727 14.5278L3.34438 14.4131L3.32526 14.396L3.30735 14.3776L3.18714 14.2544L3.16957 14.2364L3.15325 14.2173L3.04145 14.0861L3.02473 14.0665L3.00939 14.0458L2.90691 13.9074L2.89216 13.8874L2.87877 13.8666L2.7853 13.7212L2.77152 13.6997L2.75923 13.6774L2.67598 13.5262L2.66384 13.5041L2.6532 13.4813L2.58017 13.3246L2.56931 13.3013L2.56006 13.2773L2.49785 13.1157L2.48896 13.0926L2.4816 13.069L2.43021 12.9038L2.42279 12.8799L2.41697 12.8556L2.3767 12.6874L2.3708 12.6627L2.36658 12.6378L2.33773 12.4671L2.33345 12.4418L2.33091 12.4162L2.31378 12.2437L2.3114 12.2197L2.31056 12.1956L2.30455 12.0225L2.30365 11.9965L2.30455 11.9705L2.31056 11.7973L2.3114 11.7732L2.31378 11.7493L2.33091 11.5767L2.33345 11.5512L2.33773 11.5259L2.36658 11.3552L2.3708 11.3302L2.3767 11.3056L2.41697 11.1373L2.42279 11.113L2.43021 11.0892L2.4816 10.9239L2.48896 10.9003L2.49785 10.8772L2.56006 10.7157L2.56931 10.6917L2.58017 10.6683L2.6532 10.5116L2.66384 10.4888L2.67598 10.4668L2.75923 10.3156L2.77152 10.2932L2.7853 10.2718L2.87877 10.1264L2.89216 10.1055L2.90691 10.0856L3.00939 9.94716L3.02473 9.92644L3.04145 9.90683L3.15325 9.7757L3.16957 9.75655L3.18714 9.73854L3.30735 9.61533L3.32526 9.59697L3.34438 9.57988L3.4727 9.46518L3.49123 9.44862L3.51082 9.43332L3.64635 9.32744L3.66732 9.31106L3.6894 9.29621L3.83185 9.20037L3.85213 9.18673L3.87324 9.17444L4.0217 9.08803L4.0221 9.08871L4.08699 9.05016L4.12505 9.02231L4.16062 8.99098L4.1939 8.95552L4.22379 8.91748L4.24918 8.87789L4.27216 8.83356L4.29085 8.78809L4.30495 8.74175L4.31519 8.69263L4.32084 8.64387L4.32198 8.59422L4.31869 8.54459L4.31098 8.49651L4.29234 8.42357Z" fill="#151515"/>
<path d="M14.7888 11.7615C14.7888 13.4552 13.421 14.824 11.739 14.824C10.057 14.824 8.68918 13.4552 8.68918 11.7615C8.68918 10.0678 10.057 8.69905 11.739 8.69905C13.421 8.69905 14.7888 10.0678 14.7888 11.7615Z" stroke="#151515" stroke-width="1.5"/>
</svg>
