<svg width="24" height="24" viewBox="0 0 24 24" fill="none" xmlns="http://www.w3.org/2000/svg">
<path d="M15.6801 7.94597C8.26408 8.24187 4.39377 15.0541 3.198 18.9773C3.11007 19.2657 3.33119 19.5474 3.63278 19.5474C3.81566 19.5474 3.98159 19.4369 4.05947 19.2714C6.84204 13.3588 13.1 12.3038 15.7625 12.5299C16.0069 12.5507 16.1825 12.7608 16.1825 13.0061V14.881C16.1825 15.323 16.714 15.5476 17.031 15.2396L20.6602 11.7132C20.8349 11.5435 20.8618 11.2726 20.724 11.0718L17.0948 5.78223C16.8169 5.37714 16.1825 5.57384 16.1825 6.0651V7.436C16.1825 7.71215 15.956 7.93496 15.6801 7.94597Z" fill="#151515" stroke="#151515" stroke-width="1.5" stroke-linecap="round" stroke-linejoin="round"/>
</svg>
