<svg width="24" height="24" viewBox="0 0 24 24" fill="none" xmlns="http://www.w3.org/2000/svg">
<path d="M20.8601 5.14077C20.8601 6.71921 19.5805 7.99879 18.0021 7.99879C16.4236 7.99879 15.144 6.71921 15.144 5.14077C15.144 3.56232 16.4236 2.28275 18.0021 2.28275C19.5805 2.28275 20.8601 3.56232 20.8601 5.14077Z" fill="#151515"/>
<path d="M20.8601 18.8592C20.8601 20.4377 19.5805 21.7173 18.0021 21.7173C16.4236 21.7173 15.144 20.4377 15.144 18.8592C15.144 17.2808 16.4236 16.0012 18.0021 16.0012C19.5805 16.0012 20.8601 17.2808 20.8601 18.8592Z" fill="#151515"/>
<path d="M8.85605 12C8.85605 13.5784 7.57648 14.858 5.99803 14.858C4.41959 14.858 3.14001 13.5784 3.14001 12C3.14001 10.4215 4.41959 9.14197 5.99803 9.14197C7.57648 9.14197 8.85605 10.4215 8.85605 12Z" fill="#151515"/>
<path d="M18.0021 5.14075L6.23156 11.561C5.88413 11.7506 5.88412 12.2494 6.23156 12.4389L18.0021 18.8592" stroke="#151515" stroke-width="1.5" stroke-linecap="round" stroke-linejoin="round"/>
</svg>
