<svg width="24" height="24" viewBox="0 0 24 24" fill="none" xmlns="http://www.w3.org/2000/svg">
<path d="M9.5 12.1201L7.5 15.6201M9.5 12.1201H7.5C6.94772 12.1201 6.5 11.6724 6.5 11.1201V5.12012M9.5 12.1201H11H15.5H16.882C17.2607 12.1201 17.607 11.9061 17.7764 11.5673L20.2764 6.56733C20.6088 5.90243 20.1253 5.12012 19.382 5.12012H15.5H11H6.5M7.5 15.6201H18M7.5 15.6201H6.5M6.5 5.12012L5.77639 3.6729C5.607 3.33412 5.26074 3.12012 4.88197 3.12012H3.5" stroke="#151515" stroke-width="1.5" stroke-linecap="round"/>
<path d="M18 15.6299C16.7574 15.6299 15.75 16.6372 15.75 17.8799C15.75 19.1225 16.7574 20.1299 18 20.1299C19.2426 20.1299 20.25 19.1225 20.25 17.8799C20.25 16.6372 19.2426 15.6299 18 15.6299Z" stroke="#151515" stroke-width="1.5"/>
<path d="M6 15.6299C4.75736 15.6299 3.75 16.6372 3.75 17.8799C3.75 19.1225 4.75736 20.1299 6 20.1299C7.24264 20.1299 8.25 19.1225 8.25 17.8799C8.25 16.6372 7.24264 15.6299 6 15.6299Z" stroke="#151515" stroke-width="1.5"/>
</svg>
