<svg width="24" height="24" viewBox="0 0 24 24" fill="none" xmlns="http://www.w3.org/2000/svg">
<path d="M14.5 13L16.5 16.5M14.5 13H16.5C17.0523 13 17.5 12.5523 17.5 12V6M14.5 13H13H8.5H7.11803C6.73926 13 6.393 12.786 6.22361 12.4472L3.72361 7.44721C3.39116 6.78231 3.87465 6 4.61803 6H8.5H13H17.5M16.5 16.5H6M16.5 16.5H17.5M17.5 6L18.2236 4.55279C18.393 4.214 18.7393 4 19.118 4H20.5" stroke="#151515" stroke-width="1.5" stroke-linecap="round"/>
<path d="M6 16.5098C7.24264 16.5098 8.25 17.5171 8.25 18.7598C8.25 20.0024 7.24264 21.0098 6 21.0098C4.75736 21.0098 3.75 20.0024 3.75 18.7598C3.75 17.5171 4.75736 16.5098 6 16.5098Z" stroke="#151515" stroke-width="1.5"/>
<path d="M18 16.5098C19.2426 16.5098 20.25 17.5171 20.25 18.7598C20.25 20.0024 19.2426 21.0098 18 21.0098C16.7574 21.0098 15.75 20.0024 15.75 18.7598C15.75 17.5171 16.7574 16.5098 18 16.5098Z" stroke="#151515" stroke-width="1.5"/>
</svg>
