<svg width="24" height="24" viewBox="0 0 24 24" fill="none" xmlns="http://www.w3.org/2000/svg">
<path d="M11.5264 3.75C13.6519 3.75002 15.4947 5.18865 16.1797 7.25L16.3672 7.81348L16.957 7.76074C17.0403 7.75342 17.1256 7.75 17.2109 7.75C18.8517 7.75024 20.25 9.1665 20.25 11C20.25 12.8335 18.8517 14.2498 17.2109 14.25H6.78906C5.14828 14.2498 3.75 12.8335 3.75 11C3.75 9.36229 4.87256 8.04882 6.28027 7.79492L6.72168 7.71582L6.86035 7.28809C7.53502 5.20651 9.38777 3.75 11.5264 3.75Z" stroke="#151515" stroke-width="1.5"/>
<circle cx="7" cy="18" r="1" fill="#151515"/>
<circle cx="17" cy="18" r="1" fill="#151515"/>
<circle cx="12" cy="18" r="1" fill="#151515"/>
<circle cx="14" cy="21" r="1" fill="#151515"/>
<circle cx="9" cy="21" r="1" fill="#151515"/>
</svg>
