<svg width="24" height="24" viewBox="0 0 24 24" fill="none" xmlns="http://www.w3.org/2000/svg">
<path d="M16.18 7.2504L16.3669 7.813L16.9574 7.76108C17.0407 7.75375 17.1251 7.75 17.2105 7.75C18.8515 7.75 20.25 9.16635 20.25 11C20.25 12.8336 18.8515 14.25 17.2105 14.25H6.78947C5.14851 14.25 3.75 12.8336 3.75 11C3.75 9.36229 4.87208 8.0493 6.27979 7.7954L6.72173 7.71569L6.86015 7.2885C7.5347 5.20669 9.38757 3.75 11.5263 3.75C13.652 3.75 15.4951 5.1888 16.18 7.2504Z" stroke="#151515" stroke-width="1.5"/>
<circle cx="7" cy="18" r="1" fill="#151515"/>
<circle cx="17" cy="18" r="1" fill="#151515"/>
<circle cx="12" cy="18" r="1" fill="#151515"/>
<circle cx="14" cy="21" r="1" fill="#151515"/>
<circle cx="9" cy="21" r="1" fill="#151515"/>
</svg>
