<svg width="24" height="24" viewBox="0 0 24 24" fill="none" xmlns="http://www.w3.org/2000/svg">
<path d="M13.0355 8.52113C13.4261 8.1306 14.0674 8.12674 14.3881 8.57637C15.0882 9.55788 15.5 10.7592 15.5 12.0567C15.5 13.3541 15.0882 14.5554 14.3881 15.537C14.0674 15.9866 13.4261 15.9827 13.0355 15.5922C12.645 15.2017 12.6586 14.5725 12.9408 14.0978C13.296 13.5002 13.5 12.8023 13.5 12.0567C13.5 11.3111 13.296 10.6131 12.9408 10.0156C12.6586 9.54084 12.645 8.91165 13.0355 8.52113Z" fill="black"/>
<path d="M15.864 5.69316C16.2545 5.30263 16.8921 5.29976 17.2419 5.72712C18.6532 7.45118 19.5 9.65526 19.5 12.0571C19.5 14.459 18.6532 16.6631 17.2419 18.3871C16.8921 18.8145 16.2545 18.8116 15.864 18.4211C15.4734 18.0306 15.4792 17.4007 15.8183 16.9648C16.8723 15.6098 17.5 13.9068 17.5 12.0571C17.5 10.2075 16.8723 8.50445 15.8183 7.14944C15.4792 6.71351 15.4734 6.08368 15.864 5.69316Z" fill="black"/>
<path d="M11 16.5858V7.41421C11 6.52331 9.92286 6.07714 9.29289 6.70711L7.29289 8.70711C7.10536 8.89464 6.851 9 6.58579 9H5C4.44772 9 4 9.44772 4 10V14C4 14.5523 4.44772 15 5 15H6.58579C6.851 15 7.10536 15.1054 7.29289 15.2929L9.29289 17.2929C9.92286 17.9229 11 17.4767 11 16.5858Z" stroke="black" stroke-width="2" stroke-linecap="round"/>
</svg>
