<svg width="24" height="24" viewBox="0 0 24 24" fill="none" xmlns="http://www.w3.org/2000/svg">
<path d="M18.1523 18.5571C18.1523 19.7997 17.145 20.8071 15.9023 20.8071L8.09766 20.8071C6.85502 20.8071 5.84766 19.7997 5.84766 18.5571L5.84766 5.4429C5.84766 4.20026 6.85502 3.1929 8.09766 3.1929L15.9023 3.1929C17.145 3.1929 18.1523 4.20026 18.1523 5.4429L18.1523 18.5571Z" stroke="#151515" stroke-width="1.5"/>
<path d="M8.5024 14.1238C8.5024 12.1921 10.0683 10.6262 12 10.6262C13.9317 10.6262 15.4976 12.1921 15.4976 14.1238C15.4976 16.0555 13.9317 17.6214 12 17.6214C10.0683 17.6214 8.5024 16.0555 8.5024 14.1238Z" stroke="#151515" stroke-width="1.5"/>
<path d="M10.9071 7.22145C10.9071 6.61789 11.3964 6.1286 12 6.1286C12.6035 6.1286 13.0928 6.61789 13.0928 7.22145C13.0928 7.82502 12.6035 8.3143 12 8.3143C11.3964 8.3143 10.9071 7.82502 10.9071 7.22145Z" fill="#151515" stroke="#151515"/>
<path d="M11.4382 14.1238C11.4382 13.8135 11.6898 13.5619 12.0001 13.5619C12.3105 13.5619 12.562 13.8135 12.562 14.1238C12.562 14.4341 12.3105 14.6857 12.0001 14.6857C11.6898 14.6857 11.4382 14.4341 11.4382 14.1238Z" fill="#151515" stroke="#151515"/>
</svg>
