<svg width="24" height="24" viewBox="0 0 24 24" fill="none" xmlns="http://www.w3.org/2000/svg">
<path d="M11 16.5858V7.41421C11 6.52331 9.92286 6.07714 9.29289 6.70711L7.29289 8.70711C7.10536 8.89464 6.851 9 6.58579 9H5C4.44772 9 4 9.44772 4 10V14C4 14.5523 4.44772 15 5 15H6.58579C6.851 15 7.10536 15.1054 7.29289 15.2929L9.29289 17.2929C9.92286 17.9229 11 17.4767 11 16.5858Z" stroke="#151515" stroke-width="1.5" stroke-linecap="round"/>
<path d="M16.4531 6.33026C17.8214 7.8286 18.6559 9.82266 18.6559 12.0116C18.6559 14.1893 17.83 16.1741 16.4743 17.6697" stroke="#151515" stroke-width="1.5" stroke-linecap="round"/>
<path d="M13.5821 9.1937C14.2731 9.95041 14.6946 10.9575 14.6946 12.063C14.6946 13.1628 14.2775 14.1652 13.5928 14.9205" stroke="#151515" stroke-width="1.5" stroke-linecap="round"/>
</svg>
