<svg width="24" height="24" viewBox="0 0 24 24" fill="none" xmlns="http://www.w3.org/2000/svg">
<path d="M12 16.5858V7.41421C12 6.52331 10.9229 6.07714 10.2929 6.70711L8.29289 8.70711C8.10536 8.89464 7.851 9 7.58579 9H6C5.44772 9 5 9.44772 5 10V14C5 14.5523 5.44772 15 6 15H7.58579C7.851 15 8.10536 15.1054 8.29289 15.2929L10.2929 17.2929C10.9229 17.9229 12 17.4767 12 16.5858Z" stroke="#151515" stroke-width="1.5" stroke-linecap="round"/>
<path d="M16.5361 13.5353V8" stroke="#151515" stroke-width="1.5" stroke-linecap="round"/>
<path d="M17.5361 16.598C17.5361 17.1503 17.0884 17.598 16.5361 17.598C15.9838 17.598 15.5361 17.1503 15.5361 16.598C15.5361 16.0457 15.9838 15.598 16.5361 15.598C17.0884 15.598 17.5361 16.0457 17.5361 16.598Z" fill="#151515"/>
</svg>
