<svg width="24" height="24" viewBox="0 0 24 24" fill="none" xmlns="http://www.w3.org/2000/svg">
<path d="M13 16.5858V7.41421C13 6.52331 11.9229 6.07714 11.2929 6.70711L9.29289 8.70711C9.10536 8.89464 8.851 9 8.58579 9H7C6.44772 9 6 9.44772 6 10V14C6 14.5523 6.44772 15 7 15H8.58579C8.851 15 9.10536 15.1054 9.29289 15.2929L11.2929 17.2929C11.9229 17.9229 13 17.4767 13 16.5858Z" stroke="#151515" stroke-width="1.5" stroke-linecap="round"/>
<path d="M15.4537 9.25037C16.1447 10.0071 16.5661 11.0142 16.5661 12.1197C16.5661 13.2195 16.149 14.2218 15.4644 14.9772" stroke="#151515" stroke-width="1.5" stroke-linecap="round"/>
</svg>
