<svg width="24" height="24" viewBox="0 0 24 24" fill="none" xmlns="http://www.w3.org/2000/svg">
<path d="M10 16.5858V7.41421C10 6.52331 8.92286 6.07714 8.29289 6.70711L6.29289 8.70711C6.10536 8.89464 5.851 9 5.58579 9H4C3.44772 9 3 9.44772 3 10V14C3 14.5523 3.44772 15 4 15H5.58579C5.851 15 6.10536 15.1054 6.29289 15.2929L8.29289 17.2929C8.92286 17.9229 10 17.4767 10 16.5858Z" stroke="#151515" stroke-width="1.5" stroke-linecap="round"/>
<path d="M18.1121 3.25232C20.2188 5.55933 21.5038 8.6296 21.5038 12C21.5038 15.353 20.2321 18.4089 18.1447 20.7118" stroke="#151515" stroke-width="1.5" stroke-linecap="round"/>
<path d="M15.4323 6.33026C16.8005 7.8286 17.635 9.82266 17.635 12.0116C17.635 14.1893 16.8091 16.1741 15.4534 17.6697" stroke="#151515" stroke-width="1.5" stroke-linecap="round"/>
<path d="M12.5612 9.1937C13.2522 9.95041 13.6737 10.9575 13.6737 12.063C13.6737 13.1628 13.2566 14.1652 12.5719 14.9205" stroke="#151515" stroke-width="1.5" stroke-linecap="round"/>
</svg>
