<svg width="24" height="24" viewBox="0 0 24 24" fill="none" xmlns="http://www.w3.org/2000/svg">
<path d="M15.9023 20.8071L8.09766 20.8071C6.85502 20.8071 5.84766 19.7997 5.84766 18.5571L5.84766 5.44282C5.8477 4.20022 6.85504 3.19283 8.09766 3.19282L15.9023 3.19283C17.145 3.19283 18.1523 4.20022 18.1523 5.44283L18.1523 18.5571C18.1523 19.7997 17.145 20.8071 15.9023 20.8071Z" stroke="#151515" stroke-width="1.5"/>
<path d="M11.9995 17.6214C10.0681 17.6211 8.50247 16.0549 8.50247 14.1233C8.50272 12.192 10.0682 10.6265 11.9995 10.6263C13.9311 10.6263 15.4973 12.1919 15.4976 14.1233C15.4976 16.055 13.9312 17.6214 11.9995 17.6214Z" stroke="#151515" stroke-width="1.5"/>
<path d="M12.0001 8.3143C11.3965 8.3143 10.9073 7.82506 10.9073 7.22153C10.9073 6.61796 11.3965 6.12875 12.0001 6.12875C12.6036 6.12879 13.0928 6.61799 13.0928 7.22153C13.0928 7.82503 12.6036 8.31426 12.0001 8.3143Z" fill="#151515" stroke="#151515"/>
<path d="M12.0005 14.6857C11.6903 14.6857 11.4382 14.4343 11.438 14.1242C11.438 13.8138 11.6902 13.5617 12.0005 13.5617C12.3107 13.5619 12.562 13.814 12.562 14.1242C12.5618 14.4342 12.3105 14.6855 12.0005 14.6857Z" fill="#151515" stroke="#151515"/>
</svg>
