<svg width="24" height="24" viewBox="0 0 24 24" fill="none" xmlns="http://www.w3.org/2000/svg">
<path d="M17.1491 4.82914C17.8116 4.8293 18.3483 5.36677 18.3483 6.02934C18.3481 6.69175 17.8115 7.2284 17.1491 7.22856C16.4865 7.22856 15.949 6.69185 15.9489 6.02934C15.9489 5.36667 16.4864 4.82914 17.1491 4.82914Z" fill="#151515" stroke="#151515" stroke-width="1.5"/>
<path d="M13.7808 4.60561H4.9999" stroke="#151515" stroke-width="1.5" stroke-linecap="round" stroke-linejoin="round"/>
<path d="M10.5457 7.37852H5.92422" stroke="#151515" stroke-width="1.5" stroke-linecap="round" stroke-linejoin="round"/>
<path d="M7.77283 10.1514H3.15131" stroke="#151515" stroke-width="1.5" stroke-linecap="round" stroke-linejoin="round"/>
<path d="M17.1972 4.82914C17.8598 4.8293 18.3965 5.36677 18.3965 6.02934C18.3963 6.69175 17.8597 7.2284 17.1972 7.22856C16.5347 7.22856 15.9972 6.69185 15.997 6.02934C15.997 5.36667 16.5346 4.82914 17.1972 4.82914Z" fill="#151515" stroke="#151515" stroke-width="1.5"/>
<path d="M15.3017 9.44511C16.0201 9.44511 16.9365 10.1954 16.9365 10.1954C16.043 12.1047 15.3017 12.7627 15.3017 14.2823H13.3123C14.8703 11.0732 14.4266 11.1697 15.3017 9.44511Z" fill="#151515"/>
<path d="M16.9365 10.1954C16.9365 10.1954 16.0201 9.44511 15.3017 9.44511M16.9365 10.1954C16.043 12.1047 15.3017 12.7627 15.3017 14.2823M16.9365 10.1954L17.9639 13.8212L20.8487 12.0134M15.3017 9.44511C14.4266 11.1697 14.8703 11.0732 13.3123 14.2823M15.3017 9.44511H12.6559L11.0405 12.2826M13.3123 14.2823C12.11 16.407 9.54903 19.4486 9.54903 19.4486M13.3123 14.2823C13.9535 14.2823 14.6605 14.2823 15.3017 14.2823M15.3017 14.2823C16.5441 16.407 14.6813 19.9209 14.6813 19.9209" stroke="#151515" stroke-width="1.5" stroke-linecap="round" stroke-linejoin="round"/>
</svg>
