<svg width="24" height="24" viewBox="0 0 24 24" fill="none" xmlns="http://www.w3.org/2000/svg">
<path d="M11.7039 3.68933C11.8195 3.43512 12.1805 3.43512 12.2961 3.68933L14.6764 8.92615C14.7235 9.0297 14.8212 9.10114 14.9342 9.11454L20.6703 9.79502C20.9542 9.8287 21.0597 10.1859 20.8396 10.3684L16.5538 13.9225C16.4614 13.9992 16.4187 14.1206 16.4429 14.2383L17.6719 20.222C17.7293 20.5016 17.4245 20.7143 17.1819 20.5639L12.1714 17.4561C12.0664 17.391 11.9336 17.391 11.8286 17.4561L6.8181 20.5639C6.57553 20.7143 6.27065 20.5016 6.32808 20.222L7.55701 14.2383C7.58118 14.1206 7.53851 13.9992 7.44604 13.9225L3.16036 10.3684C2.94032 10.1859 3.0458 9.8287 3.32966 9.79502L9.0657 9.11454C9.17865 9.10114 9.2764 9.02971 9.32347 8.92615L11.7039 3.68933Z" stroke="#151515" stroke-width="1.5" stroke-linejoin="round"/>
</svg>
