<svg width="24" height="24" viewBox="0 0 24 24" fill="none" xmlns="http://www.w3.org/2000/svg">
<circle cx="12" cy="12" r="5.09677" fill="#151515"/>
<path fill-rule="evenodd" clip-rule="evenodd" d="M12.75 3.08064C12.75 2.66643 12.4142 2.33064 12 2.33064C11.5858 2.33064 11.25 2.66643 11.25 3.08064L11.25 5.61352C11.4961 5.58493 11.7464 5.57024 12.0001 5.57024C12.2538 5.57024 12.504 5.58493 12.75 5.6135L12.75 3.08064ZM12.75 18.3867L12.75 20.9194C12.75 21.3336 12.4142 21.6694 12 21.6694C11.5858 21.6694 11.25 21.3336 11.25 20.9194L11.25 18.3866C11.4961 18.4152 11.7464 18.4299 12.0001 18.4299C12.2538 18.4299 12.504 18.4152 12.75 18.3867Z" fill="#151515"/>
<path fill-rule="evenodd" clip-rule="evenodd" d="M20.9194 12.75C21.3336 12.75 21.6694 12.4142 21.6694 12C21.6694 11.5858 21.3336 11.25 20.9194 11.25L18.3865 11.25C18.4151 11.4961 18.4298 11.7464 18.4298 12.0001C18.4298 12.2538 18.4151 12.504 18.3865 12.75L20.9194 12.75ZM5.61335 12.75L3.08065 12.75C2.66643 12.75 2.33065 12.4142 2.33065 12C2.33065 11.5858 2.66643 11.25 3.08065 11.25L5.61337 11.25C5.58478 11.4961 5.57008 11.7464 5.57008 12.0001C5.57008 12.2538 5.58477 12.504 5.61335 12.75Z" fill="#151515"/>
<path fill-rule="evenodd" clip-rule="evenodd" d="M18.8374 6.22329C19.1303 5.9304 19.1303 5.45552 18.8374 5.16263C18.5445 4.86974 18.0696 4.86974 17.7767 5.16263L15.9856 6.95373C16.1798 7.1075 16.3672 7.27408 16.5466 7.45349C16.726 7.63287 16.8925 7.82021 17.0463 8.01438L18.8374 6.22329ZM8.01431 17.0464L6.2235 18.8372C5.93061 19.1301 5.45573 19.1301 5.16284 18.8372C4.86995 18.5443 4.86995 18.0694 5.16284 17.7765L6.95366 15.9857C7.10742 16.1799 7.27401 16.3673 7.45342 16.5467C7.6328 16.726 7.82014 16.8926 8.01431 17.0464Z" fill="#151515"/>
<path fill-rule="evenodd" clip-rule="evenodd" d="M6.22345 5.16263C5.93055 4.86974 5.45568 4.86974 5.16279 5.16263C4.86989 5.45552 4.86989 5.9304 5.16279 6.22329L6.95388 8.01439C7.10765 7.82019 7.27424 7.63282 7.45364 7.45342C7.63302 7.27404 7.82037 7.10747 8.01453 6.95372L6.22345 5.16263ZM17.0465 15.9857L18.8373 17.7765C19.1302 18.0694 19.1302 18.5443 18.8373 18.8372C18.5444 19.1301 18.0696 19.1301 17.7767 18.8372L15.9858 17.0463C16.18 16.8926 16.3674 16.726 16.5468 16.5466C16.7262 16.3672 16.8928 16.1799 17.0465 15.9857Z" fill="#151515"/>
</svg>
