<svg width="24" height="24" viewBox="0 0 24 24" fill="none" xmlns="http://www.w3.org/2000/svg">
<path d="M14.4778 13.0898L14.6647 13.6524L15.2553 13.6005C15.3308 13.5938 15.4074 13.5904 15.4848 13.5904C16.9714 13.5904 18.2447 14.8747 18.2447 16.5453C18.2447 18.216 16.9714 19.5002 15.4848 19.5002H5.8326C4.34604 19.5002 3.07269 18.216 3.07269 16.5453C3.07269 15.0535 4.09444 13.8617 5.37034 13.6316L5.81227 13.5519L5.9507 13.1247C6.56883 11.217 8.26531 9.88553 10.22 9.88553C12.1627 9.88553 13.8502 11.2007 14.4778 13.0898Z" stroke="#151515" stroke-width="1.5"/>
<path fill-rule="evenodd" clip-rule="evenodd" d="M10.8416 6.12673C10.5696 5.90836 10.1721 5.95183 9.95375 6.22383C9.73538 6.49583 9.77886 6.89335 10.0509 7.11171L11.401 8.19566C11.5067 8.01608 11.6267 7.84189 11.761 7.67459C11.8953 7.50736 12.0393 7.35266 12.1918 7.21065L10.8416 6.12673ZM18.911 12.6051C18.8053 12.7846 18.6854 12.9587 18.5511 13.1259C18.4168 13.2932 18.2727 13.448 18.1202 13.5901L19.47 14.6737C19.742 14.8921 20.1395 14.8486 20.3579 14.5766C20.5763 14.3046 20.5328 13.9071 20.2608 13.6887L18.911 12.6051Z" fill="#151515"/>
<path fill-rule="evenodd" clip-rule="evenodd" d="M21.7874 9.67507C21.8253 10.0218 21.5749 10.3336 21.2282 10.3716L19.5071 10.5598C19.5144 10.3516 19.5069 10.1403 19.4836 9.92714C19.4603 9.71387 19.4219 9.50588 19.3697 9.30413L21.0909 9.1159C21.4376 9.07798 21.7494 9.32832 21.7874 9.67507Z" fill="#151515"/>
<path fill-rule="evenodd" clip-rule="evenodd" d="M14.4307 3.76907C14.7774 3.73115 15.0892 3.98149 15.1272 4.32823L15.3154 6.04934C15.1072 6.04198 14.8959 6.04949 14.6828 6.0728C14.4695 6.09613 14.2615 6.13449 14.0597 6.18671L13.8715 4.46556C13.8336 4.11882 14.0839 3.80699 14.4307 3.76907Z" fill="#151515"/>
<path fill-rule="evenodd" clip-rule="evenodd" d="M19.3322 5.19831C19.6042 5.41668 19.6477 5.8142 19.4293 6.08619L18.3455 7.43619C18.2035 7.28377 18.0488 7.13969 17.8816 7.00544C17.7143 6.87112 17.5401 6.75118 17.3605 6.64544L18.4443 5.29541C18.6627 5.02342 19.0602 4.97994 19.3322 5.19831Z" fill="#151515"/>
<path fill-rule="evenodd" clip-rule="evenodd" d="M11.8498 9.40698C12.2369 8.12049 13.3609 7.12492 14.7806 6.96966C16.6753 6.76245 18.3793 8.13045 18.5865 10.0252C18.7301 11.3377 18.1177 12.5588 17.0979 13.2541C16.6149 12.9898 16.0664 12.8405 15.4848 12.8405C15.3854 12.8405 15.2869 12.8449 15.1896 12.8534C15.1598 12.7638 15.1279 12.6752 15.094 12.5878C15.1927 12.5905 15.2928 12.5865 15.3937 12.5754C16.5949 12.4441 17.4622 11.3638 17.3308 10.1625C17.1995 8.96125 16.1192 8.09395 14.9179 8.22532C13.9429 8.33196 13.1878 9.06382 13.0083 9.97809C12.6489 9.74076 12.2604 9.54795 11.8498 9.40698Z" fill="#151515"/>
</svg>
