<svg width="24" height="24" viewBox="0 0 24 24" fill="none" xmlns="http://www.w3.org/2000/svg">
<path fill-rule="evenodd" clip-rule="evenodd" d="M6.19477 12.5165C5.92675 12.285 5.93513 11.8669 6.21222 11.6463L8.52054 9.80854C8.80488 9.58217 8.80488 9.15018 8.52054 8.92381L6.21222 7.08608C5.93513 6.86548 5.92675 6.44735 6.19477 6.21582L6.46151 5.9854C6.66733 5.80761 6.97055 5.80153 7.18333 5.97093L10.6015 8.69228C11.0615 9.05849 11.0615 9.67386 10.6015 10.0401L7.18333 12.7614C6.97055 12.9308 6.66733 12.9247 6.46151 12.7469L6.19477 12.5165Z" fill="#151515"/>
<path d="M3.04498 5.31167C3.04498 4.05982 4.0598 3.045 5.31165 3.045H18.6883C19.9402 3.045 20.955 4.05982 20.955 5.31166V18.6883C20.955 19.9402 19.9402 20.955 18.6883 20.955H5.31165C4.05981 20.955 3.04498 19.9402 3.04498 18.6883V5.31167Z" stroke="#151515" stroke-width="1.5"/>
<path d="M9.89294 13.4095C9.89294 13.0965 10.1466 12.8428 10.4596 12.8428H15.2963C15.6092 12.8428 15.8629 13.0965 15.8629 13.4095V14.0672C15.8629 14.3801 15.6092 14.6338 15.2963 14.6338H10.4596C10.1466 14.6338 9.89294 14.3801 9.89294 14.0672V13.4095Z" fill="#151515"/>
</svg>
