<svg width="24" height="24" viewBox="0 0 24 24" fill="none" xmlns="http://www.w3.org/2000/svg">
<path d="M9.68311 13.9083C9.92294 11.866 10.4325 10.3388 11.9229 10.3388C13.4133 10.3388 14.3228 11.4723 14.3228 13.3933C14.3228 15.3142 13.495 18.5028 12.8032 20.4578" stroke="#151515" stroke-width="1.5" stroke-linecap="round"/>
<path d="M12.014 13.1083C11.8788 14.8098 11.4055 18.463 10.5942 19.4636" stroke="#151515" stroke-width="1.5" stroke-linecap="round"/>
<path fill-rule="evenodd" clip-rule="evenodd" d="M5.4541 18.8621C5.79219 19.1844 6.15399 19.482 6.53661 19.7521C6.63335 19.5606 6.72894 19.3614 6.82222 19.1569C7.31282 18.0816 7.78066 16.7701 8.04861 15.462C8.1242 15.0929 7.8863 14.7325 7.51724 14.6569C7.14818 14.5813 6.78772 14.8192 6.71213 15.1882C6.46877 16.3764 6.03797 17.5892 5.58106 18.5906C5.5386 18.6837 5.49623 18.7742 5.4541 18.8621Z" fill="#151515"/>
<path fill-rule="evenodd" clip-rule="evenodd" d="M7.15454 20.1532C7.54404 20.3852 7.95152 20.5902 8.3744 20.7655C8.51843 20.4552 8.663 20.122 8.80384 19.7817C9.26874 18.6586 9.70875 17.4194 9.9736 16.5816C10.0871 16.2224 9.888 15.8392 9.5288 15.7256C9.1696 15.6121 8.78636 15.8112 8.67281 16.1704C8.419 16.9734 7.99223 18.1755 7.54332 19.26C7.41307 19.5747 7.28227 19.8763 7.15454 20.1532Z" fill="#151515"/>
<path fill-rule="evenodd" clip-rule="evenodd" d="M3.94836 17.017C4.22211 17.4542 4.53041 17.8676 4.86945 18.2532C5.34547 17.3064 5.76001 16.2942 5.87702 15.504C5.93221 15.1314 5.67485 14.7846 5.30219 14.7294C4.92954 14.6742 4.5827 14.9315 4.52751 15.3042C4.4614 15.7506 4.24631 16.3572 3.94836 17.017Z" fill="#151515"/>
<path fill-rule="evenodd" clip-rule="evenodd" d="M15.711 20.7416C15.7962 20.4397 15.8837 20.134 15.9722 19.8253L15.9722 19.8252C16.1175 19.3179 16.2653 18.8022 16.4088 18.2806C16.9091 16.4628 17.3557 14.5806 17.3557 12.9414C17.3557 11.283 16.8988 9.79341 15.977 8.70502C15.0431 7.60226 13.6868 6.97836 12.0443 6.97836C10.3828 6.97836 9.02999 7.66039 8.10609 8.77714C7.19406 9.87954 6.73291 11.3621 6.73291 12.9414C6.73291 13.3556 7.0687 13.6914 7.48291 13.6914C7.89712 13.6914 8.23291 13.3556 8.23291 12.9414C8.23291 11.6416 8.61293 10.5177 9.26183 9.7333C9.89886 8.9633 10.8268 8.47836 12.0443 8.47836C13.2809 8.47836 14.2054 8.9341 14.8324 9.67444C15.4715 10.4291 15.8557 11.546 15.8557 12.9414C15.8557 14.3559 15.4638 16.0615 14.9626 17.8826C14.8296 18.3656 14.6887 18.8578 14.5471 19.3519L14.547 19.3521C14.3626 19.9961 14.1771 20.6434 14.0075 21.2777C14.5974 21.1519 15.1671 20.9713 15.711 20.7416Z" fill="#151515"/>
<path fill-rule="evenodd" clip-rule="evenodd" d="M18.6806 18.7589C19.2084 17.1372 19.5985 15.3491 19.5985 13.6004C19.5985 10.869 19.0107 8.58698 17.7304 6.97384C16.4275 5.3322 14.4916 4.48829 12.0442 4.48829C9.56672 4.48829 7.6778 5.44984 6.43034 7.09222C5.2048 8.70575 4.65417 10.9005 4.65417 13.2997C4.65417 13.7139 4.98996 14.0497 5.40417 14.0497C5.81839 14.0497 6.15417 13.7139 6.15417 13.2997C6.15417 11.1038 6.66144 9.26791 7.62485 7.9995C8.56634 6.75994 9.99745 5.98829 12.0442 5.98829C14.1211 5.98829 15.5873 6.68642 16.5555 7.90633C17.5463 9.15475 18.0985 11.0538 18.0985 13.6004C18.0985 15.905 17.3248 18.3694 16.4679 20.3818C17.2832 19.9488 18.028 19.4006 18.6806 18.7589Z" fill="#151515"/>
<path d="M3.43464 14.5793C3.01759 13.1231 2.9767 11.5849 3.3158 10.1086C3.65489 8.63237 4.36288 7.26621 5.37356 6.13797" stroke="#151515" stroke-width="1.5" stroke-linecap="round"/>
<path d="M7.68433 4.29085C9.13063 3.48476 10.7721 3.0954 12.4264 3.16603C14.0806 3.23666 15.6829 3.76452 17.0553 4.69097" stroke="#151515" stroke-width="1.5" stroke-linecap="round"/>
<path d="M19.2611 6.81061C20.1289 7.99168 20.6936 9.36768 20.9056 10.8179C21.1177 12.2681 20.9705 13.7482 20.4772 15.1282" stroke="#151515" stroke-width="1.5" stroke-linecap="round"/>
</svg>
