<svg width="24" height="24" viewBox="0 0 24 24" fill="none" xmlns="http://www.w3.org/2000/svg">
<path d="M13.4421 6.25C13.8563 6.25 14.1921 5.91421 14.1921 5.5C14.1921 5.08579 13.8563 4.75 13.4421 4.75V6.25ZM2.25 17C2.25 17.6262 2.76014 17.9145 2.99513 18.0149C3.27122 18.1329 3.59037 18.1867 3.8444 18.215C4.11162 18.2449 4.37179 18.253 4.56056 18.2542C4.65615 18.2548 4.73623 18.2537 4.79327 18.2523C4.82184 18.2517 4.84478 18.2509 4.86116 18.2503C4.86935 18.25 4.87592 18.2498 4.88074 18.2496C4.88315 18.2495 4.88512 18.2494 4.88665 18.2493C4.88741 18.2493 4.88806 18.2493 4.8886 18.2493C4.88887 18.2492 4.88911 18.2492 4.88932 18.2492C4.88942 18.2492 4.88956 18.2492 4.88961 18.2492C4.88974 18.2492 4.88987 18.2492 4.85522 17.5C4.82058 16.7508 4.82069 16.7508 4.82079 16.7508C4.82081 16.7508 4.82091 16.7508 4.82096 16.7508C4.82106 16.7508 4.82113 16.7508 4.82117 16.7508C4.82126 16.7508 4.82124 16.7508 4.82111 16.7508C4.82085 16.7508 4.82017 16.7508 4.81907 16.7509C4.81687 16.751 4.81301 16.7511 4.80762 16.7513C4.79682 16.7517 4.7799 16.7522 4.75775 16.7528C4.71333 16.7538 4.64847 16.7548 4.57013 16.7543C4.41104 16.7533 4.20741 16.7462 4.01082 16.7243C3.80105 16.7009 3.65639 16.6663 3.58463 16.6356C3.47177 16.5874 3.75 16.6667 3.75 17H2.25ZM23.25 16.5V13.5H21.75V16.5H23.25ZM23.25 13.5V10.5H21.75V13.5H23.25ZM22 9.25H20.5V10.75H22V9.25ZM20.5 9.25H18.5V10.75H20.5V9.25ZM16.5 9.25H12.2839V10.75H16.5V9.25ZM2.25 5.99498C2.25 5.99884 2.25 6.00272 2.25 6.00662C2.25 6.01053 2.25 6.01445 2.25 6.01839C2.25 6.02233 2.25 6.02629 2.25 6.03027C2.25 6.03425 2.25 6.03826 2.25 6.04228C2.25 6.0463 2.25 6.05034 2.25 6.0544C2.25 6.05847 2.25 6.06255 2.25 6.06665C2.25 6.07075 2.25 6.07487 2.25 6.07901C2.25 6.08315 2.25 6.08731 2.25 6.09149C2.25 6.09567 2.25 6.09987 2.25 6.10409C2.25 6.10831 2.25 6.11255 2.25 6.11681C2.25 6.12107 2.25 6.12535 2.25 6.12965C2.25 6.13394 2.25 6.13826 2.25 6.1426C2.25 6.14693 2.25 6.15129 2.25 6.15567C2.25 6.16004 2.25 6.16444 2.25 6.16885C2.25 6.17326 2.25 6.1777 2.25 6.18215C2.25 6.1866 2.25 6.19107 2.25 6.19556C2.25 6.20005 2.25 6.20456 2.25 6.20909C2.25 6.21361 2.25 6.21816 2.25 6.22273C2.25 6.22729 2.25 6.23188 2.25 6.23648C2.25 6.24108 2.25 6.24571 2.25 6.25035C2.25 6.25499 2.25 6.25965 2.25 6.26433C2.25 6.269 2.25 6.2737 2.25 6.27842C2.25 6.28313 2.25 6.28787 2.25 6.29262C2.25 6.29737 2.25 6.30214 2.25 6.30693C2.25 6.31172 2.25 6.31653 2.25 6.32135C2.25 6.32618 2.25 6.33102 2.25 6.33588C2.25 6.34075 2.25 6.34563 2.25 6.35053C2.25 6.35542 2.25 6.36034 2.25 6.36528C2.25 6.37021 2.25 6.37516 2.25 6.38013C2.25 6.3851 2.25 6.39009 2.25 6.3951C2.25 6.40011 2.25 6.40513 2.25 6.41017C2.25 6.41522 2.25 6.42028 2.25 6.42535C2.25 6.43043 2.25 6.43553 2.25 6.44064C2.25 6.44575 2.25 6.45088 2.25 6.45603C2.25 6.46118 2.25 6.46635 2.25 6.47153C2.25 6.47671 2.25 6.48191 2.25 6.48713C2.25 6.49235 2.25 6.49759 2.25 6.50284C2.25 6.50809 2.25 6.51336 2.25 6.51865C2.25 6.52394 2.25 6.52924 2.25 6.53456C2.25 6.53989 2.25 6.54523 2.25 6.55058C2.25 6.55594 2.25 6.56131 2.25 6.5667C2.25 6.57209 2.25 6.5775 2.25 6.58292C2.25 6.58835 2.25 6.59379 2.25 6.59925C2.25 6.6047 2.25 6.61018 2.25 6.61567C2.25 6.62116 2.25 6.62667 2.25 6.63219C2.25 6.63772 2.25 6.64326 2.25 6.64882C2.25 6.65438 2.25 6.65995 2.25 6.66554C2.25 6.67113 2.25 6.67674 2.25 6.68237C2.25 6.68799 2.25 6.69363 2.25 6.69929C2.25 6.70494 2.25 6.71062 2.25 6.71631C2.25 6.722 2.25 6.7277 2.25 6.73342C2.25 6.73915 2.25 6.74488 2.25 6.75064C2.25 6.75639 2.25 6.76216 2.25 6.76795C2.25 6.77373 2.25 6.77954 2.25 6.78536C2.25 6.79117 2.25 6.79701 2.25 6.80286C2.25 6.80871 2.25 6.81457 2.25 6.82045C2.25 6.82634 2.25 6.83223 2.25 6.83815C2.25 6.84406 2.25 6.84999 2.25 6.85593C2.25 6.86188 2.25 6.86784 2.25 6.87381C2.25 6.87979 2.25 6.88578 2.25 6.89179C2.25 6.89779 2.25 6.90381 2.25 6.90985C2.25 6.91589 2.25 6.92194 2.25 6.92801C2.25 6.93408 2.25 6.94016 2.25 6.94626C2.25 6.95236 2.25 6.95847 2.25 6.9646C2.25 6.97073 2.25 6.97687 2.25 6.98303C2.25 6.98919 2.25 6.99536 2.25 7.00155C2.25 7.00774 2.25 7.01395 2.25 7.02016C2.25 7.02638 2.25 7.03262 2.25 7.03887C2.25 7.04511 2.25 7.05138 2.25 7.05766C2.25 7.06393 2.25 7.07023 2.25 7.07653C2.25 7.08284 2.25 7.08916 2.25 7.0955C2.25 7.10184 2.25 7.10819 2.25 7.11455C2.25 7.12092 2.25 7.1273 2.25 7.13369C2.25 7.14009 2.25 7.14649 2.25 7.15292C2.25 7.15934 2.25 7.16578 2.25 7.17223C2.25 7.17868 2.25 7.18515 2.25 7.19163C2.25 7.19811 2.25 7.2046 2.25 7.21111C2.25 7.21762 2.25 7.22414 2.25 7.23068C2.25 7.23721 2.25 7.24376 2.25 7.25033C2.25 7.25689 2.25 7.26347 2.25 7.27006C2.25 7.27665 2.25 7.28326 2.25 7.28988C2.25 7.2965 2.25 7.30313 2.25 7.30978C2.25 7.31642 2.25 7.32308 2.25 7.32976C2.25 7.33643 2.25 7.34312 2.25 7.34982C2.25 7.35652 2.25 7.36324 2.25 7.36996C2.25 7.37669 2.25 7.38343 2.25 7.39019C2.25 7.39694 2.25 7.40371 2.25 7.41049C2.25 7.41727 2.25 7.42407 2.25 7.43087C2.25 7.43768 2.25 7.4445 2.25 7.45134C2.25 7.45817 2.25 7.46502 2.25 7.47188C2.25 7.47874 2.25 7.48561 2.25 7.4925C2.25 7.49938 2.25 7.50628 2.25 7.51319C2.25 7.52011 2.25 7.52703 2.25 7.53397C2.25 7.54091 2.25 7.54786 2.25 7.55482C2.25 7.56178 2.25 7.56876 2.25 7.57575C2.25 7.58273 2.25 7.58973 2.25 7.59675C2.25 7.60376 2.25 7.61079 2.25 7.61782C2.25 7.62486 2.25 7.63191 2.25 7.63898C2.25 7.64604 2.25 7.65312 2.25 7.6602C2.25 7.66729 2.25 7.67439 2.25 7.6815C2.25 7.68861 2.25 7.69574 2.25 7.70288C2.25 7.71001 2.25 7.71716 2.25 7.72432C2.25 7.73148 2.25 7.73865 2.25 7.74584C2.25 7.75302 2.25 7.76022 2.25 7.76743C2.25 7.77464 2.25 7.78186 2.25 7.78909C2.25 7.79632 2.25 7.80356 2.25 7.81082C2.25 7.81808 2.25 7.82534 2.25 7.83262C2.25 7.8399 2.25 7.84719 2.25 7.85449C2.25 7.8618 2.25 7.86911 2.25 7.87643C2.25 7.88376 2.25 7.8911 2.25 7.89844C2.25 7.90579 2.25 7.91315 2.25 7.92052C2.25 7.92789 2.25 7.93527 2.25 7.94267C2.25 7.95006 2.25 7.95746 2.25 7.96488C2.25 7.9723 2.25 7.97972 2.25 7.98716C2.25 7.9946 2.25 8.00205 2.25 8.00951C2.25 8.01697 2.25 8.02444 2.25 8.03192C2.25 8.0394 2.25 8.04689 2.25 8.05439C2.25 8.0619 2.25 8.06941 2.25 8.07694C2.25 8.08446 2.25 8.092 2.25 8.09954C2.25 8.10709 2.25 8.11465 2.25 8.12221C2.25 8.12978 2.25 8.13736 2.25 8.14495C2.25 8.15254 2.25 8.16014 2.25 8.16775C2.25 8.17535 2.25 8.18297 2.25 8.1906C2.25 8.19823 2.25 8.20588 2.25 8.21353C2.25 8.22118 2.25 8.22884 2.25 8.23651C2.25 8.24418 2.25 8.25186 2.25 8.25955C2.25 8.26724 2.25 8.27495 2.25 8.28266C2.25 8.29037 2.25 8.29809 2.25 8.30582C2.25 8.31355 2.25 8.32129 2.25 8.32904C2.25 8.3368 2.25 8.34456 2.25 8.35233C2.25 8.3601 2.25 8.36788 2.25 8.37567C2.25 8.38346 2.25 8.39126 2.25 8.39907C2.25 8.40688 2.25 8.4147 2.25 8.42253C2.25 8.43035 2.25 8.43819 2.25 8.44604C2.25 8.45389 2.25 8.46174 2.25 8.46961C2.25 8.47748 2.25 8.48535 2.25 8.49324C2.25 8.50112 2.25 8.50902 2.25 8.51692C2.25 8.52482 2.25 8.53273 2.25 8.54066C2.25 8.54858 2.25 8.55651 2.25 8.56445C2.25 8.57239 2.25 8.58034 2.25 8.5883C2.25 8.59625 2.25 8.60422 2.25 8.6122C2.25 8.62017 2.25 8.62816 2.25 8.63615C2.25 8.64414 2.25 8.65214 2.25 8.66015C2.25 8.66816 2.25 8.67618 2.25 8.68421C2.25 8.69224 2.25 8.70028 2.25 8.70832C2.25 8.71637 2.25 8.72442 2.25 8.73248C2.25 8.74055 2.25 8.74862 2.25 8.7567C2.25 8.76477 2.25 8.77286 2.25 8.78096C2.25 8.78905 2.25 8.79716 2.25 8.80527C2.25 8.81338 2.25 8.8215 2.25 8.82963C2.25 8.83776 2.25 8.8459 2.25 8.85404C2.25 8.86218 2.25 8.87034 2.25 8.8785C2.25 8.88666 2.25 8.89483 2.25 8.903C2.25 8.91118 2.25 8.91937 2.25 8.92756C2.25 8.93575 2.25 8.94395 2.25 8.95216C2.25 8.96037 2.25 8.96858 2.25 8.9768C2.25 8.98503 2.25 8.99326 2.25 9.0015C2.25 9.00974 2.25 9.01798 2.25 9.02623C2.25 9.03449 2.25 9.04275 2.25 9.05102C2.25 9.05929 2.25 9.06756 2.25 9.07584C2.25 9.08413 2.25 9.09242 2.25 9.10072C2.25 9.10901 2.25 9.11732 2.25 9.12563C2.25 9.13394 2.25 9.14226 2.25 9.15059C2.25 9.15891 2.25 9.16725 2.25 9.17559C2.25 9.18393 2.25 9.19228 2.25 9.20063C2.25 9.20898 2.25 9.21734 2.25 9.22571C2.25 9.23408 2.25 9.24246 2.25 9.25084C2.25 9.25922 2.25 9.26761 2.25 9.276C2.25 9.2844 2.25 9.2928 2.25 9.30121C2.25 9.30962 2.25 9.31803 2.25 9.32645C2.25 9.33487 2.25 9.3433 2.25 9.35173C2.25 9.36017 2.25 9.36861 2.25 9.37706C2.25 9.3855 2.25 9.39396 2.25 9.40242C2.25 9.41088 2.25 9.41934 2.25 9.42781C2.25 9.43629 2.25 9.44477 2.25 9.45325C2.25 9.46173 2.25 9.47022 2.25 9.47872C2.25 9.48722 2.25 9.49572 2.25 9.50423C2.25 9.51274 2.25 9.52125 2.25 9.52977C2.25 9.53829 2.25 9.54682 2.25 9.55535C2.25 9.56388 2.25 9.57242 2.25 9.58096C2.25 9.58951 2.25 9.59806 2.25 9.60661C2.25 9.61516 2.25 9.62372 2.25 9.63229C2.25 9.64086 2.25 9.64943 2.25 9.658C2.25 9.66658 2.25 9.67516 2.25 9.68375C2.25 9.69234 2.25 9.70093 2.25 9.70953C2.25 9.71813 2.25 9.72673 2.25 9.73534C2.25 9.74395 2.25 9.75256 2.25 9.76118C2.25 9.7698 2.25 9.77843 2.25 9.78706C2.25 9.79568 2.25 9.80432 2.25 9.81296C2.25 9.8216 2.25 9.83024 2.25 9.83889C2.25 9.84754 2.25 9.85619 2.25 9.86485C2.25 9.87351 2.25 9.88218 2.25 9.89084C2.25 9.89951 2.25 9.90819 2.25 9.91686C2.25 9.92554 2.25 9.93422 2.25 9.94291C2.25 9.9516 2.25 9.96029 2.25 9.96898C2.25 9.97768 2.25 9.98638 2.25 9.99509C2.25 10.0038 2.25 10.0125 2.25 10.0212C2.25 10.0299 2.25 10.0386 2.25 10.0474C2.25 10.0561 2.25 10.0648 2.25 10.0735C2.25 10.0823 2.25 10.091 2.25 10.0997C2.25 10.1085 2.25 10.1172 2.25 10.126C2.25 10.1347 2.25 10.1435 2.25 10.1522C2.25 10.161 2.25 10.1697 2.25 10.1785C2.25 10.1873 2.25 10.196 2.25 10.2048C2.25 10.2136 2.25 10.2223 2.25 10.2311C2.25 10.2399 2.25 10.2487 2.25 10.2575C2.25 10.2663 2.25 10.275 2.25 10.2838C2.25 10.2926 2.25 10.3014 2.25 10.3102C2.25 10.319 2.25 10.3278 2.25 10.3366C2.25 10.3454 2.25 10.3542 2.25 10.363C2.25 10.3719 2.25 10.3807 2.25 10.3895C2.25 10.3983 2.25 10.4071 2.25 10.416C2.25 10.4248 2.25 10.4336 2.25 10.4424C2.25 10.4513 2.25 10.4601 2.25 10.4689C2.25 10.4778 2.25 10.4866 2.25 10.4955C2.25 10.5043 2.25 10.5132 2.25 10.522C2.25 10.5308 2.25 10.5397 2.25 10.5486C2.25 10.5574 2.25 10.5663 2.25 10.5751C2.25 10.584 2.25 10.5928 2.25 10.6017C2.25 10.6106 2.25 10.6194 2.25 10.6283C2.25 10.6372 2.25 10.646 2.25 10.6549C2.25 10.6638 2.25 10.6727 2.25 10.6815C2.25 10.6904 2.25 10.6993 2.25 10.7082C2.25 10.7171 2.25 10.726 2.25 10.7348C2.25 10.7437 2.25 10.7526 2.25 10.7615C2.25 10.7704 2.25 10.7793 2.25 10.7882C2.25 10.7971 2.25 10.806 2.25 10.8149C2.25 10.8238 2.25 10.8327 2.25 10.8416C2.25 10.8505 2.25 10.8594 2.25 10.8683C2.25 10.8772 2.25 10.8861 2.25 10.895C2.25 10.9039 2.25 10.9128 2.25 10.9218C2.25 10.9307 2.25 10.9396 2.25 10.9485C2.25 10.9574 2.25 10.9663 2.25 10.9753C2.25 10.9842 2.25 10.9931 2.25 11.002C2.25 11.0109 2.25 11.0199 2.25 11.0288C2.25 11.0377 2.25 11.0466 2.25 11.0556C2.25 11.0645 2.25 11.0734 2.25 11.0823C2.25 11.0913 2.25 11.1002 2.25 11.1091C2.25 11.1181 2.25 11.127 2.25 11.1359C2.25 11.1449 2.25 11.1538 2.25 11.1627C2.25 11.1717 2.25 11.1806 2.25 11.1895C2.25 11.1985 2.25 11.2074 2.25 11.2163C2.25 11.2253 2.25 11.2342 2.25 11.2432C2.25 11.2521 2.25 11.261 2.25 11.27C2.25 11.2789 2.25 11.2879 2.25 11.2968C2.25 11.3057 2.25 11.3147 2.25 11.3236C2.25 11.3326 2.25 11.3415 2.25 11.3504C2.25 11.3594 2.25 11.3683 2.25 11.3773C2.25 11.3862 2.25 11.3952 2.25 11.4041C2.25 11.413 2.25 11.422 2.25 11.4309C2.25 11.4399 2.25 11.4488 2.25 11.4577C2.25 11.4667 2.25 11.4756 2.25 11.4846C2.25 11.4935 2.25 11.5025 2.25 11.5114C2.25 11.5203 2.25 11.5293 2.25 11.5382C2.25 11.5472 2.25 11.5561 2.25 11.565C2.25 11.574 2.25 11.5829 2.25 11.5919C2.25 11.6008 2.25 11.6097 2.25 11.6187C2.25 11.6276 2.25 11.6366 2.25 11.6455C2.25 11.6544 2.25 11.6634 2.25 11.6723C2.25 11.6812 2.25 11.6902 2.25 11.6991C2.25 11.7081 2.25 11.717 2.25 11.7259C2.25 11.7349 2.25 11.7438 2.25 11.7527C2.25 11.7616 2.25 11.7706 2.25 11.7795C2.25 11.7884 2.25 11.7974 2.25 11.8063C2.25 11.8152 2.25 11.8241 2.25 11.8331C2.25 11.842 2.25 11.8509 2.25 11.8598C2.25 11.8688 2.25 11.8777 2.25 11.8866C2.25 11.8955 2.25 11.9044 2.25 11.9134C2.25 11.9223 2.25 11.9312 2.25 11.9401C2.25 11.949 2.25 11.9579 2.25 11.9668C2.25 11.9757 2.25 11.9847 2.25 11.9936C2.25 12.0025 2.25 12.0114 2.25 12.0203C2.25 12.0292 2.25 12.0381 2.25 12.047C2.25 12.0559 2.25 12.0648 2.25 12.0737C2.25 12.0826 2.25 12.0915 2.25 12.1004C2.25 12.1092 2.25 12.1181 2.25 12.127C2.25 12.1359 2.25 12.1448 2.25 12.1537C2.25 12.1626 2.25 12.1715 2.25 12.1803C2.25 12.1892 2.25 12.1981 2.25 12.207C2.25 12.2158 2.25 12.2247 2.25 12.2336C2.25 12.2424 2.25 12.2513 2.25 12.2602C2.25 12.269 2.25 12.2779 2.25 12.2868C2.25 12.2956 2.25 12.3045 2.25 12.3133C2.25 12.3222 2.25 12.331 2.25 12.3399C2.25 12.3487 2.25 12.3576 2.25 12.3664C2.25 12.3753 2.25 12.3841 2.25 12.393C2.25 12.4018 2.25 12.4106 2.25 12.4195C2.25 12.4283 2.25 12.4371 2.25 12.4459C2.25 12.4548 2.25 12.4636 2.25 12.4724C2.25 12.4812 2.25 12.4901 2.25 12.4989C2.25 12.5077 2.25 12.5165 2.25 12.5253C2.25 12.5341 2.25 12.5429 2.25 12.5517C2.25 12.5605 2.25 12.5693 2.25 12.5781C2.25 12.5869 2.25 12.5957 2.25 12.6045C2.25 12.6132 2.25 12.622 2.25 12.6308C2.25 12.6396 2.25 12.6484 2.25 12.6571C2.25 12.6659 2.25 12.6747 2.25 12.6834C2.25 12.6922 2.25 12.701 2.25 12.7097C2.25 12.7185 2.25 12.7272 2.25 12.736C2.25 12.7447 2.25 12.7535 2.25 12.7622C2.25 12.7709 2.25 12.7797 2.25 12.7884C2.25 12.7971 2.25 12.8059 2.25 12.8146C2.25 12.8233 2.25 12.832 2.25 12.8408C2.25 12.8495 2.25 12.8582 2.25 12.8669C2.25 12.8756 2.25 12.8843 2.25 12.893C2.25 12.9017 2.25 12.9104 2.25 12.9191C2.25 12.9278 2.25 12.9364 2.25 12.9451C2.25 12.9538 2.25 12.9625 2.25 12.9711C2.25 12.9798 2.25 12.9885 2.25 12.9971C2.25 13.0058 2.25 13.0145 2.25 13.0231C2.25 13.0318 2.25 13.0404 2.25 13.0491C2.25 13.0577 2.25 13.0663 2.25 13.075C2.25 13.0836 2.25 13.0922 2.25 13.1008C2.25 13.1095 2.25 13.1181 2.25 13.1267C2.25 13.1353 2.25 13.1439 2.25 13.1525C2.25 13.1611 2.25 13.1697 2.25 13.1783C2.25 13.1869 2.25 13.1955 2.25 13.204C2.25 13.2126 2.25 13.2212 2.25 13.2298C2.25 13.2383 2.25 13.2469 2.25 13.2554C2.25 13.264 2.25 13.2726 2.25 13.2811C2.25 13.2896 2.25 13.2982 2.25 13.3067C2.25 13.3153 2.25 13.3238 2.25 13.3323C2.25 13.3408 2.25 13.3493 2.25 13.3579C2.25 13.3664 2.25 13.3749 2.25 13.3834C2.25 13.3919 2.25 13.4004 2.25 13.4088C2.25 13.4173 2.25 13.4258 2.25 13.4343C2.25 13.4428 2.25 13.4512 2.25 13.4597C2.25 13.4682 2.25 13.4766 2.25 13.4851C2.25 13.4935 2.25 13.502 2.25 13.5104C2.25 13.5188 2.25 13.5273 2.25 13.5357C2.25 13.5441 2.25 13.5525 2.25 13.5609C2.25 13.5693 2.25 13.5777 2.25 13.5861C2.25 13.5945 2.25 13.6029 2.25 13.6113C2.25 13.6197 2.25 13.6281 2.25 13.6364C2.25 13.6448 2.25 13.6532 2.25 13.6615C2.25 13.6699 2.25 13.6782 2.25 13.6866C2.25 13.6949 2.25 13.7033 2.25 13.7116C2.25 13.7199 2.25 13.7282 2.25 13.7366C2.25 13.7449 2.25 13.7532 2.25 13.7615C2.25 13.7698 2.25 13.7781 2.25 13.7864C2.25 13.7946 2.25 13.8029 2.25 13.8112C2.25 13.8195 2.25 13.8277 2.25 13.836C2.25 13.8442 2.25 13.8525 2.25 13.8607C2.25 13.869 2.25 13.8772 2.25 13.8854C2.25 13.8937 2.25 13.9019 2.25 13.9101C2.25 13.9183 2.25 13.9265 2.25 13.9347C2.25 13.9429 2.25 13.9511 2.25 13.9593C2.25 13.9674 2.25 13.9756 2.25 13.9838C2.25 13.9919 2.25 14.0001 2.25 14.0082C2.25 14.0164 2.25 14.0245 2.25 14.0327C2.25 14.0408 2.25 14.0489 2.25 14.057C2.25 14.0651 2.25 14.0733 2.25 14.0814C2.25 14.0895 2.25 14.0975 2.25 14.1056C2.25 14.1137 2.25 14.1218 2.25 14.1298C2.25 14.1379 2.25 14.146 2.25 14.154C2.25 14.1621 2.25 14.1701 2.25 14.1781C2.25 14.1862 2.25 14.1942 2.25 14.2022C2.25 14.2102 2.25 14.2182 2.25 14.2262C2.25 14.2342 2.25 14.2422 2.25 14.2502C2.25 14.2582 2.25 14.2661 2.25 14.2741C2.25 14.2821 2.25 14.29 2.25 14.2979C2.25 14.3059 2.25 14.3138 2.25 14.3217C2.25 14.3297 2.25 14.3376 2.25 14.3455C2.25 14.3534 2.25 14.3613 2.25 14.3692C2.25 14.3771 2.25 14.385 2.25 14.3928C2.25 14.4007 2.25 14.4086 2.25 14.4164C2.25 14.4243 2.25 14.4321 2.25 14.4399C2.25 14.4478 2.25 14.4556 2.25 14.4634C2.25 14.4712 2.25 14.479 2.25 14.4868C2.25 14.4946 2.25 14.5024 2.25 14.5102C2.25 14.5179 2.25 14.5257 2.25 14.5335C2.25 14.5412 2.25 14.549 2.25 14.5567C2.25 14.5644 2.25 14.5721 2.25 14.5799C2.25 14.5876 2.25 14.5953 2.25 14.603C2.25 14.6107 2.25 14.6184 2.25 14.626C2.25 14.6337 2.25 14.6414 2.25 14.649C2.25 14.6567 2.25 14.6643 2.25 14.672C2.25 14.6796 2.25 14.6872 2.25 14.6948C2.25 14.7024 2.25 14.71 2.25 14.7176C2.25 14.7252 2.25 14.7328 2.25 14.7404C2.25 14.748 2.25 14.7555 2.25 14.7631C2.25 14.7706 2.25 14.7782 2.25 14.7857C2.25 14.7932 2.25 14.8007 2.25 14.8082C2.25 14.8157 2.25 14.8232 2.25 14.8307C2.25 14.8382 2.25 14.8457 2.25 14.8532C2.25 14.8606 2.25 14.8681 2.25 14.8755C2.25 14.883 2.25 14.8904 2.25 14.8978C2.25 14.9052 2.25 14.9126 2.25 14.92C2.25 14.9274 2.25 14.9348 2.25 14.9422C2.25 14.9496 2.25 14.9569 2.25 14.9643C2.25 14.9716 2.25 14.979 2.25 14.9863C2.25 14.9936 2.25 15.0009 2.25 15.0083C2.25 15.0156 2.25 15.0229 2.25 15.0301C2.25 15.0374 2.25 15.0447 2.25 15.052C2.25 15.0592 2.25 15.0665 2.25 15.0737C2.25 15.0809 2.25 15.0882 2.25 15.0954C2.25 15.1026 2.25 15.1098 2.25 15.117C2.25 15.1242 2.25 15.1313 2.25 15.1385C2.25 15.1457 2.25 15.1528 2.25 15.16C2.25 15.1671 2.25 15.1742 2.25 15.1813C2.25 15.1885 2.25 15.1956 2.25 15.2027C2.25 15.2098 2.25 15.2168 2.25 15.2239C2.25 15.231 2.25 15.238 2.25 15.2451C2.25 15.2521 2.25 15.2591 2.25 15.2662C2.25 15.2732 2.25 15.2802 2.25 15.2872C2.25 15.2942 2.25 15.3011 2.25 15.3081C2.25 15.3151 2.25 15.322 2.25 15.329C2.25 15.3359 2.25 15.3429 2.25 15.3498C2.25 15.3567 2.25 15.3636 2.25 15.3705C2.25 15.3774 2.25 15.3842 2.25 15.3911C2.25 15.398 2.25 15.4048 2.25 15.4117C2.25 15.4185 2.25 15.4253 2.25 15.4321C2.25 15.439 2.25 15.4458 2.25 15.4525C2.25 15.4593 2.25 15.4661 2.25 15.4729C2.25 15.4796 2.25 15.4864 2.25 15.4931C2.25 15.4998 2.25 15.5066 2.25 15.5133C2.25 15.52 2.25 15.5267 2.25 15.5333C2.25 15.54 2.25 15.5467 2.25 15.5533C2.25 15.56 2.25 15.5666 2.25 15.5732C2.25 15.5799 2.25 15.5865 2.25 15.5931C2.25 15.5997 2.25 15.6063 2.25 15.6128C2.25 15.6194 2.25 15.626 2.25 15.6325C2.25 15.639 2.25 15.6456 2.25 15.6521C2.25 15.6586 2.25 15.6651 2.25 15.6716C2.25 15.6781 2.25 15.6845 2.25 15.691C2.25 15.6974 2.25 15.7039 2.25 15.7103C2.25 15.7167 2.25 15.7232 2.25 15.7296C2.25 15.736 2.25 15.7423 2.25 15.7487C2.25 15.7551 2.25 15.7614 2.25 15.7678C2.25 15.7741 2.25 15.7805 2.25 15.7868C2.25 15.7931 2.25 15.7994 2.25 15.8057C2.25 15.8119 2.25 15.8182 2.25 15.8245C2.25 15.8307 2.25 15.837 2.25 15.8432C2.25 15.8494 2.25 15.8556 2.25 15.8618C2.25 15.868 2.25 15.8742 2.25 15.8803C2.25 15.8865 2.25 15.8927 2.25 15.8988C2.25 15.9049 2.25 15.911 2.25 15.9172C2.25 15.9233 2.25 15.9293 2.25 15.9354C2.25 15.9415 2.25 15.9476 2.25 15.9536C2.25 15.9596 2.25 15.9657 2.25 15.9717C2.25 15.9777 2.25 15.9837 2.25 15.9897C2.25 15.9956 2.25 16.0016 2.25 16.0076C2.25 16.0135 2.25 16.0194 2.25 16.0254C2.25 16.0313 2.25 16.0372 2.25 16.0431C2.25 16.049 2.25 16.0548 2.25 16.0607C2.25 16.0665 2.25 16.0724 2.25 16.0782C2.25 16.084 2.25 16.0898 2.25 16.0956C2.25 16.1014 2.25 16.1072 2.25 16.113C2.25 16.1187 2.25 16.1245 2.25 16.1302C2.25 16.1359 2.25 16.1416 2.25 16.1473C2.25 16.153 2.25 16.1587 2.25 16.1644C2.25 16.17 2.25 16.1757 2.25 16.1813C2.25 16.1869 2.25 16.1926 2.25 16.1981C2.25 16.2037 2.25 16.2093 2.25 16.2149C2.25 16.2205 2.25 16.226 2.25 16.2315C2.25 16.2371 2.25 16.2426 2.25 16.2481C2.25 16.2536 2.25 16.2591 2.25 16.2645C2.25 16.27 2.25 16.2754 2.25 16.2809C2.25 16.2863 2.25 16.2917 2.25 16.2971C2.25 16.3025 2.25 16.3079 2.25 16.3132C2.25 16.3186 2.25 16.3239 2.25 16.3293C2.25 16.3346 2.25 16.3399 2.25 16.3452C2.25 16.3505 2.25 16.3558 2.25 16.361C2.25 16.3663 2.25 16.3715 2.25 16.3768C2.25 16.382 2.25 16.3872 2.25 16.3924C2.25 16.3976 2.25 16.4027 2.25 16.4079C2.25 16.4131 2.25 16.4182 2.25 16.4233C2.25 16.4284 2.25 16.4335 2.25 16.4386C2.25 16.4437 2.25 16.4488 2.25 16.4538C2.25 16.4589 2.25 16.4639 2.25 16.4689C2.25 16.4739 2.25 16.4789 2.25 16.4839C2.25 16.4889 2.25 16.4938 2.25 16.4988C2.25 16.5037 2.25 16.5086 2.25 16.5135C2.25 16.5185 2.25 16.5233 2.25 16.5282C2.25 16.5331 2.25 16.5379 2.25 16.5428C2.25 16.5476 2.25 16.5524 2.25 16.5572C2.25 16.562 2.25 16.5668 2.25 16.5715C2.25 16.5763 2.25 16.581 2.25 16.5858C2.25 16.5905 2.25 16.5952 2.25 16.5999C2.25 16.6046 2.25 16.6092 2.25 16.6139C2.25 16.6185 2.25 16.6231 2.25 16.6278C2.25 16.6324 2.25 16.637 2.25 16.6415C2.25 16.6461 2.25 16.6507 2.25 16.6552C2.25 16.6597 2.25 16.6642 2.25 16.6687C2.25 16.6732 2.25 16.6777 2.25 16.6822C2.25 16.6866 2.25 16.6911 2.25 16.6955C2.25 16.6999 2.25 16.7043 2.25 16.7087C2.25 16.7131 2.25 16.7174 2.25 16.7218C2.25 16.7261 2.25 16.7305 2.25 16.7348C2.25 16.7391 2.25 16.7433 2.25 16.7476C2.25 16.7519 2.25 16.7561 2.25 16.7604C2.25 16.7646 2.25 16.7688 2.25 16.773C2.25 16.7772 2.25 16.7813 2.25 16.7855C2.25 16.7896 2.25 16.7938 2.25 16.7979C2.25 16.802 2.25 16.8061 2.25 16.8101C2.25 16.8142 2.25 16.8183 2.25 16.8223C2.25 16.8263 2.25 16.8303 2.25 16.8343C2.25 16.8383 2.25 16.8423 2.25 16.8462C2.25 16.8502 2.25 16.8541 2.25 16.858C2.25 16.8619 2.25 16.8658 2.25 16.8697C2.25 16.8735 2.25 16.8774 2.25 16.8812C2.25 16.885 2.25 16.8888 2.25 16.8926C2.25 16.8964 2.25 16.9002 2.25 16.9039C2.25 16.9077 2.25 16.9114 2.25 16.9151C2.25 16.9188 2.25 16.9225 2.25 16.9262C2.25 16.9298 2.25 16.9335 2.25 16.9371C2.25 16.9407 2.25 16.9443 2.25 16.9479C2.25 16.9515 2.25 16.955 2.25 16.9586C2.25 16.9621 2.25 16.9656 2.25 16.9691C2.25 16.9726 2.25 16.9761 2.25 16.9795C2.25 16.983 2.25 16.9864 2.25 16.9898C2.25 16.9932 2.25 16.9966 2.25 17H3.75C3.75 16.9966 3.75 16.9932 3.75 16.9898C3.75 16.9864 3.75 16.983 3.75 16.9795C3.75 16.9761 3.75 16.9726 3.75 16.9691C3.75 16.9656 3.75 16.9621 3.75 16.9586C3.75 16.955 3.75 16.9515 3.75 16.9479C3.75 16.9443 3.75 16.9407 3.75 16.9371C3.75 16.9335 3.75 16.9298 3.75 16.9262C3.75 16.9225 3.75 16.9188 3.75 16.9151C3.75 16.9114 3.75 16.9077 3.75 16.9039C3.75 16.9002 3.75 16.8964 3.75 16.8926C3.75 16.8888 3.75 16.885 3.75 16.8812C3.75 16.8774 3.75 16.8735 3.75 16.8697C3.75 16.8658 3.75 16.8619 3.75 16.858C3.75 16.8541 3.75 16.8502 3.75 16.8462C3.75 16.8423 3.75 16.8383 3.75 16.8343C3.75 16.8303 3.75 16.8263 3.75 16.8223C3.75 16.8183 3.75 16.8142 3.75 16.8101C3.75 16.8061 3.75 16.802 3.75 16.7979C3.75 16.7938 3.75 16.7896 3.75 16.7855C3.75 16.7813 3.75 16.7772 3.75 16.773C3.75 16.7688 3.75 16.7646 3.75 16.7604C3.75 16.7561 3.75 16.7519 3.75 16.7476C3.75 16.7433 3.75 16.7391 3.75 16.7348C3.75 16.7305 3.75 16.7261 3.75 16.7218C3.75 16.7174 3.75 16.7131 3.75 16.7087C3.75 16.7043 3.75 16.6999 3.75 16.6955C3.75 16.6911 3.75 16.6866 3.75 16.6822C3.75 16.6777 3.75 16.6732 3.75 16.6687C3.75 16.6642 3.75 16.6597 3.75 16.6552C3.75 16.6507 3.75 16.6461 3.75 16.6415C3.75 16.637 3.75 16.6324 3.75 16.6278C3.75 16.6231 3.75 16.6185 3.75 16.6139C3.75 16.6092 3.75 16.6046 3.75 16.5999C3.75 16.5952 3.75 16.5905 3.75 16.5858C3.75 16.581 3.75 16.5763 3.75 16.5715C3.75 16.5668 3.75 16.562 3.75 16.5572C3.75 16.5524 3.75 16.5476 3.75 16.5428C3.75 16.5379 3.75 16.5331 3.75 16.5282C3.75 16.5233 3.75 16.5185 3.75 16.5135C3.75 16.5086 3.75 16.5037 3.75 16.4988C3.75 16.4938 3.75 16.4889 3.75 16.4839C3.75 16.4789 3.75 16.4739 3.75 16.4689C3.75 16.4639 3.75 16.4589 3.75 16.4538C3.75 16.4488 3.75 16.4437 3.75 16.4386C3.75 16.4335 3.75 16.4284 3.75 16.4233C3.75 16.4182 3.75 16.4131 3.75 16.4079C3.75 16.4027 3.75 16.3976 3.75 16.3924C3.75 16.3872 3.75 16.382 3.75 16.3768C3.75 16.3715 3.75 16.3663 3.75 16.361C3.75 16.3558 3.75 16.3505 3.75 16.3452C3.75 16.3399 3.75 16.3346 3.75 16.3293C3.75 16.3239 3.75 16.3186 3.75 16.3132C3.75 16.3079 3.75 16.3025 3.75 16.2971C3.75 16.2917 3.75 16.2863 3.75 16.2809C3.75 16.2754 3.75 16.27 3.75 16.2645C3.75 16.2591 3.75 16.2536 3.75 16.2481C3.75 16.2426 3.75 16.2371 3.75 16.2315C3.75 16.226 3.75 16.2205 3.75 16.2149C3.75 16.2093 3.75 16.2037 3.75 16.1981C3.75 16.1926 3.75 16.1869 3.75 16.1813C3.75 16.1757 3.75 16.17 3.75 16.1644C3.75 16.1587 3.75 16.153 3.75 16.1473C3.75 16.1416 3.75 16.1359 3.75 16.1302C3.75 16.1245 3.75 16.1187 3.75 16.113C3.75 16.1072 3.75 16.1014 3.75 16.0956C3.75 16.0898 3.75 16.084 3.75 16.0782C3.75 16.0724 3.75 16.0665 3.75 16.0607C3.75 16.0548 3.75 16.049 3.75 16.0431C3.75 16.0372 3.75 16.0313 3.75 16.0254C3.75 16.0194 3.75 16.0135 3.75 16.0076C3.75 16.0016 3.75 15.9956 3.75 15.9897C3.75 15.9837 3.75 15.9777 3.75 15.9717C3.75 15.9657 3.75 15.9596 3.75 15.9536C3.75 15.9476 3.75 15.9415 3.75 15.9354C3.75 15.9293 3.75 15.9233 3.75 15.9172C3.75 15.911 3.75 15.9049 3.75 15.8988C3.75 15.8927 3.75 15.8865 3.75 15.8803C3.75 15.8742 3.75 15.868 3.75 15.8618C3.75 15.8556 3.75 15.8494 3.75 15.8432C3.75 15.837 3.75 15.8307 3.75 15.8245C3.75 15.8182 3.75 15.8119 3.75 15.8057C3.75 15.7994 3.75 15.7931 3.75 15.7868C3.75 15.7805 3.75 15.7741 3.75 15.7678C3.75 15.7614 3.75 15.7551 3.75 15.7487C3.75 15.7423 3.75 15.736 3.75 15.7296C3.75 15.7232 3.75 15.7167 3.75 15.7103C3.75 15.7039 3.75 15.6974 3.75 15.691C3.75 15.6845 3.75 15.6781 3.75 15.6716C3.75 15.6651 3.75 15.6586 3.75 15.6521C3.75 15.6456 3.75 15.639 3.75 15.6325C3.75 15.626 3.75 15.6194 3.75 15.6128C3.75 15.6063 3.75 15.5997 3.75 15.5931C3.75 15.5865 3.75 15.5799 3.75 15.5732C3.75 15.5666 3.75 15.56 3.75 15.5533C3.75 15.5467 3.75 15.54 3.75 15.5333C3.75 15.5267 3.75 15.52 3.75 15.5133C3.75 15.5066 3.75 15.4998 3.75 15.4931C3.75 15.4864 3.75 15.4796 3.75 15.4729C3.75 15.4661 3.75 15.4593 3.75 15.4525C3.75 15.4458 3.75 15.439 3.75 15.4321C3.75 15.4253 3.75 15.4185 3.75 15.4117C3.75 15.4048 3.75 15.398 3.75 15.3911C3.75 15.3842 3.75 15.3774 3.75 15.3705C3.75 15.3636 3.75 15.3567 3.75 15.3498C3.75 15.3429 3.75 15.3359 3.75 15.329C3.75 15.322 3.75 15.3151 3.75 15.3081C3.75 15.3011 3.75 15.2942 3.75 15.2872C3.75 15.2802 3.75 15.2732 3.75 15.2662C3.75 15.2591 3.75 15.2521 3.75 15.2451C3.75 15.238 3.75 15.231 3.75 15.2239C3.75 15.2168 3.75 15.2098 3.75 15.2027C3.75 15.1956 3.75 15.1885 3.75 15.1813C3.75 15.1742 3.75 15.1671 3.75 15.16C3.75 15.1528 3.75 15.1457 3.75 15.1385C3.75 15.1313 3.75 15.1242 3.75 15.117C3.75 15.1098 3.75 15.1026 3.75 15.0954C3.75 15.0882 3.75 15.0809 3.75 15.0737C3.75 15.0665 3.75 15.0592 3.75 15.052C3.75 15.0447 3.75 15.0374 3.75 15.0301C3.75 15.0229 3.75 15.0156 3.75 15.0083C3.75 15.0009 3.75 14.9936 3.75 14.9863C3.75 14.979 3.75 14.9716 3.75 14.9643C3.75 14.9569 3.75 14.9496 3.75 14.9422C3.75 14.9348 3.75 14.9274 3.75 14.92C3.75 14.9126 3.75 14.9052 3.75 14.8978C3.75 14.8904 3.75 14.883 3.75 14.8755C3.75 14.8681 3.75 14.8606 3.75 14.8532C3.75 14.8457 3.75 14.8382 3.75 14.8307C3.75 14.8232 3.75 14.8157 3.75 14.8082C3.75 14.8007 3.75 14.7932 3.75 14.7857C3.75 14.7782 3.75 14.7706 3.75 14.7631C3.75 14.7555 3.75 14.748 3.75 14.7404C3.75 14.7328 3.75 14.7252 3.75 14.7176C3.75 14.71 3.75 14.7024 3.75 14.6948C3.75 14.6872 3.75 14.6796 3.75 14.672C3.75 14.6643 3.75 14.6567 3.75 14.649C3.75 14.6414 3.75 14.6337 3.75 14.626C3.75 14.6184 3.75 14.6107 3.75 14.603C3.75 14.5953 3.75 14.5876 3.75 14.5799C3.75 14.5721 3.75 14.5644 3.75 14.5567C3.75 14.549 3.75 14.5412 3.75 14.5335C3.75 14.5257 3.75 14.5179 3.75 14.5102C3.75 14.5024 3.75 14.4946 3.75 14.4868C3.75 14.479 3.75 14.4712 3.75 14.4634C3.75 14.4556 3.75 14.4478 3.75 14.4399C3.75 14.4321 3.75 14.4243 3.75 14.4164C3.75 14.4086 3.75 14.4007 3.75 14.3928C3.75 14.385 3.75 14.3771 3.75 14.3692C3.75 14.3613 3.75 14.3534 3.75 14.3455C3.75 14.3376 3.75 14.3297 3.75 14.3217C3.75 14.3138 3.75 14.3059 3.75 14.2979C3.75 14.29 3.75 14.2821 3.75 14.2741C3.75 14.2661 3.75 14.2582 3.75 14.2502C3.75 14.2422 3.75 14.2342 3.75 14.2262C3.75 14.2182 3.75 14.2102 3.75 14.2022C3.75 14.1942 3.75 14.1862 3.75 14.1781C3.75 14.1701 3.75 14.1621 3.75 14.154C3.75 14.146 3.75 14.1379 3.75 14.1298C3.75 14.1218 3.75 14.1137 3.75 14.1056C3.75 14.0975 3.75 14.0895 3.75 14.0814C3.75 14.0733 3.75 14.0651 3.75 14.057C3.75 14.0489 3.75 14.0408 3.75 14.0327C3.75 14.0245 3.75 14.0164 3.75 14.0082C3.75 14.0001 3.75 13.9919 3.75 13.9838C3.75 13.9756 3.75 13.9674 3.75 13.9593C3.75 13.9511 3.75 13.9429 3.75 13.9347C3.75 13.9265 3.75 13.9183 3.75 13.9101C3.75 13.9019 3.75 13.8937 3.75 13.8854C3.75 13.8772 3.75 13.869 3.75 13.8607C3.75 13.8525 3.75 13.8442 3.75 13.836C3.75 13.8277 3.75 13.8195 3.75 13.8112C3.75 13.8029 3.75 13.7946 3.75 13.7864C3.75 13.7781 3.75 13.7698 3.75 13.7615C3.75 13.7532 3.75 13.7449 3.75 13.7366C3.75 13.7282 3.75 13.7199 3.75 13.7116C3.75 13.7033 3.75 13.6949 3.75 13.6866C3.75 13.6782 3.75 13.6699 3.75 13.6615C3.75 13.6532 3.75 13.6448 3.75 13.6364C3.75 13.6281 3.75 13.6197 3.75 13.6113C3.75 13.6029 3.75 13.5945 3.75 13.5861C3.75 13.5777 3.75 13.5693 3.75 13.5609C3.75 13.5525 3.75 13.5441 3.75 13.5357C3.75 13.5273 3.75 13.5188 3.75 13.5104C3.75 13.502 3.75 13.4935 3.75 13.4851C3.75 13.4766 3.75 13.4682 3.75 13.4597C3.75 13.4512 3.75 13.4428 3.75 13.4343C3.75 13.4258 3.75 13.4173 3.75 13.4088C3.75 13.4004 3.75 13.3919 3.75 13.3834C3.75 13.3749 3.75 13.3664 3.75 13.3579C3.75 13.3493 3.75 13.3408 3.75 13.3323C3.75 13.3238 3.75 13.3153 3.75 13.3067C3.75 13.2982 3.75 13.2896 3.75 13.2811C3.75 13.2726 3.75 13.264 3.75 13.2554C3.75 13.2469 3.75 13.2383 3.75 13.2298C3.75 13.2212 3.75 13.2126 3.75 13.204C3.75 13.1955 3.75 13.1869 3.75 13.1783C3.75 13.1697 3.75 13.1611 3.75 13.1525C3.75 13.1439 3.75 13.1353 3.75 13.1267C3.75 13.1181 3.75 13.1095 3.75 13.1008C3.75 13.0922 3.75 13.0836 3.75 13.075C3.75 13.0663 3.75 13.0577 3.75 13.0491C3.75 13.0404 3.75 13.0318 3.75 13.0231C3.75 13.0145 3.75 13.0058 3.75 12.9971C3.75 12.9885 3.75 12.9798 3.75 12.9711C3.75 12.9625 3.75 12.9538 3.75 12.9451C3.75 12.9364 3.75 12.9278 3.75 12.9191C3.75 12.9104 3.75 12.9017 3.75 12.893C3.75 12.8843 3.75 12.8756 3.75 12.8669C3.75 12.8582 3.75 12.8495 3.75 12.8408C3.75 12.832 3.75 12.8233 3.75 12.8146C3.75 12.8059 3.75 12.7971 3.75 12.7884C3.75 12.7797 3.75 12.7709 3.75 12.7622C3.75 12.7535 3.75 12.7447 3.75 12.736C3.75 12.7272 3.75 12.7185 3.75 12.7097C3.75 12.701 3.75 12.6922 3.75 12.6834C3.75 12.6747 3.75 12.6659 3.75 12.6571C3.75 12.6484 3.75 12.6396 3.75 12.6308C3.75 12.622 3.75 12.6132 3.75 12.6045C3.75 12.5957 3.75 12.5869 3.75 12.5781C3.75 12.5693 3.75 12.5605 3.75 12.5517C3.75 12.5429 3.75 12.5341 3.75 12.5253C3.75 12.5165 3.75 12.5077 3.75 12.4989C3.75 12.4901 3.75 12.4812 3.75 12.4724C3.75 12.4636 3.75 12.4548 3.75 12.4459C3.75 12.4371 3.75 12.4283 3.75 12.4195C3.75 12.4106 3.75 12.4018 3.75 12.393C3.75 12.3841 3.75 12.3753 3.75 12.3664C3.75 12.3576 3.75 12.3487 3.75 12.3399C3.75 12.331 3.75 12.3222 3.75 12.3133C3.75 12.3045 3.75 12.2956 3.75 12.2868C3.75 12.2779 3.75 12.269 3.75 12.2602C3.75 12.2513 3.75 12.2424 3.75 12.2336C3.75 12.2247 3.75 12.2158 3.75 12.207C3.75 12.1981 3.75 12.1892 3.75 12.1803C3.75 12.1715 3.75 12.1626 3.75 12.1537C3.75 12.1448 3.75 12.1359 3.75 12.127C3.75 12.1181 3.75 12.1092 3.75 12.1004C3.75 12.0915 3.75 12.0826 3.75 12.0737C3.75 12.0648 3.75 12.0559 3.75 12.047C3.75 12.0381 3.75 12.0292 3.75 12.0203C3.75 12.0114 3.75 12.0025 3.75 11.9936C3.75 11.9847 3.75 11.9757 3.75 11.9668C3.75 11.9579 3.75 11.949 3.75 11.9401C3.75 11.9312 3.75 11.9223 3.75 11.9134C3.75 11.9044 3.75 11.8955 3.75 11.8866C3.75 11.8777 3.75 11.8688 3.75 11.8598C3.75 11.8509 3.75 11.842 3.75 11.8331C3.75 11.8241 3.75 11.8152 3.75 11.8063C3.75 11.7974 3.75 11.7884 3.75 11.7795C3.75 11.7706 3.75 11.7616 3.75 11.7527C3.75 11.7438 3.75 11.7349 3.75 11.7259C3.75 11.717 3.75 11.7081 3.75 11.6991C3.75 11.6902 3.75 11.6812 3.75 11.6723C3.75 11.6634 3.75 11.6544 3.75 11.6455C3.75 11.6366 3.75 11.6276 3.75 11.6187C3.75 11.6097 3.75 11.6008 3.75 11.5919C3.75 11.5829 3.75 11.574 3.75 11.565C3.75 11.5561 3.75 11.5472 3.75 11.5382C3.75 11.5293 3.75 11.5203 3.75 11.5114C3.75 11.5025 3.75 11.4935 3.75 11.4846C3.75 11.4756 3.75 11.4667 3.75 11.4577C3.75 11.4488 3.75 11.4399 3.75 11.4309C3.75 11.422 3.75 11.413 3.75 11.4041C3.75 11.3952 3.75 11.3862 3.75 11.3773C3.75 11.3683 3.75 11.3594 3.75 11.3504C3.75 11.3415 3.75 11.3326 3.75 11.3236C3.75 11.3147 3.75 11.3057 3.75 11.2968C3.75 11.2879 3.75 11.2789 3.75 11.27C3.75 11.261 3.75 11.2521 3.75 11.2432C3.75 11.2342 3.75 11.2253 3.75 11.2163C3.75 11.2074 3.75 11.1985 3.75 11.1895C3.75 11.1806 3.75 11.1717 3.75 11.1627C3.75 11.1538 3.75 11.1449 3.75 11.1359C3.75 11.127 3.75 11.1181 3.75 11.1091C3.75 11.1002 3.75 11.0913 3.75 11.0823C3.75 11.0734 3.75 11.0645 3.75 11.0556C3.75 11.0466 3.75 11.0377 3.75 11.0288C3.75 11.0199 3.75 11.0109 3.75 11.002C3.75 10.9931 3.75 10.9842 3.75 10.9753C3.75 10.9663 3.75 10.9574 3.75 10.9485C3.75 10.9396 3.75 10.9307 3.75 10.9218C3.75 10.9128 3.75 10.9039 3.75 10.895C3.75 10.8861 3.75 10.8772 3.75 10.8683C3.75 10.8594 3.75 10.8505 3.75 10.8416C3.75 10.8327 3.75 10.8238 3.75 10.8149C3.75 10.806 3.75 10.7971 3.75 10.7882C3.75 10.7793 3.75 10.7704 3.75 10.7615C3.75 10.7526 3.75 10.7437 3.75 10.7348C3.75 10.726 3.75 10.7171 3.75 10.7082C3.75 10.6993 3.75 10.6904 3.75 10.6815C3.75 10.6727 3.75 10.6638 3.75 10.6549C3.75 10.646 3.75 10.6372 3.75 10.6283C3.75 10.6194 3.75 10.6106 3.75 10.6017C3.75 10.5928 3.75 10.584 3.75 10.5751C3.75 10.5663 3.75 10.5574 3.75 10.5486C3.75 10.5397 3.75 10.5308 3.75 10.522C3.75 10.5132 3.75 10.5043 3.75 10.4955C3.75 10.4866 3.75 10.4778 3.75 10.4689C3.75 10.4601 3.75 10.4513 3.75 10.4424C3.75 10.4336 3.75 10.4248 3.75 10.416C3.75 10.4071 3.75 10.3983 3.75 10.3895C3.75 10.3807 3.75 10.3719 3.75 10.363C3.75 10.3542 3.75 10.3454 3.75 10.3366C3.75 10.3278 3.75 10.319 3.75 10.3102C3.75 10.3014 3.75 10.2926 3.75 10.2838C3.75 10.275 3.75 10.2663 3.75 10.2575C3.75 10.2487 3.75 10.2399 3.75 10.2311C3.75 10.2223 3.75 10.2136 3.75 10.2048C3.75 10.196 3.75 10.1873 3.75 10.1785C3.75 10.1697 3.75 10.161 3.75 10.1522C3.75 10.1435 3.75 10.1347 3.75 10.126C3.75 10.1172 3.75 10.1085 3.75 10.0997C3.75 10.091 3.75 10.0823 3.75 10.0735C3.75 10.0648 3.75 10.0561 3.75 10.0474C3.75 10.0386 3.75 10.0299 3.75 10.0212C3.75 10.0125 3.75 10.0038 3.75 9.99509C3.75 9.98638 3.75 9.97768 3.75 9.96898C3.75 9.96029 3.75 9.9516 3.75 9.94291C3.75 9.93422 3.75 9.92554 3.75 9.91686C3.75 9.90819 3.75 9.89951 3.75 9.89084C3.75 9.88218 3.75 9.87351 3.75 9.86485C3.75 9.85619 3.75 9.84754 3.75 9.83889C3.75 9.83024 3.75 9.8216 3.75 9.81296C3.75 9.80432 3.75 9.79568 3.75 9.78706C3.75 9.77843 3.75 9.7698 3.75 9.76118C3.75 9.75256 3.75 9.74395 3.75 9.73534C3.75 9.72673 3.75 9.71813 3.75 9.70953C3.75 9.70093 3.75 9.69234 3.75 9.68375C3.75 9.67516 3.75 9.66658 3.75 9.658C3.75 9.64943 3.75 9.64086 3.75 9.63229C3.75 9.62372 3.75 9.61516 3.75 9.60661C3.75 9.59806 3.75 9.58951 3.75 9.58096C3.75 9.57242 3.75 9.56388 3.75 9.55535C3.75 9.54682 3.75 9.53829 3.75 9.52977C3.75 9.52125 3.75 9.51274 3.75 9.50423C3.75 9.49572 3.75 9.48722 3.75 9.47872C3.75 9.47022 3.75 9.46173 3.75 9.45325C3.75 9.44477 3.75 9.43629 3.75 9.42781C3.75 9.41934 3.75 9.41088 3.75 9.40242C3.75 9.39396 3.75 9.3855 3.75 9.37706C3.75 9.36861 3.75 9.36017 3.75 9.35173C3.75 9.3433 3.75 9.33487 3.75 9.32645C3.75 9.31803 3.75 9.30962 3.75 9.30121C3.75 9.2928 3.75 9.2844 3.75 9.276C3.75 9.26761 3.75 9.25922 3.75 9.25084C3.75 9.24246 3.75 9.23408 3.75 9.22571C3.75 9.21734 3.75 9.20898 3.75 9.20063C3.75 9.19228 3.75 9.18393 3.75 9.17559C3.75 9.16725 3.75 9.15891 3.75 9.15059C3.75 9.14226 3.75 9.13394 3.75 9.12563C3.75 9.11732 3.75 9.10901 3.75 9.10072C3.75 9.09242 3.75 9.08413 3.75 9.07584C3.75 9.06756 3.75 9.05929 3.75 9.05102C3.75 9.04275 3.75 9.03449 3.75 9.02623C3.75 9.01798 3.75 9.00974 3.75 9.0015C3.75 8.99326 3.75 8.98503 3.75 8.9768C3.75 8.96858 3.75 8.96037 3.75 8.95216C3.75 8.94395 3.75 8.93575 3.75 8.92756C3.75 8.91937 3.75 8.91118 3.75 8.903C3.75 8.89483 3.75 8.88666 3.75 8.8785C3.75 8.87034 3.75 8.86218 3.75 8.85404C3.75 8.8459 3.75 8.83776 3.75 8.82963C3.75 8.8215 3.75 8.81338 3.75 8.80527C3.75 8.79716 3.75 8.78905 3.75 8.78096C3.75 8.77286 3.75 8.76477 3.75 8.7567C3.75 8.74862 3.75 8.74055 3.75 8.73248C3.75 8.72442 3.75 8.71637 3.75 8.70832C3.75 8.70028 3.75 8.69224 3.75 8.68421C3.75 8.67618 3.75 8.66816 3.75 8.66015C3.75 8.65214 3.75 8.64414 3.75 8.63615C3.75 8.62816 3.75 8.62017 3.75 8.6122C3.75 8.60422 3.75 8.59625 3.75 8.5883C3.75 8.58034 3.75 8.57239 3.75 8.56445C3.75 8.55651 3.75 8.54858 3.75 8.54066C3.75 8.53273 3.75 8.52482 3.75 8.51692C3.75 8.50902 3.75 8.50112 3.75 8.49324C3.75 8.48535 3.75 8.47748 3.75 8.46961C3.75 8.46174 3.75 8.45389 3.75 8.44604C3.75 8.43819 3.75 8.43035 3.75 8.42253C3.75 8.4147 3.75 8.40688 3.75 8.39907C3.75 8.39126 3.75 8.38346 3.75 8.37567C3.75 8.36788 3.75 8.3601 3.75 8.35233C3.75 8.34456 3.75 8.3368 3.75 8.32904C3.75 8.32129 3.75 8.31355 3.75 8.30582C3.75 8.29809 3.75 8.29037 3.75 8.28266C3.75 8.27495 3.75 8.26724 3.75 8.25955C3.75 8.25186 3.75 8.24418 3.75 8.23651C3.75 8.22884 3.75 8.22118 3.75 8.21353C3.75 8.20588 3.75 8.19823 3.75 8.1906C3.75 8.18297 3.75 8.17535 3.75 8.16775C3.75 8.16014 3.75 8.15254 3.75 8.14495C3.75 8.13736 3.75 8.12978 3.75 8.12221C3.75 8.11465 3.75 8.10709 3.75 8.09954C3.75 8.092 3.75 8.08446 3.75 8.07694C3.75 8.06941 3.75 8.0619 3.75 8.05439C3.75 8.04689 3.75 8.0394 3.75 8.03192C3.75 8.02444 3.75 8.01697 3.75 8.00951C3.75 8.00205 3.75 7.9946 3.75 7.98716C3.75 7.97972 3.75 7.9723 3.75 7.96488C3.75 7.95746 3.75 7.95006 3.75 7.94267C3.75 7.93527 3.75 7.92789 3.75 7.92052C3.75 7.91315 3.75 7.90579 3.75 7.89844C3.75 7.8911 3.75 7.88376 3.75 7.87643C3.75 7.86911 3.75 7.8618 3.75 7.85449C3.75 7.84719 3.75 7.8399 3.75 7.83262C3.75 7.82534 3.75 7.81808 3.75 7.81082C3.75 7.80356 3.75 7.79632 3.75 7.78909C3.75 7.78186 3.75 7.77464 3.75 7.76743C3.75 7.76022 3.75 7.75302 3.75 7.74584C3.75 7.73865 3.75 7.73148 3.75 7.72432C3.75 7.71716 3.75 7.71001 3.75 7.70288C3.75 7.69574 3.75 7.68861 3.75 7.6815C3.75 7.67439 3.75 7.66729 3.75 7.6602C3.75 7.65312 3.75 7.64604 3.75 7.63898C3.75 7.63191 3.75 7.62486 3.75 7.61782C3.75 7.61079 3.75 7.60376 3.75 7.59675C3.75 7.58973 3.75 7.58273 3.75 7.57575C3.75 7.56876 3.75 7.56178 3.75 7.55482C3.75 7.54786 3.75 7.54091 3.75 7.53397C3.75 7.52703 3.75 7.52011 3.75 7.51319C3.75 7.50628 3.75 7.49938 3.75 7.4925C3.75 7.48561 3.75 7.47874 3.75 7.47188C3.75 7.46502 3.75 7.45817 3.75 7.45134C3.75 7.4445 3.75 7.43768 3.75 7.43087C3.75 7.42407 3.75 7.41727 3.75 7.41049C3.75 7.40371 3.75 7.39694 3.75 7.39019C3.75 7.38343 3.75 7.37669 3.75 7.36996C3.75 7.36324 3.75 7.35652 3.75 7.34982C3.75 7.34312 3.75 7.33643 3.75 7.32976C3.75 7.32308 3.75 7.31642 3.75 7.30978C3.75 7.30313 3.75 7.2965 3.75 7.28988C3.75 7.28326 3.75 7.27665 3.75 7.27006C3.75 7.26347 3.75 7.25689 3.75 7.25033C3.75 7.24376 3.75 7.23721 3.75 7.23068C3.75 7.22414 3.75 7.21762 3.75 7.21111C3.75 7.2046 3.75 7.19811 3.75 7.19163C3.75 7.18515 3.75 7.17868 3.75 7.17223C3.75 7.16578 3.75 7.15934 3.75 7.15292C3.75 7.14649 3.75 7.14009 3.75 7.13369C3.75 7.1273 3.75 7.12092 3.75 7.11455C3.75 7.10819 3.75 7.10184 3.75 7.0955C3.75 7.08916 3.75 7.08284 3.75 7.07653C3.75 7.07023 3.75 7.06393 3.75 7.05766C3.75 7.05138 3.75 7.04511 3.75 7.03887C3.75 7.03262 3.75 7.02638 3.75 7.02016C3.75 7.01395 3.75 7.00774 3.75 7.00155C3.75 6.99536 3.75 6.98919 3.75 6.98303C3.75 6.97687 3.75 6.97073 3.75 6.9646C3.75 6.95847 3.75 6.95236 3.75 6.94626C3.75 6.94016 3.75 6.93408 3.75 6.92801C3.75 6.92194 3.75 6.91589 3.75 6.90985C3.75 6.90381 3.75 6.89779 3.75 6.89179C3.75 6.88578 3.75 6.87979 3.75 6.87381C3.75 6.86784 3.75 6.86188 3.75 6.85593C3.75 6.84999 3.75 6.84406 3.75 6.83815C3.75 6.83223 3.75 6.82634 3.75 6.82045C3.75 6.81457 3.75 6.80871 3.75 6.80286C3.75 6.79701 3.75 6.79117 3.75 6.78536C3.75 6.77954 3.75 6.77373 3.75 6.76795C3.75 6.76216 3.75 6.75639 3.75 6.75064C3.75 6.74488 3.75 6.73915 3.75 6.73342C3.75 6.7277 3.75 6.722 3.75 6.71631C3.75 6.71062 3.75 6.70494 3.75 6.69929C3.75 6.69363 3.75 6.68799 3.75 6.68237C3.75 6.67674 3.75 6.67113 3.75 6.66554C3.75 6.65995 3.75 6.65438 3.75 6.64882C3.75 6.64326 3.75 6.63772 3.75 6.63219C3.75 6.62667 3.75 6.62116 3.75 6.61567C3.75 6.61018 3.75 6.6047 3.75 6.59925C3.75 6.59379 3.75 6.58835 3.75 6.58292C3.75 6.5775 3.75 6.57209 3.75 6.5667C3.75 6.56131 3.75 6.55594 3.75 6.55058C3.75 6.54523 3.75 6.53989 3.75 6.53456C3.75 6.52924 3.75 6.52394 3.75 6.51865C3.75 6.51336 3.75 6.50809 3.75 6.50284C3.75 6.49759 3.75 6.49235 3.75 6.48713C3.75 6.48191 3.75 6.47671 3.75 6.47153C3.75 6.46635 3.75 6.46118 3.75 6.45603C3.75 6.45088 3.75 6.44575 3.75 6.44064C3.75 6.43553 3.75 6.43043 3.75 6.42535C3.75 6.42028 3.75 6.41522 3.75 6.41017C3.75 6.40513 3.75 6.40011 3.75 6.3951C3.75 6.39009 3.75 6.3851 3.75 6.38013C3.75 6.37516 3.75 6.37021 3.75 6.36528C3.75 6.36034 3.75 6.35542 3.75 6.35053C3.75 6.34563 3.75 6.34075 3.75 6.33588C3.75 6.33102 3.75 6.32618 3.75 6.32135C3.75 6.31653 3.75 6.31172 3.75 6.30693C3.75 6.30214 3.75 6.29737 3.75 6.29262C3.75 6.28787 3.75 6.28313 3.75 6.27842C3.75 6.2737 3.75 6.269 3.75 6.26433C3.75 6.25965 3.75 6.25499 3.75 6.25035C3.75 6.24571 3.75 6.24108 3.75 6.23648C3.75 6.23188 3.75 6.22729 3.75 6.22273C3.75 6.21816 3.75 6.21361 3.75 6.20909C3.75 6.20456 3.75 6.20005 3.75 6.19556C3.75 6.19107 3.75 6.1866 3.75 6.18215C3.75 6.1777 3.75 6.17326 3.75 6.16885C3.75 6.16444 3.75 6.16004 3.75 6.15567C3.75 6.15129 3.75 6.14693 3.75 6.1426C3.75 6.13826 3.75 6.13394 3.75 6.12965C3.75 6.12535 3.75 6.12107 3.75 6.11681C3.75 6.11255 3.75 6.10831 3.75 6.10409C3.75 6.09987 3.75 6.09567 3.75 6.09149C3.75 6.08731 3.75 6.08315 3.75 6.07901C3.75 6.07487 3.75 6.07075 3.75 6.06665C3.75 6.06255 3.75 6.05847 3.75 6.0544C3.75 6.05034 3.75 6.0463 3.75 6.04228C3.75 6.03826 3.75 6.03425 3.75 6.03027C3.75 6.02629 3.75 6.02233 3.75 6.01839C3.75 6.01445 3.75 6.01053 3.75 6.00662C3.75 6.00272 3.75 5.99884 3.75 5.99498H2.25ZM12.5339 9.5V5.5H11.0339V9.5H12.5339ZM3.5 6.25H11.7839V4.75H3.5V6.25ZM11.7839 6.25H13.4421V4.75H11.7839V6.25ZM16.5 10.75H18.5V9.25H16.5V10.75ZM14 18.25H16.2864V16.75H14V18.25ZM21 17.75H22V16.25H21V17.75ZM12.2839 9.25C12.4219 9.25 12.5339 9.36193 12.5339 9.5H11.0339C11.0339 10.1904 11.5935 10.75 12.2839 10.75V9.25ZM3.75 5.99498C3.75 6.14289 3.62817 6.25 3.5 6.25V4.75C2.81955 4.75 2.25 5.29479 2.25 5.99498H3.75ZM23.25 10.5C23.25 9.80964 22.6904 9.25 22 9.25V10.75C21.8619 10.75 21.75 10.6381 21.75 10.5H23.25ZM21.75 16.5C21.75 16.3619 21.8619 16.25 22 16.25V17.75C22.6904 17.75 23.25 17.1904 23.25 16.5H21.75Z" fill="#151515"/>
<path d="M5.35535 11V9C5.35535 8.44772 5.80306 8 6.35535 8H8.35535C8.90763 8 9.35535 8.44772 9.35535 9V11C9.35535 11.5523 8.90763 12 8.35535 12H6.35535C5.80306 12 5.35535 11.5523 5.35535 11Z" stroke="#151515" stroke-width="1.5"/>
<path d="M17 10V7.5C17 7.22386 17.2239 7 17.5 7H18.5C18.7761 7 19 7.22386 19 7.5V10" stroke="#151515" stroke-width="1.5"/>
<circle cx="7.15408" cy="17.5044" r="1.93774" stroke="#151515" stroke-width="1.5"/>
<circle cx="11.8495" cy="17.5044" r="1.93774" stroke="#151515" stroke-width="1.5"/>
<circle cx="18.6582" cy="17.5044" r="1.93774" stroke="#151515" stroke-width="1.5"/>
</svg>
