<svg width="24" height="24" viewBox="0 0 24 24" fill="none" xmlns="http://www.w3.org/2000/svg">
<path fill-rule="evenodd" clip-rule="evenodd" d="M6.57474 3.18917C8.08901 2.46808 10.0687 2.32275 12 2.32275C13.9314 2.32275 15.911 2.46808 17.4253 3.18917C18.2023 3.55916 18.8813 4.09149 19.3603 4.84911C19.8391 5.60647 20.0802 6.52881 20.0802 7.61664L20.0801 17.0899C20.0801 17.5662 19.9203 17.9982 19.5841 18.3331C19.2758 18.6401 18.8811 18.803 18.52 18.9021C18.1691 18.9984 17.7541 19.0571 17.3119 19.0996L18.8478 21.6773L17.0153 21.6587L15.4435 19.2299C13.3495 19.3465 10.7816 19.3485 8.67158 19.2362L6.98474 21.6587H5.16358L6.76658 19.1215C6.31713 19.0868 5.89399 19.0375 5.54017 18.95C5.16652 18.8576 4.75217 18.6986 4.42897 18.3791C4.07708 18.0312 3.91986 17.5807 3.91986 17.0899L3.91987 7.61663C3.91989 6.5288 4.16091 5.60646 4.63976 4.84911C5.11879 4.0915 5.79776 3.55916 6.57474 3.18917ZM6.05277 5.74252C5.7749 6.182 5.59164 6.77943 5.59163 7.61665L5.59161 17.0899C5.59161 17.1573 5.60167 17.1851 5.60312 17.1889C5.60312 17.1889 5.60188 17.1878 5.60431 17.1903C5.61924 17.205 5.69747 17.2667 5.94158 17.3271C6.34635 17.4273 6.88274 17.4576 7.60631 17.4986C7.81544 17.5104 8.0402 17.5232 8.28194 17.5387C10.5726 17.6861 13.5823 17.6832 15.8444 17.5304C15.9435 17.5237 16.0397 17.5173 16.1332 17.5111C17.0048 17.4532 17.6352 17.4113 18.0776 17.2899C18.3048 17.2276 18.3846 17.1674 18.4031 17.1498C18.405 17.1419 18.4084 17.1232 18.4084 17.0899L18.4084 7.61664C18.4084 6.77943 18.2252 6.18199 17.9473 5.74252C17.6696 5.30332 17.2594 4.96178 16.7066 4.69853C15.5612 4.15314 13.9187 3.99451 12 3.99451C10.0813 3.99451 8.4388 4.15314 7.29348 4.69853C6.74066 4.96178 6.33047 5.30332 6.05277 5.74252Z" fill="#151515"/>
<path d="M16.458 7.1306V11.2951C16.458 11.3874 15.5923 11.451 14.4005 11.4858C13.6798 11.5069 12.8399 11.5174 12 11.5174C11.1908 11.5174 10.3815 11.5076 9.67894 11.4881C8.44632 11.4538 7.542 11.3895 7.542 11.2951L7.542 7.1306C7.54203 6.10658 9.63072 5.94489 12 5.94489C14.3693 5.94489 16.458 6.10658 16.458 7.1306Z" stroke="#151515" stroke-width="1.5"/>
<circle cx="8.6565" cy="14.8609" r="0.921754" fill="#151515" stroke="#151515" stroke-width="1.5"/>
<circle cx="15.3434" cy="14.8609" r="0.921754" fill="#151515" stroke="#151515" stroke-width="1.5"/>
</svg>
