<svg width="24" height="24" viewBox="0 0 24 24" fill="none" xmlns="http://www.w3.org/2000/svg">
<path fill-rule="evenodd" clip-rule="evenodd" d="M12.3721 4.78906C15.4359 4.94468 17.9948 7.01092 18.8838 9.81934H20.1777C21.0059 9.8196 21.6777 10.4911 21.6777 11.3193V12.6807C21.6776 13.5088 21.0059 14.1804 20.1777 14.1807H18.8848C17.96 17.1019 15.2279 19.2192 12.001 19.2197L11.6289 19.2109C8.56496 19.0556 6.00724 16.9893 5.11816 14.1807H3.82324L3.66992 14.1729C2.91359 14.096 2.32333 13.4572 2.32324 12.6807V11.3193C2.32324 10.5427 2.91352 9.90395 3.66992 9.82715L3.82324 9.81934H5.11621C6.04108 6.89778 8.77361 4.7793 12.001 4.7793L12.3721 4.78906ZM6.71289 14.1807C7.57064 16.2576 9.61441 17.7197 12.001 17.7197C14.3872 17.7192 16.4306 16.2574 17.2881 14.1807H6.71289ZM3.82324 12.6807H20.1777V11.3193H3.82324V12.6807ZM12.001 6.2793C9.6144 6.2793 7.57064 7.74237 6.71289 9.81934H17.2881C16.4306 7.74254 14.3872 6.27978 12.001 6.2793Z" fill="black"/>
</svg>
