<svg width="24" height="24" viewBox="0 0 24 24" fill="none" xmlns="http://www.w3.org/2000/svg">
<path d="M8.75891 8.71312L8.75891 3.31139M8.75891 8.71312L6.05804 6.55243M8.75891 8.71312L11.4598 6.55243" stroke="#151515" stroke-width="1.5" stroke-linecap="round" stroke-linejoin="round"/>
<path d="M10.4636 19.6987C10.3978 19.4909 10.2049 19.3497 9.9869 19.3497H7.16811C6.95012 19.3497 6.75725 19.4909 6.69144 19.6987L6.22178 21.1818C6.15597 21.3897 5.9631 21.5309 5.74511 21.5309H4.08076C3.73109 21.5309 3.48941 21.1811 3.61307 20.8541L7.26425 11.197C7.33778 11.0025 7.52401 10.8738 7.73194 10.8738H9.42387C9.6314 10.8738 9.81736 11.002 9.89118 11.196L13.5664 20.853C13.691 21.1803 13.4493 21.5309 13.0991 21.5309H11.4099C11.1919 21.5309 10.999 21.3897 10.9332 21.1818L10.4636 19.6987ZM7.4513 17.296C7.41041 17.4249 7.50667 17.5564 7.64194 17.5564H9.50421C9.63948 17.5564 9.73574 17.4249 9.69486 17.296L8.76372 14.359C8.70473 14.1729 8.44142 14.1729 8.38243 14.359L7.4513 17.296Z" fill="#151515"/>
<path d="M18.619 21.5309C18.5255 21.5309 18.4564 21.5183 18.4186 21.4327C18.3331 21.2389 18.057 21.1286 17.8848 21.252C17.4893 21.5355 17.0047 21.6773 16.4311 21.6773C15.6282 21.6773 14.9611 21.4577 14.4298 21.0185C13.9043 20.5794 13.6416 20.0109 13.6416 19.3131C13.6416 18.4836 13.9604 17.8419 14.598 17.3881C15.2415 16.9343 16.1654 16.7025 17.3698 16.6927H17.6314C17.9075 16.6927 18.1314 16.4689 18.1314 16.1927V16.056C18.1314 15.6997 18.0576 15.4484 17.91 15.3021C17.7624 15.1557 17.5469 15.0825 17.2635 15.0825C16.8373 15.0825 16.5563 15.2228 16.4203 15.5035C16.3 15.752 16.101 15.9901 15.8248 15.9901H14.3187C14.0426 15.9901 13.8113 15.7632 13.8738 15.4942C13.9929 14.9813 14.3052 14.544 14.8105 14.1822C15.4777 13.704 16.3189 13.4649 17.3344 13.4649C18.3852 13.4649 19.197 13.6918 19.7696 14.1456C20.3482 14.5945 20.6375 15.2386 20.6375 16.0779V19.8035C20.6493 20.4866 20.6375 20.9914 20.6375 21.4065C20.6375 21.4752 20.5818 21.5309 20.513 21.5309H18.619ZM16.989 20.0524C17.2665 20.0524 17.5026 20.006 17.6974 19.9133C17.827 19.8517 17.9343 19.7825 18.0195 19.7057C18.0994 19.6337 18.1314 19.5258 18.1314 19.4182V18.4371C18.1314 18.1609 17.9075 17.9371 17.6314 17.9371H17.5292C17.1041 17.9371 16.7676 18.0493 16.5197 18.2737C16.2776 18.4982 16.1566 18.7983 16.1566 19.174C16.1566 19.7596 16.4341 20.0524 16.989 20.0524Z" fill="#151515"/>
</svg>
