<svg width="24" height="24" viewBox="0 0 24 24" fill="none" xmlns="http://www.w3.org/2000/svg">
<path d="M10.7826 14.6128C10.7129 14.4114 10.5232 14.2764 10.3102 14.2764H8.14599C7.93292 14.2764 7.74326 14.4114 7.67353 14.6128L7.34709 15.5552C7.27735 15.7566 7.08769 15.8916 6.87463 15.8916H5.74783C5.39161 15.8916 5.14965 15.5297 5.28578 15.2005L8.13565 8.30893C8.21297 8.12195 8.39536 8 8.5977 8H9.85929C10.0612 8 10.2433 8.12144 10.3209 8.30785L13.1896 15.1995C13.3266 15.5288 13.0847 15.8916 12.728 15.8916H11.5815C11.3685 15.8916 11.1788 15.7566 11.1091 15.5552L10.7826 14.6128ZM8.47924 12.2847C8.3666 12.6095 8.60783 12.9485 8.95164 12.9485H9.49734C9.84115 12.9485 10.0824 12.6095 9.96974 12.2847L9.69689 11.4978C9.54146 11.0496 8.90752 11.0496 8.75208 11.4978L8.47924 12.2847Z" fill="#151515"/>
<path d="M17.3545 15.8916C17.2823 15.8916 17.2289 15.8819 17.1976 15.8168C17.1267 15.669 16.9177 15.5837 16.7816 15.675C16.4584 15.8917 16.0609 16 15.5889 16C14.9386 16 14.3983 15.8374 13.968 15.5122C13.5424 15.187 13.3296 14.766 13.3296 14.2493C13.3296 13.635 13.5878 13.1599 14.1042 12.8238C14.6254 12.4878 15.3737 12.3162 16.3492 12.3089H16.4944C16.7549 12.3089 16.966 12.0978 16.966 11.8374C16.966 11.5736 16.9062 11.3875 16.7867 11.2791C16.6671 11.1707 16.4926 11.1165 16.2631 11.1165C15.9817 11.1165 15.7784 11.1856 15.6532 11.3238C15.4678 11.5284 15.279 11.7886 15.0028 11.7886H13.9731C13.6969 11.7886 13.4626 11.558 13.5553 11.2979C13.6718 10.9709 13.9121 10.6882 14.2764 10.4499C14.8167 10.0958 15.4981 9.9187 16.3205 9.9187C17.1716 9.9187 17.8291 10.0867 18.2929 10.4228C18.7615 10.7552 18.9958 11.2322 18.9958 11.8537V14.6125C19.0053 15.1183 18.9958 15.4921 18.9958 15.7995C18.9958 15.8503 18.9545 15.8916 18.9036 15.8916H17.3545ZM16.0408 14.7967C16.2655 14.7967 16.4568 14.7624 16.6145 14.6938C16.7004 14.6564 16.7742 14.6153 16.836 14.5705C16.9291 14.5029 16.966 14.3871 16.966 14.272V13.7181C16.966 13.4487 16.7476 13.2304 16.4783 13.2304C16.134 13.2304 15.8615 13.3135 15.6606 13.4797C15.4646 13.6459 15.3666 13.8681 15.3666 14.1463C15.3666 14.5799 15.5913 14.7967 16.0408 14.7967Z" fill="#151515"/>
<path d="M4 2.75H20C20.6904 2.75 21.25 3.30964 21.25 4V20C21.25 20.6904 20.6904 21.25 20 21.25H4C3.30964 21.25 2.75 20.6904 2.75 20V4C2.75 3.30964 3.30964 2.75 4 2.75Z" stroke="#151515" stroke-width="1.5"/>
</svg>
