<svg width="24" height="24" viewBox="0 0 24 24" fill="none" xmlns="http://www.w3.org/2000/svg">
<path d="M19.5 5.5H4.5C3.39543 5.5 2.5 6.39543 2.5 7.5V16.5C2.5 17.6046 3.39543 18.5 4.5 18.5H19.5C20.6046 18.5 21.5 17.6046 21.5 16.5V7.5C21.5 6.39543 20.6046 5.5 19.5 5.5Z" stroke="black" stroke-width="2" stroke-linecap="round" stroke-linejoin="round"/>
<path fill-rule="evenodd" clip-rule="evenodd" d="M16 9.5C15.7071 9.5 15.5 9.76048 15.5 10.0533V13.9467C15.5 14.2395 15.7071 14.5 16 14.5C17.3807 14.5 18.5 13.3807 18.5 12C18.5 10.6193 17.3807 9.5 16 9.5Z" fill="black"/>
<path fill-rule="evenodd" clip-rule="evenodd" d="M8 9.5C8.29286 9.5 8.5 9.76048 8.5 10.0533V13.9467C8.5 14.2395 8.29286 14.5 8 14.5C6.61929 14.5 5.5 13.3807 5.5 12C5.5 10.6193 6.61929 9.5 8 9.5Z" fill="black"/>
<path d="M10.5 10.5C10.5 9.94772 10.9477 9.5 11.5 9.5H12.5C13.0523 9.5 13.5 9.94772 13.5 10.5V13.5C13.5 14.0523 13.0523 14.5 12.5 14.5H11.5C10.9477 14.5 10.5 14.0523 10.5 13.5V10.5Z" fill="black"/>
</svg>
