<svg width="24" height="24" viewBox="0 0 24 24" fill="none" xmlns="http://www.w3.org/2000/svg">
<path d="M18.6542 6.0787H5.34585C4.24128 6.0787 3.34585 6.97413 3.34585 8.0787V15.9212C3.34585 17.0258 4.24128 17.9212 5.34585 17.9212H18.6542C19.7587 17.9212 20.6542 17.0258 20.6542 15.9212V8.0787C20.6542 6.97414 19.7587 6.0787 18.6542 6.0787Z" stroke="#151515" stroke-width="1.5" stroke-linecap="round" stroke-linejoin="round"/>
<path fill-rule="evenodd" clip-rule="evenodd" d="M15.6439 9.72256C15.3771 9.72256 15.1884 9.95985 15.1884 10.2266V13.7733C15.1884 14.0401 15.3771 14.2774 15.6439 14.2774C16.9016 14.2774 17.9213 13.2577 17.9213 12C17.9213 10.7422 16.9016 9.72256 15.6439 9.72256Z" fill="#151515"/>
<path fill-rule="evenodd" clip-rule="evenodd" d="M8.35615 9.72256C8.62293 9.72256 8.81163 9.95985 8.81163 10.2266V13.7733C8.81163 14.0401 8.62293 14.2774 8.35615 14.2774C7.09837 14.2774 6.07874 13.2577 6.07874 12C6.07874 10.7422 7.09837 9.72256 8.35615 9.72256Z" fill="#151515"/>
<path d="M10.6336 10.7226C10.6336 10.1703 11.0813 9.72256 11.6336 9.72256H12.3664C12.9187 9.72256 13.3664 10.1703 13.3664 10.7226V13.2774C13.3664 13.8297 12.9187 14.2774 12.3664 14.2774H11.6336C11.0813 14.2774 10.6336 13.8297 10.6336 13.2774V10.7226Z" fill="#151515"/>
</svg>
