<svg width="24" height="24" viewBox="0 0 24 24" fill="none" xmlns="http://www.w3.org/2000/svg">
<path d="M11.7695 3.35541C12.6368 3.35541 13.3405 4.05842 13.3408 4.92572C13.3408 5.79321 12.637 6.49701 11.7695 6.49701C10.9022 6.49677 10.1992 5.79306 10.1992 4.92572C10.1994 4.05857 10.9023 3.35565 11.7695 3.35541Z" fill="#151515" stroke="#151515" stroke-width="1.5"/>
<path d="M11.754 14.9191H9.38621C9.86577 12.7997 9.86577 11.0715 9.86577 9.34323L12.183 9.57043C12.183 11.1952 11.754 13.1105 11.754 14.9191Z" fill="#151515"/>
<path d="M9.38621 14.9191C7.95522 17.448 6.77668 21.3946 6.77668 21.3946M9.38621 14.9191C10.1494 14.9191 10.9908 14.9191 11.754 14.9191M9.38621 14.9191C9.86577 12.7997 9.86577 11.0715 9.86577 9.34323L12.183 9.57043C12.183 11.1952 11.754 13.1105 11.754 14.9191M11.754 14.9191C13.2327 17.448 12.4624 21.3946 12.4624 21.3946" stroke="#151515" stroke-width="1.5" stroke-linecap="round" stroke-linejoin="round"/>
<path d="M12.2208 9.59695L14.9212 13.0276L17.6867 11.8839" stroke="#151515" stroke-width="1.5" stroke-linecap="round" stroke-linejoin="round"/>
<path d="M9.79496 9.3416L6.34379 9.9952L8.68327 13.6774" stroke="#151515" stroke-width="1.5" stroke-linecap="round" stroke-linejoin="round"/>
</svg>
