<svg width="24" height="24" viewBox="0 0 24 24" fill="none" xmlns="http://www.w3.org/2000/svg">
<path d="M7.96198 3.07269H16.0381C17.2807 3.07275 18.2881 4.08009 18.2881 5.32269V18.6772C18.2881 19.9198 17.2807 20.9271 16.0381 20.9272H7.96198C6.71933 20.9272 5.71198 19.9198 5.71198 18.6772V5.32269C5.71198 4.08005 6.71933 3.07269 7.96198 3.07269Z" stroke="#151515" stroke-width="1.5"/>
<path d="M7.60126 5.8417C7.60126 5.35582 7.99514 4.96194 8.48101 4.96194H15.519C16.0049 4.96194 16.3988 5.35582 16.3988 5.8417C16.3988 6.32757 16.0049 6.72145 15.519 6.72145H8.48101C7.99514 6.72145 7.60126 6.32757 7.60126 5.8417Z" fill="#151515"/>
<circle cx="12" cy="14.6392" r="2.76902" stroke="#151515" stroke-width="1.5"/>
<path d="M5.84174 8.48097L18.1583 8.48097" stroke="#151515" stroke-width="1.5" stroke-linecap="round"/>
</svg>
