<svg width="24" height="24" viewBox="0 0 24 24" fill="none" xmlns="http://www.w3.org/2000/svg">
<circle cx="7.78899" cy="4.53902" r="1.46632" fill="#151515" stroke="#151515" stroke-width="1.5"/>
<path d="M5.12939 15.0992V8.5284H6.20976H7.83217H9.56177H10.4486V15.0992H9.56177H8.67551L8.67565 20.9398H6.90245V15.0992H6.20976H5.12939Z" fill="#151515"/>
<path d="M6.90245 15.0992H6.20976H5.12939V8.5284L6.20976 8.5284H7.83217L9.56177 8.5284L10.4486 8.5284V15.0992H9.56177H8.67551M6.90245 15.0992V20.9398H8.67565L8.67551 15.0992M6.90245 15.0992H8.67551" stroke="#151515" stroke-width="1.5" stroke-linecap="round" stroke-linejoin="round"/>
<path d="M14.8812 20.9398V16.0639H12.6649L14.6317 8.5284H16.9031L18.8706 16.0639H16.6543V20.9398H14.8812Z" fill="#151515"/>
<path d="M14.8812 16.0639H16.6543M14.8812 16.0639V20.9398H16.6543V16.0639M14.8812 16.0639H12.6649L14.6317 8.5284H16.9031L18.8706 16.0639H16.6543" stroke="#151515" stroke-width="1.5" stroke-linecap="round" stroke-linejoin="round"/>
<circle cx="15.7677" cy="4.53902" r="1.46632" fill="#151515" stroke="#151515" stroke-width="1.5"/>
</svg>
