<svg width="24" height="24" viewBox="0 0 24 24" fill="none" xmlns="http://www.w3.org/2000/svg">
<path d="M10.237 13.7734L11.1868 7.47587C11.2605 6.98671 11.6809 6.625 12.1756 6.625H12.3949C13.0173 6.625 13.4885 7.1874 13.3795 7.80014L11.7118 17.1751C11.6269 17.6524 11.212 18 10.7273 18H10.0817C9.60436 18 9.19356 17.6626 9.10078 17.1944L7.93228 11.2969L6.77796 17.1922C6.68607 17.6614 6.2748 18 5.7966 18H5.14453C4.66006 18 4.24527 17.6527 4.1601 17.1758L2.48599 7.80079C2.37654 7.18786 2.84779 6.625 3.47042 6.625H3.70381C4.19885 6.625 4.61938 6.9872 4.69277 7.47677L5.63541 13.7656L6.81866 7.4411C6.90718 6.96795 7.32024 6.625 7.80161 6.625H8.0706C8.55204 6.625 8.96514 6.96805 9.05359 7.4413L10.237 13.7734Z" fill="#151515"/>
<path d="M21.1391 14.2109C21.4239 14.2109 21.6534 14.4491 21.6201 14.732C21.4974 15.7739 21.1467 16.582 20.5679 17.1562C19.896 17.8229 18.9481 18.1562 17.7242 18.1562C16.4377 18.1562 15.4507 17.7344 14.7632 16.8906C14.0809 16.0417 13.7398 14.8333 13.7398 13.2656V11.3516C13.7398 9.78906 14.0939 8.58594 14.8023 7.74219C15.5106 6.89323 16.495 6.46875 17.7554 6.46875C18.995 6.46875 19.9351 6.8151 20.5757 7.50781C21.1301 8.10246 21.4792 8.91971 21.6229 9.95956C21.6626 10.2464 21.4315 10.4922 21.142 10.4922H19.8598C19.5887 10.4922 19.37 10.2757 19.3444 10.0059C19.2927 9.46252 19.1771 9.07255 18.9976 8.83594C18.7736 8.52865 18.3596 8.375 17.7554 8.375C17.1408 8.375 16.7059 8.59115 16.4507 9.02344C16.1955 9.45052 16.0601 10.1562 16.0445 11.1406V13.2891C16.0445 14.4193 16.1695 15.1953 16.4195 15.6172C16.6747 16.0391 17.1096 16.25 17.7242 16.25C18.3283 16.25 18.745 16.1042 18.9742 15.8125C19.1524 15.5816 19.2708 15.2073 19.3293 14.6897C19.3594 14.4232 19.5767 14.2109 19.8449 14.2109H21.1391Z" fill="#151515"/>
</svg>
