<svg width="24" height="24" viewBox="0 0 24 24" fill="none" xmlns="http://www.w3.org/2000/svg">
<path fill-rule="evenodd" clip-rule="evenodd" d="M21.238 12.8329C21.4648 13.0597 21.4648 13.4273 21.238 13.6541L13.8477 21.0445C13.6209 21.2712 13.2533 21.2712 13.0265 21.0445L12.2041 20.222C11.9778 19.9958 11.9772 19.6291 12.2028 19.4022L15.3987 16.186L7.59772 8.38499L4.40438 11.5986C4.17784 11.8266 3.8092 11.8272 3.58193 11.5999L2.76208 10.78C2.53533 10.5533 2.53532 10.1856 2.76208 9.95888L10.1525 2.5685C10.3792 2.34174 10.7469 2.34174 10.9736 2.5685L11.7933 3.38817C12.0206 3.61551 12.02 3.98429 11.7918 4.2108L9.01194 6.97077L16.8129 14.7717L19.5957 12.0088C19.8227 11.7835 20.1892 11.7841 20.4154 12.0103L21.238 12.8329Z" fill="#151515"/>
<path d="M16.4594 20.075L15.6382 19.2539L19.1737 15.7184L19.9949 16.5395L16.4594 20.075Z" stroke="#151515" stroke-width="1.74193" stroke-linecap="round" stroke-linejoin="round"/>
<path d="M4.55255 8.16824L3.7314 7.34709L7.2669 3.81158L8.08806 4.63274L4.55255 8.16824Z" stroke="#151515" stroke-width="1.74193" stroke-linecap="round" stroke-linejoin="round"/>
</svg>
