<svg width="24" height="24" viewBox="0 0 24 24" fill="none" xmlns="http://www.w3.org/2000/svg">
<path d="M10.8827 17.3902C10.7495 17.4887 10.7506 17.6808 10.8677 17.7979L11.8577 18.7879C11.9748 18.905 12.1648 18.905 12.2819 18.7879L13.2719 17.7979C13.389 17.6808 13.3902 17.4887 13.2569 17.3902C12.9249 17.145 12.5143 17 12.0698 17C11.6254 17 11.2148 17.145 10.8827 17.3902Z" fill="#151515"/>
<path d="M3.27026 9.36583C5.57727 7.25911 8.64755 5.97417 12.0179 5.97417C15.3709 5.97417 18.4268 7.24586 20.7298 9.33323" stroke="#151515" stroke-width="1.5" stroke-linecap="round"/>
<path d="M6.34821 12.0457C7.84655 10.6774 9.84061 9.84291 12.0296 9.84291C14.2072 9.84291 16.192 10.6688 17.6877 12.0245" stroke="#151515" stroke-width="1.5" stroke-linecap="round"/>
<path d="M9.21161 14.9167C9.96833 14.2257 10.9754 13.8042 12.0809 13.8042C13.1807 13.8042 14.1831 14.2214 14.9385 14.906" stroke="#151515" stroke-width="1.5" stroke-linecap="round"/>
</svg>
