<svg width="24" height="24" viewBox="0 0 24 24" fill="none" xmlns="http://www.w3.org/2000/svg">
<path d="M10.8828 17.3902C10.7495 17.4887 10.7506 17.6808 10.8677 17.7979L11.8577 18.7879C11.9749 18.905 12.1648 18.905 12.282 18.7879L13.2719 17.7979C13.3891 17.6808 13.3902 17.4887 13.2569 17.3902C12.9249 17.145 12.5143 17 12.0698 17C11.6254 17 11.2148 17.145 10.8828 17.3902Z" fill="black"/>
<path d="M8.53579 15.4645C8.14527 15.0739 8.14141 14.4326 8.59104 14.1119C9.57255 13.4118 10.7738 13 12.0713 13C13.3688 13 14.5701 13.4118 15.5516 14.1119C16.0012 14.4326 15.9974 15.0739 15.6069 15.4645C15.2163 15.855 14.5872 15.8414 14.1124 15.5592C13.5149 15.204 12.8169 15 12.0713 15C11.3257 15 10.6278 15.204 10.0302 15.5592C9.5555 15.8414 8.92632 15.855 8.53579 15.4645Z" fill="black"/>
<path d="M5.70782 12.636C5.3173 12.2455 5.31442 11.6079 5.74178 11.2581C7.46584 9.84676 9.66992 8.99998 12.0718 8.99998C14.4736 8.99998 16.6777 9.84677 18.4018 11.2581C18.8291 11.6079 18.8263 12.2455 18.4357 12.636C18.0452 13.0265 17.4154 13.0208 16.9795 12.6817C15.6244 11.6277 13.9214 11 12.0718 11C10.2221 11 8.51912 11.6277 7.1641 12.6817C6.72817 13.0208 6.09834 13.0265 5.70782 12.636Z" fill="black"/>
<path d="M2.80793 9.80725C2.41739 9.41672 2.4152 8.78051 2.83247 8.41868C5.28861 6.28888 8.49374 5 11.9999 5C15.5459 5 18.784 6.31835 21.2508 8.49165C21.6652 8.85675 21.658 9.4929 21.2644 9.88035C20.8709 10.2678 20.2403 10.2593 19.8216 9.89911C17.7211 8.09218 14.988 7 11.9999 7C9.04597 7 6.34132 8.06732 4.25057 9.83735C3.82907 10.1942 3.19844 10.1978 2.80793 9.80725Z" fill="black"/>
</svg>
