<svg width="20" height="20" viewBox="0 0 20 20" fill="none" xmlns="http://www.w3.org/2000/svg">
<path d="M17.3145 10C17.3145 14.0396 14.0397 17.3144 10.0001 17.3144C5.96045 17.3144 2.68567 14.0396 2.68567 10C2.68567 5.96035 5.96045 2.68558 10.0001 2.68558C14.0397 2.68558 17.3145 5.96035 17.3145 10ZM8.25512 6.64854C8.25512 6.82753 8.28128 7.00041 8.33 7.16356L6.87878 6.53795C6.18143 6.23733 5.37241 6.55894 5.07178 7.25629C4.77116 7.95364 5.09277 8.76266 5.79013 9.06329L7.78588 9.92364C7.83616 10.1351 7.89337 10.3278 7.94018 10.4856L7.94464 10.5006L7.94474 10.5009L7.96481 10.5687C8.04001 10.8233 8.09239 11.0137 8.12325 11.1732L6.68119 13.7216C6.3072 14.3825 6.5398 15.2215 7.20071 15.5955C7.86163 15.9695 8.70058 15.7369 9.07457 15.0759L9.98485 13.4673L10.9353 15.0928C11.3187 15.7484 12.1608 15.9691 12.8164 15.5858C13.4719 15.2024 13.6926 14.3603 13.3093 13.7047L11.8218 11.1608C11.8513 10.9935 11.8999 10.7908 11.9666 10.5283C11.9666 10.5282 11.9666 10.528 11.9667 10.5279L11.9832 10.4631L11.9832 10.4629L11.9867 10.449C12.025 10.2989 12.07 10.1222 12.1107 9.93294L14.1919 9.07097C14.8935 8.78039 15.2267 7.97607 14.9361 7.27448C14.6455 6.57288 13.8412 6.23968 13.1396 6.53026L11.796 7.08675C11.8311 6.94649 11.8498 6.7997 11.8498 6.64854C11.8498 5.65591 11.0451 4.85122 10.0524 4.85122C9.05981 4.85122 8.25512 5.65591 8.25512 6.64854Z" fill="#151515" stroke="#151515" stroke-width="1.5"/>
</svg>
