<svg width="20" height="20" viewBox="0 0 20 20" fill="none" xmlns="http://www.w3.org/2000/svg">
<circle cx="10.0001" cy="10" r="7.31442" stroke="#151515" stroke-width="1.5"/>
<path d="M10.3497 6.64855C10.3497 6.81276 10.2166 6.94588 10.0524 6.94588C9.88815 6.94588 9.75503 6.81276 9.75503 6.64855C9.75503 6.48434 9.88815 6.35123 10.0524 6.35123C10.2166 6.35123 10.3497 6.48434 10.3497 6.64855Z" fill="#151515" stroke="#151515" stroke-width="1.5"/>
<path d="M9.03535 8.96501H10.1043H10.8543C10.8543 9.69827 10.4134 10.6602 10.4134 11.4764H9.53145C9.53145 10.5896 9.03535 9.74126 9.03535 8.96501Z" fill="#151515"/>
<path d="M9.03535 8.96501C9.42121 8.96501 10.1043 8.96501 10.1043 8.96501C10.1043 8.96501 10.5614 8.96501 10.8543 8.96501M9.03535 8.96501C9.03535 9.74126 9.53145 10.5896 9.53145 11.4764M9.03535 8.96501C7.98055 8.51029 6.33435 7.80063 6.33435 7.80063M9.53145 11.4764C8.88565 12.6177 7.87778 14.3988 7.87778 14.3988M9.53145 11.4764C9.87588 11.4764 10.069 11.4764 10.4134 11.4764M10.4134 11.4764C11.0807 12.6177 12.1222 14.3988 12.1222 14.3988M10.4134 11.4764C10.4134 10.6602 10.8543 9.69827 10.8543 8.96501M10.8543 8.96501C11.9522 8.51029 13.6656 7.80063 13.6656 7.80063" stroke="#151515" stroke-width="1.5" stroke-linecap="round" stroke-linejoin="round"/>
</svg>
