<svg width="20" height="20" viewBox="0 0 20 20" fill="none" xmlns="http://www.w3.org/2000/svg">
<path d="M10.0001 2.68558C14.0397 2.6856 17.3146 5.9604 17.3146 10C17.3146 14.0396 14.0397 17.3145 10.0001 17.3145C5.96049 17.3145 2.68569 14.0397 2.68567 10C2.68567 5.96039 5.96048 2.68558 10.0001 2.68558ZM10.0529 4.85159C9.06025 4.85159 8.25505 5.65587 8.255 6.64847C8.255 6.82775 8.28231 7.0007 8.33118 7.16409L6.87903 6.53812L6.74719 6.48929C6.08256 6.27922 5.35337 6.60211 5.07141 7.25589C4.77079 7.95324 5.09281 8.76288 5.79016 9.06351L7.78723 9.92386C7.83912 10.142 7.89687 10.3406 7.94446 10.501L7.96497 10.5694C8.0401 10.8238 8.09039 11.0144 8.12122 11.1739L6.68079 13.7217C6.30703 14.3825 6.53963 15.2217 7.20032 15.5957C7.86113 15.9697 8.70027 15.7369 9.07434 15.0762L9.9845 13.4668L10.9357 15.0928C11.319 15.7483 12.161 15.9693 12.8165 15.586C13.4719 15.2027 13.6926 14.3606 13.3097 13.7051L11.8214 11.1612C11.8509 10.9937 11.9002 10.7911 11.9669 10.5284L11.9835 10.4629C12.0225 10.31 12.0666 10.1277 12.1085 9.93265L14.1915 9.07132C14.8931 8.78074 15.2262 7.97604 14.9357 7.27444C14.6632 6.61689 13.94 6.28334 13.2726 6.48343L13.1398 6.5303L11.7931 7.08792C11.8285 6.94712 11.8497 6.80026 11.8497 6.64847C11.8497 5.656 11.0453 4.85181 10.0529 4.85159Z" fill="#151515" stroke="#151515" stroke-width="1.5"/>
</svg>
