<svg width="20" height="20" viewBox="0 0 20 20" fill="none" xmlns="http://www.w3.org/2000/svg">
<circle cx="9.99997" cy="10" r="7.31442" stroke="#151515" stroke-width="1.5"/>
<path fill-rule="evenodd" clip-rule="evenodd" d="M10.6864 6.98103C10.6864 6.60199 10.3791 6.29472 10 6.29472C9.62101 6.29472 9.31373 6.60199 9.31373 6.98103V9.31373H6.98106C6.60202 9.31373 6.29474 9.62101 6.29474 10C6.29474 10.3791 6.60202 10.6864 6.98106 10.6864H9.31373V13.0189C9.31373 13.398 9.62101 13.7052 10 13.7052C10.3791 13.7052 10.6864 13.398 10.6864 13.0189V10.6864H13.0189C13.398 10.6864 13.7053 10.3791 13.7053 10C13.7053 9.62101 13.398 9.31373 13.0189 9.31373H10.6864V6.98103Z" fill="#151515"/>
</svg>
