<svg width="20" height="20" viewBox="0 0 20 20" fill="none" xmlns="http://www.w3.org/2000/svg">
<path d="M15.0911 11.3754C15.0911 12.2328 14.8795 13.0408 14.5056 13.75C13.6515 15.3699 11.9508 16.4742 9.99229 16.4742C8.03373 16.4742 6.33309 15.3699 5.47901 13.75C5.10509 13.0408 4.89343 12.2328 4.89343 11.3754C4.89343 8.55933 7.17627 6.2765 9.99229 6.2765C12.8083 6.2765 15.0911 8.55933 15.0911 11.3754Z" stroke="#151515" stroke-width="1.5"/>
<path d="M9.89343 8.33333V11.25L12.3934 12.5" stroke="#151515" stroke-width="1.5" stroke-linecap="round"/>
<path d="M6.04459 4.28234C7.0209 5.25865 7.22312 4.87158 5.16071 6.93399C3.09833 8.99637 3.48537 8.79419 2.50906 7.81788C1.53275 6.84157 1.53275 5.25865 2.50906 4.28234C3.48537 3.30603 5.06828 3.30603 6.04459 4.28234Z" fill="#151515"/>
<path d="M17.4909 7.81784C16.5146 8.79415 16.9016 8.99638 14.8392 6.93396C12.7768 4.87158 12.979 5.25862 13.9553 4.28231C14.9316 3.306 16.5146 3.306 17.4909 4.28231C18.4672 5.25862 18.4672 6.84153 17.4909 7.81784Z" fill="#151515"/>
<path d="M6.56012 16.25C6.56012 16.9403 6.00047 17.5 5.31012 17.5C4.61976 17.5 4.06012 16.9403 4.06012 16.25C4.06012 15.5596 4.61976 15 5.31012 15C6.00047 15 6.56012 15.5596 6.56012 16.25Z" fill="#151515"/>
<path d="M15.7267 16.25C15.7267 16.9403 15.1671 17.5 14.4767 17.5C13.7864 17.5 13.2267 16.9403 13.2267 16.25C13.2267 15.5596 13.7864 15 14.4767 15C15.1671 15 15.7267 15.5596 15.7267 16.25Z" fill="#151515"/>
</svg>
