<svg width="20" height="20" viewBox="0 0 20 20" fill="none" xmlns="http://www.w3.org/2000/svg">
<g clip-path="url(#clip0_1526_520)">
<path d="M14.0863 14.0863C10.513 17.6597 4.89205 17.8322 3.52993 16.47C2.16782 15.1079 2.34033 9.48697 5.91363 5.91367C9.48693 2.34037 14.7674 1.82733 16.47 3.52997C18.1726 5.23261 17.6596 10.513 14.0863 14.0863Z" stroke="#151515" stroke-width="1.5"/>
<path d="M12.7198 7.28031L12.0437 7.95639M7.96149 12.0386L10.0026 9.99752M7.96149 12.0386L6.93991 11.0171M7.96149 12.0386L8.98308 13.0602M7.96149 12.0386L7.27586 12.7243M12.0437 7.95639L11.0222 6.93481M12.0437 7.95639L13.0653 8.97798M12.0437 7.95639L10.0026 9.99752M10.0026 9.99752L8.97851 8.97846M10.0026 9.99752L11.0217 11.0216" stroke="#151515" stroke-width="1.5" stroke-linecap="round" stroke-linejoin="round"/>
<path d="M12.5442 2.68832C12.5442 2.68832 12.8847 4.39096 14.2468 5.75308C15.6089 7.11519 17.3116 7.45572 17.3116 7.45572" stroke="#151515" stroke-width="1.5" stroke-linecap="round" stroke-linejoin="round"/>
<path d="M7.61621 17.1511C7.61621 17.1511 7.27568 15.4484 5.91357 14.0863C4.55146 12.7242 2.84882 12.3837 2.84882 12.3837" stroke="#151515" stroke-width="1.5" stroke-linecap="round" stroke-linejoin="round"/>
</g>
<defs>
<clipPath id="clip0_1526_520">
<rect width="20" height="20" fill="white" transform="matrix(1 0 0 -1 0 20)"/>
</clipPath>
</defs>
</svg>
