<svg width="20" height="20" viewBox="0 0 20 20" fill="none" xmlns="http://www.w3.org/2000/svg">
<circle cx="10.0001" cy="10" r="7.31439" stroke="#151515" stroke-width="1.5"/>
<path fill-rule="evenodd" clip-rule="evenodd" d="M13.8955 12.3992C14.0368 12.5601 14.0171 12.8037 13.852 12.94C12.8353 13.7797 11.5316 14.2842 10.1101 14.2842C8.62581 14.2842 7.26998 13.7342 6.23528 12.8269C6.0746 12.686 6.06169 12.4425 6.207 12.2858C7.17923 11.2372 8.51979 10.5891 10.0001 10.5891C11.533 10.5891 12.9161 11.2841 13.8955 12.3992Z" fill="#151515"/>
<path d="M8.20788 7.69873C8.20788 8.31732 7.70642 8.81878 7.08783 8.81878C6.46924 8.81878 5.96777 8.31732 5.96777 7.69873C5.96777 7.08014 6.46924 6.57867 7.08783 6.57867C7.70642 6.57867 8.20788 7.08014 8.20788 7.69873Z" fill="#151515"/>
<path d="M14.0322 7.69873C14.0322 8.31732 13.5308 8.81878 12.9122 8.81878C12.2936 8.81878 11.7921 8.31732 11.7921 7.69873C11.7921 7.08014 12.2936 6.57867 12.9122 6.57867C13.5308 6.57867 14.0322 7.08014 14.0322 7.69873Z" fill="#151515"/>
<path d="M6.53157 6.09344L8.70704 7.50805" stroke="#151515" stroke-width="1.5" stroke-linecap="round" stroke-linejoin="round"/>
<path d="M13.388 6.0663L11.3392 7.3633" stroke="#151515" stroke-width="1.5" stroke-linecap="round" stroke-linejoin="round"/>
</svg>
