<svg width="20" height="20" viewBox="0 0 20 20" fill="none" xmlns="http://www.w3.org/2000/svg">
<path d="M9.99989 7.53487C10.5064 7.53487 10.9283 7.3775 11.3425 7.22301C12.1035 6.9392 12.8383 6.66513 14.0233 7.39444C15.8533 8.52074 15.8533 9.72832 15.8533 11.4282C15.8533 13.286 14.4766 15.9637 12.9941 16.969C12.4256 17.3545 11.9254 17.1662 11.3479 16.9488C10.9509 16.7993 10.5173 16.6361 9.99989 16.6361C9.48234 16.6361 9.0491 16.7994 8.65249 16.9489C8.0758 17.1662 7.57656 17.3544 7.00815 16.969C5.52573 15.9637 4.14648 13.286 4.14648 11.4282C4.14648 9.72832 4.31474 8.4087 5.91729 7.39444C6.95438 6.73807 7.75715 6.99005 8.58401 7.24959C9.03484 7.39111 9.49284 7.53487 9.99989 7.53487ZM9.99989 7.53487C10.0593 7.25975 9.51727 4.51639 7.39453 2.5606M12.5867 9.01063C13.1655 9.40834 13.9221 10.569 13.6725 11.757" stroke="black" stroke-width="1.5" stroke-linecap="round"/>
<path d="M12.6379 2.87498C12.6132 2.86345 12.6728 2.88732 12.7658 3.04383C12.8511 3.18727 12.9345 3.39336 12.9879 3.64714C13.0953 4.15738 13.0659 4.77456 12.8057 5.33029C12.5503 5.87527 12.0871 6.28626 11.6123 6.53127C11.3767 6.65284 11.1585 6.7231 10.9906 6.75123C10.9009 6.76625 10.8445 6.76545 10.8153 6.76403C10.7954 6.74222 10.7591 6.69912 10.7138 6.62159C10.628 6.47467 10.5431 6.26226 10.4856 6.00358C10.3699 5.48195 10.3882 4.86272 10.6434 4.31756C10.9037 3.76183 11.3599 3.34457 11.8206 3.10039C12.0495 2.97911 12.2607 2.91072 12.4253 2.88436C12.6044 2.85573 12.6617 2.88609 12.6379 2.87498Z" stroke="black" stroke-width="1.5"/>
</svg>
