<svg width="20" height="20" viewBox="0 0 20 20" fill="none" xmlns="http://www.w3.org/2000/svg">
<path d="M9.99989 7.53487C10.5064 7.53487 10.9283 7.3775 11.3425 7.22301C12.1035 6.9392 12.8383 6.66513 14.0233 7.39444C15.8533 8.52074 15.8533 9.72832 15.8533 11.4282C15.8533 13.286 14.4766 15.9637 12.9941 16.969C12.4256 17.3545 11.9254 17.1662 11.3479 16.9488C10.9509 16.7993 10.5173 16.6361 9.99989 16.6361C9.48234 16.6361 9.0491 16.7994 8.65249 16.9489C8.0758 17.1662 7.57656 17.3544 7.00815 16.969C5.52573 15.9637 4.14648 13.286 4.14648 11.4282C4.14648 9.72832 4.31474 8.4087 5.91729 7.39444C6.95438 6.73807 7.75715 6.99005 8.58401 7.24959C9.03484 7.39111 9.49284 7.53487 9.99989 7.53487ZM9.99989 7.53487C10.0593 7.25975 9.51727 4.51639 7.39453 2.5606M12.5867 9.01063C13.1655 9.40834 13.9221 10.569 13.6725 11.757" stroke="black" stroke-width="1.5" stroke-linecap="round"/>
<path d="M12.8061 5.33002C12.5507 5.87527 12.087 6.28613 11.612 6.53119C11.3764 6.65275 11.1585 6.7226 10.9906 6.75073C10.9014 6.76569 10.845 6.76603 10.8157 6.76463C10.7959 6.743 10.7601 6.69953 10.7144 6.62136C10.6286 6.47441 10.5427 6.26229 10.4853 6.00347C10.3695 5.48172 10.3882 4.86243 10.6436 4.31718C10.9038 3.76144 11.3594 3.34469 11.8201 3.10051C12.0492 2.97905 12.2607 2.91061 12.4255 2.88426C12.5517 2.86407 12.6173 2.87326 12.6367 2.87654C12.6517 2.88935 12.7008 2.93389 12.7661 3.04377C12.8513 3.18723 12.9341 3.39348 12.9875 3.64729C13.0949 4.15752 13.0664 4.77428 12.8061 5.33002Z" stroke="black" stroke-width="1.5"/>
</svg>
