<svg width="20" height="20" viewBox="0 0 20 20" fill="none" xmlns="http://www.w3.org/2000/svg">
<path d="M8.28587 5.85971C8.28587 5.85971 8.2858 10.8329 8.28587 12.4906C8.28592 13.5269 8.92842 14.5628 9.99999 14.5628C11.0716 14.5628 11.7141 13.5269 11.7141 12.4906C11.7141 10.8329 11.7141 6.68857 11.7141 5.03085C11.7141 3.37312 9.95584 2.43893 8.28587 2.54426C6.74623 2.64137 5.28615 3.37312 5.28615 5.03085C5.28615 6.68857 5.28583 10.004 5.28615 12.4906C5.28653 15.3722 7.02024 17.4638 9.99985 17.4638C12.9795 17.4638 14.7136 14.9772 14.7138 12.4906C14.7141 10.004 14.7138 5.85971 14.7138 5.85971" stroke="#151515" stroke-width="1.5" stroke-linecap="round" stroke-linejoin="round"/>
</svg>
