<svg width="20" height="20" viewBox="0 0 20 20" fill="none" xmlns="http://www.w3.org/2000/svg">
<path fill-rule="evenodd" clip-rule="evenodd" d="M7.84746 4.17425C7.61836 4.44395 7.57753 4.78966 7.57753 5.1655V5.60922C7.57753 5.81011 7.41467 5.97297 7.21378 5.97297H6.32633C6.12544 5.97297 5.96259 5.81011 5.96259 5.60922V5.1655C5.96259 4.73386 5.98834 3.86836 6.61665 3.12872C7.26043 2.37086 8.3634 1.93561 10.0665 1.93561C11.8301 1.93561 12.9044 2.50935 13.4921 3.33434C14.0369 4.09893 14.0377 4.91801 14.0379 5.15389C14.0379 5.15746 14.0379 5.1609 14.038 5.1642L14.0387 5.60792C14.039 5.80882 13.8764 5.97193 13.6755 5.97226L12.7881 5.97368C12.5872 5.974 12.424 5.8114 12.4237 5.61051L12.423 5.16679C12.4227 4.98439 12.4149 4.6055 12.1768 4.2714C11.9736 3.98613 11.4662 3.55055 10.0665 3.55055C8.60633 3.55055 8.06108 3.92278 7.84746 4.17425Z" fill="#151515"/>
<path d="M4.03314 15.0666L3.17733 10.1457C2.94518 8.81084 3.97267 7.58923 5.32755 7.58923H14.7816C16.099 7.58923 17.1161 8.74762 16.9457 10.054L16.3039 14.9749C16.1621 16.062 15.2359 16.8752 14.1397 16.8752H12.4224H7.57756H6.18336C5.12228 16.8752 4.21495 16.112 4.03314 15.0666Z" fill="#151515" stroke="#151515" stroke-width="1.5" stroke-linecap="round"/>
<path fill-rule="evenodd" clip-rule="evenodd" d="M13.4553 7.18549C13.7767 7.18549 14.0373 7.44606 14.0373 7.76748V9.0259C14.0373 9.34733 13.7767 9.6079 13.4553 9.6079H13.0044C12.6829 9.6079 12.4224 9.34733 12.4224 9.0259V7.76748C12.4224 7.44606 12.6829 7.18549 13.0044 7.18549H13.4553Z" fill="white"/>
<path fill-rule="evenodd" clip-rule="evenodd" d="M6.99553 7.18549C7.31696 7.18549 7.57753 7.44606 7.57753 7.76748V9.0259C7.57753 9.34733 7.31696 9.6079 6.99553 9.6079H6.54458C6.22316 9.6079 5.96259 9.34733 5.96259 9.0259V7.76748C5.96259 7.44606 6.22315 7.18549 6.54458 7.18549H6.99553Z" fill="white"/>
</svg>
