<svg width="20" height="20" viewBox="0 0 20 20" fill="none" xmlns="http://www.w3.org/2000/svg">
<path d="M6.53073 6.96445H7.39803H12.6019H13.4692M6.53073 6.96445H5.16652C3.61454 6.96445 2.43757 8.36377 2.70349 9.8928L3.56853 14.8668C3.77679 16.0643 4.81612 16.9384 6.03156 16.9384H7.39803H12.6019H14.3096C15.5653 16.9384 16.6262 16.007 16.7886 14.7618L17.4374 9.7878C17.6326 8.29136 16.4675 6.96445 14.9584 6.96445H13.4692M6.53073 6.96445C6.53073 6.96445 5.66343 3.06158 9.99994 3.06158C14.3365 3.06158 13.4692 6.96445 13.4692 6.96445M6.53073 6.96445V9.13271M13.4692 6.96445V9.13271" stroke="#151515" stroke-width="1.5" stroke-linecap="round"/>
</svg>
