<svg width="20" height="20" viewBox="0 0 20 20" fill="none" xmlns="http://www.w3.org/2000/svg">
<path d="M7.37306 8.90543V15.9107M7.37306 8.90543H12.627M7.37306 8.90543H4.7461M7.37306 15.9107H5.72894C5.39786 15.9107 5.09818 15.7147 4.96548 15.4113L2.62986 10.0728C2.38898 9.52221 2.79236 8.90543 3.39332 8.90543H4.7461M7.37306 15.9107H12.627M12.627 8.90543V15.9107M12.627 8.90543H15.2539M12.627 15.9107H14.6764C15.0238 15.9107 15.3347 15.6952 15.4567 15.3699L17.4587 10.0314C17.663 9.48658 17.2602 8.90543 16.6784 8.90543H15.2539M4.7461 8.90543L9.43692 4.60552C9.75552 4.31347 10.2445 4.31347 10.5631 4.60552L15.2539 8.90543" stroke="#151515" stroke-width="1.5" stroke-linecap="round"/>
</svg>
