<svg width="20" height="20" viewBox="0 0 20 20" fill="none" xmlns="http://www.w3.org/2000/svg">
<path d="M15 6.25L3.33329 6.25001C3.10317 6.25001 2.91663 6.43655 2.91663 6.66667V13.3333C2.91663 13.5635 3.10317 13.75 3.33329 13.75L15 13.75C15.2301 13.75 15.4166 13.5634 15.4166 13.3333V12.3809C15.4166 12.1508 15.6032 11.9643 15.8333 11.9643H16.6666C16.8967 11.9643 17.0833 11.7777 17.0833 11.5476V8.09524C17.0833 7.86512 16.8967 7.67857 16.6666 7.67857H15.8333C15.6032 7.67857 15.4166 7.49202 15.4166 7.2619V6.66667C15.4166 6.43655 15.2301 6.25 15 6.25Z" stroke="#151515" stroke-width="1.5" stroke-linecap="round" stroke-linejoin="round"/>
</svg>
