<svg width="20" height="20" viewBox="0 0 20 20" fill="none" xmlns="http://www.w3.org/2000/svg">
<path d="M15 6.25L3.33335 6.25001C3.10323 6.25001 2.91669 6.43655 2.91669 6.66667V13.3333C2.91669 13.5635 3.10324 13.75 3.33335 13.75L15 13.75C15.2301 13.75 15.4167 13.5634 15.4167 13.3333V12.3809C15.4167 12.1508 15.6032 11.9643 15.8333 11.9643H16.6667C16.8968 11.9643 17.0833 11.7777 17.0833 11.5476V8.09524C17.0833 7.86512 16.8968 7.67857 16.6667 7.67857H15.8333C15.6032 7.67857 15.4167 7.49202 15.4167 7.2619V6.66667C15.4167 6.43655 15.2301 6.25 15 6.25Z" stroke="#151515" stroke-width="1.5" stroke-linecap="round" stroke-linejoin="round"/>
<path d="M4.58331 8.74999C4.58331 8.28975 4.95641 7.91666 5.41665 7.91666H6.24998C6.71022 7.91666 7.08331 8.28975 7.08331 8.74999V11.25C7.08331 11.7102 6.71022 12.0833 6.24998 12.0833H5.41665C4.95641 12.0833 4.58331 11.7102 4.58331 11.25V8.74999Z" fill="#151515"/>
<path d="M7.91669 8.74999C7.91669 8.28975 8.28978 7.91666 8.75002 7.91666H9.58335C10.0436 7.91666 10.4167 8.28975 10.4167 8.74999V11.25C10.4167 11.7102 10.0436 12.0833 9.58335 12.0833H8.75002C8.28978 12.0833 7.91669 11.7102 7.91669 11.25V8.74999Z" fill="#151515"/>
</svg>
