<svg width="20" height="20" viewBox="0 0 20 20" fill="none" xmlns="http://www.w3.org/2000/svg">
<path d="M1.93567 3.00704C1.93567 2.4153 2.41536 1.93561 3.0071 1.93561H5.47246C6.0642 1.93561 6.54389 2.4153 6.54389 3.00704V5.4724C6.54389 6.06414 6.0642 6.54383 5.47246 6.54383H3.0071C2.41536 6.54383 1.93567 6.06414 1.93567 5.4724V3.00704Z" fill="#151515"/>
<path d="M1.93567 8.76734C1.93567 8.1756 2.41536 7.69591 3.0071 7.69591H5.47246C6.0642 7.69591 6.54389 8.1756 6.54389 8.76734V11.2327C6.54389 11.8244 6.0642 12.3041 5.47246 12.3041H3.0071C2.41536 12.3041 1.93567 11.8244 1.93567 11.2327V8.76734Z" fill="#151515"/>
<path d="M1.93567 14.5275C1.93567 13.9358 2.41536 13.4561 3.0071 13.4561H5.47246C6.0642 13.4561 6.54389 13.9358 6.54389 14.5275V16.9929C6.54389 17.5846 6.0642 18.0643 5.47246 18.0643H3.0071C2.41536 18.0643 1.93567 17.5846 1.93567 16.9929V14.5275Z" fill="#151515"/>
<path d="M7.69604 3.00704C7.69604 2.4153 8.17574 1.93561 8.76747 1.93561H11.2328C11.8246 1.93561 12.3043 2.4153 12.3043 3.00704V5.4724C12.3043 6.06414 11.8246 6.54383 11.2328 6.54383H8.76747C8.17574 6.54383 7.69604 6.06414 7.69604 5.4724V3.00704Z" fill="#151515"/>
<path d="M13.4562 3.00704C13.4562 2.4153 13.9359 1.93561 14.5276 1.93561H16.993C17.5847 1.93561 18.0644 2.4153 18.0644 3.00704V5.4724C18.0644 6.06414 17.5847 6.54383 16.993 6.54383H14.5276C13.9359 6.54383 13.4562 6.06414 13.4562 5.4724V3.00704Z" fill="#151515"/>
<path d="M7.69604 8.76734C7.69604 8.1756 8.17574 7.69591 8.76747 7.69591H11.2328C11.8246 7.69591 12.3043 8.1756 12.3043 8.76734V11.2327C12.3043 11.8244 11.8246 12.3041 11.2328 12.3041H8.76747C8.17574 12.3041 7.69604 11.8244 7.69604 11.2327V8.76734Z" fill="#151515"/>
<path d="M7.69604 14.5275C7.69604 13.9358 8.17574 13.4561 8.76747 13.4561H11.2328C11.8246 13.4561 12.3043 13.9358 12.3043 14.5275V16.9929C12.3043 17.5846 11.8246 18.0643 11.2328 18.0643H8.76747C8.17574 18.0643 7.69604 17.5846 7.69604 16.9929V14.5275Z" fill="#151515"/>
<path d="M13.4562 8.76734C13.4562 8.1756 13.9359 7.69591 14.5276 7.69591H16.993C17.5847 7.69591 18.0644 8.1756 18.0644 8.76734V11.2327C18.0644 11.8244 17.5847 12.3041 16.993 12.3041H14.5276C13.9359 12.3041 13.4562 11.8244 13.4562 11.2327V8.76734Z" fill="#151515"/>
<path d="M13.4562 14.5275C13.4562 13.9358 13.9359 13.4561 14.5276 13.4561H16.993C17.5847 13.4561 18.0644 13.9358 18.0644 14.5275V16.9929C18.0644 17.5846 17.5847 18.0643 16.993 18.0643H14.5276C13.9359 18.0643 13.4562 17.5846 13.4562 16.9929V14.5275Z" fill="#151515"/>
</svg>
