<svg width="20" height="20" viewBox="0 0 20 20" fill="none" xmlns="http://www.w3.org/2000/svg">
<path d="M6.30093 9.28688L7.4047 7.07935M7.4047 7.07935H12.9235M7.4047 7.07935L8.87639 12.2303L12.9235 7.07935M7.4047 7.07935L6.66886 5.23973M12.9235 7.07935L13.6594 9.28688M12.9235 7.07935L12.5556 6.3435L14.7632 5.97558V7.07935M7.77262 11.4944C7.77262 12.9168 6.61955 14.0699 5.19716 14.0699C3.77478 14.0699 2.6217 12.9168 2.6217 11.4944C2.6217 10.072 3.77478 8.91896 5.19716 8.91896C6.61955 8.91896 7.77262 10.072 7.77262 11.4944Z" stroke="#151515" stroke-width="1.5" stroke-linejoin="round"/>
<circle cx="14.7632" cy="11.4944" r="2.57546" stroke="#151515" stroke-width="1.5"/>
<path d="M6.3009 5.23973H8.14052" stroke="#151515" stroke-width="1.5" stroke-linecap="round"/>
</svg>
