<svg width="20" height="20" viewBox="0 0 20 20" fill="none" xmlns="http://www.w3.org/2000/svg">
<path d="M11.2988 12.1275H8.52649C8.35891 12.1275 8.20865 12.0271 8.15236 11.8693C8.05398 11.5934 7.88929 11.0929 7.69575 10.3494C7.36781 9.08966 6.2082 7.91882 6.5872 6.672C7.01933 5.2504 8.3518 4.57062 9.91257 4.57062C11.4733 4.57062 12.8058 5.2504 13.2379 6.672C13.6169 7.91882 12.4575 9.08966 12.1296 10.3494C11.936 11.0929 11.7713 11.5935 11.6729 11.8693C11.6166 12.0271 11.4664 12.1275 11.2988 12.1275Z" stroke="#151515" stroke-width="1.5" stroke-linecap="round"/>
<path d="M10.9128 13.6389H9.10124C8.87112 13.6389 8.68457 13.8254 8.68457 14.0556V14.9632C8.68457 15.0822 8.73547 15.1955 8.82442 15.2746L9.41632 15.8007C9.49259 15.8685 9.59109 15.906 9.69314 15.906H10.4012C10.5117 15.906 10.6177 15.8621 10.6958 15.7839L11.2074 15.2723C11.2856 15.1942 11.3295 15.0882 11.3295 14.9777V14.0556C11.3295 13.8254 11.1429 13.6389 10.9128 13.6389Z" stroke="#151515" stroke-width="1.5" stroke-linecap="round"/>
<path d="M15.9581 7.49466H17.4695" stroke="#151515" stroke-width="1.5" stroke-linecap="round"/>
<path d="M15.2025 4.84973L16.336 4.09404" stroke="#151515" stroke-width="1.5" stroke-linecap="round"/>
<path d="M15.2025 10.1395L16.336 10.8952" stroke="#151515" stroke-width="1.5" stroke-linecap="round"/>
<path d="M3.86707 7.49466H2.35569" stroke="#151515" stroke-width="1.5" stroke-linecap="round"/>
<path d="M4.6228 4.84973L3.48927 4.09404" stroke="#151515" stroke-width="1.5" stroke-linecap="round"/>
<path d="M4.6228 10.1395L3.48927 10.8952" stroke="#151515" stroke-width="1.5" stroke-linecap="round"/>
</svg>
