<svg width="20" height="20" viewBox="0 0 20 20" fill="none" xmlns="http://www.w3.org/2000/svg">
<path d="M11.7247 12.3276H8.27547C8.10789 12.3276 7.95756 12.2273 7.90048 12.0697C7.78502 11.751 7.57781 11.1322 7.33192 10.1876C6.93723 8.6714 5.54157 7.26223 5.99772 5.76161C6.51781 4.05064 8.12151 3.23248 9.99998 3.23248C11.8784 3.23248 13.4821 4.05064 14.0022 5.76161C14.4584 7.26223 13.063 8.6714 12.6683 10.1876C12.4224 11.1322 12.2151 11.751 12.0997 12.0697C12.0426 12.2273 11.8923 12.3276 11.7247 12.3276Z" stroke="#151515" stroke-width="1.5" stroke-linecap="round"/>
<path d="M11.2887 14.1466H8.9387C8.70858 14.1466 8.52203 14.3332 8.52203 14.5633V15.7786C8.52203 15.8976 8.57293 16.0109 8.66188 16.09L9.42683 16.7699C9.50311 16.8377 9.60161 16.8752 9.70365 16.8752H10.6232C10.7337 16.8752 10.8397 16.8313 10.9179 16.7531L11.5833 16.0877C11.6614 16.0096 11.7053 15.9036 11.7053 15.7931V14.5633C11.7053 14.3332 11.5188 14.1466 11.2887 14.1466Z" stroke="#151515" stroke-width="1.5" stroke-linecap="round"/>
</svg>
