<svg width="20" height="20" viewBox="0 0 20 20" fill="none" xmlns="http://www.w3.org/2000/svg">
<path d="M4.85291 3.72476C4.85291 3.2185 5.26331 2.8081 5.76957 2.8081H14.2304C14.7366 2.8081 15.147 3.2185 15.147 3.72476V16.3977C15.147 16.904 14.7366 17.3144 14.2304 17.3144H5.76957C5.26331 17.3144 4.85291 16.904 4.85291 16.3977V3.72476Z" stroke="black" stroke-width="1.5"/>
<path d="M10 9.21883H7.88485C7.42461 9.21883 7.05151 9.59192 7.05151 10.0522V12.1674M10 9.21883H12.1152C12.5755 9.21883 12.9486 9.59192 12.9486 10.0522V12.1674M10 9.21883V15.1159M10 15.1159H12.1152C12.5755 15.1159 12.9486 14.7428 12.9486 14.2826V12.1674M10 15.1159H7.88485C7.42461 15.1159 7.05151 14.7428 7.05151 14.2826V12.1674M7.05151 12.1674H12.9486" stroke="#151515" stroke-width="1.5" stroke-linecap="round"/>
<path d="M7.38025 5.42786C7.38025 5.3768 7.42163 5.33542 7.47269 5.33542H12.5273C12.5784 5.33542 12.6198 5.3768 12.6198 5.42786V7.11273C12.6198 7.16378 12.5784 7.20517 12.5273 7.20517H7.47269C7.42163 7.20517 7.38025 7.16378 7.38025 7.11273V5.42786Z" stroke="#151515" stroke-width="1.5"/>
</svg>
