<svg width="20" height="20" viewBox="0 0 20 20" fill="none" xmlns="http://www.w3.org/2000/svg">
<path d="M5.7699 2.8081H14.2308C14.7369 2.80835 15.1469 3.21899 15.1469 3.72509V16.3979C15.1467 16.904 14.7368 17.3137 14.2308 17.314H5.7699C5.2637 17.314 4.85301 16.9041 4.85291 16.3979V3.72509C4.85291 3.21883 5.26364 2.8081 5.7699 2.8081Z" stroke="black" stroke-width="1.5"/>
<path d="M10 9.21883H7.88485C7.42461 9.21883 7.05151 9.59192 7.05151 10.0522V12.1674M10 9.21883H12.1152C12.5755 9.21883 12.9486 9.59192 12.9486 10.0522V12.1674M10 9.21883V15.1159M10 15.1159H12.1152C12.5755 15.1159 12.9486 14.7428 12.9486 14.2826V12.1674M10 15.1159H7.88485C7.42461 15.1159 7.05151 14.7428 7.05151 14.2826V12.1674M7.05151 12.1674H12.9486" stroke="#151515" stroke-width="1.5" stroke-linecap="round"/>
<path d="M7.47302 5.33542H12.5277C12.5786 5.33563 12.6195 5.37727 12.6195 5.42819V7.11276C12.6195 7.16367 12.5786 7.20532 12.5277 7.20554H7.47302C7.42198 7.20554 7.38027 7.1638 7.38025 7.11276V5.42819C7.38025 5.37714 7.42197 5.33542 7.47302 5.33542Z" stroke="#151515" stroke-width="1.5"/>
</svg>
