<svg width="20" height="20" viewBox="0 0 20 20" fill="none" xmlns="http://www.w3.org/2000/svg">
<path d="M12.7683 5.62942H3.953C3.26265 5.62942 2.703 6.18906 2.703 6.87942V13.9539C2.703 14.6443 3.26265 15.2039 3.953 15.2039H12.7683C13.4587 15.2039 14.0183 14.6443 14.0183 13.9539V12.4006C14.0183 12.2835 14.1358 12.2029 14.2451 12.2451L16.9551 13.2923C17.2281 13.3978 17.522 13.1964 17.522 12.9037V7.97839C17.522 7.66589 17.1908 7.46461 16.9134 7.60856L14.2617 8.98471C14.1508 9.04229 14.0183 8.96177 14.0183 8.83678V6.87942C14.0183 6.18906 13.4587 5.62942 12.7683 5.62942Z" stroke="#151515" stroke-width="1.5" stroke-linecap="round"/>
</svg>
