<svg width="20" height="20" viewBox="0 0 20 20" fill="none" xmlns="http://www.w3.org/2000/svg">
<circle cx="6.74958" cy="13.7148" r="1.57172" stroke="#151515" stroke-width="1.5"/>
<circle cx="13.2503" cy="13.7148" r="1.57172" stroke="#151515" stroke-width="1.5"/>
<path d="M4.42781 13.2505V13.2505C3.40201 13.2505 2.57043 12.4189 2.57043 11.3931V10.9287C2.57043 9.64649 3.6099 8.60703 4.89215 8.60703H15.1077C16.39 8.60703 17.4294 9.64649 17.4294 10.9287V10.9287C17.4294 12.211 16.39 13.2505 15.1077 13.2505V13.2505" stroke="#151515" stroke-width="1.5" stroke-linecap="round"/>
<path d="M8.1427 3.96354L8.14271 8.60704M8.1427 3.96354C8.1427 3.96354 7.21404 3.96358 6.28535 3.96358C5.35666 3.96358 4.69951 4.47246 4.30482 5.43102C3.91013 6.38957 3.96361 8.60704 3.96361 8.60704H8.14271M8.1427 3.96354C8.1427 3.96354 9.07142 3.96353 10.0001 3.96347C10.9288 3.96341 11.5644 4.88437 11.7618 5.43102C12.3218 6.98162 12.3218 8.60704 12.3218 8.60704H8.14271" stroke="#151515" stroke-width="1.5" stroke-linecap="round"/>
<path d="M8.60693 13.7148H11.393" stroke="#151515" stroke-width="1.5"/>
</svg>
