<svg width="20" height="20" viewBox="0 0 20 20" fill="none" xmlns="http://www.w3.org/2000/svg">
<path d="M16.6 13.9749L11.8 7.97474L7.79998 11.1749L3.39998 5.97467" stroke="#151515" stroke-width="1.5" stroke-linecap="round" stroke-linejoin="round"/>
<ellipse cx="1.6" cy="1.60006" rx="1.6" ry="1.60006" transform="matrix(-1 0 0 1 13.3999 5.97467)" fill="#151515"/>
<path d="M6.34981 11.6252C6.34981 12.5089 7.06615 13.2253 7.94981 13.2253C8.83346 13.2253 9.5498 12.5089 9.5498 11.6252C9.5498 10.7415 8.83346 10.0251 7.94981 10.0251C7.06615 10.0251 6.34981 10.7415 6.34981 11.6252Z" fill="#151515"/>
<ellipse cx="1.6" cy="1.60006" rx="1.6" ry="1.60006" transform="matrix(-1 0 0 1 18.2 12.3748)" fill="#151515"/>
<path d="M1.8 6.02509C1.8 6.90878 2.51635 7.62515 3.4 7.62515C4.28366 7.62515 5 6.90878 5 6.02509C5 5.1414 4.28366 4.42503 3.4 4.42503C2.51635 4.42503 1.8 5.1414 1.8 6.02509Z" fill="#151515"/>
<path d="M6.20003 11.5748C6.20003 12.4585 6.91637 13.1749 7.80002 13.1749C8.68368 13.1749 9.40002 12.4585 9.40002 11.5748C9.40002 10.6911 8.68368 9.97476 7.80002 9.97476C6.91637 9.97476 6.20003 10.6911 6.20003 11.5748Z" fill="#151515"/>
</svg>
