<svg width="20" height="20" viewBox="0 0 20 20" fill="none" xmlns="http://www.w3.org/2000/svg">
<path d="M3.40088 13.9743L8.20022 7.9751L12.1997 11.1747L16.5991 5.97537" stroke="#151515" stroke-width="1.5" stroke-linecap="round" stroke-linejoin="round"/>
<circle cx="8.20024" cy="7.57515" r="1.59978" fill="#151515"/>
<path d="M13.6498 11.625C13.6498 12.5085 12.9335 13.2248 12.05 13.2248C11.1664 13.2248 10.4502 12.5085 10.4502 11.625C10.4502 10.7415 11.1664 10.0252 12.05 10.0252C12.9335 10.0252 13.6498 10.7415 13.6498 11.625Z" fill="#151515"/>
<circle cx="3.40093" cy="13.9742" r="1.59978" fill="#151515"/>
<path d="M18.199 6.02576C18.199 6.9093 17.4827 7.62554 16.5992 7.62554C15.7156 7.62554 14.9994 6.9093 14.9994 6.02576C14.9994 5.14223 15.7156 4.42598 16.5992 4.42598C17.4827 4.42598 18.199 5.14223 18.199 6.02576Z" fill="#151515"/>
<path d="M13.7995 11.5746C13.7995 12.4581 13.0833 13.1744 12.1998 13.1744C11.3162 13.1744 10.6 12.4581 10.6 11.5746C10.6 10.691 11.3162 9.97479 12.1998 9.97479C13.0833 9.97479 13.7995 10.691 13.7995 11.5746Z" fill="#151515"/>
</svg>
