<svg width="20" height="20" viewBox="0 0 20 20" fill="none" xmlns="http://www.w3.org/2000/svg">
<path fill-rule="evenodd" clip-rule="evenodd" d="M13.2392 5.73864C13.5162 5.44057 13.9835 5.42688 14.2774 5.70822L17.759 9.04101C18.2806 9.54177 18.2806 10.3832 17.759 10.884L14.2774 14.2168C13.9835 14.4981 13.5162 14.4844 13.2392 14.1864C12.9684 13.8948 12.9814 13.4399 13.2684 13.1643L16.0438 10.5C16.3492 10.2068 16.3492 9.71825 16.0438 9.42502L13.2684 6.7607C12.9814 6.4851 12.9684 6.03019 13.2392 5.73864Z" fill="#151515"/>
<path fill-rule="evenodd" clip-rule="evenodd" d="M6.41055 14.1864C6.13363 14.4844 5.6663 14.4981 5.3724 14.2168L1.89081 10.884C1.36919 10.3832 1.36919 9.54176 1.89081 9.041L5.3724 5.70822C5.6663 5.42688 6.13363 5.44057 6.41056 5.73865C6.68142 6.0302 6.66842 6.48511 6.38134 6.76071L3.60603 9.42503C3.30059 9.71825 3.30059 10.2068 3.60603 10.5L6.38134 13.1643C6.66842 13.4399 6.68142 13.8948 6.41055 14.1864Z" fill="#151515"/>
<path d="M10.7487 3.13293C10.8039 2.90953 11.0297 2.77315 11.2531 2.82833L12.0622 3.02815C12.2856 3.08333 12.4219 3.30916 12.3668 3.53257L9.25124 16.1468C9.19606 16.3702 8.97022 16.5066 8.74682 16.4514L7.93779 16.2516C7.71439 16.1964 7.57801 15.9706 7.63319 15.7472L10.7487 3.13293Z" fill="#151515"/>
</svg>
