<svg width="20" height="20" viewBox="0 0 20 20" fill="none" xmlns="http://www.w3.org/2000/svg">
<path d="M10.177 4.35345H3.84546C3.1551 4.35345 2.59546 4.9131 2.59546 5.60345V16.1004C2.59546 16.7908 3.1551 17.3504 3.84546 17.3504H14.3424C15.0328 17.3504 15.5924 16.7908 15.5924 16.1004V10.8519" stroke="#151515" stroke-width="1.5" stroke-linecap="round"/>
<path fill-rule="evenodd" clip-rule="evenodd" d="M18.0287 3.14981C18.3541 2.82435 18.3541 2.29671 18.0286 1.9713C17.7032 1.64589 17.1755 1.64593 16.8501 1.97139L16.5275 2.29408C16.2021 2.61952 16.2021 3.14712 16.5275 3.47254C16.853 3.798 17.3807 3.79798 17.7061 3.4725L18.0287 3.14981ZM15.6438 4.35658C15.9692 4.682 15.9692 5.2096 15.6438 5.53505L7.46165 13.7185C7.13624 14.0439 6.6086 14.044 6.28314 13.7186C5.95768 13.3931 5.95764 12.8655 6.28305 12.54L14.4652 4.35662C14.7907 4.03114 15.3183 4.03113 15.6438 4.35658Z" fill="#151515"/>
</svg>
