<svg width="20" height="20" viewBox="0 0 20 20" fill="none" xmlns="http://www.w3.org/2000/svg">
<path d="M17.4041 14.6333L5.32072 14.6333M5.32072 14.6333L5.32073 2.54993M5.32072 14.6333L17.4041 2.54993" stroke="black" stroke-width="1.5" stroke-linecap="round" stroke-linejoin="round"/>
<path fill-rule="evenodd" clip-rule="evenodd" d="M15.2689 14.0083H14.0189V17.4394C14.0189 17.7846 14.2987 18.0644 14.6439 18.0644C14.9891 18.0644 15.2689 17.7846 15.2689 17.4394V14.0083ZM15.2689 12.7583V6.18939C15.2689 5.38398 14.616 4.73106 13.8106 4.73106H7.19167V5.98106H13.8106C13.9256 5.98106 14.0189 6.07434 14.0189 6.18939V12.7583H15.2689ZM5.94167 5.98106V4.73106H2.56058C2.2154 4.73106 1.93558 5.01088 1.93558 5.35606C1.93558 5.70124 2.2154 5.98106 2.56058 5.98106H5.94167Z" fill="black"/>
</svg>
