<svg width="20" height="20" viewBox="0 0 20 20" fill="none" xmlns="http://www.w3.org/2000/svg">
<circle cx="10" cy="10" r="7.58333" stroke="#151515" stroke-width="1.5"/>
<path fill-rule="evenodd" clip-rule="evenodd" d="M12.6913 8.27937C12.9593 8.01134 12.9593 7.57679 12.6913 7.30877C12.4232 7.04075 11.9887 7.04075 11.7207 7.30877L10 9.02942L8.27941 7.30882C8.01139 7.0408 7.57683 7.0408 7.30881 7.30882C7.04079 7.57684 7.04079 8.01139 7.30881 8.27942L9.02941 10L7.30886 11.7206C7.04084 11.9886 7.04084 12.4231 7.30886 12.6912C7.57689 12.9592 8.01144 12.9592 8.27946 12.6912L10 10.9706L11.7206 12.6912C11.9886 12.9592 12.4232 12.9592 12.6912 12.6912C12.9592 12.4232 12.9592 11.9886 12.6912 11.7206L10.9706 10L12.6913 8.27937Z" fill="#151515"/>
</svg>
