<svg width="20" height="20" viewBox="0 0 20 20" fill="none" xmlns="http://www.w3.org/2000/svg">
<path fill-rule="evenodd" clip-rule="evenodd" d="M17.9235 4.36935C18.175 4.73263 18.0809 5.22863 17.7133 5.47719L11.0249 10L17.7133 14.5228C18.0809 14.7714 18.175 15.2674 17.9235 15.6306C17.672 15.9939 17.1701 16.0869 16.8026 15.8384L9.60672 10.9724L7.48618 12.4694C7.54786 12.6987 7.58073 12.9396 7.58073 13.188C7.58073 14.7287 6.31704 15.9776 4.7582 15.9776C3.19936 15.9776 1.93567 14.7287 1.93567 13.188C1.93567 11.6474 3.19936 10.3985 4.7582 10.3985C5.48084 10.3985 6.14005 10.6669 6.63935 11.1083L8.20934 10L6.63932 8.89166C6.14003 9.33308 5.48083 9.60147 4.7582 9.60147C3.19936 9.60147 1.93567 8.35255 1.93567 6.81192C1.93567 5.2713 3.19936 4.02238 4.7582 4.02238C6.31704 4.02238 7.58073 5.2713 7.58073 6.81192C7.58073 7.0604 7.54786 7.3013 7.48617 7.53058L9.60672 9.02756L16.8026 4.16163C17.1701 3.91307 17.672 4.00607 17.9235 4.36935ZM10.4032 10C10.4032 10.4402 10.0422 10.797 9.59678 10.797C9.1514 10.797 8.79035 10.4402 8.79035 10C8.79035 9.55982 9.1514 9.20298 9.59678 9.20298C10.0422 9.20298 10.4032 9.55982 10.4032 10ZM3.54854 13.188C3.54854 13.8483 4.09012 14.3835 4.7582 14.3835C5.42627 14.3835 5.96785 13.8483 5.96785 13.188C5.96785 12.5278 5.42627 11.9925 4.7582 11.9925C4.09012 11.9925 3.54854 12.5278 3.54854 13.188ZM3.54854 6.81192C3.54854 7.47219 4.09012 8.00744 4.7582 8.00744C5.42627 8.00744 5.96785 7.47219 5.96785 6.81192C5.96785 6.15166 5.42627 5.6164 4.7582 5.6164C4.09012 5.6164 3.54854 6.15166 3.54854 6.81192Z" fill="#151515"/>
</svg>
