<svg width="20" height="20" viewBox="0 0 20 20" fill="none" xmlns="http://www.w3.org/2000/svg">
<path d="M3.15269 5.21896C7.54642 1.87981 12.9811 1.93132 16.8878 5.30803C17.2143 5.59027 17.2266 6.08484 16.9367 6.40466L15.164 8.36069C14.9312 8.6176 14.5602 8.69682 14.2427 8.55741L13.1038 8.05722C12.7364 7.89589 12.5436 7.48893 12.6515 7.1025L13.0982 5.50263C13.2407 4.99231 12.8605 4.48568 12.3307 4.47993L7.63258 4.42898C7.10707 4.42328 6.71676 4.91394 6.8405 5.42471L7.25203 7.12331C7.34363 7.50143 7.15206 7.89101 6.79668 8.04933L5.66511 8.55343C5.33629 8.69991 4.95019 8.61059 4.71912 8.33457L3.04296 6.33241C2.75922 5.99348 2.80076 5.48641 3.15269 5.21896Z" fill="#151515"/>
<path d="M3.15269 5.21896C7.54642 1.87981 12.9811 1.93132 16.8878 5.30803C17.2143 5.59027 17.2266 6.08484 16.9367 6.40466L15.164 8.36069C14.9312 8.6176 14.5602 8.69682 14.2427 8.55741L13.1038 8.05722C12.7364 7.89589 12.5436 7.48893 12.6515 7.1025L13.0982 5.50263C13.2407 4.99231 12.8605 4.48568 12.3307 4.47993L7.63258 4.42898C7.10707 4.42328 6.71676 4.91394 6.8405 5.42471L7.25203 7.12331C7.34363 7.50143 7.15206 7.89101 6.79668 8.04933L5.66511 8.55343C5.33629 8.69991 4.95019 8.61059 4.71912 8.33457L3.04296 6.33241C2.75922 5.99348 2.80076 5.48641 3.15269 5.21896Z" stroke="#151515" stroke-width="1.5" stroke-linecap="round" stroke-linejoin="round"/>
<circle cx="10.2711" cy="13.3653" r="1.91072" stroke="#151515" stroke-width="1.5"/>
<path d="M10.846 9.47754H9.35419C8.77411 9.47754 6.97134 9.37669 6.58052 10.5491L5.25894 14.8473C4.89937 15.9504 5.42503 17.2552 6.66076 17.2552H13.8933C15.1564 17.2552 15.6555 15.9772 15.2637 14.7944L13.5775 10.5491C13.1867 9.47754 11.4041 9.47754 10.846 9.47754Z" stroke="#151515" stroke-width="1.5" stroke-linecap="round" stroke-linejoin="round"/>
</svg>
