<svg width="20" height="20" viewBox="0 0 20 20" fill="none" xmlns="http://www.w3.org/2000/svg">
<path d="M8.32402 11.8511L6.99377 6.34005H8.32402L8.50874 7.87054L8.98915 11.8511H8.32402Z" fill="#151515"/>
<path d="M16.6381 14.951L14.9753 15.9844L12.9799 11.8511H8.98915M8.98915 11.8511H8.32402L6.99377 6.34005H8.32402L8.50874 7.87054M8.98915 11.8511L8.50874 7.87054M8.50874 7.87054H11.445" stroke="#151515" stroke-width="1.5" stroke-linecap="round" stroke-linejoin="round"/>
<path fill-rule="evenodd" clip-rule="evenodd" d="M13.044 15.1209C12.7446 14.8216 12.2295 14.9268 11.9825 15.2706C11.3111 16.2055 10.2145 16.8144 8.97572 16.8144C6.93258 16.8144 5.27628 15.1581 5.27628 13.115C5.27628 12.0812 5.70031 11.1465 6.38392 10.4752C6.57826 10.2843 6.67347 10.0061 6.5952 9.7452C6.47069 9.33016 5.98312 9.14875 5.66138 9.43902C4.65736 10.3449 4.02628 11.6562 4.02628 13.115C4.02628 15.8485 6.24222 18.0644 8.97572 18.0644C10.7176 18.0644 12.2492 17.1646 13.1313 15.8045C13.2722 15.5872 13.2271 15.304 13.044 15.1209Z" fill="#151515"/>
<path d="M7.73535 2.68558C8.14047 2.68558 8.46954 3.0139 8.46973 3.41898C8.46973 3.82421 8.14059 4.15335 7.73535 4.15335C7.33028 4.15317 7.00195 3.8241 7.00195 3.41898C7.00214 3.01401 7.33039 2.68576 7.73535 2.68558Z" fill="#151515" stroke="#151515" stroke-width="1.5"/>
</svg>
