<svg width="20" height="20" viewBox="0 0 20 20" fill="none" xmlns="http://www.w3.org/2000/svg">
<path d="M6.70874 2.78705H13.365C14.3315 2.78705 15.115 3.57055 15.115 4.53705V15.5644C15.115 16.5309 14.3315 17.3144 13.365 17.3144H6.70874C5.74224 17.3144 4.95874 16.5309 4.95874 15.5644V4.53705C4.95874 3.57055 5.74224 2.78705 6.70874 2.78705Z" stroke="#151515" stroke-width="1.5"/>
<path d="M4.93726 7.13666L15.1365 7.13666" stroke="#151515" stroke-width="1.5" stroke-linecap="round"/>
<path d="M6.39429 4.95111C6.39429 4.54876 6.72045 4.2226 7.1228 4.2226H12.9509C13.3533 4.2226 13.6794 4.54876 13.6794 4.95111C13.6794 5.35346 13.3533 5.67963 12.9509 5.67963H7.1228C6.72046 5.67963 6.39429 5.35346 6.39429 4.95111Z" fill="#151515"/>
</svg>
