<svg width="20" height="20" viewBox="0 0 20 20" fill="none" xmlns="http://www.w3.org/2000/svg">
<path d="M5.95686 9.13531L5.14981 12.1617M5.95686 9.13531L9.58854 10.4323M5.95686 9.13531H5.14981L4.34277 12.1617H5.14981M5.14981 12.1617L7.36918 11.297L10.3956 13.4587" stroke="#151515" stroke-width="1.5" stroke-linecap="round" stroke-linejoin="round"/>
<path d="M14.2277 11.9342L10.4235 13.4588H4.95643H4.31092M4.31092 13.4588H2.6134V15.1882L4.31092 13.4588Z" stroke="#151515" stroke-width="1.5" stroke-linecap="round" stroke-linejoin="round"/>
<path d="M14.6513 12.3804C14.9347 12.5834 15.282 12.7029 15.6572 12.7029C15.9722 12.7029 16.2675 12.6187 16.5219 12.4715M14.6513 12.3804C14.2133 12.0666 13.9278 11.5534 13.9278 10.9735C13.9278 10.7579 13.9673 10.5514 14.0394 10.361M14.6513 12.3804L16.0896 14.8646L16.5219 12.4715M16.5219 12.4715C17.0388 12.1725 17.3866 11.6136 17.3866 10.9735C17.3866 10.0184 16.6123 9.24415 15.6572 9.24415C14.9178 9.24415 14.2867 9.70824 14.0394 10.361M14.0394 10.361L11.7661 9.24415V7.94712" stroke="#151515" stroke-width="1.5" stroke-linecap="round" stroke-linejoin="round"/>
<path d="M7.05148 6.10891C7.05148 6.41102 6.80656 6.65594 6.50445 6.65594C6.20233 6.65594 5.95742 6.41102 5.95742 6.10891C5.95742 5.80679 6.20233 5.56188 6.50445 5.56188C6.80656 5.56188 7.05148 5.80679 7.05148 6.10891Z" fill="#151515" stroke="#151515" stroke-width="1.5"/>
<path d="M4.34277 12.594H5.20746" stroke="#151515" stroke-width="1.5" stroke-linecap="round" stroke-linejoin="round"/>
<path d="M5.20746 13.1775V12.4542H4.34277V13.1775H5.20746Z" fill="#151515" stroke="#151515" stroke-width="1.5" stroke-linecap="round" stroke-linejoin="round"/>
</svg>
