<svg width="20" height="20" viewBox="0 0 20 20" fill="none" xmlns="http://www.w3.org/2000/svg">
<path d="M2.68567 8.10124C2.68567 7.13474 3.46917 6.35124 4.43567 6.35124H15.5645C16.531 6.35124 17.3145 7.13474 17.3145 8.10124V11.8988C17.3145 12.8653 16.531 13.6488 15.5645 13.6488H4.43567C3.46917 13.6488 2.68567 12.8653 2.68567 11.8988V8.10124Z" stroke="black" stroke-width="1.5"/>
<path d="M6.29667 8.35398H4.89235C4.8003 8.35398 4.72568 8.4286 4.72568 8.52065V10.1868M6.29667 12.0196H4.89235C4.8003 12.0196 4.72568 11.945 4.72568 11.8529V10.1868M4.72568 10.1868H6.29667M10.2241 8.35398L7.4749 12.0196M7.4749 8.35398L10.2241 12.0196M11.4024 8.35398V12.0196M12.5806 8.35398H14.1516M15.7226 8.35398H14.1516M14.1516 8.35398V12.0196" stroke="#151515" stroke-width="1.5" stroke-linecap="round"/>
</svg>
