<svg width="20" height="20" viewBox="0 0 20 20" fill="none" xmlns="http://www.w3.org/2000/svg">
<path d="M4.43567 6.35124H15.5646C16.531 6.35131 17.3146 7.13478 17.3146 8.10124V11.8991C17.3144 12.8654 16.5309 13.649 15.5646 13.6491H4.43567C3.46928 13.6491 2.68585 12.8654 2.68567 11.8991V8.10124C2.68567 7.13474 3.46917 6.35124 4.43567 6.35124Z" stroke="black" stroke-width="1.5"/>
<path d="M6.29667 8.35398H4.89235C4.8003 8.35398 4.72568 8.4286 4.72568 8.52065V10.1868M6.29667 12.0196H4.89235C4.8003 12.0196 4.72568 11.945 4.72568 11.8529V10.1868M4.72568 10.1868H6.29667M10.2241 8.35398L7.4749 12.0196M7.4749 8.35398L10.2241 12.0196M11.4024 8.35398V12.0196M12.5806 8.35398H14.1516M15.7226 8.35398H14.1516M14.1516 8.35398V12.0196" stroke="#151515" stroke-width="1.5" stroke-linecap="round"/>
</svg>
