<svg width="20" height="20" viewBox="0 0 20 20" fill="none" xmlns="http://www.w3.org/2000/svg">
<path fill-rule="evenodd" clip-rule="evenodd" d="M3.33336 7.38963L8.63098 10.4482L3.33336 13.5068L3.33336 7.38963ZM9.62303 11.3188V14.2285C9.62303 14.87 10.3175 15.2709 10.873 14.9502L17.4206 11.1699C17.9762 10.8491 17.9762 10.0473 17.4206 9.72651L10.873 5.94624C10.3175 5.62549 9.62303 6.02643 9.62303 6.66793V9.5776L3.33336 5.94625C2.77781 5.6255 2.08336 6.02644 2.08336 6.66794L2.08336 14.2285C2.08336 14.87 2.7778 15.2709 3.33336 14.9502L9.62303 11.3188ZM10.873 7.38962L16.1706 10.4482L10.873 13.5068V7.38962Z" fill="#151515"/>
</svg>
