<svg width="20" height="20" viewBox="0 0 20 20" fill="none" xmlns="http://www.w3.org/2000/svg">
<path d="M2.85925 15.8478L2.1629 15.5693C2.01092 15.9492 2.19155 16.3808 2.56883 16.5393L2.85925 15.8478ZM17.1407 15.8478L17.4311 16.5393C17.8123 16.3792 17.992 15.9408 17.8329 15.5591L17.1407 15.8478ZM6.42961 7.51697L7.01292 7.04554C6.85825 6.85417 6.61955 6.75083 6.37416 6.76903C6.12877 6.78722 5.90791 6.92462 5.78316 7.13671L6.42961 7.51697ZM8.80984 12.0989L8.09327 12.3203C8.19124 12.6374 8.48598 12.8524 8.81785 12.8489C9.14973 12.8453 9.43981 12.6241 9.53099 12.305L8.80984 12.0989ZM9.99996 3.35156L9.32914 3.68698V3.68698L9.99996 3.35156ZM7.61973 9.18314L6.9717 9.56072L7.61973 9.18314ZM13.967 9.18314L14.6171 8.80909L13.967 9.18314ZM11.7851 11.4444L12.4457 11.0892C12.2994 10.817 12.0011 10.6625 11.6943 10.6999C11.3875 10.7373 11.1351 10.9591 11.0585 11.2585L11.7851 11.4444ZM6.8759 13.8246L7.57482 13.5525C7.47238 13.2894 7.23084 13.1061 6.94984 13.0783C6.66884 13.0504 6.39602 13.1828 6.24395 13.4207L6.8759 13.8246ZM7.96959 16.6342L7.93361 17.3833L7.96959 16.6342ZM6.42961 7.51697C5.8463 7.98841 5.84628 7.98838 5.84626 7.98836C5.84626 7.98836 5.84625 7.98834 5.84624 7.98834C5.84624 7.98833 5.84624 7.98834 5.84626 7.98836C5.8463 7.98841 5.84638 7.98851 5.84651 7.98867C5.84676 7.98899 5.84721 7.98953 5.84783 7.99031C5.84908 7.99186 5.85106 7.99432 5.85373 7.99764C5.85906 8.00429 5.86716 8.01439 5.87773 8.02765C5.89888 8.05419 5.92991 8.0933 5.96855 8.14257C6.04594 8.24125 6.15331 8.37996 6.27275 8.53946C6.51648 8.8649 6.79238 9.25295 6.9717 9.56072L8.26775 8.80556C8.04282 8.41952 7.72366 7.97449 7.47339 7.6403C7.34584 7.46998 7.23147 7.32224 7.14888 7.21692C7.10753 7.16419 7.074 7.12192 7.0506 7.09257C7.03889 7.07789 7.02971 7.06642 7.02334 7.05849C7.02015 7.05452 7.01766 7.05143 7.01592 7.04926C7.01504 7.04817 7.01435 7.04732 7.01385 7.0467C7.0136 7.04639 7.0134 7.04613 7.01324 7.04594C7.01316 7.04584 7.0131 7.04576 7.01304 7.0457C7.01302 7.04566 7.01298 7.04562 7.01297 7.04561C7.01294 7.04557 7.01292 7.04554 6.42961 7.51697ZM6.9717 9.56072C7.24499 10.0298 7.5242 10.7074 7.74219 11.2973C7.849 11.5863 7.9373 11.8438 7.99882 12.0287C8.02954 12.121 8.05346 12.195 8.06957 12.2453C8.07762 12.2705 8.08371 12.2898 8.0877 12.3025C8.0897 12.3089 8.09117 12.3136 8.0921 12.3166C8.09257 12.3181 8.0929 12.3192 8.0931 12.3198C8.09319 12.3201 8.09326 12.3203 8.09329 12.3204C8.0933 12.3204 8.09331 12.3205 8.0933 12.3204C8.0933 12.3204 8.09329 12.3204 8.09329 12.3204C8.09328 12.3204 8.09327 12.3203 8.80984 12.0989C9.52642 11.8775 9.5264 11.8775 9.52638 11.8774C9.52637 11.8774 9.52635 11.8773 9.52633 11.8772C9.52629 11.8771 9.52625 11.877 9.52619 11.8768C9.52608 11.8764 9.52593 11.876 9.52575 11.8754C9.52539 11.8742 9.52489 11.8726 9.52425 11.8705C9.52297 11.8664 9.52114 11.8606 9.51878 11.8531C9.51406 11.838 9.50721 11.8163 9.49835 11.7886C9.48064 11.7332 9.45488 11.6537 9.42213 11.5552C9.35671 11.3585 9.26294 11.0852 9.14919 10.7773C8.92605 10.1735 8.6102 9.39329 8.26775 8.80556L6.9717 9.56072ZM9.53099 12.305C9.95468 10.822 9.94058 11.421 10.7296 8.10723L9.27036 7.7598C8.47251 11.1107 8.59455 10.1224 8.0887 11.8929L9.53099 12.305ZM10.7296 8.10723C11.1267 6.4391 11.2721 5.43432 11.2244 4.70126C11.1729 3.90967 10.889 3.45248 10.6708 3.01614L9.32914 3.68698C9.58702 4.20271 9.69973 4.37033 9.72759 4.79862C9.75925 5.28543 9.6666 6.0956 9.27036 7.7598L10.7296 8.10723ZM10.6708 3.01614C10.6723 3.01921 10.6787 3.03195 10.6865 3.05109C10.6904 3.06069 10.7136 3.11627 10.7273 3.19378C10.7336 3.22929 10.7479 3.32175 10.7292 3.43882C10.7101 3.55914 10.6365 3.80376 10.3789 3.96029C10.1356 4.10816 9.90127 4.06989 9.8088 4.04668C9.70851 4.02151 9.63772 3.98122 9.60919 3.96415C9.54791 3.92749 9.50778 3.89077 9.49993 3.88366C9.48556 3.87066 9.4763 3.86102 9.47391 3.85852C9.46892 3.8533 9.47035 3.85445 9.4806 3.86654C9.52349 3.91715 9.60897 4.02636 9.73579 4.19575C9.98353 4.52667 10.3518 5.0372 10.7719 5.63878C11.6146 6.84561 12.6445 8.38848 13.317 9.55719L14.6171 8.80909C13.9112 7.58237 12.8512 5.99657 12.0017 4.78002C11.5757 4.16991 11.1973 3.64508 10.9366 3.29678C10.8091 3.12656 10.6999 2.9852 10.6249 2.89675C10.6057 2.87407 10.5825 2.84742 10.5579 2.82173C10.5549 2.81854 10.483 2.73899 10.3794 2.67699C10.3486 2.65855 10.2758 2.61737 10.1739 2.59179C10.0798 2.56818 9.84421 2.52999 9.59994 2.67843C9.34143 2.83553 9.26726 3.0812 9.24787 3.20308C9.22899 3.3217 9.24338 3.41622 9.2501 3.45429C9.27278 3.58289 9.32847 3.68563 9.32914 3.68698L10.6708 3.01614ZM13.317 9.55719C14.0145 10.7695 14.7957 12.4083 15.4082 13.7592C15.713 14.4315 15.9735 15.0267 16.1576 15.4537C16.2497 15.6672 16.3226 15.8384 16.3725 15.956C16.3974 16.0148 16.4165 16.0602 16.4293 16.0908C16.4357 16.1061 16.4406 16.1176 16.4438 16.1253C16.4454 16.1291 16.4466 16.132 16.4474 16.1339C16.4477 16.1348 16.448 16.1355 16.4482 16.1359C16.4483 16.1361 16.4484 16.1363 16.4484 16.1364C16.4484 16.1364 16.4484 16.1364 16.4484 16.1365C16.4484 16.1365 16.4484 16.1365 17.1407 15.8478C17.8329 15.5591 17.8329 15.5591 17.8329 15.559C17.8328 15.559 17.8328 15.5589 17.8328 15.5588C17.8327 15.5587 17.8326 15.5585 17.8325 15.5582C17.8322 15.5576 17.8319 15.5568 17.8314 15.5557C17.8305 15.5535 17.8292 15.5503 17.8275 15.5462C17.824 15.5379 17.8189 15.5257 17.8122 15.5098C17.7989 15.478 17.7792 15.4313 17.7537 15.3711C17.7027 15.2508 17.6285 15.0764 17.535 14.8597C17.348 14.4262 17.0838 13.8223 16.7743 13.1398C16.1583 11.781 15.3526 10.0874 14.6171 8.80909L13.317 9.55719ZM2.85925 15.8478C3.55561 16.1263 3.55561 16.1263 3.55561 16.1263C3.55562 16.1263 3.55562 16.1263 3.55563 16.1263C3.55565 16.1263 3.55567 16.1262 3.5557 16.1261C3.55577 16.1259 3.55588 16.1257 3.55602 16.1253C3.5563 16.1246 3.55672 16.1236 3.55729 16.1221C3.55844 16.1193 3.56016 16.115 3.56246 16.1092C3.56707 16.0977 3.57401 16.0804 3.58326 16.0573C3.60178 16.0112 3.62959 15.9419 3.6667 15.8495C3.74092 15.6649 3.85233 15.3883 4.00093 15.0205C4.29813 14.2849 4.74409 13.1849 5.33882 11.7278L3.95004 11.1609C3.35465 12.6197 2.90802 13.7213 2.61016 14.4585C2.46123 14.8271 2.3495 15.1046 2.27495 15.29C2.23768 15.3828 2.20971 15.4525 2.19103 15.499C2.18169 15.5223 2.17468 15.5398 2.16999 15.5515C2.16764 15.5574 2.16588 15.5618 2.1647 15.5647C2.16411 15.5662 2.16366 15.5673 2.16336 15.5681C2.16321 15.5685 2.1631 15.5688 2.16302 15.5689C2.16298 15.569 2.16295 15.5691 2.16293 15.5692C2.16292 15.5692 2.16291 15.5692 2.16291 15.5692C2.1629 15.5692 2.1629 15.5693 2.85925 15.8478ZM5.33882 11.7278C5.92889 10.2821 6.36899 9.31451 6.65895 8.71285C6.80389 8.41209 6.91118 8.20307 6.98077 8.07171C7.01556 8.00605 7.0409 7.95984 7.05679 7.93134C7.06474 7.91709 7.07032 7.90726 7.07353 7.90165C7.07514 7.89885 7.07615 7.89709 7.07657 7.89637C7.07678 7.896 7.07684 7.8959 7.07676 7.89604C7.07672 7.89612 7.07664 7.89625 7.07652 7.89645C7.07646 7.89655 7.07639 7.89667 7.07632 7.8968C7.07628 7.89686 7.07621 7.89697 7.07619 7.89701C7.07613 7.89712 7.07606 7.89724 6.42961 7.51697C5.78316 7.13671 5.78308 7.13683 5.78301 7.13696C5.78298 7.13701 5.7829 7.13715 5.78284 7.13724C5.78273 7.13743 5.78261 7.13764 5.78248 7.13787C5.78221 7.13831 5.78192 7.13882 5.78158 7.13939C5.78092 7.14053 5.78011 7.14192 5.77916 7.14356C5.77725 7.14684 5.77478 7.15113 5.77174 7.15644C5.76565 7.16707 5.75729 7.18183 5.74663 7.20094C5.72534 7.23914 5.69489 7.29475 5.6553 7.36948C5.57613 7.51892 5.46026 7.74503 5.30768 8.06164C5.00257 8.69474 4.55009 9.69084 3.95004 11.1609L5.33882 11.7278ZM9.99996 17.4309C10.1538 17.4309 10.305 17.4302 10.4534 17.4287L10.4391 15.9288C10.2954 15.9302 10.1491 15.9309 9.99996 15.9309V17.4309ZM11.1729 16.8646L12.5117 11.6302L11.0585 11.2585L9.71965 16.4929L11.1729 16.8646ZM10.4534 17.4287C12.1644 17.4124 13.5178 17.3046 14.5595 17.1693L14.3663 15.6818C13.3882 15.8088 12.0947 15.913 10.4391 15.9288L10.4534 17.4287ZM14.5595 17.1693C15.5319 17.043 16.2328 16.8926 16.6991 16.7703C16.9323 16.7091 17.1068 16.6549 17.2273 16.6142C17.2875 16.5939 17.3343 16.5769 17.368 16.5642C17.3849 16.5578 17.3986 16.5525 17.4091 16.5483C17.4143 16.5462 17.4188 16.5444 17.4224 16.5429C17.4243 16.5421 17.4259 16.5414 17.4273 16.5409C17.4281 16.5406 17.4287 16.5403 17.4294 16.54C17.4297 16.5399 17.43 16.5398 17.4303 16.5396C17.4304 16.5396 17.4306 16.5395 17.4307 16.5395C17.4309 16.5394 17.4311 16.5393 17.1407 15.8478C16.8502 15.1563 16.8504 15.1562 16.8506 15.1561C16.8507 15.1561 16.8509 15.156 16.851 15.156C16.8512 15.1559 16.8515 15.1558 16.8517 15.1557C16.8521 15.1555 16.8525 15.1554 16.8528 15.1552C16.8535 15.155 16.854 15.1548 16.8543 15.1546C16.8548 15.1544 16.8546 15.1545 16.8536 15.1549C16.8515 15.1557 16.8463 15.1578 16.8378 15.161C16.8209 15.1674 16.791 15.1783 16.7475 15.193C16.6605 15.2224 16.519 15.2667 16.3184 15.3194C15.9173 15.4246 15.2792 15.5632 14.3663 15.6818L14.5595 17.1693ZM11.1245 11.7995L13.8023 16.7807L15.1235 16.0704L12.4457 11.0892L11.1245 11.7995ZM2.85925 15.8478C2.56883 16.5393 2.56902 16.5394 2.56921 16.5394C2.56928 16.5395 2.56947 16.5396 2.56961 16.5396C2.56988 16.5397 2.57016 16.5398 2.57046 16.54C2.57104 16.5402 2.57167 16.5405 2.57235 16.5408C2.57369 16.5413 2.57521 16.5419 2.57691 16.5426C2.5803 16.544 2.58438 16.5457 2.58918 16.5476C2.59877 16.5514 2.61119 16.5563 2.62649 16.5621C2.65711 16.5738 2.69927 16.5892 2.75346 16.6077C2.86186 16.6448 3.01836 16.6942 3.22688 16.7506C3.64393 16.8633 4.26889 17.0035 5.13313 17.1273L5.34585 15.6425C4.53854 15.5268 3.97339 15.3985 3.61821 15.3025C3.44061 15.2545 3.31547 15.2146 3.23875 15.1884C3.20038 15.1753 3.17412 15.1656 3.15944 15.16C3.15211 15.1572 3.14767 15.1554 3.14606 15.1548C3.14526 15.1545 3.14516 15.1544 3.14577 15.1547C3.14607 15.1548 3.14655 15.155 3.1472 15.1553C3.14753 15.1554 3.1479 15.1556 3.14831 15.1557C3.14852 15.1558 3.14873 15.1559 3.14896 15.156C3.14907 15.1561 3.14925 15.1561 3.14931 15.1562C3.14949 15.1562 3.14968 15.1563 2.85925 15.8478ZM5.87144 16.7888L7.50785 14.2285L6.24395 13.4207L4.60754 15.981L5.87144 16.7888ZM5.13313 17.1273C5.88076 17.2344 6.80747 17.3293 7.93361 17.3833L8.00557 15.8851C6.92392 15.8331 6.04427 15.7426 5.34585 15.6425L5.13313 17.1273ZM7.93361 17.3833C8.55958 17.4134 9.2472 17.4309 9.99996 17.4309V15.9309C9.2704 15.9309 8.60679 15.9139 8.00557 15.8851L7.93361 17.3833ZM6.17699 14.0967L7.27068 16.9063L8.6685 16.3621L7.57482 13.5525L6.17699 14.0967Z" fill="#151515"/>
</svg>
