<svg width="20" height="20" viewBox="0 0 20 20" fill="none" xmlns="http://www.w3.org/2000/svg">
<path fill-rule="evenodd" clip-rule="evenodd" d="M6.9047 7.3681L6.90769 7.37181L6.91527 7.38124L6.94318 7.41613C6.96715 7.44619 7.00151 7.48952 7.0439 7.54357C7.12857 7.65153 7.24581 7.80299 7.37656 7.97759C7.63335 8.32047 7.95995 8.77597 8.18976 9.17038C8.38256 9.50127 8.56731 9.89231 8.73265 10.2804C8.85417 9.85226 9.02084 9.20399 9.28686 8.0867C9.69368 6.37802 9.79011 5.54147 9.75721 5.03562C9.73173 4.64393 9.63709 4.45762 9.43794 4.06558C9.40898 4.00857 9.37781 3.94721 9.34432 3.88023C9.34001 3.87205 9.28797 3.7732 9.2665 3.65142C9.25992 3.61415 9.24585 3.52171 9.26431 3.40572C9.28328 3.28655 9.35578 3.04638 9.6085 2.89281C9.84729 2.74769 10.0776 2.78503 10.1696 2.80812C10.2693 2.83312 10.3405 2.8734 10.3706 2.89146C10.4677 2.94954 10.5365 3.02349 10.5454 3.03301L10.5462 3.03391C10.5707 3.05952 10.594 3.08625 10.6135 3.10928C10.6897 3.19915 10.8013 3.3435 10.9321 3.51823C11.1995 3.8754 11.5877 4.41387 12.0249 5.04003C12.8969 6.28879 13.9845 7.91582 14.7083 9.17383C15.4625 10.4846 16.2891 12.222 16.9215 13.6168C17.239 14.3173 17.5103 14.9371 17.7021 15.3819C17.7981 15.6044 17.8743 15.7833 17.9266 15.9068L17.9866 16.0492L18.0074 16.0987C18.0074 16.0987 18.0078 16.0997 17.3312 16.3818L18.0078 16.0997C18.1633 16.4727 17.9877 16.9012 17.615 17.0578L17.3312 16.3818C17.615 17.0578 17.6152 17.0577 17.615 17.0578L17.6133 17.0585L17.6113 17.0593L17.6065 17.0613L17.593 17.0667C17.5825 17.0709 17.5687 17.0763 17.5516 17.0828C17.5173 17.0957 17.4697 17.113 17.4083 17.1337C17.2854 17.1752 17.1071 17.2306 16.8685 17.2932C16.3913 17.4184 15.6733 17.5725 14.6764 17.702C13.6085 17.8407 12.2204 17.9513 10.4652 17.968C10.3129 17.9695 10.1579 17.9702 10 17.9702C9.22777 17.9702 8.5224 17.9523 7.88035 17.9215C6.72527 17.866 5.77501 17.7688 5.00865 17.659C4.12277 17.5321 3.48261 17.3884 3.05596 17.2731C2.84264 17.2154 2.68274 17.1649 2.57223 17.1271C2.51698 17.1082 2.47409 17.0925 2.44305 17.0807C2.42753 17.0748 2.41498 17.0699 2.40533 17.066L2.39302 17.0611L2.38849 17.0592L2.38662 17.0584L2.3854 17.0579C2.38521 17.0578 2.38502 17.0578 2.66891 16.3818L2.3854 17.0579C2.01661 16.903 1.83968 16.4809 1.98823 16.1096L2.10325 15.823C2.17978 15.6326 2.29448 15.3478 2.44738 14.9693C2.75316 14.2125 3.21168 13.0815 3.82294 11.5839C4.43874 10.0752 4.90299 9.05327 5.21586 8.40406C5.37232 8.0794 5.49106 7.84768 5.57211 7.6947C5.61264 7.61819 5.64377 7.56134 5.6655 7.52235C5.67637 7.50286 5.68489 7.48783 5.69107 7.47703L5.69858 7.464L5.70102 7.45981L5.70191 7.45829L5.70243 7.4574C5.7025 7.45728 5.70265 7.45714 6.33451 7.82882L5.70243 7.4574C5.82438 7.25009 6.04041 7.11553 6.28027 7.09775C6.52013 7.07997 6.75351 7.18104 6.9047 7.3681ZM4.75226 16.1357L6.17495 13.9098C6.32359 13.6772 6.59027 13.5478 6.86494 13.5751C7.13961 13.6023 7.37572 13.7814 7.47584 14.0387L8.42492 16.4768C8.26282 16.471 8.10476 16.4643 7.95068 16.4569C7.545 16.4375 7.16693 16.4127 6.81544 16.3841L6.63307 15.9156L6.35956 16.3435C5.93568 16.3025 5.55543 16.2561 5.21658 16.2076C5.05214 16.184 4.89745 16.1599 4.75226 16.1357ZM9.88849 16.5039L11.1226 11.6792C11.1974 11.3865 11.4441 11.1698 11.744 11.1332C12.0439 11.0966 12.3355 11.2477 12.4785 11.5138L14.9857 16.1776C14.8294 16.2015 14.6634 16.2251 14.4875 16.248C14.1658 16.2898 13.8108 16.3291 13.4212 16.3639L12.0772 13.8638L11.4074 16.4824C11.1027 16.492 10.7841 16.4987 10.4512 16.5019C10.3036 16.5033 10.1532 16.504 10 16.504C9.96268 16.504 9.9255 16.504 9.88849 16.5039Z" fill="#151515"/>
</svg>
