<svg width="20" height="20" viewBox="0 0 20 20" fill="none" xmlns="http://www.w3.org/2000/svg">
<path d="M7.68444 4.67947C5.36887 4.67944 3.6322 3.66602 3.6322 3.66602V10.7601C3.6322 10.7601 5.97399 12.26 7.68444 11.9593C9.51017 11.6384 10 10.9797 11.7367 10.9797C13.4733 10.9797 14.4085 11.4695 16.3678 12.2803V4.67944C14.8983 4.12205 13.4733 3.66598 11.7367 3.666C10.2201 3.66602 9.23496 4.67948 7.68444 4.67947Z" fill="#151515"/>
<path d="M3.6322 3.66602C3.6322 3.66602 5.36887 4.67944 7.68444 4.67947C9.23496 4.67948 10.2201 3.66602 11.7367 3.666C13.4733 3.66598 14.8983 4.12205 16.3678 4.67944V12.2803C14.4085 11.4695 13.4733 10.9797 11.7367 10.9797C10 10.9797 9.51017 11.6384 7.68444 11.9593C5.97399 12.26 3.6322 10.7601 3.6322 10.7601M3.6322 3.66602V10.7601M3.6322 3.66602V2.65256M3.6322 17.3475V10.7601" stroke="#151515" stroke-width="1.5" stroke-linecap="round" stroke-linejoin="round"/>
</svg>
