<svg width="20" height="20" viewBox="0 0 20 20" fill="none" xmlns="http://www.w3.org/2000/svg">
<path d="M5.83335 15.4167V9.58334C5.83335 9.1231 6.20644 8.75 6.66668 8.75H10H11.6667H14.1667H16.6906M5.83335 15.4167H16.6667C17.1269 15.4167 17.5 15.0436 17.5 14.5833V9.5594C17.5 9.11239 17.1376 8.75 16.6906 8.75V8.75M5.83335 15.4167H3.52083C3.0606 15.4167 2.6875 15.0436 2.6875 14.5833V5.04638C2.6875 4.58614 3.0606 4.21304 3.52083 4.21304H8.50546C8.70358 4.21304 8.89522 4.28363 9.046 4.41214L10.636 5.76725C10.7868 5.89576 10.9784 5.96635 11.1766 5.96635H15.8573C16.3175 5.96635 16.6906 6.33945 16.6906 6.79968V8.75" stroke="#151515" stroke-width="1.5" stroke-linecap="round" stroke-linejoin="round"/>
</svg>
