<svg width="20" height="20" viewBox="0 0 20 20" fill="none" xmlns="http://www.w3.org/2000/svg">
<path d="M5.15002 13.1829C5.15002 13.4834 5.32933 13.7548 5.60568 13.8728L9.72175 15.6291C9.90978 15.7093 10.1224 15.7093 10.3104 15.6291L14.4265 13.8728C14.7063 13.7534 14.8862 13.4769 14.8821 13.1728L14.8389 9.98978C14.8357 9.75242 14.7203 9.5306 14.5278 9.39172C14.3352 9.25284 14.0883 9.21329 13.8621 9.28509L10.0149 10.506L6.12472 9.28441C5.89692 9.21287 5.64866 9.25408 5.45619 9.39538C5.26372 9.53668 5.15002 9.76119 5.15002 9.99996V13.1829Z" stroke="#151515" stroke-width="1.5" stroke-linecap="round" stroke-linejoin="round"/>
<path d="M2.60718 7.17752L10.0161 5.06075L17.425 7.17752L10.0161 10L2.60718 7.17752ZM2.60718 7.17752V10" stroke="#151515" stroke-width="1.5" stroke-linecap="round" stroke-linejoin="round"/>
</svg>
