<svg width="20" height="20" viewBox="0 0 20 20" fill="none" xmlns="http://www.w3.org/2000/svg">
<path d="M13.8619 9.28511C14.0882 9.21331 14.3354 9.25268 14.528 9.39156C14.7204 9.53044 14.8353 9.75286 14.8385 9.99019L14.8824 13.1728C14.8866 13.4769 14.7061 13.7536 14.4264 13.873L10.3102 15.6289C10.1222 15.709 9.90929 15.7091 9.72131 15.6289L5.60608 13.873C5.32973 13.7551 5.15002 13.483 5.15002 13.1826V9.99996L5.15491 9.91109C5.17932 9.70626 5.28827 9.51909 5.45667 9.39547C5.64906 9.25436 5.89698 9.2127 6.12463 9.28414L10.0153 10.5058L13.8619 9.28511Z" stroke="#151515" stroke-width="1.5" stroke-linecap="round" stroke-linejoin="round"/>
<path d="M2.60718 7.17752L10.0161 5.06075L17.425 7.17752L10.0161 10L2.60718 7.17752ZM2.60718 7.17752V10" stroke="#151515" stroke-width="1.5" stroke-linecap="round" stroke-linejoin="round"/>
</svg>
