<svg width="20" height="20" viewBox="0 0 20 20" fill="none" xmlns="http://www.w3.org/2000/svg">
<path d="M1.93567 2.76895C1.93567 2.30871 2.30876 1.93562 2.769 1.93562H8.15867C8.61891 1.93562 8.99201 2.30871 8.99201 2.76895V8.15862C8.99201 8.61886 8.61891 8.99195 8.15868 8.99195H2.769C2.30877 8.99195 1.93567 8.61886 1.93567 8.15862V2.76895Z" fill="#151515"/>
<path d="M1.93567 11.8414C1.93567 11.3811 2.30876 11.008 2.769 11.008H8.15867C8.61891 11.008 8.99201 11.3811 8.99201 11.8414V17.2311C8.99201 17.6913 8.61891 18.0644 8.15868 18.0644H2.769C2.30877 18.0644 1.93567 17.6913 1.93567 17.2311V11.8414Z" fill="#151515"/>
<path d="M11.0081 2.76895C11.0081 2.30871 11.3812 1.93562 11.8414 1.93562H17.2311C17.6913 1.93562 18.0644 2.30871 18.0644 2.76895V8.15862C18.0644 8.61886 17.6913 8.99195 17.2311 8.99195H11.8414C11.3812 8.99195 11.0081 8.61886 11.0081 8.15862V2.76895Z" fill="#151515"/>
<path d="M11.0081 11.8414C11.0081 11.3811 11.3812 11.008 11.8414 11.008H17.2311C17.6913 11.008 18.0644 11.3811 18.0644 11.8414V17.2311C18.0644 17.6913 17.6913 18.0644 17.2311 18.0644H11.8414C11.3812 18.0644 11.0081 17.6913 11.0081 17.2311V11.8414Z" fill="#151515"/>
</svg>
