<svg width="20" height="20" viewBox="0 0 20 20" fill="none" xmlns="http://www.w3.org/2000/svg">
<path d="M9.60547 3.52176C11.3176 3.52185 12.8087 4.68113 13.3643 6.35281L13.5518 6.91531L14.1426 6.86356C14.2081 6.85781 14.2746 6.85478 14.3418 6.85477C15.6339 6.85477 16.75 7.97329 16.75 9.43875C16.7498 10.904 15.6339 12.0218 14.3418 12.0218H5.6582C4.36615 12.0218 3.25017 10.904 3.25 9.43875C3.25 8.13085 4.14516 7.09128 5.25488 6.8909L5.69727 6.81082L5.83594 6.38406C6.38304 4.69566 7.8826 3.52176 9.60547 3.52176Z" stroke="#151515" stroke-width="1.5"/>
<path d="M5.39324 14.3457C5.40285 14.2327 5.49736 14.1459 5.61073 14.1459H6.86255C6.9904 14.1459 7.09088 14.2553 7.08004 14.3827L6.97342 15.6361C6.96381 15.749 6.86931 15.8358 6.75593 15.8358H5.50411C5.37626 15.8358 5.27578 15.7265 5.28662 15.5991L5.39324 14.3457Z" fill="#151515"/>
<path d="M5.39324 14.3457C5.40285 14.2327 5.49736 14.1459 5.61073 14.1459H6.86255C6.9904 14.1459 7.09088 14.2553 7.08004 14.3827L6.97342 15.6361C6.96381 15.749 6.86931 15.8358 6.75593 15.8358H5.50411C5.37626 15.8358 5.27578 15.7265 5.28662 15.5991L5.39324 14.3457Z" fill="#151515"/>
<path d="M9.20989 14.3457C9.2195 14.2327 9.31401 14.1459 9.42738 14.1459H10.6792C10.807 14.1459 10.9075 14.2553 10.8967 14.3827L10.7901 15.6361C10.7805 15.749 10.686 15.8358 10.5726 15.8358H9.32076C9.19291 15.8358 9.09244 15.7265 9.10327 15.5991L9.20989 14.3457Z" fill="#151515"/>
<path d="M12.6572 14.3457C12.6668 14.2327 12.7613 14.1459 12.8746 14.1459H14.1265C14.2543 14.1459 14.3548 14.2553 14.344 14.3827L14.2373 15.6361C14.2277 15.749 14.1332 15.8358 14.0198 15.8358H12.768C12.6402 15.8358 12.5397 15.7265 12.5505 15.5991L12.6572 14.3457Z" fill="#151515"/>
<path d="M11.0436 17.4099C11.0532 17.2969 11.1477 17.2101 11.2611 17.2101H12.5129C12.6408 17.2101 12.7413 17.3195 12.7304 17.4469L12.6238 18.7003C12.6142 18.8132 12.5197 18.9 12.4063 18.9H11.1545C11.0267 18.9 10.9262 18.7906 10.937 18.6633L11.0436 17.4099Z" fill="#151515"/>
<path d="M7.22698 17.4099C7.23659 17.2969 7.3311 17.2101 7.44447 17.2101H8.69629C8.82414 17.2101 8.92462 17.3195 8.91378 17.4469L8.80716 18.7003C8.79755 18.8132 8.70305 18.9 8.58967 18.9H7.33785C7.21 18.9 7.10952 18.7906 7.12036 18.6633L7.22698 17.4099Z" fill="#151515"/>
</svg>
