<svg width="20" height="20" viewBox="0 0 20 20" fill="none" xmlns="http://www.w3.org/2000/svg">
<path d="M13.9865 8.81088C13.9865 9.87188 13.9865 7.74988 13.9865 8.81088ZM13.9865 8.81088C13.9865 9.87188 13.9865 10.9329 13.9865 10.9329M13.9865 8.81088C13.9865 7.74988 16.2011 7.74988 16.2011 8.81088C16.2011 9.87188 16.2011 10.1371 16.2011 14.3811C16.2011 18.6251 6.70877 18.6613 5.00818 14.3811C4.37734 12.7934 4.48671 13.1328 3.90691 11.7558C3.32712 10.3789 5.23557 9.55752 5.99849 10.9329C6.76141 12.3082 7.34256 14.4895 7.34256 13.5854C7.34256 12.6813 7.34256 9.87187 7.34256 8.81088C7.34256 7.74988 7.34256 4.27906 7.34256 3.21806C7.34256 2.15707 9.5572 2.15707 9.5572 3.21806M13.9865 8.81088C13.9865 7.74988 11.7644 7.74988 11.7718 8.81088M11.7718 8.81088C11.7718 7.74988 9.5572 7.74988 9.5572 8.81088C9.5572 9.06435 9.5572 2.94262 9.5572 3.21806M11.7718 8.81088C11.7718 9.06435 11.7718 8.53543 11.7718 8.81088ZM11.7718 8.81088C11.7829 10.4024 11.7718 10.9329 11.7718 10.9329M9.5572 10.9329C9.5572 10.9329 9.5572 5.86947 9.5572 3.21806" stroke="#151515" stroke-width="1.5" stroke-linecap="round"/>
</svg>
