<svg width="20" height="20" viewBox="0 0 20 20" fill="none" xmlns="http://www.w3.org/2000/svg">
<path d="M13.3004 10.4072C13.3004 10.4072 13.3004 7.14969 13.3004 6.06386M11.1001 10.4072C11.1001 10.4072 11.1001 6.87712 11.1001 4.16365M8.89988 10.4072C8.89988 10.4072 8.89988 6.87712 8.89988 4.16365M6.69963 12.5789C6.69963 12.5789 6.69963 11.228 6.69963 8.8958M6.69963 8.8958C6.69963 7.80997 6.69963 5.24948 6.69963 4.16365C6.69963 3.07782 8.89988 3.07782 8.89988 4.16365M6.69963 8.8958C6.69963 7.80997 4.49939 7.80997 4.49939 8.8958C4.49939 9.98164 4.49939 9.86428 4.49939 14.2076C4.49939 18.551 15.5006 18.551 15.5006 14.2076C15.5006 9.86428 15.5006 7.14969 15.5006 6.06386C15.5006 4.97802 13.3004 4.97802 13.3004 6.06386M13.3004 6.06386C13.3004 4.97802 13.3004 5.14195 13.3004 4.16365C13.3004 3.18535 11.0939 3.25161 11.1001 4.16365M11.1001 4.16365C11.1001 3.88175 11.1001 3.60867 11.1001 3.34927C11.1001 2.26344 8.89988 2.26344 8.89988 3.34927C8.89988 3.60867 8.89988 3.88175 8.89988 4.16365" stroke="#151515" stroke-width="1.5" stroke-linecap="round"/>
</svg>
