<svg width="20" height="20" viewBox="0 0 20 20" fill="none" xmlns="http://www.w3.org/2000/svg">
<path d="M2.8711 7.06502C7.44746 3.54304 13.1354 3.59776 17.1976 7.1594C17.498 7.4228 17.5095 7.88029 17.2412 8.17633L15.3112 10.3059C15.0957 10.5437 14.7522 10.6171 14.4584 10.488L13.1549 9.91558C12.8149 9.76625 12.6364 9.38955 12.7363 9.03184L13.2487 7.19673C13.3806 6.72434 13.0286 6.25537 12.5382 6.25005L7.45784 6.19496C6.9714 6.18968 6.61011 6.64387 6.72465 7.11666L7.19331 9.0511C7.27811 9.40111 7.10078 9.76173 6.77181 9.90828L5.4763 10.4854C5.17192 10.621 4.81452 10.5383 4.60062 10.2828L2.77101 8.09735C2.50836 7.78362 2.54685 7.31456 2.8711 7.06502Z" fill="#151515"/>
<path d="M2.8711 7.06502C7.44746 3.54304 13.1354 3.59776 17.1976 7.1594C17.498 7.4228 17.5095 7.88029 17.2412 8.17633L15.3112 10.3059C15.0957 10.5437 14.7522 10.6171 14.4584 10.488L13.1549 9.91558C12.8149 9.76625 12.6364 9.38955 12.7363 9.03184L13.2487 7.19673C13.3806 6.72434 13.0286 6.25537 12.5382 6.25005L7.45784 6.19496C6.9714 6.18968 6.61011 6.64387 6.72465 7.11666L7.19331 9.0511C7.27811 9.40111 7.10078 9.76173 6.77181 9.90828L5.4763 10.4854C5.17192 10.621 4.81452 10.5383 4.60062 10.2828L2.77101 8.09735C2.50836 7.78362 2.54685 7.31456 2.8711 7.06502Z" stroke="#151515" stroke-width="1.5" stroke-linecap="round" stroke-linejoin="round"/>
<path d="M9.95088 11.0679V15.5444M9.95088 15.5444L8.08569 13.8952M9.95088 15.5444L11.8161 13.8952" stroke="#151515" stroke-width="1.5" stroke-linecap="round" stroke-linejoin="round"/>
</svg>
