<svg width="20" height="20" viewBox="0 0 20 20" fill="none" xmlns="http://www.w3.org/2000/svg">
<circle cx="10.0001" cy="10" r="7.31439" stroke="#151515" stroke-width="1.5"/>
<path fill-rule="evenodd" clip-rule="evenodd" d="M13.2429 11.2388C13.3919 11.0452 13.6706 10.9904 13.8545 11.1512C13.9786 11.2599 14.0981 11.3736 14.2126 11.4922C14.3438 11.628 14.3562 11.838 14.2418 11.9882C13.2557 13.2823 11.7636 14.1071 10.0936 14.1071C8.36606 14.1071 6.82882 13.2244 5.84524 11.8527C5.73496 11.6988 5.75384 11.4886 5.88967 11.3568C6.0079 11.2421 6.13093 11.1323 6.25843 11.0278C6.44684 10.8734 6.72287 10.9364 6.8658 11.1337C7.63756 12.199 8.82397 12.8571 10.0936 12.8571C11.3209 12.8571 12.4705 12.2422 13.2429 11.2388Z" fill="#151515"/>
<path d="M8.20788 7.31192C8.20788 7.93051 7.70642 8.43197 7.08783 8.43197C6.46924 8.43197 5.96777 7.93051 5.96777 7.31192C5.96777 6.69333 6.46924 6.19186 7.08783 6.19186C7.70642 6.19186 8.20788 6.69333 8.20788 7.31192Z" fill="#151515"/>
<path d="M14.0322 7.31192C14.0322 7.93051 13.5308 8.43197 12.9122 8.43197C12.2936 8.43197 11.7921 7.93051 11.7921 7.31192C11.7921 6.69333 12.2936 6.19186 12.9122 6.19186C13.5308 6.19186 14.0322 6.69333 14.0322 7.31192Z" fill="#151515"/>
</svg>
