<svg width="20" height="20" viewBox="0 0 20 20" fill="none" xmlns="http://www.w3.org/2000/svg">
<path d="M9.06533 4.50774L9.56176 3.94554C9.61963 3.99664 9.66927 4.05637 9.70891 4.12262L9.06533 4.50774ZM9.61815 16.1449L10.3353 15.9256C10.4304 16.2362 10.3146 16.5728 10.0485 16.7592C9.78238 16.9456 9.42652 16.9395 9.16698 16.744L9.61815 16.1449ZM7.49159 9.19243L8.20879 8.97306L7.49159 9.19243ZM7.68206 8.08334L7.07913 7.63727L7.07914 7.63727L7.68206 8.08334ZM8.68692 7.57681V6.82681H8.68693L8.68692 7.57681ZM10.9018 7.57681L11.5454 7.1917C11.6841 7.42343 11.6875 7.71181 11.5543 7.94672C11.4211 8.18164 11.1719 8.32681 10.9018 8.32681L10.9018 7.57681ZM10.3764 10.0768L9.65923 10.2962C9.58967 10.0688 9.63207 9.82189 9.77351 9.63073C9.91494 9.43957 10.1386 9.32681 10.3764 9.32681L10.3764 10.0768ZM12.0174 15.4417L12.5069 16.0099C12.3149 16.1753 12.0525 16.2326 11.8091 16.1622C11.5657 16.0918 11.3743 15.9033 11.3002 15.6611L12.0174 15.4417ZM13.1065 10.0768L13.1065 9.32681H13.1065L13.1065 10.0768ZM14.1939 9.44333L13.5415 9.07342L13.5415 9.07342L14.1939 9.44333ZM14.1792 8.18496L14.8227 7.79985V7.79985L14.1792 8.18496ZM11.9155 4.40213L11.272 4.78724C11.0825 4.47067 11.1515 4.06335 11.4345 3.82673L11.9155 4.40213ZM8.56891 5.06993C7.37385 4.0147 6.03618 3.88453 5.03046 4.31141C4.028 4.73691 3.25 5.7584 3.25 7.25636H1.75C1.75 5.18614 2.86101 3.60271 4.44439 2.93064C6.0245 2.25996 7.96949 2.53957 9.56176 3.94554L8.56891 5.06993ZM3.25 7.25636C3.25 7.86972 3.49768 8.59574 3.97398 9.40448C4.44534 10.2048 5.10599 11.028 5.84793 11.8204C7.3315 13.4049 9.07174 14.7946 10.0693 15.5458L9.16698 16.744C8.14155 15.9719 6.32273 14.5222 4.75297 12.8456C3.96825 12.0075 3.22867 11.0948 2.68147 10.1657C2.13921 9.24493 1.75 8.24787 1.75 7.25636H3.25ZM8.90095 16.3643L6.77439 9.4118L8.20879 8.97306L10.3353 15.9256L8.90095 16.3643ZM6.77439 9.4118C6.58892 8.80542 6.70199 8.14702 7.07913 7.63727L8.28498 8.52942C8.19069 8.65686 8.16242 8.82146 8.20879 8.97306L6.77439 9.4118ZM7.07914 7.63727C7.45628 7.12751 8.05282 6.82681 8.68692 6.82681V8.32681C8.5284 8.32681 8.37926 8.40199 8.28498 8.52942L7.07914 7.63727ZM8.68693 6.82681L10.9018 6.82681L10.9018 8.32681L8.68692 8.32681L8.68693 6.82681ZM10.2583 7.96192L8.42176 4.89285L9.70891 4.12262L11.5454 7.1917L10.2583 7.96192ZM11.0936 9.85744L12.7346 15.2223L11.3002 15.6611L9.65923 10.2962L11.0936 9.85744ZM13.1065 10.8268L10.3764 10.8268L10.3764 9.32681L13.1065 9.32681L13.1065 10.8268ZM14.8464 9.81324C14.4912 10.4397 13.8267 10.8268 13.1065 10.8268L13.1065 9.32681C13.2866 9.32681 13.4527 9.23003 13.5415 9.07342L14.8464 9.81324ZM14.8227 7.79985C15.1925 8.41779 15.2015 9.1868 14.8464 9.81324L13.5415 9.07342C13.6303 8.91681 13.628 8.72456 13.5356 8.57007L14.8227 7.79985ZM12.5591 4.01702L14.8227 7.79985L13.5356 8.57007L11.272 4.78724L12.5591 4.01702ZM17.2171 7.25636C17.2171 5.8593 16.5205 4.85576 15.6208 4.41143C14.7333 3.9731 13.5368 4.02429 12.3966 4.97753L11.4345 3.82673C12.992 2.52459 14.8212 2.34356 16.2851 3.06651C17.7367 3.78347 18.7171 5.33473 18.7171 7.25636H17.2171ZM11.5279 14.8734C12.6191 13.9335 14.0698 12.586 15.2415 11.159C15.8272 10.4456 16.3294 9.72892 16.6823 9.04753C17.0386 8.35949 17.2171 7.75627 17.2171 7.25636H18.7171C18.7171 8.08962 18.4281 8.93815 18.0143 9.73734C17.5969 10.5432 17.0262 11.3492 16.4007 12.1109C15.1501 13.634 13.626 15.0459 12.5069 16.0099L11.5279 14.8734Z" fill="#151515"/>
</svg>
