<svg width="20" height="20" viewBox="0 0 20 20" fill="none" xmlns="http://www.w3.org/2000/svg">
<path d="M15.1484 17.3462C7.98522 16.4504 3.00553 11.3728 2.60288 4.6321C2.57627 4.18664 2.92823 3.81652 3.37395 3.79461L7.07612 3.61261C7.43415 3.59501 7.76333 3.80835 7.89349 4.14235L8.58482 5.91636C8.73545 6.30288 8.57885 6.74132 8.21744 6.94496L5.99389 8.19785C5.51662 8.46677 5.42422 9.11515 5.80736 9.50669L10.3664 14.1657C10.7464 14.5541 11.3905 14.4807 11.6735 14.0168L13.0549 11.752C13.2644 11.4086 13.6893 11.2638 14.0648 11.4079L15.8363 12.0875C16.1838 12.2208 16.4007 12.5683 16.3679 12.9391L16.0427 16.6079C16.0024 17.0631 15.6019 17.4029 15.1484 17.3462Z" fill="#151515" stroke="#151515" stroke-width="1.5" stroke-linecap="round" stroke-linejoin="round"/>
<path d="M16.4325 3.36875L12.5161 7.28516M12.5161 7.28516L12.3271 4.21043M12.5161 7.28516L15.5908 7.47411" stroke="#151515" stroke-width="1.5" stroke-linecap="round" stroke-linejoin="round"/>
</svg>
