<svg width="20" height="20" viewBox="0 0 20 20" fill="none" xmlns="http://www.w3.org/2000/svg">
<path d="M5.90589 6.66145L4.51464 8.06948C4.28346 8.30346 4.15381 8.61913 4.15381 8.94805V16.2115C4.15381 16.9019 4.71345 17.4615 5.40381 17.4615L15.2734 17.4615C15.9637 17.4615 16.5234 16.9019 16.5234 16.2115V5.13422C16.5234 3.75351 15.4041 2.63422 14.0234 2.63422H10.4145C10.0667 2.63422 9.73459 2.77913 9.49805 3.03411L8.26605 4.36219M5.90589 6.66145L4.45431 5.18669C4.28971 5.01946 4.2956 4.74936 4.46733 4.58946L6.29101 2.89142C6.45785 2.73606 6.71857 2.74364 6.87611 2.90842L8.26605 4.36219M5.90589 6.66145L8.26605 4.36219" stroke="black" stroke-width="1.25"/>
<path d="M13.115 6.59192V7.84192H11.197V6.59192H13.115ZM13.5798 6.12708C13.5798 5.87045 13.3716 5.66223 13.115 5.66223H11.197C10.9404 5.66223 10.7322 5.87045 10.7322 6.12708C10.7323 6.38362 10.9404 6.59192 11.197 6.59192V7.84192L11.0212 7.83313C10.2143 7.75106 9.57277 7.10895 9.49097 6.30188L9.48218 6.12708C9.48218 5.23937 10.1567 4.50896 11.0212 4.42102L11.197 4.41223H13.115C14.062 4.41223 14.8298 5.18009 14.8298 6.12708L14.821 6.30188C14.7393 7.1089 14.0977 7.75099 13.2908 7.83313L13.115 7.84192V6.59192C13.3716 6.59192 13.5797 6.38362 13.5798 6.12708Z" fill="black"/>
<path d="M11.8262 11.1162V13.6773M11.8262 11.1162H8.85121M11.8262 11.1162L13.2766 9.66577M11.8262 13.6773H8.85121M11.8262 13.6773L12.5514 14.4025L13.2766 15.1277M8.85121 13.6773V11.1162M8.85121 13.6773L7.40076 15.1277M8.85121 11.1162L7.40076 9.66577" stroke="black" stroke-width="1.25" stroke-linecap="round"/>
</svg>
