<svg width="20" height="20" viewBox="0 0 20 20" fill="none" xmlns="http://www.w3.org/2000/svg">
<path fill-rule="evenodd" clip-rule="evenodd" d="M8.5185 8.05769L17.3807 8.05769V10.3884H15.0499V13.8845L13.1077 13.8845V10.3884L8.5185 10.3884C8.5185 10.3884 7.66927 12.3307 5.72699 12.3307C3.78471 12.3307 2.61935 10.9394 2.61935 9.22306C2.61935 7.50675 3.78471 6.11541 5.72699 6.11541C7.66927 6.11541 8.5185 8.05769 8.5185 8.05769ZM3.39618 9.22306C3.39618 10.5103 4.43969 11.5538 5.72692 11.5538C7.01415 11.5538 8.05765 10.5103 8.05765 9.22306C8.05765 7.93583 7.01415 6.89232 5.72692 6.89232C4.43969 6.89232 3.39618 7.93583 3.39618 9.22306Z" fill="#151515"/>
<path d="M17.3807 8.05769V7.30769C17.7949 7.30769 18.1307 7.64348 18.1307 8.05769H17.3807ZM8.5185 8.05769V8.80769C8.22047 8.80769 7.95072 8.63122 7.83132 8.35815L8.5185 8.05769ZM17.3807 10.3884H18.1307C18.1307 10.8026 17.7949 11.1384 17.3807 11.1384V10.3884ZM15.0499 10.3884H14.2999C14.2999 9.97421 14.6357 9.63843 15.0499 9.63843V10.3884ZM15.0499 13.8845H15.7999C15.7999 14.0834 15.7209 14.2742 15.5803 14.4149C15.4396 14.5555 15.2488 14.6345 15.0499 14.6345V13.8845ZM13.1077 13.8845V14.6345C12.6934 14.6345 12.3577 14.2987 12.3577 13.8845H13.1077ZM13.1077 10.3884V9.63843C13.5219 9.63843 13.8577 9.97421 13.8577 10.3884H13.1077ZM8.5185 10.3884L7.83132 10.088C7.95072 9.81489 8.22047 9.63842 8.5185 9.63842V10.3884ZM5.72699 12.3307V13.0807V12.3307ZM2.61935 9.22306H3.36935H2.61935ZM3.39618 9.22306H4.14618H3.39618ZM17.3807 8.80769L8.5185 8.80769V7.30769L17.3807 7.30769V8.80769ZM16.6307 10.3884V8.05769H18.1307V10.3884H16.6307ZM15.0499 9.63843H17.3807V11.1384H15.0499V9.63843ZM14.2999 13.8845V10.3884H15.7999V13.8845H14.2999ZM13.1077 13.1345L15.0499 13.1345V14.6345L13.1077 14.6345V13.1345ZM13.8577 10.3884V13.8845H12.3577V10.3884H13.8577ZM8.5185 9.63842L13.1077 9.63843V11.1384L8.5185 11.1384V9.63842ZM5.72699 11.5807C6.42289 11.5807 6.93628 11.2389 7.30388 10.8467C7.48723 10.6511 7.62352 10.4531 7.71345 10.3042C7.75799 10.2304 7.79 10.1706 7.80973 10.1318C7.81957 10.1125 7.82627 10.0986 7.82987 10.0909C7.83167 10.0871 7.83269 10.0848 7.83293 10.0843C7.83305 10.084 7.83298 10.0842 7.83271 10.0848C7.83257 10.0851 7.83239 10.0855 7.83216 10.0861C7.83204 10.0863 7.83192 10.0866 7.83178 10.0869C7.83171 10.0871 7.83159 10.0873 7.83156 10.0874C7.83144 10.0877 7.83132 10.088 8.5185 10.3884C9.20569 10.6889 9.20556 10.6892 9.20543 10.6895C9.20538 10.6896 9.20525 10.6899 9.20515 10.6901C9.20496 10.6905 9.20476 10.691 9.20454 10.6915C9.2041 10.6925 9.2036 10.6936 9.20305 10.6949C9.20196 10.6973 9.20063 10.7003 9.19909 10.7037C9.196 10.7105 9.19201 10.7192 9.18711 10.7296C9.17733 10.7504 9.16388 10.7782 9.14671 10.8119C9.11241 10.8793 9.0629 10.9713 8.99748 11.0796C8.86748 11.2949 8.67007 11.5825 8.39833 11.8724C7.85574 12.4514 6.97338 13.0807 5.72699 13.0807V11.5807ZM3.36935 9.22306C3.36935 9.91177 3.60178 10.4967 3.98863 10.904C4.36981 11.3053 4.94439 11.5807 5.72699 11.5807V13.0807C4.56731 13.0807 3.58807 12.6604 2.901 11.937C2.2196 11.2195 1.86935 10.2507 1.86935 9.22306H3.36935ZM5.72699 6.86541C4.94439 6.86541 4.36981 7.14077 3.98863 7.54212C3.60178 7.94942 3.36935 8.53435 3.36935 9.22306H1.86935C1.86935 8.19546 2.2196 7.22656 2.901 6.50912C3.58807 5.78572 4.56731 5.36541 5.72699 5.36541V6.86541ZM8.5185 8.05769C7.83132 8.35815 7.83144 8.35843 7.83156 8.35869C7.83159 8.35877 7.83171 8.35903 7.83178 8.35919C7.83192 8.35951 7.83204 8.3598 7.83216 8.36006C7.83239 8.36059 7.83257 8.361 7.83271 8.3613C7.83298 8.36191 7.83305 8.36207 7.83293 8.3618C7.83269 8.36127 7.83167 8.35904 7.82987 8.35521C7.82627 8.34756 7.81957 8.33361 7.80973 8.31427C7.79 8.27547 7.75799 8.21568 7.71345 8.14192C7.62352 7.993 7.48723 7.79506 7.30388 7.59943C6.93628 7.20721 6.42289 6.86541 5.72699 6.86541V5.36541C6.97338 5.36541 7.85574 5.99475 8.39833 6.57367C8.67007 6.86361 8.86748 7.15124 8.99748 7.3665C9.0629 7.47483 9.11241 7.56678 9.14671 7.6342C9.16388 7.66796 9.17733 7.69574 9.18711 7.71654C9.19201 7.72694 9.196 7.73562 9.19909 7.74244C9.20063 7.74585 9.20196 7.74879 9.20305 7.75126C9.2036 7.7525 9.2041 7.75361 9.20454 7.75461C9.20476 7.75511 9.20496 7.75557 9.20515 7.75601C9.20525 7.75623 9.20538 7.75653 9.20543 7.75664C9.20556 7.75694 9.20569 7.75723 8.5185 8.05769ZM5.72692 12.3038C4.02548 12.3038 2.64618 10.9245 2.64618 9.22306H4.14618C4.14618 10.0961 4.8539 10.8038 5.72692 10.8038V12.3038ZM8.80765 9.22306C8.80765 10.9245 7.42836 12.3038 5.72692 12.3038V10.8038C6.59994 10.8038 7.30765 10.0961 7.30765 9.22306H8.80765ZM5.72692 6.14232C7.42836 6.14232 8.80765 7.52162 8.80765 9.22306H7.30765C7.30765 8.35004 6.59994 7.64232 5.72692 7.64232V6.14232ZM2.64618 9.22306C2.64618 7.52162 4.02548 6.14232 5.72692 6.14232V7.64232C4.8539 7.64232 4.14618 8.35004 4.14618 9.22306H2.64618Z" fill="#151515"/>
</svg>
