<svg width="20" height="20" viewBox="0 0 20 20" fill="none" xmlns="http://www.w3.org/2000/svg">
<path d="M17.5 7.6403L8.52769 7.6403C8.52769 7.6403 7.66791 6.06716 5.70149 6.06716C3.73507 6.06716 2.55522 7.47579 2.55522 9.21343C2.55522 10.9511 3.73507 12.3597 5.70149 12.3597C7.66791 12.3597 8.52769 10.7866 8.52769 10.7866L12.7806 10.7866L12.7806 13.9328L15.9269 13.9328L15.9269 10.7866L17.5 10.7866L17.5 7.6403Z" stroke="#151515" stroke-width="1.5" stroke-linecap="round" stroke-linejoin="round"/>
<path d="M5.70144 10.3933C5.04982 10.3933 4.52158 9.86504 4.52158 9.21343C4.52158 8.56181 5.04982 8.03358 5.70144 8.03358C6.35305 8.03358 6.88129 8.56181 6.88129 9.21343C6.88129 9.86504 6.35305 10.3933 5.70144 10.3933Z" fill="#151515"/>
</svg>
