<svg width="20" height="20" viewBox="0 0 20 20" fill="none" xmlns="http://www.w3.org/2000/svg">
<path d="M13.5477 12.1281C13.3605 11.941 13.3255 11.6538 13.4263 11.4091C13.6051 10.9747 13.7037 10.4989 13.7037 10C13.7037 9.49464 13.6025 9.01291 13.4192 8.57399C13.3168 8.3286 13.3512 8.03978 13.5392 7.85175L16.0773 5.3136C16.3273 5.0636 16.7411 5.08715 16.9373 5.38127C17.8193 6.70327 18.3333 8.29161 18.3333 10C18.3333 11.7005 17.824 13.2821 16.9495 14.6004C16.7538 14.8955 16.3392 14.9196 16.0888 14.6692L13.5477 12.1281Z" fill="#151515"/>
<path d="M6.4524 7.87182C6.63955 8.05897 6.67457 8.34613 6.5738 8.59088C6.39496 9.02526 6.29632 9.50112 6.29632 10C6.29632 10.4889 6.39104 10.9557 6.56313 11.383C6.6613 11.6267 6.62534 11.9113 6.43954 12.0971L3.89376 14.6429C3.64273 14.8939 3.22694 14.8689 3.0319 14.5723C2.16882 13.2596 1.66669 11.6884 1.66669 10C1.66669 8.29946 2.17606 6.71788 3.05056 5.39952C3.24631 5.10442 3.66088 5.0803 3.91128 5.33071L6.4524 7.87182Z" fill="#151515"/>
<path d="M7.87193 6.45235C8.05908 6.6395 8.34623 6.67452 8.59097 6.57377C9.02532 6.39494 9.50115 6.29632 10 6.29632C10.4889 6.29632 10.9557 6.39104 11.383 6.56313C11.6267 6.6613 11.9113 6.62534 12.0971 6.43954L14.6429 3.89376C14.8939 3.64273 14.8689 3.22694 14.5723 3.0319C13.2596 2.16882 11.6884 1.66669 10 1.66669C8.29951 1.66669 6.71796 2.17604 5.39962 3.05049C5.10451 3.24624 5.08039 3.66081 5.3308 3.91122L7.87193 6.45235Z" fill="#151515"/>
<path d="M12.1282 13.5476C11.9411 13.3605 11.6539 13.3255 11.4092 13.4262C10.9748 13.6051 10.4989 13.7037 10 13.7037C9.49464 13.7037 9.01291 13.6025 8.57399 13.4192C8.3286 13.3168 8.03978 13.3512 7.85175 13.5392L5.3136 16.0774C5.0636 16.3274 5.08715 16.7411 5.38127 16.9373C6.70327 17.8193 8.29161 18.3333 10 18.3333C11.7006 18.3333 13.2822 17.824 14.6005 16.9495C14.8956 16.7537 14.9197 16.3392 14.6693 16.0888L12.1282 13.5476Z" fill="#151515"/>
</svg>
