<svg width="20" height="20" viewBox="0 0 20 20" fill="none" xmlns="http://www.w3.org/2000/svg">
<path d="M13.7985 5.72871L13.9829 6.29853L14.5794 6.24471C14.648 6.23852 14.7174 6.23536 14.7877 6.23536C16.1278 6.23536 17.3144 7.43121 17.3144 9.03514C17.3144 10.6391 16.1278 11.8349 14.7877 11.8349H5.77672C4.43664 11.8349 3.25 10.6391 3.25 9.03514C3.25 7.60495 4.20271 6.48743 5.3574 6.27369L5.80044 6.19168L5.93609 5.76202C6.51209 3.9376 8.08415 2.68558 9.87262 2.68558C11.6502 2.68558 13.2138 3.92219 13.7985 5.72871Z" stroke="#151515" stroke-width="1.5"/>
<path d="M12.8216 14.2233L12.3301 15.8581H13.1493L12.4939 17.5" stroke="#151515" stroke-width="1.5" stroke-linecap="round" stroke-linejoin="round"/>
<path d="M7.90655 14.2233L7.41504 15.8581H8.23422L7.57888 17.5" stroke="#151515" stroke-width="1.5" stroke-linecap="round" stroke-linejoin="round"/>
</svg>
