<svg width="20" height="20" viewBox="0 0 20 20" fill="none" xmlns="http://www.w3.org/2000/svg">
<path d="M9.87305 2.68558C11.6505 2.68578 13.2141 3.9222 13.7988 5.72855L13.9834 6.29886L14.5791 6.24515C14.6476 6.23896 14.7178 6.23538 14.7881 6.23538C16.128 6.23561 17.3145 7.43141 17.3145 9.03519C17.3144 10.6389 16.128 11.8348 14.7881 11.835H5.77637C4.43645 11.8348 3.25003 10.6389 3.25 9.03519C3.25 7.605 4.20273 6.48721 5.35742 6.27347L5.80078 6.19144L5.93652 5.76175C6.51261 3.93754 8.0847 2.68558 9.87305 2.68558Z" stroke="#151515" stroke-width="1.5"/>
<path d="M12.8216 14.2233L12.3301 15.8581H13.1493L12.4939 17.5" stroke="#151515" stroke-width="1.5" stroke-linecap="round" stroke-linejoin="round"/>
<path d="M7.90655 14.2233L7.41504 15.8581H8.23422L7.57888 17.5" stroke="#151515" stroke-width="1.5" stroke-linecap="round" stroke-linejoin="round"/>
</svg>
