<svg width="20" height="20" viewBox="0 0 20 20" fill="none" xmlns="http://www.w3.org/2000/svg">
<path fill-rule="evenodd" clip-rule="evenodd" d="M13.5396 6.71271C15.5341 6.87743 16.6236 8.2512 16.6236 9.89738C16.6236 11.5367 15.541 12.8907 13.5396 13.056C13.5528 13.0549 13.5353 13.055 13.4739 13.0555C13.4298 13.0559 13.3633 13.0565 13.2694 13.0569C13.0757 13.0578 12.8066 13.0583 12.4864 13.0586C12.0795 13.059 11.5915 13.059 11.0739 13.0587L11.0739 14.7254C11.5917 14.7257 12.0803 14.7257 12.4879 14.7253C12.8087 14.725 13.0803 14.7244 13.277 14.7235L13.2887 14.7235C13.4505 14.7228 13.6159 14.722 13.6768 14.717C16.5381 14.4807 18.2902 12.4084 18.2902 9.89738C18.2902 7.39322 16.5449 5.28856 13.6768 5.0517C13.6159 5.04667 13.4505 5.04592 13.2887 5.04518L13.277 5.04513C13.0803 5.04422 12.8087 5.04366 12.4879 5.04335C12.0803 5.04296 11.5918 5.04298 11.0739 5.04326L11.0739 6.70993C11.5915 6.70965 12.0795 6.70963 12.4863 6.71002C12.8066 6.71033 13.0757 6.71089 13.2694 6.71177C13.3632 6.7122 13.4297 6.71276 13.4738 6.71314L13.4739 6.71314C13.5353 6.71365 13.5528 6.7138 13.5396 6.71271ZM9.40719 13.0572C8.42501 13.056 7.52739 13.0544 7.05675 13.0536L6.71467 13.0531C5.58112 13.0531 4.76221 12.6757 4.22716 12.1305C3.68732 11.5803 3.37636 10.7981 3.37636 9.88418C3.37636 8.97021 3.68732 8.18809 4.22714 7.63804C4.76218 7.09287 5.58109 6.71552 6.71467 6.71552L7.05504 6.71498L7.05515 6.71498C7.52536 6.71418 8.4239 6.71266 9.40719 6.71146L9.40719 5.04479C8.42044 5.04599 7.52145 5.04752 7.05249 5.04831L7.05248 5.04831L6.71467 5.04885C5.191 5.04885 3.92409 5.56738 3.03762 6.47064C2.15594 7.36903 1.7097 8.58791 1.7097 9.88418C1.7097 11.1804 2.15593 12.3994 3.0376 13.2978C3.92406 14.2011 5.19097 14.7197 6.71467 14.7197L7.05402 14.7203C7.52342 14.7211 8.42152 14.7226 9.40719 14.7238L9.40719 13.0572Z" fill="#151515"/>
<path d="M13.3333 9.99999L6.66665 9.99999" stroke="#151515" stroke-width="1.5" stroke-linecap="round" stroke-linejoin="round"/>
</svg>
