<svg width="20" height="20" viewBox="0 0 20 20" fill="none" xmlns="http://www.w3.org/2000/svg">
<path d="M14.5394 7.1697L14.5394 2.63025M14.5394 7.1697L12.2697 5.35392M14.5394 7.1697L16.8091 5.35392" stroke="#151515" stroke-width="1.5" stroke-linecap="round" stroke-linejoin="round"/>
<path d="M8.70804 16.3992C8.6532 16.2261 8.49247 16.1084 8.31081 16.1084H5.93683C5.75517 16.1084 5.59445 16.2261 5.53961 16.3992L5.14336 17.6505C5.08852 17.8237 4.9278 17.9414 4.74614 17.9414H3.3398C3.04841 17.9414 2.84701 17.6499 2.95006 17.3773L6.02106 9.25479C6.08234 9.09272 6.23753 8.98548 6.4108 8.98548H7.83751C8.01045 8.98548 8.16542 9.09231 8.22693 9.25394L11.3182 17.3765C11.422 17.6492 11.2205 17.9414 10.9288 17.9414H9.50151C9.31985 17.9414 9.15912 17.8237 9.10428 17.6505L8.70804 16.3992ZM6.17681 14.3843C6.14274 14.4918 6.22295 14.6014 6.33568 14.6014H7.90452C8.01725 14.6014 8.09746 14.4918 8.06339 14.3843L7.27897 11.9101C7.22981 11.755 7.01039 11.755 6.96123 11.9101L6.17681 14.3843Z" fill="#151515"/>
<path d="M15.5624 17.9414C15.4838 17.9414 15.4258 17.9308 15.394 17.8589C15.3221 17.696 15.0901 17.6033 14.9454 17.707C14.613 17.9453 14.2058 18.0644 13.7238 18.0644C13.049 18.0644 12.4884 17.8799 12.0419 17.5108C11.6003 17.1417 11.3796 16.664 11.3796 16.0776C11.3796 15.3805 11.6475 14.8413 12.1833 14.4599C12.7241 14.0785 13.5005 13.8837 14.5126 13.8755H14.7359C14.9661 13.8755 15.1526 13.689 15.1526 13.4589V13.3404C15.1526 13.0411 15.0906 12.8299 14.9666 12.7068C14.8425 12.5838 14.6614 12.5223 14.4233 12.5223C14.0635 12.5223 13.8268 12.6413 13.7132 12.8793C13.614 13.0869 13.4479 13.285 13.2178 13.285H11.9451C11.7149 13.285 11.5223 13.096 11.5739 12.8717C11.6734 12.4392 11.936 12.0706 12.3619 11.7657C12.9225 11.3639 13.6295 11.1629 14.4828 11.1629C15.3659 11.1629 16.0481 11.3536 16.5294 11.735C17.0156 12.1123 17.2587 12.6535 17.2587 13.3589V16.4897C17.2686 17.0638 17.2587 17.488 17.2587 17.8368C17.2587 17.8946 17.2118 17.9414 17.1541 17.9414H15.5624ZM14.1926 16.6989C14.4258 16.6989 14.6242 16.6599 14.7879 16.582C14.8972 16.53 14.9877 16.4716 15.0594 16.4068C15.126 16.3467 15.1526 16.2568 15.1526 16.1671V15.3379C15.1526 15.1078 14.9661 14.9212 14.7359 14.9212H14.6466C14.2893 14.9212 14.0065 15.0155 13.7982 15.2042C13.5948 15.3928 13.4931 15.645 13.4931 15.9607C13.4931 16.4528 13.7262 16.6989 14.1926 16.6989Z" fill="#151515"/>
</svg>
