<svg width="20" height="20" viewBox="0 0 20 20" fill="none" xmlns="http://www.w3.org/2000/svg">
<path d="M5.30225 6.19849H14.6944" stroke="#151515" stroke-width="1.5" stroke-linecap="round" stroke-linejoin="round"/>
<path d="M5.30225 9.01608H14.6944" stroke="#151515" stroke-width="1.5" stroke-linecap="round" stroke-linejoin="round"/>
<path d="M15.6414 3.60422H4.41789C3.49741 3.60422 2.75122 4.35041 2.75122 5.27088V10.4929C2.75122 11.4134 3.49741 12.1595 4.41789 12.1595H10.2773C10.4044 12.1595 10.5246 12.2176 10.6037 12.3172L13.679 16.1924C13.9243 16.5016 14.422 16.3281 14.422 15.9334V12.5762C14.422 12.3461 14.6086 12.1595 14.8387 12.1595H16.8914C17.1215 12.1595 17.308 11.973 17.308 11.7429V5.27088C17.308 4.35041 16.5619 3.60422 15.6414 3.60422Z" stroke="#151515" stroke-width="1.5" stroke-linejoin="round"/>
</svg>
