<svg width="20" height="20" viewBox="0 0 20 20" fill="none" xmlns="http://www.w3.org/2000/svg">
<path d="M3.88489 3.48235L16.1151 15.7126" stroke="#151515" stroke-width="1.5" stroke-linecap="round" stroke-linejoin="round"/>
<path fill-rule="evenodd" clip-rule="evenodd" d="M7.95136 4.03427C8.25961 3.20198 9.06054 2.60877 10 2.60877C11.2062 2.60877 12.184 3.58657 12.184 4.79274V8.2669L7.95136 4.03427ZM10.7283 10.3467L7.81606 7.4345V8.28708C7.81606 9.49325 8.79385 10.471 10 10.471C10.2554 10.471 10.5005 10.4272 10.7283 10.3467Z" fill="#151515"/>
<path d="M7.95136 4.03427L7.42103 4.5646L7.08107 4.22464L7.24805 3.77379L7.95136 4.03427ZM12.184 8.2669H12.934V10.0776L11.6537 8.79723L12.184 8.2669ZM10.7283 10.3467L11.2586 9.81636L12.0995 10.6573L10.9783 11.0538L10.7283 10.3467ZM7.81606 7.4345H7.06606V5.62384L8.34639 6.90417L7.81606 7.4345ZM7.24805 3.77379C7.66173 2.65682 8.73673 1.85877 10 1.85877V3.35877C9.38435 3.35877 8.85749 3.74713 8.65467 4.29475L7.24805 3.77379ZM10 1.85877C11.6204 1.85877 12.934 3.17235 12.934 4.79274H11.434C11.434 4.00078 10.792 3.35877 10 3.35877V1.85877ZM12.934 4.79274V8.2669H11.434V4.79274H12.934ZM8.48169 3.50394L12.7143 7.73657L11.6537 8.79723L7.42103 4.5646L8.48169 3.50394ZM10.1979 10.877L7.28573 7.96483L8.34639 6.90417L11.2586 9.81636L10.1979 10.877ZM7.06606 8.28708V7.4345H8.56606V8.28708H7.06606ZM10 11.221C8.37964 11.221 7.06606 9.90746 7.06606 8.28708H8.56606C8.56606 9.07904 9.20807 9.72105 10 9.72105V11.221ZM10.9783 11.0538C10.6713 11.1623 10.3417 11.221 10 11.221V9.72105C10.169 9.72105 10.3296 9.69213 10.4782 9.63959L10.9783 11.0538Z" fill="#151515"/>
<path fill-rule="evenodd" clip-rule="evenodd" d="M6.67058 11.1754C6.57713 10.8431 6.232 10.6495 5.89971 10.743C5.56742 10.8364 5.37381 11.1816 5.46727 11.5139C6.01804 13.4721 7.46833 14.7601 9.37507 14.9902V17.4597C9.37507 17.8049 9.65489 18.0847 10.0001 18.0847C10.3452 18.0847 10.6251 17.8049 10.6251 17.4597V14.9902C11.6614 14.8651 12.5629 14.4276 13.2584 13.7398L12.3747 12.8561C11.7664 13.4541 10.9492 13.7772 10.0001 13.7772C8.37426 13.7772 7.13573 12.8293 6.67058 11.1754ZM13.0975 11.8111C13.1885 11.6127 13.2662 11.4006 13.3295 11.1754C13.423 10.8431 13.7681 10.6495 14.1004 10.743C14.4327 10.8364 14.6263 11.1816 14.5329 11.5139C14.408 11.9579 14.2368 12.3675 14.0246 12.7382L13.0975 11.8111Z" fill="#151515"/>
</svg>
