<svg width="20" height="20" viewBox="0 0 20 20" fill="none" xmlns="http://www.w3.org/2000/svg">
<path d="M3.92261 3.58263L16.0774 15.7374" stroke="#151515" stroke-width="1.5" stroke-linecap="round" stroke-linejoin="round"/>
<path fill-rule="evenodd" clip-rule="evenodd" d="M7.23873 4.44609C7.44929 3.11066 8.60538 2.08944 9.99999 2.08944C11.5439 2.08944 12.7955 3.34103 12.7955 4.88494V8.35774C12.7955 8.83368 12.6765 9.28185 12.4668 9.67413L11.5047 8.71204C11.5314 8.59827 11.5455 8.47965 11.5455 8.35774V4.88494C11.5455 4.03139 10.8535 3.33944 9.99999 3.33944C9.14643 3.33944 8.45448 4.03139 8.45448 4.88494V5.66184L7.23873 4.44609ZM8.45448 7.42961L7.20449 6.17961V8.35774C7.20449 9.90165 8.45607 11.1532 9.99999 11.1532C10.6144 11.1532 11.1825 10.955 11.6439 10.619L10.7399 9.71497C10.5201 9.83501 10.268 9.90324 9.99999 9.90324C9.14643 9.90324 8.45448 9.2113 8.45448 8.35774V7.42961Z" fill="#151515"/>
<path fill-rule="evenodd" clip-rule="evenodd" d="M6.69479 11.2272C6.60134 10.8949 6.25621 10.7013 5.92392 10.7948C5.59164 10.8882 5.39803 11.2334 5.49148 11.5657C6.03893 13.5122 7.48014 14.793 9.37504 15.0229V17.4738C9.37504 17.819 9.65486 18.0988 10 18.0988C10.3452 18.0988 10.625 17.819 10.625 17.4738V15.0229C12.0296 14.8525 13.1849 14.1047 13.9117 12.9364L12.9959 12.0206C12.4032 13.1687 11.3327 13.8101 10 13.8101C8.38607 13.8101 7.15662 12.8693 6.69479 11.2272ZM13.5968 10.8538C13.7372 10.7736 13.9083 10.7476 14.0762 10.7948C14.4084 10.8882 14.6021 11.2334 14.5086 11.5657C14.494 11.6175 14.4788 11.669 14.4629 11.7199L13.5968 10.8538Z" fill="#151515"/>
</svg>
