<svg width="20" height="20" viewBox="0 0 20 20" fill="none" xmlns="http://www.w3.org/2000/svg">
<path d="M2.12341 6.97985C2.12341 6.38154 2.60844 5.89651 3.20675 5.89651H16.5845C17.1828 5.89651 17.6678 6.38154 17.6678 6.97985V13.0201C17.6678 13.6184 17.1828 14.1034 16.5845 14.1034H3.20675C2.60844 14.1034 2.12341 13.6184 2.12341 13.0201V6.97985Z" stroke="#151515" stroke-width="1.5"/>
<circle cx="10.2597" cy="9.99994" r="3.55734" stroke="black" stroke-width="1.5"/>
<path fill-rule="evenodd" clip-rule="evenodd" d="M9.81858 7.74486C9.81858 7.78945 9.78745 7.82772 9.74438 7.83926C9.52225 7.89878 9.32 8.00425 9.15376 8.17049C8.86541 8.45884 8.75989 8.85553 8.75989 9.27643C8.75989 9.4916 8.8095 9.69157 8.91904 9.86499C9.02764 10.0369 9.17619 10.1528 9.32645 10.2318C9.602 10.3768 9.94271 10.4247 10.1892 10.4593L10.1983 10.4606C10.4899 10.5015 10.678 10.5289 10.8044 10.5866C10.837 10.6015 10.8539 10.6138 10.8618 10.6208C10.8663 10.6248 10.8699 10.6298 10.8716 10.6356C10.8736 10.6425 10.8773 10.6587 10.8773 10.688C10.8773 10.8941 10.8156 11.044 10.7292 11.1378C10.6484 11.2256 10.5083 11.3056 10.2597 11.3056C9.9748 11.3056 9.84215 11.2347 9.7776 11.1701C9.76284 11.1554 9.74774 11.137 9.73323 11.1141C9.60285 10.9083 9.44463 10.688 9.20101 10.688C8.95738 10.688 8.75215 10.888 8.80384 11.1261C8.85865 11.3786 8.96845 11.6086 9.15376 11.794C9.32 11.9602 9.52225 12.0657 9.74438 12.1252C9.78745 12.1367 9.81858 12.175 9.81858 12.2196V12.3738C9.81858 12.6174 10.0161 12.8149 10.2597 12.8149C10.5033 12.8149 10.7008 12.6174 10.7008 12.3738L10.7008 12.2075C10.7008 12.1643 10.7302 12.1268 10.7715 12.114C11.009 12.0405 11.2148 11.9129 11.3782 11.7355C11.6447 11.4461 11.7595 11.0666 11.7595 10.688C11.7595 10.478 11.7055 10.2821 11.5867 10.1154C11.471 9.95305 11.3171 9.85078 11.1707 9.78397C10.9204 9.66974 10.6098 9.62683 10.3764 9.5946C10.3575 9.59197 10.339 9.58942 10.3211 9.58691C10.0389 9.54726 9.85532 9.51319 9.73725 9.45107C9.68901 9.42568 9.67214 9.40522 9.66494 9.39382C9.65868 9.38392 9.64213 9.3536 9.64213 9.27643C9.64213 8.99153 9.71306 8.85887 9.7776 8.79433C9.84215 8.72978 9.9748 8.65886 10.2597 8.65886C10.5446 8.65886 10.6773 8.72978 10.7418 8.79433C10.7566 8.80909 10.7717 8.82742 10.7862 8.85033C10.9166 9.05613 11.0748 9.27643 11.3184 9.27643C11.562 9.27643 11.7673 9.0764 11.7156 8.83832C11.6608 8.58585 11.551 8.3558 11.3656 8.17049C11.1994 8.00425 10.9972 7.89878 10.775 7.83926C10.732 7.82772 10.7008 7.78945 10.7008 7.74486L10.7008 7.62606C10.7008 7.38243 10.5033 7.18494 10.2597 7.18494C10.0161 7.18494 9.81858 7.38243 9.81858 7.62606V7.74486Z" fill="black"/>
</svg>
