<svg width="20" height="20" viewBox="0 0 20 20" fill="none" xmlns="http://www.w3.org/2000/svg">
<circle cx="9.99997" cy="10" r="7.31442" stroke="#151515" stroke-width="1.5"/>
<path fill-rule="evenodd" clip-rule="evenodd" d="M9.31384 6.48567C9.31384 6.55896 9.26265 6.62184 9.19191 6.641C8.84896 6.73389 8.53671 6.8975 8.27976 7.15445C7.83125 7.60296 7.66711 8.21999 7.66711 8.87466C7.66711 9.20935 7.74429 9.52039 7.91467 9.79012C8.08359 10.0575 8.31465 10.2378 8.54837 10.3607C8.97695 10.5862 9.50692 10.6607 9.89038 10.7145L9.90449 10.7165C10.358 10.7802 10.6506 10.8228 10.8472 10.9125C10.898 10.9357 10.9242 10.9548 10.9366 10.9658C10.9436 10.972 10.9491 10.9798 10.9517 10.9888C10.9549 10.9995 10.9606 11.0247 10.9606 11.0703C10.9606 11.3909 10.8646 11.624 10.7303 11.7699C10.6045 11.9065 10.3866 12.0309 9.99997 12.0309C9.55683 12.0309 9.3505 11.9206 9.2501 11.8202C9.22713 11.7972 9.20365 11.7687 9.18108 11.7331C8.97829 11.4129 8.73219 11.0703 8.35325 11.0703C7.97431 11.0703 7.65508 11.3814 7.73548 11.7517C7.82074 12.1444 7.99152 12.5023 8.27976 12.7905C8.53671 13.0474 8.84896 13.2111 9.19191 13.304C9.26265 13.3231 9.31384 13.386 9.31384 13.4593V13.6924C9.31384 14.0713 9.62103 14.3785 9.99997 14.3785C10.3789 14.3785 10.6861 14.0713 10.6861 13.6924L10.6861 13.4403C10.6861 13.3692 10.7344 13.3076 10.8023 13.2864C11.169 13.1717 11.4869 12.974 11.7397 12.6995C12.1543 12.2494 12.3328 11.6592 12.3328 11.0703C12.3328 10.7437 12.2487 10.439 12.064 10.1797C11.8841 9.92711 11.6447 9.76803 11.417 9.66411C11.0277 9.48643 10.5446 9.41969 10.1816 9.36955C10.152 9.36547 10.1233 9.3615 10.0955 9.35759C9.65659 9.29592 9.37099 9.24293 9.18733 9.1463C9.11229 9.10682 9.08605 9.07498 9.07486 9.05726C9.06513 9.04186 9.03938 8.9947 9.03938 8.87466C9.03938 8.43152 9.14971 8.22518 9.2501 8.12479C9.3505 8.02439 9.55683 7.91407 9.99997 7.91407C10.4431 7.91407 10.6494 8.02439 10.7498 8.12479C10.7728 8.14776 10.7963 8.17627 10.8189 8.21189C11.0217 8.53201 11.2678 8.87466 11.6467 8.87466C12.0256 8.87466 12.3449 8.56353 12.2645 8.19321C12.1792 7.80052 12.0084 7.44268 11.7202 7.15445C11.4632 6.8975 11.151 6.73389 10.808 6.641C10.7373 6.62184 10.6861 6.55896 10.6861 6.48567V6.30762C10.6861 5.92868 10.3789 5.62149 9.99997 5.62149C9.62103 5.62149 9.31384 5.92868 9.31384 6.30763V6.48567Z" fill="#151515"/>
</svg>
