<svg width="20" height="20" viewBox="0 0 20 20" fill="none" xmlns="http://www.w3.org/2000/svg">
<path fill-rule="evenodd" clip-rule="evenodd" d="M9.9991 7.93757C9.92741 7.99921 9.85337 8.1055 9.85337 8.32429V9.36681C9.85337 9.45885 9.92799 9.53347 10.02 9.53347H10.5174C10.7475 9.53347 10.9341 9.72002 10.9341 9.95014V10.5831C10.9341 10.8132 10.7475 10.9997 10.5174 10.9997H10.02C9.92799 10.9997 9.85337 11.0743 9.85337 11.1664V12.0322C9.85337 12.1242 9.92796 12.1988 10.02 12.1988L12.0761 12.1993C12.3061 12.1994 12.4926 12.3859 12.4926 12.616V13.249C12.4926 13.4791 12.3061 13.6656 12.076 13.6656H8.15283C7.92271 13.6656 7.73616 13.4791 7.73616 13.249V12.6161C7.73616 12.3859 7.92271 12.1994 8.15283 12.1994H8.22044C8.31249 12.1994 8.38711 12.1248 8.38711 12.0327V11.1664C8.38711 11.0743 8.31249 10.9997 8.22044 10.9997H7.72416C7.49404 10.9997 7.3075 10.8132 7.3075 10.5831V9.95014C7.3075 9.72002 7.49404 9.53347 7.72416 9.53347H8.22044C8.31249 9.53347 8.38711 9.45885 8.38711 9.36681V8.32429C8.38711 7.70521 8.62761 7.18311 9.04311 6.82582C9.44347 6.48155 9.95332 6.33437 10.4399 6.33437C10.9264 6.33437 11.4363 6.48155 11.8366 6.82582C12.2521 7.18311 12.4926 7.70521 12.4926 8.32429V8.64075C12.4926 8.87087 12.3061 9.05742 12.076 9.05742L11.443 9.05742C11.2129 9.05742 11.0264 8.87087 11.0264 8.64075V8.32429C11.0264 8.1055 10.9523 7.99921 10.8806 7.93757C10.7938 7.86291 10.6439 7.80063 10.4399 7.80063C10.2359 7.80063 10.0859 7.86291 9.9991 7.93757Z" fill="#151515"/>
<circle cx="10.0001" cy="10" r="7.31441" stroke="#151515" stroke-width="1.5"/>
</svg>
