<svg width="20" height="20" viewBox="0 0 20 20" fill="none" xmlns="http://www.w3.org/2000/svg">
<path d="M5.27523 3.10177C6.33692 2.69142 7.47758 2.55592 8.60004 2.70681C9.72251 2.85769 10.7935 3.29049 11.7219 3.96834C12.6503 4.6462 13.4084 5.54902 13.9319 6.59993C14.4554 7.65084 14.7286 8.81869 14.7283 10.004C14.728 11.1894 14.4542 12.3571 13.9302 13.4077C13.4062 14.4583 12.6475 15.3607 11.7188 16.038C10.7901 16.7154 9.71888 17.1476 8.59634 17.2978C7.4738 17.4481 6.33321 17.312 5.27173 16.901C5.27173 16.901 9.47464 14.3286 9.47464 10.0021C9.47464 5.67554 5.27523 3.10177 5.27523 3.10177Z" stroke="#151515" stroke-width="1.5" stroke-linejoin="round"/>
</svg>
