<svg width="20" height="20" viewBox="0 0 20 20" fill="none" xmlns="http://www.w3.org/2000/svg">
<path d="M5.23937 3.05491C6.30912 2.64145 7.45843 2.50491 8.58942 2.65694C9.7204 2.80897 10.7996 3.24506 11.735 3.92806C12.6704 4.61106 13.4343 5.52074 13.9618 6.57962C14.4892 7.63851 14.7645 8.81523 14.7642 10.0096C14.7639 11.2039 14.488 12.3805 13.96 13.439C13.4321 14.4976 12.6676 15.4069 11.7319 16.0894C10.7961 16.7719 9.71675 17.2073 8.58569 17.3587C7.45463 17.5101 6.30538 17.373 5.23584 16.9589C5.23584 16.9589 9.47066 14.367 9.47066 10.0076C9.47066 5.64822 5.23937 3.05491 5.23937 3.05491Z" fill="#151515" stroke="#151515" stroke-width="1.5" stroke-linejoin="round"/>
</svg>
