<svg width="20" height="20" viewBox="0 0 20 20" fill="none" xmlns="http://www.w3.org/2000/svg">
<circle cx="4.98267" cy="13.6166" r="1.57325" stroke="#151515" stroke-width="1.5"/>
<circle cx="15.8245" cy="13.6166" r="1.57325" stroke="#151515" stroke-width="1.5"/>
<path d="M2.65953 11.2933L3.34889 10.9978L2.65953 11.2933ZM4.75568 7.82684L5.50568 7.82682L4.75568 7.82684ZM10.4382 8.7621L11.1497 8.99929L10.4382 8.7621ZM9.77694 11.1013L9.06084 11.3242L9.77694 11.1013ZM11.1781 12.1936L11.1365 12.9425L11.1781 12.1936ZM13.6574 6.83078L14.3059 6.454L13.6574 6.83078ZM15.8246 10.5189L15.1784 10.8995L15.1815 10.9047L15.8246 10.5189ZM11.1781 14.0037L11.3299 14.7381L11.1781 14.0037ZM12.8957 6.66556L12.7788 5.92473L12.754 5.92864L12.7295 5.9342L12.8957 6.66556ZM12.0187 5.73228L12.7637 5.6459L12.0187 5.73228ZM13.2721 4.61522L13.3145 3.86641L13.2721 4.61522ZM14.2504 6.34172L13.6035 5.96213L14.2504 6.34172ZM13.6638 6.84188L13.0155 7.21885L13.6638 6.84188ZM11.1385 5.01473C10.7422 4.89421 10.3232 5.11777 10.2027 5.51406C10.0822 5.91036 10.3057 6.32931 10.702 6.44983L11.1385 5.01473ZM12.0187 6.06635L12.7568 5.9332L12.0187 6.06635ZM3.43395 12.0677C3.83339 11.4329 3.83349 11.4329 3.83359 11.433C3.83362 11.433 3.83372 11.4331 3.83378 11.4331C3.83391 11.4332 3.83402 11.4333 3.83412 11.4333C3.83433 11.4335 3.83451 11.4336 3.83465 11.4337C3.83493 11.4339 3.83508 11.4339 3.83509 11.434C3.83511 11.434 3.8346 11.4336 3.83358 11.433C3.83155 11.4317 3.82754 11.4291 3.82178 11.4253C3.81021 11.4176 3.79188 11.4052 3.76868 11.3889C3.72161 11.3557 3.6579 11.3085 3.59138 11.2528C3.52366 11.1961 3.46169 11.1378 3.41343 11.0833C3.36153 11.0246 3.3477 10.995 3.34889 10.9978L1.97017 11.5887C2.129 11.9593 2.44422 12.2487 2.62845 12.4029C2.73448 12.4917 2.83278 12.5644 2.9046 12.615C2.94083 12.6405 2.97115 12.661 2.99339 12.6758C3.00452 12.6831 3.01369 12.6891 3.02062 12.6936C3.02408 12.6958 3.027 12.6977 3.02932 12.6992C3.03048 12.6999 3.0315 12.7005 3.03236 12.7011C3.0328 12.7014 3.03319 12.7016 3.03355 12.7018C3.03373 12.702 3.0339 12.7021 3.03406 12.7022C3.03413 12.7022 3.03425 12.7023 3.03429 12.7023C3.0344 12.7024 3.0345 12.7024 3.43395 12.0677ZM3.34889 10.9978C3.38461 11.0812 3.31943 11.1179 3.39564 11.0107C3.48006 10.8919 3.64806 10.7406 3.88834 10.5789C4.11805 10.4243 4.36649 10.2914 4.56299 10.1955C4.65988 10.1481 4.74111 10.1113 4.79703 10.0867C4.82493 10.0744 4.84636 10.0653 4.86009 10.0595C4.86695 10.0566 4.87187 10.0546 4.8747 10.0534C4.87612 10.0528 4.87701 10.0524 4.87735 10.0523C4.87753 10.0522 4.87756 10.0522 4.87746 10.0523C4.87741 10.0523 4.87733 10.0523 4.87721 10.0524C4.87715 10.0524 4.87703 10.0524 4.877 10.0524C4.87688 10.0525 4.87674 10.0526 4.59557 9.35725C4.3144 8.66195 4.31425 8.66201 4.31409 8.66208C4.31402 8.6621 4.31385 8.66217 4.31372 8.66222C4.31346 8.66233 4.31316 8.66245 4.31282 8.66259C4.31215 8.66286 4.31133 8.6632 4.31038 8.66359C4.30846 8.66437 4.30598 8.66539 4.30294 8.66664C4.29688 8.66914 4.28862 8.67257 4.27831 8.6769C4.25772 8.68557 4.22891 8.69787 4.19318 8.71359C4.12184 8.74496 4.0222 8.79024 3.90468 8.84764C3.67236 8.9611 3.35781 9.12793 3.05087 9.33449C2.75449 9.53395 2.41215 9.80524 2.17304 10.1416C1.92574 10.4895 1.72385 11.014 1.97017 11.5887L3.34889 10.9978ZM4.59557 9.35725C5.33741 9.46757 5.33742 9.46754 5.33742 9.46751C5.33742 9.46749 5.33743 9.46746 5.33743 9.46743C5.33744 9.46736 5.33746 9.46729 5.33747 9.46719C5.3375 9.467 5.33754 9.46674 5.33758 9.46642C5.33768 9.46578 5.33781 9.46488 5.33798 9.46373C5.33832 9.46143 5.33881 9.45813 5.33943 9.45387C5.34068 9.44535 5.34248 9.433 5.34476 9.41725C5.3493 9.38577 5.35574 9.34061 5.36345 9.28513C5.37884 9.17436 5.39941 9.0215 5.42004 8.85359C5.45927 8.53414 5.50569 8.10677 5.50568 7.82682L4.00568 7.82687C4.00568 8.00055 3.97204 8.33838 3.93122 8.67073C3.91182 8.82871 3.89236 8.9734 3.87773 9.0787C3.87042 9.13125 3.86436 9.17376 3.86015 9.20294C3.85804 9.21752 3.8564 9.22875 3.85531 9.23623C3.85476 9.23996 3.85435 9.24276 3.85408 9.24456C3.85395 9.24546 3.85385 9.24612 3.85379 9.24651C3.85376 9.24671 3.85374 9.24685 3.85373 9.24692C3.85373 9.24695 3.85372 9.24697 3.85372 9.24697C3.85372 9.24698 3.85372 9.24697 3.85372 9.24697C3.85373 9.24695 3.85373 9.24694 4.59557 9.35725ZM5.50568 7.82682C5.50569 8.08255 5.37455 8.26635 5.26002 8.36441C5.16304 8.44744 5.07244 8.47749 5.04813 8.48524C4.99546 8.50202 4.97884 8.49706 5.03968 8.49412C5.14397 8.48908 5.32729 8.4957 5.58838 8.51933C6.09916 8.56556 6.7953 8.66598 7.50147 8.78886C8.20638 8.91151 8.90142 9.05307 9.40799 9.17798C9.66522 9.24141 9.85375 9.29568 9.96641 9.33605C10.0295 9.35865 10.0322 9.36413 10.0062 9.34872C9.99883 9.34432 9.93007 9.30493 9.85928 9.22201C9.7917 9.14286 9.6087 8.87888 9.72669 8.52492L11.1497 8.99929C11.2732 8.62878 11.0843 8.34669 11.0001 8.24803C10.9126 8.1456 10.8165 8.08528 10.7716 8.05868C10.6708 7.99888 10.5586 7.95486 10.4723 7.92395C10.2863 7.8573 10.0385 7.78852 9.76711 7.7216C9.21648 7.58583 8.48537 7.43752 7.75861 7.31106C7.03311 7.18482 6.29207 7.07689 5.72358 7.02544C5.44504 7.00023 5.1782 6.98567 4.96725 6.99587C4.87047 7.00055 4.72996 7.01232 4.59279 7.05602C4.52624 7.07722 4.40325 7.12328 4.28443 7.22501C4.14808 7.34176 4.00567 7.54693 4.00568 7.82687L5.50568 7.82682ZM9.06084 11.3242C9.20269 11.7799 9.43282 12.194 9.81761 12.4939C10.2024 12.7939 10.6601 12.916 11.1365 12.9425L11.2197 11.4448C10.9412 11.4293 10.8107 11.3662 10.7398 11.3109C10.6689 11.2557 10.5759 11.1446 10.493 10.8783L9.06084 11.3242ZM11.1365 12.9425C12.1729 13 12.8725 12.3343 13.2573 11.9495L12.1966 10.8889C11.807 11.2786 11.5338 11.4622 11.2197 11.4448L11.1365 12.9425ZM13.2573 11.9495C13.4336 11.7733 13.6535 11.5617 13.8312 11.2983C14.0237 11.0129 14.1539 10.692 14.2367 10.2792L12.766 9.98407C12.7158 10.2344 12.6523 10.3636 12.5877 10.4595C12.5082 10.5772 12.4075 10.678 12.1966 10.8889L13.2573 11.9495ZM14.2367 10.2792C14.3142 9.89293 14.1955 9.49713 14.096 9.22828C13.9843 8.92674 13.8253 8.60698 13.6723 8.31515C13.504 7.99407 13.3672 7.75079 13.2265 7.4768C13.0897 7.21042 13.0111 7.02987 12.9815 6.92198L11.5349 7.31856C11.6099 7.59214 11.7555 7.89586 11.8922 8.16204C12.025 8.42061 12.2109 8.75818 12.3439 9.01171C12.4921 9.29448 12.613 9.54308 12.6893 9.74912C12.7777 9.98786 12.755 10.0389 12.766 9.98407L14.2367 10.2792ZM15.1815 10.9047L16.3431 12.8407L17.6293 12.069L16.4677 10.133L15.1815 10.9047ZM6.91882 14.3909C6.93287 15.1407 6.93292 15.1407 6.93298 15.1407C6.93302 15.1407 6.93309 15.1407 6.93316 15.1407C6.9333 15.1407 6.93348 15.1407 6.93369 15.1407C6.93413 15.1407 6.93472 15.1407 6.93547 15.1407C6.93697 15.1407 6.9391 15.1406 6.94185 15.1406C6.94734 15.1405 6.95529 15.1403 6.9656 15.14C6.98621 15.1396 7.01624 15.1389 7.0548 15.1378C7.13191 15.1358 7.24321 15.1325 7.38162 15.1274C7.65823 15.1173 8.0442 15.1003 8.48255 15.0725C9.34929 15.0176 10.4579 14.9184 11.3299 14.7381L11.0263 13.2692C10.2627 13.427 9.24164 13.5214 8.38765 13.5755C7.96563 13.6023 7.59346 13.6187 7.32702 13.6284C7.19391 13.6333 7.08746 13.6364 7.0147 13.6384C6.97832 13.6393 6.95039 13.64 6.93177 13.6404C6.92246 13.6406 6.91548 13.6408 6.91095 13.6409C6.90868 13.6409 6.90702 13.641 6.90599 13.641C6.90547 13.641 6.90511 13.641 6.90491 13.641C6.90481 13.641 6.90474 13.641 6.90472 13.641C6.90471 13.641 6.90472 13.641 6.90472 13.641C6.90474 13.641 6.90477 13.641 6.91882 14.3909ZM11.3299 14.7381C11.9046 14.6194 12.6097 14.4172 13.1566 14.2502C13.4332 14.1658 13.6753 14.0885 13.8484 14.0322C13.935 14.0041 14.0045 13.9812 14.0526 13.9652C14.0767 13.9572 14.0954 13.951 14.1083 13.9467C14.1147 13.9445 14.1196 13.9428 14.1231 13.9417C14.1248 13.9411 14.1261 13.9407 14.127 13.9403C14.1275 13.9402 14.1279 13.9401 14.1281 13.94C14.1283 13.9399 14.1284 13.9399 14.1285 13.9399C14.1285 13.9398 14.1286 13.9398 14.1286 13.9398C14.1286 13.9398 14.1287 13.9398 13.8886 13.2293C13.6485 12.5187 13.6485 12.5187 13.6485 12.5187C13.6485 12.5187 13.6485 12.5187 13.6485 12.5187C13.6485 12.5187 13.6485 12.5187 13.6484 12.5188C13.6483 12.5188 13.648 12.5189 13.6477 12.519C13.6471 12.5192 13.6461 12.5196 13.6446 12.52C13.6418 12.521 13.6375 12.5224 13.6317 12.5244C13.6201 12.5283 13.6027 12.5341 13.58 12.5416C13.5346 12.5567 13.4682 12.5786 13.3849 12.6056C13.2182 12.6598 12.9849 12.7343 12.7186 12.8156C12.1798 12.9801 11.5297 13.1652 11.0263 13.2692L11.3299 14.7381ZM9.72669 8.52492C9.57363 8.98409 9.29347 9.80276 9.20484 10.0327L10.6045 10.5722C10.708 10.3035 10.9997 9.44923 11.1497 8.99929L9.72669 8.52492ZM9.20484 10.0327C9.19154 10.0672 9.17807 10.0934 9.15331 10.1383C9.13565 10.1704 9.07197 10.2791 9.02905 10.4029C8.9167 10.7269 8.96948 11.0308 9.06084 11.3242L10.493 10.8783C10.4649 10.7879 10.4643 10.7616 10.465 10.7718C10.4655 10.7798 10.4661 10.7982 10.4628 10.8237C10.4594 10.85 10.4532 10.8743 10.4463 10.8944C10.44 10.9125 10.4349 10.9216 10.4379 10.9158C10.4428 10.9061 10.4481 10.8966 10.4669 10.8626C10.5011 10.8006 10.5539 10.7033 10.6045 10.5722L9.20484 10.0327ZM4.46411 10.0956L9.77319 11.0408L10.0361 9.56405L4.72703 8.61886L4.46411 10.0956ZM12.9815 6.92198C12.9969 6.97833 13.0044 7.04017 13.0012 7.10465C12.998 7.16882 12.9846 7.227 12.9661 7.27706C12.9303 7.37394 12.8789 7.43183 12.8557 7.45519C12.8316 7.47943 12.8164 7.48791 12.8218 7.48453C12.8257 7.4821 12.8372 7.47547 12.8581 7.46597C12.901 7.44639 12.9534 7.42809 13.0008 7.41385C13.023 7.40716 13.0412 7.40226 13.0526 7.39929C13.0583 7.39782 13.0622 7.39688 13.0639 7.39647C13.0647 7.39626 13.065 7.3962 13.0647 7.39627C13.0646 7.39631 13.0643 7.39638 13.0638 7.39648C13.0636 7.39654 13.0633 7.3966 13.063 7.39667C13.0628 7.39671 13.0627 7.39674 13.0625 7.39678C13.0624 7.3968 13.0623 7.39684 13.0622 7.39685C13.0621 7.39688 13.0619 7.39691 12.8957 6.66556C12.7295 5.9342 12.7294 5.93424 12.7292 5.93427C12.7292 5.93428 12.729 5.93432 12.7289 5.93434C12.7287 5.93439 12.7285 5.93445 12.7282 5.9345C12.7277 5.93461 12.7272 5.93473 12.7266 5.93487C12.7255 5.93513 12.7241 5.93544 12.7226 5.9358C12.7196 5.9365 12.7159 5.93739 12.7115 5.93845C12.7027 5.94057 12.6912 5.94341 12.6775 5.94697C12.65 5.95406 12.6128 5.96418 12.569 5.97734C12.4843 6.00278 12.3623 6.04347 12.2359 6.10111C12.1216 6.15321 11.943 6.24581 11.7924 6.39716C11.6318 6.55858 11.4168 6.88799 11.5349 7.31856L12.9815 6.92198ZM12.8957 6.66556C13.0127 7.40638 13.0125 7.40641 13.0124 7.40643C13.0123 7.40644 13.0122 7.40646 13.0121 7.40648C13.0119 7.40651 13.0117 7.40654 13.0115 7.40657C13.0111 7.40663 13.0108 7.40668 13.0104 7.40673C13.0098 7.40682 13.0094 7.4069 13.009 7.40695C13.0083 7.40706 13.0081 7.40709 13.0083 7.40705C13.0089 7.40697 13.0113 7.40664 13.0153 7.40614C13.0234 7.40513 13.0373 7.40353 13.0554 7.40203C13.0936 7.39887 13.1395 7.39703 13.1819 7.39916C13.2301 7.40159 13.2408 7.40759 13.2244 7.4018C13.2117 7.3973 13.0941 7.35423 13.0089 7.20757L14.3059 6.454C14.1447 6.17659 13.8939 6.04749 13.7242 5.9875C13.5507 5.92622 13.3805 5.90725 13.2573 5.90106C13.1283 5.89457 13.0123 5.90046 12.9314 5.90717C12.8899 5.91061 12.855 5.91449 12.8292 5.91772C12.8162 5.91935 12.8053 5.92082 12.7969 5.92203C12.7926 5.92263 12.789 5.92317 12.786 5.92363C12.7845 5.92385 12.7831 5.92406 12.7819 5.92425C12.7813 5.92434 12.7807 5.92442 12.7802 5.92451C12.7799 5.92455 12.7797 5.92459 12.7795 5.92462C12.7793 5.92464 12.7792 5.92467 12.7791 5.92468C12.7789 5.92471 12.7788 5.92473 12.8957 6.66556ZM12.7637 5.6459C12.7572 5.58916 12.7765 5.51071 12.8173 5.46253C12.8337 5.44323 12.8605 5.41945 12.9124 5.39931C12.9665 5.37831 13.0655 5.35472 13.2297 5.36402L13.3145 3.86641C12.6135 3.82673 12.0428 4.05604 11.6726 4.49315C11.3267 4.9016 11.2264 5.41038 11.2737 5.81866L12.7637 5.6459ZM13.2297 5.36402C13.3628 5.37155 13.5202 5.37109 13.6231 5.37253C13.7452 5.37424 13.8268 5.37834 13.8845 5.38674C13.9549 5.39698 13.9083 5.40298 13.8306 5.34727C13.7827 5.3129 13.7251 5.25633 13.6822 5.17343C13.6392 5.09029 13.6274 5.01251 13.6274 4.95888H15.1274C15.1274 4.61236 14.967 4.31632 14.7047 4.12825C14.4896 3.97406 14.2506 3.92422 14.1006 3.90238C13.9379 3.87869 13.7711 3.87445 13.6441 3.87268C13.4978 3.87063 13.4051 3.87154 13.3145 3.86641L13.2297 5.36402ZM13.6274 4.95888C13.6274 5.09937 13.6356 5.24077 13.6417 5.35492C13.6483 5.47727 13.653 5.57529 13.6521 5.66678C13.6503 5.85337 13.6236 5.9279 13.6035 5.96213L14.8972 6.72131C15.1123 6.35475 15.1492 5.97021 15.1521 5.68175C15.1535 5.53572 15.1459 5.39223 15.1396 5.27435C15.1328 5.14827 15.1274 5.05074 15.1274 4.95888H13.6274ZM13.0089 7.20757C13.0111 7.21127 13.0132 7.21504 13.0155 7.21885L14.3122 6.46492C14.3101 6.46119 14.3079 6.45756 14.3059 6.454L13.0089 7.20757ZM13.0155 7.21885C13.2167 7.56502 13.7581 8.48633 14.2478 9.31872C14.493 9.73544 14.7256 10.1306 14.897 10.4216C14.9826 10.5671 15.053 10.6866 15.1019 10.7697C15.1264 10.8112 15.1455 10.8437 15.1585 10.8658C15.165 10.8768 15.17 10.8852 15.1733 10.8909C15.175 10.8938 15.1763 10.8959 15.1771 10.8974C15.1775 10.8981 15.1778 10.8986 15.1781 10.899C15.1782 10.8992 15.1783 10.8993 15.1783 10.8994C15.1783 10.8994 15.1784 10.8995 15.1784 10.8995C15.1784 10.8995 15.1784 10.8995 15.8246 10.5189C16.4708 10.1382 16.4708 10.1382 16.4708 10.1382C16.4708 10.1381 16.4708 10.1381 16.4707 10.138C16.4707 10.138 16.4706 10.1378 16.4705 10.1376C16.4703 10.1373 16.47 10.1367 16.4695 10.136C16.4687 10.1346 16.4674 10.1324 16.4658 10.1296C16.4624 10.1239 16.4574 10.1155 16.451 10.1045C16.438 10.0824 16.4189 10.05 16.3944 10.0085C16.3455 9.92543 16.2752 9.80601 16.1895 9.66057C16.0183 9.36967 15.7857 8.97464 15.5407 8.55814C15.05 7.72409 14.5111 6.80691 14.3122 6.46492L13.0155 7.21885ZM13.6035 5.96213C13.6142 5.94389 13.6124 5.95281 13.5777 5.98582C13.5466 6.01537 13.5057 6.04859 13.4595 6.08216C13.4143 6.11495 13.3714 6.14271 13.34 6.16213C13.3245 6.17166 13.3126 6.17871 13.3055 6.18288C13.3019 6.18495 13.2996 6.18627 13.2987 6.18679C13.2982 6.18705 13.2981 6.18711 13.2984 6.18695C13.2985 6.18687 13.2988 6.18674 13.2991 6.18656C13.2992 6.18647 13.2994 6.18636 13.2997 6.18624C13.2998 6.18618 13.2999 6.18612 13.3 6.18605C13.3 6.18602 13.3001 6.18597 13.3002 6.18595C13.3003 6.1859 13.3004 6.18585 13.6638 6.84188C14.0273 7.49792 14.0274 7.49787 14.0275 7.49781C14.0276 7.49779 14.0277 7.49773 14.0277 7.49769C14.0279 7.49761 14.028 7.49753 14.0282 7.49744C14.0285 7.49726 14.0289 7.49707 14.0292 7.49686C14.03 7.49644 14.0308 7.49596 14.0318 7.49542C14.0337 7.49434 14.0361 7.49301 14.0388 7.49145C14.0444 7.48832 14.0515 7.48422 14.0601 7.47921C14.0773 7.4692 14.1005 7.45544 14.1281 7.43836C14.1829 7.40456 14.2581 7.35596 14.3405 7.29616C14.48 7.19491 14.7373 6.99387 14.8972 6.72131L13.6035 5.96213ZM12.2582 7.12027C12.984 6.93146 12.984 6.93148 12.984 6.93149C12.984 6.9315 12.984 6.93151 12.984 6.93151C12.984 6.93152 12.984 6.93151 12.984 6.9315C12.984 6.93148 12.984 6.93141 12.984 6.93132C12.9839 6.93112 12.9838 6.93077 12.9837 6.93028C12.9835 6.92931 12.9831 6.92776 12.9825 6.92565C12.9814 6.92145 12.9798 6.91504 12.9776 6.90663C12.9733 6.8898 12.967 6.86497 12.9591 6.8337C12.9433 6.77108 12.9215 6.68304 12.8973 6.58193C12.8481 6.37636 12.7922 6.12944 12.7568 5.9332L11.2806 6.19951C11.3238 6.43851 11.3876 6.71855 11.4385 6.93113C11.4643 7.03909 11.4876 7.13292 11.5045 7.1999C11.5129 7.23344 11.5198 7.26034 11.5246 7.27905C11.527 7.2884 11.5289 7.29571 11.5302 7.30078C11.5308 7.30332 11.5313 7.30529 11.5317 7.30668C11.5319 7.30738 11.532 7.30793 11.5321 7.30833C11.5322 7.30853 11.5322 7.30869 11.5323 7.30882C11.5323 7.30888 11.5323 7.30893 11.5323 7.30898C11.5323 7.309 11.5323 7.30902 11.5323 7.30903C11.5323 7.30906 11.5323 7.30908 12.2582 7.12027ZM12.7568 5.9332C12.762 5.96212 12.7619 5.98054 12.7619 5.98105C12.7619 5.98175 12.7619 5.97979 12.7622 5.97393C12.7625 5.96786 12.763 5.95998 12.7638 5.94772C12.7651 5.92979 12.7687 5.88264 12.7703 5.83927C12.7721 5.79277 12.7728 5.72413 12.7637 5.6459L11.2737 5.81866C11.2705 5.79101 11.2717 5.77556 11.2714 5.78386C11.2709 5.79529 11.2701 5.80455 11.2674 5.84363C11.2637 5.89687 11.2521 6.0412 11.2806 6.19951L12.7568 5.9332ZM10.702 6.44983L11.8005 6.78391L12.2369 5.3488L11.1385 5.01473L10.702 6.44983Z" fill="#151515"/>
</svg>
