<svg width="20" height="20" viewBox="0 0 20 20" fill="none" xmlns="http://www.w3.org/2000/svg">
<path fill-rule="evenodd" clip-rule="evenodd" d="M2.66096 14.9525C2.59309 15.0636 2.67302 15.2061 2.80318 15.2061H17.1969C17.3173 15.2061 17.3979 15.0824 17.3495 14.9723L12.9148 4.89347C12.8553 4.75826 12.6623 4.76155 12.6075 4.89869L10.6785 9.72115C10.6564 9.77639 10.6654 9.83923 10.7022 9.88602L12.129 11.702C12.4134 12.0639 12.3505 12.5877 11.9886 12.8721C11.6267 13.1564 11.1028 13.0936 10.8185 12.7317L7.14148 8.05185C7.06969 7.96048 6.9288 7.96877 6.86821 8.06791L2.66096 14.9525Z" fill="#151515"/>
<path d="M12.129 11.702L12.7187 11.2386V11.2386L12.129 11.702ZM11.9886 12.8721L11.5252 12.2823L11.5252 12.2823L11.9886 12.8721ZM10.8185 12.7317L10.2287 13.195L10.2287 13.195L10.8185 12.7317ZM10.6785 9.72115L11.3749 9.99969L10.6785 9.72115ZM10.7022 9.88602L11.2919 9.42265L10.7022 9.88602ZM7.14148 8.05185L6.55174 8.51521L7.14148 8.05185ZM6.86821 8.06791L7.50817 8.459L6.86821 8.06791ZM12.9148 4.89347L13.6013 4.59141L12.9148 4.89347ZM12.6075 4.89869L11.9111 4.62015L12.6075 4.89869ZM2.66096 14.9525L2.021 14.5614L2.66096 14.9525ZM17.3495 14.9723L18.0359 14.6702L17.3495 14.9723ZM17.1969 15.9561H2.80318V14.4561H17.1969V15.9561ZM13.6013 4.59141L18.0359 14.6702L16.663 15.2743L12.2283 5.19552L13.6013 4.59141ZM9.98214 9.44261L11.9111 4.62015L13.3038 5.17724L11.3749 9.99969L9.98214 9.44261ZM11.2919 9.42265L12.7187 11.2386L11.5393 12.1653L10.1125 10.3494L11.2919 9.42265ZM12.7187 11.2386C13.259 11.9262 13.1396 12.9216 12.452 13.4618L11.5252 12.2823C11.5614 12.2539 11.5677 12.2015 11.5393 12.1653L12.7187 11.2386ZM12.452 13.4618C11.7644 14.0021 10.769 13.8826 10.2287 13.195L11.4082 12.2683C11.4367 12.3045 11.489 12.3108 11.5252 12.2823L12.452 13.4618ZM10.2287 13.195L6.55174 8.51521L7.73122 7.58848L11.4082 12.2683L10.2287 13.195ZM2.021 14.5614L6.22825 7.67682L7.50817 8.459L3.30092 15.3436L2.021 14.5614ZM11.3749 9.99969C11.4522 9.80633 11.4206 9.58641 11.2919 9.42265L10.1125 10.3494C9.91027 10.0921 9.8606 9.74646 9.98214 9.44261L11.3749 9.99969ZM6.55174 8.51521C6.80299 8.83498 7.29611 8.806 7.50817 8.459L6.22825 7.67682C6.56149 7.13153 7.3364 7.08599 7.73122 7.58848L6.55174 8.51521ZM12.2283 5.19552C12.4365 5.66874 13.1118 5.65725 13.3038 5.17724L11.9111 4.62015C12.2128 3.86584 13.2741 3.84779 13.6013 4.59141L12.2283 5.19552ZM2.80318 15.9561C2.08733 15.9561 1.64772 15.1722 2.021 14.5614L3.30092 15.3436C3.53847 14.9549 3.25872 14.4561 2.80318 14.4561V15.9561ZM17.1969 14.4561C16.7757 14.4561 16.4933 14.8888 16.663 15.2743L18.0359 14.6702C18.3025 15.2761 17.8588 15.9561 17.1969 15.9561V14.4561Z" fill="#151515"/>
</svg>
