<svg width="20" height="20" viewBox="0 0 20 20" fill="none" xmlns="http://www.w3.org/2000/svg">
<path d="M16.6666 12.5V5.41667M8.3333 14.5833V7.5M16.6666 5.41667V3.56731C16.6666 3.02517 16.1571 2.62737 15.6312 2.75886L8.96452 4.42553C8.59354 4.51827 8.3333 4.85159 8.3333 5.23398V7.5M16.6666 5.41667L8.3333 7.5" stroke="#151515" stroke-width="1.5" stroke-linecap="round" stroke-linejoin="round"/>
<path d="M11.4021 12.9167C11.4021 14.0223 12.4615 15.0833 13.9854 15.0833C15.5093 15.0833 16.5687 14.0223 16.5687 12.9167C16.5687 11.811 15.5093 10.75 13.9854 10.75C12.4615 10.75 11.4021 11.811 11.4021 12.9167Z" stroke="#151515" stroke-width="1.5"/>
<path d="M3.0234 14.5833C3.0234 15.689 4.08279 16.75 5.60673 16.75C7.13067 16.75 8.19006 15.689 8.19006 14.5833C8.19006 13.4777 7.13067 12.4167 5.60673 12.4167C4.08279 12.4167 3.0234 13.4777 3.0234 14.5833Z" stroke="#151515" stroke-width="1.5"/>
</svg>
