<svg width="20" height="20" viewBox="0 0 20 20" fill="none" xmlns="http://www.w3.org/2000/svg">
<path d="M16.6666 12.5V5.41667M8.3333 14.5833V7.5M16.6666 5.41667V3.56731C16.6666 3.02517 16.1571 2.62737 15.6312 2.75886L8.96452 4.42553C8.59354 4.51827 8.3333 4.85159 8.3333 5.23398V7.5M16.6666 5.41667L8.3333 7.5" stroke="#151515" stroke-width="1.5" stroke-linecap="round" stroke-linejoin="round"/>
<path d="M13.9857 10.75C12.4618 10.75 11.4017 11.8113 11.4017 12.917C11.4019 14.0225 12.4619 15.083 13.9857 15.083C15.5093 15.0829 16.5685 14.0225 16.5687 12.917C16.5687 11.8114 15.5095 10.7501 13.9857 10.75Z" stroke="#151515" stroke-width="1.5"/>
<path d="M5.60706 12.4167C4.08312 12.4167 3.02307 13.478 3.02307 14.5837C3.02328 15.6892 4.08327 16.7497 5.60706 16.7497C7.13067 16.7495 8.18985 15.6891 8.19006 14.5837C8.19006 13.4781 7.13082 12.4168 5.60706 12.4167Z" stroke="#151515" stroke-width="1.5"/>
</svg>
