<svg width="20" height="20" viewBox="0 0 20 20" fill="none" xmlns="http://www.w3.org/2000/svg">
<circle cx="10.0001" cy="10" r="7.31439" stroke="#151515" stroke-width="1.5"/>
<path d="M8.20788 7.31189C8.20788 7.93048 7.70642 8.43194 7.08783 8.43194C6.46924 8.43194 5.96777 7.93048 5.96777 7.31189C5.96777 6.6933 6.46924 6.19183 7.08783 6.19183C7.70642 6.19183 8.20788 6.6933 8.20788 7.31189Z" fill="#151515"/>
<path d="M14.0322 7.31189C14.0322 7.93048 13.5308 8.43194 12.9122 8.43194C12.2936 8.43194 11.7921 7.93048 11.7921 7.31189C11.7921 6.6933 12.2936 6.19183 12.9122 6.19183C13.5308 6.19183 14.0322 6.6933 14.0322 7.31189Z" fill="#151515"/>
<path d="M6.41577 12.0161C6.41577 11.6449 6.71665 11.3441 7.0878 11.3441H12.9121C13.2832 11.3441 13.5841 11.6449 13.5841 12.0161C13.5841 12.3873 13.2832 12.6881 12.9121 12.6881H7.0878C6.71665 12.6881 6.41577 12.3873 6.41577 12.0161Z" fill="#151515"/>
</svg>
