<svg width="20" height="20" viewBox="0 0 20 20" fill="none" xmlns="http://www.w3.org/2000/svg">
<path d="M4.4812 8.10135V7.60608C4.4812 7.38507 4.569 7.17311 4.72528 7.01683L8.83614 2.90597C8.99242 2.74969 9.20438 2.66189 9.42539 2.66189H9.88474M4.4812 8.10135V16.5454C4.4812 17.0056 4.8543 17.3787 5.31453 17.3787H14.6855C15.1457 17.3787 15.5188 17.0056 15.5188 16.5454V3.49522C15.5188 3.03498 15.1457 2.66189 14.6855 2.66189H9.88474M4.4812 8.10135H9.0514C9.51164 8.10135 9.88474 7.72825 9.88474 7.26801V2.66189" stroke="black" stroke-width="1.5" stroke-linejoin="round"/>
<path d="M8.1604 12.3198H11.8396M10 10.4802V14.1594" stroke="#151515" stroke-width="1.5" stroke-linecap="round" stroke-linejoin="round"/>
</svg>
