<svg width="20" height="20" viewBox="0 0 20 20" fill="none" xmlns="http://www.w3.org/2000/svg">
<path fill-rule="evenodd" clip-rule="evenodd" d="M8.87311 8.77202L11.228 11.1269C11.5004 10.8302 11.6667 10.4345 11.6667 10C11.6667 9.07953 10.9205 8.33334 10 8.33334C9.56548 8.33334 9.1698 8.49962 8.87311 8.77202Z" fill="#151515"/>
<path fill-rule="evenodd" clip-rule="evenodd" d="M11.5938 15.0282C11.0818 15.1427 10.549 15.2083 10 15.2083C8.17568 15.2083 6.52948 14.4833 5.23606 13.6514C3.93893 12.8172 2.95186 11.8466 2.43307 11.2872C1.98634 10.8055 1.94509 10.0829 2.34752 9.5551C2.70692 9.08371 3.32682 8.34394 4.17331 7.60775L5.05956 8.494C4.26392 9.17513 3.67774 9.87204 3.34156 10.313C3.32348 10.3367 3.31936 10.3577 3.32022 10.3744C3.32109 10.3914 3.3277 10.4136 3.3496 10.4373C3.82744 10.9525 4.73437 11.8425 5.91225 12.6001C7.09384 13.3601 8.50366 13.9583 10 13.9583C10.1684 13.9583 10.3357 13.9508 10.5018 13.9362L11.5938 15.0282ZM13.2094 13.1083L14.1324 14.0313C14.3511 13.9088 14.5618 13.7815 14.7639 13.6514C16.0611 12.8172 17.0481 11.8466 17.5669 11.2872C18.0136 10.8055 18.0549 10.0829 17.6525 9.5551C17.1821 8.93821 16.2657 7.86168 14.9791 6.93506C13.6918 6.00794 12.0017 5.20834 10 5.20834C8.58975 5.20834 7.33414 5.60524 6.2651 6.164L7.19847 7.09738C8.03807 6.71005 8.97721 6.45834 10 6.45834C11.6588 6.45834 13.0976 7.12045 14.2485 7.94937C15.4002 8.77878 16.2312 9.7526 16.6584 10.313C16.6765 10.3367 16.6806 10.3577 16.6798 10.3744C16.6789 10.3914 16.6723 10.4136 16.6504 10.4373C16.1726 10.9525 15.2656 11.8425 14.0877 12.6001C13.8072 12.7806 13.5138 12.9519 13.2094 13.1083Z" fill="#151515"/>
<path d="M3.33337 4.16667L15.8334 16.6667" stroke="#151515" stroke-width="1.5" stroke-linecap="round"/>
</svg>
