<svg width="20" height="20" viewBox="0 0 20 20" fill="none" xmlns="http://www.w3.org/2000/svg">
<path d="M8.57839 15.2941C7.69193 15.2941 6.54975 15.2941 5.64967 15.2941C4.99936 15.2941 4.5897 14.577 4.8953 14.0029C5.53779 12.7961 6.37251 11.03 6.37251 10C6.37251 7.79412 6.37251 10.6305 6.37251 8.33333C6.37251 6.66667 8.21032 5 10.049 5C11.8876 5 13.7254 6.66667 13.7254 8.33333C13.7254 10.6305 13.7254 7.79412 13.7254 10C13.7254 11.2196 14.6246 12.709 15.4286 13.797C15.864 14.3862 15.4555 15.2941 14.7228 15.2941C13.71 15.2941 12.4848 15.2941 11.5196 15.2941M8.57839 15.2941C8.57839 16.0294 8.43667 17.5 10.049 17.5C11.6613 17.5 11.5196 16.0294 11.5196 15.2941M8.57839 15.2941C9.72699 15.2941 10.371 15.2941 11.5196 15.2941" stroke="#151515" stroke-width="1.5" stroke-linecap="round" stroke-linejoin="round"/>
<path d="M10.0004 2.41666C10.5065 2.41684 10.9164 2.8275 10.9164 3.33366C10.9162 3.83966 10.5064 4.2495 10.0004 4.24967C9.49421 4.24967 9.08355 3.83977 9.08337 3.33366C9.08337 2.8274 9.49411 2.41666 10.0004 2.41666Z" stroke="#151515" stroke-width="1.5"/>
</svg>
