<svg width="20" height="20" viewBox="0 0 20 20" fill="none" xmlns="http://www.w3.org/2000/svg">
<path d="M15.1419 17.2433C7.995 16.3489 3.02655 11.2827 2.62404 4.55726C2.59738 4.1118 2.94935 3.74167 3.39507 3.71976L7.08673 3.53828C7.44477 3.52068 7.77395 3.73402 7.90411 4.06802L8.59303 5.83584C8.74365 6.22235 8.58705 6.6608 8.22565 6.86444L6.00992 8.11292C5.53265 8.38184 5.44025 9.03022 5.82339 9.42176L10.37 14.068C10.75 14.4564 11.394 14.383 11.677 13.9191L13.0537 11.6621C13.2632 11.3187 13.688 11.1739 14.0636 11.318L15.8289 11.9951C16.1764 12.1284 16.3933 12.476 16.3605 12.8468L16.0363 16.505C15.9959 16.9602 15.5954 17.3001 15.1419 17.2433Z" fill="#151515" stroke="#151515" stroke-width="1.5" stroke-linecap="round" stroke-linejoin="round"/>
<path d="M11.5956 8.12442L15.504 4.21607M15.504 4.21607L15.6926 7.28447M15.504 4.21607L12.4356 4.02751" stroke="#151515" stroke-width="1.5" stroke-linecap="round" stroke-linejoin="round"/>
</svg>
