<svg width="20" height="20" viewBox="0 0 20 20" fill="none" xmlns="http://www.w3.org/2000/svg">
<path d="M4.88495 4.56491C4.88495 3.59841 5.66845 2.81491 6.63495 2.81491H13.271C14.2375 2.81491 15.021 3.59841 15.021 4.56491V7.51929V15.5644C15.021 16.5309 14.2375 17.3144 13.271 17.3144H6.63495C5.66845 17.3144 4.88495 16.5309 4.88495 15.5644V7.51929V4.56491Z" stroke="#151515" stroke-width="1.5"/>
<path d="M6.31671 4.97392C6.31671 4.57227 6.64231 4.24667 7.04396 4.24667H12.862C13.2636 4.24667 13.5892 4.57227 13.5892 4.97392C13.5892 5.37557 13.2636 5.70117 12.862 5.70117H7.04396C6.64231 5.70117 6.31671 5.37557 6.31671 4.97392Z" fill="#151515"/>
<path d="M7.06671 11.0041C7.06671 10.4978 7.47712 10.0874 7.98338 10.0874H11.9225C12.4288 10.0874 12.8392 10.4978 12.8392 11.0041V14.216C12.8392 14.7223 12.4288 15.1327 11.9225 15.1327H7.98338C7.47712 15.1327 7.06671 14.7223 7.06671 14.216V11.0041Z" stroke="#151515" stroke-width="1.5"/>
<path d="M4.86218 7.15567L15.0437 7.15567" stroke="#151515" stroke-width="1.5" stroke-linecap="round"/>
</svg>
