<svg width="20" height="20" viewBox="0 0 20 20" fill="none" xmlns="http://www.w3.org/2000/svg">
<path d="M6.63495 2.81491H13.2707C14.2372 2.81491 15.0207 3.59841 15.0207 4.56491V15.5639C15.0207 16.5304 14.2372 17.3139 13.2707 17.3139H6.63495C5.66845 17.3139 4.88495 16.5304 4.88495 15.5639V4.56491C4.88495 3.59841 5.66845 2.81491 6.63495 2.81491Z" stroke="#151515" stroke-width="1.5"/>
<path d="M6.31671 4.97392C6.31671 4.57227 6.64231 4.24667 7.04396 4.24667H12.862C13.2636 4.24667 13.5892 4.57227 13.5892 4.97392C13.5892 5.37557 13.2636 5.70117 12.862 5.70117H7.04396C6.64231 5.70117 6.31671 5.37557 6.31671 4.97392Z" fill="#151515"/>
<path d="M7.9837 10.0874H11.9222C12.4284 10.0874 12.8392 10.4981 12.8392 11.0044V14.2163C12.839 14.7224 12.4283 15.1323 11.9222 15.1323H7.9837C7.47755 15.1323 7.06688 14.7224 7.06671 14.2163V11.0044C7.06671 10.4981 7.47744 10.0874 7.9837 10.0874Z" stroke="#151515" stroke-width="1.5"/>
<path d="M4.86218 7.15567L15.0437 7.15567" stroke="#151515" stroke-width="1.5" stroke-linecap="round"/>
</svg>
