<svg width="20" height="20" viewBox="0 0 20 20" fill="none" xmlns="http://www.w3.org/2000/svg">
<path d="M6.96593 8.62095H5.27084C4.81061 8.62095 4.43752 8.99369 4.43751 9.45392C4.43748 10.7763 4.43744 13.3865 4.43753 15.15C4.43762 17.1467 7.52559 17.5983 10 17.5983C12.4745 17.5983 15.5625 17.1467 15.5625 15.15C15.5625 13.3865 15.5625 10.7763 15.5625 9.45394C15.5625 8.9937 15.1894 8.62095 14.7292 8.62095H13.0341M6.96593 8.62095C6.96593 8.62095 6.96596 6.58063 6.96593 5.35644C6.9659 3.88723 8.17934 2.5 10 2.5C11.8207 2.5 13.0341 3.88723 13.0341 5.35644C13.0341 6.58063 13.0341 8.62095 13.0341 8.62095M6.96593 8.62095H13.0341" stroke="#151515" stroke-width="1.5" stroke-linecap="round" stroke-linejoin="round"/>
<path fill-rule="evenodd" clip-rule="evenodd" d="M9.20537 13.3216C8.9615 13.1033 8.80803 12.7861 8.80803 12.4331C8.80803 11.7748 9.3417 11.2411 10 11.2411C10.6583 11.2411 11.192 11.7748 11.192 12.4331C11.192 12.7861 11.0385 13.1033 10.7947 13.3216V14.4197C10.7947 14.8586 10.4389 15.2144 10 15.2144C9.56115 15.2144 9.20537 14.8586 9.20537 14.4197V13.3216Z" fill="#151515"/>
</svg>
