<svg width="20" height="20" viewBox="0 0 20 20" fill="none" xmlns="http://www.w3.org/2000/svg">
<path d="M6.96355 8.62577H5.26647C4.80624 8.62577 4.43315 8.99848 4.43314 9.45871C4.43311 10.7819 4.43307 13.3948 4.43316 15.1599C4.43325 17.1582 7.52366 17.6102 10 17.6102C12.4764 17.6102 15.5669 17.1582 15.5669 15.1599C15.5669 13.3948 15.5669 10.782 15.5669 9.45873C15.5669 8.99849 15.1938 8.62577 14.7336 8.62577H13.0365H6.96355ZM6.96355 8.62577C6.96355 8.62577 6.96358 6.58384 6.96355 5.35869C6.96352 3.88832 8.17791 2.5 10 2.5C11.8221 2.5 13.0365 3.88832 13.0365 5.35869" stroke="#151515" stroke-width="1.5" stroke-linecap="round" stroke-linejoin="round"/>
<path fill-rule="evenodd" clip-rule="evenodd" d="M10.7953 13.3301V14.4291C10.7953 14.8683 10.4392 15.2244 9.99998 15.2244C9.56077 15.2244 9.20471 14.8683 9.20471 14.4291V13.3301C8.96065 13.1117 8.80706 12.7942 8.80706 12.4409C8.80706 11.7821 9.34115 11.248 9.99998 11.248C10.6588 11.248 11.1929 11.7821 11.1929 12.4409C11.1929 12.7942 11.0393 13.1117 10.7953 13.3301Z" fill="#151515"/>
</svg>
