<svg width="20" height="20" viewBox="0 0 20 20" fill="none" xmlns="http://www.w3.org/2000/svg">
<path fill-rule="evenodd" clip-rule="evenodd" d="M4.05216 9.29655L4.05218 15.4464C4.05228 17.5815 7.35417 18.0644 10 18.0644C12.6459 18.0644 15.9478 17.5815 15.9479 15.4464L15.9479 9.29656C15.9479 8.83633 15.5748 8.46511 15.1145 8.46511H4.88549C4.42526 8.46511 4.05217 8.83632 4.05216 9.29655ZM10.9346 15.0525V13.8619C11.1954 13.6285 11.3595 13.2894 11.3595 12.9119C11.3595 12.2079 10.7889 11.6373 10.085 11.6373C9.38106 11.6373 8.81042 12.2079 8.81042 12.9119C8.81042 13.2893 8.9745 13.6284 9.23523 13.8618V15.0525C9.23523 15.5127 9.60832 15.8858 10.0686 15.8858H10.1013C10.5615 15.8858 10.9346 15.5127 10.9346 15.0525Z" fill="#151515"/>
<path d="M6.9718 8.70859C6.9718 8.70859 6.97183 6.67239 6.9718 5.45067C6.97177 3.98442 8.18276 2.59999 9.99977 2.59999C11.8168 2.59999 13.0277 3.98442 13.0277 5.45067" stroke="#151515" stroke-width="1.5" stroke-linecap="round" stroke-linejoin="round"/>
</svg>
