<svg width="20" height="20" viewBox="0 0 20 20" fill="none" xmlns="http://www.w3.org/2000/svg">
<path d="M6.96362 8.68335C6.96362 8.68335 6.96365 6.64166 6.96362 5.41664C6.96359 3.94643 8.17785 2.55826 9.99977 2.55826C11.8217 2.55826 13.0359 3.94643 13.0359 5.41664C13.0359 6.64166 13.0359 8.68335 13.0359 8.68335" stroke="#151515" stroke-width="1.5" stroke-linecap="round" stroke-linejoin="round"/>
<path fill-rule="evenodd" clip-rule="evenodd" d="M4.03609 9.27061L4.0361 15.4394C4.03621 17.5802 7.34701 18.0644 10 18.0644C12.653 18.0644 15.9639 17.5802 15.9639 15.4394L15.9639 9.27063C15.9639 8.8104 15.5908 8.43921 15.1306 8.43921H4.86941C4.40919 8.43921 4.03609 8.81039 4.03609 9.27061ZM10.9371 15.0466V13.8506C11.1986 13.6166 11.3631 13.2765 11.3631 12.898C11.3631 12.1922 10.791 11.62 10.0852 11.62C9.37934 11.62 8.80717 12.1922 8.80717 12.898C8.80717 13.2765 8.9717 13.6165 9.23314 13.8505V15.0466C9.23314 15.5068 9.60624 15.8799 10.0665 15.8799H10.1038C10.564 15.8799 10.9371 15.5068 10.9371 15.0466Z" fill="#151515"/>
</svg>
