<svg width="20" height="20" viewBox="0 0 20 20" fill="none" xmlns="http://www.w3.org/2000/svg">
<path d="M16.8525 8.31061C16.8525 9.17214 16.8139 9.83384 16.6289 10.3741C16.4586 10.8715 16.1546 11.2906 15.5332 11.6407C14.8704 12.0141 14.4287 12.1666 13.9707 12.2383C13.4755 12.3159 12.9412 12.3057 12.0234 12.3057C11.3415 12.3059 10.7736 12.6469 10.4844 13.212C10.21 13.7484 10.2341 14.3874 10.4736 14.9571C10.6138 15.2903 10.8715 15.599 11.0869 15.837C11.2916 16.0631 11.5972 16.3697 11.7764 16.5616C11.9654 16.7641 12.0912 16.9193 12.1641 17.0342C12.0413 17.1949 12.0093 17.1888 11.9658 17.2003C11.8878 17.2209 11.7556 17.2392 11.502 17.2481C11.2514 17.2569 10.9337 17.2559 10.4941 17.2559C5.71452 17.2557 2.68557 14.0163 2.68555 10.0001C2.68555 5.96043 5.96037 2.68561 10 2.68561C11.9946 2.68563 13.7162 3.5824 14.9502 4.7735C16.2103 5.98979 16.8525 7.40134 16.8525 8.31061Z" stroke="#151515" stroke-width="1.5"/>
<circle cx="5.73987" cy="8.64804" r="1" fill="#151515"/>
<circle cx="8.65564" cy="5.96457" r="1" fill="#151515"/>
<circle cx="11.9077" cy="5.96457" r="1" fill="#151515"/>
<circle cx="14.2295" cy="8.64804" r="1" fill="#151515"/>
</svg>
