<svg width="20" height="20" viewBox="0 0 20 20" fill="none" xmlns="http://www.w3.org/2000/svg">
<path d="M7.80054 2.76894C7.80054 2.3087 8.17363 1.93561 8.63387 1.93561H11.366C11.8262 1.93561 12.1993 2.3087 12.1993 2.76894V3.30165C12.1993 3.76189 11.8262 4.13499 11.366 4.13499H8.63387C8.17363 4.13499 7.80054 3.76189 7.80054 3.30166V2.76894Z" fill="#151515"/>
<path d="M6.95105 2.68561H13.0487C13.7849 2.68573 14.3815 3.28246 14.3817 4.01862V15.9815C14.3815 16.7176 13.7848 17.3144 13.0487 17.3145H6.95105C6.21497 17.3143 5.61828 16.7176 5.61804 15.9815V4.01862C5.61822 3.28249 6.21493 2.68578 6.95105 2.68561Z" stroke="#151515" stroke-width="1.5"/>
<path d="M7.80066 15.4984H12.1994" stroke="#151515" stroke-width="1.5" stroke-linecap="round"/>
</svg>
