<svg width="20" height="20" viewBox="0 0 20 20" fill="none" xmlns="http://www.w3.org/2000/svg">
<path d="M16.0035 17.2208C8.40741 16.2896 3.12824 10.906 2.72174 3.75934C2.6964 3.3138 3.04822 2.94389 3.49394 2.92198L7.47593 2.72623C7.83396 2.70862 8.16314 2.92196 8.2933 3.25597L9.04894 5.19499C9.19956 5.58151 9.04297 6.01996 8.68156 6.22359L6.24951 7.59396C5.77224 7.86288 5.67984 8.51127 6.06298 8.90281L10.955 13.9021C11.335 14.2905 11.9791 14.2171 12.2621 13.7532L13.7698 11.2814C13.9792 10.938 14.4041 10.7932 14.7797 10.9373L16.7162 11.6801C17.0636 11.8134 17.2806 12.161 17.2478 12.5318L16.8977 16.4814C16.8574 16.9366 16.4572 17.2764 16.0035 17.2208Z" fill="#151515" stroke="#151515" stroke-width="1.5" stroke-linecap="round" stroke-linejoin="round"/>
</svg>
