<svg width="20" height="20" viewBox="0 0 20 20" fill="none" xmlns="http://www.w3.org/2000/svg">
<path d="M7.80054 2.76894C7.80054 2.3087 8.17363 1.93561 8.63387 1.93561H11.366C11.8262 1.93561 12.1993 2.3087 12.1993 2.76894V3.30165C12.1993 3.76189 11.8262 4.13499 11.366 4.13499H8.63387C8.17363 4.13499 7.80054 3.76189 7.80054 3.30166V2.76894Z" fill="#151515"/>
<path d="M5.61804 4.01894C5.61804 3.28256 6.215 2.68561 6.95137 2.68561H13.0485C13.7849 2.68561 14.3818 3.28256 14.3818 4.01894V15.9811C14.3818 16.7174 13.7849 17.3144 13.0485 17.3144H6.95138C6.215 17.3144 5.61804 16.7174 5.61804 15.9811V4.01894Z" stroke="#151515" stroke-width="1.5"/>
<path d="M7.80066 15.4984H12.1994" stroke="#151515" stroke-width="1.5" stroke-linecap="round"/>
</svg>
