<svg width="20" height="20" viewBox="0 0 20 20" fill="none" xmlns="http://www.w3.org/2000/svg">
<path d="M10.1516 12.9234C10.8995 12.9994 11.4827 13.6311 11.4827 14.399C11.4825 15.2179 10.8191 15.8813 10.0002 15.8814C9.23233 15.8814 8.60061 15.2983 8.52466 14.5504L8.51685 14.399L8.52466 14.2467C8.60081 13.499 9.23248 12.9156 10.0002 12.9156L10.1516 12.9234Z" fill="#151515" stroke="#151515" stroke-width="1.5"/>
<path d="M6.95117 2.68561H13.0488C13.785 2.68573 14.3817 3.28246 14.3818 4.01862V15.9815C14.3816 16.7176 13.785 17.3144 13.0488 17.3145H6.95117C6.21509 17.3143 5.6184 16.7176 5.61816 15.9815V4.01862C5.61834 3.28249 6.21505 2.68578 6.95117 2.68561Z" stroke="#151515" stroke-width="1.5"/>
</svg>
