<svg width="20" height="20" viewBox="0 0 20 20" fill="none" xmlns="http://www.w3.org/2000/svg">
<path d="M16.4706 10.0424C16.466 10.0507 16.4581 10.0609 16.4394 10.0717L6.32513 15.9115C6.30653 15.9223 6.29363 15.9243 6.28412 15.9242C6.2723 15.924 6.25711 15.9201 6.24213 15.9115C6.22708 15.9028 6.21601 15.8914 6.2099 15.8813C6.20505 15.8731 6.20013 15.8608 6.20013 15.8393L6.20013 4.16055C6.20013 4.13896 6.20503 4.12676 6.2099 4.11856C6.21601 4.10839 6.22708 4.09697 6.24213 4.08829C6.2571 4.07969 6.27232 4.0758 6.28412 4.07559C6.29362 4.07549 6.30656 4.07759 6.32513 4.08829L16.4394 9.92813C16.458 9.93893 16.466 9.94912 16.4706 9.95743C16.4764 9.9678 16.4814 9.98303 16.4814 10.0004C16.4813 10.0176 16.4763 10.0321 16.4706 10.0424Z" stroke="black" stroke-width="1.5"/>
</svg>
