<svg width="20" height="20" viewBox="0 0 20 20" fill="none" xmlns="http://www.w3.org/2000/svg">
<path d="M16.4394 9.92781C16.4583 9.93874 16.4663 9.94924 16.4709 9.95761C16.4767 9.96798 16.4811 9.9826 16.4811 9.99998C16.4811 10.0173 16.4767 10.032 16.4709 10.0423C16.4663 10.0507 16.4583 10.0612 16.4394 10.0721L6.32522 15.9116C6.30629 15.9225 6.29322 15.9241 6.28366 15.924C6.2718 15.9238 6.25694 15.9202 6.24189 15.9116C6.22685 15.9029 6.21638 15.8918 6.21027 15.8816C6.20534 15.8734 6.20022 15.8613 6.20022 15.8394L6.20022 4.16056C6.20022 4.13869 6.20534 4.12656 6.21027 4.11836C6.21638 4.10819 6.22685 4.09707 6.24189 4.08839C6.25694 4.0797 6.2718 4.0762 6.28366 4.07599C6.29322 4.07582 6.30628 4.07745 6.32522 4.08839L16.4394 9.92781L16.8144 9.27829L16.4394 9.92781Z" stroke="black" stroke-width="1.5"/>
</svg>
