<svg width="20" height="20" viewBox="0 0 20 20" fill="none" xmlns="http://www.w3.org/2000/svg">
<path fill-rule="evenodd" clip-rule="evenodd" d="M16.0265 10.7139C16.0265 14.0423 13.3284 16.7404 10 16.7404C6.67173 16.7404 3.97359 14.0423 3.97359 10.7139C3.97359 8.39939 5.27839 6.3896 7.19255 5.38001C7.42063 5.25971 7.57456 5.02902 7.57456 4.77116C7.57456 4.32233 7.12997 4.01028 6.72918 4.21231C4.35326 5.40994 2.72359 7.87162 2.72359 10.7139C2.72359 14.7326 5.98137 17.9904 10 17.9904C14.0187 17.9904 17.2765 14.7326 17.2765 10.7139C17.2765 7.87162 15.6468 5.40995 13.2709 4.21231C12.8701 4.01028 12.4255 4.32233 12.4255 4.77117C12.4255 5.02902 12.5795 5.25971 12.8075 5.38001C14.7217 6.3896 16.0265 8.39939 16.0265 10.7139Z" fill="#151515"/>
<path d="M9.95239 2.62897V10.7615" stroke="#151515" stroke-width="1.5" stroke-linecap="round"/>
</svg>
