<svg width="20" height="20" viewBox="0 0 20 20" fill="none" xmlns="http://www.w3.org/2000/svg">
<path d="M4.49976 3.12479V16.8752" stroke="#151515" stroke-width="1.5" stroke-linecap="round"/>
<path d="M10 3.12479V16.8752" stroke="#151515" stroke-width="1.5" stroke-linecap="round"/>
<path d="M15.5001 3.12479V16.8752" stroke="#151515" stroke-width="1.5" stroke-linecap="round"/>
<path d="M6.79159 13.2084C6.79159 14.4741 5.76555 15.5001 4.49986 15.5001C3.23417 15.5001 2.20813 14.4741 2.20813 13.2084C2.20813 11.9427 3.23417 10.9167 4.49986 10.9167C5.76555 10.9167 6.79159 11.9427 6.79159 13.2084Z" fill="#151515"/>
<path d="M12.2913 6.79155C12.2913 8.05723 11.2653 9.08328 9.99961 9.08328C8.73393 9.08328 7.70789 8.05723 7.70789 6.79155C7.70789 5.52586 8.73393 4.49982 9.99961 4.49982C11.2653 4.49982 12.2913 5.52586 12.2913 6.79155Z" fill="#151515"/>
<path d="M17.7918 13.2084C17.7918 14.4741 16.7658 15.5001 15.5001 15.5001C14.2344 15.5001 13.2084 14.4741 13.2084 13.2084C13.2084 11.9427 14.2344 10.9167 15.5001 10.9167C16.7658 10.9167 17.7918 11.9427 17.7918 13.2084Z" fill="#151515"/>
</svg>
