<svg width="20" height="20" viewBox="0 0 20 20" fill="none" xmlns="http://www.w3.org/2000/svg">
<path d="M9.85187 6.76926H4.40145C3.94121 6.76926 3.56812 7.14236 3.56812 7.60259V12.0863M9.85187 6.76926H15.3023C15.7625 6.76926 16.1356 7.14236 16.1356 7.60259V12.0863M9.85187 6.76926V17.4033M9.85187 17.4033H4.40145C3.94121 17.4033 3.56812 17.0302 3.56812 16.57V12.0863M9.85187 17.4033H15.3023C15.7625 17.4033 16.1356 17.0302 16.1356 16.57V12.0863M3.56812 12.0863H16.1356" stroke="#151515" stroke-width="1.5" stroke-linecap="round" stroke-linejoin="round"/>
<path d="M8.64307 3.65234C9.43004 3.65234 10.0687 4.29021 10.0688 5.07714C10.0688 5.86423 9.43015 6.50292 8.64307 6.50292C7.85614 6.50274 7.21826 5.86411 7.21826 5.07714C7.21845 4.29032 7.85625 3.65252 8.64307 3.65234Z" stroke="#151515" stroke-width="1.5"/>
<circle cx="11.7854" cy="4.35243" r="1.66683" stroke="#151515" stroke-width="1.5"/>
</svg>
