<svg width="20" height="20" viewBox="0 0 20 20" fill="none" xmlns="http://www.w3.org/2000/svg">
<path d="M9.85187 6.76926H4.40145C3.94121 6.76926 3.56812 7.14236 3.56812 7.60259V12.0863M9.85187 6.76926H15.3023C15.7625 6.76926 16.1356 7.14236 16.1356 7.60259V12.0863M9.85187 6.76926V17.4033M9.85187 17.4033H4.40145C3.94121 17.4033 3.56812 17.0302 3.56812 16.57V12.0863M9.85187 17.4033H15.3023C15.7625 17.4033 16.1356 17.0302 16.1356 16.57V12.0863M3.56812 12.0863H16.1356" stroke="#151515" stroke-width="1.5" stroke-linecap="round" stroke-linejoin="round"/>
<path d="M10.0686 5.07748C10.0686 5.86457 9.43049 6.50263 8.64341 6.50263C7.85632 6.50263 7.21826 5.86457 7.21826 5.07748C7.21826 4.2904 7.85632 3.65234 8.64341 3.65234C9.43049 3.65234 10.0686 4.2904 10.0686 5.07748Z" stroke="#151515" stroke-width="1.5"/>
<circle cx="11.7854" cy="4.35243" r="1.66683" stroke="#151515" stroke-width="1.5"/>
</svg>
