<svg width="20" height="20" viewBox="0 0 20 20" fill="none" xmlns="http://www.w3.org/2000/svg">
<path d="M6.33142 16.3225V13.9311C6.33142 13.2407 6.89106 12.6811 7.58142 12.6811H12.9076C13.598 12.6811 14.1576 13.2407 14.1576 13.9311V16.3225C14.1576 17.0128 13.598 17.5725 12.9076 17.5725H7.58142C6.89106 17.5725 6.33142 17.0128 6.33142 16.3225Z" stroke="#151515" stroke-width="1.5" stroke-linecap="round"/>
<path fill-rule="evenodd" clip-rule="evenodd" d="M6.33148 15.9963H4.40206C3.36652 15.9963 2.52706 15.1569 2.52706 14.1213V8.79515C2.52706 7.75961 3.36653 6.92015 4.40206 6.92015H15.5979C16.6334 6.92015 17.4729 7.75961 17.4729 8.79515V14.1213C17.4729 15.1569 16.6334 15.9963 15.5979 15.9963H14.1577V14.7463H15.5979C15.9431 14.7463 16.2229 14.4665 16.2229 14.1213V8.79515C16.2229 8.44997 15.9431 8.17015 15.5979 8.17015H4.40206C4.05688 8.17015 3.77706 8.44997 3.77706 8.79515V14.1213C3.77706 14.4665 4.05688 14.7463 4.40206 14.7463H6.33148V15.9963ZM8.17929 4.30252C8.17929 3.95735 8.45911 3.67753 8.80429 3.67753H11.6848C12.03 3.67753 12.3098 3.95735 12.3098 4.30252V5.00907C12.3098 5.35425 12.5896 5.63407 12.9348 5.63407C13.28 5.63407 13.5598 5.35425 13.5598 5.00907V4.30252C13.5598 3.26699 12.7203 2.42753 11.6848 2.42753H8.80429C7.76876 2.42753 6.92929 3.26699 6.92929 4.30252V5.00907C6.92929 5.35425 7.20912 5.63407 7.55429 5.63407C7.89947 5.63407 8.17929 5.35425 8.17929 5.00907V4.30252Z" fill="#151515"/>
</svg>
