<svg width="20" height="20" viewBox="0 0 20 20" fill="none" xmlns="http://www.w3.org/2000/svg">
<g clip-path="url(#clip0_1526_181)">
<path d="M9.24996 7.42928C9.24996 8.62589 8.27991 9.59594 7.08329 9.59594C5.88668 9.59594 4.91663 8.62589 4.91663 7.42928C4.91663 6.23266 5.88668 5.26261 7.08329 5.26261C8.27991 5.26261 9.24996 6.23266 9.24996 7.42928Z" stroke="#151515" stroke-width="1.5"/>
<path d="M16.1252 4.85224C16.1252 6.04886 15.1552 7.01891 13.9585 7.01891C12.7619 7.01891 11.7919 6.04886 11.7919 4.85224C11.7919 3.65563 12.7619 2.68558 13.9585 2.68558C15.1552 2.68558 16.1252 3.65563 16.1252 4.85224Z" stroke="#151515" stroke-width="1.5"/>
<path d="M12.9001 16.8171C12.0668 17.6504 2.30669 17.5349 1.72463 16.9335C1.14257 16.332 4.50862 12.5 7.50016 12.5C10.4917 12.5 13.3801 16.3371 12.9001 16.8171Z" stroke="#151515" stroke-width="1.5" stroke-linecap="round" stroke-linejoin="round"/>
<path fill-rule="evenodd" clip-rule="evenodd" d="M12.6802 13.7597C13.0907 14.2059 13.4508 14.6607 13.7504 15.072C13.8125 15.0749 13.8785 15.0778 13.948 15.0807C14.4253 15.1007 15.0701 15.1216 15.7362 15.125C16.3992 15.1284 17.0974 15.1144 17.6766 15.0623C17.965 15.0363 18.2402 14.9995 18.4738 14.9457C18.6757 14.8992 18.9611 14.8167 19.167 14.6321C19.4462 14.382 19.519 14.0441 19.5072 13.7632C19.4958 13.4897 19.4058 13.2146 19.2886 12.9642C19.0519 12.4584 18.6339 11.9061 18.1141 11.3998C17.0834 10.3959 15.4975 9.42716 13.7779 9.42716C12.8315 9.42716 12.0673 9.53431 11.3769 9.83535C10.6845 10.1372 10.1221 10.6097 9.53964 11.2439L9.32878 11.4736C9.7564 11.5936 10.1642 11.7746 10.5484 11.9948C11.031 11.483 11.4337 11.1742 11.8764 10.9812C12.3477 10.7757 12.9202 10.6772 13.7779 10.6772C15.0499 10.6772 16.3397 11.4165 17.2419 12.2953C17.6886 12.7304 18.0015 13.163 18.1565 13.4942C18.1998 13.5867 18.2257 13.6605 18.2406 13.716C18.2263 13.7198 18.2105 13.7236 18.1931 13.7276C18.0382 13.7633 17.8261 13.7938 17.5645 13.8173C17.0437 13.8642 16.3914 13.8783 15.7425 13.875C15.0968 13.8718 14.4684 13.8514 14.0004 13.8318C13.7667 13.822 13.5738 13.8124 13.4395 13.8053C13.3724 13.8017 13.32 13.7988 13.2845 13.7967L13.2444 13.7944L13.2344 13.7938L13.232 13.7936L13.2315 13.7936L13.2314 13.7936L13.2314 13.7936L12.6802 13.7597Z" fill="#151515"/>
</g>
<defs>
<clipPath id="clip0_1526_181">
<rect width="20" height="20" fill="white" transform="matrix(1 0 0 -1 0 20)"/>
</clipPath>
</defs>
</svg>
