<svg width="20" height="20" viewBox="0 0 20 20" fill="none" xmlns="http://www.w3.org/2000/svg">
<path d="M10.8334 11.25C10.8334 11.0199 11.0199 10.8333 11.25 10.8333H12.9167C13.1468 10.8333 13.3334 11.0199 13.3334 11.25V12.9167C13.3334 13.1468 13.1468 13.3333 12.9167 13.3333H11.25C11.0199 13.3333 10.8334 13.1468 10.8334 12.9167V11.25Z" fill="#151515"/>
<path d="M13.3334 13.75C13.3334 13.5199 13.5199 13.3333 13.75 13.3333H15.4167C15.6468 13.3333 15.8334 13.5199 15.8334 13.75V15.4167C15.8334 15.6468 15.6468 15.8333 15.4167 15.8333H13.75C13.5199 15.8333 13.3334 15.6468 13.3334 15.4167V13.75Z" fill="#151515"/>
<path d="M15.8334 11.25C15.8334 11.0199 16.0199 10.8333 16.25 10.8333H17.9167C18.1468 10.8333 18.3334 11.0199 18.3334 11.25V12.9167C18.3334 13.1468 18.1468 13.3333 17.9167 13.3333H16.25C16.0199 13.3333 15.8334 13.1468 15.8334 12.9167V11.25Z" fill="#151515"/>
<path d="M15.8334 16.25C15.8334 16.0199 16.0199 15.8333 16.25 15.8333H17.9167C18.1468 15.8333 18.3334 16.0199 18.3334 16.25V17.9167C18.3334 18.1468 18.1468 18.3333 17.9167 18.3333H16.25C16.0199 18.3333 15.8334 18.1468 15.8334 17.9167V16.25Z" fill="#151515"/>
<path d="M10.8334 16.25C10.8334 16.0199 11.0199 15.8333 11.25 15.8333H12.9167C13.1468 15.8333 13.3334 16.0199 13.3334 16.25V17.9167C13.3334 18.1468 13.1468 18.3333 12.9167 18.3333H11.25C11.0199 18.3333 10.8334 18.1468 10.8334 17.9167V16.25Z" fill="#151515"/>
<path d="M3.8092 2.41666H7.02405C7.79308 2.41682 8.41648 3.04021 8.41663 3.80924V7.02409C8.41647 7.79312 7.79308 8.41651 7.02405 8.41666H3.8092C3.04017 8.41651 2.41678 7.79312 2.41663 7.02409V3.80924C2.41678 3.04021 3.04017 2.41681 3.8092 2.41666Z" stroke="black" stroke-width="1.5" stroke-linejoin="round"/>
<path d="M3.8092 11.5833H7.02405C7.79308 11.5835 8.41648 12.2069 8.41663 12.9759V16.1908C8.41647 16.9598 7.79308 17.5832 7.02405 17.5833H3.8092C3.04017 17.5832 2.41678 16.9598 2.41663 16.1908V12.9759C2.41678 12.2069 3.04017 11.5835 3.8092 11.5833Z" stroke="black" stroke-width="1.5" stroke-linejoin="round"/>
<path d="M12.976 2.41666H16.1908C16.9598 2.41682 17.5832 3.04021 17.5834 3.80924V7.02409C17.5832 7.79312 16.9598 8.41651 16.1908 8.41666H12.976C12.2069 8.41651 11.5835 7.79312 11.5834 7.02409V3.80924C11.5835 3.04021 12.2069 2.41681 12.976 2.41666Z" stroke="black" stroke-width="1.5" stroke-linejoin="round"/>
</svg>
