<svg width="20" height="20" viewBox="0 0 20 20" fill="none" xmlns="http://www.w3.org/2000/svg">
<path d="M10.8334 11.25C10.8334 11.0199 11.0199 10.8333 11.25 10.8333H12.9167C13.1468 10.8333 13.3334 11.0199 13.3334 11.25V12.9167C13.3334 13.1468 13.1468 13.3333 12.9167 13.3333H11.25C11.0199 13.3333 10.8334 13.1468 10.8334 12.9167V11.25Z" fill="#151515"/>
<path d="M13.3334 13.75C13.3334 13.5199 13.5199 13.3333 13.75 13.3333H15.4167C15.6468 13.3333 15.8334 13.5199 15.8334 13.75V15.4167C15.8334 15.6468 15.6468 15.8333 15.4167 15.8333H13.75C13.5199 15.8333 13.3334 15.6468 13.3334 15.4167V13.75Z" fill="#151515"/>
<path d="M15.8334 11.25C15.8334 11.0199 16.0199 10.8333 16.25 10.8333H17.9167C18.1468 10.8333 18.3334 11.0199 18.3334 11.25V12.9167C18.3334 13.1468 18.1468 13.3333 17.9167 13.3333H16.25C16.0199 13.3333 15.8334 13.1468 15.8334 12.9167V11.25Z" fill="#151515"/>
<path d="M15.8334 16.25C15.8334 16.0199 16.0199 15.8333 16.25 15.8333H17.9167C18.1468 15.8333 18.3334 16.0199 18.3334 16.25V17.9167C18.3334 18.1468 18.1468 18.3333 17.9167 18.3333H16.25C16.0199 18.3333 15.8334 18.1468 15.8334 17.9167V16.25Z" fill="#151515"/>
<path d="M10.8334 16.25C10.8334 16.0199 11.0199 15.8333 11.25 15.8333H12.9167C13.1468 15.8333 13.3334 16.0199 13.3334 16.25V17.9167C13.3334 18.1468 13.1468 18.3333 12.9167 18.3333H11.25C11.0199 18.3333 10.8334 18.1468 10.8334 17.9167V16.25Z" fill="#151515"/>
<path d="M2.41663 3.80952C2.41663 3.04027 3.04023 2.41666 3.80948 2.41666H7.02377C7.79302 2.41666 8.41662 3.04027 8.41662 3.80952V7.02381C8.41662 7.79306 7.79302 8.41666 7.02377 8.41666H3.80948C3.04023 8.41666 2.41663 7.79306 2.41663 7.02381V3.80952Z" stroke="black" stroke-width="1.5" stroke-linejoin="round"/>
<path d="M2.41663 12.9762C2.41663 12.2069 3.04023 11.5833 3.80948 11.5833H7.02377C7.79302 11.5833 8.41662 12.2069 8.41662 12.9762V16.1905C8.41662 16.9597 7.79302 17.5833 7.02377 17.5833H3.80948C3.04023 17.5833 2.41663 16.9597 2.41663 16.1905V12.9762Z" stroke="black" stroke-width="1.5" stroke-linejoin="round"/>
<path d="M11.5834 3.80952C11.5834 3.04027 12.207 2.41666 12.9762 2.41666H16.1905C16.9598 2.41666 17.5834 3.04027 17.5834 3.80952V7.02381C17.5834 7.79306 16.9598 8.41666 16.1905 8.41666H12.9762C12.207 8.41666 11.5834 7.79306 11.5834 7.02381V3.80952Z" stroke="black" stroke-width="1.5" stroke-linejoin="round"/>
</svg>
