<svg width="20" height="20" viewBox="0 0 20 20" fill="none" xmlns="http://www.w3.org/2000/svg">
<path d="M14.167 2.41667H16.667C17.1731 2.41685 17.583 2.82751 17.583 3.33366V5.83366C17.5828 6.33966 17.173 6.7495 16.667 6.74968H14.167C13.6608 6.74968 13.2502 6.33977 13.25 5.83366V3.33366C13.25 2.8274 13.6607 2.41667 14.167 2.41667Z" stroke="black" stroke-width="1.5" stroke-linejoin="round"/>
<path d="M3.33368 2.41667H5.83368C6.33979 2.41685 6.74969 2.82751 6.74969 3.33366V5.83366C6.74952 6.33966 6.33968 6.7495 5.83368 6.74968H3.33368C2.82753 6.74968 2.41686 6.33977 2.41669 5.83366V3.33366C2.41669 2.8274 2.82742 2.41667 3.33368 2.41667Z" stroke="black" stroke-width="1.5" stroke-linejoin="round"/>
<path d="M3.33368 13.25H5.83368C6.33979 13.2502 6.74969 13.6608 6.74969 14.167V16.667C6.74952 17.173 6.33968 17.5828 5.83368 17.583H3.33368C2.82753 17.583 2.41686 17.1731 2.41669 16.667V14.167C2.41669 13.6607 2.82742 13.25 3.33368 13.25Z" stroke="black" stroke-width="1.5" stroke-linejoin="round"/>
<path d="M5 8.75001C5 8.51989 5.18655 8.33334 5.41667 8.33334H6.25C6.48012 8.33334 6.66667 8.51989 6.66667 8.75001V9.58334C6.66667 9.81346 6.48012 10 6.25 10H5.41667C5.18655 10 5 9.81346 5 9.58334V8.75001Z" fill="#151515"/>
<path d="M10.4166 1.66667H11.25C11.4801 1.66667 11.6666 1.85322 11.6666 2.08334V4.58334C11.6666 4.81346 11.4801 5 11.25 5H10.4166C10.1865 5 9.99998 5.18655 9.99998 5.41667V6.25C9.99998 6.48012 9.81343 6.66667 9.58331 6.66667H8.74998C8.51986 6.66667 8.33331 6.48012 8.33331 6.25V3.75C8.33331 3.51989 8.51986 3.33334 8.74998 3.33334H9.58331C9.81343 3.33334 9.99998 3.14679 9.99998 2.91667V2.08334C9.99998 1.85322 10.1865 1.66667 10.4166 1.66667Z" fill="#151515"/>
<path d="M6.66669 10.4167C6.66669 10.1865 6.85323 10 7.08335 10H9.58335C9.81347 10 10 10.1865 10 10.4167V11.25C10 11.4801 9.81347 11.6667 9.58335 11.6667H7.08335C6.85324 11.6667 6.66669 11.4801 6.66669 11.25V10.4167Z" fill="#151515"/>
<path d="M15 8.75001C15 8.51989 15.1865 8.33334 15.4167 8.33334H17.9167C18.1468 8.33334 18.3333 8.51989 18.3333 8.75001V9.58334C18.3333 9.81346 18.1468 10 17.9167 10H15.4167C15.1865 10 15 9.81346 15 9.58334V8.75001Z" fill="#151515"/>
<path d="M10 15.4167C10 15.1865 10.1865 15 10.4167 15H12.9167C13.1468 15 13.3333 15.1865 13.3333 15.4167V16.25C13.3333 16.4801 13.1468 16.6667 12.9167 16.6667H10.4167C10.1865 16.6667 10 16.4801 10 16.25V15.4167Z" fill="#151515"/>
<path d="M8.33331 13.75C8.33331 13.5199 8.51986 13.3333 8.74998 13.3333H9.58331C9.81343 13.3333 9.99998 13.5199 9.99998 13.75V14.5833C9.99998 14.8135 9.81343 15 9.58331 15H8.74998C8.51986 15 8.33331 14.8135 8.33331 14.5833V13.75Z" fill="#151515"/>
<path d="M10 9.58334V8.75001C10 8.51989 10.1865 8.33334 10.4167 8.33334H12.9167C13.1468 8.33334 13.3333 8.51989 13.3333 8.75001V11.6667H14.5833C14.8134 11.6667 15 11.8532 15 12.0833V12.9167C15 13.1468 14.8135 13.3333 14.5833 13.3333H13.3333H12.0833C11.8532 13.3333 11.6667 13.1468 11.6667 12.9167V10.4167C11.6667 10.1866 11.4801 10 11.25 10H10.4167C10.1865 10 10 9.81346 10 9.58334Z" fill="#151515"/>
<path d="M13.75 16.6667L14.5833 16.6667C14.8134 16.6667 15 16.4801 15 16.25L15 15.4167C15 15.1866 15.1865 15 15.4166 15L16.25 15C16.4801 15 16.6666 14.8135 16.6666 14.5833L16.6666 12.0833C16.6666 11.8532 16.8532 11.6667 17.0833 11.6667L17.9166 11.6667C18.1468 11.6667 18.3333 11.8532 18.3333 12.0833L18.3333 13.3333L18.3333 15L18.3333 16.25C18.3333 16.4801 18.1468 16.6667 17.9166 16.6667L17.0833 16.6667C16.8532 16.6667 16.6666 16.8532 16.6666 17.0833L16.6666 17.9167C16.6666 18.1468 16.4801 18.3333 16.25 18.3333L13.75 18.3333C13.5199 18.3333 13.3333 18.1468 13.3333 17.9167L13.3333 17.0833C13.3333 16.8532 13.5199 16.6667 13.75 16.6667Z" fill="#151515"/>
<path d="M1.66669 11.25V8.75001C1.66669 8.51989 1.85324 8.33334 2.08335 8.33334H2.91669C3.14681 8.33334 3.33335 8.51989 3.33335 8.75001V9.58334C3.33335 9.81346 3.5199 10 3.75002 10H4.58335C4.81347 10 5.00002 10.1866 5.00002 10.4167V11.25C5.00002 11.4801 4.81347 11.6667 4.58335 11.6667H2.08335C1.85323 11.6667 1.66669 11.4801 1.66669 11.25Z" fill="#151515"/>
<path d="M11.25 18.3333H8.74998C8.51986 18.3333 8.33331 18.1468 8.33331 17.9167V17.0833C8.33331 16.8532 8.51986 16.6667 8.74998 16.6667H9.58331C9.81343 16.6667 9.99998 16.4801 9.99998 16.25V15.4167C9.99998 15.1865 10.1865 15 10.4166 15H12.9166C13.1468 15 13.3333 15.1865 13.3333 15.4167V16.25C13.3333 16.4801 13.1468 16.6667 12.9166 16.6667H12.0833C11.8532 16.6667 11.6666 16.8532 11.6666 17.0833V17.9167C11.6666 18.1468 11.4801 18.3333 11.25 18.3333Z" fill="#151515"/>
</svg>
