<svg width="20" height="20" viewBox="0 0 20 20" fill="none" xmlns="http://www.w3.org/2000/svg">
<path d="M10 2.54169C11.8146 2.54169 13.4095 3.80393 14.0059 5.64618L14.1904 6.21649L14.7871 6.16278C14.8572 6.15646 14.9282 6.15302 15 6.15302C16.3713 6.15302 17.583 7.37654 17.583 9.01434C17.5828 10.6519 16.3712 11.8747 15 11.8747H5.83301C4.46192 11.8745 3.25022 10.6518 3.25 9.01434C3.25 7.55388 4.22297 6.41082 5.4043 6.19208L5.84766 6.11005L5.9834 5.68036C6.57084 3.81979 8.17427 2.54169 10 2.54169Z" stroke="#151515" stroke-width="1.5"/>
<path d="M5.82764 14.5474L6.57543 17.3382" stroke="#151515" stroke-width="1.5" stroke-linecap="round"/>
<path d="M9.89392 14.5474L10.6417 17.3382" stroke="#151515" stroke-width="1.5" stroke-linecap="round"/>
<path d="M13.9602 14.5474L14.708 17.3382" stroke="#151515" stroke-width="1.5" stroke-linecap="round"/>
</svg>
