<svg width="20" height="20" viewBox="0 0 20 20" fill="none" xmlns="http://www.w3.org/2000/svg">
<path d="M14.006 5.64636L14.1905 6.21619L14.787 6.16236C14.8571 6.15604 14.9281 6.1528 15 6.1528C16.3713 6.1528 17.5833 7.37611 17.5833 9.01391C17.5833 10.6517 16.3713 11.875 15 11.875H5.83333C4.46199 11.875 3.25 10.6517 3.25 9.01391C3.25 7.55339 4.22303 6.41069 5.40441 6.19201L5.84745 6.11L5.9831 5.68034C6.57052 3.81973 8.17425 2.54169 10 2.54169C11.8146 2.54169 13.4097 3.804 14.006 5.64636Z" stroke="#151515" stroke-width="1.5"/>
<path d="M5.82764 14.5474L6.57543 17.3382" stroke="#151515" stroke-width="1.5" stroke-linecap="round"/>
<path d="M9.89392 14.5474L10.6417 17.3382" stroke="#151515" stroke-width="1.5" stroke-linecap="round"/>
<path d="M13.9602 14.5474L14.708 17.3382" stroke="#151515" stroke-width="1.5" stroke-linecap="round"/>
</svg>
