<svg width="20" height="20" viewBox="0 0 20 20" fill="none" xmlns="http://www.w3.org/2000/svg">
<path d="M7.23186 7.74451L9.02953 4.81497C9.45478 4.12197 10.4746 4.1616 10.8448 4.88552L12.3068 7.74451M12.3068 7.74451L10.4614 7.2934M12.3068 7.74451L13.2295 5.94009M14.6136 10.4511C14.6136 10.4511 15.4879 11.8457 16.4321 13.3917C16.8536 14.0818 16.3553 14.9622 15.5466 14.9622C13.7497 14.9622 11.8454 14.9622 11.8454 14.9622M11.8454 14.9622L13.2295 13.1578M11.8454 14.9622L13.2295 16.7666M8.15457 14.9622H4.47964C3.66532 14.9622 3.1659 14.0698 3.5918 13.3757L5.38643 10.4511M5.38643 10.4511L5.84779 12.7067M5.38643 10.4511L3.07964 10.9022" stroke="#151515" stroke-width="1.5" stroke-linecap="round" stroke-linejoin="round"/>
</svg>
