<svg width="20" height="20" viewBox="0 0 20 20" fill="none" xmlns="http://www.w3.org/2000/svg">
<path d="M13.5603 2.609L14.5386 5.12786C14.7053 5.55687 14.4926 6.03974 14.0636 6.20638L11.5447 7.18476" stroke="#151515" stroke-width="1.5" stroke-linecap="round"/>
<path d="M6.01234 17.3597L5.44432 14.7179C5.34757 14.268 5.6339 13.8248 6.08386 13.728L8.72568 13.16" stroke="#151515" stroke-width="1.5" stroke-linecap="round"/>
<path fill-rule="evenodd" clip-rule="evenodd" d="M14.583 6.31617C14.9425 6.13888 15.0528 5.67649 14.7761 5.38642C14.0576 4.63307 13.1516 4.0374 12.0975 3.6796C8.61093 2.49617 4.82518 4.36319 3.64175 7.84971C3.28395 8.90382 3.20499 9.98528 3.36532 11.0139C3.42705 11.41 3.86103 11.6039 4.22052 11.4266C4.48638 11.2955 4.62312 10.9992 4.58389 10.7054C4.47702 9.90487 4.54824 9.06808 4.82542 8.25149C5.78696 5.41869 8.86288 3.90173 11.6957 4.86327C12.5123 5.14045 13.2195 5.59332 13.7896 6.16542C13.9988 6.3754 14.3171 6.44728 14.583 6.31617ZM5.32627 13.6688C5.59213 13.5377 5.91047 13.6096 6.1197 13.8196C6.68976 14.3917 7.39703 14.8446 8.21363 15.1218C11.0464 16.0833 14.1224 14.5663 15.0839 11.7335C15.3611 10.9169 15.4323 10.0801 15.3254 9.27958C15.2862 8.98575 15.4229 8.68943 15.6888 8.55832C16.0483 8.38103 16.4822 8.57501 16.544 8.97106C16.7043 9.9997 16.6254 11.0812 16.2676 12.1353C15.0841 15.6218 11.2984 17.4889 7.81186 16.3054C6.75773 15.9476 5.85164 15.3519 5.13315 14.5986C4.85651 14.3085 4.96678 13.8461 5.32627 13.6688Z" fill="#151515"/>
</svg>
