<svg width="20" height="20" viewBox="0 0 20 20" fill="none" xmlns="http://www.w3.org/2000/svg">
<path d="M13.9424 2.6328L14.5104 5.27463C14.6071 5.72458 14.3208 6.16777 13.8709 6.26452L11.229 6.83254" stroke="#151515" stroke-width="1.5" stroke-linecap="round"/>
<path fill-rule="evenodd" clip-rule="evenodd" d="M5.10755 8.33934C6.02471 5.63728 8.95867 4.19034 11.6607 5.1075C12.0796 5.24969 12.4684 5.44037 12.8228 5.67113C13.0836 5.84089 13.415 5.88006 13.6922 5.73873C14.173 5.49355 14.2692 4.84866 13.8271 4.53909C13.3211 4.18489 12.7571 3.8956 12.1429 3.6871C8.65633 2.50366 4.87058 4.37068 3.68714 7.85721C2.50371 11.3437 4.37073 15.1295 7.85725 16.3129C11.3438 17.4964 15.1295 15.6293 16.313 12.1428C16.5518 11.4391 16.6664 10.7232 16.6685 10.019C16.6701 9.48423 16.096 9.19011 15.6196 9.433C15.3391 9.57601 15.1762 9.87251 15.1647 10.1871C15.1467 10.677 15.0582 11.1726 14.8926 11.6607C13.9754 14.3627 11.0414 15.8097 8.33938 14.8925C5.63733 13.9754 4.19039 11.0414 5.10755 8.33934Z" fill="#151515"/>
</svg>
