<svg width="20" height="20" viewBox="0 0 20 20" fill="none" xmlns="http://www.w3.org/2000/svg">
<path fill-rule="evenodd" clip-rule="evenodd" d="M16.6145 13.5068L11.3169 10.4482L16.6145 7.38961L16.6145 13.5068ZM10.3249 9.57758L10.3249 6.66793C10.3249 6.02643 9.63044 5.62549 9.07488 5.94624L2.52726 9.72651C1.97171 10.0473 1.97171 10.8491 2.52726 11.1699L9.07488 14.9502C9.63043 15.2709 10.3249 14.87 10.3249 14.2285L10.3249 11.3188L16.6145 14.9501C17.1701 15.2709 17.8645 14.87 17.8645 14.2285L17.8645 6.66792C17.8645 6.02642 17.1701 5.62548 16.6146 5.94623L10.3249 9.57758ZM9.07488 13.5068L3.77726 10.4482L9.07488 7.38962L9.07488 13.5068Z" fill="#151515"/>
</svg>
