<svg width="20" height="20" viewBox="0 0 20 20" fill="none" xmlns="http://www.w3.org/2000/svg">
<mask id="path-1-inside-1_1526_1066" fill="white">
<path fill-rule="evenodd" clip-rule="evenodd" d="M4.54636 3.12485C3.76125 3.12485 3.1248 3.7613 3.1248 4.54641V15.4536C3.1248 16.2387 3.76125 16.8752 4.54636 16.8752H15.4536C16.2387 16.8752 16.8751 16.2387 16.8751 15.4536V4.54641C16.8751 3.7613 16.2387 3.12485 15.4536 3.12485H4.54636ZM6.69403 14.5786C7.38438 14.5786 7.94403 14.0189 7.94403 13.3286C7.94403 12.6382 7.38438 12.0786 6.69403 12.0786C6.00367 12.0786 5.44403 12.6382 5.44403 13.3286C5.44403 14.0189 6.00367 14.5786 6.69403 14.5786ZM5.44624 9.01783C5.44624 8.67265 5.72606 8.39283 6.07124 8.39283C6.79822 8.39283 7.51808 8.53602 8.18972 8.81422C8.86136 9.09242 9.47162 9.50019 9.98567 10.0142C10.4997 10.5283 10.9075 11.1386 11.1857 11.8102C11.4639 12.4818 11.6071 13.2017 11.6071 13.9287C11.6071 14.2738 11.3273 14.5537 10.9821 14.5537C10.6369 14.5537 10.3571 14.2738 10.3571 13.9287C10.3571 13.3658 10.2462 12.8085 10.0308 12.2885C9.81546 11.7686 9.49977 11.2961 9.10179 10.8981C8.70381 10.5001 8.23134 10.1845 7.71136 9.96907C7.19138 9.75368 6.63407 9.64283 6.07124 9.64283C5.72606 9.64283 5.44624 9.36301 5.44624 9.01783ZM6.07126 4.46418C5.72609 4.46418 5.44626 4.744 5.44626 5.08918C5.44626 5.43436 5.72609 5.71418 6.07126 5.71418C7.15001 5.71418 8.21819 5.92665 9.21482 6.33947C10.2115 6.75229 11.117 7.35737 11.8798 8.12016C12.6426 8.88294 13.2477 9.7885 13.6605 10.7851C14.0733 11.7818 14.2858 12.8499 14.2858 13.9287C14.2858 14.2739 14.5656 14.5537 14.9108 14.5537C15.256 14.5537 15.5358 14.2739 15.5358 13.9287C15.5358 12.6858 15.291 11.4551 14.8153 10.3068C14.3397 9.15849 13.6425 8.11513 12.7637 7.23627C11.8848 6.35741 10.8415 5.66026 9.69318 5.18462C8.54489 4.70899 7.31416 4.46418 6.07126 4.46418Z"/>
</mask>
<path fill-rule="evenodd" clip-rule="evenodd" d="M4.54636 3.12485C3.76125 3.12485 3.1248 3.7613 3.1248 4.54641V15.4536C3.1248 16.2387 3.76125 16.8752 4.54636 16.8752H15.4536C16.2387 16.8752 16.8751 16.2387 16.8751 15.4536V4.54641C16.8751 3.7613 16.2387 3.12485 15.4536 3.12485H4.54636ZM6.69403 14.5786C7.38438 14.5786 7.94403 14.0189 7.94403 13.3286C7.94403 12.6382 7.38438 12.0786 6.69403 12.0786C6.00367 12.0786 5.44403 12.6382 5.44403 13.3286C5.44403 14.0189 6.00367 14.5786 6.69403 14.5786ZM5.44624 9.01783C5.44624 8.67265 5.72606 8.39283 6.07124 8.39283C6.79822 8.39283 7.51808 8.53602 8.18972 8.81422C8.86136 9.09242 9.47162 9.50019 9.98567 10.0142C10.4997 10.5283 10.9075 11.1386 11.1857 11.8102C11.4639 12.4818 11.6071 13.2017 11.6071 13.9287C11.6071 14.2738 11.3273 14.5537 10.9821 14.5537C10.6369 14.5537 10.3571 14.2738 10.3571 13.9287C10.3571 13.3658 10.2462 12.8085 10.0308 12.2885C9.81546 11.7686 9.49977 11.2961 9.10179 10.8981C8.70381 10.5001 8.23134 10.1845 7.71136 9.96907C7.19138 9.75368 6.63407 9.64283 6.07124 9.64283C5.72606 9.64283 5.44624 9.36301 5.44624 9.01783ZM6.07126 4.46418C5.72609 4.46418 5.44626 4.744 5.44626 5.08918C5.44626 5.43436 5.72609 5.71418 6.07126 5.71418C7.15001 5.71418 8.21819 5.92665 9.21482 6.33947C10.2115 6.75229 11.117 7.35737 11.8798 8.12016C12.6426 8.88294 13.2477 9.7885 13.6605 10.7851C14.0733 11.7818 14.2858 12.8499 14.2858 13.9287C14.2858 14.2739 14.5656 14.5537 14.9108 14.5537C15.256 14.5537 15.5358 14.2739 15.5358 13.9287C15.5358 12.6858 15.291 11.4551 14.8153 10.3068C14.3397 9.15849 13.6425 8.11513 12.7637 7.23627C11.8848 6.35741 10.8415 5.66026 9.69318 5.18462C8.54489 4.70899 7.31416 4.46418 6.07126 4.46418Z" fill="#151515"/>
<path d="M11.1857 11.8102L9.79987 12.3842V12.3842L11.1857 11.8102ZM10.0308 12.2885L8.64502 12.8626L8.64502 12.8626L10.0308 12.2885ZM9.10179 10.8981L10.1624 9.83746L10.1624 9.83746L9.10179 10.8981ZM7.71136 9.96907L8.28539 8.58325H8.28539L7.71136 9.96907ZM9.21482 6.33947L8.6408 7.72529H8.6408L9.21482 6.33947ZM11.8798 8.12016L10.8191 9.18082L10.8191 9.18081L11.8798 8.12016ZM13.6605 10.7851L12.2747 11.3592V11.3592L13.6605 10.7851ZM14.2858 13.9287H12.7858V13.9287L14.2858 13.9287ZM14.8153 10.3068L13.4295 10.8808V10.8808L14.8153 10.3068ZM9.69318 5.18462L9.11915 6.57044H9.11915L9.69318 5.18462ZM1.6248 4.54641C1.6248 2.93287 2.93283 1.62485 4.54636 1.62485V4.62485C4.58968 4.62485 4.6248 4.58973 4.6248 4.54641H1.6248ZM1.6248 15.4536V4.54641H4.6248V15.4536H1.6248ZM4.54636 18.3752C2.93282 18.3752 1.6248 17.0672 1.6248 15.4536H4.6248C4.6248 15.4103 4.58968 15.3752 4.54636 15.3752V18.3752ZM15.4536 18.3752H4.54636V15.3752H15.4536V18.3752ZM18.3751 15.4536C18.3751 17.0672 17.0671 18.3752 15.4536 18.3752V15.3752C15.4103 15.3752 15.3751 15.4103 15.3751 15.4536H18.3751ZM18.3751 4.54641V15.4536H15.3751V4.54641H18.3751ZM15.4536 1.62485C17.0671 1.62485 18.3751 2.93288 18.3751 4.54641H15.3751C15.3751 4.58973 15.4103 4.62485 15.4536 4.62485V1.62485ZM4.54636 1.62485H15.4536V4.62485H4.54636V1.62485ZM9.44403 13.3286C9.44403 14.8473 8.21281 16.0786 6.69403 16.0786V13.0786C6.55595 13.0786 6.44403 13.1905 6.44403 13.3286H9.44403ZM6.69403 10.5786C8.21281 10.5786 9.44403 11.8098 9.44403 13.3286H6.44403C6.44403 13.4666 6.55595 13.5786 6.69403 13.5786V10.5786ZM3.94403 13.3286C3.94403 11.8098 5.17524 10.5786 6.69403 10.5786V13.5786C6.8321 13.5786 6.94403 13.4666 6.94403 13.3286H3.94403ZM6.69403 16.0786C5.17524 16.0786 3.94403 14.8473 3.94403 13.3286H6.94403C6.94403 13.1905 6.8321 13.0786 6.69403 13.0786V16.0786ZM6.07124 9.89283C6.55449 9.89283 6.94624 9.50108 6.94624 9.01783H3.94624C3.94624 7.84422 4.89764 6.89283 6.07124 6.89283V9.89283ZM7.61569 10.2C7.12604 9.99722 6.60124 9.89283 6.07124 9.89283V6.89283C6.9952 6.89283 7.91011 7.07482 8.76374 7.4284L7.61569 10.2ZM8.92501 11.0749C8.55025 10.7001 8.10534 10.4029 7.61569 10.2L8.76374 7.4284C9.61737 7.78198 10.393 8.30024 11.0463 8.95358L8.92501 11.0749ZM9.79987 12.3842C9.59705 11.8946 9.29977 11.4497 8.92501 11.0749L11.0463 8.95358C11.6997 9.60692 12.2179 10.3825 12.5715 11.2362L9.79987 12.3842ZM10.1071 13.9287C10.1071 13.3987 10.0027 12.8739 9.79987 12.3842L12.5715 11.2362C12.9251 12.0898 13.1071 13.0047 13.1071 13.9287H10.1071ZM10.9821 13.0537C10.4988 13.0537 10.1071 13.4454 10.1071 13.9287H13.1071C13.1071 15.1023 12.1557 16.0537 10.9821 16.0537V13.0537ZM11.8571 13.9287C11.8571 13.4454 11.4653 13.0537 10.9821 13.0537V16.0537C9.80848 16.0537 8.85708 15.1023 8.85708 13.9287H11.8571ZM11.4167 11.7145C11.7074 12.4165 11.8571 13.1689 11.8571 13.9287H8.85708C8.85708 13.5628 8.78502 13.2006 8.64502 12.8626L11.4167 11.7145ZM10.1624 9.83746C10.6997 10.3747 11.1259 11.0126 11.4167 11.7145L8.64502 12.8626C8.50502 12.5246 8.29982 12.2175 8.04113 11.9588L10.1624 9.83746ZM8.28539 8.58325C8.98736 8.87401 9.62518 9.3002 10.1624 9.83746L8.04113 11.9588C7.78244 11.7001 7.47533 11.4949 7.13734 11.3549L8.28539 8.58325ZM6.07124 8.14283C6.83105 8.14283 7.58342 8.29248 8.28539 8.58325L7.13734 11.3549C6.79934 11.2149 6.43708 11.1428 6.07124 11.1428V8.14283ZM6.94624 9.01783C6.94624 8.53458 6.55449 8.14283 6.07124 8.14283V11.1428C4.89764 11.1428 3.94624 10.1914 3.94624 9.01783H6.94624ZM3.94626 5.08918C3.94626 3.91558 4.89766 2.96418 6.07126 2.96418V5.96418C6.55451 5.96418 6.94626 5.57243 6.94626 5.08918H3.94626ZM6.07126 7.21418C4.89766 7.21418 3.94626 6.26278 3.94626 5.08918H6.94626C6.94626 4.60593 6.55451 4.21418 6.07126 4.21418V7.21418ZM8.6408 7.72529C7.82615 7.38786 6.95303 7.21418 6.07126 7.21418V4.21418C7.34699 4.21418 8.61023 4.46545 9.78885 4.95365L8.6408 7.72529ZM10.8191 9.18081C10.1956 8.55731 9.45544 8.06273 8.6408 7.72529L9.78885 4.95365C10.9675 5.44185 12.0384 6.15742 12.9405 7.0595L10.8191 9.18081ZM12.2747 11.3592C11.9372 10.5445 11.4426 9.80432 10.8191 9.18082L12.9405 7.05949C13.8425 7.96157 14.5581 9.03249 15.0463 10.2111L12.2747 11.3592ZM12.7858 13.9287C12.7858 13.0469 12.6121 12.1738 12.2747 11.3592L15.0463 10.2111C15.5345 11.3897 15.7858 12.653 15.7858 13.9287L12.7858 13.9287ZM14.9108 16.0537C13.7372 16.0537 12.7858 15.1023 12.7858 13.9287H15.7858C15.7858 13.4454 15.394 13.0537 14.9108 13.0537V16.0537ZM17.0358 13.9287C17.0358 15.1023 16.0844 16.0537 14.9108 16.0537V13.0537C14.4275 13.0537 14.0358 13.4454 14.0358 13.9287H17.0358ZM16.2012 9.73275C16.7522 11.063 17.0358 12.4888 17.0358 13.9287H14.0358C14.0358 12.8828 13.8298 11.8471 13.4295 10.8808L16.2012 9.73275ZM13.8243 6.17561C14.8425 7.19376 15.6501 8.40248 16.2012 9.73276L13.4295 10.8808C13.0293 9.91451 12.4426 9.03651 11.703 8.29693L13.8243 6.17561ZM10.2672 3.7988C11.5975 4.34982 12.8062 5.15746 13.8243 6.17561L11.703 8.29693C10.9634 7.55736 10.0854 6.9707 9.11915 6.57044L10.2672 3.7988ZM6.07126 2.96418C7.51114 2.96418 8.93693 3.24779 10.2672 3.7988L9.11915 6.57044C8.15285 6.17019 7.11718 5.96418 6.07126 5.96418V2.96418Z" fill="#151515" mask="url(#path-1-inside-1_1526_1066)"/>
</svg>
