<svg width="20" height="20" viewBox="0 0 20 20" fill="none" xmlns="http://www.w3.org/2000/svg">
<path d="M4.54632 2.62485H15.4535C16.5148 2.62485 17.3751 3.48516 17.3751 4.54641V15.4536C17.3751 16.5149 16.5148 17.3752 15.4535 17.3752H4.54632C3.48507 17.3752 2.62476 16.5149 2.62476 15.4536V4.54642C2.62476 3.48516 3.48507 2.62485 4.54632 2.62485Z" stroke="#151515" stroke-width="1.5"/>
<circle cx="6.69397" cy="13.3286" r="1.25" fill="#151515"/>
<path d="M6.07127 9.01783C6.71617 9.01783 7.35475 9.14485 7.95056 9.39164C8.54637 9.63844 9.08774 10.0002 9.54375 10.4562C9.99977 10.9122 10.3615 11.4536 10.6083 12.0494C10.8551 12.6452 10.9821 13.2838 10.9821 13.9287" stroke="#151515" stroke-width="1.5" stroke-linecap="round"/>
<path d="M6.07129 5.08918C7.23211 5.08918 8.38157 5.31782 9.45402 5.76205C10.5265 6.20627 11.5009 6.85739 12.3218 7.67821C13.1426 8.49904 13.7937 9.4735 14.2379 10.546C14.6822 11.6184 14.9108 12.7679 14.9108 13.9287" stroke="#151515" stroke-width="1.5" stroke-linecap="round"/>
</svg>
