<svg width="20" height="20" viewBox="0 0 20 20" fill="none" xmlns="http://www.w3.org/2000/svg">
<path d="M11.9545 3.00253C12.5936 3.00254 13.1117 3.52067 13.1117 4.15976C13.1117 4.79883 12.5935 5.31698 11.9545 5.31699C11.3154 5.31699 10.7973 4.79883 10.7972 4.15976C10.7972 3.52067 11.3154 3.00253 11.9545 3.00253Z" fill="#151515" stroke="#151515" stroke-width="1.5"/>
<path d="M10.1006 7.50104C10.8033 7.50104 11.6997 8.23488 11.6997 8.23488C10.8257 10.1024 10.1006 10.746 10.1006 12.2323H8.15476C9.67865 9.0935 9.24471 9.18787 10.1006 7.50104Z" fill="#151515"/>
<path d="M11.6997 8.23488C11.6997 8.23488 10.8033 7.50104 10.1006 7.50104M11.6997 8.23488C10.8257 10.1024 10.1006 10.746 10.1006 12.2323M11.6997 8.23488L12.7045 11.7813L15.5262 10.0131M10.1006 7.50104C9.24471 9.18787 9.67865 9.0935 8.15476 12.2323M10.1006 7.50104H7.51276L5.93265 10.2764M8.15476 12.2323C6.97876 14.3105 4.47388 17.2855 4.47388 17.2855M8.15476 12.2323C8.78196 12.2323 9.47343 12.2323 10.1006 12.2323M10.1006 12.2323C11.3158 14.3105 9.4938 17.7475 9.4938 17.7475" stroke="#151515" stroke-width="1.5" stroke-linecap="round" stroke-linejoin="round"/>
</svg>
