<svg width="20" height="20" viewBox="0 0 20 20" fill="none" xmlns="http://www.w3.org/2000/svg">
<circle cx="9.99996" cy="9.87457" r="7.18893" stroke="#151515" stroke-width="1.5"/>
<path fill-rule="evenodd" clip-rule="evenodd" d="M7.24426 12.91C7.097 13.0613 6.86269 13.1017 6.69236 12.977C6.55635 12.8774 6.42486 12.7721 6.29824 12.6613C6.13741 12.5205 6.1245 12.277 6.26997 12.1205C7.22675 11.0907 8.54482 10.4544 10.0001 10.4544C11.5071 10.4544 12.8671 11.1368 13.831 12.2319C13.9724 12.3927 13.9527 12.6363 13.7875 12.7725C13.6577 12.8795 13.5232 12.9809 13.3843 13.0764C13.2107 13.1957 12.9783 13.1489 12.8356 12.9941C12.0914 12.1873 11.0758 11.7044 10.0001 11.7044C8.96224 11.7044 7.9804 12.1538 7.24426 12.91Z" fill="#151515"/>
<path d="M8.23578 7.22827C8.23578 7.83723 7.74211 8.3309 7.13315 8.3309C6.52418 8.3309 6.03052 7.83723 6.03052 7.22827C6.03052 6.6193 6.52418 6.12564 7.13315 6.12564C7.74211 6.12564 8.23578 6.6193 8.23578 7.22827Z" fill="#151515"/>
<path d="M13.9694 7.22827C13.9694 7.83723 13.4758 8.3309 12.8668 8.3309C12.2578 8.3309 11.7642 7.83723 11.7642 7.22827C11.7642 6.6193 12.2578 6.12564 12.8668 6.12564C13.4758 6.12564 13.9694 6.6193 13.9694 7.22827Z" fill="#151515"/>
</svg>
