<svg width="20" height="20" viewBox="0 0 20 20" fill="none" xmlns="http://www.w3.org/2000/svg">
<path d="M6.31806 2.72139H3.87862C3.41838 2.72139 3.04529 3.09449 3.04529 3.55472V13.6373C3.04529 13.8818 3.15264 14.1139 3.33891 14.2723L6.90286 17.3016C7.05352 17.4297 7.24482 17.5 7.44256 17.5H16.1212C16.5815 17.5 16.9546 17.1269 16.9546 16.6667V3.55472C16.9546 3.09449 16.5815 2.72139 16.1212 2.72139H13.6818M6.31806 2.72139V7.10403C6.31806 7.56427 6.69115 7.93737 7.15139 7.93737H12.8485C13.3087 7.93737 13.6818 7.56427 13.6818 7.10403V2.72139M6.31806 2.72139H13.6818" stroke="#151515" stroke-width="1.5" stroke-linecap="round" stroke-linejoin="round"/>
<path d="M7.39197 17.5V13.1174C7.39197 12.6571 7.76506 12.284 8.2253 12.284H11.7746C12.2348 12.284 12.6079 12.6571 12.6079 13.1174V17.5" stroke="#151515" stroke-width="1.5" stroke-linecap="round" stroke-linejoin="round"/>
</svg>
