<svg width="20" height="20" viewBox="0 0 20 20" fill="none" xmlns="http://www.w3.org/2000/svg">
<path d="M16.8603 17.921C17.1537 18.2134 17.6285 18.2127 17.921 17.9193C18.2134 17.626 18.2127 17.1511 17.9193 16.8587L16.8603 17.921ZM13.6839 8.52202C13.6839 11.3728 11.3728 13.6839 8.52199 13.6839V15.1839C12.2012 15.1839 15.1839 12.2013 15.1839 8.52202H13.6839ZM8.52199 13.6839C5.67116 13.6839 3.36011 11.3728 3.36011 8.52202H1.86011C1.86011 12.2013 4.84273 15.1839 8.52199 15.1839V13.6839ZM3.36011 8.52202C3.36011 5.67119 5.67116 3.36014 8.52199 3.36014V1.86014C4.84273 1.86014 1.86011 4.84276 1.86011 8.52202H3.36011ZM8.52199 3.36014C11.3728 3.36014 13.6839 5.67119 13.6839 8.52202H15.1839C15.1839 4.84276 12.2012 1.86014 8.52199 1.86014V3.36014ZM12.1654 13.2409L16.8603 17.921L17.9193 16.8587L13.2244 12.1785L12.1654 13.2409Z" fill="#151515"/>
</svg>
