<svg width="20" height="20" viewBox="0 0 20 20" fill="none" xmlns="http://www.w3.org/2000/svg">
<path fill-rule="evenodd" clip-rule="evenodd" d="M7.99689 16.3506L8.59115 16.0061L8.54207 15.9214L8.5272 15.8958L8.50997 15.8717L8.45312 15.792L8.43682 15.7692L8.41854 15.7479L8.35493 15.6739L8.33557 15.6514L8.31417 15.6308L8.24379 15.5631L8.22394 15.544L8.20249 15.5267L8.1266 15.4656L8.10311 15.4467L8.0779 15.4301L7.99651 15.3766L7.97218 15.3606L7.94647 15.347L7.86057 15.3013L7.83583 15.2882L7.81001 15.2773L7.72035 15.2395L7.69257 15.2278L7.66378 15.2189L7.57112 15.19L7.5437 15.1814L7.51562 15.1754L7.4207 15.1551L7.39243 15.1491L7.36373 15.1457L7.26756 15.1343L7.23819 15.1308L7.20863 15.1301L7.11171 15.1278L7.08312 15.1271L7.05459 15.1291L6.95767 15.1357L6.92805 15.1377L6.89875 15.1425L6.80308 15.1582L6.77431 15.1629L6.74609 15.1703L6.65218 15.1949L6.7966 15.7464L6.64585 15.1968L6.52837 15.229L6.43078 15.2488L6.33212 15.2617L6.23211 15.268L6.13245 15.2675L6.033 15.26L5.93455 15.2459L5.83721 15.2248L5.74048 15.1969L5.64635 15.1628L5.55557 15.1226L5.46653 15.0755L5.38069 15.0225L5.29934 14.9643L5.22177 14.9002L5.1481 14.8304L5.07914 14.7558L5.01563 14.677L4.95777 14.5942L4.90512 14.5067L4.85816 14.4158L4.81801 14.3229L4.78388 14.2264L4.75599 14.1272L4.7349 14.0273L4.72072 13.9261L4.71326 13.8239L4.71272 13.7214L4.71898 13.6186L4.73192 13.5172L4.75179 13.417L4.78379 13.2974L4.16233 13.1311L4.78639 13.2906L4.81068 13.1955L4.81774 13.1679L4.82226 13.1397L4.83778 13.0429L4.84237 13.0142L4.84429 12.9853L4.8508 12.8872L4.85265 12.8593L4.85201 12.8314L4.84976 12.7333L4.84909 12.7045L4.84578 12.6758L4.83451 12.5785L4.83126 12.5504L4.82549 12.5227L4.80546 12.4267L4.79972 12.3991L4.79154 12.3723L4.76299 12.2784L4.75437 12.2501L4.74312 12.2228L4.70581 12.132L4.69532 12.1065L4.68263 12.082L4.63755 11.9951L4.62431 11.9695L4.60878 11.9453L4.55594 11.8629L4.53978 11.8377L4.52129 11.8142L4.46093 11.7374L4.44397 11.7158L4.42519 11.6958L4.35832 11.6245L4.33798 11.6028L4.31566 11.5832L4.24253 11.5188L4.22136 11.5001L4.1986 11.4835L4.11996 11.4259L4.0958 11.4082L4.07006 11.393L3.98641 11.3433L3.60279 11.989L3.98027 11.3404L3.87415 11.2787L3.79073 11.2225L3.71158 11.1607L3.63602 11.0932L3.5654 11.0208L3.49978 10.9438L3.43945 10.8623L3.38421 10.7764L3.3352 10.6873L3.29226 10.5952L3.25554 10.4998L3.22503 10.4018L3.20123 10.3023L3.18427 10.202L3.1741 10.0996L3.17054 9.99706L3.1741 9.89456L3.18427 9.7921L3.20123 9.69178L3.22503 9.59235L3.25554 9.49427L3.29227 9.3989L3.3352 9.30678L3.38421 9.21776L3.43945 9.13181L3.49978 9.05031L3.5654 8.97334L3.63602 8.90096L3.71158 8.83342L3.79073 8.77159L3.87415 8.71547L3.98027 8.6537L3.60268 8.00493L3.98642 8.65085L4.07006 8.60116L4.0958 8.58587L4.11997 8.56818L4.1986 8.51063L4.22137 8.49397L4.24254 8.47533L4.31567 8.41093L4.33798 8.39128L4.35833 8.3696L4.42519 8.29836L4.44398 8.27834L4.46094 8.25676L4.52129 8.17993L4.53978 8.1564L4.55594 8.1312L4.60878 8.0488L4.62431 8.02459L4.63755 7.99904L4.68263 7.91208L4.69532 7.8876L4.70581 7.86209L4.74312 7.77133L4.75437 7.74396L4.76299 7.71565L4.79154 7.62184L4.79972 7.59496L4.80546 7.56744L4.82549 7.47135L4.83126 7.4437L4.83451 7.41565L4.84578 7.31829L4.84909 7.28962L4.84976 7.26078L4.85201 7.16266L4.85265 7.13476L4.8508 7.10691L4.84429 7.00879L4.84237 6.97987L4.83778 6.95125L4.82226 6.85439L4.81774 6.82624L4.81068 6.79861L4.78639 6.70353L4.16383 6.8626L4.78379 6.6967L4.75179 6.57711L4.73192 6.47689L4.71898 6.37548L4.71272 6.27271L4.71326 6.17024L4.72072 6.06801L4.7349 5.96683L4.75599 5.86688L4.78388 5.76769L4.81801 5.67126L4.85816 5.57836L4.90512 5.48743L4.95776 5.39992L5.01563 5.31713L5.07914 5.23836L5.1481 5.1637L5.22177 5.09396L5.29933 5.02986L5.38069 4.97159L5.46653 4.91866L5.55557 4.87154L5.64635 4.83132L5.74048 4.79718L5.83721 4.76931L5.93454 4.74826L6.033 4.73412L6.13245 4.72667L6.23212 4.72614L6.33212 4.73238L6.43079 4.74529L6.52837 4.76511L6.64585 4.79733L6.79665 4.24751L6.65217 4.79921L6.74609 4.8238L6.7743 4.83119L6.80308 4.83592L6.89875 4.85164L6.92805 4.85646L6.95767 4.85847L7.0546 4.86506L7.08313 4.867L7.11172 4.86633L7.20864 4.86405L7.2382 4.86335L7.26756 4.85987L7.36373 4.84846L7.39243 4.84505L7.4207 4.83901L7.51562 4.81873L7.5437 4.81273L7.57112 4.80418L7.66378 4.77527L7.69257 4.76629L7.72036 4.75459L7.81001 4.71681L7.83583 4.70593L7.86056 4.69279L7.94646 4.64715L7.97218 4.63349L7.99651 4.6175L8.07791 4.564L8.10311 4.54743L8.12661 4.52851L8.20249 4.46741L8.22394 4.45014L8.24379 4.43104L8.31417 4.36335L8.33557 4.34276L8.35493 4.32023L8.41854 4.2462L8.43682 4.22492L8.45312 4.20209L8.50997 4.12248L8.5272 4.09835L8.54207 4.0727L8.59115 3.98802L7.99648 3.64332L8.59503 3.98322L8.65621 3.87549L8.71198 3.79054L8.7733 3.71008L8.84014 3.63344L8.91162 3.56197L8.98748 3.49568L9.06763 3.43487L9.15201 3.37929L9.23923 3.33008L9.32932 3.28704L9.42247 3.25028L9.51815 3.21978L9.61502 3.19602L9.71265 3.1791L9.81237 3.16895L9.91207 3.16541L10.0118 3.16895L10.1115 3.1791L10.2091 3.19602L10.306 3.21978L10.4017 3.25028L10.4948 3.28704L10.5849 3.33008L10.6721 3.37929L10.7565 3.43487L10.8367 3.49568L10.9125 3.56197L10.984 3.63344L11.0508 3.71008L11.1122 3.79054L11.1679 3.87549L11.2291 3.98322L11.6962 3.71796L11.2303 3.98802L11.2794 4.0727L11.2943 4.09835L11.3115 4.12248L11.3683 4.20209L11.3846 4.22492L11.4029 4.24619L11.4665 4.32023L11.4859 4.34275L11.5073 4.36334L11.5777 4.43104L11.5975 4.45013L11.619 4.46741L11.6948 4.52851L11.7183 4.54743L11.7435 4.564L11.8249 4.6175L11.8493 4.63349L11.875 4.64715L11.9609 4.69279L11.9856 4.70593L12.0114 4.71681L12.1011 4.75458L12.1289 4.76629L12.1577 4.77527L12.2503 4.80418L12.2777 4.81273L12.3058 4.81873L12.4007 4.83901L12.429 4.84505L12.4577 4.84846L12.5539 4.85987L12.5833 4.86335L12.6128 4.86405L12.7097 4.86633L12.7383 4.867L12.7669 4.86506L12.8638 4.85847L12.8934 4.85645L12.9227 4.85164L13.0184 4.83592L13.0471 4.83119L13.0754 4.8238L13.1693 4.79921L12.9868 4.10248L13.1774 4.79733L13.2949 4.76511L13.3925 4.74529L13.4911 4.73238L13.5911 4.72614L13.6908 4.72667L13.7902 4.73412L13.8887 4.74826L13.986 4.76931L14.0828 4.79718L14.1769 4.83132L14.2677 4.87154L14.3567 4.91866L14.4425 4.97159L14.5239 5.02986L14.6015 5.09396L14.6751 5.1637L14.7441 5.23836L14.8076 5.31713L14.8655 5.39992L14.9181 5.48743L14.9651 5.57836L15.0052 5.67126L15.0393 5.76769L15.0672 5.86688L15.0883 5.96683L15.1025 6.06801L15.11 6.17024L15.1105 6.27271L15.1043 6.37548L15.0913 6.47689L15.0714 6.57711L15.0394 6.6967L15.6412 6.85774L15.0377 6.70354L15.0134 6.79861L15.0063 6.82624L15.0018 6.85439L14.9863 6.95125L14.9817 6.97987L14.9798 7.00879L14.9733 7.10691L14.9714 7.13475L14.9721 7.16265L14.9743 7.26077L14.975 7.28962L14.9783 7.31829L14.9896 7.41565L14.9928 7.4437L14.9986 7.47135L15.0186 7.56744L15.0244 7.59496L15.0326 7.62185L15.0611 7.71566L15.0697 7.74396L15.081 7.77133L15.1183 7.86209L15.1288 7.8876L15.1415 7.91208L15.1865 7.99905L15.1998 8.02459L15.2153 8.0488L15.2682 8.1312L15.2843 8.15639L15.3028 8.17993L15.3632 8.25675L15.3801 8.27834L15.3989 8.29835L15.4658 8.3696L15.4861 8.39128L15.5084 8.41093L15.5816 8.47533L15.6027 8.49397L15.6255 8.51063L15.7041 8.56818L15.7283 8.58587L15.754 8.60116L15.8377 8.65085L16.0829 8.23812L15.841 8.6537L15.9471 8.71547L16.0305 8.77159L16.1097 8.83342L16.1853 8.90096L16.2559 8.97334L16.3215 9.05031L16.3818 9.13181L16.4371 9.21776L16.4861 9.30678L16.529 9.3989L16.5657 9.49427L16.5962 9.59235L16.62 9.69178L16.637 9.7921L16.6472 9.89457L16.6507 9.99706L16.6472 10.0996L16.637 10.202L16.62 10.3023L16.5962 10.4018L16.5657 10.4999L16.529 10.5952L16.4861 10.6873L16.4371 10.7764L16.3818 10.8623L16.3215 10.9438L16.2559 11.0208L16.1853 11.0932L16.1097 11.1607L16.0305 11.2225L15.9471 11.2787L15.841 11.3404L16.0826 11.7555L15.8377 11.3433L15.754 11.393L15.7283 11.4082L15.7041 11.4259L15.6255 11.4835L15.6027 11.5001L15.5816 11.5188L15.5084 11.5832L15.4861 11.6028L15.4658 11.6245L15.3989 11.6958L15.3801 11.7158L15.3632 11.7374L15.3028 11.8142L15.2843 11.8377L15.2682 11.8629L15.2153 11.9453L15.1998 11.9695L15.1865 11.9951L15.1415 12.082L15.1288 12.1065L15.1183 12.132L15.081 12.2228L15.0697 12.2501L15.0611 12.2784L15.0326 12.3723L15.0244 12.3991L15.0186 12.4267L14.9986 12.5228L14.9928 12.5504L14.9896 12.5785L14.9783 12.6758L14.975 12.7045L14.9743 12.7333L14.9721 12.8314L14.9714 12.8593L14.9733 12.8872L14.9798 12.9853L14.9817 13.0142L14.9863 13.0429L15.0018 13.1397L15.0064 13.1679L15.0134 13.1955L15.0377 13.2906L15.6427 13.136L15.0394 13.2974L15.0714 13.417L15.0913 13.5172L15.1043 13.6186L15.1105 13.7214L15.11 13.8239L15.1025 13.9261L15.0883 14.0273L15.0672 14.1272L15.0393 14.2264L15.0052 14.3229L14.9651 14.4158L14.9181 14.5067L14.8655 14.5942L14.8076 14.677L14.7441 14.7558L14.6751 14.8304L14.6015 14.9002L14.5239 14.9643L14.4425 15.0225L14.3567 15.0755L14.2677 15.1226L14.1769 15.1628L14.0828 15.1969L13.986 15.2248L13.8887 15.2459L13.7902 15.26L13.6908 15.2675L13.5911 15.268L13.4911 15.2617L13.3925 15.2488L13.2949 15.229L13.1774 15.1968L12.9869 15.8914L13.1693 15.1949L13.0754 15.1703L13.0471 15.1629L13.0184 15.1582L12.9227 15.1425L12.8934 15.1377L12.8638 15.1357L12.7669 15.1291L12.7383 15.1271L12.7097 15.1278L12.6128 15.1301L12.5833 15.1308L12.5539 15.1343L12.4577 15.1457L12.429 15.1491L12.4007 15.1551L12.3058 15.1754L12.2777 15.1814L12.2503 15.19L12.1577 15.2189L12.1289 15.2278L12.1011 15.2395L12.0114 15.2773L11.9856 15.2882L11.9609 15.3013L11.875 15.347L11.8493 15.3606L11.8249 15.3766L11.7436 15.4301L11.7183 15.4467L11.6948 15.4656L11.619 15.5267L11.5975 15.544L11.5777 15.5631L11.5073 15.6308L11.4859 15.6514L11.4665 15.6739L11.4029 15.7479L11.3846 15.7692L11.3683 15.792L11.3115 15.8717L11.2943 15.8958L11.2794 15.9214L11.2303 16.0061L11.6959 16.276L11.2291 16.0109L11.1679 16.1186L11.1122 16.2036L11.0508 16.284L10.984 16.3607L10.9125 16.4322L10.8366 16.4984L10.7565 16.5593L10.6721 16.6148L10.5849 16.664L10.4948 16.7071L10.4017 16.7438L10.306 16.7743L10.2091 16.7981L10.1115 16.815L10.0118 16.8252L9.91207 16.8287L9.81237 16.8252L9.71265 16.815L9.61502 16.7981L9.51815 16.7743L9.42246 16.7438L9.32932 16.7071L9.23923 16.664L9.15201 16.6148L9.06763 16.5593L8.98748 16.4984L8.91162 16.4322L8.84014 16.3607L8.7733 16.284L8.71198 16.2036L8.65621 16.1186L8.59503 16.0109L7.99689 16.3506ZM3.577 7.01963L3.57628 7.01983L3.53897 6.88038L3.53365 6.86053L3.52965 6.84036L3.50161 6.69889L3.49742 6.6778L3.4947 6.65647L3.47642 6.51322L3.4738 6.49271L3.47254 6.47206L3.46378 6.32806L3.46253 6.30746L3.46263 6.28683L3.46338 6.14257L3.46349 6.1214L3.46504 6.10029L3.47555 5.95628L3.47706 5.93561L3.47994 5.91509L3.49998 5.77209L3.50296 5.7508L3.5074 5.72976L3.5372 5.58854L3.54147 5.56831L3.54707 5.54841L3.58613 5.40947L3.59172 5.38962L3.5986 5.37018L3.64668 5.23428L3.65376 5.21426L3.66219 5.19477L3.71929 5.06267L3.72781 5.04297L3.73766 5.0239L3.80377 4.89587L3.81309 4.87783L3.82355 4.86044L3.89768 4.73722L3.9087 4.7189L3.92094 4.70138L4.00334 4.58349L4.01563 4.5659L4.0291 4.5492L4.11925 4.43739L4.13243 4.42105L4.14667 4.40563L4.24409 4.30016L4.25831 4.28476L4.27354 4.27035L4.37772 4.17173L4.39301 4.15725L4.40924 4.14384L4.51969 4.05256L4.53633 4.03881L4.55389 4.02623L4.67034 3.94282L4.68789 3.93025L4.70626 3.91892L4.82798 3.84387L4.84548 3.83308L4.86365 3.82347L4.99012 3.75653L5.00938 3.74634L5.02931 3.73751L5.15979 3.6797L5.17956 3.67094L5.19988 3.66357L5.33412 3.61489L5.3539 3.60772L5.37411 3.60189L5.51135 3.56234L5.53166 3.55649L5.55231 3.55203L5.6918 3.52185L5.71331 3.5172L5.73509 3.51408L5.87634 3.49379L5.89735 3.49078L5.91852 3.48919L6.06077 3.47854L6.0824 3.47692L6.10409 3.47681L6.24659 3.47605L6.26773 3.47593L6.28884 3.47725L6.43109 3.48612L6.45223 3.48744L6.47323 3.49019L6.61473 3.5087L6.63656 3.51155L6.65813 3.51594L6.79787 3.54433L6.81846 3.54852L6.83873 3.55407L6.97647 3.59185L6.97643 3.59198L7.03453 3.60719L7.07212 3.61337L7.11089 3.616L7.14966 3.61509L7.18776 3.61057L7.22632 3.60233L7.26278 3.59096L7.29883 3.57576L7.33428 3.55693L7.36614 3.536L7.39707 3.51109L7.42619 3.48308L7.45216 3.45285L7.47548 3.42019L7.5097 3.36116L7.51053 3.36164L7.57919 3.24072L7.58914 3.2232L7.60019 3.20637L7.67908 3.08619L7.69115 3.0678L7.70449 3.0503L7.79164 2.93596L7.80414 2.91956L7.81769 2.90403L7.9121 2.79577L7.92613 2.77968L7.94122 2.76459L8.04265 2.66318L8.0575 2.64833L8.07332 2.6345L8.18126 2.54019L8.19752 2.52598L8.21473 2.51292L8.32868 2.42647L8.34526 2.41388L8.36266 2.40243L8.48237 2.32358L8.50031 2.31176L8.51903 2.3012L8.64349 2.23097L8.66203 2.22051L8.68123 2.21133L8.81021 2.14972L8.82989 2.14032L8.85017 2.13232L8.98315 2.07984L9.00271 2.07212L9.02274 2.06573L9.15873 2.02238L9.17901 2.01591L9.19967 2.01084L9.33816 1.97687L9.35912 1.97173L9.38038 1.96805L9.52088 1.94371L9.54248 1.93996L9.56428 1.93774L9.70628 1.92329L9.72676 1.92121L9.74734 1.92048L9.88984 1.91541L9.91207 1.91462L9.93429 1.91541L10.0768 1.92048L10.0974 1.92121L10.1178 1.92329L10.2598 1.93774L10.2817 1.93996L10.3032 1.94371L10.4437 1.96805L10.465 1.97173L10.486 1.97687L10.6245 2.01084L10.6451 2.01591L10.6654 2.02238L10.8014 2.06573L10.8214 2.07212L10.841 2.07984L10.974 2.13232L10.9942 2.14032L11.0139 2.14972L11.1429 2.21133L11.1621 2.22051L11.1806 2.23097L11.3051 2.3012L11.3238 2.31176L11.3418 2.32358L11.4615 2.40243L11.4789 2.41388L11.4955 2.42647L11.6094 2.51292L11.6266 2.52598L11.6429 2.54019L11.7508 2.6345L11.7666 2.64833L11.7815 2.66318L11.8829 2.76459L11.898 2.77968L11.912 2.79577L12.0064 2.90403L12.02 2.91956L12.0325 2.93596L12.1196 3.0503L12.133 3.0678L12.145 3.08619L12.2239 3.20637L12.235 3.2232L12.2449 3.24072L12.3161 3.36596L12.3149 3.36661L12.346 3.42019L12.3693 3.45285L12.3953 3.48308L12.4244 3.51109L12.4553 3.536L12.4872 3.55693L12.5226 3.57577L12.5587 3.59096L12.5951 3.60233L12.6337 3.61057L12.6718 3.61509L12.7106 3.616L12.7493 3.61337L12.7869 3.60719L12.8526 3.58999L12.8527 3.59023L12.9845 3.55407L13.0048 3.54852L13.0254 3.54433L13.1651 3.51594L13.1867 3.51155L13.2085 3.5087L13.35 3.49019L13.371 3.48744L13.3922 3.48612L13.5344 3.47725L13.5555 3.47593L13.5767 3.47605L13.7192 3.47681L13.7408 3.47692L13.7625 3.47854L13.9047 3.48919L13.9259 3.49078L13.9469 3.49379L14.0882 3.51408L14.1099 3.5172L14.1314 3.52185L14.2709 3.55203L14.2916 3.55649L14.3119 3.56234L14.4491 3.60189L14.4693 3.60772L14.4891 3.61489L14.6234 3.66357L14.6437 3.67094L14.6634 3.6797L14.7939 3.73751L14.8139 3.74634L14.8331 3.75653L14.9596 3.82347L14.9778 3.83308L14.9953 3.84387L15.117 3.91892L15.1353 3.93025L15.1529 3.94282L15.2693 4.02623L15.2869 4.03881L15.3036 4.05256L15.414 4.14384L15.4302 4.15725L15.4455 4.17173L15.5497 4.27036L15.5649 4.28476L15.5791 4.30016L15.6766 4.40563L15.6908 4.42105L15.704 4.43739L15.7941 4.5492L15.8076 4.5659L15.8199 4.58349L15.9023 4.70138L15.9145 4.7189L15.9256 4.73722L15.9997 4.86043L16.0101 4.87783L16.0195 4.89587L16.0856 5.02391L16.0954 5.04297L16.1039 5.06267L16.161 5.19477L16.1695 5.21426L16.1766 5.23428L16.2246 5.37018L16.2315 5.38962L16.2371 5.40947L16.2762 5.54841L16.2818 5.56831L16.286 5.58854L16.3158 5.72976L16.3203 5.7508L16.3233 5.77209L16.3433 5.91509L16.3462 5.93561L16.3477 5.95628L16.3582 6.10029L16.3597 6.1214L16.3598 6.14257L16.3606 6.28683L16.3607 6.30746L16.3595 6.32805L16.3507 6.47206L16.3494 6.49271L16.3468 6.51322L16.3285 6.65647L16.3258 6.6778L16.3216 6.69889L16.2936 6.84036L16.2896 6.86053L16.2843 6.88038L16.2488 7.01297L16.2316 7.08042L16.2251 7.12049L16.2224 7.16185L16.2233 7.20322L16.228 7.24386L16.2366 7.28479L16.2483 7.3234L16.2639 7.3613L16.2831 7.39824L16.3042 7.43123L16.3291 7.46293L16.3569 7.49248L16.3865 7.51859L16.4182 7.5418L16.4761 7.5762L16.4757 7.57684L16.5935 7.64536L16.6111 7.65561L16.628 7.66697L16.7467 7.74684L16.7651 7.75921L16.7826 7.77286L16.8955 7.8611L16.9118 7.87384L16.9273 7.88764L17.0342 7.98323L17.0501 7.99747L17.0651 8.01277L17.1652 8.11545L17.1799 8.13046L17.1935 8.14641L17.2866 8.25569L17.3006 8.27203L17.3134 8.2893L17.3988 8.40466L17.4111 8.42126L17.4222 8.43863L17.5001 8.55982L17.5116 8.57769L17.5218 8.5963L17.5912 8.7223L17.6013 8.74069L17.6102 8.7597L17.671 8.89028L17.6801 8.90971L17.6878 8.92971L17.7396 9.06434L17.7471 9.08359L17.7532 9.10329L17.796 9.24096L17.8022 9.26085L17.807 9.28111L17.8406 9.42132L17.8455 9.44184L17.849 9.46265L17.8731 9.60488L17.8766 9.62598L17.8788 9.64728L17.893 9.79104L17.895 9.81103L17.8957 9.83111L17.9007 9.97537L17.9015 9.99706L17.9007 10.0187L17.8957 10.163L17.895 10.1831L17.893 10.2031L17.8788 10.3468L17.8766 10.3681L17.8731 10.3892L17.849 10.5315L17.8455 10.5523L17.8406 10.5728L17.807 10.713L17.8022 10.7333L17.796 10.7532L17.7532 10.8908L17.7471 10.9105L17.7396 10.9298L17.6878 11.0644L17.6801 11.0844L17.671 11.1038L17.6102 11.2344L17.6013 11.2534L17.5912 11.2718L17.5218 11.3978L17.5116 11.4164L17.5001 11.4343L17.4222 11.5555L17.4111 11.5729L17.3988 11.5895L17.3134 11.7048L17.3006 11.7221L17.2866 11.7384L17.1935 11.8477L17.1799 11.8637L17.1652 11.8787L17.0651 11.9814L17.0501 11.9967L17.0342 12.0109L16.9273 12.1065L16.9118 12.1203L16.8955 12.133L16.7826 12.2213L16.7651 12.2349L16.7467 12.2473L16.628 12.3271L16.6111 12.3385L16.5935 12.3488L16.4757 12.4173L16.4761 12.4179L16.4182 12.4523L16.3865 12.4755L16.3569 12.5016L16.3291 12.5312L16.3042 12.5629L16.2831 12.5959L16.2639 12.6328L16.2483 12.6707L16.2366 12.7093L16.228 12.7502L16.2233 12.7909L16.2224 12.8322L16.2251 12.8736L16.2316 12.9137L16.2488 12.9811L16.2843 13.1137L16.2896 13.1336L16.2936 13.1537L16.3216 13.2952L16.3258 13.3163L16.3285 13.3376L16.3468 13.4809L16.3494 13.5014L16.3507 13.5221L16.3595 13.6661L16.3607 13.6867L16.3606 13.7073L16.3598 13.8515L16.3597 13.8727L16.3582 13.8938L16.3477 14.0378L16.3462 14.0585L16.3433 14.079L16.3233 14.222L16.3203 14.2433L16.3158 14.2644L16.286 14.4056L16.2818 14.4258L16.2762 14.4457L16.2371 14.5846L16.2315 14.6045L16.2246 14.6239L16.1766 14.7598L16.1695 14.7799L16.161 14.7994L16.1039 14.9314L16.0954 14.9511L16.0856 14.9702L16.0195 15.0982L16.0102 15.1163L15.9997 15.1337L15.9256 15.2569L15.9145 15.2752L15.9023 15.2927L15.8199 15.4106L15.8076 15.4282L15.7941 15.4449L15.704 15.5567L15.6908 15.5731L15.6766 15.5885L15.5791 15.694L15.5649 15.7094L15.5497 15.7238L15.4455 15.8224L15.4302 15.8369L15.414 15.8503L15.3036 15.9416L15.2869 15.9553L15.2693 15.9679L15.1529 16.0513L15.1353 16.0639L15.117 16.0752L14.9953 16.1503L14.9778 16.161L14.9596 16.1707L14.8331 16.2376L14.8139 16.2478L14.7939 16.2566L14.6635 16.3144L14.6437 16.3232L14.6234 16.3306L14.4891 16.3792L14.4693 16.3864L14.4491 16.3922L14.3119 16.4318L14.2916 16.4376L14.2709 16.4421L14.1314 16.4723L14.1099 16.4769L14.0882 16.4801L13.9469 16.5003L13.9259 16.5034L13.9047 16.5049L13.7625 16.5156L13.7408 16.5172L13.7191 16.5173L13.5766 16.5181L13.5555 16.5182L13.5344 16.5169L13.3922 16.508L13.371 16.5067L13.35 16.5039L13.2085 16.4854L13.1867 16.4826L13.1651 16.4782L13.0254 16.4498L13.0048 16.4456L12.9845 16.4401L12.8527 16.4039L12.8526 16.4041L12.7869 16.3869L12.7493 16.3808L12.7106 16.3781L12.6718 16.379L12.6337 16.3836L12.5951 16.3918L12.5587 16.4032L12.5226 16.4184L12.4872 16.4372L12.4553 16.4581L12.4244 16.483L12.3953 16.5111L12.3693 16.5413L12.346 16.5739L12.3149 16.6275L12.3161 16.6282L12.2449 16.7534L12.235 16.7709L12.2239 16.7878L12.145 16.9079L12.133 16.9263L12.1196 16.9438L12.0325 17.0582L12.02 17.0746L12.0064 17.0901L11.912 17.1984L11.898 17.2144L11.8829 17.2295L11.7815 17.331L11.7666 17.3458L11.7508 17.3596L11.6429 17.4539L11.6266 17.4682L11.6094 17.4812L11.4955 17.5677L11.4789 17.5802L11.4615 17.5917L11.3418 17.6706L11.3238 17.6824L11.3051 17.6929L11.1806 17.7632L11.1621 17.7736L11.1429 17.7828L11.0139 17.8444L10.9942 17.8538L10.974 17.8618L10.841 17.9143L10.8214 17.922L10.8014 17.9284L10.6654 17.9718L10.6451 17.9782L10.6245 17.9833L10.486 18.0173L10.465 18.0224L10.4437 18.0261L10.3032 18.0504L10.2816 18.0542L10.2598 18.0564L10.1178 18.0708L10.0974 18.0729L10.0768 18.0737L9.93429 18.0787L9.91207 18.0795L9.88984 18.0787L9.74734 18.0737L9.72676 18.0729L9.70628 18.0708L9.56428 18.0564L9.54248 18.0542L9.52088 18.0504L9.38039 18.0261L9.35912 18.0224L9.33816 18.0173L9.19967 17.9833L9.17901 17.9782L9.15874 17.9718L9.02275 17.9284L9.00271 17.922L8.98315 17.9143L8.85017 17.8618L8.82989 17.8538L8.81021 17.8444L8.68124 17.7828L8.66203 17.7736L8.64349 17.7632L8.51903 17.6929L8.50031 17.6824L8.48237 17.6706L8.36266 17.5917L8.34526 17.5802L8.32867 17.5677L8.21472 17.4812L8.19752 17.4682L8.18126 17.4539L8.07332 17.3596L8.0575 17.3458L8.04265 17.331L7.94122 17.2295L7.92613 17.2144L7.9121 17.1984L7.81768 17.0901L7.80413 17.0746L7.79164 17.0582L7.70449 16.9438L7.69115 16.9263L7.67908 16.9079L7.60019 16.7878L7.58914 16.7709L7.57919 16.7534L7.51053 16.6325L7.5097 16.633L7.47548 16.5739L7.45216 16.5413L7.42619 16.5111L7.39707 16.483L7.36614 16.4581L7.33428 16.4372L7.29883 16.4184L7.26278 16.4032L7.22632 16.3918L7.18776 16.3836L7.14966 16.379L7.11089 16.3781L7.07212 16.3808L7.03453 16.3869L6.97644 16.4022L6.97647 16.4023L6.83873 16.4401L6.81846 16.4456L6.79787 16.4498L6.65813 16.4782L6.63656 16.4826L6.61474 16.4854L6.47324 16.5039L6.45223 16.5067L6.43108 16.508L6.28883 16.5169L6.26773 16.5182L6.24659 16.5181L6.10409 16.5173L6.0824 16.5172L6.06076 16.5156L5.91851 16.5049L5.89735 16.5034L5.87634 16.5003L5.73509 16.4801L5.71331 16.4769L5.6918 16.4723L5.55231 16.4421L5.53166 16.4376L5.51135 16.4318L5.37411 16.3922L5.3539 16.3864L5.33412 16.3792L5.19988 16.3306L5.17955 16.3232L5.15979 16.3144L5.02931 16.2566L5.00938 16.2478L4.99012 16.2376L4.86365 16.1707L4.84548 16.161L4.82797 16.1503L4.70626 16.0752L4.68789 16.0639L4.67034 16.0513L4.55389 15.9679L4.53633 15.9553L4.51968 15.9416L4.40924 15.8503L4.39301 15.8369L4.37772 15.8224L4.27353 15.7238L4.25831 15.7094L4.24409 15.694L4.14667 15.5885L4.13243 15.5731L4.11925 15.5567L4.02909 15.4449L4.01563 15.4282L4.00334 15.4106L3.92094 15.2927L3.9087 15.2752L3.89768 15.2569L3.82355 15.1337L3.81308 15.1163L3.80377 15.0983L3.73765 14.9702L3.72781 14.9511L3.71929 14.9314L3.66219 14.7994L3.65376 14.7799L3.64668 14.7598L3.5986 14.6239L3.59172 14.6045L3.58613 14.5846L3.54707 14.4457L3.54147 14.4258L3.5372 14.4056L3.5074 14.2644L3.50296 14.2433L3.49998 14.222L3.47994 14.079L3.47706 14.0585L3.47555 14.0378L3.46504 13.8938L3.46349 13.8727L3.46338 13.8515L3.46263 13.7073L3.46253 13.6867L3.46378 13.6661L3.47254 13.522L3.4738 13.5014L3.47642 13.4809L3.4947 13.3376L3.49742 13.3163L3.50161 13.2952L3.52965 13.1537L3.53365 13.1336L3.53896 13.1137L3.57628 12.9743L3.577 12.9745L3.59253 12.9137L3.59896 12.8736L3.6017 12.8323L3.60075 12.7909L3.59605 12.7502L3.58751 12.7093L3.57576 12.6707L3.56018 12.6328L3.54103 12.5959L3.51988 12.5629L3.49497 12.5312L3.46724 12.5016L3.43759 12.4755L3.40588 12.4523L3.35182 12.4202L3.3515 12.4208L3.22778 12.3488L3.21018 12.3385L3.19329 12.3272L3.07458 12.2473L3.05618 12.2349L3.03871 12.2213L2.92576 12.133L2.90944 12.1203L2.894 12.1065L2.78706 12.0109L2.77113 11.9967L2.7562 11.9814L2.65603 11.8787L2.64139 11.8637L2.62779 11.8477L2.53462 11.7384L2.52069 11.7221L2.5079 11.7048L2.4225 11.5895L2.41022 11.5729L2.39905 11.5555L2.32117 11.4343L2.30968 11.4164L2.29944 11.3978L2.23006 11.2718L2.21994 11.2534L2.21108 11.2344L2.15022 11.1038L2.14117 11.0844L2.13346 11.0644L2.08162 10.9298L2.07421 10.9105L2.06808 10.8908L2.02526 10.7532L2.01907 10.7333L2.01422 10.713L1.98066 10.5728L1.97575 10.5523L1.97223 10.5315L1.94819 10.3892L1.94462 10.3681L1.94251 10.3468L1.92823 10.2031L1.92625 10.1831L1.92555 10.163L1.92054 10.0187L1.91979 9.99706L1.92054 9.97537L1.92555 9.83111L1.92625 9.81103L1.92823 9.79104L1.94251 9.64728L1.94462 9.62598L1.94819 9.60488L1.97223 9.46264L1.97575 9.44184L1.98066 9.42132L2.01422 9.28112L2.01907 9.26085L2.02526 9.24096L2.06808 9.10329L2.07421 9.08359L2.08162 9.06434L2.13346 8.92971L2.14117 8.90971L2.15022 8.89027L2.21108 8.7597L2.21994 8.74068L2.23006 8.72231L2.29944 8.5963L2.30968 8.57769L2.32117 8.55982L2.39905 8.43863L2.41022 8.42126L2.4225 8.40466L2.5079 8.2893L2.52068 8.27203L2.53462 8.25568L2.62779 8.14641L2.64139 8.13046L2.65603 8.11545L2.7562 8.01277L2.77113 7.99747L2.78706 7.98323L2.894 7.88764L2.90944 7.87384L2.92576 7.8611L3.03871 7.77286L3.05618 7.75921L3.07458 7.74684L3.19329 7.66697L3.21018 7.65561L3.22778 7.64536L3.3515 7.57336L3.35182 7.57391L3.40588 7.5418L3.43759 7.51859L3.46723 7.49248L3.49497 7.46293L3.51988 7.43123L3.54103 7.39824L3.56018 7.3613L3.57576 7.3234L3.58751 7.28479L3.59605 7.24386L3.60075 7.20322L3.6017 7.16184L3.59896 7.12049L3.59253 7.08042L3.577 7.01963Z" fill="#151515"/>
<path d="M12.1989 9.80125C12.1989 11.144 11.1147 12.2283 9.78245 12.2283C8.45022 12.2283 7.36597 11.144 7.36597 9.80125C7.36597 8.45848 8.45022 7.37421 9.78245 7.37421C11.1147 7.37421 12.1989 8.45848 12.1989 9.80125Z" stroke="#151515" stroke-width="1.5"/>
</svg>
