<svg width="20" height="20" viewBox="0 0 20 20" fill="none" xmlns="http://www.w3.org/2000/svg">
<path d="M13.0667 6.62164C6.88674 6.86823 3.66149 12.5451 2.66501 15.8144C2.59173 16.0548 2.776 16.2895 3.02733 16.2895C3.17973 16.2895 3.318 16.1974 3.3829 16.0595C5.70171 11.1324 10.9167 10.2532 13.1355 10.4416C13.3391 10.4589 13.4854 10.634 13.4854 10.8384V12.4008C13.4854 12.7692 13.9283 12.9564 14.1925 12.6997L17.2168 9.76104C17.3624 9.61959 17.3849 9.39384 17.27 9.22648L14.2457 4.81852C14.0141 4.48095 13.4854 4.64486 13.4854 5.05425V6.19667C13.4854 6.42679 13.2967 6.61247 13.0667 6.62164Z" fill="#151515" stroke="#151515" stroke-width="1.5" stroke-linecap="round" stroke-linejoin="round"/>
</svg>
