<svg width="20" height="20" viewBox="0 0 20 20" fill="none" xmlns="http://www.w3.org/2000/svg">
<path d="M17.3834 4.28397C17.3834 5.59933 16.3171 6.66565 15.0017 6.66565C13.6864 6.66565 12.6201 5.59933 12.6201 4.28397C12.6201 2.9686 13.6864 1.90228 15.0017 1.90228C16.3171 1.90228 17.3834 2.9686 17.3834 4.28397Z" fill="#151515"/>
<path d="M17.3834 15.716C17.3834 17.0314 16.3171 18.0977 15.0017 18.0977C13.6864 18.0977 12.6201 17.0314 12.6201 15.716C12.6201 14.4007 13.6864 13.3344 15.0017 13.3344C16.3171 13.3344 17.3834 14.4007 17.3834 15.716Z" fill="#151515"/>
<path d="M7.38006 10C7.38006 11.3154 6.31375 12.3817 4.99838 12.3817C3.68301 12.3817 2.6167 11.3154 2.6167 10C2.6167 8.68463 3.68301 7.61832 4.99838 7.61832C6.31375 7.61832 7.38006 8.68463 7.38006 10Z" fill="#151515"/>
<path d="M15.0017 4.28397L5.19295 9.63421C4.90343 9.79214 4.90343 10.2079 5.19295 10.3658L15.0017 15.716" stroke="#151515" stroke-width="1.5" stroke-linecap="round" stroke-linejoin="round"/>
</svg>
