<svg width="20" height="20" viewBox="0 0 20 20" fill="none" xmlns="http://www.w3.org/2000/svg">
<path d="M7.91667 10.1001L6.25 13.0168M7.91667 10.1001H6.25C5.78977 10.1001 5.41667 9.727 5.41667 9.26676V4.26676M7.91667 10.1001H9.16667H12.9167H14.0683C14.3839 10.1001 14.6725 9.92176 14.8137 9.63944L16.897 5.47277C17.174 4.91869 16.7711 4.26676 16.1516 4.26676H12.9167H9.16667H5.41667M6.25 13.0168H15M6.25 13.0168H5.41667M5.41667 4.26676L4.81367 3.06075C4.67251 2.77843 4.38395 2.6001 4.06831 2.6001H2.91667" stroke="#151515" stroke-width="1.5" stroke-linecap="round"/>
<path d="M13.25 14.8999C13.25 15.8664 14.0335 16.6499 15 16.6499C15.9665 16.6499 16.75 15.8664 16.75 14.8999C16.75 13.9334 15.9665 13.1499 15 13.1499C14.0335 13.1499 13.25 13.9334 13.25 14.8999Z" stroke="#151515" stroke-width="1.5"/>
<path d="M3.25 14.8999C3.25 15.8664 4.0335 16.6499 5 16.6499C5.9665 16.6499 6.75 15.8664 6.75 14.8999C6.75 13.9334 5.9665 13.1499 5 13.1499C4.0335 13.1499 3.25 13.9334 3.25 14.8999Z" stroke="#151515" stroke-width="1.5"/>
</svg>
