<svg width="20" height="20" viewBox="0 0 20 20" fill="none" xmlns="http://www.w3.org/2000/svg">
<path d="M12.0833 10.8333L13.75 13.75M12.0833 10.8333H13.75C14.2102 10.8333 14.5833 10.4602 14.5833 10V5.00001M12.0833 10.8333H10.8333H7.08333H5.93169C5.61605 10.8333 5.3275 10.655 5.18634 10.3727L3.10301 6.20602C2.82596 5.65194 3.22888 5.00001 3.84836 5.00001H7.08333H10.8333H14.5833M13.75 13.75H5M13.75 13.75H14.5833M14.5833 5.00001L15.1863 3.794C15.3275 3.51168 15.616 3.33334 15.9317 3.33334H17.0833" stroke="#151515" stroke-width="1.5" stroke-linecap="round"/>
<path d="M5 13.8831C5.9665 13.8831 6.75 14.6667 6.75 15.6331C6.75 16.5996 5.96649 17.3831 5 17.3831C4.0335 17.3831 3.25 16.5996 3.25 15.6331C3.25 14.6667 4.0335 13.8831 5 13.8831Z" stroke="#151515" stroke-width="1.5"/>
<path d="M15 13.8831C15.9665 13.8831 16.75 14.6666 16.75 15.6331C16.75 16.5996 15.9665 17.3831 15 17.3831C14.0335 17.3831 13.25 16.5996 13.25 15.6331C13.25 14.6666 14.0335 13.8831 15 13.8831Z" stroke="#151515" stroke-width="1.5"/>
</svg>
