<svg width="20" height="20" viewBox="0 0 20 20" fill="none" xmlns="http://www.w3.org/2000/svg">
<path d="M9.60547 3.25C11.3176 3.25009 12.8087 4.40937 13.3643 6.08105L13.5518 6.64355L14.1426 6.5918C14.2081 6.58605 14.2746 6.58302 14.3418 6.58301C15.6339 6.58301 16.75 7.70153 16.75 9.16699C16.7498 10.6323 15.6339 11.75 14.3418 11.75H5.6582C4.36615 11.75 3.25017 10.6323 3.25 9.16699C3.25 7.85909 4.14516 6.81952 5.25488 6.61914L5.69727 6.53906L5.83594 6.1123C6.38304 4.4239 7.8826 3.25 9.60547 3.25Z" stroke="#151515" stroke-width="1.5"/>
<circle cx="5.83333" cy="15" r="0.833333" fill="#151515"/>
<circle cx="14.1667" cy="15" r="0.833333" fill="#151515"/>
<circle cx="9.99996" cy="15" r="0.833333" fill="#151515"/>
<circle cx="11.6667" cy="17.5" r="0.833333" fill="#151515"/>
<circle cx="7.49996" cy="17.5" r="0.833333" fill="#151515"/>
</svg>
