<svg width="20" height="20" viewBox="0 0 20 20" fill="none" xmlns="http://www.w3.org/2000/svg">
<path d="M13.3647 6.08141L13.5516 6.644L14.1421 6.59208C14.2079 6.5863 14.2746 6.58333 14.3421 6.58333C15.6343 6.58333 16.75 7.7012 16.75 9.16666C16.75 10.6321 15.6343 11.75 14.3421 11.75H5.65789C4.36574 11.75 3.25 10.6321 3.25 9.16666C3.25 7.85859 4.14542 6.81937 5.25535 6.61918L5.69728 6.53947L5.8357 6.11228C6.38279 4.42385 7.88238 3.25 9.60526 3.25C11.3176 3.25 12.8093 4.40942 13.3647 6.08141Z" stroke="#151515" stroke-width="1.5"/>
<circle cx="5.83333" cy="15" r="0.833333" fill="#151515"/>
<circle cx="14.1667" cy="15" r="0.833333" fill="#151515"/>
<circle cx="9.99996" cy="15" r="0.833333" fill="#151515"/>
<circle cx="11.6667" cy="17.5" r="0.833333" fill="#151515"/>
<circle cx="7.49996" cy="17.5" r="0.833333" fill="#151515"/>
</svg>
