<svg width="20" height="20" viewBox="0 0 20 20" fill="none" xmlns="http://www.w3.org/2000/svg">
<path d="M13.252 17.2142L6.74805 17.2142C5.78155 17.2142 4.99805 16.4307 4.99805 15.4642L4.99805 4.53552C4.99817 3.56913 5.78163 2.78552 6.74805 2.78552L13.252 2.78552C14.2184 2.78552 15.0018 3.56913 15.002 4.53552L15.002 15.4642C15.002 16.4307 14.2185 17.2142 13.252 17.2142Z" stroke="#151515" stroke-width="1.5"/>
<path d="M9.99963 14.5595C8.45912 14.5593 7.21057 13.31 7.21057 11.7695C7.21078 10.2291 8.45925 8.9806 9.99963 8.98039C11.5402 8.98039 12.7895 10.2289 12.7897 11.7695C12.7897 13.3101 11.5403 14.5595 9.99963 14.5595Z" stroke="#151515" stroke-width="1.5"/>
<path d="M10.0001 6.59526C9.68132 6.59526 9.4231 6.33688 9.42297 6.01811C9.42297 5.69924 9.68125 5.44096 10.0001 5.44096C10.3189 5.44109 10.5773 5.69931 10.5773 6.01811C10.5771 6.33681 10.3188 6.59514 10.0001 6.59526Z" fill="#151515" stroke="#151515" stroke-width="1.5"/>
<path d="M10.0002 11.9048C9.92578 11.9048 9.86556 11.8444 9.86548 11.77C9.86548 11.6955 9.92573 11.6352 10.0002 11.6352C10.0747 11.6353 10.135 11.6955 10.135 11.77C10.1349 11.8444 10.0746 11.9047 10.0002 11.9048Z" fill="#151515" stroke="#151515" stroke-width="1.5"/>
</svg>
