<svg width="20" height="20" viewBox="0 0 20 20" fill="none" xmlns="http://www.w3.org/2000/svg">
<path d="M10.8333 13.8215V6.17852C10.8333 5.4361 9.93571 5.06429 9.41074 5.58926L7.74408 7.25593C7.5878 7.41221 7.37583 7.50001 7.15482 7.50001H5.83333C5.3731 7.50001 5 7.8731 5 8.33334V11.6667C5 12.1269 5.3731 12.5 5.83333 12.5H7.15482C7.37583 12.5 7.5878 12.5878 7.74408 12.7441L9.41074 14.4107C9.93571 14.9357 10.8333 14.5639 10.8333 13.8215Z" stroke="#151515" stroke-width="1.5" stroke-linecap="round"/>
<path d="M12.8781 7.70865C13.4539 8.33925 13.8051 9.17847 13.8051 10.0997C13.8051 11.0162 13.4575 11.8515 12.887 12.481" stroke="#151515" stroke-width="1.5" stroke-linecap="round"/>
</svg>
