<svg width="20" height="20" viewBox="0 0 20 20" fill="none" xmlns="http://www.w3.org/2000/svg">
<path d="M9.16671 13.8215V6.17852C9.16671 5.4361 8.26909 5.06429 7.74412 5.58926L6.07745 7.25593C5.92117 7.41221 5.70921 7.50001 5.4882 7.50001H4.16671C3.70647 7.50001 3.33337 7.8731 3.33337 8.33334V11.6667C3.33337 12.1269 3.70647 12.5 4.16671 12.5H5.4882C5.70921 12.5 5.92117 12.5878 6.07745 12.7441L7.74412 14.4107C8.26909 14.9357 9.16671 14.5639 9.16671 13.8215Z" stroke="#151515" stroke-width="1.5" stroke-linecap="round"/>
<path d="M13.7109 5.27522C14.8512 6.52384 15.5466 8.18556 15.5466 10.0097C15.5466 11.8244 14.8583 13.4784 13.7286 14.7248" stroke="#151515" stroke-width="1.5" stroke-linecap="round"/>
<path d="M11.3184 7.66142C11.8942 8.29202 12.2454 9.13125 12.2454 10.0525C12.2454 10.969 11.8978 11.8043 11.3273 12.4338" stroke="#151515" stroke-width="1.5" stroke-linecap="round"/>
</svg>
