<svg width="20" height="20" viewBox="0 0 20 20" fill="none" xmlns="http://www.w3.org/2000/svg">
<path d="M8.33333 13.8215V6.17852C8.33333 5.4361 7.43571 5.06429 6.91074 5.58926L5.24408 7.25593C5.0878 7.41221 4.87583 7.50001 4.65482 7.50001H3.33333C2.8731 7.50001 2.5 7.8731 2.5 8.33334V11.6667C2.5 12.1269 2.8731 12.5 3.33333 12.5H4.65482C4.87583 12.5 5.0878 12.5878 5.24408 12.7441L6.91074 14.4107C7.43571 14.9357 8.33333 14.5639 8.33333 13.8215Z" stroke="#151515" stroke-width="1.5" stroke-linecap="round"/>
<path d="M15.0934 2.71027C16.849 4.63277 17.9198 7.19133 17.9198 9.99999C17.9198 12.7941 16.86 15.3407 15.1206 17.2598" stroke="#151515" stroke-width="1.5" stroke-linecap="round"/>
<path d="M12.8602 5.27522C14.0004 6.52384 14.6959 8.18556 14.6959 10.0097C14.6959 11.8244 14.0076 13.4784 12.8779 14.7248" stroke="#151515" stroke-width="1.5" stroke-linecap="round"/>
<path d="M10.4678 7.66142C11.0436 8.29202 11.3948 9.13125 11.3948 10.0525C11.3948 10.969 11.0472 11.8043 10.4767 12.4338" stroke="#151515" stroke-width="1.5" stroke-linecap="round"/>
</svg>
