<svg width="20" height="20" viewBox="0 0 20 20" fill="none" xmlns="http://www.w3.org/2000/svg">
<path d="M9.99996 13.8215V6.17852C9.99996 5.4361 9.10234 5.06429 8.57737 5.58926L6.9107 7.25593C6.75442 7.41221 6.54246 7.50001 6.32145 7.50001H4.99996C4.53972 7.50001 4.16663 7.8731 4.16663 8.33334V11.6667C4.16663 12.1269 4.53972 12.5 4.99996 12.5H6.32145C6.54246 12.5 6.75442 12.5878 6.9107 12.7441L8.57737 14.4107C9.10234 14.9357 9.99996 14.5639 9.99996 13.8215Z" stroke="#151515" stroke-width="1.5" stroke-linecap="round"/>
<path d="M13.78 11.2794V6.66667" stroke="#151515" stroke-width="1.5" stroke-linecap="round"/>
<path d="M14.6134 13.8317C14.6134 14.2919 14.2403 14.665 13.7801 14.665C13.3199 14.665 12.9468 14.2919 12.9468 13.8317C12.9468 13.3715 13.3199 12.9984 13.7801 12.9984C14.2403 12.9984 14.6134 13.3715 14.6134 13.8317Z" fill="#151515"/>
</svg>
