<svg width="20" height="20" viewBox="0 0 20 20" fill="none" xmlns="http://www.w3.org/2000/svg">
<path d="M15.002 15.4642C15.002 16.4307 14.2185 17.2142 13.252 17.2142L6.74805 17.2142C5.78155 17.2142 4.99805 16.4307 4.99805 15.4642L4.99805 4.53575C4.99805 3.56926 5.78155 2.78576 6.74805 2.78576L13.252 2.78576C14.2185 2.78576 15.002 3.56926 15.002 4.53576L15.002 15.4642Z" stroke="#151515" stroke-width="1.5"/>
<path d="M7.21035 11.7698C7.21035 10.2291 8.45932 8.98017 10 8.98017C11.5407 8.98017 12.7897 10.2291 12.7897 11.7698C12.7897 13.3105 11.5407 14.5595 10 14.5595C8.45932 14.5595 7.21035 13.3105 7.21035 11.7698Z" stroke="#151515" stroke-width="1.5"/>
<path d="M9.42252 6.01789C9.42252 5.69901 9.68102 5.44051 9.9999 5.44051C10.3188 5.44051 10.5773 5.69901 10.5773 6.01789C10.5773 6.33676 10.3188 6.59526 9.9999 6.59526C9.68102 6.59526 9.42252 6.33676 9.42252 6.01789Z" fill="#151515" stroke="#151515" stroke-width="1.5"/>
<path d="M9.86518 11.7698C9.86518 11.6953 9.92558 11.6349 10.0001 11.6349C10.0746 11.6349 10.135 11.6953 10.135 11.7698C10.135 11.8444 10.0746 11.9048 10.0001 11.9048C9.92558 11.9048 9.86518 11.8444 9.86518 11.7698Z" fill="#151515" stroke="#151515" stroke-width="1.5"/>
</svg>
