<svg width="20" height="20" viewBox="0 0 20 20" fill="none" xmlns="http://www.w3.org/2000/svg">
<path d="M15.1655 5.02417C15.1655 5.50735 14.7738 5.89905 14.2906 5.89905C13.8074 5.89905 13.4157 5.50735 13.4157 5.02417C13.4157 4.54098 13.8074 4.14928 14.2906 4.14928C14.7738 4.14928 15.1655 4.54098 15.1655 5.02417Z" fill="#151515" stroke="#151515" stroke-width="1.5"/>
<path d="M11.4839 3.838H4.1665" stroke="#151515" stroke-width="1.5" stroke-linecap="round" stroke-linejoin="round"/>
<path d="M8.78803 6.14876H4.93677" stroke="#151515" stroke-width="1.5" stroke-linecap="round" stroke-linejoin="round"/>
<path d="M6.47736 8.45952H2.6261" stroke="#151515" stroke-width="1.5" stroke-linecap="round" stroke-linejoin="round"/>
<path d="M15.2057 5.02417C15.2057 5.50735 14.814 5.89905 14.3309 5.89905C13.8477 5.89905 13.456 5.50735 13.456 5.02417C13.456 4.54098 13.8477 4.14928 14.3309 4.14928C14.814 4.14928 15.2057 4.54098 15.2057 5.02417Z" fill="#151515" stroke="#151515" stroke-width="1.5"/>
<path d="M12.7514 7.87092C13.3501 7.87092 14.1138 8.49614 14.1138 8.49614C13.3692 10.0873 12.7514 10.6355 12.7514 11.9019H11.0936C12.3919 9.22768 12.0222 9.30808 12.7514 7.87092Z" fill="#151515"/>
<path d="M14.1138 8.49614C14.1138 8.49614 13.3501 7.87092 12.7514 7.87092M14.1138 8.49614C13.3692 10.0873 12.7514 10.6355 12.7514 11.9019M14.1138 8.49614L14.9699 11.5176L17.3739 10.0112M12.7514 7.87092C12.0222 9.30808 12.3919 9.22768 11.0936 11.9019M12.7514 7.87092H10.5466L9.20037 10.2355M11.0936 11.9019C10.0916 13.6725 7.95752 16.2071 7.95752 16.2071M11.0936 11.9019C11.6279 11.9019 12.2171 11.9019 12.7514 11.9019M12.7514 11.9019C13.7867 13.6725 12.2344 16.6007 12.2344 16.6007" stroke="#151515" stroke-width="1.5" stroke-linecap="round" stroke-linejoin="round"/>
</svg>
