<svg width="20" height="20" viewBox="0 0 20 20" fill="none" xmlns="http://www.w3.org/2000/svg">
<path d="M9.7532 3.07445C9.84949 2.86261 10.1504 2.86261 10.2467 3.07445L12.2303 7.43846C12.2695 7.52476 12.351 7.58429 12.4451 7.59546L17.2252 8.16252C17.4618 8.19058 17.5497 8.48824 17.3663 8.6403L13.7948 11.6021C13.7177 11.666 13.6822 11.7672 13.7023 11.8652L14.7265 16.8517C14.7744 17.0847 14.5203 17.2619 14.3182 17.1365L10.1428 14.5468C10.0553 14.4925 9.94459 14.4925 9.85708 14.5468L5.6817 17.1366C5.47956 17.2619 5.22549 17.0847 5.27335 16.8517L6.29746 11.8652C6.3176 11.7672 6.28204 11.666 6.20498 11.6021L2.63358 8.6403C2.45022 8.48824 2.53812 8.19058 2.77467 8.16252L7.5547 7.59546C7.64882 7.58429 7.73028 7.52476 7.76951 7.43846L9.7532 3.07445Z" stroke="#151515" stroke-width="1.5" stroke-linejoin="round"/>
</svg>
