<svg width="20" height="20" viewBox="0 0 20 20" fill="none" xmlns="http://www.w3.org/2000/svg">
<circle cx="10" cy="9.99998" r="4.24731" fill="#151515"/>
<path fill-rule="evenodd" clip-rule="evenodd" d="M10.625 2.56721C10.625 2.22203 10.3452 1.94221 10 1.94221C9.65482 1.94221 9.375 2.22203 9.375 2.56721L9.375 4.67793C9.58003 4.65411 9.7886 4.64187 10 4.64187C10.2114 4.64187 10.42 4.65411 10.625 4.67793L10.625 2.56721ZM10.625 15.3222L10.625 17.4328C10.625 17.778 10.3452 18.0578 10 18.0578C9.65482 18.0578 9.375 17.778 9.375 17.4328L9.375 15.3222C9.58003 15.346 9.7886 15.3583 10 15.3583C10.2114 15.3583 10.42 15.346 10.625 15.3222Z" fill="#151515"/>
<path fill-rule="evenodd" clip-rule="evenodd" d="M17.4329 10.625C17.778 10.625 18.0579 10.3452 18.0579 10C18.0579 9.65483 17.778 9.375 17.4329 9.375L15.3221 9.375C15.3459 9.58005 15.3582 9.78863 15.3582 10.0001C15.3582 10.2115 15.3459 10.42 15.3221 10.625L17.4329 10.625ZM4.67783 10.625C4.65401 10.42 4.64177 10.2115 4.64177 10.0001C4.64177 9.78863 4.65402 9.58005 4.67784 9.375L2.56727 9.375C2.22209 9.375 1.94227 9.65483 1.94227 10C1.94227 10.3452 2.22209 10.625 2.56727 10.625L4.67783 10.625Z" fill="#151515"/>
<path fill-rule="evenodd" clip-rule="evenodd" d="M15.6979 5.18607C15.942 4.94199 15.942 4.54627 15.6979 4.30219C15.4538 4.05811 15.0581 4.05811 14.814 4.30219L13.3214 5.7948C13.4832 5.92293 13.6393 6.06174 13.7888 6.21123C13.9383 6.36073 14.0771 6.51686 14.2053 6.67868L15.6979 5.18607ZM6.67863 14.2053C6.51681 14.0772 6.36067 13.9384 6.21118 13.7889C6.06169 13.6394 5.92288 13.4833 5.79474 13.3214L4.30244 14.8137C4.05836 15.0578 4.05836 15.4535 4.30244 15.6976C4.54652 15.9417 4.94224 15.9417 5.18632 15.6976L6.67863 14.2053Z" fill="#151515"/>
<path fill-rule="evenodd" clip-rule="evenodd" d="M5.1862 4.3022C4.94212 4.05812 4.5464 4.05812 4.30232 4.3022C4.05824 4.54628 4.05824 4.94201 4.30232 5.18608L5.79492 6.67868C5.92306 6.51685 6.06189 6.3607 6.2114 6.21119C6.36088 6.06171 6.51699 5.92291 6.67879 5.79479L5.1862 4.3022ZM14.2054 13.3214C14.0773 13.4832 13.9385 13.6393 13.789 13.7888C13.6395 13.9383 13.4834 14.0772 13.3215 14.2053L14.8139 15.6976C15.058 15.9417 15.4537 15.9417 15.6978 15.6976C15.9418 15.4536 15.9418 15.0578 15.6978 14.8138L14.2054 13.3214Z" fill="#151515"/>
</svg>
