<svg width="20" height="20" viewBox="0 0 20 20" fill="none" xmlns="http://www.w3.org/2000/svg">
<path d="M8.51672 8.36295C10.0766 8.36295 11.4387 9.41963 11.9464 10.9479L12.1329 11.5104L12.7238 11.4586C12.7831 11.4534 12.8435 11.4508 12.9044 11.4508C14.0678 11.451 15.0792 12.4582 15.0792 13.7878C15.0792 15.1173 14.0678 16.1255 12.9044 16.1256H4.86047C3.69704 16.1256 2.68567 15.1173 2.68567 13.7878C2.68568 12.6015 3.49732 11.6636 4.49719 11.4831L4.93958 11.403L5.07825 10.9762C5.57832 9.43291 6.94725 8.36295 8.51672 8.36295Z" stroke="#151515" stroke-width="1.5"/>
<path fill-rule="evenodd" clip-rule="evenodd" d="M9.03473 5.10562C8.80807 4.92365 8.4768 4.95988 8.29483 5.18654C8.11285 5.4132 8.14908 5.74447 8.37575 5.92644L9.50088 6.82974C9.589 6.68008 9.68896 6.53491 9.80089 6.39548C9.91277 6.25613 10.0328 6.12723 10.1598 6.00889L9.03473 5.10562ZM15.7592 10.5043C15.6711 10.6538 15.5712 10.7989 15.4593 10.9383C15.3474 11.0777 15.2273 11.2067 15.1002 11.3251L16.225 12.2281C16.4517 12.4101 16.783 12.3739 16.9649 12.1472C17.1469 11.9205 17.1107 11.5893 16.884 11.4073L15.7592 10.5043Z" fill="#151515"/>
<path fill-rule="evenodd" clip-rule="evenodd" d="M18.1561 8.06255C18.1877 8.3515 17.9791 8.61136 17.6902 8.64296L16.256 8.79981C16.2621 8.62633 16.2559 8.45027 16.2364 8.27263C16.217 8.09489 16.185 7.92157 16.1415 7.75343L17.5757 7.59658C17.8647 7.56498 18.1245 7.7736 18.1561 8.06255Z" fill="#151515"/>
<path fill-rule="evenodd" clip-rule="evenodd" d="M12.0255 3.1409C12.3145 3.1093 12.5743 3.31792 12.6059 3.60687L12.7628 5.04112C12.5893 5.03499 12.4133 5.04125 12.2356 5.06068C12.0579 5.08011 11.8845 5.11208 11.7164 5.15561L11.5595 3.72131C11.5279 3.43236 11.7366 3.1725 12.0255 3.1409Z" fill="#151515"/>
<path fill-rule="evenodd" clip-rule="evenodd" d="M16.1102 4.33194C16.3368 4.51391 16.3731 4.84518 16.1911 5.07184L15.2879 6.19683C15.1696 6.06982 15.0407 5.94976 14.9013 5.83788C14.7619 5.72595 14.6167 5.62599 14.4671 5.53787L15.3703 4.41286C15.5523 4.18619 15.8835 4.14996 16.1102 4.33194Z" fill="#151515"/>
<path fill-rule="evenodd" clip-rule="evenodd" d="M9.87486 7.83917C10.1975 6.76708 11.1342 5.93743 12.3172 5.80805C13.8962 5.63537 15.3161 6.77537 15.4888 8.35431C15.6084 9.44812 15.0981 10.4656 14.2483 11.0451C13.8458 10.8248 13.3887 10.7004 12.9041 10.7004C12.8212 10.7004 12.7391 10.7041 12.658 10.7112C12.6332 10.6365 12.6066 10.5627 12.5784 10.4898C12.6606 10.492 12.744 10.4887 12.8281 10.4795C13.8292 10.37 14.5519 9.46979 14.4424 8.46875C14.333 7.46771 13.4327 6.74495 12.4317 6.85443C11.6191 6.9433 10.9899 7.55319 10.8403 8.3151C10.5408 8.11732 10.2171 7.95665 9.87486 7.83917Z" fill="#151515"/>
</svg>
