<svg width="20" height="20" viewBox="0 0 20 20" fill="none" xmlns="http://www.w3.org/2000/svg">
<path fill-rule="evenodd" clip-rule="evenodd" d="M5.16227 10.4304C4.93892 10.2375 4.9459 9.88906 5.17681 9.70523L7.10041 8.17379C7.33736 7.98514 7.33736 7.62516 7.10041 7.43651L5.17681 5.90507C4.94591 5.72124 4.93892 5.3728 5.16227 5.17986L5.38456 4.98784C5.55607 4.83968 5.80875 4.83462 5.98607 4.97578L8.83458 7.24357C9.2179 7.54874 9.2179 8.06156 8.83458 8.36673L5.98606 10.6345C5.80875 10.7757 5.55607 10.7706 5.38456 10.6225L5.16227 10.4304Z" fill="#151515"/>
<path d="M2.53748 4.4264C2.53748 3.38319 3.38316 2.53751 4.42636 2.53751H15.5736C16.6168 2.53751 17.4625 3.38319 17.4625 4.42639V15.5736C17.4625 16.6168 16.6168 17.4625 15.5736 17.4625H4.42637C3.38316 17.4625 2.53748 16.6168 2.53748 15.5736V4.4264Z" stroke="#151515" stroke-width="1.5"/>
<path d="M8.24414 11.1746C8.24414 10.9138 8.45556 10.7024 8.71636 10.7024H12.7469C13.0077 10.7024 13.2191 10.9138 13.2191 11.1746V11.7226C13.2191 11.9834 13.0077 12.1949 12.7469 12.1949H8.71636C8.45556 12.1949 8.24414 11.9834 8.24414 11.7226V11.1746Z" fill="#151515"/>
</svg>
