<svg width="20" height="20" viewBox="0 0 20 20" fill="none" xmlns="http://www.w3.org/2000/svg">
<path d="M8.06927 11.5902C8.26913 9.88837 8.69377 8.61567 9.93576 8.61567C11.1777 8.61567 11.9357 9.56028 11.9357 11.1611C11.9357 12.7618 11.2458 15.419 10.6694 17.0481" stroke="#151515" stroke-width="1.5" stroke-linecap="round"/>
<path d="M10.0117 10.9236C9.89903 12.3415 9.50464 15.3858 8.82855 16.2197" stroke="#151515" stroke-width="1.5" stroke-linecap="round"/>
<path fill-rule="evenodd" clip-rule="evenodd" d="M4.54511 15.7184C4.82685 15.987 5.12835 16.235 5.4472 16.46C5.52781 16.3004 5.60746 16.1344 5.6852 15.9641C6.09403 15.068 6.4839 13.9751 6.70719 12.885C6.77018 12.5774 6.57193 12.277 6.26438 12.214C5.95683 12.1511 5.65645 12.3493 5.59346 12.6569C5.39066 13.647 5.03166 14.6576 4.6509 15.4922C4.61552 15.5697 4.58022 15.6452 4.54511 15.7184Z" fill="#151515"/>
<path fill-rule="evenodd" clip-rule="evenodd" d="M5.9621 16.7943C6.28669 16.9877 6.62626 17.1585 6.97865 17.3046C7.09868 17.046 7.21915 16.7683 7.33652 16.4848C7.72394 15.5488 8.09062 14.5162 8.31132 13.818C8.40594 13.5187 8.23999 13.1993 7.94066 13.1047C7.64132 13.0101 7.32196 13.176 7.22734 13.4753C7.01582 14.1445 6.66019 15.1462 6.2861 16.05C6.17755 16.3122 6.06855 16.5636 5.9621 16.7943Z" fill="#151515"/>
<path fill-rule="evenodd" clip-rule="evenodd" d="M3.29029 14.1808C3.51841 14.5452 3.77533 14.8896 4.05787 15.211C4.45454 14.422 4.8 13.5785 4.89751 12.92C4.9435 12.6095 4.72903 12.3205 4.41849 12.2745C4.10794 12.2285 3.81891 12.4429 3.77292 12.7535C3.71782 13.1255 3.53858 13.631 3.29029 14.1808Z" fill="#151515"/>
<path fill-rule="evenodd" clip-rule="evenodd" d="M13.0925 17.2847C13.1635 17.0331 13.2364 16.7784 13.3101 16.5211L13.3101 16.5211C13.4313 16.0983 13.5544 15.6685 13.674 15.2339C14.0909 13.719 14.4631 12.1505 14.4631 10.7845C14.4631 9.40252 14.0823 8.16117 13.3142 7.25418C12.5359 6.33522 11.4057 5.81529 10.0369 5.81529C8.6523 5.81529 7.52499 6.38365 6.75507 7.31428C5.99504 8.23294 5.61076 9.4684 5.61076 10.7845C5.61076 11.1297 5.89058 11.4095 6.23576 11.4095C6.58093 11.4095 6.86076 11.1297 6.86076 10.7845C6.86076 9.70135 7.17744 8.76471 7.71819 8.11108C8.24905 7.46942 9.02233 7.06529 10.0369 7.06529C11.0674 7.06529 11.8378 7.44508 12.3603 8.06203C12.8929 8.69094 13.2131 9.62169 13.2131 10.7845C13.2131 11.9633 12.8865 13.3846 12.4688 14.9022C12.358 15.3047 12.2405 15.715 12.1225 16.1268C11.9688 16.6634 11.8143 17.2028 11.6729 17.7314C12.1645 17.6265 12.6393 17.4761 13.0925 17.2847Z" fill="#151515"/>
<path fill-rule="evenodd" clip-rule="evenodd" d="M15.5672 15.6324C16.007 14.281 16.3321 12.7909 16.3321 11.3337C16.3321 9.05746 15.8422 7.15582 14.7754 5.81153C13.6896 4.4435 12.0763 3.74024 10.0368 3.74024C7.97226 3.74024 6.39816 4.54153 5.35862 5.91018C4.33733 7.25479 3.87848 9.08375 3.87848 11.083C3.87848 11.4282 4.1583 11.708 4.50348 11.708C4.84866 11.708 5.12848 11.4282 5.12848 11.083C5.12848 9.2532 5.55119 7.72326 6.35404 6.66625C7.13862 5.63328 8.33121 4.99024 10.0368 4.99024C11.7676 4.99024 12.9894 5.57201 13.7962 6.58861C14.6219 7.62895 15.0821 9.21153 15.0821 11.3337C15.0821 13.2542 14.4373 15.3078 13.7232 16.9848C14.4027 16.624 15.0233 16.1672 15.5672 15.6324Z" fill="#151515"/>
<path d="M2.86218 12.1494C2.51464 10.9359 2.48056 9.6541 2.76314 8.42387C3.04572 7.19364 3.63572 6.05517 4.47794 5.11497" stroke="#151515" stroke-width="1.5" stroke-linecap="round"/>
<path d="M6.40363 3.57571C7.60888 2.90396 8.97677 2.5795 10.3553 2.63836C11.7339 2.69722 13.0691 3.1371 14.2127 3.90914" stroke="#151515" stroke-width="1.5" stroke-linecap="round"/>
<path d="M16.0509 5.6755C16.7741 6.65973 17.2447 7.8064 17.4214 9.0149C17.598 10.2234 17.4754 11.4568 17.0643 12.6069" stroke="#151515" stroke-width="1.5" stroke-linecap="round"/>
</svg>
