<svg width="20" height="20" viewBox="0 0 20 20" fill="none" xmlns="http://www.w3.org/2000/svg">
<path fill-rule="evenodd" clip-rule="evenodd" d="M5.47894 2.65765C6.74083 2.05675 8.39053 1.93564 9.99999 1.93564C11.6095 1.93564 13.2592 2.05675 14.5211 2.65765C15.1685 2.96598 15.7344 3.40959 16.1336 4.04094C16.5326 4.67206 16.7335 5.44068 16.7335 6.34721L16.7334 14.2416C16.7334 14.6385 16.6002 14.9985 16.3201 15.2775C16.0631 15.5335 15.7342 15.6692 15.4333 15.7517C15.1409 15.832 14.795 15.8809 14.4265 15.9163L15.7065 18.0644L14.1794 18.0489L12.8696 16.0249C11.1246 16.1221 8.98466 16.1238 7.2263 16.0301L5.82061 18.0489H4.30298L5.6388 15.9346C5.26426 15.9057 4.91165 15.8646 4.61679 15.7917C4.30542 15.7146 3.96013 15.5822 3.6908 15.3159C3.39756 15.026 3.26654 14.6506 3.26654 14.2416L3.26655 6.3472C3.26656 5.44068 3.46741 4.67206 3.86646 4.04094C4.26565 3.40959 4.83146 2.96598 5.47894 2.65765ZM5.04396 4.78545C4.8124 5.15167 4.65969 5.64954 4.65968 6.34722L4.65967 14.2416C4.65967 14.2977 4.66805 14.3209 4.66926 14.3241C4.66926 14.3241 4.66822 14.3232 4.67025 14.3252C4.68269 14.3375 4.74788 14.389 4.9513 14.4393C5.28861 14.5227 5.73561 14.548 6.33858 14.5822C6.51286 14.592 6.70016 14.6026 6.90161 14.6156C8.81046 14.7384 11.3186 14.736 13.2037 14.6087C13.2862 14.6031 13.3664 14.5978 13.4443 14.5926C14.1706 14.5443 14.696 14.5094 15.0647 14.4083C15.254 14.3563 15.3205 14.3062 15.3359 14.2915C15.3375 14.2849 15.3403 14.2694 15.3403 14.2416L15.3403 6.34721C15.3403 5.64953 15.1876 5.15167 14.9561 4.78545C14.7246 4.41944 14.3828 4.13483 13.9221 3.91545C12.9677 3.46096 11.5989 3.32877 9.99999 3.32877C8.40104 3.32877 7.03232 3.46096 6.07789 3.91545C5.61721 4.13483 5.27538 4.41944 5.04396 4.78545Z" fill="#151515"/>
<path d="M13.715 5.94217V9.41256C13.715 9.48953 12.9936 9.54252 12.0004 9.57153C11.3998 9.58906 10.6999 9.59783 9.99998 9.59783C9.32561 9.59783 8.65125 9.58969 8.06577 9.57341C7.03858 9.54485 6.28498 9.49123 6.28498 9.41256L6.28498 5.94217C6.28501 5.08881 8.02558 4.95407 9.99998 4.95407C11.9744 4.95407 13.715 5.08881 13.715 5.94217Z" stroke="#151515" stroke-width="1.5"/>
<circle cx="7.21375" cy="12.3841" r="0.75" fill="#151515" stroke="#151515" stroke-width="1.28626"/>
<circle cx="12.7861" cy="12.3841" r="0.75" fill="#151515" stroke="#151515" stroke-width="1.28626"/>
</svg>
