<svg width="20" height="20" viewBox="0 0 20 20" fill="none" xmlns="http://www.w3.org/2000/svg">
<g clip-path="url(#clip0_1526_428)">
<path d="M11.2018 5.33334C11.616 5.33334 11.9518 4.99756 11.9518 4.58334C11.9518 4.16913 11.616 3.83334 11.2018 3.83334V5.33334ZM1.75 14.1667C1.75 14.7685 2.24081 15.0393 2.44682 15.1274C2.69392 15.233 2.97441 15.2794 3.1898 15.3034C3.41836 15.3289 3.63989 15.3358 3.79966 15.3369C3.88077 15.3374 3.94876 15.3364 3.99735 15.3352C4.02169 15.3347 4.04131 15.334 4.05543 15.3335C4.06249 15.3333 4.06818 15.3331 4.07242 15.3329C4.07454 15.3328 4.07629 15.3327 4.07767 15.3327C4.07836 15.3326 4.07895 15.3326 4.07945 15.3326C4.0797 15.3326 4.07993 15.3326 4.08013 15.3326C4.08023 15.3326 4.08036 15.3326 4.08041 15.3326C4.08054 15.3325 4.08066 15.3325 4.04602 14.5833C4.01138 13.8341 4.01148 13.8341 4.01159 13.8341C4.01162 13.8341 4.01171 13.8341 4.01177 13.8341C4.01188 13.8341 4.01196 13.8341 4.01202 13.8341C4.01215 13.8341 4.01218 13.8341 4.01213 13.8341C4.01202 13.8341 4.01156 13.8341 4.01075 13.8342C4.00913 13.8342 4.00615 13.8343 4.00189 13.8345C3.99335 13.8348 3.97976 13.8352 3.96183 13.8357C3.92587 13.8365 3.87308 13.8373 3.80924 13.8369C3.67914 13.8361 3.51416 13.8303 3.35622 13.8127C3.1851 13.7936 3.07909 13.7663 3.03631 13.7481C3.01601 13.7394 3.05735 13.7522 3.11171 13.8098C3.17928 13.8813 3.25 14.0069 3.25 14.1667H1.75ZM19.5 13.75V11.25H18V13.75H19.5ZM19.5 11.25V8.75001H18V11.25H19.5ZM18.3333 7.58334H17.0833V9.08334H18.3333V7.58334ZM17.0833 7.58334H15.4167V9.08334H17.0833V7.58334ZM13.75 7.58334H10.2365V9.08334H13.75V7.58334ZM1.75 4.99583C1.75 4.99905 1.75 5.00228 1.75 5.00553C1.75 5.00878 1.75 5.01205 1.75 5.01533C1.75 5.01862 1.75 5.02192 1.75 5.02524C1.75 5.02856 1.75 5.03189 1.75 5.03524C1.75 5.03859 1.75 5.04196 1.75 5.04535C1.75 5.04873 1.75 5.05213 1.75 5.05555C1.75 5.05897 1.75 5.0624 1.75 5.06585C1.75 5.0693 1.75 5.07277 1.75 5.07626C1.75 5.07974 1.75 5.08324 1.75 5.08676C1.75 5.09027 1.75 5.0938 1.75 5.09735C1.75 5.1009 1.75 5.10447 1.75 5.10805C1.75 5.11163 1.75 5.11523 1.75 5.11884C1.75 5.12246 1.75 5.12609 1.75 5.12973C1.75 5.13338 1.75 5.13704 1.75 5.14072C1.75 5.1444 1.75 5.14809 1.75 5.1518C1.75 5.15551 1.75 5.15923 1.75 5.16298C1.75 5.16672 1.75 5.17048 1.75 5.17425C1.75 5.17802 1.75 5.18181 1.75 5.18562C1.75 5.18942 1.75 5.19324 1.75 5.19708C1.75 5.20091 1.75 5.20477 1.75 5.20863C1.75 5.2125 1.75 5.21638 1.75 5.22028C1.75 5.22418 1.75 5.22809 1.75 5.23202C1.75 5.23595 1.75 5.2399 1.75 5.24386C1.75 5.24782 1.75 5.25179 1.75 5.25578C1.75 5.25978 1.75 5.26378 1.75 5.2678C1.75 5.27182 1.75 5.27586 1.75 5.27991C1.75 5.28396 1.75 5.28803 1.75 5.29211C1.75 5.2962 1.75 5.30029 1.75 5.30441C1.75 5.30852 1.75 5.31265 1.75 5.31679C1.75 5.32093 1.75 5.32509 1.75 5.32926C1.75 5.33343 1.75 5.33762 1.75 5.34182C1.75 5.34602 1.75 5.35024 1.75 5.35447C1.75 5.3587 1.75 5.36295 1.75 5.36721C1.75 5.37147 1.75 5.37575 1.75 5.38004C1.75 5.38433 1.75 5.38863 1.75 5.39295C1.75 5.39727 1.75 5.40161 1.75 5.40595C1.75 5.4103 1.75 5.41467 1.75 5.41904C1.75 5.42342 1.75 5.42781 1.75 5.43222C1.75 5.43662 1.75 5.44105 1.75 5.44548C1.75 5.44992 1.75 5.45436 1.75 5.45883C1.75 5.46329 1.75 5.46777 1.75 5.47226C1.75 5.47675 1.75 5.48126 1.75 5.48578C1.75 5.4903 1.75 5.49483 1.75 5.49938C1.75 5.50393 1.75 5.50849 1.75 5.51307C1.75 5.51764 1.75 5.52223 1.75 5.52684C1.75 5.53144 1.75 5.53606 1.75 5.54069C1.75 5.54532 1.75 5.54997 1.75 5.55463C1.75 5.55929 1.75 5.56396 1.75 5.56865C1.75 5.57333 1.75 5.57804 1.75 5.58275C1.75 5.58746 1.75 5.59219 1.75 5.59693C1.75 5.60167 1.75 5.60643 1.75 5.6112C1.75 5.61596 1.75 5.62075 1.75 5.62554C1.75 5.63034 1.75 5.63514 1.75 5.63997C1.75 5.64479 1.75 5.64962 1.75 5.65447C1.75 5.65932 1.75 5.66418 1.75 5.66906C1.75 5.67393 1.75 5.67882 1.75 5.68372C1.75 5.68862 1.75 5.69354 1.75 5.69847C1.75 5.70339 1.75 5.70833 1.75 5.71329C1.75 5.71824 1.75 5.72321 1.75 5.72819C1.75 5.73317 1.75 5.73816 1.75 5.74316C1.75 5.74817 1.75 5.75319 1.75 5.75822C1.75 5.76325 1.75 5.76829 1.75 5.77335C1.75 5.77841 1.75 5.78348 1.75 5.78856C1.75 5.79364 1.75 5.79874 1.75 5.80384C1.75 5.80895 1.75 5.81407 1.75 5.8192C1.75 5.82434 1.75 5.82948 1.75 5.83464C1.75 5.83979 1.75 5.84496 1.75 5.85015C1.75 5.85533 1.75 5.86052 1.75 5.86573C1.75 5.87094 1.75 5.87616 1.75 5.88139C1.75 5.88662 1.75 5.89186 1.75 5.89712C1.75 5.90238 1.75 5.90764 1.75 5.91293C1.75 5.91821 1.75 5.9235 1.75 5.9288C1.75 5.93411 1.75 5.93942 1.75 5.94475C1.75 5.95008 1.75 5.95542 1.75 5.96077C1.75 5.96613 1.75 5.97149 1.75 5.97687C1.75 5.98224 1.75 5.98763 1.75 5.99303C1.75 5.99843 1.75 6.00384 1.75 6.00927C1.75 6.01469 1.75 6.02013 1.75 6.02557C1.75 6.03102 1.75 6.03648 1.75 6.04195C1.75 6.04742 1.75 6.0529 1.75 6.05839C1.75 6.06389 1.75 6.06939 1.75 6.07491C1.75 6.08042 1.75 6.08595 1.75 6.09149C1.75 6.09703 1.75 6.10258 1.75 6.10814C1.75 6.1137 1.75 6.11927 1.75 6.12486C1.75 6.13044 1.75 6.13604 1.75 6.14165C1.75 6.14725 1.75 6.15287 1.75 6.1585C1.75 6.16413 1.75 6.16977 1.75 6.17542C1.75 6.18107 1.75 6.18673 1.75 6.19241C1.75 6.19808 1.75 6.20376 1.75 6.20946C1.75 6.21515 1.75 6.22086 1.75 6.22658C1.75 6.23229 1.75 6.23802 1.75 6.24376C1.75 6.2495 1.75 6.25525 1.75 6.26101C1.75 6.26676 1.75 6.27254 1.75 6.27832C1.75 6.2841 1.75 6.28989 1.75 6.29569C1.75 6.30149 1.75 6.30731 1.75 6.31313C1.75 6.31895 1.75 6.32479 1.75 6.33063C1.75 6.33648 1.75 6.34233 1.75 6.3482C1.75 6.35406 1.75 6.35994 1.75 6.36582C1.75 6.37171 1.75 6.37761 1.75 6.38351C1.75 6.38942 1.75 6.39533 1.75 6.40126C1.75 6.40719 1.75 6.41313 1.75 6.41907C1.75 6.42502 1.75 6.43098 1.75 6.43694C1.75 6.44291 1.75 6.44889 1.75 6.45487C1.75 6.46086 1.75 6.46686 1.75 6.47287C1.75 6.47887 1.75 6.48489 1.75 6.49092C1.75 6.49694 1.75 6.50298 1.75 6.50903C1.75 6.51507 1.75 6.52113 1.75 6.52719C1.75 6.53326 1.75 6.53934 1.75 6.54542C1.75 6.55151 1.75 6.5576 1.75 6.5637C1.75 6.56981 1.75 6.57592 1.75 6.58205C1.75 6.58817 1.75 6.5943 1.75 6.60044C1.75 6.60659 1.75 6.61274 1.75 6.6189C1.75 6.62506 1.75 6.63123 1.75 6.63741C1.75 6.64359 1.75 6.64978 1.75 6.65598C1.75 6.66217 1.75 6.66838 1.75 6.6746C1.75 6.68081 1.75 6.68704 1.75 6.69327C1.75 6.69951 1.75 6.70575 1.75 6.71201C1.75 6.71826 1.75 6.72452 1.75 6.73079C1.75 6.73706 1.75 6.74334 1.75 6.74963C1.75 6.75592 1.75 6.76222 1.75 6.76852C1.75 6.77483 1.75 6.78114 1.75 6.78747C1.75 6.79379 1.75 6.80012 1.75 6.80646C1.75 6.8128 1.75 6.81915 1.75 6.82551C1.75 6.83187 1.75 6.83824 1.75 6.84461C1.75 6.85099 1.75 6.85737 1.75 6.86377C1.75 6.87016 1.75 6.87656 1.75 6.88297C1.75 6.88938 1.75 6.8958 1.75 6.90222C1.75 6.90865 1.75 6.91508 1.75 6.92153C1.75 6.92797 1.75 6.93442 1.75 6.94088C1.75 6.94734 1.75 6.95381 1.75 6.96028C1.75 6.96676 1.75 6.97324 1.75 6.97973C1.75 6.98622 1.75 6.99272 1.75 6.99923C1.75 7.00574 1.75 7.01226 1.75 7.01878C1.75 7.0253 1.75 7.03184 1.75 7.03838C1.75 7.04491 1.75 7.05146 1.75 7.05802C1.75 7.06457 1.75 7.07114 1.75 7.07771C1.75 7.08428 1.75 7.09086 1.75 7.09744C1.75 7.10403 1.75 7.11062 1.75 7.11722C1.75 7.12382 1.75 7.13043 1.75 7.13705C1.75 7.14367 1.75 7.15029 1.75 7.15692C1.75 7.16355 1.75 7.17019 1.75 7.17684C1.75 7.18348 1.75 7.19014 1.75 7.1968C1.75 7.20346 1.75 7.21013 1.75 7.2168C1.75 7.22348 1.75 7.23016 1.75 7.23685C1.75 7.24354 1.75 7.25024 1.75 7.25694C1.75 7.26365 1.75 7.27036 1.75 7.27708C1.75 7.2838 1.75 7.29052 1.75 7.29726C1.75 7.30399 1.75 7.31073 1.75 7.31747C1.75 7.32422 1.75 7.33097 1.75 7.33773C1.75 7.34449 1.75 7.35126 1.75 7.35803C1.75 7.36481 1.75 7.37159 1.75 7.37838C1.75 7.38516 1.75 7.39196 1.75 7.39876C1.75 7.40556 1.75 7.41237 1.75 7.41918C1.75 7.42599 1.75 7.43281 1.75 7.43964C1.75 7.44647 1.75 7.4533 1.75 7.46014C1.75 7.46698 1.75 7.47383 1.75 7.48068C1.75 7.48753 1.75 7.49439 1.75 7.50126C1.75 7.50812 1.75 7.51499 1.75 7.52187C1.75 7.52875 1.75 7.53563 1.75 7.54252C1.75 7.54941 1.75 7.55631 1.75 7.56321C1.75 7.57012 1.75 7.57702 1.75 7.58394C1.75 7.59085 1.75 7.59777 1.75 7.6047C1.75 7.61163 1.75 7.61856 1.75 7.6255C1.75 7.63244 1.75 7.63938 1.75 7.64633C1.75 7.65328 1.75 7.66024 1.75 7.6672C1.75 7.67416 1.75 7.68113 1.75 7.6881C1.75 7.69508 1.75 7.70206 1.75 7.70904C1.75 7.71602 1.75 7.72301 1.75 7.73001C1.75 7.73701 1.75 7.74401 1.75 7.75101C1.75 7.75802 1.75 7.76503 1.75 7.77205C1.75 7.77907 1.75 7.78609 1.75 7.79312C1.75 7.80015 1.75 7.80718 1.75 7.81422C1.75 7.82126 1.75 7.82831 1.75 7.83536C1.75 7.84241 1.75 7.84946 1.75 7.85652C1.75 7.86358 1.75 7.87065 1.75 7.87772C1.75 7.88479 1.75 7.89186 1.75 7.89894C1.75 7.90602 1.75 7.91311 1.75 7.9202C1.75 7.92729 1.75 7.93438 1.75 7.94149C1.75 7.94859 1.75 7.95569 1.75 7.9628C1.75 7.96991 1.75 7.97703 1.75 7.98414C1.75 7.99126 1.75 7.99839 1.75 8.00552C1.75 8.01265 1.75 8.01978 1.75 8.02692C1.75 8.03406 1.75 8.0412 1.75 8.04835C1.75 8.05549 1.75 8.06265 1.75 8.0698C1.75 8.07696 1.75 8.08412 1.75 8.09128C1.75 8.09845 1.75 8.10562 1.75 8.11279C1.75 8.11997 1.75 8.12715 1.75 8.13433C1.75 8.14151 1.75 8.1487 1.75 8.15589C1.75 8.16308 1.75 8.17027 1.75 8.17747C1.75 8.18467 1.75 8.19188 1.75 8.19908C1.75 8.20629 1.75 8.2135 1.75 8.22072C1.75 8.22794 1.75 8.23516 1.75 8.24238C1.75 8.2496 1.75 8.25683 1.75 8.26406C1.75 8.27129 1.75 8.27853 1.75 8.28577C1.75 8.29301 1.75 8.30025 1.75 8.3075C1.75 8.31474 1.75 8.32199 1.75 8.32925C1.75 8.3365 1.75 8.34376 1.75 8.35102C1.75 8.35828 1.75 8.36555 1.75 8.37281C1.75 8.38008 1.75 8.38735 1.75 8.39463C1.75 8.40191 1.75 8.40918 1.75 8.41647C1.75 8.42375 1.75 8.43103 1.75 8.43832C1.75 8.44561 1.75 8.4529 1.75 8.4602C1.75 8.4675 1.75 8.47479 1.75 8.4821C1.75 8.4894 1.75 8.4967 1.75 8.50401C1.75 8.51132 1.75 8.51863 1.75 8.52595C1.75 8.53326 1.75 8.54058 1.75 8.5479C1.75 8.55522 1.75 8.56254 1.75 8.56987C1.75 8.5772 1.75 8.58452 1.75 8.59186C1.75 8.59919 1.75 8.60652 1.75 8.61386C1.75 8.6212 1.75 8.62854 1.75 8.63588C1.75 8.64323 1.75 8.65057 1.75 8.65792C1.75 8.66527 1.75 8.67262 1.75 8.67998C1.75 8.68733 1.75 8.69469 1.75 8.70204C1.75 8.7094 1.75 8.71676 1.75 8.72413C1.75 8.73149 1.75 8.73886 1.75 8.74623C1.75 8.7536 1.75 8.76097 1.75 8.76834C1.75 8.77571 1.75 8.78309 1.75 8.79047C1.75 8.79785 1.75 8.80523 1.75 8.81261C1.75 8.81999 1.75 8.82738 1.75 8.83476C1.75 8.84215 1.75 8.84954 1.75 8.85693C1.75 8.86432 1.75 8.87171 1.75 8.87911C1.75 8.8865 1.75 8.8939 1.75 8.9013C1.75 8.9087 1.75 8.9161 1.75 8.9235C1.75 8.9309 1.75 8.93831 1.75 8.94571C1.75 8.95312 1.75 8.96053 1.75 8.96794C1.75 8.97535 1.75 8.98276 1.75 8.99017C1.75 8.99758 1.75 9.005 1.75 9.01241C1.75 9.01983 1.75 9.02725 1.75 9.03467C1.75 9.04208 1.75 9.0495 1.75 9.05693C1.75 9.06435 1.75 9.07177 1.75 9.0792C1.75 9.08662 1.75 9.09405 1.75 9.10148C1.75 9.1089 1.75 9.11633 1.75 9.12376C1.75 9.13119 1.75 9.13862 1.75 9.14605C1.75 9.15349 1.75 9.16092 1.75 9.16836C1.75 9.17579 1.75 9.18323 1.75 9.19066C1.75 9.1981 1.75 9.20554 1.75 9.21298C1.75 9.22041 1.75 9.22785 1.75 9.23529C1.75 9.24273 1.75 9.25018 1.75 9.25762C1.75 9.26506 1.75 9.2725 1.75 9.27995C1.75 9.28739 1.75 9.29484 1.75 9.30228C1.75 9.30973 1.75 9.31717 1.75 9.32462C1.75 9.33207 1.75 9.33951 1.75 9.34696C1.75 9.35441 1.75 9.36186 1.75 9.36931C1.75 9.37675 1.75 9.3842 1.75 9.39165C1.75 9.3991 1.75 9.40655 1.75 9.414C1.75 9.42145 1.75 9.4289 1.75 9.43635C1.75 9.44381 1.75 9.45126 1.75 9.45871C1.75 9.46616 1.75 9.47361 1.75 9.48106C1.75 9.48852 1.75 9.49597 1.75 9.50342C1.75 9.51087 1.75 9.51832 1.75 9.52578C1.75 9.53323 1.75 9.54068 1.75 9.54813C1.75 9.55558 1.75 9.56304 1.75 9.57049C1.75 9.57794 1.75 9.58539 1.75 9.59284C1.75 9.60029 1.75 9.60775 1.75 9.6152C1.75 9.62265 1.75 9.6301 1.75 9.63755C1.75 9.645 1.75 9.65245 1.75 9.6599C1.75 9.66735 1.75 9.6748 1.75 9.68225C1.75 9.6897 1.75 9.69715 1.75 9.70459C1.75 9.71204 1.75 9.71949 1.75 9.72694C1.75 9.73438 1.75 9.74183 1.75 9.74927C1.75 9.75672 1.75 9.76416 1.75 9.77161C1.75 9.77905 1.75 9.7865 1.75 9.79394C1.75 9.80138 1.75 9.80882 1.75 9.81626C1.75 9.8237 1.75 9.83114 1.75 9.83858C1.75 9.84602 1.75 9.85346 1.75 9.8609C1.75 9.86833 1.75 9.87577 1.75 9.88321C1.75 9.89064 1.75 9.89807 1.75 9.90551C1.75 9.91294 1.75 9.92037 1.75 9.9278C1.75 9.93523 1.75 9.94266 1.75 9.95009C1.75 9.95752 1.75 9.96494 1.75 9.97237C1.75 9.97979 1.75 9.98722 1.75 9.99464C1.75 10.0021 1.75 10.0095 1.75 10.0169C1.75 10.0243 1.75 10.0317 1.75 10.0392C1.75 10.0466 1.75 10.054 1.75 10.0614C1.75 10.0688 1.75 10.0762 1.75 10.0836C1.75 10.091 1.75 10.0985 1.75 10.1059C1.75 10.1133 1.75 10.1207 1.75 10.1281C1.75 10.1355 1.75 10.1429 1.75 10.1503C1.75 10.1577 1.75 10.1651 1.75 10.1725C1.75 10.1799 1.75 10.1873 1.75 10.1947C1.75 10.202 1.75 10.2094 1.75 10.2168C1.75 10.2242 1.75 10.2316 1.75 10.239C1.75 10.2464 1.75 10.2537 1.75 10.2611C1.75 10.2685 1.75 10.2759 1.75 10.2833C1.75 10.2906 1.75 10.298 1.75 10.3054C1.75 10.3127 1.75 10.3201 1.75 10.3275C1.75 10.3348 1.75 10.3422 1.75 10.3496C1.75 10.3569 1.75 10.3643 1.75 10.3716C1.75 10.379 1.75 10.3863 1.75 10.3937C1.75 10.401 1.75 10.4084 1.75 10.4157C1.75 10.4231 1.75 10.4304 1.75 10.4378C1.75 10.4451 1.75 10.4524 1.75 10.4598C1.75 10.4671 1.75 10.4744 1.75 10.4818C1.75 10.4891 1.75 10.4964 1.75 10.5037C1.75 10.511 1.75 10.5184 1.75 10.5257C1.75 10.533 1.75 10.5403 1.75 10.5476C1.75 10.5549 1.75 10.5622 1.75 10.5695C1.75 10.5768 1.75 10.5841 1.75 10.5914C1.75 10.5987 1.75 10.606 1.75 10.6133C1.75 10.6206 1.75 10.6279 1.75 10.6352C1.75 10.6425 1.75 10.6497 1.75 10.657C1.75 10.6643 1.75 10.6716 1.75 10.6788C1.75 10.6861 1.75 10.6934 1.75 10.7006C1.75 10.7079 1.75 10.7152 1.75 10.7224C1.75 10.7297 1.75 10.7369 1.75 10.7442C1.75 10.7514 1.75 10.7587 1.75 10.7659C1.75 10.7731 1.75 10.7804 1.75 10.7876C1.75 10.7948 1.75 10.8021 1.75 10.8093C1.75 10.8165 1.75 10.8237 1.75 10.831C1.75 10.8382 1.75 10.8454 1.75 10.8526C1.75 10.8598 1.75 10.867 1.75 10.8742C1.75 10.8814 1.75 10.8886 1.75 10.8958C1.75 10.903 1.75 10.9102 1.75 10.9174C1.75 10.9246 1.75 10.9317 1.75 10.9389C1.75 10.9461 1.75 10.9533 1.75 10.9604C1.75 10.9676 1.75 10.9748 1.75 10.9819C1.75 10.9891 1.75 10.9962 1.75 11.0034C1.75 11.0105 1.75 11.0177 1.75 11.0248C1.75 11.0319 1.75 11.0391 1.75 11.0462C1.75 11.0533 1.75 11.0605 1.75 11.0676C1.75 11.0747 1.75 11.0818 1.75 11.0889C1.75 11.0961 1.75 11.1032 1.75 11.1103C1.75 11.1174 1.75 11.1245 1.75 11.1316C1.75 11.1386 1.75 11.1457 1.75 11.1528C1.75 11.1599 1.75 11.167 1.75 11.174C1.75 11.1811 1.75 11.1882 1.75 11.1952C1.75 11.2023 1.75 11.2094 1.75 11.2164C1.75 11.2235 1.75 11.2305 1.75 11.2376C1.75 11.2446 1.75 11.2516 1.75 11.2587C1.75 11.2657 1.75 11.2727 1.75 11.2797C1.75 11.2868 1.75 11.2938 1.75 11.3008C1.75 11.3078 1.75 11.3148 1.75 11.3218C1.75 11.3288 1.75 11.3358 1.75 11.3428C1.75 11.3498 1.75 11.3567 1.75 11.3637C1.75 11.3707 1.75 11.3777 1.75 11.3846C1.75 11.3916 1.75 11.3985 1.75 11.4055C1.75 11.4124 1.75 11.4194 1.75 11.4263C1.75 11.4333 1.75 11.4402 1.75 11.4471C1.75 11.4541 1.75 11.461 1.75 11.4679C1.75 11.4748 1.75 11.4817 1.75 11.4886C1.75 11.4955 1.75 11.5024 1.75 11.5093C1.75 11.5162 1.75 11.5231 1.75 11.53C1.75 11.5369 1.75 11.5438 1.75 11.5506C1.75 11.5575 1.75 11.5643 1.75 11.5712C1.75 11.5781 1.75 11.5849 1.75 11.5917C1.75 11.5986 1.75 11.6054 1.75 11.6123C1.75 11.6191 1.75 11.6259 1.75 11.6327C1.75 11.6395 1.75 11.6463 1.75 11.6532C1.75 11.66 1.75 11.6668 1.75 11.6735C1.75 11.6803 1.75 11.6871 1.75 11.6939C1.75 11.7007 1.75 11.7074 1.75 11.7142C1.75 11.721 1.75 11.7277 1.75 11.7345C1.75 11.7412 1.75 11.748 1.75 11.7547C1.75 11.7614 1.75 11.7682 1.75 11.7749C1.75 11.7816 1.75 11.7883 1.75 11.795C1.75 11.8017 1.75 11.8084 1.75 11.8151C1.75 11.8218 1.75 11.8285 1.75 11.8352C1.75 11.8419 1.75 11.8485 1.75 11.8552C1.75 11.8619 1.75 11.8685 1.75 11.8752C1.75 11.8818 1.75 11.8884 1.75 11.8951C1.75 11.9017 1.75 11.9083 1.75 11.915C1.75 11.9216 1.75 11.9282 1.75 11.9348C1.75 11.9414 1.75 11.948 1.75 11.9546C1.75 11.9612 1.75 11.9678 1.75 11.9743C1.75 11.9809 1.75 11.9875 1.75 11.994C1.75 12.0006 1.75 12.0071 1.75 12.0137C1.75 12.0202 1.75 12.0268 1.75 12.0333C1.75 12.0398 1.75 12.0463 1.75 12.0528C1.75 12.0594 1.75 12.0659 1.75 12.0723C1.75 12.0788 1.75 12.0853 1.75 12.0918C1.75 12.0983 1.75 12.1048 1.75 12.1112C1.75 12.1177 1.75 12.1241 1.75 12.1306C1.75 12.137 1.75 12.1435 1.75 12.1499C1.75 12.1563 1.75 12.1627 1.75 12.1692C1.75 12.1756 1.75 12.182 1.75 12.1884C1.75 12.1948 1.75 12.2012 1.75 12.2075C1.75 12.2139 1.75 12.2203 1.75 12.2266C1.75 12.233 1.75 12.2394 1.75 12.2457C1.75 12.252 1.75 12.2584 1.75 12.2647C1.75 12.271 1.75 12.2774 1.75 12.2837C1.75 12.29 1.75 12.2963 1.75 12.3026C1.75 12.3089 1.75 12.3151 1.75 12.3214C1.75 12.3277 1.75 12.334 1.75 12.3402C1.75 12.3465 1.75 12.3527 1.75 12.3589C1.75 12.3652 1.75 12.3714 1.75 12.3776C1.75 12.3839 1.75 12.3901 1.75 12.3963C1.75 12.4025 1.75 12.4087 1.75 12.4148C1.75 12.421 1.75 12.4272 1.75 12.4334C1.75 12.4395 1.75 12.4457 1.75 12.4518C1.75 12.458 1.75 12.4641 1.75 12.4702C1.75 12.4764 1.75 12.4825 1.75 12.4886C1.75 12.4947 1.75 12.5008 1.75 12.5069C1.75 12.513 1.75 12.5191 1.75 12.5251C1.75 12.5312 1.75 12.5373 1.75 12.5433C1.75 12.5494 1.75 12.5554 1.75 12.5614C1.75 12.5675 1.75 12.5735 1.75 12.5795C1.75 12.5855 1.75 12.5915 1.75 12.5975C1.75 12.6035 1.75 12.6095 1.75 12.6154C1.75 12.6214 1.75 12.6274 1.75 12.6333C1.75 12.6393 1.75 12.6452 1.75 12.6511C1.75 12.6571 1.75 12.663 1.75 12.6689C1.75 12.6748 1.75 12.6807 1.75 12.6866C1.75 12.6925 1.75 12.6984 1.75 12.7042C1.75 12.7101 1.75 12.716 1.75 12.7218C1.75 12.7277 1.75 12.7335 1.75 12.7393C1.75 12.7451 1.75 12.751 1.75 12.7568C1.75 12.7626 1.75 12.7684 1.75 12.7742C1.75 12.7799 1.75 12.7857 1.75 12.7915C1.75 12.7972 1.75 12.803 1.75 12.8087C1.75 12.8145 1.75 12.8202 1.75 12.8259C1.75 12.8317 1.75 12.8374 1.75 12.8431C1.75 12.8488 1.75 12.8545 1.75 12.8601C1.75 12.8658 1.75 12.8715 1.75 12.8771C1.75 12.8828 1.75 12.8884 1.75 12.8941C1.75 12.8997 1.75 12.9053 1.75 12.9109C1.75 12.9165 1.75 12.9221 1.75 12.9277C1.75 12.9333 1.75 12.9389 1.75 12.9445C1.75 12.95 1.75 12.9556 1.75 12.9611C1.75 12.9667 1.75 12.9722 1.75 12.9777C1.75 12.9832 1.75 12.9887 1.75 12.9942C1.75 12.9997 1.75 13.0052 1.75 13.0107C1.75 13.0162 1.75 13.0216 1.75 13.0271C1.75 13.0325 1.75 13.038 1.75 13.0434C1.75 13.0488 1.75 13.0542 1.75 13.0597C1.75 13.0651 1.75 13.0704 1.75 13.0758C1.75 13.0812 1.75 13.0866 1.75 13.0919C1.75 13.0973 1.75 13.1026 1.75 13.108C1.75 13.1133 1.75 13.1186 1.75 13.1239C1.75 13.1292 1.75 13.1345 1.75 13.1398C1.75 13.1451 1.75 13.1504 1.75 13.1556C1.75 13.1609 1.75 13.1662 1.75 13.1714C1.75 13.1766 1.75 13.1818 1.75 13.1871C1.75 13.1923 1.75 13.1975 1.75 13.2027C1.75 13.2078 1.75 13.213 1.75 13.2182C1.75 13.2233 1.75 13.2285 1.75 13.2336C1.75 13.2388 1.75 13.2439 1.75 13.249C1.75 13.2541 1.75 13.2592 1.75 13.2643C1.75 13.2694 1.75 13.2745 1.75 13.2795C1.75 13.2846 1.75 13.2896 1.75 13.2947C1.75 13.2997 1.75 13.3047 1.75 13.3097C1.75 13.3147 1.75 13.3197 1.75 13.3247C1.75 13.3297 1.75 13.3347 1.75 13.3396C1.75 13.3446 1.75 13.3495 1.75 13.3545C1.75 13.3594 1.75 13.3643 1.75 13.3692C1.75 13.3741 1.75 13.379 1.75 13.3839C1.75 13.3888 1.75 13.3937 1.75 13.3985C1.75 13.4034 1.75 13.4082 1.75 13.413C1.75 13.4179 1.75 13.4227 1.75 13.4275C1.75 13.4323 1.75 13.4371 1.75 13.4418C1.75 13.4466 1.75 13.4514 1.75 13.4561C1.75 13.4609 1.75 13.4656 1.75 13.4703C1.75 13.475 1.75 13.4797 1.75 13.4844C1.75 13.4891 1.75 13.4938 1.75 13.4985C1.75 13.5031 1.75 13.5078 1.75 13.5124C1.75 13.5171 1.75 13.5217 1.75 13.5263C1.75 13.5309 1.75 13.5355 1.75 13.5401C1.75 13.5447 1.75 13.5492 1.75 13.5538C1.75 13.5583 1.75 13.5629 1.75 13.5674C1.75 13.5719 1.75 13.5764 1.75 13.5809C1.75 13.5854 1.75 13.5899 1.75 13.5944C1.75 13.5988 1.75 13.6033 1.75 13.6077C1.75 13.6122 1.75 13.6166 1.75 13.621C1.75 13.6254 1.75 13.6298 1.75 13.6342C1.75 13.6386 1.75 13.643 1.75 13.6473C1.75 13.6517 1.75 13.656 1.75 13.6603C1.75 13.6647 1.75 13.669 1.75 13.6733C1.75 13.6776 1.75 13.6818 1.75 13.6861C1.75 13.6904 1.75 13.6946 1.75 13.6989C1.75 13.7031 1.75 13.7073 1.75 13.7115C1.75 13.7157 1.75 13.7199 1.75 13.7241C1.75 13.7283 1.75 13.7324 1.75 13.7366C1.75 13.7407 1.75 13.7449 1.75 13.749C1.75 13.7531 1.75 13.7572 1.75 13.7613C1.75 13.7654 1.75 13.7695 1.75 13.7735C1.75 13.7776 1.75 13.7816 1.75 13.7856C1.75 13.7897 1.75 13.7937 1.75 13.7977C1.75 13.8017 1.75 13.8057 1.75 13.8096C1.75 13.8136 1.75 13.8175 1.75 13.8215C1.75 13.8254 1.75 13.8293 1.75 13.8332C1.75 13.8371 1.75 13.841 1.75 13.8449C1.75 13.8488 1.75 13.8526 1.75 13.8565C1.75 13.8603 1.75 13.8641 1.75 13.8679C1.75 13.8718 1.75 13.8756 1.75 13.8793C1.75 13.8831 1.75 13.8869 1.75 13.8906C1.75 13.8944 1.75 13.8981 1.75 13.9018C1.75 13.9055 1.75 13.9092 1.75 13.9129C1.75 13.9166 1.75 13.9203 1.75 13.9239C1.75 13.9276 1.75 13.9312 1.75 13.9348C1.75 13.9384 1.75 13.9421 1.75 13.9456C1.75 13.9492 1.75 13.9528 1.75 13.9564C1.75 13.9599 1.75 13.9634 1.75 13.967C1.75 13.9705 1.75 13.974 1.75 13.9775C1.75 13.981 1.75 13.9844 1.75 13.9879C1.75 13.9914 1.75 13.9948 1.75 13.9982C1.75 14.0017 1.75 14.0051 1.75 14.0084C1.75 14.0118 1.75 14.0152 1.75 14.0186C1.75 14.0219 1.75 14.0253 1.75 14.0286C1.75 14.0319 1.75 14.0352 1.75 14.0385C1.75 14.0418 1.75 14.0451 1.75 14.0483C1.75 14.0516 1.75 14.0548 1.75 14.0581C1.75 14.0613 1.75 14.0645 1.75 14.0677C1.75 14.0709 1.75 14.074 1.75 14.0772C1.75 14.0804 1.75 14.0835 1.75 14.0866C1.75 14.0897 1.75 14.0928 1.75 14.0959C1.75 14.099 1.75 14.1021 1.75 14.1051C1.75 14.1082 1.75 14.1112 1.75 14.1142C1.75 14.1173 1.75 14.1203 1.75 14.1232C1.75 14.1262 1.75 14.1292 1.75 14.1321C1.75 14.1351 1.75 14.138 1.75 14.1409C1.75 14.1438 1.75 14.1467 1.75 14.1496C1.75 14.1525 1.75 14.1554 1.75 14.1582C1.75 14.161 1.75 14.1639 1.75 14.1667H3.25C3.25 14.1639 3.25 14.161 3.25 14.1582C3.25 14.1554 3.25 14.1525 3.25 14.1496C3.25 14.1467 3.25 14.1438 3.25 14.1409C3.25 14.138 3.25 14.1351 3.25 14.1321C3.25 14.1292 3.25 14.1262 3.25 14.1232C3.25 14.1203 3.25 14.1173 3.25 14.1142C3.25 14.1112 3.25 14.1082 3.25 14.1051C3.25 14.1021 3.25 14.099 3.25 14.0959C3.25 14.0928 3.25 14.0897 3.25 14.0866C3.25 14.0835 3.25 14.0804 3.25 14.0772C3.25 14.074 3.25 14.0709 3.25 14.0677C3.25 14.0645 3.25 14.0613 3.25 14.0581C3.25 14.0548 3.25 14.0516 3.25 14.0483C3.25 14.0451 3.25 14.0418 3.25 14.0385C3.25 14.0352 3.25 14.0319 3.25 14.0286C3.25 14.0253 3.25 14.0219 3.25 14.0186C3.25 14.0152 3.25 14.0118 3.25 14.0084C3.25 14.0051 3.25 14.0017 3.25 13.9982C3.25 13.9948 3.25 13.9914 3.25 13.9879C3.25 13.9844 3.25 13.981 3.25 13.9775C3.25 13.974 3.25 13.9705 3.25 13.967C3.25 13.9634 3.25 13.9599 3.25 13.9564C3.25 13.9528 3.25 13.9492 3.25 13.9456C3.25 13.9421 3.25 13.9384 3.25 13.9348C3.25 13.9312 3.25 13.9276 3.25 13.9239C3.25 13.9203 3.25 13.9166 3.25 13.9129C3.25 13.9092 3.25 13.9055 3.25 13.9018C3.25 13.8981 3.25 13.8944 3.25 13.8906C3.25 13.8869 3.25 13.8831 3.25 13.8793C3.25 13.8756 3.25 13.8718 3.25 13.8679C3.25 13.8641 3.25 13.8603 3.25 13.8565C3.25 13.8526 3.25 13.8488 3.25 13.8449C3.25 13.841 3.25 13.8371 3.25 13.8332C3.25 13.8293 3.25 13.8254 3.25 13.8215C3.25 13.8175 3.25 13.8136 3.25 13.8096C3.25 13.8057 3.25 13.8017 3.25 13.7977C3.25 13.7937 3.25 13.7897 3.25 13.7856C3.25 13.7816 3.25 13.7776 3.25 13.7735C3.25 13.7695 3.25 13.7654 3.25 13.7613C3.25 13.7572 3.25 13.7531 3.25 13.749C3.25 13.7449 3.25 13.7407 3.25 13.7366C3.25 13.7324 3.25 13.7283 3.25 13.7241C3.25 13.7199 3.25 13.7157 3.25 13.7115C3.25 13.7073 3.25 13.7031 3.25 13.6989C3.25 13.6946 3.25 13.6904 3.25 13.6861C3.25 13.6818 3.25 13.6776 3.25 13.6733C3.25 13.669 3.25 13.6647 3.25 13.6603C3.25 13.656 3.25 13.6517 3.25 13.6473C3.25 13.643 3.25 13.6386 3.25 13.6342C3.25 13.6298 3.25 13.6254 3.25 13.621C3.25 13.6166 3.25 13.6122 3.25 13.6077C3.25 13.6033 3.25 13.5988 3.25 13.5944C3.25 13.5899 3.25 13.5854 3.25 13.5809C3.25 13.5764 3.25 13.5719 3.25 13.5674C3.25 13.5629 3.25 13.5583 3.25 13.5538C3.25 13.5492 3.25 13.5447 3.25 13.5401C3.25 13.5355 3.25 13.5309 3.25 13.5263C3.25 13.5217 3.25 13.5171 3.25 13.5124C3.25 13.5078 3.25 13.5031 3.25 13.4985C3.25 13.4938 3.25 13.4891 3.25 13.4844C3.25 13.4797 3.25 13.475 3.25 13.4703C3.25 13.4656 3.25 13.4609 3.25 13.4561C3.25 13.4514 3.25 13.4466 3.25 13.4418C3.25 13.4371 3.25 13.4323 3.25 13.4275C3.25 13.4227 3.25 13.4179 3.25 13.413C3.25 13.4082 3.25 13.4034 3.25 13.3985C3.25 13.3937 3.25 13.3888 3.25 13.3839C3.25 13.379 3.25 13.3741 3.25 13.3692C3.25 13.3643 3.25 13.3594 3.25 13.3545C3.25 13.3495 3.25 13.3446 3.25 13.3396C3.25 13.3347 3.25 13.3297 3.25 13.3247C3.25 13.3197 3.25 13.3147 3.25 13.3097C3.25 13.3047 3.25 13.2997 3.25 13.2947C3.25 13.2896 3.25 13.2846 3.25 13.2795C3.25 13.2745 3.25 13.2694 3.25 13.2643C3.25 13.2592 3.25 13.2541 3.25 13.249C3.25 13.2439 3.25 13.2388 3.25 13.2336C3.25 13.2285 3.25 13.2233 3.25 13.2182C3.25 13.213 3.25 13.2078 3.25 13.2027C3.25 13.1975 3.25 13.1923 3.25 13.1871C3.25 13.1818 3.25 13.1766 3.25 13.1714C3.25 13.1662 3.25 13.1609 3.25 13.1556C3.25 13.1504 3.25 13.1451 3.25 13.1398C3.25 13.1345 3.25 13.1292 3.25 13.1239C3.25 13.1186 3.25 13.1133 3.25 13.108C3.25 13.1026 3.25 13.0973 3.25 13.0919C3.25 13.0866 3.25 13.0812 3.25 13.0758C3.25 13.0704 3.25 13.0651 3.25 13.0597C3.25 13.0542 3.25 13.0488 3.25 13.0434C3.25 13.038 3.25 13.0325 3.25 13.0271C3.25 13.0216 3.25 13.0162 3.25 13.0107C3.25 13.0052 3.25 12.9997 3.25 12.9942C3.25 12.9887 3.25 12.9832 3.25 12.9777C3.25 12.9722 3.25 12.9667 3.25 12.9611C3.25 12.9556 3.25 12.95 3.25 12.9445C3.25 12.9389 3.25 12.9333 3.25 12.9277C3.25 12.9221 3.25 12.9165 3.25 12.9109C3.25 12.9053 3.25 12.8997 3.25 12.8941C3.25 12.8884 3.25 12.8828 3.25 12.8771C3.25 12.8715 3.25 12.8658 3.25 12.8601C3.25 12.8545 3.25 12.8488 3.25 12.8431C3.25 12.8374 3.25 12.8317 3.25 12.8259C3.25 12.8202 3.25 12.8145 3.25 12.8087C3.25 12.803 3.25 12.7972 3.25 12.7915C3.25 12.7857 3.25 12.7799 3.25 12.7742C3.25 12.7684 3.25 12.7626 3.25 12.7568C3.25 12.751 3.25 12.7451 3.25 12.7393C3.25 12.7335 3.25 12.7277 3.25 12.7218C3.25 12.716 3.25 12.7101 3.25 12.7042C3.25 12.6984 3.25 12.6925 3.25 12.6866C3.25 12.6807 3.25 12.6748 3.25 12.6689C3.25 12.663 3.25 12.6571 3.25 12.6511C3.25 12.6452 3.25 12.6393 3.25 12.6333C3.25 12.6274 3.25 12.6214 3.25 12.6154C3.25 12.6095 3.25 12.6035 3.25 12.5975C3.25 12.5915 3.25 12.5855 3.25 12.5795C3.25 12.5735 3.25 12.5675 3.25 12.5614C3.25 12.5554 3.25 12.5494 3.25 12.5433C3.25 12.5373 3.25 12.5312 3.25 12.5251C3.25 12.5191 3.25 12.513 3.25 12.5069C3.25 12.5008 3.25 12.4947 3.25 12.4886C3.25 12.4825 3.25 12.4764 3.25 12.4702C3.25 12.4641 3.25 12.458 3.25 12.4518C3.25 12.4457 3.25 12.4395 3.25 12.4334C3.25 12.4272 3.25 12.421 3.25 12.4148C3.25 12.4087 3.25 12.4025 3.25 12.3963C3.25 12.3901 3.25 12.3839 3.25 12.3776C3.25 12.3714 3.25 12.3652 3.25 12.3589C3.25 12.3527 3.25 12.3465 3.25 12.3402C3.25 12.334 3.25 12.3277 3.25 12.3214C3.25 12.3151 3.25 12.3089 3.25 12.3026C3.25 12.2963 3.25 12.29 3.25 12.2837C3.25 12.2774 3.25 12.271 3.25 12.2647C3.25 12.2584 3.25 12.252 3.25 12.2457C3.25 12.2394 3.25 12.233 3.25 12.2266C3.25 12.2203 3.25 12.2139 3.25 12.2075C3.25 12.2012 3.25 12.1948 3.25 12.1884C3.25 12.182 3.25 12.1756 3.25 12.1692C3.25 12.1627 3.25 12.1563 3.25 12.1499C3.25 12.1435 3.25 12.137 3.25 12.1306C3.25 12.1241 3.25 12.1177 3.25 12.1112C3.25 12.1048 3.25 12.0983 3.25 12.0918C3.25 12.0853 3.25 12.0788 3.25 12.0723C3.25 12.0659 3.25 12.0594 3.25 12.0528C3.25 12.0463 3.25 12.0398 3.25 12.0333C3.25 12.0268 3.25 12.0202 3.25 12.0137C3.25 12.0071 3.25 12.0006 3.25 11.994C3.25 11.9875 3.25 11.9809 3.25 11.9743C3.25 11.9678 3.25 11.9612 3.25 11.9546C3.25 11.948 3.25 11.9414 3.25 11.9348C3.25 11.9282 3.25 11.9216 3.25 11.915C3.25 11.9083 3.25 11.9017 3.25 11.8951C3.25 11.8884 3.25 11.8818 3.25 11.8752C3.25 11.8685 3.25 11.8619 3.25 11.8552C3.25 11.8485 3.25 11.8419 3.25 11.8352C3.25 11.8285 3.25 11.8218 3.25 11.8151C3.25 11.8084 3.25 11.8017 3.25 11.795C3.25 11.7883 3.25 11.7816 3.25 11.7749C3.25 11.7682 3.25 11.7614 3.25 11.7547C3.25 11.748 3.25 11.7412 3.25 11.7345C3.25 11.7277 3.25 11.721 3.25 11.7142C3.25 11.7074 3.25 11.7007 3.25 11.6939C3.25 11.6871 3.25 11.6803 3.25 11.6735C3.25 11.6668 3.25 11.66 3.25 11.6532C3.25 11.6463 3.25 11.6395 3.25 11.6327C3.25 11.6259 3.25 11.6191 3.25 11.6123C3.25 11.6054 3.25 11.5986 3.25 11.5917C3.25 11.5849 3.25 11.5781 3.25 11.5712C3.25 11.5643 3.25 11.5575 3.25 11.5506C3.25 11.5438 3.25 11.5369 3.25 11.53C3.25 11.5231 3.25 11.5162 3.25 11.5093C3.25 11.5024 3.25 11.4955 3.25 11.4886C3.25 11.4817 3.25 11.4748 3.25 11.4679C3.25 11.461 3.25 11.4541 3.25 11.4471C3.25 11.4402 3.25 11.4333 3.25 11.4263C3.25 11.4194 3.25 11.4124 3.25 11.4055C3.25 11.3985 3.25 11.3916 3.25 11.3846C3.25 11.3777 3.25 11.3707 3.25 11.3637C3.25 11.3567 3.25 11.3498 3.25 11.3428C3.25 11.3358 3.25 11.3288 3.25 11.3218C3.25 11.3148 3.25 11.3078 3.25 11.3008C3.25 11.2938 3.25 11.2868 3.25 11.2797C3.25 11.2727 3.25 11.2657 3.25 11.2587C3.25 11.2516 3.25 11.2446 3.25 11.2376C3.25 11.2305 3.25 11.2235 3.25 11.2164C3.25 11.2094 3.25 11.2023 3.25 11.1952C3.25 11.1882 3.25 11.1811 3.25 11.174C3.25 11.167 3.25 11.1599 3.25 11.1528C3.25 11.1457 3.25 11.1386 3.25 11.1316C3.25 11.1245 3.25 11.1174 3.25 11.1103C3.25 11.1032 3.25 11.0961 3.25 11.0889C3.25 11.0818 3.25 11.0747 3.25 11.0676C3.25 11.0605 3.25 11.0533 3.25 11.0462C3.25 11.0391 3.25 11.0319 3.25 11.0248C3.25 11.0177 3.25 11.0105 3.25 11.0034C3.25 10.9962 3.25 10.9891 3.25 10.9819C3.25 10.9748 3.25 10.9676 3.25 10.9604C3.25 10.9533 3.25 10.9461 3.25 10.9389C3.25 10.9317 3.25 10.9246 3.25 10.9174C3.25 10.9102 3.25 10.903 3.25 10.8958C3.25 10.8886 3.25 10.8814 3.25 10.8742C3.25 10.867 3.25 10.8598 3.25 10.8526C3.25 10.8454 3.25 10.8382 3.25 10.831C3.25 10.8237 3.25 10.8165 3.25 10.8093C3.25 10.8021 3.25 10.7948 3.25 10.7876C3.25 10.7804 3.25 10.7731 3.25 10.7659C3.25 10.7587 3.25 10.7514 3.25 10.7442C3.25 10.7369 3.25 10.7297 3.25 10.7224C3.25 10.7152 3.25 10.7079 3.25 10.7006C3.25 10.6934 3.25 10.6861 3.25 10.6788C3.25 10.6716 3.25 10.6643 3.25 10.657C3.25 10.6497 3.25 10.6425 3.25 10.6352C3.25 10.6279 3.25 10.6206 3.25 10.6133C3.25 10.606 3.25 10.5987 3.25 10.5914C3.25 10.5841 3.25 10.5768 3.25 10.5695C3.25 10.5622 3.25 10.5549 3.25 10.5476C3.25 10.5403 3.25 10.533 3.25 10.5257C3.25 10.5184 3.25 10.511 3.25 10.5037C3.25 10.4964 3.25 10.4891 3.25 10.4818C3.25 10.4744 3.25 10.4671 3.25 10.4598C3.25 10.4524 3.25 10.4451 3.25 10.4378C3.25 10.4304 3.25 10.4231 3.25 10.4157C3.25 10.4084 3.25 10.401 3.25 10.3937C3.25 10.3863 3.25 10.379 3.25 10.3716C3.25 10.3643 3.25 10.3569 3.25 10.3496C3.25 10.3422 3.25 10.3348 3.25 10.3275C3.25 10.3201 3.25 10.3127 3.25 10.3054C3.25 10.298 3.25 10.2906 3.25 10.2833C3.25 10.2759 3.25 10.2685 3.25 10.2611C3.25 10.2537 3.25 10.2464 3.25 10.239C3.25 10.2316 3.25 10.2242 3.25 10.2168C3.25 10.2094 3.25 10.202 3.25 10.1947C3.25 10.1873 3.25 10.1799 3.25 10.1725C3.25 10.1651 3.25 10.1577 3.25 10.1503C3.25 10.1429 3.25 10.1355 3.25 10.1281C3.25 10.1207 3.25 10.1133 3.25 10.1059C3.25 10.0985 3.25 10.091 3.25 10.0836C3.25 10.0762 3.25 10.0688 3.25 10.0614C3.25 10.054 3.25 10.0466 3.25 10.0392C3.25 10.0317 3.25 10.0243 3.25 10.0169C3.25 10.0095 3.25 10.0021 3.25 9.99464C3.25 9.98722 3.25 9.97979 3.25 9.97237C3.25 9.96494 3.25 9.95752 3.25 9.95009C3.25 9.94266 3.25 9.93523 3.25 9.9278C3.25 9.92037 3.25 9.91294 3.25 9.90551C3.25 9.89807 3.25 9.89064 3.25 9.88321C3.25 9.87577 3.25 9.86833 3.25 9.8609C3.25 9.85346 3.25 9.84602 3.25 9.83858C3.25 9.83114 3.25 9.8237 3.25 9.81626C3.25 9.80882 3.25 9.80138 3.25 9.79394C3.25 9.7865 3.25 9.77905 3.25 9.77161C3.25 9.76416 3.25 9.75672 3.25 9.74927C3.25 9.74183 3.25 9.73438 3.25 9.72694C3.25 9.71949 3.25 9.71204 3.25 9.70459C3.25 9.69715 3.25 9.6897 3.25 9.68225C3.25 9.6748 3.25 9.66735 3.25 9.6599C3.25 9.65245 3.25 9.645 3.25 9.63755C3.25 9.6301 3.25 9.62265 3.25 9.6152C3.25 9.60775 3.25 9.60029 3.25 9.59284C3.25 9.58539 3.25 9.57794 3.25 9.57049C3.25 9.56304 3.25 9.55558 3.25 9.54813C3.25 9.54068 3.25 9.53323 3.25 9.52578C3.25 9.51832 3.25 9.51087 3.25 9.50342C3.25 9.49597 3.25 9.48852 3.25 9.48106C3.25 9.47361 3.25 9.46616 3.25 9.45871C3.25 9.45126 3.25 9.44381 3.25 9.43635C3.25 9.4289 3.25 9.42145 3.25 9.414C3.25 9.40655 3.25 9.3991 3.25 9.39165C3.25 9.3842 3.25 9.37675 3.25 9.36931C3.25 9.36186 3.25 9.35441 3.25 9.34696C3.25 9.33951 3.25 9.33207 3.25 9.32462C3.25 9.31717 3.25 9.30973 3.25 9.30228C3.25 9.29484 3.25 9.28739 3.25 9.27995C3.25 9.2725 3.25 9.26506 3.25 9.25762C3.25 9.25018 3.25 9.24273 3.25 9.23529C3.25 9.22785 3.25 9.22041 3.25 9.21298C3.25 9.20554 3.25 9.1981 3.25 9.19066C3.25 9.18323 3.25 9.17579 3.25 9.16836C3.25 9.16092 3.25 9.15349 3.25 9.14605C3.25 9.13862 3.25 9.13119 3.25 9.12376C3.25 9.11633 3.25 9.1089 3.25 9.10148C3.25 9.09405 3.25 9.08662 3.25 9.0792C3.25 9.07177 3.25 9.06435 3.25 9.05693C3.25 9.0495 3.25 9.04208 3.25 9.03467C3.25 9.02725 3.25 9.01983 3.25 9.01241C3.25 9.005 3.25 8.99758 3.25 8.99017C3.25 8.98276 3.25 8.97535 3.25 8.96794C3.25 8.96053 3.25 8.95312 3.25 8.94571C3.25 8.93831 3.25 8.9309 3.25 8.9235C3.25 8.9161 3.25 8.9087 3.25 8.9013C3.25 8.8939 3.25 8.8865 3.25 8.87911C3.25 8.87171 3.25 8.86432 3.25 8.85693C3.25 8.84954 3.25 8.84215 3.25 8.83476C3.25 8.82738 3.25 8.81999 3.25 8.81261C3.25 8.80523 3.25 8.79785 3.25 8.79047C3.25 8.78309 3.25 8.77571 3.25 8.76834C3.25 8.76097 3.25 8.7536 3.25 8.74623C3.25 8.73886 3.25 8.73149 3.25 8.72413C3.25 8.71676 3.25 8.7094 3.25 8.70204C3.25 8.69469 3.25 8.68733 3.25 8.67998C3.25 8.67262 3.25 8.66527 3.25 8.65792C3.25 8.65057 3.25 8.64323 3.25 8.63588C3.25 8.62854 3.25 8.6212 3.25 8.61386C3.25 8.60652 3.25 8.59919 3.25 8.59186C3.25 8.58452 3.25 8.5772 3.25 8.56987C3.25 8.56254 3.25 8.55522 3.25 8.5479C3.25 8.54058 3.25 8.53326 3.25 8.52595C3.25 8.51863 3.25 8.51132 3.25 8.50401C3.25 8.4967 3.25 8.4894 3.25 8.4821C3.25 8.47479 3.25 8.4675 3.25 8.4602C3.25 8.4529 3.25 8.44561 3.25 8.43832C3.25 8.43103 3.25 8.42375 3.25 8.41647C3.25 8.40918 3.25 8.40191 3.25 8.39463C3.25 8.38735 3.25 8.38008 3.25 8.37281C3.25 8.36555 3.25 8.35828 3.25 8.35102C3.25 8.34376 3.25 8.3365 3.25 8.32925C3.25 8.32199 3.25 8.31474 3.25 8.3075C3.25 8.30025 3.25 8.29301 3.25 8.28577C3.25 8.27853 3.25 8.27129 3.25 8.26406C3.25 8.25683 3.25 8.2496 3.25 8.24238C3.25 8.23516 3.25 8.22794 3.25 8.22072C3.25 8.2135 3.25 8.20629 3.25 8.19908C3.25 8.19188 3.25 8.18467 3.25 8.17747C3.25 8.17027 3.25 8.16308 3.25 8.15589C3.25 8.1487 3.25 8.14151 3.25 8.13433C3.25 8.12715 3.25 8.11997 3.25 8.11279C3.25 8.10562 3.25 8.09845 3.25 8.09128C3.25 8.08412 3.25 8.07696 3.25 8.0698C3.25 8.06265 3.25 8.05549 3.25 8.04835C3.25 8.0412 3.25 8.03406 3.25 8.02692C3.25 8.01978 3.25 8.01265 3.25 8.00552C3.25 7.99839 3.25 7.99126 3.25 7.98414C3.25 7.97703 3.25 7.96991 3.25 7.9628C3.25 7.95569 3.25 7.94859 3.25 7.94149C3.25 7.93438 3.25 7.92729 3.25 7.9202C3.25 7.91311 3.25 7.90602 3.25 7.89894C3.25 7.89186 3.25 7.88479 3.25 7.87772C3.25 7.87065 3.25 7.86358 3.25 7.85652C3.25 7.84946 3.25 7.84241 3.25 7.83536C3.25 7.82831 3.25 7.82126 3.25 7.81422C3.25 7.80718 3.25 7.80015 3.25 7.79312C3.25 7.78609 3.25 7.77907 3.25 7.77205C3.25 7.76503 3.25 7.75802 3.25 7.75101C3.25 7.74401 3.25 7.73701 3.25 7.73001C3.25 7.72301 3.25 7.71602 3.25 7.70904C3.25 7.70206 3.25 7.69508 3.25 7.6881C3.25 7.68113 3.25 7.67416 3.25 7.6672C3.25 7.66024 3.25 7.65328 3.25 7.64633C3.25 7.63938 3.25 7.63244 3.25 7.6255C3.25 7.61856 3.25 7.61163 3.25 7.6047C3.25 7.59777 3.25 7.59085 3.25 7.58394C3.25 7.57702 3.25 7.57012 3.25 7.56321C3.25 7.55631 3.25 7.54941 3.25 7.54252C3.25 7.53563 3.25 7.52875 3.25 7.52187C3.25 7.51499 3.25 7.50812 3.25 7.50126C3.25 7.49439 3.25 7.48753 3.25 7.48068C3.25 7.47383 3.25 7.46698 3.25 7.46014C3.25 7.4533 3.25 7.44647 3.25 7.43964C3.25 7.43281 3.25 7.42599 3.25 7.41918C3.25 7.41237 3.25 7.40556 3.25 7.39876C3.25 7.39196 3.25 7.38516 3.25 7.37838C3.25 7.37159 3.25 7.36481 3.25 7.35803C3.25 7.35126 3.25 7.34449 3.25 7.33773C3.25 7.33097 3.25 7.32422 3.25 7.31747C3.25 7.31073 3.25 7.30399 3.25 7.29726C3.25 7.29052 3.25 7.2838 3.25 7.27708C3.25 7.27036 3.25 7.26365 3.25 7.25694C3.25 7.25024 3.25 7.24354 3.25 7.23685C3.25 7.23016 3.25 7.22348 3.25 7.2168C3.25 7.21013 3.25 7.20346 3.25 7.1968C3.25 7.19014 3.25 7.18348 3.25 7.17684C3.25 7.17019 3.25 7.16355 3.25 7.15692C3.25 7.15029 3.25 7.14367 3.25 7.13705C3.25 7.13043 3.25 7.12382 3.25 7.11722C3.25 7.11062 3.25 7.10403 3.25 7.09744C3.25 7.09086 3.25 7.08428 3.25 7.07771C3.25 7.07114 3.25 7.06457 3.25 7.05802C3.25 7.05146 3.25 7.04491 3.25 7.03838C3.25 7.03184 3.25 7.0253 3.25 7.01878C3.25 7.01226 3.25 7.00574 3.25 6.99923C3.25 6.99272 3.25 6.98622 3.25 6.97973C3.25 6.97324 3.25 6.96676 3.25 6.96028C3.25 6.95381 3.25 6.94734 3.25 6.94088C3.25 6.93442 3.25 6.92797 3.25 6.92153C3.25 6.91508 3.25 6.90865 3.25 6.90222C3.25 6.8958 3.25 6.88938 3.25 6.88297C3.25 6.87656 3.25 6.87016 3.25 6.86377C3.25 6.85737 3.25 6.85099 3.25 6.84461C3.25 6.83824 3.25 6.83187 3.25 6.82551C3.25 6.81915 3.25 6.8128 3.25 6.80646C3.25 6.80012 3.25 6.79379 3.25 6.78747C3.25 6.78114 3.25 6.77483 3.25 6.76852C3.25 6.76222 3.25 6.75592 3.25 6.74963C3.25 6.74334 3.25 6.73706 3.25 6.73079C3.25 6.72452 3.25 6.71826 3.25 6.71201C3.25 6.70575 3.25 6.69951 3.25 6.69327C3.25 6.68704 3.25 6.68081 3.25 6.6746C3.25 6.66838 3.25 6.66217 3.25 6.65598C3.25 6.64978 3.25 6.64359 3.25 6.63741C3.25 6.63123 3.25 6.62506 3.25 6.6189C3.25 6.61274 3.25 6.60659 3.25 6.60044C3.25 6.5943 3.25 6.58817 3.25 6.58205C3.25 6.57592 3.25 6.56981 3.25 6.5637C3.25 6.5576 3.25 6.55151 3.25 6.54542C3.25 6.53934 3.25 6.53326 3.25 6.52719C3.25 6.52113 3.25 6.51507 3.25 6.50903C3.25 6.50298 3.25 6.49694 3.25 6.49092C3.25 6.48489 3.25 6.47887 3.25 6.47287C3.25 6.46686 3.25 6.46086 3.25 6.45487C3.25 6.44889 3.25 6.44291 3.25 6.43694C3.25 6.43098 3.25 6.42502 3.25 6.41907C3.25 6.41313 3.25 6.40719 3.25 6.40126C3.25 6.39533 3.25 6.38942 3.25 6.38351C3.25 6.37761 3.25 6.37171 3.25 6.36582C3.25 6.35994 3.25 6.35406 3.25 6.3482C3.25 6.34233 3.25 6.33648 3.25 6.33063C3.25 6.32479 3.25 6.31895 3.25 6.31313C3.25 6.30731 3.25 6.30149 3.25 6.29569C3.25 6.28989 3.25 6.2841 3.25 6.27832C3.25 6.27254 3.25 6.26676 3.25 6.26101C3.25 6.25525 3.25 6.2495 3.25 6.24376C3.25 6.23802 3.25 6.23229 3.25 6.22658C3.25 6.22086 3.25 6.21515 3.25 6.20946C3.25 6.20376 3.25 6.19808 3.25 6.19241C3.25 6.18673 3.25 6.18107 3.25 6.17542C3.25 6.16977 3.25 6.16413 3.25 6.1585C3.25 6.15287 3.25 6.14725 3.25 6.14165C3.25 6.13604 3.25 6.13044 3.25 6.12486C3.25 6.11927 3.25 6.1137 3.25 6.10814C3.25 6.10258 3.25 6.09703 3.25 6.09149C3.25 6.08595 3.25 6.08042 3.25 6.07491C3.25 6.06939 3.25 6.06389 3.25 6.05839C3.25 6.0529 3.25 6.04742 3.25 6.04195C3.25 6.03648 3.25 6.03102 3.25 6.02557C3.25 6.02013 3.25 6.01469 3.25 6.00927C3.25 6.00384 3.25 5.99843 3.25 5.99303C3.25 5.98763 3.25 5.98224 3.25 5.97687C3.25 5.97149 3.25 5.96613 3.25 5.96077C3.25 5.95542 3.25 5.95008 3.25 5.94475C3.25 5.93942 3.25 5.93411 3.25 5.9288C3.25 5.9235 3.25 5.91821 3.25 5.91293C3.25 5.90764 3.25 5.90238 3.25 5.89712C3.25 5.89186 3.25 5.88662 3.25 5.88139C3.25 5.87616 3.25 5.87094 3.25 5.86573C3.25 5.86052 3.25 5.85533 3.25 5.85015C3.25 5.84496 3.25 5.83979 3.25 5.83464C3.25 5.82948 3.25 5.82434 3.25 5.8192C3.25 5.81407 3.25 5.80895 3.25 5.80384C3.25 5.79874 3.25 5.79364 3.25 5.78856C3.25 5.78348 3.25 5.77841 3.25 5.77335C3.25 5.76829 3.25 5.76325 3.25 5.75822C3.25 5.75319 3.25 5.74817 3.25 5.74316C3.25 5.73816 3.25 5.73317 3.25 5.72819C3.25 5.72321 3.25 5.71824 3.25 5.71329C3.25 5.70833 3.25 5.70339 3.25 5.69847C3.25 5.69354 3.25 5.68862 3.25 5.68372C3.25 5.67882 3.25 5.67393 3.25 5.66906C3.25 5.66418 3.25 5.65932 3.25 5.65447C3.25 5.64962 3.25 5.64479 3.25 5.63997C3.25 5.63514 3.25 5.63034 3.25 5.62554C3.25 5.62075 3.25 5.61596 3.25 5.6112C3.25 5.60643 3.25 5.60167 3.25 5.59693C3.25 5.59219 3.25 5.58746 3.25 5.58275C3.25 5.57804 3.25 5.57333 3.25 5.56865C3.25 5.56396 3.25 5.55929 3.25 5.55463C3.25 5.54997 3.25 5.54532 3.25 5.54069C3.25 5.53606 3.25 5.53144 3.25 5.52684C3.25 5.52223 3.25 5.51764 3.25 5.51307C3.25 5.50849 3.25 5.50393 3.25 5.49938C3.25 5.49483 3.25 5.4903 3.25 5.48578C3.25 5.48126 3.25 5.47675 3.25 5.47226C3.25 5.46777 3.25 5.46329 3.25 5.45883C3.25 5.45436 3.25 5.44992 3.25 5.44548C3.25 5.44105 3.25 5.43662 3.25 5.43222C3.25 5.42781 3.25 5.42342 3.25 5.41904C3.25 5.41467 3.25 5.4103 3.25 5.40595C3.25 5.40161 3.25 5.39727 3.25 5.39295C3.25 5.38863 3.25 5.38433 3.25 5.38004C3.25 5.37575 3.25 5.37147 3.25 5.36721C3.25 5.36295 3.25 5.3587 3.25 5.35447C3.25 5.35024 3.25 5.34602 3.25 5.34182C3.25 5.33762 3.25 5.33343 3.25 5.32926C3.25 5.32509 3.25 5.32093 3.25 5.31679C3.25 5.31265 3.25 5.30852 3.25 5.30441C3.25 5.30029 3.25 5.2962 3.25 5.29211C3.25 5.28803 3.25 5.28396 3.25 5.27991C3.25 5.27586 3.25 5.27182 3.25 5.2678C3.25 5.26378 3.25 5.25978 3.25 5.25578C3.25 5.25179 3.25 5.24782 3.25 5.24386C3.25 5.2399 3.25 5.23595 3.25 5.23202C3.25 5.22809 3.25 5.22418 3.25 5.22028C3.25 5.21638 3.25 5.2125 3.25 5.20863C3.25 5.20477 3.25 5.20091 3.25 5.19708C3.25 5.19324 3.25 5.18942 3.25 5.18562C3.25 5.18181 3.25 5.17802 3.25 5.17425C3.25 5.17048 3.25 5.16672 3.25 5.16298C3.25 5.15923 3.25 5.15551 3.25 5.1518C3.25 5.14809 3.25 5.1444 3.25 5.14072C3.25 5.13704 3.25 5.13338 3.25 5.12973C3.25 5.12609 3.25 5.12246 3.25 5.11884C3.25 5.11523 3.25 5.11163 3.25 5.10805C3.25 5.10447 3.25 5.1009 3.25 5.09735C3.25 5.0938 3.25 5.09027 3.25 5.08676C3.25 5.08324 3.25 5.07974 3.25 5.07626C3.25 5.07277 3.25 5.0693 3.25 5.06585C3.25 5.0624 3.25 5.05897 3.25 5.05555C3.25 5.05213 3.25 5.04873 3.25 5.04535C3.25 5.04196 3.25 5.03859 3.25 5.03524C3.25 5.03189 3.25 5.02856 3.25 5.02524C3.25 5.02192 3.25 5.01862 3.25 5.01533C3.25 5.01205 3.25 5.00878 3.25 5.00553C3.25 5.00228 3.25 4.99905 3.25 4.99583H1.75ZM10.5699 7.91668V4.58334H9.06988V7.91668H10.5699ZM2.91667 5.33334H9.81988V3.83334H2.91667V5.33334ZM9.81988 5.33334H11.2018V3.83334H9.81988V5.33334ZM13.75 9.08334H15.4167V7.58334H13.75V9.08334ZM11.6667 15.3333H13.572V13.8333H11.6667V15.3333ZM17.5 14.9167H18.3333V13.4167H17.5V14.9167ZM10.2365 7.58334C10.4206 7.58334 10.5699 7.73258 10.5699 7.91668H9.06988C9.06988 8.56101 9.59221 9.08334 10.2365 9.08334V7.58334ZM3.25 4.99583C3.25 5.18976 3.09086 5.33334 2.91667 5.33334V3.83334C2.28224 3.83334 1.75 4.34166 1.75 4.99583H3.25ZM19.5 8.75001C19.5 8.10568 18.9777 7.58334 18.3333 7.58334V9.08334C18.1492 9.08334 18 8.9341 18 8.75001H19.5ZM18 13.75C18 13.5659 18.1492 13.4167 18.3333 13.4167V14.9167C18.9777 14.9167 19.5 14.3943 19.5 13.75H18Z" fill="#151515"/>
<path d="M4.46277 9.16668V7.50002C4.46277 7.03978 4.83587 6.66669 5.2961 6.66669H6.96277C7.423 6.66669 7.7961 7.03978 7.7961 7.50002V9.16669C7.7961 9.62692 7.423 10 6.96277 10H5.2961C4.83586 10 4.46277 9.62692 4.46277 9.16668Z" stroke="#151515" stroke-width="1.5"/>
<path d="M14.1666 8.33334V6.25001C14.1666 6.01989 14.3532 5.83334 14.5833 5.83334H15.4166C15.6467 5.83334 15.8333 6.01989 15.8333 6.25001V8.33334" stroke="#151515" stroke-width="1.5"/>
<circle cx="5.96171" cy="14.587" r="1.48979" stroke="#151515" stroke-width="1.5"/>
<circle cx="9.87455" cy="14.587" r="1.48979" stroke="#151515" stroke-width="1.5"/>
<circle cx="15.5485" cy="14.587" r="1.48979" stroke="#151515" stroke-width="1.5"/>
</g>
<defs>
<clipPath id="clip0_1526_428">
<rect width="20" height="20" fill="white" transform="matrix(1 0 0 -1 0 20)"/>
</clipPath>
</defs>
</svg>
