<svg width="20" height="20" viewBox="0 0 20 20" fill="none" xmlns="http://www.w3.org/2000/svg">
<path d="M10.4166 12.2222C12.3343 12.2222 13.8888 10.6677 13.8888 8.75C13.8888 7.96833 13.6305 7.24698 13.1947 6.66666C13.0889 6.52587 12.9727 6.39338 12.8472 6.27033M10.4166 12.2222C8.49897 12.2222 6.9444 10.6677 6.9444 8.75C6.9444 7.77868 7.34323 6.90052 7.98607 6.27033M10.4166 12.2222V15M10.4166 17.4305V15M10.4166 15H7.98607M10.4166 15H12.8472M16.6666 2.5H13.75M16.6666 2.5V5.41667M16.6666 2.5L12.8472 6.27033M12.8472 6.27033C12.2209 5.65636 11.363 5.27778 10.4166 5.27778C9.47029 5.27778 8.61237 5.65636 7.98607 6.27033M7.98607 6.27033L6.66663 5M4.16663 2.5H6.66663M4.16663 2.5V5M4.16663 2.5L6.66663 5M6.66663 5L4.99996 6.66666M6.66663 5L8.33329 3.33333" stroke="#151515" stroke-width="1.5" stroke-linecap="round"/>
</svg>
