<svg width="20" height="20" viewBox="0 0 20 20" fill="none" xmlns="http://www.w3.org/2000/svg">
<path fill-rule="evenodd" clip-rule="evenodd" d="M10.3101 3.9909C12.8632 4.12057 14.9956 5.84244 15.7365 8.18279H16.8148C17.5049 8.18301 18.0648 8.74257 18.0648 9.43279V10.5672C18.0647 11.2574 17.5049 11.817 16.8148 11.8172H15.7373C14.9667 14.2516 12.6899 16.016 10.0008 16.0164L9.69076 16.0091C7.13747 15.8797 5.00604 14.1577 4.26514 11.8172H3.18604L3.05827 11.8107C2.42799 11.7467 1.93611 11.2144 1.93604 10.5672V9.43279C1.93604 8.78557 2.42793 8.2533 3.05827 8.1893L3.18604 8.18279H4.26351C5.03423 5.74816 7.31135 3.98276 10.0008 3.98276L10.3101 3.9909ZM5.59408 11.8172C6.30887 13.548 8.01201 14.7664 10.0008 14.7664C11.9893 14.766 13.6922 13.5479 14.4067 11.8172H5.59408ZM3.18604 10.5672H16.8148V9.43279H3.18604V10.5672ZM10.0008 5.23276C8.012 5.23276 6.30886 6.45198 5.59408 8.18279H14.4067C13.6922 6.45213 11.9893 5.23316 10.0008 5.23276Z" fill="black"/>
</svg>
