<svg width="20" height="20" viewBox="0 0 20 20" fill="none" xmlns="http://www.w3.org/2000/svg">
<path d="M8.98554 12.1773C8.92743 12.0095 8.76938 11.897 8.59182 11.897H6.78834C6.61079 11.897 6.45274 12.0095 6.39462 12.1773L6.12259 12.9627C6.06448 13.1305 5.90643 13.243 5.72888 13.243H4.78988C4.49303 13.243 4.2914 12.9414 4.40483 12.6671L6.77973 6.9241C6.84416 6.76829 6.99615 6.66666 7.16477 6.66666H8.21609C8.38436 6.66666 8.5361 6.76787 8.60076 6.92321L10.9913 12.6662C11.1056 12.9406 10.9039 13.243 10.6066 13.243H9.65129C9.47373 13.243 9.31568 13.1305 9.25757 12.9627L8.98554 12.1773ZM7.06605 10.2372C6.97218 10.5079 7.17321 10.7904 7.45972 10.7904H7.91446C8.20098 10.7904 8.402 10.5079 8.30814 10.2372L8.08076 9.58154C7.95123 9.20799 7.42295 9.20799 7.29342 9.58154L7.06605 10.2372Z" fill="#151515"/>
<path d="M14.4621 13.243C14.4019 13.243 14.3574 13.235 14.3314 13.1807C14.2723 13.0575 14.0981 12.9864 13.9847 13.0625C13.7154 13.2431 13.3841 13.3333 12.9908 13.3333C12.4489 13.3333 11.9986 13.1978 11.64 12.9268C11.2854 12.6558 11.108 12.305 11.108 11.8744C11.108 11.3625 11.3232 10.9666 11.7535 10.6865C12.1879 10.4065 12.8115 10.2635 13.6243 10.2574H13.7454C13.9624 10.2574 14.1383 10.0815 14.1383 9.8645C14.1383 9.64468 14.0885 9.48961 13.9889 9.39927C13.8893 9.30894 13.7439 9.26377 13.5526 9.26377C13.3181 9.26377 13.1487 9.32134 13.0444 9.43646C12.8898 9.607 12.7325 9.82384 12.5024 9.82384H11.6442C11.4141 9.82384 11.2188 9.63168 11.2961 9.41491C11.3932 9.14243 11.5935 8.90687 11.897 8.70822C12.3473 8.41313 12.9151 8.26558 13.6004 8.26558C14.3097 8.26558 14.8576 8.4056 15.2441 8.68563C15.6346 8.96266 15.8298 9.36013 15.8298 9.87805V12.1771C15.8378 12.5986 15.8298 12.9101 15.8298 13.1662C15.8298 13.2086 15.7954 13.243 15.753 13.243H14.4621ZM13.3673 12.3306C13.5546 12.3306 13.714 12.302 13.8455 12.2448C13.917 12.2137 13.9785 12.1794 14.03 12.1421C14.1076 12.0858 14.1383 11.9892 14.1383 11.8934V11.4317C14.1383 11.2073 13.9564 11.0253 13.7319 11.0253C13.445 11.0253 13.2179 11.0945 13.0505 11.2331C12.8872 11.3716 12.8055 11.5568 12.8055 11.7886C12.8055 12.15 12.9928 12.3306 13.3673 12.3306Z" fill="#151515"/>
<path d="M3.33368 2.41666H16.6667C17.1729 2.41667 17.5837 2.8274 17.5837 3.33366V16.6667C17.5837 17.1729 17.1729 17.5837 16.6667 17.5837H3.33368C2.82742 17.5837 2.41669 17.1729 2.41669 16.6667V3.33366C2.41669 2.8274 2.82742 2.41666 3.33368 2.41666Z" stroke="#151515" stroke-width="1.5"/>
</svg>
