<svg width="20" height="20" viewBox="0 0 20 20" fill="none" xmlns="http://www.w3.org/2000/svg">
<path d="M7.29906 7.26093L7.29906 2.75948M7.29906 7.26093L5.04834 5.46035M7.29906 7.26093L9.54978 5.46035" stroke="#151515" stroke-width="1.5" stroke-linecap="round" stroke-linejoin="round"/>
<path d="M8.71966 16.4156C8.66482 16.2424 8.50409 16.1247 8.32244 16.1247H5.97344C5.79178 16.1247 5.63106 16.2424 5.57622 16.4156L5.18483 17.6515C5.12999 17.8247 4.96927 17.9424 4.78761 17.9424H3.40066C3.10926 17.9424 2.90786 17.6509 3.01092 17.3784L6.05356 9.33082C6.11484 9.16874 6.27003 9.06151 6.4433 9.06151H7.85325C8.02619 9.06151 8.18115 9.16834 8.24266 9.32997L11.3054 17.3775C11.4092 17.6502 11.2077 17.9424 10.916 17.9424H9.50827C9.32661 17.9424 9.16588 17.8247 9.11104 17.6515L8.71966 16.4156ZM6.20943 14.4133C6.17536 14.5208 6.25558 14.6304 6.36831 14.6304H7.92019C8.03292 14.6304 8.11313 14.5208 8.07906 14.4133L7.30312 11.9658C7.25396 11.8108 7.03454 11.8108 6.98537 11.9658L6.20943 14.4133Z" fill="#151515"/>
<path d="M15.5159 17.9424C15.4379 17.9424 15.3804 17.9319 15.3489 17.8606C15.2776 17.6991 15.0475 17.6072 14.9041 17.71C14.5744 17.9463 14.1706 18.0644 13.6926 18.0644C13.0235 18.0644 12.4676 17.8814 12.0248 17.5154C11.587 17.1495 11.368 16.6757 11.368 16.0942C11.368 15.403 11.6337 14.8682 12.165 14.4901C12.7013 14.1119 13.4712 13.9188 14.4748 13.9106H14.6928C14.9229 13.9106 15.1095 13.7241 15.1095 13.494V13.38C15.1095 13.0831 15.048 12.8737 14.925 12.7517C14.802 12.6297 14.6224 12.5687 14.3863 12.5687C14.0311 12.5687 13.7969 12.6857 13.6836 12.9195C13.5833 13.1267 13.4175 13.3251 13.1874 13.3251H11.9323C11.7022 13.3251 11.5095 13.136 11.5615 12.9118C11.6608 12.4844 11.921 12.12 12.3421 11.8185C12.8981 11.42 13.5991 11.2207 14.4453 11.2207C15.321 11.2207 15.9975 11.4098 16.4747 11.788C16.9568 12.1621 17.1979 12.6989 17.1979 13.3983V16.5029C17.2077 17.0722 17.1979 17.4928 17.1979 17.8387C17.1979 17.896 17.1515 17.9424 17.0942 17.9424H15.5159ZM14.1575 16.7103C14.3887 16.7103 14.5855 16.6717 14.7479 16.5944C14.8558 16.543 14.9453 16.4854 15.0162 16.4214C15.0828 16.3614 15.1095 16.2715 15.1095 16.1819V15.3642C15.1095 15.1341 14.9229 14.9475 14.6928 14.9475H14.6077C14.2535 14.9475 13.973 15.0411 13.7664 15.2281C13.5647 15.4152 13.4638 15.6652 13.4638 15.9784C13.4638 16.4663 13.6951 16.7103 14.1575 16.7103Z" fill="#151515"/>
</svg>
