<svg width="20" height="20" viewBox="0 0 20 20" fill="none" xmlns="http://www.w3.org/2000/svg">
<path d="M15.5451 5.06559H4.45487C3.5344 5.06559 2.78821 5.81178 2.78821 6.73225V13.2677C2.78821 14.1882 3.5344 14.9344 4.45487 14.9344H15.5451C16.4656 14.9344 17.2118 14.1882 17.2118 13.2677V6.73225C17.2118 5.81178 16.4656 5.06559 15.5451 5.06559Z" stroke="#151515" stroke-width="1.5" stroke-linecap="round" stroke-linejoin="round"/>
<path fill-rule="evenodd" clip-rule="evenodd" d="M13.0365 8.10213C12.8142 8.10213 12.6569 8.2999 12.6569 8.52226V11.4777C12.6569 11.7 12.8142 11.8978 13.0365 11.8978C14.0847 11.8978 14.9344 11.0481 14.9344 9.99997C14.9344 8.95182 14.0847 8.10213 13.0365 8.10213Z" fill="#151515"/>
<path fill-rule="evenodd" clip-rule="evenodd" d="M6.96345 8.10213C7.18578 8.10213 7.34303 8.29988 7.34303 8.52221V11.4777C7.34303 11.7001 7.18578 11.8978 6.96345 11.8978C5.9153 11.8978 5.06561 11.0481 5.06561 9.99997C5.06561 8.95182 5.9153 8.10213 6.96345 8.10213Z" fill="#151515"/>
<path d="M8.86133 8.93546C8.86133 8.47522 9.23442 8.10213 9.69466 8.10213H10.3054C10.7656 8.10213 11.1387 8.47522 11.1387 8.93546V11.0645C11.1387 11.5247 10.7656 11.8978 10.3054 11.8978H9.69466C9.23442 11.8978 8.86133 11.5247 8.86133 11.0645V8.93546Z" fill="#151515"/>
</svg>
