<svg width="20" height="20" viewBox="0 0 20 20" fill="none" xmlns="http://www.w3.org/2000/svg">
<path d="M10 5.83334C6.33953 5.83334 3.74212 8.75677 2.84454 9.93405C2.62847 10.2174 2.64901 10.6009 2.89133 10.8622C3.88797 11.9369 6.67934 14.5833 10 14.5833C13.3207 14.5833 16.112 11.9369 17.1087 10.8622C17.351 10.6009 17.3715 10.2174 17.1555 9.93405C16.2579 8.75678 13.6605 5.83334 10 5.83334Z" stroke="#151515" stroke-width="1.5"/>
<path d="M11.6667 10C11.6667 10.9205 10.9205 11.6667 10 11.6667C9.07957 11.6667 8.33337 10.9205 8.33337 10C8.33337 9.07954 9.07957 8.33334 10 8.33334C10.9205 8.33334 11.6667 9.07954 11.6667 10Z" fill="#151515"/>
</svg>
