<svg width="20" height="20" viewBox="0 0 20 20" fill="none" xmlns="http://www.w3.org/2000/svg">
<path d="M9.80786 2.92118C10.4616 2.92118 10.9923 3.45106 10.9924 4.10477C10.9924 4.75864 10.4617 5.28934 9.80786 5.28934C9.15416 5.28914 8.62427 4.75851 8.62427 4.10477C8.62445 3.45118 9.15428 2.92137 9.80786 2.92118Z" fill="#151515" stroke="#151515" stroke-width="1.5"/>
<path d="M9.79499 12.4326H7.82183C8.22146 10.6664 8.22146 9.22621 8.22146 7.78602L10.1525 7.97536C10.1525 9.32935 9.79499 10.9254 9.79499 12.4326Z" fill="#151515"/>
<path d="M7.82183 12.4326C6.62933 14.54 5.64722 17.8288 5.64722 17.8288M7.82183 12.4326C8.45782 12.4326 9.15899 12.4326 9.79499 12.4326M7.82183 12.4326C8.22146 10.6664 8.22146 9.22621 8.22146 7.78602L10.1525 7.97536C10.1525 9.32935 9.79499 10.9254 9.79499 12.4326M9.79499 12.4326C11.0272 14.54 10.3853 17.8288 10.3853 17.8288" stroke="#151515" stroke-width="1.5" stroke-linecap="round" stroke-linejoin="round"/>
<path d="M10.184 7.99745L12.4343 10.8564L14.7389 9.90321" stroke="#151515" stroke-width="1.5" stroke-linecap="round" stroke-linejoin="round"/>
<path d="M8.16248 7.78466L5.2865 8.32933L7.23607 11.3978" stroke="#151515" stroke-width="1.5" stroke-linecap="round" stroke-linejoin="round"/>
</svg>
