<svg width="20" height="20" viewBox="0 0 20 20" fill="none" xmlns="http://www.w3.org/2000/svg">
<path d="M6.63489 2.68558H13.3654C14.3317 2.68581 15.1154 3.46922 15.1154 4.43558V15.5645C15.1153 16.5308 14.3316 17.3143 13.3654 17.3145H6.63489C5.66842 17.3145 4.88494 16.5309 4.88489 15.5645V4.43558C4.88489 3.46908 5.66839 2.68558 6.63489 2.68558Z" stroke="#151515" stroke-width="1.5"/>
<path d="M6.33435 4.86809C6.33435 4.4632 6.66258 4.13496 7.06748 4.13496H12.9325C13.3374 4.13496 13.6656 4.4632 13.6656 4.86809C13.6656 5.27299 13.3374 5.60122 12.9325 5.60122H7.06748C6.66258 5.60122 6.33435 5.27299 6.33435 4.86809Z" fill="#151515"/>
<circle cx="10" cy="12.1994" r="2.18251" stroke="#151515" stroke-width="1.5"/>
<path d="M4.86804 7.06747L15.1318 7.06747" stroke="#151515" stroke-width="1.5" stroke-linecap="round"/>
</svg>
