<svg width="20" height="20" viewBox="0 0 20 20" fill="none" xmlns="http://www.w3.org/2000/svg">
<circle cx="6.49074" cy="3.78251" r="1.09694" fill="#151515" stroke="#151515" stroke-width="1.5"/>
<path d="M4.27454 12.5826V7.107H5.17484H6.52685H7.96818H8.70718V12.5826H7.96818H7.22963L7.22975 17.4498H5.75209V12.5826H5.17484H4.27454Z" fill="#151515"/>
<path d="M5.75209 12.5826H5.17484H4.27454V7.107L5.17484 7.107H6.52685L7.96818 7.107L8.70718 7.107V12.5826H7.96818H7.22963M5.75209 12.5826V17.4498H7.22975L7.22963 12.5826M5.75209 12.5826H7.22963" stroke="#151515" stroke-width="1.5" stroke-linecap="round" stroke-linejoin="round"/>
<path d="M12.401 17.4498V13.3866H10.5541L12.1931 7.107H14.0859L15.7255 13.3866H13.8786V17.4498H12.401Z" fill="#151515"/>
<path d="M12.401 13.3866H13.8786M12.401 13.3866V17.4498H13.8786V13.3866M12.401 13.3866H10.5541L12.1931 7.107H14.0859L15.7255 13.3866H13.8786" stroke="#151515" stroke-width="1.5" stroke-linecap="round" stroke-linejoin="round"/>
<circle cx="13.1398" cy="3.78251" r="1.09694" fill="#151515" stroke="#151515" stroke-width="1.5"/>
</svg>
