<svg width="20" height="20" viewBox="0 0 20 20" fill="none" xmlns="http://www.w3.org/2000/svg">
<path d="M8.53072 11.4779L9.32222 6.22989C9.3837 5.82226 9.73399 5.52083 10.1462 5.52083H10.329C10.8477 5.52083 11.2403 5.9895 11.1495 6.50011L9.75976 14.3126C9.68902 14.7103 9.34325 15 8.93931 15H8.40134C8.00354 15 7.66121 14.7188 7.58389 14.3286L6.61015 9.41406L5.64821 14.3268C5.57164 14.7179 5.22891 15 4.83041 15H4.28702C3.88329 15 3.53764 14.7106 3.46666 14.3132L2.07158 6.50066C1.98037 5.98988 2.37308 5.52083 2.89193 5.52083H3.08642C3.49895 5.52083 3.8494 5.82266 3.91055 6.23064L4.69608 11.4714L5.68213 6.20092C5.7559 5.80662 6.10011 5.52083 6.50125 5.52083H6.72542C7.12661 5.52083 7.47086 5.80671 7.54457 6.20108L8.53072 11.4779Z" fill="#151515"/>
<path d="M17.6158 11.8424C17.8531 11.8424 18.0444 12.0409 18.0167 12.2766C17.9144 13.1449 17.6221 13.8183 17.1398 14.2969C16.5799 14.8524 15.79 15.1302 14.77 15.1302C13.698 15.1302 12.8755 14.7786 12.3026 14.0755C11.734 13.3681 11.4497 12.3611 11.4497 11.0547V9.45963C11.4497 8.15755 11.7449 7.15495 12.3351 6.45182C12.9254 5.74436 13.7457 5.39062 14.7961 5.39062C15.8291 5.39062 16.6125 5.67925 17.1463 6.25651C17.6083 6.75205 17.8992 7.43309 18.019 8.29964C18.052 8.53865 17.8595 8.74349 17.6182 8.74349H16.5497C16.3238 8.74349 16.1416 8.56312 16.1202 8.33823C16.0771 7.88544 15.9808 7.56045 15.8312 7.36328C15.6446 7.1072 15.2996 6.97917 14.7961 6.97917C14.2839 6.97917 13.9215 7.15929 13.7088 7.51953C13.4962 7.87543 13.3833 8.46354 13.3703 9.28385V11.0742C13.3703 12.0161 13.4745 12.6628 13.6828 13.0143C13.8955 13.3659 14.2579 13.5417 14.77 13.5417C15.2735 13.5417 15.6207 13.4201 15.8117 13.1771C15.9602 12.9847 16.0589 12.6728 16.1076 12.2414C16.1328 12.0193 16.3138 11.8424 16.5373 11.8424H17.6158Z" fill="#151515"/>
</svg>
