<svg width="20" height="20" viewBox="0 0 20 20" fill="none" xmlns="http://www.w3.org/2000/svg">
<path fill-rule="evenodd" clip-rule="evenodd" d="M17.6983 10.6941C17.8872 10.8831 17.8872 11.1894 17.6983 11.3784L11.5396 17.5371C11.3506 17.726 11.0443 17.726 10.8553 17.5371L10.1699 16.8517C9.9814 16.6631 9.98091 16.3576 10.1689 16.1685L12.8321 13.4883L6.33133 6.9875L3.67021 9.6655C3.48143 9.85548 3.17422 9.85597 2.98484 9.66658L2.30163 8.98337C2.11267 8.79441 2.11266 8.48804 2.30163 8.29908L8.46028 2.14042C8.64924 1.95146 8.95561 1.95146 9.14458 2.14042L9.82764 2.82349C10.0171 3.01293 10.0165 3.32025 9.82641 3.50901L7.50984 5.80899L14.0106 12.3098L16.3297 10.0074C16.5188 9.81955 16.8243 9.8201 17.0127 10.0086L17.6983 10.6941Z" fill="#151515"/>
<path d="M13.7161 16.7292L13.0318 16.0449L15.978 13.0987L16.6623 13.7829L13.7161 16.7292Z" stroke="#151515" stroke-width="1.5" stroke-linecap="round" stroke-linejoin="round"/>
<path d="M3.7937 6.80687L3.10941 6.12257L6.05566 3.17632L6.73996 3.86061L3.7937 6.80687Z" stroke="#151515" stroke-width="1.5" stroke-linecap="round" stroke-linejoin="round"/>
</svg>
