<svg width="20" height="20" viewBox="0 0 20 20" fill="none" xmlns="http://www.w3.org/2000/svg">
<path d="M9.06895 14.4919C8.95789 14.5739 8.95881 14.734 9.05644 14.8316L9.8814 15.6566C9.97903 15.7542 10.1373 15.7542 10.235 15.6566L11.0599 14.8316C11.1575 14.734 11.1585 14.5739 11.0474 14.4919C10.7707 14.2875 10.4286 14.1667 10.0582 14.1667C9.68779 14.1667 9.34563 14.2875 9.06895 14.4919Z" fill="#151515"/>
<path d="M2.72522 7.80487C4.64773 6.04927 7.20629 4.97849 10.0149 4.97849C12.8091 4.97849 15.3557 6.03823 17.2748 7.7777" stroke="#151515" stroke-width="1.5" stroke-linecap="round"/>
<path d="M5.29016 10.0381C6.53878 8.89787 8.20049 8.20243 10.0246 8.20243C11.8394 8.20243 13.4933 8.8907 14.7397 10.0204" stroke="#151515" stroke-width="1.5" stroke-linecap="round"/>
<path d="M7.67627 12.4306C8.30687 11.8548 9.14609 11.5035 10.0674 11.5035C10.9839 11.5035 11.8192 11.8511 12.4486 12.4217" stroke="#151515" stroke-width="1.5" stroke-linecap="round"/>
</svg>
