<svg width="20" height="20" viewBox="0 0 20 20" fill="none" xmlns="http://www.w3.org/2000/svg">
<circle cx="10" cy="10.1477" r="7.16666" stroke="#151515" stroke-width="1.5"/>
<path d="M4.24243 5.82959C4.24243 5.82959 5.68183 8.70838 10 8.70838C14.3182 8.70838 15.7576 5.82959 15.7576 5.82959" stroke="#151515" stroke-width="1.5" stroke-linecap="round" stroke-linejoin="round"/>
<path d="M2.80298 9.78793C2.80298 9.78793 5.68177 13.0266 9.99995 13.0266C14.3181 13.0266 17.1969 9.78793 17.1969 9.78793" stroke="#151515" stroke-width="1.5" stroke-linecap="round" stroke-linejoin="round"/>
<path d="M8.56055 3.31058C8.56055 3.31058 6.76131 6.18936 6.76131 10.5075C6.7613 14.8257 8.2007 16.9848 8.2007 16.9848" stroke="#151515" stroke-width="1.5" stroke-linecap="round" stroke-linejoin="round"/>
<path d="M11.0795 17.3447C11.0795 17.3447 12.8787 14.8258 12.8787 10.5076C12.8787 6.1894 11.4393 3.31061 11.4393 3.31061" stroke="#151515" stroke-width="1.5" stroke-linecap="round" stroke-linejoin="round"/>
</svg>
