<svg xmlns="http://www.w3.org/2000/svg" width="24" height="24"><path fill="currentColor" fill-rule="evenodd" d="M23 12c0 6.075-4.925 11-11 11S1 18.075 1 12 5.925 1 12 1s11 4.925 11 11Zm-5.168-3.344a.9.9 0 0 1-.488 1.175l-3.328 1.38c-.06.41-.165.82-.255 1.176v.002l-.024.091c-.13.508-.231.935-.263 1.307l2.198 3.759a.9.9 0 1 1-1.554.908l-2.07-3.54h-.162l-1.997 3.53a.9.9 0 0 1-1.567-.887l2.13-3.763c-.033-.39-.147-.8-.293-1.295l-.028-.095a9.251 9.251 0 0 1-.296-1.202L6.644 9.826a.9.9 0 1 1 .712-1.653l3.514 1.515h2.116l3.67-1.52a.9.9 0 0 1 1.176.488Zm-5.76.201a1.429 1.429 0 1 0 0-2.857 1.429 1.429 0 0 0 0 2.857Z" clip-rule="evenodd"/></svg>