<svg xmlns="http://www.w3.org/2000/svg" width="24" height="24"><g fill="none" stroke="currentColor"><path stroke-width="1.727" d="M16.203 16.203c-3.71 3.71-9.546 3.889-10.96 2.475-1.415-1.415-1.235-7.25 2.475-10.96 3.71-3.71 9.192-4.243 10.96-2.475 1.767 1.767 1.235 7.25-2.475 10.96Z"/><path stroke-linecap="round" stroke-linejoin="round" stroke-width="1.5" d="m14.784 9.136-.702.702m-4.238 4.239 2.119-2.12m-2.12 2.12-1.06-1.06m1.06 1.06 1.061 1.06m-1.06-1.06-.712.712m4.95-4.95-1.06-1.061m1.06 1.06 1.06 1.061m-1.06-1.06-2.12 2.119m0 0L10.9 10.9m1.063 1.058 1.058 1.063m1.768-8.839s.353 1.768 1.767 3.182c1.415 1.414 3.182 1.768 3.182 1.768M9.485 19.385s-.353-1.768-1.767-3.182c-1.415-1.414-3.182-1.768-3.182-1.768"/></g></svg>