<svg xmlns="http://www.w3.org/2000/svg" width="24" height="24"><g fill="none"><path stroke="currentColor" stroke-linecap="round" stroke-linejoin="round" stroke-width="2" d="M18 7.5H4a.5.5 0 0 0-.5.5v8a.5.5 0 0 0 .5.5h14a.5.5 0 0 0 .5-.5v-1.143a.5.5 0 0 1 .5-.5h1a.5.5 0 0 0 .5-.5V9.714a.5.5 0 0 0-.5-.5h-1a.5.5 0 0 1-.5-.5V8a.5.5 0 0 0-.5-.5Z"/><path fill="currentColor" d="M5.5 10.5a1 1 0 0 1 1-1h1a1 1 0 0 1 1 1v3a1 1 0 0 1-1 1h-1a1 1 0 0 1-1-1v-3Zm4 0a1 1 0 0 1 1-1h1a1 1 0 0 1 1 1v3a1 1 0 0 1-1 1h-1a1 1 0 0 1-1-1v-3Z"/></g></svg>