<svg xmlns="http://www.w3.org/2000/svg" width="24" height="24"><g fill="none" stroke="currentColor" stroke-width="1.672"><circle cx="8.1" cy="16.458" r="1.95"/><circle cx="15.9" cy="16.458" r="1.95"/><path stroke-linecap="round" d="M5.313 15.9v0a2.229 2.229 0 0 1-2.228-2.228v-.558a2.786 2.786 0 0 1 2.786-2.786h12.258a2.786 2.786 0 0 1 2.786 2.786v0A2.786 2.786 0 0 1 18.13 15.9v0M9.771 4.756v5.572m0-5.572H7.542c-1.114 0-1.903.61-2.376 1.761-.474 1.15-.41 3.811-.41 3.811h5.015m0-5.572h2.23c1.114 0 1.876 1.105 2.113 1.761.672 1.86.672 3.811.672 3.811H9.771"/><path d="M10.328 16.458h3.344"/></g></svg>