<svg xmlns="http://www.w3.org/2000/svg" width="24" height="24"><path fill="currentColor" fill-rule="evenodd" d="M18.078 10.527a1.042 1.042 0 0 1-1.473-.03l-3.698-3.853a1.042 1.042 0 0 0-1.504 0l-3.698 3.853a1.042 1.042 0 0 1-1.473.03l-.376-.361a1.042 1.042 0 0 1-.03-1.473l5.04-5.25c.7-.73 1.877-.73 2.578 0l5.04 5.25a1.042 1.042 0 0 1-.03 1.473l-.376.36Zm.376 3.408c.415.399.429 1.058.03 1.473l-5.04 5.25c-.7.73-1.877.73-2.577 0l-5.041-5.25a1.042 1.042 0 0 1 .03-1.473l.376-.36a1.042 1.042 0 0 1 1.473.03l3.698 3.852c.41.427 1.094.427 1.504 0l3.698-3.853a1.042 1.042 0 0 1 1.473-.03l.376.361Z" clip-rule="evenodd"/></svg>