<svg xmlns="http://www.w3.org/2000/svg" width="24" height="24"><path fill="currentColor" fill-rule="evenodd" d="M8.004 6.872a.894.894 0 0 1-.026 1.264L4.672 11.31a.894.894 0 0 0 0 1.29l3.306 3.174a.894.894 0 0 1 .026 1.264l-.31.323a.894.894 0 0 1-1.264.025l-4.506-4.325a1.537 1.537 0 0 1 0-2.212L6.43 6.524a.894.894 0 0 1 1.264.025l.31.323Zm8.226-.322a.894.894 0 0 1 1.264-.026L22 10.849c.626.601.626 1.61 0 2.212l-4.506 4.325a.894.894 0 0 1-1.264-.025l-.31-.323a.894.894 0 0 1 .026-1.264l3.307-3.174a.894.894 0 0 0 0-1.29l-3.307-3.174a.894.894 0 0 1-.025-1.264l.309-.323Zm-3.414-2.683a.894.894 0 0 1 1.085-.65l.433.108c.48.12.77.605.651 1.085L11.3 19.148a.894.894 0 0 1-1.084.651l-.434-.108a.894.894 0 0 1-.65-1.085l3.684-14.739Z" clip-rule="evenodd"/></svg>