<svg xmlns="http://www.w3.org/2000/svg" width="24" height="24"><path fill="currentColor" fill-rule="evenodd" d="M10.631 6.127a1.042 1.042 0 0 1-.03 1.473L6.75 11.3a1.042 1.042 0 0 0 0 1.503l3.852 3.699c.415.398.429 1.058.03 1.473l-.36.376a1.042 1.042 0 0 1-1.474.03l-5.25-5.04a1.791 1.791 0 0 1 0-2.578l5.25-5.04a1.042 1.042 0 0 1 1.473.03l.361.375Zm3.409-.375a1.042 1.042 0 0 1 1.473-.03l5.25 5.04c.73.7.73 1.877 0 2.577l-5.25 5.04a1.042 1.042 0 0 1-1.473-.03l-.361-.375a1.042 1.042 0 0 1 .03-1.473l3.852-3.699a1.042 1.042 0 0 0 0-1.503L13.71 7.6a1.042 1.042 0 0 1-.03-1.473l.36-.375Z" clip-rule="evenodd"/></svg>