<svg xmlns="http://www.w3.org/2000/svg" width="24" height="24"><path fill="currentColor" fill-rule="evenodd" d="M20.825 5.435a1 1 0 0 1-.26 1.39L12.27 12.5l8.294 5.675a1 1 0 0 1-1.13 1.65l-8.923-6.105-2.63 1.878A3.505 3.505 0 0 1 4.5 20a3.5 3.5 0 1 1 2.333-6.11l1.946-1.39-1.946-1.39a3.5 3.5 0 1 1 1.05-1.708l2.63 1.878 8.922-6.105a1 1 0 0 1 1.39.26ZM11.5 12.5a1 1 0 1 1-2 0 1 1 0 0 1 2 0Zm-8.5 4a1.5 1.5 0 1 0 3 0 1.5 1.5 0 0 0-3 0Zm0-8a1.5 1.5 0 1 0 3 0 1.5 1.5 0 0 0-3 0Z" clip-rule="evenodd"/></svg>