<svg xmlns="http://www.w3.org/2000/svg" width="24" height="24"><g fill="none"><path fill="currentColor" d="M3.083 5.567c5.451-4.143 12.194-4.08 17.041.11.405.35.42.964.06 1.36l-2.199 2.428a1 1 0 0 1-1.143.244l-1.413-.621a1 1 0 0 1-.56-1.185l.553-1.984a1 1 0 0 0-.952-1.27l-5.829-.063a1 1 0 0 0-.983 1.236l.511 2.107a1 1 0 0 1-.565 1.15L6.2 9.703a1 1 0 0 1-1.174-.272l-2.08-2.484c-.351-.42-.3-1.05.137-1.381Z"/><path stroke="currentColor" stroke-linecap="round" stroke-linejoin="round" d="M3.083 5.567c5.451-4.143 12.194-4.08 17.041.11.405.35.42.964.06 1.36l-2.199 2.428a1 1 0 0 1-1.143.244l-1.413-.621a1 1 0 0 1-.56-1.185l.553-1.984a1 1 0 0 0-.952-1.27l-5.829-.063a1 1 0 0 0-.983 1.236l.511 2.107a1 1 0 0 1-.565 1.15L6.2 9.703a1 1 0 0 1-1.174-.272l-2.08-2.484c-.351-.42-.3-1.05.137-1.381Z"/><circle cx="11.915" cy="15.674" r="2.551" stroke="currentColor" stroke-width="1.5"/><path stroke="currentColor" stroke-linecap="round" stroke-linejoin="round" stroke-width="2" d="M12.628 10.85h-1.85c-.72 0-2.957-.125-3.442 1.33l-1.64 5.332c-.446 1.37.206 2.988 1.74 2.988h8.973c1.567 0 2.186-1.586 1.7-3.053l-2.092-5.267c-.485-1.33-2.697-1.33-3.389-1.33Z"/></g></svg>