<svg xmlns="http://www.w3.org/2000/svg" width="24" height="24"><g fill="none"><path stroke="currentColor" stroke-linecap="round" stroke-linejoin="round" stroke-width="2" d="m21 18.544-2.241 1.393-2.69-5.571h-5.38m0 0h-.896L8 6.937h1.793L10.043 9m.647 5.366L10.042 9m0 0H14"/><path fill="currentColor" fill-rule="evenodd" d="M16.086 18.704c-.48-.48-1.313-.297-1.73.237a4.672 4.672 0 1 1-7.14-6.016c.291-.32.438-.76.314-1.173-.201-.673-.993-.966-1.498-.477a6.672 6.672 0 1 0 10.187 8.502c.227-.34.155-.785-.133-1.073Z" clip-rule="evenodd"/><path fill="currentColor" stroke="currentColor" stroke-width="1.5" d="M10.25 3a1.25 1.25 0 1 1-2.5 0 1.25 1.25 0 0 1 2.5 0Z"/></g></svg>