<svg xmlns="http://www.w3.org/2000/svg" width="24" height="24"><path fill="currentColor" d="m5 18.125-.696-.279a.75.75 0 0 0 .406.97l.29-.691Zm15 0 .29.692a.75.75 0 0 0 .402-.98l-.692.288ZM8.75 9.375l.583-.471a.75.75 0 0 0-1.23.09l.647.381Zm2.5 4.813-.717.22a.75.75 0 0 0 1.438-.014l-.721-.207ZM12.5 5l-.67.335L12.5 5ZM10 11.125l-.648.378.648-.378Zm6.667 0 .65-.374-.65.374ZM14.375 13.5l.66-.355a.75.75 0 0 0-1.387.17l.727.185ZM9.219 16l.699-.272a.75.75 0 0 0-1.331-.132l.632.404Zm1.149 2.951-.037.75.037-.75ZM8.75 9.375l-.583.471.001.003.007.007a10.49 10.49 0 0 1 .12.153c.082.104.195.25.32.417.257.342.547.751.737 1.077l1.296-.756a13.87 13.87 0 0 0-.832-1.22 25.493 25.493 0 0 0-.472-.61l-.008-.01a.813.813 0 0 0-.002-.002v-.001l-.584.471Zm.602 2.128c.289.495.583 1.21.812 1.83a25.032 25.032 0 0 1 .364 1.057l.004.015.001.003v.001l.717-.222c.717-.22.717-.22.716-.221v-.002l-.002-.005a1.594 1.594 0 0 0-.027-.086 23.397 23.397 0 0 0-.366-1.06c-.234-.634-.565-1.451-.923-2.066l-1.296.756Zm2.62 2.89c.446-1.564.429-.925 1.258-4.407l-1.46-.347c-.837 3.518-.712 2.49-1.241 4.343l1.442.412Zm1.258-4.407c.417-1.752.568-2.802.518-3.566-.053-.822-.347-1.295-.577-1.755l-1.342.67c.27.54.393.723.423 1.182.033.518-.065 1.374-.482 3.122l1.46.347Zm-.06-5.321a.468.468 0 0 1 .016.034c.004.01.027.064.04.142a.743.743 0 0 1-.348.766.747.747 0 0 1-.77.004c-.06-.037-.1-.073-.108-.08a.453.453 0 0 1-.025-.025c-.005-.004-.003-.002.008.01.046.055.136.17.27.348.26.348.647.885 1.089 1.517.885 1.268 1.967 2.89 2.675 4.118l1.3-.748c-.74-1.287-1.853-2.952-2.745-4.229a62.016 62.016 0 0 0-1.118-1.557 9.842 9.842 0 0 0-.326-.418 1.747 1.747 0 0 0-.07-.077.76.76 0 0 0-.96-.144.752.752 0 0 0-.348.775c.022.13.078.232.08.234l1.34-.67Zm2.847 6.834c.733 1.275 1.554 2.998 2.198 4.417a107.272 107.272 0 0 1 1.013 2.308l.06.142.015.036.004.009v.002l.693-.288.692-.289-.001-.003-.004-.01-.016-.038-.062-.146a108.356 108.356 0 0 0-1.028-2.343c-.647-1.427-1.493-3.204-2.264-4.545l-1.3.748ZM5 18.125l.696.279v-.002a5.547 5.547 0 0 1 .029-.071c.02-.049.05-.121.088-.218l.351-.871c.312-.773.78-1.928 1.405-3.459l-1.388-.566a1072.417 1072.417 0 0 0-1.848 4.556l-.022.055-.005.014-.002.003v.001l.696.279Zm2.57-4.341a57.172 57.172 0 0 1 1.387-3.17 20.035 20.035 0 0 1 .437-.854l.003-.005s0-.001 0 0l-.647-.38-.647-.38-.001.002a5.173 5.173 0 0 0-.132.24c-.083.157-.204.394-.364.726-.32.665-.795 1.71-1.425 3.254l1.388.566Zm4.93 5.966c.162 0 .32 0 .476-.002l-.014-1.5-.462.002v1.5Zm1.195-.566 1.407-5.498-1.454-.372-1.406 5.498 1.453.372Zm-.72.564c1.796-.017 3.217-.13 4.31-.272l-.194-1.488c-1.029.134-2.39.243-4.13.26l.015 1.5Zm4.31-.272a18.09 18.09 0 0 0 2.242-.419 8.41 8.41 0 0 0 .698-.215 2.5 2.5 0 0 0 .043-.016l.014-.006.005-.002h.002v-.001h.001l-.29-.692-.29-.692h.002l.002-.001h-.002a16.618 16.618 0 0 1-2.621.556l.193 1.488Zm-3.57-5.62 2.812 5.23 1.321-.71-2.812-5.231-1.322.71ZM5 18.124l-.29.692h.001l.002.001.005.002.012.005.039.015.132.047c.113.04.277.09.495.15.436.118 1.091.265 1.998.395l.212-1.485a15.446 15.446 0 0 1-1.819-.358 6.463 6.463 0 0 1-.5-.157h.001l.001.001h.001l-.29.692Zm3.132.968 1.719-2.69-1.264-.807-1.719 2.69 1.264.807Zm-.738.339c.784.112 1.756.211 2.938.268l.071-1.498a29.925 29.925 0 0 1-2.797-.255l-.212 1.485Zm2.938.268c.656.032 1.378.05 2.168.05v-1.5a43.82 43.82 0 0 1-2.097-.048l-.072 1.498ZM8.52 16.272l1.149 2.951 1.397-.544-1.148-2.951-1.398.544Z"/></svg>