<svg xmlns="http://www.w3.org/2000/svg" width="24" height="24"><path fill="none" stroke="currentColor" stroke-linecap="round" stroke-width="1.75" d="M17.167 11.173c0 1.358 0-1.357 0 0Zm0 0v2.715m0-2.715c0-1.357 2.833-1.357 2.833 0V18.3c0 5.43-12.144 5.476-14.32 0-.807-2.032-.667-1.597-1.409-3.359-.741-1.762 1.7-2.812 2.676-1.053.976 1.76 1.72 4.55 1.72 3.394V4.018c0-1.357 2.833-1.357 2.833 0m5.667 7.155c0-1.357-2.843-1.357-2.834 0m0 0c0-1.357-2.833-1.357-2.833 0V4.018m2.833 7.155c0 .325 0-.352 0 0Zm0 0c.015 2.036 0 2.715 0 2.715m-2.833 0v-9.87"/></svg>