<svg xmlns="http://www.w3.org/2000/svg" width="24" height="24"><g fill="none"><path fill="currentColor" d="M2.51 7.635c6.135-4.72 13.758-4.648 19.203.126.403.353.418.966.059 1.363l-2.587 2.855a1 1 0 0 1-1.143.244l-1.747-.768a1 1 0 0 1-.562-1.184l.687-2.46a1 1 0 0 0-.952-1.269l-6.81-.073a1 1 0 0 0-.982 1.235l.628 2.593a1 1 0 0 1-.565 1.149l-1.736.773a1 1 0 0 1-1.174-.271l-2.452-2.93a.962.962 0 0 1 .134-1.383Z"/><path fill="currentColor" d="m2.51 7.635.306.396-.305-.396Zm19.203.126.33-.376-.33.376Zm.059 1.363.37.336-.37-.336Zm-2.587 2.855-.37-.336.37.336Zm-1.143.244.2-.458-.2.458Zm-1.747-.768.2-.457-.2.458Zm-.562-1.184-.481-.135.481.135Zm.687-2.46.482.135-.482-.135Zm-.952-1.269.005-.5-.005.5Zm-6.81-.073-.005.5.006-.5Zm-.982 1.235-.486.118.486-.118Zm.628 2.593-.486.117.486-.117Zm-.565 1.149.203.456-.203-.456Zm-1.736.773-.204-.457.204.457Zm-1.174-.271-.384.32.384-.32Zm-2.452-2.93.383-.32-.383.32Zm.439-.987c5.961-4.588 13.318-4.496 18.567.106l.66-.752c-5.64-4.945-13.531-5-19.837-.147l.61.793Zm18.567.106a.456.456 0 0 1 .018.652l.741.671c.534-.59.528-1.525-.1-2.075l-.659.752Zm.018.652-2.587 2.854.741.671 2.587-2.854-.74-.671Zm-2.587 2.854a.5.5 0 0 1-.571.122l-.402.915a1.5 1.5 0 0 0 1.714-.366l-.74-.671Zm-.571.122-1.747-.767-.402.915 1.747.768.402-.916Zm-1.747-.767a.5.5 0 0 1-.28-.593l-.964-.268a1.5 1.5 0 0 0 .841 1.776l.403-.915Zm-.28-.593.686-2.46-.963-.268-.687 2.46.963.268Zm.686-2.46a1.5 1.5 0 0 0-1.429-1.903l-.01 1a.5.5 0 0 1 .476.635l.963.269Zm-1.429-1.903-6.81-.073-.01 1 6.81.073.01-1Zm-6.81-.073A1.5 1.5 0 0 0 7.19 7.822l.972-.236a.5.5 0 0 1 .491-.617l.01-1ZM7.19 7.822l.628 2.593.972-.236-.628-2.593-.972.236Zm.628 2.593a.5.5 0 0 1-.282.574l.406.913a1.5 1.5 0 0 0 .848-1.723l-.972.236Zm-.282.574-1.737.773.407.914 1.736-.774-.406-.913Zm-1.737.773a.5.5 0 0 1-.587-.135l-.767.642a1.5 1.5 0 0 0 1.761.407l-.407-.914Zm-.587-.135L2.76 8.697l-.767.642 2.452 2.93.767-.642ZM2.76 8.697a.463.463 0 0 1 .056-.666l-.61-.793c-.673.518-.737 1.476-.213 2.101l.767-.642Z"/><path stroke="currentColor" stroke-linecap="round" stroke-linejoin="round" stroke-width="2" d="M12 13v6m0 0-2.5-2.21M12 19l2.5-2.21"/></g></svg>