<svg xmlns="http://www.w3.org/2000/svg" width="24" height="24"><g fill="none"><circle cx="12" cy="12" r="8.25" stroke="currentColor" stroke-width="1.5"/><path fill="currentColor" fill-rule="evenodd" d="M15.516 13.344c.179-.228.508-.297.729-.108.152.13.298.267.438.41a.454.454 0 0 1 .035.594c-1.101 1.432-2.76 2.344-4.614 2.344-1.918 0-3.627-.976-4.725-2.495a.454.454 0 0 1 .053-.594 6.76 6.76 0 0 1 .45-.395c.226-.181.553-.103.724.13.844 1.148 2.13 1.854 3.498 1.854 1.323 0 2.568-.66 3.412-1.74Z" clip-rule="evenodd"/><path fill="currentColor" d="M10 9a1.25 1.25 0 1 1-2.5 0A1.25 1.25 0 0 1 10 9Zm6.5 0A1.25 1.25 0 1 1 14 9a1.25 1.25 0 0 1 2.5 0Z"/></g></svg>