<svg xmlns="http://www.w3.org/2000/svg" width="24" height="24"><g fill="none"><path fill="currentColor" fill-rule="evenodd" d="M15.418 9.014c2.003.165 3.082 1.534 3.082 3.176 0 1.634-1.071 2.984-3.082 3.15a43.116 43.116 0 0 1-.27 0l-.814.002H13v2a1168.533 1168.533 0 0 0 2.156-.002h.021c.162 0 .337-.002.405-.007 3.043-.251 4.918-2.463 4.918-5.143 0-2.671-1.867-4.917-4.918-5.17a8.055 8.055 0 0 0-.405-.006h-.02l-.821-.002H13v2a982.124 982.124 0 0 1 2.147.001l.203.002c.07 0 .086 0 .068-.001ZM11 15.34l-2.308-.003h-.356c-1.147 0-1.962-.382-2.49-.92-.534-.543-.846-1.321-.846-2.24 0-.92.312-1.697.846-2.241.528-.538 1.343-.919 2.49-.919h.354L11 9.013v-2l-2.313.004h-.351c-1.615 0-2.968.55-3.918 1.518C3.475 9.497 3 10.8 3 12.177c0 1.378.475 2.68 1.418 3.641.95.968 2.303 1.518 3.918 1.518h.352c.466.002 1.34.003 2.312.004v-2Z" clip-rule="evenodd"/><path stroke="currentColor" stroke-linecap="round" stroke-linejoin="round" stroke-width="2" d="M15.5 12.168H8"/></g></svg>