<svg xmlns="http://www.w3.org/2000/svg" width="24" height="24"><g fill="none"><path stroke="currentColor" stroke-linecap="round" stroke-linejoin="round" stroke-width="2" d="M17 9V4m0 5-2.5-2M17 9l2.5-2"/><path fill="currentColor" d="M10.586 19.195a.5.5 0 0 0-.477-.35H7.555a.5.5 0 0 0-.477.35l-.418 1.32a.5.5 0 0 1-.477.35h-1.46a.5.5 0 0 1-.467-.677l3.351-8.865A.5.5 0 0 1 8.075 11H9.59a.5.5 0 0 1 .467.322l3.374 8.865a.5.5 0 0 1-.467.677H11.48a.5.5 0 0 1-.477-.349l-.418-1.32Zm-2.79-2.27a.2.2 0 0 0 .19.26H9.67a.2.2 0 0 0 .19-.26l-.841-2.654a.2.2 0 0 0-.382 0l-.841 2.654Zm10.331 3.939c-.087 0-.15-.011-.186-.09-.079-.18-.334-.282-.494-.168-.366.263-.814.394-1.345.394-.744 0-1.361-.203-1.853-.61-.486-.406-.73-.933-.73-1.578 0-.768.296-1.362.886-1.782.596-.42 1.45-.635 2.566-.644h.204a.5.5 0 0 0 .5-.5v-.09c0-.329-.068-.562-.204-.697-.137-.136-.337-.203-.599-.203-.377 0-.632.119-.763.356-.134.242-.33.484-.606.484h-1.32c-.276 0-.508-.228-.44-.495.117-.46.403-.852.859-1.179.617-.442 1.396-.664 2.336-.664.972 0 1.724.21 2.254.63.535.416.803 1.012.803 1.79v3.448c.011.632 0 1.1 0 1.483a.115.115 0 0 1-.115.116h-1.753Zm-1.509-1.368c.257 0 .475-.043.656-.129.115-.055.211-.116.289-.184a.374.374 0 0 0 .112-.286v-.86a.5.5 0 0 0-.5-.5h-.057c-.393 0-.705.105-.934.313-.225.207-.337.485-.337.833 0 .542.257.813.771.813Z"/></g></svg>