<svg xmlns="http://www.w3.org/2000/svg" width="24" height="24"><g fill="none"><rect width="20" height="10.529" x="2" y="5.971" stroke="currentColor" stroke-width="2" rx="1.2"/><circle cx="12.47" cy="11.235" r="4.81" stroke="currentColor" stroke-width="1.5"/><path fill="currentColor" fill-rule="evenodd" d="M11.9 8.332a.119.119 0 0 1-.088.113 1.67 1.67 0 0 0-.77.429c-.372.372-.508.884-.508 1.428 0 .277.064.535.205.76.14.221.332.37.526.473.356.187.796.249 1.114.293l.012.002c.376.053.619.088.782.163a.3.3 0 0 1 .074.044.04.04 0 0 1 .013.019.24.24 0 0 1 .007.068c0 .265-.08.459-.191.58-.104.113-.285.217-.606.217-.368 0-.539-.092-.622-.175a.415.415 0 0 1-.058-.072c-.168-.266-.372-.55-.687-.55-.314 0-.579.258-.512.565.07.326.212.623.452.862.216.216.48.353.769.43a.118.118 0 0 1 .089.113v.205a.57.57 0 1 0 1.139 0v-.22c0-.053.035-.098.084-.113.31-.095.577-.26.79-.49.344-.374.492-.864.492-1.353 0-.27-.07-.523-.223-.739a1.317 1.317 0 0 0-.537-.427c-.323-.148-.724-.203-1.025-.245a297.19 297.19 0 0 0-.072-.01c-.364-.05-.601-.095-.753-.175a.233.233 0 0 1-.094-.074c-.008-.013-.03-.052-.03-.151 0-.368.092-.54.176-.623.083-.083.254-.175.622-.175s.539.092.622.175a.37.37 0 0 1 .057.073c.169.265.373.55.687.55.315 0 .58-.259.513-.566a1.702 1.702 0 0 0-.452-.862 1.67 1.67 0 0 0-.769-.43.118.118 0 0 1-.089-.112v-.16a.57.57 0 1 0-1.139 0v.16Z" clip-rule="evenodd"/></g></svg>