<svg xmlns="http://www.w3.org/2000/svg" width="24" height="24"><g fill="none"><path fill="currentColor" fill-rule="evenodd" d="M11.999 9.187c-.098.084-.199.229-.199.527v1.45c0 .11.09.2.2.2h.774a.5.5 0 0 1 .5.5v1a.5.5 0 0 1-.5.5H12a.2.2 0 0 0-.2.2v1.235c0 .11.09.2.2.2h2.9a.5.5 0 0 1 .5.5V16.5a.5.5 0 0 1-.5.5H9.412a.5.5 0 0 1-.5-.5v-1a.5.5 0 0 1 .5-.5H9.6a.2.2 0 0 0 .2-.2v-1.236a.2.2 0 0 0-.2-.2h-.773a.5.5 0 0 1-.5-.5v-1a.5.5 0 0 1 .5-.5H9.6a.2.2 0 0 0 .2-.2v-1.45c0-.844.328-1.556.895-2.044C11.24 7.2 11.936 7 12.6 7c.664 0 1.36.2 1.905.67.567.488.895 1.2.895 2.044v.5a.5.5 0 0 1-.5.5h-1a.5.5 0 0 1-.5-.5v-.5c0-.298-.101-.443-.199-.527C13.083 9.085 12.878 9 12.6 9c-.278 0-.483.085-.601.187Z" clip-rule="evenodd"/><circle cx="12" cy="12" r="10" stroke="currentColor" stroke-width="2"/></g></svg>