<svg xmlns="http://www.w3.org/2000/svg" width="24" height="24"><g fill="none"><path stroke="currentColor" stroke-width="1.5" d="M6 10h4.5A1.5 1.5 0 0 0 12 8.5V4"/><path fill="currentColor" fill-rule="evenodd" d="M9.854 3.732A2.5 2.5 0 0 1 11.62 3h4.88A2.5 2.5 0 0 1 19 5.5v13a2.5 2.5 0 0 1-2.5 2.5h-9A2.5 2.5 0 0 1 5 18.5V9.621a2.5 2.5 0 0 1 .732-1.767l4.122-4.122ZM11.62 5a.5.5 0 0 0-.353.146L7.146 9.268A.5.5 0 0 0 7 9.62v8.88a.5.5 0 0 0 .5.5h9a.5.5 0 0 0 .5-.5v-13a.5.5 0 0 0-.5-.5h-4.879Z" clip-rule="evenodd"/><path stroke="currentColor" stroke-linecap="round" stroke-linejoin="round" stroke-width="1.5" d="M10 14.5h4m-2-2v4"/></g></svg>