<svg xmlns="http://www.w3.org/2000/svg" width="24" height="24"><path fill="currentColor" d="m6 14.5-.767-.641A1 1 0 0 0 6 15.5v-1Zm12 0v1a1 1 0 0 0 .767-1.641L18 14.5Zm-7 6a1 1 0 1 0 2 0h-2ZM7.5 5.71c.242.962.5 2.426.5 4.29h2c0-2.05-.284-3.678-.561-4.78l-1.94.49ZM8 10c0-.107.029-.112-.043.05a4.872 4.872 0 0 1-.281.52c-.258.425-.611.93-.98 1.426a44.624 44.624 0 0 1-1.432 1.825l-.024.029-.006.007-.001.001a4548.037 4548.037 0 0 1 1.534 1.283h.001l.002-.003.007-.008.027-.032a31.95 31.95 0 0 0 .445-.547c.286-.357.67-.844 1.054-1.363.382-.516.779-1.079 1.084-1.582a6.79 6.79 0 0 0 .399-.746c.092-.208.214-.525.214-.86H8Zm10 4.5.767-.641-.001-.002-.006-.007-.024-.029a46.675 46.675 0 0 1-1.433-1.825c-.368-.496-.721-1-.979-1.426a4.872 4.872 0 0 1-.28-.52C15.97 9.888 16 9.893 16 10h-2c0 .335.122.652.214.86.106.24.247.495.4.746a21.36 21.36 0 0 0 1.083 1.582 46.636 46.636 0 0 0 1.5 1.91l.026.032.007.008.002.002v.001L18 14.5ZM9.54 5h5.244V3H9.541v2ZM16 10c0-.21.099-.922.26-1.887.155-.918.346-1.955.493-2.734l-1.965-.371a146.53 146.53 0 0 0-.5 2.773C14.14 8.671 14 9.581 14 10h2ZM6 15.5h6v-2H6v2Zm6 0h6v-2h-6v2Zm-1-1v6h2v-6h-2ZM14.784 5h.002-.002l.002.001.003.004v.003l1.964.371A2.006 2.006 0 0 0 14.784 3v2Zm-5.345.22a.216.216 0 0 1 .04-.168.163.163 0 0 1 .05-.048C9.537 5 9.539 5 9.541 5V3C8.079 3 7.185 4.461 7.499 5.71l1.94-.49Z"/></svg>