<svg xmlns="http://www.w3.org/2000/svg" width="24" height="24"><g fill="none"><path stroke="currentColor" stroke-width="2" d="M11 8.5a2.5 2.5 0 1 1-5 0 2.5 2.5 0 0 1 5 0Zm7-3a2.5 2.5 0 1 1-5 0 2.5 2.5 0 0 1 5 0Z"/><path stroke="currentColor" stroke-linecap="round" stroke-linejoin="round" stroke-width="2" d="M15.5 20c-1 1-12.5.5-13.5 0s3.41-5 7-5 7.076 4.424 6.5 5Z"/><path fill="currentColor" fill-rule="evenodd" d="M15.352 16.29c.65.701 1.198 1.42 1.617 2.025.51.003 1.143.002 1.802-.008a43.154 43.154 0 0 0 2.297-.086c.351-.024.685-.056.974-.098.272-.039.57-.095.816-.19.239-.091.474-.247.651-.49.177-.242.251-.51.267-.752.028-.447-.138-.864-.301-1.172-.342-.645-.962-1.347-1.686-1.978C20.357 12.293 18.147 11 16 11c-1.163 0-2.03.148-2.808.589-.702.398-1.256 1.002-1.858 1.658l-.07.077-.151.164a6.824 6.824 0 0 1 1.937.849c.497-.534.795-.82 1.128-1.008.35-.199.82-.329 1.822-.329 1.443 0 3.196.933 4.474 2.048a6.81 6.81 0 0 1 1.056 1.124c-.178.02-.38.039-.603.054-.65.046-1.428.07-2.185.082a88.097 88.097 0 0 1-2.653-.003c-.076 0-.136-.002-.176-.003h-.06l-.5-.011Z" clip-rule="evenodd"/></g></svg>