<svg xmlns="http://www.w3.org/2000/svg" width="24" height="24"><g fill="none"><rect width="5" height="5" x="3" y="3" stroke="currentColor" stroke-width="2" rx="1"/><rect width="5" height="5" x="3" y="16" stroke="currentColor" stroke-width="2" rx="1"/><rect width="5" height="5" x="16" y="3" stroke="currentColor" stroke-linejoin="round" stroke-width="2" rx="1"/><rect width="2" height="2" x="6" y="10" fill="currentColor" rx=".5"/><path fill="currentColor" d="M12.5 2h1a.5.5 0 0 1 .5.5v3a.5.5 0 0 1-.5.5h-1a.5.5 0 0 0-.5.5v1a.5.5 0 0 1-.5.5h-1a.5.5 0 0 1-.5-.5v-3a.5.5 0 0 1 .5-.5h1a.5.5 0 0 0 .5-.5v-1a.5.5 0 0 1 .5-.5Z"/><rect width="4" height="2" x="8" y="12" fill="currentColor" rx=".5"/><rect width="4" height="2" x="18" y="10" fill="currentColor" rx=".5"/><rect width="4" height="2" x="12" y="18" fill="currentColor" rx=".5"/><rect width="2" height="2" x="10" y="16" fill="currentColor" rx=".5"/><path fill="currentColor" d="M12 11.5v-1a.5.5 0 0 1 .5-.5h3a.5.5 0 0 1 .5.5V14h1.5a.5.5 0 0 1 .5.5v1a.5.5 0 0 1-.5.5h-3a.5.5 0 0 1-.5-.5v-3a.5.5 0 0 0-.5-.5h-1a.5.5 0 0 1-.5-.5Zm4.5 8.5h1a.5.5 0 0 0 .5-.5v-1a.5.5 0 0 1 .5-.5h1a.5.5 0 0 0 .5-.5v-3a.5.5 0 0 1 .5-.5h1a.5.5 0 0 1 .5.5v5a.5.5 0 0 1-.5.5h-1a.5.5 0 0 0-.5.5v1a.5.5 0 0 1-.5.5h-3a.5.5 0 0 1-.5-.5v-1a.5.5 0 0 1 .5-.5ZM2 13.5v-3a.5.5 0 0 1 .5-.5h1a.5.5 0 0 1 .5.5v1a.5.5 0 0 0 .5.5h1a.5.5 0 0 1 .5.5v1a.5.5 0 0 1-.5.5h-3a.5.5 0 0 1-.5-.5ZM13.5 22h-3a.5.5 0 0 1-.5-.5v-1a.5.5 0 0 1 .5-.5h1a.5.5 0 0 0 .5-.5v-1a.5.5 0 0 1 .5-.5h3a.5.5 0 0 1 .5.5v1a.5.5 0 0 1-.5.5h-1a.5.5 0 0 0-.5.5v1a.5.5 0 0 1-.5.5Z"/></g></svg>