<svg xmlns="http://www.w3.org/2000/svg" width="24" height="24"><g fill="none"><path fill="currentColor" fill-rule="evenodd" d="m10.024 19.217.926-.539-.054-.093-.024-.041-.028-.039-.063-.087-.026-.037-.029-.034-.07-.082-.031-.036-.035-.032-.077-.075-.032-.03-.035-.028-.083-.067-.038-.03-.04-.027-.09-.059-.04-.026-.04-.021-.095-.05-.04-.021-.041-.018-.1-.041-.044-.019-.046-.014-.102-.032-.044-.014-.044-.01-.105-.022-.046-.01-.045-.005-.107-.012-.046-.006h-.048l-.107-.003-.045-.001-.046.003-.107.007-.047.003-.047.008-.106.017-.046.008-.045.011-.103.027.235.904-.246-.9-.12.032-.087.018-.088.011-.09.006h-.089l-.089-.007-.088-.013-.087-.018-.087-.025-.084-.031-.081-.036-.08-.042-.077-.047-.073-.052-.07-.057-.065-.063-.062-.067-.057-.07-.052-.074-.047-.078-.043-.082-.036-.083-.03-.086-.025-.09-.02-.089-.012-.09-.007-.092v-.092l.005-.092.012-.09.018-.09.033-.122-.985-.264.988.253.027-.105.011-.044.008-.045.017-.107.007-.046.003-.046.008-.108.003-.045-.001-.045-.003-.108-.001-.046-.005-.046-.013-.108-.005-.045-.01-.044-.021-.106-.01-.044-.013-.043-.031-.104-.014-.045-.018-.044-.042-.1-.017-.04-.02-.04-.05-.096-.021-.04-.025-.04-.058-.09-.026-.04-.03-.038-.067-.085-.027-.034-.03-.032-.074-.079-.033-.034-.035-.032-.081-.07-.034-.03-.036-.027-.087-.064-.039-.028-.041-.024-.093-.055-.582.983.573-.987-.108-.063-.075-.05-.071-.056-.068-.06-.063-.065-.06-.069-.053-.072-.05-.077-.044-.08-.038-.082-.033-.086-.028-.088-.021-.089-.015-.09-.01-.091-.003-.092.003-.092.01-.092.015-.09.021-.089.028-.088.033-.085.038-.082.044-.08.05-.077.054-.073.059-.069.063-.064.068-.061.07-.055.076-.05.108-.063-.573-.988.582.983.093-.055.041-.024.039-.028.087-.063.036-.027.034-.03.08-.07.036-.032.033-.035.074-.078.03-.032.027-.035.067-.084.03-.038.026-.04.058-.091.025-.039.021-.04.05-.097.02-.039.017-.04.042-.1.018-.045.014-.045.031-.103.013-.044.01-.044.022-.106.009-.044.005-.045.013-.107.005-.046.001-.046.003-.109v-.044l-.002-.045-.008-.108-.003-.047-.007-.046-.017-.106-.008-.045-.01-.045-.028-.104-.986.252.983-.263-.033-.122-.018-.09-.012-.09-.005-.093v-.092l.007-.091.013-.09.019-.09.025-.09.03-.086.036-.083.043-.081.047-.079.052-.073.057-.07.062-.068.066-.062.07-.057.072-.052.077-.048.08-.042.08-.036.085-.03.087-.025.087-.019.088-.012.089-.007h.09l.09.005.087.012.087.017.12.033.246-.9-.235.903.103.027.045.012.046.007.106.018.047.007.047.004.107.007.046.003.045-.001.107-.003h.048l.046-.006.107-.013.045-.005.046-.01.104-.022.045-.01.044-.013.102-.032.046-.015.045-.018.099-.042.041-.017.04-.021.095-.05.04-.022.04-.026.09-.059.04-.026.038-.03.083-.067.035-.028.032-.03.077-.075.035-.033.03-.036.071-.082.03-.034.025-.036.063-.088.028-.038.024-.041.054-.094-.926-.539.932.532.063-.11.05-.076.054-.072.06-.069.065-.064.068-.059.071-.054.076-.05.078-.044.08-.038.084-.033.086-.027.087-.021.087-.016.09-.009.088-.003.09.003.09.01.086.015.087.02.086.028.083.033.08.038.079.044.075.05.072.054.068.06.064.063.06.069.055.072.05.076.063.11.785-.448-.782.455.054.094.024.04.028.04.062.087.027.036.029.034.07.082.031.036.035.033.077.075.032.03.034.028.084.067.038.03.04.026.09.06.04.025.04.022.095.05.04.02.041.018.1.042.043.018.046.015.103.032.044.013.044.01.105.022.045.01.046.005.107.013.046.005.047.001.108.003h.045l.046-.002.107-.007.047-.004.047-.007.106-.018.045-.007.045-.012.104-.027-.28-1.074.293 1.071.12-.033.087-.017.088-.012.09-.005h.089l.089.007.088.012.087.019.087.025.084.03.081.036.08.042.077.048.073.052.07.057.065.062.062.067.057.07.052.074.047.079.043.081.036.083.03.087.026.089.018.09.013.09.007.091v.092l-.005.092-.012.091-.018.09-.033.122.965.259-.967-.248-.027.104-.012.045-.007.045-.017.106-.007.046-.004.047-.007.108-.003.045.001.044.003.108v.047l.006.046.013.107.005.045.01.044.021.106.01.044.013.044.031.103.014.045.018.044.041.1.017.041.02.04.05.095.022.041.025.039.058.09.026.04.03.039.067.084.027.035.03.032.074.078.032.035.036.031.081.071.034.03.036.027.087.063.039.028.041.024.093.055.428-.724-.422.729.108.063.075.05.07.055.069.06.063.065.059.069.054.073.05.077.044.08.038.082.033.085.028.088.021.09.015.089.01.092.002.092-.003.092-.009.092-.015.09-.021.088-.028.088-.033.086-.038.082-.044.08-.05.077-.054.072-.059.07-.063.064-.068.06-.071.056-.075.05-.108.063.422.728-.428-.724-.093.055-.041.024-.039.028-.087.064-.036.026-.034.03-.08.071-.037.032-.032.034-.074.079-.03.032-.027.034-.067.085-.03.038-.026.04-.058.09-.025.04-.021.04-.05.096-.02.04-.017.04-.042.1-.018.044-.014.045-.031.104-.013.043-.01.044-.022.106-.01.044-.004.045-.013.108-.005.046-.001.046-.003.108v.045l.002.045.008.108.003.046.007.046.017.107.007.045.012.044.027.105.97-.249-.968.26.033.122.018.09.012.09.005.092v.092l-.007.092-.013.09-.018.09-.026.089-.03.086-.036.083-.043.082-.047.078-.052.074-.057.07-.062.067-.066.063-.07.057-.072.052-.077.047-.08.042-.08.036-.085.03-.087.026-.087.018-.088.013-.089.006h-.09l-.089-.005-.088-.011-.087-.018-.12-.033-.293 1.071.28-1.074-.104-.027-.045-.011-.045-.008-.106-.017-.047-.008-.047-.003-.107-.007-.046-.003h-.045l-.107.003-.048.001-.046.006-.107.012-.046.006-.045.01-.105.022-.044.01-.044.013-.103.032-.046.014-.044.019-.099.041-.041.018-.04.02-.095.05-.04.023-.04.025-.09.059-.04.026-.038.03-.083.068-.035.027-.032.03-.077.076-.035.032-.03.036-.071.082-.03.034-.026.037-.062.087-.028.039-.024.04-.054.094.782.455-.785-.447-.063.11-.05.076-.054.072-.06.068-.065.064-.068.06-.072.054-.075.05-.078.043-.08.039-.084.032-.086.028-.087.02-.087.016-.09.009-.088.003-.09-.003-.09-.01-.086-.014-.087-.021-.086-.028-.083-.032-.08-.039-.079-.044-.075-.05-.072-.054-.068-.059-.064-.064-.06-.069-.055-.071-.05-.076-.063-.11-.932.53Zm-5.181-10.2h-.001L4.8 8.864l-.009-.032-.006-.033-.031-.156-.007-.033-.004-.035-.02-.157-.005-.033-.002-.033-.01-.16-.002-.032v-.033l.001-.16v-.033L4.71 7.9l.012-.159.002-.033.005-.033.022-.157.005-.035.007-.033.033-.156.007-.032.009-.032.043-.153.009-.032.01-.031.054-.15.011-.032.014-.031.063-.146.014-.032.016-.03.073-.141.015-.029.017-.028.081-.136.018-.029.02-.028.09-.13.02-.028.022-.027.1-.123.021-.026.023-.025.108-.116.022-.024.025-.023.115-.11.024-.022.026-.022.122-.1.027-.022.028-.02.129-.092.028-.02.03-.018.134-.083.028-.017.029-.015.14-.074.03-.016.032-.014.145-.064.031-.014.033-.012.148-.053.032-.012.032-.01.151-.043.033-.009.033-.007.154-.033.034-.008.035-.005.156-.022.034-.005.033-.002.158-.012.034-.003h.226l.034.001.157.01.034.002.033.005.157.02.034.004.035.007.154.032.033.006.032.01.153.04.047.013.013.002.014.001h.014l.014-.002.015-.003.013-.004.013-.005.015-.008.01-.007.012-.01.012-.01.01-.012.009-.013.03-.052h.001l.075-.13.016-.029.017-.026.088-.133.02-.03.02-.027.097-.126.02-.026.022-.025.104-.12.022-.025.025-.024.112-.112.024-.024.025-.022.12-.104.025-.022.028-.021.126-.096.026-.02.028-.018.132-.087.03-.019.029-.016.138-.078.03-.016.03-.015.143-.068.03-.015.033-.013.147-.057.032-.013.032-.01.15-.048.032-.01.033-.008.153-.037.034-.009.034-.005.155-.027.034-.006.035-.004.157-.016.033-.003.033-.001.157-.006.035-.001.036.001.157.006.033.001.033.003.157.016.035.004.034.006.155.027.034.005.034.009.153.037.033.008.032.01.15.048.032.01.032.013.147.057.032.013.031.015.143.068.03.015.03.016.138.078.03.016.028.02.133.086.028.018.026.02.126.096.028.02.026.023.12.104.024.022.024.024.112.112.024.024.023.025.104.12.022.025.02.026.097.126.02.028.02.03.088.132.017.026.016.029.079.137-.001.001.025.044.01.013.009.011.012.011.012.01.01.007.015.008.013.005.013.004.015.003.014.002h.028l.013-.003.06-.015.142-.039.032-.009.033-.006.154-.032.035-.007.035-.004.156-.02.033-.005.034-.002.157-.01.034-.002h.034l.157.001h.035l.034.003.158.012.033.002.034.005.156.022.035.005.034.008.154.033.033.007.032.01.152.043.033.01.031.01.148.054.033.012.032.014.144.064.031.014.031.016.14.074.03.015.027.017.135.083.029.018.028.02.129.092.028.02.027.022.122.1.026.022.024.023.115.109.025.023.023.024.107.116.023.025.021.026.1.123.021.027.02.028.091.13.02.028.018.03.082.135.016.028.015.029.073.14.016.031.014.032.063.146.014.03.01.033.054.15.011.03.01.033.042.153.01.032.006.032.033.156.007.033.005.035.022.157.005.033.002.033.012.159.002.034v.034l.001.159v.033l-.001.033-.01.159-.002.033-.004.033-.02.157-.005.035-.007.033-.03.156-.007.033-.009.032-.04.149-.014.054-.002.015-.001.017v.017l.002.016.004.018.004.014.007.016.008.015.007.012.01.013.011.011.011.01.012.009.051.03.128.075.028.016.027.018.131.088.03.02.028.022.125.097.026.02.024.023.119.105.025.023.024.024.11.113.024.024.022.026.103.12.022.026.02.028.095.127.02.026.018.028.086.134.018.028.017.03.077.139.016.03.014.03.067.144.015.03.012.033.058.148.012.031.01.032.047.151.01.032.008.033.037.154.008.033.005.034.027.156.005.034.004.034.016.159.003.032.001.032.005.159.002.035-.002.035-.005.159-.001.032-.003.032-.016.158-.004.034-.005.034-.027.157-.006.033-.007.033-.037.155-.008.032-.01.032-.048.152-.01.031-.011.031-.058.149-.012.032-.015.03-.067.145-.014.03-.016.03-.077.138-.017.03-.018.029-.086.133-.018.028-.02.027-.094.127-.02.027-.023.026-.103.12-.022.026-.023.024-.111.113-.024.025-.025.023-.119.105-.024.022-.026.02-.125.098-.028.021-.03.02-.13.088-.028.018-.028.016-.128.074v.001l-.05.03-.013.01-.01.009-.012.012-.01.012-.007.012-.008.016-.007.015-.004.015-.004.017-.002.016v.017l.001.017.003.016.013.054.04.149.009.032.006.032.031.156.007.034.004.034.02.158.005.033.002.033.01.159.002.033v.033l-.001.159v.034l-.003.034-.012.158-.002.033-.005.033-.022.158-.005.034-.007.034-.033.155-.007.033-.009.032-.043.153-.009.032-.01.03-.054.15-.012.033-.013.03-.063.146-.014.032-.016.03-.073.142-.015.029-.016.027-.082.136-.018.03-.02.027-.09.13-.02.028-.022.027-.1.123-.021.026-.023.025-.107.116-.023.025-.025.023-.115.108-.024.024-.026.021-.122.1-.027.023-.028.02-.129.092-.028.02-.03.018-.134.082-.028.017-.029.016-.14.073-.03.017-.032.014-.145.064-.031.014-.033.011-.148.054-.031.011-.033.01-.151.043-.033.01-.033.006-.154.034-.034.007-.035.005-.156.022-.034.005-.033.003-.158.011-.034.003h-.035l-.157.001h-.034l-.034-.002-.157-.01-.034-.002-.033-.004-.156-.02-.035-.005-.035-.007-.154-.031-.033-.007-.032-.009-.143-.039-.059-.015-.013-.002h-.028l-.014.001-.015.003-.013.004-.013.006-.015.008-.01.007-.012.01-.012.01-.01.012-.009.012-.025.044-.078.139-.016.028-.018.027-.087.132-.02.03-.02.028-.097.126-.02.026-.022.025-.104.119-.023.026-.024.024-.112.111-.024.024-.025.022-.12.104-.025.023-.028.02-.126.096-.026.02-.028.018-.133.087-.028.019-.03.017-.138.077-.03.017-.03.015-.143.067-.031.015-.032.013-.147.058-.032.012-.032.01-.15.048-.032.01-.033.008-.153.038-.034.008-.034.006-.155.027-.034.006-.035.003-.157.016-.033.003-.033.002-.157.005-.036.001h-.035l-.158-.006-.032-.002-.033-.003-.157-.016-.035-.003-.034-.006-.155-.027-.034-.006-.034-.008-.153-.038-.033-.008-.032-.01-.15-.048-.032-.01-.032-.012-.147-.058-.032-.013-.031-.015-.143-.067-.03-.015-.03-.017-.138-.077-.03-.017-.029-.019-.132-.087-.028-.018-.026-.02-.126-.095-.028-.021-.026-.023-.12-.104-.024-.022-.024-.023-.112-.112-.025-.024-.022-.026-.104-.12-.022-.024-.02-.026-.097-.126-.021-.028-.02-.03-.087-.132-.017-.027-.016-.028-.075-.13-.031-.053-.01-.012-.01-.012-.01-.01-.013-.01-.01-.008-.015-.007-.013-.006-.013-.004-.015-.003-.014-.002h-.014l-.014.001-.013.002-.047.013-.153.041-.032.01-.033.006-.154.031-.035.007-.034.005-.157.02-.033.004-.034.002-.157.01-.034.002h-.226l-.034-.003-.158-.012-.033-.003-.034-.005-.156-.022-.035-.005-.034-.007-.154-.034-.033-.007-.033-.009-.151-.043-.032-.01-.032-.011-.148-.054-.033-.012-.031-.014-.145-.063-.032-.014-.03-.017-.14-.073-.03-.015-.027-.018-.135-.082-.029-.018-.028-.02-.129-.092-.028-.02-.027-.022-.122-.1-.026-.022-.024-.024-.115-.108-.025-.023-.022-.025-.108-.116-.023-.025-.021-.026-.1-.123-.021-.027-.02-.028-.091-.13-.02-.028-.018-.029-.081-.136-.017-.027-.015-.03-.073-.14-.016-.031-.014-.032-.063-.145-.014-.031-.01-.033-.054-.15-.011-.03-.01-.032-.042-.153-.01-.032-.006-.033-.033-.155-.007-.034-.005-.034-.022-.158-.005-.033-.002-.033-.012-.159-.002-.033v-.034l-.001-.16v-.032l.001-.034.01-.158.002-.033.004-.033.02-.158.005-.034.007-.034.03-.156.007-.032.009-.032.04-.154h.002l.012-.05.003-.015.001-.017v-.017l-.002-.016-.004-.017-.004-.015-.007-.015-.008-.016-.007-.012-.01-.012-.011-.012-.012-.01-.011-.008-.045-.027-.137-.079-.028-.016-.027-.018-.132-.088-.029-.02-.028-.021-.125-.098-.026-.02-.025-.022-.118-.105-.025-.023-.024-.025-.111-.113-.023-.024-.022-.025-.103-.12-.023-.027-.02-.027-.095-.127-.02-.027-.017-.028-.086-.133-.019-.029-.016-.03-.077-.139-.016-.029-.014-.03-.068-.144-.014-.031-.013-.033-.057-.148-.012-.03-.01-.032-.047-.152-.01-.032-.008-.032-.037-.155-.008-.033-.005-.033-.027-.157-.006-.034-.003-.034-.016-.158-.003-.032-.001-.033L3 12.25v-.034l.001-.035.006-.159v-.032l.004-.032.016-.159.003-.034.006-.034.027-.156.005-.034.008-.033.037-.154.008-.033.01-.032.047-.151.01-.032.012-.03.057-.15.013-.031.014-.031.068-.144.014-.03.016-.03.077-.139.016-.03.019-.028.086-.134.018-.028.02-.026.094-.127.02-.028.023-.026.103-.12.022-.026.023-.024.11-.113.025-.024.025-.023.118-.105.025-.022.026-.02.125-.098.028-.022.03-.02.13-.088.028-.018.028-.016.137-.08v.001l.045-.026.011-.009.012-.01.01-.011.01-.013.008-.012.008-.015.007-.016.004-.014.004-.018.002-.016V9.1l-.001-.017-.003-.015-.012-.05Z" clip-rule="evenodd"/><path stroke="currentColor" stroke-width="2" d="M14.5 12a2.5 2.5 0 1 1-5 0 2.5 2.5 0 0 1 5 0Z"/></g></svg>