<svg xmlns="http://www.w3.org/2000/svg" width="24" height="24"><g fill="none"><path fill="currentColor" stroke="currentColor" stroke-width="1.266" d="M18.62 5.11a1.477 1.477 0 1 1-2.953 0 1.477 1.477 0 0 1 2.954 0Z"/><path fill="currentColor" d="M15.093 8.805c.777 0 1.769.812 1.769.812-.967 2.066-1.769 2.778-1.769 4.422h-2.152c1.686-3.472 1.206-3.368 2.152-5.234Z"/><path stroke="currentColor" stroke-linecap="round" stroke-linejoin="round" stroke-width="2.215" d="M12.941 14.039c-1.3 2.298-4.071 5.59-4.071 5.59m4.071-5.59h2.152m-2.152 0c1.686-3.472 1.206-3.368 2.152-5.234.777 0 1.769.812 1.769.812-.967 2.066-1.769 2.778-1.769 4.422m0 0c1.344 2.298-.67 6.1-.67 6.1"/><path stroke="currentColor" stroke-linecap="round" stroke-linejoin="round" stroke-width="1.92" d="m17.038 9.633.938 3.903 3.155-1.978m-6.097-2.933-2.851-.028-1.638 2.986"/><path stroke="currentColor" stroke-linecap="round" stroke-linejoin="round" stroke-width="1.5" d="M13.5 3.57H4m6 3H5m2 3H2"/></g></svg>