<svg xmlns="http://www.w3.org/2000/svg" width="24" height="24"><g fill="none"><path fill="currentColor" fill-rule="evenodd" d="M6.516 12.513a.565.565 0 0 1 .017-.87l2.136-1.7a.565.565 0 0 0 0-.885l-2.136-1.7a.565.565 0 0 1-.017-.87l.209-.181a.565.565 0 0 1 .722-.015l3.225 2.568c.437.348.437.932 0 1.28l-3.225 2.568a.565.565 0 0 1-.722-.015l-.21-.18Z" clip-rule="evenodd"/><path stroke="currentColor" stroke-width="1.7" d="M3.5 5.767A2.267 2.267 0 0 1 5.767 3.5h12.466A2.267 2.267 0 0 1 20.5 5.767v12.466a2.267 2.267 0 0 1-2.267 2.267H5.767A2.267 2.267 0 0 1 3.5 18.233V5.767Z"/><path fill="currentColor" d="M10 13.367c0-.313.254-.567.567-.567H15.1c.313 0 .567.254.567.567v.566a.567.567 0 0 1-.567.567h-4.533a.567.567 0 0 1-.567-.567v-.566Z"/></g></svg>