<svg xmlns="http://www.w3.org/2000/svg" width="24" height="24"><g fill="none"><path stroke="currentColor" stroke-linecap="round" stroke-width="1.364" d="M9.528 13.782c.251-2.138.785-3.736 2.345-3.736s2.512 1.186 2.512 3.197c0 2.01-.866 5.348-1.59 7.395"/><path stroke="currentColor" stroke-linecap="round" stroke-width="1.364" d="M11.969 12.945c-.142 1.78-.637 5.605-1.487 6.652"/><path fill="currentColor" fill-rule="evenodd" d="M5.126 18.99c.339.322.7.62 1.082.89.1-.198.2-.405.297-.617.512-1.124 1.001-2.495 1.281-3.861a.682.682 0 0 0-1.336-.274c-.256 1.247-.707 2.519-1.186 3.569l-.138.294Zm1.784 1.345c.39.231.797.436 1.219.613.15-.325.302-.674.45-1.03a44.778 44.778 0 0 0 1.223-3.347.682.682 0 1 0-1.3-.411c-.267.84-.714 2.1-1.184 3.236-.137.331-.274.648-.409.94Zm-3.364-3.266c.275.436.583.849.92 1.235.496-.986.925-2.037 1.047-2.856a.682.682 0 1 0-1.35-.2c-.07.475-.3 1.12-.617 1.82Z" clip-rule="evenodd"/><path fill="currentColor" fill-rule="evenodd" d="m15.717 20.985.297-1.042c.152-.53.306-1.068.456-1.611.523-1.904.987-3.862.987-5.562 0-1.718-.473-3.252-1.419-4.368C15.082 7.272 13.692 6.63 12 6.63c-1.709 0-3.096.7-4.043 1.845-.937 1.133-1.414 2.66-1.414 4.294a.682.682 0 0 0 1.364 0c0-1.38.404-2.581 1.101-3.424.687-.83 1.687-1.35 2.992-1.35 1.322 0 2.32.488 2.997 1.288.689.813 1.096 2.007 1.096 3.486 0 1.496-.414 3.294-.939 5.2-.14.508-.288 1.025-.436 1.543-.188.656-.377 1.313-.55 1.958a9.875 9.875 0 0 0 1.55-.486Z" clip-rule="evenodd"/><path fill="currentColor" fill-rule="evenodd" d="M18.788 19.012c.58-1.738 1.017-3.669 1.017-5.552 0-2.847-.613-5.21-1.933-6.873C16.53 4.897 14.537 4.024 12 4.024c-2.564 0-4.51.994-5.794 2.685-1.265 1.666-1.839 3.939-1.839 6.436a.682.682 0 0 0 1.365 0c0-2.313.534-4.259 1.56-5.61C8.299 6.209 9.828 5.389 12 5.389c2.2 0 3.767.74 4.803 2.046 1.057 1.332 1.638 3.346 1.638 6.025 0 2.386-.786 4.93-1.665 7.02a9.983 9.983 0 0 0 2.012-1.468Z" clip-rule="evenodd"/><path stroke="currentColor" stroke-linecap="round" stroke-width="1.364" d="M2.988 14.484a9.375 9.375 0 0 1 2.03-8.836m2.418-1.933a9.375 9.375 0 0 1 9.81.418m2.309 2.219a9.374 9.374 0 0 1 1.273 8.707"/></g></svg>