<svg xmlns="http://www.w3.org/2000/svg" width="24" height="24"><g fill="none"><path fill="currentColor" d="M10.963 14.634a.5.5 0 0 0-.48-.358H8.765a.5.5 0 0 0-.48.358l-.267.9a.5.5 0 0 1-.48.358h-.83a.5.5 0 0 1-.472-.667L8.68 8.333A.5.5 0 0 1 9.15 8h.948a.5.5 0 0 1 .471.332l2.46 6.892a.5.5 0 0 1-.472.668h-.848a.5.5 0 0 1-.479-.358l-.267-.9Zm-1.987-2.328a.5.5 0 0 0 .48.643h.33a.5.5 0 0 0 .48-.643l-.166-.558c-.141-.477-.817-.477-.958 0l-.166.558Zm7.624 3.586c-.068 0-.117-.01-.143-.072-.059-.14-.26-.219-.381-.127-.273.205-.606.307-1 .307-.557 0-1.02-.163-1.39-.488-.364-.325-.546-.746-.546-1.263 0-.614.221-1.09.664-1.425.446-.336 1.088-.508 1.924-.515h.057c.26 0 .472-.211.472-.472 0-.263-.052-.45-.154-.558-.103-.108-.252-.162-.449-.162-.237 0-.41.066-.517.2-.174.215-.358.472-.635.472h-.74c-.276 0-.51-.23-.428-.493.1-.326.306-.608.617-.846.463-.354 1.047-.531 1.752-.531.73 0 1.293.168 1.69.504.402.332.603.81.603 1.43v2.76c.009.505 0 .88 0 1.187 0 .05-.04.092-.092.092H16.6Zm-1.137-1.095c.193 0 .357-.035.492-.103a.97.97 0 0 0 .196-.128.354.354 0 0 0 .106-.273v-.645a.418.418 0 0 0-.419-.418c-.295 0-.528.083-.7.25-.168.166-.252.388-.252.666 0 .434.192.65.578.65Z"/><rect width="16" height="16" x="4" y="4" stroke="currentColor" stroke-width="2" rx="1"/></g></svg>