<svg xmlns="http://www.w3.org/2000/svg" width="24" height="24"><path fill="currentColor" d="m9.805 13.773 1.014-6.723a.5.5 0 0 1 .494-.425h1.246a.5.5 0 0 1 .493.588l-1.846 10.375a.5.5 0 0 1-.492.412H9.239a.5.5 0 0 1-.49-.403l-1.249-6.3-1.233 6.3a.5.5 0 0 1-.491.403H4.294a.5.5 0 0 1-.493-.412L1.95 7.213a.5.5 0 0 1 .492-.588h1.261a.5.5 0 0 1 .495.426l1.006 6.715 1.26-6.733a.5.5 0 0 1 .491-.408h1.1a.5.5 0 0 1 .491.408l1.26 6.74Zm10.902.437c.285 0 .514.24.48.522-.122 1.042-.473 1.85-1.051 2.424-.672.667-1.62 1-2.844 1-1.287 0-2.274-.422-2.961-1.265-.682-.85-1.024-2.058-1.024-3.625v-1.914c0-1.563.355-2.766 1.063-3.61.708-.849 1.693-1.273 2.953-1.273 1.24 0 2.18.346 2.82 1.039.555.594.904 1.412 1.048 2.452a.475.475 0 0 1-.481.532h-1.283a.527.527 0 0 1-.515-.486c-.052-.543-.167-.933-.347-1.17-.224-.307-.638-.461-1.242-.461-.614 0-1.05.216-1.305.648-.255.428-.39 1.133-.406 2.118v2.148c0 1.13.125 1.906.375 2.328.255.422.69.633 1.305.633.604 0 1.02-.146 1.25-.438.178-.23.296-.605.355-1.122a.529.529 0 0 1 .516-.48h1.294Z"/></svg>