<svg xmlns="http://www.w3.org/2000/svg" width="24" height="24"><g fill="currentColor"><path d="M10.883 17.39c-.133.099-.132.29-.015.408l.99.99a.3.3 0 0 0 .424 0l.99-.99c.117-.117.118-.31-.015-.408A1.991 1.991 0 0 0 12.07 17c-.445 0-.855.145-1.187.39Zm-2.347-1.926c-.39-.39-.395-1.031.055-1.352A5.972 5.972 0 0 1 12.071 13c1.298 0 2.5.412 3.48 1.112.45.32.446.962.056 1.352-.39.391-1.02.377-1.495.095a3.982 3.982 0 0 0-2.04-.559c-.746 0-1.444.204-2.042.56-.474.281-1.104.295-1.494-.096Z"/><path d="M5.708 12.636c-.39-.39-.394-1.028.034-1.378A9.959 9.959 0 0 1 12.072 9a9.96 9.96 0 0 1 6.33 2.258c.427.35.424.988.034 1.378-.39.39-1.02.385-1.456.046A7.966 7.966 0 0 0 12.072 11c-1.85 0-3.553.628-4.908 1.682-.436.339-1.066.345-1.456-.046Z"/><path d="M2.808 9.807c-.39-.39-.393-1.026.024-1.388A13.946 13.946 0 0 1 12 5a13.94 13.94 0 0 1 9.25 3.492c.415.365.408 1 .014 1.388-.393.388-1.024.38-1.442.02A11.953 11.953 0 0 0 12 7a11.952 11.952 0 0 0-7.75 2.837c-.42.357-1.052.36-1.442-.03Z"/></g></svg>