<svg width="801" height="221" viewBox="0 0 801 221" fill="none" xmlns="http://www.w3.org/2000/svg">
<rect width="801" height="221" fill="#0051FF"/>
<path d="M347.52 121V100.36H354.15V121H347.52ZM372.86 100.36H381.08L373.67 108.85L381.23 121H373.4L369.11 113.44L365.51 116.38V121H358.88V100.36H365.51V109.18L372.86 100.36ZM393.105 100C396.665 100 399.415 100.91 401.355 102.73C403.295 104.55 404.265 107.2 404.265 110.68C404.265 114.16 403.295 116.81 401.355 118.63C399.415 120.45 396.665 121.36 393.105 121.36C389.545 121.36 386.795 120.46 384.855 118.66C382.935 116.84 381.975 114.18 381.975 110.68C381.975 107.18 382.935 104.53 384.855 102.73C386.795 100.91 389.545 100 393.105 100ZM393.105 104.95C391.685 104.95 390.605 105.38 389.865 106.24C389.125 107.1 388.755 108.26 388.755 109.72V111.64C388.755 113.1 389.125 114.26 389.865 115.12C390.605 115.98 391.685 116.41 393.105 116.41C394.525 116.41 395.605 115.98 396.345 115.12C397.105 114.26 397.485 113.1 397.485 111.64V109.72C397.485 108.26 397.105 107.1 396.345 106.24C395.605 105.38 394.525 104.95 393.105 104.95ZM422.595 121L413.925 110.98V121H407.835V100.36H413.625L422.295 110.53V100.36H428.385V121H422.595ZM443.085 100C446.645 100 449.395 100.91 451.335 102.73C453.275 104.55 454.245 107.2 454.245 110.68C454.245 114.16 453.275 116.81 451.335 118.63C449.395 120.45 446.645 121.36 443.085 121.36C439.525 121.36 436.775 120.46 434.835 118.66C432.915 116.84 431.955 114.18 431.955 110.68C431.955 107.18 432.915 104.53 434.835 102.73C436.775 100.91 439.525 100 443.085 100ZM443.085 104.95C441.665 104.95 440.585 105.38 439.845 106.24C439.105 107.1 438.735 108.26 438.735 109.72V111.64C438.735 113.1 439.105 114.26 439.845 115.12C440.585 115.98 441.665 116.41 443.085 116.41C444.505 116.41 445.585 115.98 446.325 115.12C447.085 114.26 447.465 113.1 447.465 111.64V109.72C447.465 108.26 447.085 107.1 446.325 106.24C445.585 105.38 444.505 104.95 443.085 104.95Z" fill="white"/>
</svg>
