<svg xmlns="http://www.w3.org/2000/svg" width="24" height="24"><path fill="currentColor" stroke="currentColor" stroke-width="1.5" d="M12 3.073a8.928 8.928 0 1 1 0 17.855 8.928 8.928 0 0 1 0-17.855Zm.063 2.898a2.007 2.007 0 0 0-1.793 2.906l-2.075-.894a1.5 1.5 0 0 0-1.188 2.755L9.473 11.8c.065.285.141.546.204.758l.025.082c.098.332.166.58.203.794L8.148 16.54a1.5 1.5 0 1 0 2.611 1.477l1.22-2.157 1.272 2.176a1.501 1.501 0 0 0 2.59-1.515l-1.812-3.1a10 10 0 0 1 .185-.824l.02-.078c.053-.205.113-.449.167-.708l2.572-1.065a1.5 1.5 0 0 0-1.148-2.771l-1.918.794a2.007 2.007 0 0 0-1.844-2.798Z"/></svg>