<svg xmlns="http://www.w3.org/2000/svg" width="24" height="24"><g fill="none"><circle cx="12" cy="12" r="8.927" stroke="currentColor" stroke-width="1.5"/><path fill="currentColor" stroke="currentColor" stroke-width="1.5" d="M12.063 7.471a.507.507 0 1 1 0 1.014.507.507 0 0 1 0-1.014Z"/><path fill="currentColor" d="M10.842 10.758h2.183c0 .88-.529 2.034-.529 3.014h-1.058c0-1.065-.596-2.082-.596-3.014Z"/><path stroke="currentColor" stroke-linecap="round" stroke-linejoin="round" stroke-width="1.5" d="M10.842 10.758h2.183m-2.183 0c0 .932.596 1.95.596 3.014m-.596-3.014-3.24-1.397m3.836 4.41L9.453 17.28m1.985-3.507h1.058m0 0 2.05 3.507m-2.05-3.507c0-.98.53-2.134.53-3.014m0 0 3.373-1.397"/></g></svg>