<svg xmlns="http://www.w3.org/2000/svg" width="24" height="24"><g fill="none"><circle cx="12" cy="12" r="10" stroke="currentColor" stroke-width="2"/><path fill="currentColor" stroke="currentColor" stroke-width=".857" d="M13.072 7.429a1 1 0 1 1-2 0 1 1 0 0 1 2 0Z"/><path fill="currentColor" d="M10.684 10.588h2.481c0 1-.601 2.313-.601 3.426H11.36c0-1.21-.677-2.367-.677-3.426Z"/><path stroke="currentColor" stroke-linecap="round" stroke-linejoin="round" stroke-width="1.8" d="M10.684 10.588h2.481m-2.48 0c0 1.06.676 2.216.676 3.426m-.677-3.426L7 9m4.36 5.014L9.106 18m2.256-3.986h1.203m0 0L14.894 18m-2.33-3.986c0-1.114.601-2.426.601-3.426m0 0L17 9"/></g></svg>