<svg xmlns="http://www.w3.org/2000/svg" width="24" height="24"><path fill="currentColor" stroke="currentColor" stroke-width="1.5" d="M20.927 12a8.927 8.927 0 1 1-17.854 0 8.927 8.927 0 0 1 17.854 0ZM8.715 18.584l.369-.653-.37.653a1.5 1.5 0 0 0 2.045-.567l1.22-2.157 1.273 2.176a1.5 1.5 0 0 0 2.59-1.515l-1.813-3.1c.036-.22.099-.483.185-.824l.02-.078.004-.015c.051-.201.112-.44.164-.693l2.57-1.064a1.5 1.5 0 0 0-1.147-2.772l-1.917.794a2.007 2.007 0 1 0-3.64.108l-2.073-.894a1.5 1.5 0 1 0-1.188 2.755l2.465 1.063c.063.278.139.533.2.742l.005.015.025.082c.098.332.166.581.203.794L8.148 16.54a1.5 1.5 0 0 0 .567 2.044Z"/></svg>