<svg xmlns="http://www.w3.org/2000/svg" width="24" height="24"><g fill="none"><path stroke="currentColor" stroke-width="1.5" d="M18.11 13.65a6.118 6.118 0 0 1-6.119 6.119 6.118 6.118 0 1 1 0-12.237 6.118 6.118 0 0 1 6.118 6.118Z"/><path stroke="currentColor" stroke-linecap="round" stroke-width="1.5" d="M11.872 10v3.5l3 1.5"/><path fill="currentColor" d="M7.254 5.139c1.171 1.171 1.414.707-1.061 3.182-2.475 2.475-2.01 2.232-3.182 1.06A3 3 0 1 1 7.254 5.14ZM20.99 9.381c-1.172 1.172-.708 1.415-3.183-1.06-2.475-2.475-2.232-2.01-1.06-3.182a3 3 0 0 1 4.242 4.242ZM7.872 19.5a1.5 1.5 0 1 1-3 0 1.5 1.5 0 0 1 3 0Zm11 0a1.5 1.5 0 1 1-3 0 1.5 1.5 0 0 1 3 0Z"/></g></svg>