<svg xmlns="http://www.w3.org/2000/svg" width="24" height="24"><g fill="none"><path stroke="currentColor" stroke-width="1.687" d="M18.237 13.65a6.118 6.118 0 0 1-6.119 6.119 6.118 6.118 0 1 1 0-12.237 6.12 6.12 0 0 1 6.12 6.118Z"/><path stroke="currentColor" stroke-linecap="round" stroke-width="1.5" d="M12 10v3.5l3 1.5"/><path fill="currentColor" d="M7.381 5.139c1.172 1.171 1.415.707-1.06 3.182s-2.01 2.232-3.182 1.06A3 3 0 0 1 7.38 5.14Zm13.736 4.242c-1.172 1.172-.707 1.415-3.182-1.06s-2.232-2.01-1.06-3.182a3 3 0 1 1 4.242 4.242ZM8 19.5a1.5 1.5 0 1 1-3 0 1.5 1.5 0 0 1 3 0Zm11 0a1.5 1.5 0 1 1-3 0 1.5 1.5 0 0 1 3 0Z"/></g></svg>