<svg xmlns="http://www.w3.org/2000/svg" width="24" height="24"><g fill="none"><g stroke="currentColor" stroke-width="1.5" clip-path="url(#a)"><path d="M16.904 16.904c-4.288 4.288-11.034 4.495-12.668 2.86-1.635-1.634-1.428-8.38 2.86-12.668 4.288-4.288 10.625-4.903 12.668-2.86 2.043 2.043 1.428 8.38-2.86 12.668Z"/><path stroke-linecap="round" stroke-linejoin="round" d="m15.264 8.736-.811.812m-4.9 4.898 2.45-2.449m-2.45 2.45L8.329 13.22m1.226 1.225 1.226 1.226m-1.226-1.226-.823.823m5.722-5.721-1.226-1.226m1.226 1.226 1.225 1.226m-1.226-1.226-2.449 2.449m0 0-1.229-1.223m1.23 1.223 1.222 1.229m1.826-9.999s.409 2.043 2.043 3.678c1.635 1.634 3.678 2.043 3.678 2.043M9.14 20.581s-.41-2.043-2.044-3.677C5.462 15.269 3.42 14.86 3.42 14.86"/></g><defs><clipPath id="a"><path fill="currentColor" d="M0 24h24V0H0z"/></clipPath></defs></g></svg>