<svg xmlns="http://www.w3.org/2000/svg" width="24" height="24"><g fill="none"><circle cx="12" cy="12" r="8.25" stroke="currentColor" stroke-width="1.5"/><path fill="currentColor" fill-rule="evenodd" d="M16.326 14.654a.449.449 0 0 1-.052.647 6.534 6.534 0 0 1-4.151 1.48 6.537 6.537 0 0 1-4.3-1.605.449.449 0 0 1-.035-.648c1.084-1.157 2.57-1.87 4.212-1.87 1.7 0 3.235.765 4.326 1.996Z" clip-rule="evenodd"/><path fill="currentColor" d="M10 9.432a1.25 1.25 0 1 1-2.5 0 1.25 1.25 0 0 1 2.5 0Zm6.5 0a1.25 1.25 0 1 1-2.5 0 1.25 1.25 0 0 1 2.5 0Z"/><path stroke="currentColor" stroke-linecap="round" stroke-linejoin="round" d="m8.13 7.64 2.427 1.579m5.224-1.609-2.287 1.447"/></g></svg>