<svg xmlns="http://www.w3.org/2000/svg" width="24" height="24"><g fill="none"><circle cx="12" cy="12" r="8.927" stroke="currentColor" stroke-width="1.5"/><path fill="currentColor" fill-rule="evenodd" d="M16.675 14.879a.452.452 0 0 1-.053.649 7.027 7.027 0 0 1-4.49 1.613 7.029 7.029 0 0 1-4.65-1.749.452.452 0 0 1-.034-.649c1.167-1.258 2.776-2.036 4.552-2.036 1.84 0 3.5.834 4.675 2.172Z" clip-rule="evenodd"/><path fill="currentColor" d="M9.85 9.238a1.344 1.344 0 1 1-2.689 0 1.344 1.344 0 0 1 2.688 0Zm6.989 0a1.344 1.344 0 1 1-2.688 0 1.344 1.344 0 0 1 2.688 0Z"/><path stroke="currentColor" stroke-linecap="round" stroke-linejoin="round" d="m7.838 7.312 2.61 1.698m5.618-1.73-2.459 1.556"/></g></svg>