<svg xmlns="http://www.w3.org/2000/svg" width="24" height="24"><g fill="none" stroke="currentColor" stroke-width="1.5"><path stroke-linecap="round" d="M12 9.042c.608 0 1.114-.189 1.611-.374.913-.341 1.795-.67 3.217.205 2.196 1.352 2.196 2.801 2.196 4.84 0 2.23-1.652 5.443-3.43 6.65-.683.462-1.283.236-1.976-.024-.477-.18-.997-.376-1.618-.376-.621 0-1.141.196-1.617.376-.692.26-1.291.486-1.973.024-1.779-1.207-3.434-4.42-3.434-6.65 0-2.039.202-3.623 2.125-4.84 1.244-.787 2.208-.485 3.2-.173.54.17 1.09.342 1.699.342Zm0 0c.071-.33-.58-3.622-3.126-5.97m6.23 7.74c.695.478 1.603 1.87 1.303 3.296"/><path d="M15.229 3.314a.31.31 0 0 1 .067.056c.044.045.096.113.152.206.112.189.217.452.284.77.135.639.1 1.413-.229 2.114-.323.69-.907 1.205-1.5 1.511a2.78 2.78 0 0 1-.79.277c-.242.04-.325.004-.302.015.023.01-.06-.03-.183-.242a2.783 2.783 0 0 1-.292-.784c-.145-.651-.123-1.43.2-2.12.329-.7.901-1.224 1.478-1.53a2.57 2.57 0 0 1 .772-.274 1.12 1.12 0 0 1 .256-.015c.061.005.087.016.087.016Z"/></g></svg>