<svg xmlns="http://www.w3.org/2000/svg" width="24" height="24"><g fill="none" stroke="currentColor" stroke-width="1.5"><path stroke-linecap="round" d="M12 9.042c.608 0 1.114-.189 1.611-.374.913-.341 1.795-.67 3.217.205 2.196 1.352 2.196 2.801 2.196 4.84 0 2.23-1.652 5.443-3.43 6.65-.683.462-1.283.236-1.976-.024-.477-.18-.997-.376-1.618-.376-.621 0-1.141.196-1.617.376-.692.26-1.291.486-1.973.024-1.779-1.207-3.434-4.42-3.434-6.65 0-2.039.202-3.623 2.125-4.84 1.244-.787 2.208-.485 3.2-.173.54.17 1.09.342 1.699.342Zm0 0c.071-.33-.58-3.622-3.126-5.97m6.23 7.74c.695.478 1.603 1.87 1.303 3.296"/><path d="M15.503 6.46c-.323.69-.907 1.205-1.5 1.51-.294.153-.57.242-.79.279a.883.883 0 0 1-.3.012h-.002a.902.902 0 0 1-.183-.24 2.784 2.784 0 0 1-.292-.784c-.145-.652-.123-1.43.2-2.12.329-.7.9-1.223 1.478-1.529.287-.152.556-.24.773-.275.107-.017.192-.02.255-.015a.31.31 0 0 1 .087.016.3.3 0 0 1 .068.057c.043.044.096.111.151.205.112.188.217.452.284.77.134.639.1 1.413-.229 2.114Z"/></g></svg>