<svg xmlns="http://www.w3.org/2000/svg" width="24" height="24"><g fill="currentColor"><path fill-rule="evenodd" d="M9.417 5.01c-.275.323-.324.738-.324 1.189v.532a.436.436 0 0 1-.436.437H7.592a.437.437 0 0 1-.437-.437V6.2c0-.518.031-1.557.785-2.445.772-.909 2.096-1.431 4.14-1.431 2.116 0 3.405.688 4.11 1.678.654.918.655 1.9.655 2.184v.012l.001.533a.436.436 0 0 1-.435.437l-1.065.001a.436.436 0 0 1-.438-.435V6.2c0-.219-.01-.673-.296-1.074-.244-.343-.853-.865-2.532-.865-1.752 0-2.407.446-2.663.748Z" clip-rule="evenodd"/><path stroke="currentColor" stroke-linecap="round" stroke-width="1.5" d="m4.84 18.08-1.027-5.905a2.619 2.619 0 0 1 2.58-3.068h11.345a2.62 2.62 0 0 1 2.597 2.958l-.77 5.905a2.619 2.619 0 0 1-2.597 2.28H7.42a2.619 2.619 0 0 1-2.58-2.17Z"/><path fill-rule="evenodd" d="M16.146 8.623c.386 0 .699.312.699.698v1.51a.698.698 0 0 1-.699.699h-.54a.698.698 0 0 1-.7-.699v-1.51c0-.386.313-.698.7-.698h.54Zm-7.751 0c.385 0 .698.312.698.698v1.51a.698.698 0 0 1-.698.699h-.542a.698.698 0 0 1-.698-.699v-1.51c0-.386.313-.698.698-.698h.542Z" clip-rule="evenodd"/></g></svg>