<svg xmlns="http://www.w3.org/2000/svg" width="24" height="24"><g fill="currentColor"><path fill-rule="evenodd" d="M9.673 6.344c-.248.292-.292.666-.292 1.072v.437a.437.437 0 0 1-.436.436h-.873a.437.437 0 0 1-.437-.436v-.437c0-.467.028-1.402.707-2.202.696-.82 1.889-1.29 3.73-1.29 1.907 0 3.068.62 3.704 1.512.588.827.59 1.712.59 1.968v.447a.436.436 0 0 1-.435.437l-.873.002a.436.436 0 0 1-.438-.436v-.437c0-.197-.01-.606-.266-.968-.22-.308-.769-.779-2.282-.779-1.579 0-2.168.402-2.4.674Z" clip-rule="evenodd"/><path stroke="currentColor" stroke-linecap="round" stroke-width="1.746" d="m5.512 17.906-.835-4.802a2.619 2.619 0 0 1 2.58-3.067h9.617a2.619 2.619 0 0 1 2.597 2.957l-.626 4.802a2.619 2.619 0 0 1-2.597 2.28H8.091a2.619 2.619 0 0 1-2.58-2.17Z"/><path fill-rule="evenodd" d="M15.666 9.6c.386 0 .699.313.699.698v1.223a.698.698 0 0 1-.698.698h-.35a.698.698 0 0 1-.698-.698v-1.223c0-.385.313-.698.698-.698h.35Zm-6.983 0c.385 0 .698.313.698.698v1.223a.698.698 0 0 1-.698.698h-.35a.698.698 0 0 1-.698-.698v-1.223c0-.385.313-.698.698-.698h.35Z" clip-rule="evenodd"/></g></svg>