<svg xmlns="http://www.w3.org/2000/svg" width="24" height="24"><path fill="none" stroke="currentColor" stroke-linecap="round" stroke-width="1.5" d="M14.07 14.793H9.93a.474.474 0 0 1-.45-.31 25.935 25.935 0 0 1-.682-2.258c-.473-1.82-2.148-3.51-1.6-5.311C7.82 4.86 9.745 3.879 12 3.879c2.254 0 4.179.982 4.803 3.035.547 1.8-1.127 3.492-1.601 5.311a25.935 25.935 0 0 1-.682 2.259.474.474 0 0 1-.45.31Zm-.524 2.183h-2.82a.5.5 0 0 0-.5.5v1.458a.5.5 0 0 0 .168.374l.918.816a.5.5 0 0 0 .332.126h1.104a.5.5 0 0 0 .353-.146l.799-.799a.5.5 0 0 0 .146-.353v-1.476a.5.5 0 0 0-.5-.5Z"/></svg>