<svg xmlns="http://www.w3.org/2000/svg" width="24" height="24"><path fill="none" stroke="currentColor" stroke-linecap="round" stroke-width="1.5" d="M13.559 14.553h-3.327a.471.471 0 0 1-.45-.31 22.046 22.046 0 0 1-.547-1.824c-.394-1.511-1.785-2.916-1.33-4.413.518-1.706 2.117-2.521 3.99-2.521 1.873 0 3.472.815 3.99 2.521.455 1.497-.936 2.902-1.33 4.413-.232.893-.43 1.493-.547 1.824a.472.472 0 0 1-.45.31Zm-.464 1.814h-2.174a.5.5 0 0 0-.5.5v1.089a.5.5 0 0 0 .168.373l.71.632a.5.5 0 0 0 .333.126h.85a.5.5 0 0 0 .353-.146l.614-.614a.5.5 0 0 0 .146-.354v-1.106a.5.5 0 0 0-.5-.5Zm6.055-7.373h1.813m-2.72-3.174 1.36-.907m-1.36 7.255 1.36.906M4.64 8.994H2.828M5.547 5.82l-1.36-.907m1.36 7.255-1.36.906"/></svg>