<svg xmlns="http://www.w3.org/2000/svg" width="24" height="24"><g fill="none" stroke="currentColor" stroke-width="1.5"><path d="M5.674 4.47c0-.69.56-1.25 1.25-1.25h10.152c.69 0 1.25.56 1.25 1.25v15.207c0 .69-.56 1.25-1.25 1.25H6.925c-.69 0-1.25-.56-1.25-1.25V4.47Z"/><path stroke-linecap="round" d="M12 11.063H9.462a1 1 0 0 0-1 1V14.6M12 11.063h2.538a1 1 0 0 1 1 1V14.6M12 11.063v7.076m0 0h2.538a1 1 0 0 0 1-1v-2.538M12 18.139H9.462a1 1 0 0 1-1-1v-2.538m0 0h7.076"/><path d="M8.706 6.513a.26.26 0 0 1 .261-.26h6.066a.26.26 0 0 1 .26.26v2.022a.26.26 0 0 1-.26.261H8.967a.26.26 0 0 1-.26-.26V6.512Z"/></g></svg>