<svg xmlns="http://www.w3.org/2000/svg" width="24" height="24"><g fill="none" stroke="currentColor" stroke-width="1.5"><path d="M6.924 3.22h10.153c.69 0 1.25.56 1.25 1.25v15.208c0 .69-.56 1.25-1.25 1.25H6.924c-.69 0-1.25-.56-1.25-1.25V4.47c0-.69.56-1.25 1.25-1.25Z"/><path stroke-linecap="round" d="M12 11.063H9.462a1 1 0 0 0-1 1V14.6M12 11.063h2.538a1 1 0 0 1 1 1V14.6M12 11.063v7.076m0 0h2.538a1 1 0 0 0 1-1v-2.538M12 18.139H9.462a1 1 0 0 1-1-1v-2.538m0 0h7.076"/><path d="M8.967 6.253h6.066a.26.26 0 0 1 .261.26v2.023c0 .144-.118.26-.261.26H8.966a.261.261 0 0 1-.26-.26V6.513a.26.26 0 0 1 .26-.26Z"/></g></svg>