<svg xmlns="http://www.w3.org/2000/svg" width="24" height="24"><path fill="currentColor" fill-rule="evenodd" d="M17.5 12.75a1.25 1.25 0 0 1-.884-.366L13.44 9.207a1 1 0 0 1 0-1.414l.354-.354a1 1 0 0 1 1.414 0l.872.873a.1.1 0 0 0 .171-.071V6.75a1 1 0 0 0-1-1H9.018a1 1 0 0 0-1 1v2a1 1 0 0 1-1 1h-.5a1 1 0 0 1-1-1V5.5a2.25 2.25 0 0 1 2.25-2.25H16.5a2.25 2.25 0 0 1 2.25 2.25v2.74a.1.1 0 0 0 .17.072l.873-.873a1 1 0 0 1 1.414 0l.354.354a1 1 0 0 1 0 1.414l-3.177 3.177a1.25 1.25 0 0 1-.884.366ZM5.884 11.616a1.25 1.25 0 0 1 1.768 0l3.176 3.177a1 1 0 0 1 0 1.414l-.353.354a1 1 0 0 1-1.414 0l-.873-.873a.1.1 0 0 0-.17.071v1.491a1 1 0 0 0 1 1h6.25a1 1 0 0 0 1-1v-2a1 1 0 0 1 1-1h.5a1 1 0 0 1 1 1v3.25a2.25 2.25 0 0 1-2.25 2.25h-8.75a2.25 2.25 0 0 1-2.25-2.25v-2.74a.1.1 0 0 0-.17-.072l-.873.873a1 1 0 0 1-1.414 0l-.354-.354a1 1 0 0 1 0-1.414l3.177-3.177Z" clip-rule="evenodd"/></svg>