<svg xmlns="http://www.w3.org/2000/svg" width="24" height="24"><g fill="none"><path stroke="currentColor" stroke-linecap="round" stroke-linejoin="round" stroke-width="1.5" d="m19.92 16.77-5.76-7.2-4.8 3.84-5.28-6.24"/><circle cx="1.92" cy="1.92" r="1.92" fill="currentColor" transform="matrix(-1 0 0 1 16.08 7.17)"/><path fill="currentColor" d="M7.62 13.95a1.92 1.92 0 1 0 3.84 0 1.92 1.92 0 0 0-3.84 0Z"/><circle cx="1.92" cy="1.92" r="1.92" fill="currentColor" transform="matrix(-1 0 0 1 21.84 14.85)"/><path fill="currentColor" d="M2.16 7.23a1.92 1.92 0 1 0 3.84 0 1.92 1.92 0 0 0-3.84 0Zm5.28 6.66a1.92 1.92 0 1 0 3.84 0 1.92 1.92 0 0 0-3.84 0Z"/></g></svg>