<svg xmlns="http://www.w3.org/2000/svg" width="24" height="24"><g fill="none"><path stroke="currentColor" stroke-linecap="round" stroke-linejoin="round" stroke-width="1.5" d="m4.081 16.77 5.76-7.2 4.799 3.84 5.279-6.24"/><circle cx="9.84" cy="9.09" r="1.92" fill="currentColor"/><path fill="currentColor" d="M16.38 13.95a1.92 1.92 0 1 1-3.84 0 1.92 1.92 0 0 1 3.84 0Z"/><circle cx="4.081" cy="16.769" r="1.92" fill="currentColor"/><path fill="currentColor" d="M21.839 7.23a1.92 1.92 0 1 1-3.84 0 1.92 1.92 0 0 1 3.84 0Zm-5.279 6.66a1.92 1.92 0 1 1-3.84 0 1.92 1.92 0 0 1 3.84 0Z"/></g></svg>