<svg xmlns="http://www.w3.org/2000/svg" width="24" height="24"><g fill="currentColor"><path fill-rule="evenodd" d="M15.887 6.886a.875.875 0 0 1 1.246-.036l4.178 4c.626.6.626 1.61 0 2.21l-4.178 4a.875.875 0 0 1-1.211-1.263l3.33-3.197a.894.894 0 0 0 0-1.29l-3.33-3.197a.875.875 0 0 1-.035-1.227ZM7.693 17.024a.875.875 0 0 1-1.246.036l-4.178-4a1.537 1.537 0 0 1 0-2.21l4.178-4a.875.875 0 0 1 1.21 1.263l-3.33 3.197a.894.894 0 0 0 0 1.29l3.33 3.197c.345.33.36.877.036 1.227Z" clip-rule="evenodd"/><rect width="2" height="16.592" x="13.018" y="3.274" rx=".5" transform="rotate(13.873 13.018 3.274)"/></g></svg>