<svg xmlns="http://www.w3.org/2000/svg" width="24" height="24"><g fill="none"><path stroke="currentColor" stroke-linecap="round" stroke-width="1.5" d="M12.212 5.224H4.614a1.5 1.5 0 0 0-1.5 1.5V19.32a1.5 1.5 0 0 0 1.5 1.5h12.597a1.5 1.5 0 0 0 1.5-1.5v-6.298"/><path fill="currentColor" fill-rule="evenodd" d="M21.634 3.78a1 1 0 1 0-1.414-1.414l-.387.387a1 1 0 0 0 1.414 1.414l.387-.387Zm-2.861 1.448a1 1 0 0 1 0 1.414l-9.82 9.82a1 1 0 0 1-1.413-1.414l9.818-9.82a1 1 0 0 1 1.415 0Z" clip-rule="evenodd"/></g></svg>