<svg xmlns="http://www.w3.org/2000/svg" width="24" height="24"><g fill="none"><circle cx="12" cy="12" r="8.927" stroke="currentColor" stroke-width="1.5"/><path fill="currentColor" fill-rule="evenodd" d="m15.8 8.198-5.32 2.282-2.281 5.323 5.322-2.281 2.28-5.323Zm-4.876 4.877a1.52 1.52 0 1 0 2.15-2.15 1.52 1.52 0 0 0-2.15 2.15Z" clip-rule="evenodd"/><path fill="currentColor" d="m10.479 10.48-.46-.198a.5.5 0 0 1 .263-.262l.197.46ZM15.8 8.197l-.197-.46a.5.5 0 0 1 .657.657l-.46-.197Zm-7.603 7.604.197.46a.5.5 0 0 1-.657-.657l.46.197Zm5.322-2.281.46.197a.5.5 0 0 1-.263.262l-.197-.46Zm-.445-.446.353.354-.353-.354Zm-2.15 0-.354.354.353-.354Zm0-2.15.353.353-.354-.353Zm-.643-.905 5.322-2.281.394.919-5.322 2.281-.394-.92Zm-2.544 5.585 2.281-5.323.92.394L8.656 16l-.919-.394Zm5.979-1.625L8.394 16.26 8 15.342l5.322-2.28.394.918Zm2.543-5.585-2.28 5.323-.92-.394L15.341 8l.92.394Zm-2.832 5.034a2.02 2.02 0 0 1-2.857 0l.707-.707a1.02 1.02 0 0 0 1.443 0l.707.707Zm0-2.858c.79.79.79 2.069 0 2.858l-.707-.707a1.02 1.02 0 0 0 0-1.444l.707-.707Zm-2.857 0a2.02 2.02 0 0 1 2.857 0l-.707.707a1.02 1.02 0 0 0-1.443 0l-.707-.707Zm0 2.858a2.02 2.02 0 0 1 0-2.858l.707.707a1.02 1.02 0 0 0 0 1.444l-.707.707Z"/></g></svg>