<svg xmlns="http://www.w3.org/2000/svg" width="24" height="24"><path fill="currentColor" fill-rule="evenodd" d="M21.508 5.243a.95.95 0 0 1-.252 1.33L13.23 12l8.026 5.427a.95.95 0 0 1 .252 1.33.975.975 0 0 1-1.345.249l-8.635-5.84-2.545 1.797c.074.275.114.565.114.863 0 1.848-1.517 3.347-3.387 3.347s-3.387-1.499-3.387-3.347c0-1.85 1.516-3.348 3.387-3.348.867 0 1.658.322 2.257.852L9.851 12l-1.884-1.33c-.599.53-1.39.852-2.257.852-1.87 0-3.387-1.499-3.387-3.348 0-1.848 1.516-3.347 3.387-3.347 1.87 0 3.387 1.499 3.387 3.347 0 .298-.04.588-.114.863l2.545 1.796 8.635-5.84a.975.975 0 0 1 1.345.25ZM12.484 12a.962.962 0 0 1-.968.956.962.962 0 0 1-.968-.956c0-.528.434-.956.968-.956.535 0 .968.428.968.956Zm-8.226 3.826c0 .792.65 1.434 1.452 1.434.801 0 1.451-.642 1.451-1.434 0-.793-.65-1.435-1.451-1.435-.802 0-1.452.642-1.452 1.435Zm0-7.652c0 .793.65 1.435 1.452 1.435.801 0 1.451-.642 1.451-1.435 0-.792-.65-1.434-1.451-1.434-.802 0-1.452.642-1.452 1.434Z" clip-rule="evenodd"/></svg>