<svg xmlns="http://www.w3.org/2000/svg" width="24" height="24"><g fill="none"><path fill="currentColor" d="M3.783 6.263c5.273-4.007 11.794-3.945 16.482.107.392.338.407.932.06 1.316l-2.128 2.347a.967.967 0 0 1-1.106.236l-1.367-.6a.967.967 0 0 1-.542-1.146l.536-1.92a.967.967 0 0 0-.921-1.227l-5.638-.061a.967.967 0 0 0-.95 1.195l.493 2.038a.967.967 0 0 1-.546 1.111l-1.358.605a.967.967 0 0 1-1.135-.262L3.652 7.598c-.34-.407-.291-1.015.131-1.336Z"/><path stroke="currentColor" stroke-linecap="round" stroke-linejoin="round" stroke-width="1.5" d="M3.783 6.263c5.273-4.007 11.794-3.945 16.482.107.392.338.407.932.06 1.316l-2.128 2.347a.967.967 0 0 1-1.106.236l-1.367-.6a.967.967 0 0 1-.542-1.146l.536-1.92a.967.967 0 0 0-.921-1.227l-5.638-.061a.967.967 0 0 0-.95 1.195l.493 2.038a.967.967 0 0 1-.546 1.111l-1.358.605a.967.967 0 0 1-1.135-.262L3.652 7.598c-.34-.407-.291-1.015.131-1.336Z"/><circle cx="12.325" cy="16.038" r="2.443" stroke="currentColor" stroke-width="1.5"/><path stroke="currentColor" stroke-linecap="round" stroke-linejoin="round" stroke-width="1.5" d="M13.015 11.373h-1.79c-.696 0-2.86-.121-3.328 1.286L6.31 17.817c-.432 1.323.2 2.89 1.682 2.89h8.679c1.516 0 2.115-1.534 1.645-2.954l-2.024-5.094c-.469-1.286-2.608-1.286-3.278-1.286Z"/></g></svg>