<svg xmlns="http://www.w3.org/2000/svg" width="24" height="24"><g fill="none"><path fill="currentColor" d="M9.989 14.221 8.393 7.608h1.596l.221 1.837.577 4.776h-.798Z"/><path stroke="currentColor" stroke-linecap="round" stroke-linejoin="round" stroke-width="1.5" d="m19.966 17.941-1.996 1.24-2.394-4.96h-4.789m0 0h-.798L8.393 7.608h1.596l.221 1.837m.577 4.776-.577-4.776m0 0h3.524"/><path fill="currentColor" fill-rule="evenodd" d="M15.653 18.145c-.36-.36-.978-.233-1.274.18a4.44 4.44 0 1 1-6.718-5.755c.233-.229.347-.563.253-.876-.15-.498-.734-.716-1.12-.367a5.94 5.94 0 1 0 8.964 7.639.657.657 0 0 0-.105-.821Z" clip-rule="evenodd"/><path fill="currentColor" stroke="currentColor" stroke-width="1.5" d="M10.313 4.103a1.03 1.03 0 1 1-2.06 0 1.03 1.03 0 0 1 2.06 0Z"/></g></svg>