<svg xmlns="http://www.w3.org/2000/svg" width="24" height="24"><g fill="none"><path stroke="currentColor" stroke-width="1.5" d="M5.8 5.444a2.25 2.25 0 0 1 2.25-2.25h7.988a2.25 2.25 0 0 1 2.25 2.25v13.233a2.25 2.25 0 0 1-2.25 2.25H8.051a2.25 2.25 0 0 1-2.25-2.25V5.444Z"/><path stroke="currentColor" stroke-linecap="round" stroke-width="1.5" d="M5.925 8.564h12.239"/><path fill="currentColor" d="M7.673 5.941c0-.482.392-.874.874-.874h6.994a.874.874 0 1 1 0 1.749H8.547a.874.874 0 0 1-.874-.875Z"/></g></svg>