<svg xmlns="http://www.w3.org/2000/svg" width="24" height="24"><g fill="none" stroke="currentColor"><path stroke-linecap="round" stroke-linejoin="round" stroke-width="1.5" d="m7.148 10.962-.968 3.632m.968-3.632 4.358 1.557m-4.358-1.557H6.18l-.969 3.632h.969m0 0 2.663-1.038 3.632 2.595"/><path stroke-linecap="round" stroke-linejoin="round" stroke-width="1.5" d="m17.073 14.321-4.565 1.83H5.173m0 0H3.136v2.075l2.037-2.075Z"/><path stroke-linecap="round" stroke-linejoin="round" stroke-width="1.5" d="M17.582 14.857c.34.243.756.386 1.207.386.378 0 .732-.1 1.037-.277m-2.244-.11a2.073 2.073 0 0 1-.735-2.423m.735 2.424 1.726 2.98.518-2.871m0 0a2.074 2.074 0 0 0-1.037-3.873c-.888 0-1.645.557-1.942 1.34m0 0-2.728-1.34V9.537"/><path fill="currentColor" stroke-width="1.5" d="M8.612 7.33a.806.806 0 1 1-1.613 0 .806.806 0 0 1 1.613 0Z"/><path stroke-linecap="round" stroke-linejoin="round" stroke-width=".585" d="M5.211 15.113H6.25"/><path fill="currentColor" stroke-linecap="round" stroke-linejoin="round" stroke-width=".585" d="M6.249 15.813v-.868H5.21v.868h1.04Z"/></g></svg>