<svg xmlns="http://www.w3.org/2000/svg" width="24" height="24"><g fill="none" stroke="currentColor"><path stroke-linecap="round" stroke-linejoin="round" stroke-width="1.756" d="M6.526 10.853 5.434 14.95m1.092-4.097 4.917 1.756m-4.917-1.756H5.434L4.34 14.95h1.093m0 0 3.004-1.17 4.098 2.926"/><path stroke-linecap="round" stroke-linejoin="round" stroke-width="1.522" d="m17.724 14.642-5.15 2.064H4.297m0 0H2v2.341l2.298-2.34Z"/><path stroke-linecap="round" stroke-linejoin="round" stroke-width="1.522" d="M18.297 15.246a2.33 2.33 0 0 0 1.362.437 2.33 2.33 0 0 0 1.17-.313m-2.532-.124a2.338 2.338 0 0 1-.828-2.733m.828 2.733 1.947 3.364.585-3.24m0 0a2.34 2.34 0 1 0-3.36-2.857m0 0L14.39 11V9.245"/><path fill="currentColor" stroke-width="1.415" d="M8.316 6.756a1.049 1.049 0 1 1-2.097 0 1.049 1.049 0 0 1 2.097 0Z"/><path stroke-linecap="round" stroke-linejoin="round" stroke-width=".585" d="M4.341 15.536h1.17"/><path fill="currentColor" stroke-linecap="round" stroke-linejoin="round" stroke-width=".585" d="M5.512 16.325v-.979h-1.17v.98h1.17Z"/></g></svg>