<svg xmlns="http://www.w3.org/2000/svg" width="24" height="24"><path fill="currentColor" fill-rule="evenodd" d="m9.333 8.904.003.003.008.01.029.036a21.395 21.395 0 0 1 .443.574c.263.351.597.817.832 1.22.197.339.386.739.555 1.136.125-.438.295-1.101.567-2.244.417-1.748.515-2.604.482-3.122-.027-.4-.123-.59-.327-.992a30.7 30.7 0 0 1-.096-.19c-.004-.008-.058-.11-.08-.234a.752.752 0 0 1 1.13-.777c.1.06.17.135.179.145.026.027.05.054.07.078.078.092.192.24.325.418.274.365.671.916 1.119 1.557.892 1.277 2.004 2.942 2.745 4.229.771 1.34 1.617 3.118 2.264 4.545a108.356 108.356 0 0 1 1.028 2.343l.062.146.02.05s.001.001-.691.29l.692-.289a.75.75 0 0 1-.402.98l-.29-.691.29.692h-.001l-.002.001-.005.002-.014.006a2.5 2.5 0 0 1-.19.068 8.41 8.41 0 0 1-.551.163 18.09 18.09 0 0 1-2.243.419c-1.092.142-2.512.255-4.308.272a49.458 49.458 0 0 1-2.645-.048 31.388 31.388 0 0 1-2.937-.268 16.894 16.894 0 0 1-1.998-.395 8.015 8.015 0 0 1-.627-.197l-.039-.015-.012-.005-.005-.002h-.002l-.001-.001.29-.692-.29.692a.75.75 0 0 1-.406-.97l.117-.294.352-.873c.313-.774.782-1.931 1.408-3.463a58.626 58.626 0 0 1 1.425-3.254 21.543 21.543 0 0 1 .46-.902c.01-.02.02-.035.026-.046l.007-.013.003-.005v-.001l.001-.001.647.38-.647-.38a.75.75 0 0 1 1.23-.091Zm-2.202 8.97 1.456-2.278a.75.75 0 0 1 1.33.132l.972 2.494a35.129 35.129 0 0 1-1.647-.095l-.187-.479-.28.438a25.869 25.869 0 0 1-1.644-.213Zm5.255.376 1.262-4.936a.75.75 0 0 1 1.388-.17l2.565 4.772a27.511 27.511 0 0 1-1.6.19l-1.376-2.557-.685 2.679a43.797 43.797 0 0 1-1.44.022h-.114Z" clip-rule="evenodd"/></svg>