<svg xmlns="http://www.w3.org/2000/svg" width="24" height="24"><path fill="currentColor" fill-rule="evenodd" d="m8.286 8.842.003.004.01.011.033.042a24.877 24.877 0 0 1 .52.674c.308.412.7.958.976 1.431.231.398.453.867.651 1.332a66.18 66.18 0 0 0 .665-2.632c.488-2.05.604-3.054.565-3.661-.031-.47-.145-.694-.383-1.164a35.961 35.961 0 0 1-.113-.223 1.014 1.014 0 0 1-.093-.274.89.89 0 0 1 .41-.91.883.883 0 0 1 .915-.002c.116.07.199.158.21.17.03.031.058.064.081.091.092.108.225.281.382.49.321.43.787 1.076 1.312 1.827 1.046 1.499 2.351 3.451 3.22 4.96.905 1.574 1.897 3.658 2.656 5.332a127.828 127.828 0 0 1 1.206 2.748l.072.171.025.06-.812.34.812-.34a.88.88 0 0 1-.471 1.15l-.34-.81.34.81-.002.001-.002.001-.006.003-.016.006a4.513 4.513 0 0 1-.222.08c-.148.05-.362.117-.648.192-.573.15-1.434.335-2.63.49-1.282.167-2.948.3-5.054.32l-.558.002a53.13 53.13 0 0 1-2.544-.058 36.855 36.855 0 0 1-3.446-.315 19.828 19.828 0 0 1-2.343-.463 9.3 9.3 0 0 1-.735-.231 3.571 3.571 0 0 1-.046-.018l-.014-.006-.006-.002h-.002l-.002-.002.34-.81-.34.81a.88.88 0 0 1-.476-1.138l.138-.343.413-1.025c.367-.908.917-2.265 1.65-4.062a68.788 68.788 0 0 1 1.672-3.816 25.296 25.296 0 0 1 .54-1.058l.03-.055.01-.015.002-.005.001-.002v-.001l.76.446-.76-.446a.88.88 0 0 1 1.444-.107Zm-2.583 10.52 1.707-2.67a.88.88 0 0 1 1.56.154l1.14 2.926a45.067 45.067 0 0 1-1.932-.111l-.218-.562-.329.513a30.217 30.217 0 0 1-1.928-.25Zm6.163.443 1.481-5.79a.88.88 0 0 1 1.627-.199l3.009 5.597a32.159 32.159 0 0 1-1.877.224l-1.613-3-.804 3.142a51.715 51.715 0 0 1-1.689.026h-.134Z" clip-rule="evenodd"/></svg>