<svg xmlns="http://www.w3.org/2000/svg" width="24" height="24"><path fill="currentColor" d="m3.431 19.017-.696-.278a.75.75 0 0 0 .406.97l.29-.692Zm17.138 0 .29.692a.75.75 0 0 0 .402-.98l-.692.288ZM7.716 9.02l.583-.471a.75.75 0 0 0-1.23.091l.647.38Zm2.856 5.499-.717.221a.75.75 0 0 0 1.438-.015l-.721-.206ZM12 4.022l-.67.335.67-.335ZM9.144 11.02l-.648.377.648-.377Zm7.616 0 .65-.374-.65.374Zm-2.618 2.713.66-.355a.75.75 0 0 0-1.386.17l.726.185Zm-5.89 2.857.698-.273a.75.75 0 0 0-1.33-.131l.631.404Zm1.312 3.371-.036.75.036-.75ZM7.716 9.021l-.584.47v.001l.002.002.007.01a11.783 11.783 0 0 1 .14.175c.093.119.222.286.366.478.294.392.629.863.849 1.24l1.296-.755a15.732 15.732 0 0 0-.944-1.384 28.99 28.99 0 0 0-.546-.705L8.3 8.55h-.001v-.001l-.583.471Zm.78 2.376c.335.575.673 1.399.935 2.108a28.821 28.821 0 0 1 .423 1.23l.001.004v.001l.717-.221.716-.222v-.002l-.002-.006-.006-.02a28.286 28.286 0 0 0-.442-1.284c-.267-.723-.642-1.65-1.046-2.343l-1.296.755Zm2.797 3.328c.517-1.809.489-1.05 1.437-5.031l-1.46-.347c-.956 4.017-.82 2.87-1.42 4.966l1.443.412Zm1.437-5.031c.476-2.001.645-3.188.59-4.043-.06-.913-.383-1.433-.65-1.965l-1.34.671c.305.611.457.841.493 1.392.04.608-.077 1.6-.553 3.598l1.46.347Zm-.06-6.008a.43.43 0 0 1 .015.032c.003.009.026.064.04.14a.748.748 0 0 1-1.117.77.643.643 0 0 1-.107-.079.436.436 0 0 1-.024-.022l.014.016c.055.064.16.199.312.402a69.23 69.23 0 0 1 1.246 1.736c1.012 1.449 2.251 3.305 3.061 4.713l1.3-.748c-.843-1.467-2.112-3.365-3.13-4.824a73.372 73.372 0 0 0-1.276-1.776c-.153-.204-.282-.37-.368-.473a1.87 1.87 0 0 0-.075-.083c-.005-.005-.078-.086-.183-.149a.753.753 0 0 0-1.13.778c.023.13.08.234.081.238l1.342-.67Zm3.44 7.708c.841 1.461 1.781 3.433 2.517 5.055a122.078 122.078 0 0 1 1.227 2.802l.017.041.004.01.001.003v.001l.693-.289.692-.288v-.001l-.002-.003-.004-.012a8.457 8.457 0 0 0-.019-.043l-.07-.166a111.586 111.586 0 0 0-1.173-2.674c-.74-1.63-1.704-3.657-2.582-5.184l-1.3.748ZM3.431 19.017l.696.279.001-.001.002-.004c0-.004.003-.009.006-.016l.025-.062a233.774 233.774 0 0 1 .501-1.245c.357-.883.892-2.203 1.606-3.951l-1.39-.567a1224.484 1224.484 0 0 0-2.11 5.205c-.01.028-.02.049-.025.063l-.006.015-.002.004v.002l.696.278Zm2.837-5a65.432 65.432 0 0 1 1.588-3.627 23.064 23.064 0 0 1 .502-.983l.004-.007-.646-.38-.647-.38a.029.029 0 0 0-.002.003l-.002.005a2.955 2.955 0 0 0-.038.066 24.527 24.527 0 0 0-.523 1.025 66.906 66.906 0 0 0-1.625 3.71l1.389.568ZM12 20.767c.184 0 .365 0 .543-.002l-.015-1.5-.528.002v1.5Zm1.262-.567 1.607-6.28-1.453-.373-1.607 6.282 1.453.371Zm-.72.565c2.048-.02 3.666-.149 4.91-.31l-.193-1.488c-1.18.153-2.738.279-4.73.298l.014 1.5Zm4.91-.31a20.399 20.399 0 0 0 2.549-.476 9.516 9.516 0 0 0 .788-.242 3.028 3.028 0 0 0 .061-.024l.005-.003h.003v-.001l-.29-.692-.29-.691h.001l.002-.001h-.001l-.022.009a8.073 8.073 0 0 1-.638.195c-.488.127-1.26.295-2.361.438l.193 1.487Zm-3.97-6.367 3.213 5.978 1.321-.71-3.213-5.978-1.321.71Zm-10.05 4.93c-.291.69-.291.69-.29.691l.002.001.005.002a1.071 1.071 0 0 0 .056.022 8.984 8.984 0 0 0 .706.222 19.2 19.2 0 0 0 2.27.448l.213-1.485a17.753 17.753 0 0 1-2.091-.411 7.52 7.52 0 0 1-.565-.176l-.018-.007h-.002.003l-.29.692Zm3.487 1.048 1.964-3.073-1.264-.807-1.964 3.072 1.264.808Zm-.738.338c.892.128 2 .241 3.347.306l.072-1.498a34.249 34.249 0 0 1-3.206-.293l-.213 1.485Zm3.347.306a51.47 51.47 0 0 0 2.472.057v-1.5c-.878 0-1.677-.02-2.4-.055l-.072 1.498Zm-1.976-3.848 1.313 3.371 1.397-.544-1.312-3.372-1.398.545Z"/></svg>