<svg xmlns="http://www.w3.org/2000/svg" width="24" height="24"><g fill="none"><path fill="currentColor" d="M9.221 5.615C6.443 5.615 4.36 4.4 4.36 4.4v8.513s2.81 1.8 4.862 1.44c2.191-.386 2.779-1.176 4.863-1.176 2.084 0 3.206.587 5.557 1.56v-9.12c-1.763-.67-3.473-1.217-5.557-1.217-1.82 0-3.002 1.216-4.863 1.216Z"/><path stroke="currentColor" stroke-linecap="round" stroke-linejoin="round" stroke-width="1.5" d="M4.359 4.4S6.443 5.614 9.22 5.614c1.86 0 3.043-1.216 4.863-1.216 2.084 0 3.794.547 5.557 1.216v9.121c-2.35-.973-3.473-1.56-5.557-1.56-2.084 0-2.672.79-4.863 1.175-2.052.361-4.862-1.439-4.862-1.439m0-8.513v8.513m0-8.513V3.183m0 17.634v-7.905"/></g></svg>