<svg xmlns="http://www.w3.org/2000/svg" width="24" height="24"><g fill="none"><path fill="currentColor" d="M9.136 6.069C6.773 6.069 5 5.035 5 5.035v7.24s2.39 1.532 4.136 1.225c1.864-.328 2.364-1 4.137-1 1.773 0 2.727.5 4.727 1.328V6.069c-1.5-.569-2.954-1.035-4.727-1.035-1.548 0-2.554 1.035-4.137 1.035Z"/><path stroke="currentColor" stroke-linecap="round" stroke-linejoin="round" stroke-width="1.5" d="M5 5.035s1.773 1.034 4.136 1.034c1.583 0 2.589-1.034 4.137-1.035 1.773 0 3.227.466 4.727 1.035v7.759C16 13 15.046 12.5 13.273 12.5c-1.773 0-2.273.672-4.137 1C7.39 13.807 5 12.276 5 12.276m0-7.241v7.24m0-7.24V4m0 15v-6.724"/></g></svg>