<svg xmlns="http://www.w3.org/2000/svg" width="24" height="24"><g fill="none"><path stroke="currentColor" stroke-width="1.5" d="M11.526 4.076c2.126 0 3.969 1.439 4.654 3.5l.187.564.59-.053c.083-.007.169-.01.254-.01 1.64 0 3.039 1.416 3.039 3.25 0 1.833-1.398 3.249-3.04 3.25H6.79c-1.642-.001-3.04-1.417-3.04-3.25 0-1.639 1.123-2.952 2.53-3.206l.442-.08.138-.427c.675-2.081 2.528-3.538 4.666-3.538Z"/><path fill="currentColor" d="M6.472 17.215a.262.262 0 0 1 .26-.24h1.503c.154 0 .274.131.261.284l-.128 1.504a.262.262 0 0 1-.26.24H6.604a.262.262 0 0 1-.261-.284l.128-1.504Z"/><path fill="currentColor" d="M6.472 17.215a.262.262 0 0 1 .26-.24h1.503c.154 0 .274.131.261.284l-.128 1.504a.262.262 0 0 1-.26.24H6.604a.262.262 0 0 1-.261-.284l.128-1.504Zm4.58 0a.262.262 0 0 1 .26-.24h1.503c.154 0 .274.131.261.284l-.128 1.504a.262.262 0 0 1-.26.24h-1.503a.262.262 0 0 1-.261-.284l.128-1.504Zm4.137 0a.262.262 0 0 1 .26-.24h1.503a.26.26 0 0 1 .26.284l-.127 1.504a.262.262 0 0 1-.261.24h-1.502a.262.262 0 0 1-.261-.284l.128-1.504Zm-1.937 3.677a.262.262 0 0 1 .261-.24h1.502c.154 0 .274.131.261.284l-.127 1.504a.262.262 0 0 1-.261.24h-1.503a.262.262 0 0 1-.26-.284l.127-1.504Zm-4.58 0a.262.262 0 0 1 .261-.24h1.503a.26.26 0 0 1 .26.284l-.127 1.504a.262.262 0 0 1-.261.24H8.805a.262.262 0 0 1-.26-.284l.127-1.504Z"/></g></svg>