<svg xmlns="http://www.w3.org/2000/svg" width="24" height="24"><path fill="none" stroke="currentColor" stroke-linecap="round" stroke-width="1.5" d="M16.784 10.573c0 1.273 0-1.273 0 0Zm0 0v2.546m0-2.546c0-1.273 2.657-1.273 2.657 0v6.684c0 5.093-11.39 5.136-13.431 0-.757-1.905-.626-1.498-1.322-3.15-.695-1.652 1.595-2.638 2.51-.988.916 1.65 1.613 4.268 1.613 3.183V3.862c0-1.274 2.658-1.274 2.658 0m5.315 6.711c0-1.273-2.667-1.273-2.658 0m0 0c0-1.273-2.657-1.273-2.657 0V3.862m2.657 6.711c0 .304 0-.33 0 0Zm0 0c.014 1.91 0 2.546 0 2.546m-2.657 0V3.862"/></svg>