<svg xmlns="http://www.w3.org/2000/svg" width="24" height="24"><g fill="none"><circle cx="12" cy="12" r="8.927" stroke="currentColor" stroke-width="1.5"/><path fill="currentColor" fill-rule="evenodd" d="M15.892 13.486c.178-.232.513-.298.733-.105.15.13.293.267.43.41a.457.457 0 0 1 .035.595c-1.183 1.553-2.974 2.543-4.978 2.543-2.073 0-3.917-1.06-5.098-2.706a.457.457 0 0 1 .054-.595c.142-.137.29-.27.442-.395.226-.185.557-.11.729.127.926 1.279 2.35 2.069 3.873 2.069 1.473 0 2.853-.738 3.78-1.943Z" clip-rule="evenodd"/><path fill="currentColor" d="M9.85 8.774a1.344 1.344 0 1 1-2.689 0 1.344 1.344 0 0 1 2.689 0Zm6.989 0a1.344 1.344 0 1 1-2.689 0 1.344 1.344 0 0 1 2.689 0Z"/></g></svg>