<svg xmlns="http://www.w3.org/2000/svg" width="24" height="24"><path fill="currentColor" d="m10.878 5.41.497-.563c.058.051.107.11.147.177l-.644.385Zm.664 13.964.717-.22a.75.75 0 0 1-1.168.819l.45-.6ZM8.99 11.03l.717-.22-.717.22Zm.228-1.33.603.446-.603-.446Zm1.206-.608v.75-.75Zm2.658 0 .644-.385a.75.75 0 0 1-.644 1.135v-.75Zm-.63 3-.717.22a.75.75 0 0 1 .717-.97v.75Zm1.969 6.438.49.568a.75.75 0 0 1-1.207-.349l.717-.219Zm1.307-6.438v-.75.75Zm1.305-.76-.653-.37.653.37Zm-.018-1.51-.644.385.644-.385Zm-2.716-4.54-.644.386a.75.75 0 0 1 .163-.96l.48.575Zm-3.917.69c-1.474-1.302-3.14-1.473-4.404-.936C4.717 5.57 3.75 6.853 3.75 8.708h-1.5c0-2.427 1.3-4.271 3.142-5.053 1.838-.78 4.112-.46 5.983 1.192l-.993 1.124ZM3.75 8.707c0 .773.311 1.672.89 2.653.573.974 1.373 1.97 2.268 2.926 1.789 1.91 3.885 3.584 5.085 4.488l-.902 1.198c-1.228-.924-3.403-2.658-5.278-4.66-.937-1.002-1.817-2.088-2.466-3.19C2.703 11.029 2.25 9.86 2.25 8.708h1.5Zm7.075 10.885L8.273 11.25l1.434-.438 2.552 8.342-1.434.44ZM8.273 11.25a2.25 2.25 0 0 1 .343-1.996l1.205.892a.75.75 0 0 0-.114.665l-1.434.44Zm.343-1.996a2.25 2.25 0 0 1 1.808-.912v1.5a.75.75 0 0 0-.603.304l-1.205-.892Zm1.808-.912h2.658v1.5h-2.658v-1.5Zm2.015 1.135-2.204-3.683 1.287-.77 2.204 3.683-1.287.77Zm.73 2.396 1.969 6.438-1.434.438-1.97-6.437 1.435-.44Zm2.559.97h-3.276v-1.5h3.276v1.5Zm1.957-1.141a2.25 2.25 0 0 1-1.957 1.14v-1.5a.75.75 0 0 0 .652-.38l1.305.74Zm-.026-2.265a2.25 2.25 0 0 1 .026 2.265l-1.305-.74a.75.75 0 0 0-.009-.755l1.288-.77Zm-2.717-4.54 2.716 4.54-1.287.77-2.716-4.54 1.287-.77Zm5.869 3.81c0-1.728-.865-2.987-2-3.548-1.122-.554-2.621-.48-4.031.699l-.962-1.15c1.827-1.529 3.959-1.733 5.658-.894 1.686.833 2.835 2.64 2.835 4.894h-1.5Zm-6.88 9.255c1.313-1.13 3.06-2.754 4.475-4.476.707-.86 1.316-1.73 1.746-2.56.433-.837.659-1.585.659-2.218h1.5c0 .966-.336 1.96-.827 2.908-.494.954-1.173 1.913-1.919 2.822-1.493 1.818-3.315 3.506-4.655 4.66l-.979-1.136Z"/></svg>