<svg xmlns="http://www.w3.org/2000/svg" width="24" height="24"><g fill="none" stroke="currentColor" stroke-linecap="round" stroke-linejoin="round" stroke-width="1.5"><path fill="currentColor" d="M18.178 20.816C9.582 19.74 3.607 13.646 3.123 5.559a.96.96 0 0 1 .926-1.005l4.442-.219a1 1 0 0 1 .981.636l.83 2.129a1 1 0 0 1-.441 1.234L7.193 9.837a1 1 0 0 0-.224 1.571l5.47 5.59a1 1 0 0 0 1.57-.178l1.657-2.718a1 1 0 0 1 1.212-.412l2.125.815a1 1 0 0 1 .639 1.022l-.39 4.402a.966.966 0 0 1-1.074.887Z"/><path d="m19.72 4.043-4.7 4.7m0 0-.227-3.69m.226 3.69 3.69.226"/></g></svg>