<svg xmlns="http://www.w3.org/2000/svg" width="24" height="24"><g fill="none"><path stroke="currentColor" stroke-width="1.5" d="m7.087 7.994-1.67 1.69a1.5 1.5 0 0 0-.432 1.054v8.716a1.5 1.5 0 0 0 1.5 1.5h11.843a1.5 1.5 0 0 0 1.5-1.5V6.16a3 3 0 0 0-3-3h-4.33a1.5 1.5 0 0 0-1.1.48L9.919 5.235M7.087 7.994l-1.742-1.77a.5.5 0 0 1 .016-.717L7.549 3.47a.5.5 0 0 1 .702.02L9.92 5.235M7.087 7.994l2.832-2.76"/><path stroke="currentColor" stroke-linecap="round" stroke-width="1.5" d="M14.191 13.34v3.073m0-3.074h-3.57m3.57 0 1.74-1.74m-1.74 4.814h-3.57m3.57 0 .87.87.87.87m-5.31-1.74v-3.074m0 3.074-1.74 1.74m1.74-4.814-1.74-1.74"/><path fill="currentColor" d="M15.738 7.868v1.5h-2.302v-1.5h2.302Zm.558-.558a.558.558 0 0 0-.558-.557h-2.302a.558.558 0 1 0 0 1.115v1.5l-.21-.01A2.058 2.058 0 0 1 11.39 7.52l-.01-.21c0-1.065.81-1.941 1.847-2.047l.21-.01h2.302c1.136 0 2.058.92 2.058 2.057l-.011.21a2.058 2.058 0 0 1-1.837 1.837l-.21.01v-1.5a.557.557 0 0 0 .558-.557Z"/></g></svg>