<svg xmlns="http://www.w3.org/2000/svg" width="24" height="24"><g fill="currentColor"><path fill-rule="evenodd" d="M10.222 9.67h10.635v2.796H18.06v4.195h-2.33v-4.195h-5.508s-1.019 2.33-3.35 2.33c-2.33 0-3.729-1.669-3.729-3.728 0-2.06 1.399-3.73 3.73-3.73 2.33 0 3.35 2.331 3.35 2.331Zm-6.147 1.398a2.797 2.797 0 1 0 5.594 0 2.797 2.797 0 0 0-5.594 0Z" clip-rule="evenodd"/><path d="M20.857 9.67v-.75a.75.75 0 0 1 .75.75h-.75Zm-10.635 0v.75a.75.75 0 0 1-.687-.45l.687-.3Zm10.635 2.796h.75a.75.75 0 0 1-.75.75v-.75Zm-2.797 0h-.75a.75.75 0 0 1 .75-.75v.75Zm0 4.195h.75a.75.75 0 0 1-.75.75v-.75Zm-2.33 0v.75a.75.75 0 0 1-.75-.75h.75Zm0-4.195v-.75a.75.75 0 0 1 .75.75h-.75Zm-5.508 0-.687-.3a.75.75 0 0 1 .687-.45v.75Zm-3.35 2.33v-.75.75Zm-3.729-3.728h.75-.75Zm3.73 2.796v-.75.75Zm13.984-3.445H10.222v-1.5h10.635v1.5Zm-.75 2.047V9.67h1.5v2.797h-1.5Zm-2.047-.75h2.797v1.5H18.06v-1.5Zm-.75 4.945v-4.195h1.5v4.195h-1.5Zm-1.58-.75h2.33v1.5h-2.33v-1.5Zm.75-3.445v4.195h-1.5v-4.195h1.5Zm-6.258-.75h5.507v1.5h-5.507v-1.5Zm-3.35 2.33c.89 0 1.543-.438 2.002-.927a4.103 4.103 0 0 0 .662-.956v.002l.686.301.687.301v.002l-.002.004-.005.01-.013.029a4.904 4.904 0 0 1-.22.406 5.592 5.592 0 0 1-.7.926c-.634.676-1.656 1.403-3.097 1.403v-1.5Zm-2.979-2.978c0 .86.29 1.6.785 2.12.488.514 1.218.859 2.194.859v1.5c-1.354 0-2.488-.49-3.282-1.326-.788-.83-1.197-1.954-1.197-3.153h1.5Zm2.98-2.98c-.977 0-1.707.345-2.195.86-.494.519-.785 1.26-.785 2.12h-1.5c0-1.2.409-2.324 1.197-3.154.794-.836 1.928-1.326 3.282-1.326v1.5Zm3.35 1.581-.688.301v.002h.001c0 .001 0 0 0 0a1.101 1.101 0 0 0-.03-.063 4.1 4.1 0 0 0-.631-.892c-.46-.49-1.113-.929-2.003-.929v-1.5c1.441 0 2.463.727 3.097 1.403a5.593 5.593 0 0 1 .92 1.333l.013.029.005.01.001.003v.002h.001l-.687.301Zm-3.35 4.945a3.547 3.547 0 0 1-3.548-3.546h1.5c0 1.13.917 2.046 2.047 2.046v1.5Zm3.546-3.546a3.547 3.547 0 0 1-3.547 3.546v-1.5c1.13 0 2.047-.916 2.047-2.046h1.5ZM6.872 7.52a3.547 3.547 0 0 1 3.547 3.547h-1.5c0-1.13-.916-2.047-2.047-2.047v-1.5Zm-3.547 3.547A3.547 3.547 0 0 1 6.872 7.52v1.5c-1.13 0-2.047.916-2.047 2.047h-1.5Z"/></g></svg>