<svg xmlns="http://www.w3.org/2000/svg" width="24" height="24"><path fill="currentColor" d="M16.257 14.554c-.224-.225-.266-.57-.146-.863A4.432 4.432 0 0 0 16.444 12c0-.606-.121-1.184-.34-1.711-.124-.295-.083-.641.143-.867l3.046-3.046c.3-.3.796-.271 1.032.081A9.953 9.953 0 0 1 22 12c0 2.04-.611 3.938-1.66 5.52-.235.355-.733.384-1.033.083l-3.05-3.05ZM7.743 9.446c.224.225.266.57.146.863A4.432 4.432 0 0 0 7.556 12c0 .587.113 1.147.32 1.66.118.292.074.633-.149.857L4.672 17.57c-.3.302-.8.272-1.034-.084A9.953 9.953 0 0 1 2 12c0-2.04.611-3.939 1.66-5.52.236-.355.733-.384 1.034-.083l3.049 3.05Zm1.703-1.703c.225.224.57.266.863.145A4.432 4.432 0 0 1 12 7.556c.587 0 1.147.113 1.66.32.292.118.633.074.857-.149l3.054-3.055c.302-.3.272-.8-.084-1.034A9.953 9.953 0 0 0 12 2c-2.04 0-3.938.611-5.52 1.66-.355.235-.384.733-.083 1.033l3.05 3.05Zm5.108 8.514c-.225-.224-.57-.267-.863-.146a4.432 4.432 0 0 1-1.691.333 4.431 4.431 0 0 1-1.711-.34c-.295-.124-.641-.083-.867.143l-3.046 3.046c-.3.3-.271.796.081 1.032A9.953 9.953 0 0 0 12 22c2.04 0 3.939-.611 5.52-1.66.355-.235.384-.733.083-1.034l-3.05-3.049Z"/></svg>