<svg xmlns="http://www.w3.org/2000/svg" width="24" height="24"><path fill="currentColor" d="M15.56 14.135c-.188-.188-.223-.476-.122-.721.18-.436.278-.913.278-1.414 0-.507-.101-.99-.285-1.43-.103-.247-.068-.537.12-.726l2.547-2.546a.558.558 0 0 1 .863.068A8.323 8.323 0 0 1 20.36 12a8.323 8.323 0 0 1-1.388 4.616c-.196.296-.612.32-.864.069l-2.55-2.55Zm-7.12-4.27c.188.187.223.476.122.721-.18.436-.278.913-.278 1.414 0 .49.095.959.268 1.388.098.244.062.53-.124.716L5.873 16.66c-.252.251-.669.226-.865-.071A8.323 8.323 0 0 1 3.638 12a8.32 8.32 0 0 1 1.39-4.616c.196-.296.611-.32.863-.07l2.55 2.55ZM9.865 8.44c.188.188.476.223.721.122.436-.18.913-.278 1.414-.278.49 0 .959.095 1.388.268.244.098.53.062.716-.124l2.555-2.555c.251-.252.226-.669-.071-.865A8.323 8.323 0 0 0 12 3.638a8.323 8.323 0 0 0-4.616 1.389c-.296.196-.32.612-.069.864l2.55 2.55Zm4.27 7.12c-.187-.188-.476-.223-.721-.122-.436.18-.913.278-1.414.278-.507 0-.99-.101-1.43-.285-.247-.103-.537-.068-.726.12l-2.546 2.547a.558.558 0 0 0 .068.863A8.323 8.323 0 0 0 12 20.36a8.322 8.322 0 0 0 4.616-1.388c.296-.197.32-.613.07-.864l-2.55-2.55Z"/></svg>