<svg xmlns="http://www.w3.org/2000/svg" width="24" height="24"><g fill="none" stroke="currentColor" stroke-width="1.5"><path d="M11.847 3.073c2.206 0 4.135 1.534 4.854 3.756l.185.569.595-.054a2.94 2.94 0 0 1 .264-.012c1.702 0 3.183 1.514 3.183 3.51 0 1.996-1.48 3.51-3.183 3.51H6.932c-1.702 0-3.182-1.514-3.182-3.51 0-1.78 1.188-3.19 2.651-3.46l.444-.083.135-.43c.709-2.243 2.647-3.796 4.867-3.796Z"/><path stroke-linecap="round" stroke-linejoin="round" d="m15.386 17.068-.59 1.962h.983L14.993 21m-5.505-3.932-.59 1.962h.983L9.095 21"/></g></svg>