<svg xmlns="http://www.w3.org/2000/svg" width="24" height="24"><g fill="none"><path fill="currentColor" fill-rule="evenodd" d="M16.247 8.055c2.394.198 3.701 1.846 3.701 3.822 0 1.967-1.299 3.592-3.7 3.79h-.08l-.245.001-.94.002H13.29v2a1351.615 1351.615 0 0 0 2.643-.002h.014c.195 0 .393-.002.466-.008 3.434-.283 5.536-2.77 5.536-5.783 0-3.005-2.094-5.53-5.536-5.815a9.7 9.7 0 0 0-.466-.008h-.014a1183.151 1183.151 0 0 0-2.644-.002v2a1180.215 1180.215 0 0 1 2.635.002l.246.002h.078ZM11.29 15.67l-2.819-.005h-.412c-1.36 0-2.343-.453-2.985-1.107-.648-.66-1.021-1.6-1.021-2.696 0-1.097.373-2.035 1.02-2.695.643-.655 1.625-1.107 2.986-1.107l.408-.001 2.823-.004v-2l-2.826.004h-.405c-1.829 0-3.349.623-4.413 1.707-1.058 1.078-1.593 2.54-1.593 4.096 0 1.555.535 3.018 1.593 4.096 1.064 1.084 2.584 1.707 4.413 1.707h.407l2.824.005v-2Z" clip-rule="evenodd"/><path stroke="currentColor" stroke-linecap="round" stroke-linejoin="round" stroke-width="1.5" d="M16 12H8"/></g></svg>