<svg xmlns="http://www.w3.org/2000/svg" width="24" height="24"><g fill="none"><path stroke="currentColor" stroke-linecap="round" stroke-linejoin="round" stroke-width="1.5" d="M17.447 8.604V3.156m0 5.448-2.723-2.18m2.723 2.18 2.724-2.18"/><path fill="currentColor" d="M10.45 19.68a.5.5 0 0 0-.477-.35H7.124a.5.5 0 0 0-.476.35l-.476 1.5a.5.5 0 0 1-.477.35H4.008a.5.5 0 0 1-.468-.677l3.685-9.747a.5.5 0 0 1 .468-.323h1.712a.5.5 0 0 1 .467.322l3.71 9.747a.5.5 0 0 1-.467.678h-1.713a.5.5 0 0 1-.477-.35l-.475-1.5Zm-3.038-2.42a.2.2 0 0 0 .19.26h1.883a.2.2 0 0 0 .191-.26l-.941-2.969a.2.2 0 0 0-.381 0l-.942 2.97Zm11.263 4.27c-.094 0-.164-.013-.202-.1-.086-.195-.365-.306-.538-.182-.4.286-.888.43-1.466.43-.81 0-1.483-.222-2.019-.665-.53-.443-.794-1.016-.794-1.72 0-.836.321-1.483.964-1.941.649-.458 1.58-.692 2.795-.701h.268a.5.5 0 0 0 .5-.5v-.142c0-.36-.074-.613-.223-.76-.149-.148-.366-.222-.652-.222-.432 0-.716.143-.852.428-.12.25-.318.487-.595.487h-1.527c-.276 0-.507-.227-.445-.496.12-.519.434-.961.945-1.327.673-.482 1.521-.723 2.546-.723 1.06 0 1.878.228 2.455.686.584.453.875 1.102.875 1.949v3.757c.012.689 0 1.198 0 1.616 0 .07-.056.126-.125.126h-1.91Zm-1.644-1.491c.28 0 .518-.047.715-.14.13-.063.24-.133.325-.21a.38.38 0 0 0 .112-.288v-.995a.5.5 0 0 0-.5-.5h-.107c-.429 0-.768.113-1.018.339-.244.226-.366.529-.366.908 0 .59.28.886.84.886Z"/></g></svg>