<svg xmlns="http://www.w3.org/2000/svg" width="24" height="24"><g fill="none"><path stroke="currentColor" stroke-linecap="round" stroke-linejoin="round" stroke-width="1.5" d="m4.707 4.3 14.586 14.585"/><path fill="currentColor" fill-rule="evenodd" d="M8.686 5.335a3.355 3.355 0 0 1 6.669.527v4.167c0 .571-.143 1.11-.395 1.58l-1.154-1.155c.032-.136.049-.278.049-.425V5.862a1.855 1.855 0 1 0-3.71 0v.932L8.686 5.335Zm1.46 3.58-1.5-1.5v2.614a3.355 3.355 0 0 0 5.327 2.714l-1.085-1.085a1.855 1.855 0 0 1-2.742-1.629V8.915Z" clip-rule="evenodd"/><path fill="currentColor" fill-rule="evenodd" d="M8.034 13.473a.75.75 0 1 0-1.444.406c.657 2.336 2.386 3.873 4.66 4.149v2.94a.75.75 0 0 0 1.5 0v-2.94c1.685-.205 3.072-1.102 3.944-2.504l-1.099-1.1c-.711 1.378-1.996 2.148-3.595 2.148-1.937 0-3.412-1.129-3.966-3.1Zm8.282-.448a.75.75 0 0 1 1.094.854 7.089 7.089 0 0 1-.054.185l-1.04-1.04Z" clip-rule="evenodd"/></g></svg>