<svg xmlns="http://www.w3.org/2000/svg" width="24" height="24"><g fill="none"><path stroke="currentColor" stroke-linecap="round" stroke-linejoin="round" stroke-width="1.5" d="m4.662 4.179 14.676 14.676"/><path fill="currentColor" fill-rule="evenodd" d="M9.542 4.841a2.622 2.622 0 0 1 5.079.91v4.17L9.54 4.84Zm3.332 7.575L9.379 8.921v1.024a2.62 2.62 0 0 0 3.495 2.471Z" clip-rule="evenodd"/><path fill="currentColor" d="m9.542 4.841-.53.53-.34-.34.166-.45.704.26Zm5.079 5.08h.75v1.81l-1.28-1.28.53-.53Zm-1.747 2.495.53-.53.841.84-1.121.397-.25-.707ZM9.379 8.921h-.75v-1.81l1.28 1.28-.53.53Zm-.54-4.34A3.372 3.372 0 0 1 12 2.38v1.5c-.804 0-1.49.507-1.755 1.22l-1.407-.52ZM12 2.38a3.37 3.37 0 0 1 3.37 3.37h-1.5A1.87 1.87 0 0 0 12 3.881v-1.5Zm3.37 3.37v4.17h-1.5V5.75h1.5Zm-5.298-1.44 5.08 5.079-1.062 1.06L9.011 5.37l1.06-1.06Zm2.272 8.635L8.849 9.452l1.06-1.06 3.495 3.494-1.06 1.06ZM8.629 9.944V8.921h1.5v1.024h-1.5ZM12 13.316a3.37 3.37 0 0 1-3.37-3.37h1.5a1.87 1.87 0 0 0 1.87 1.87v1.5Zm1.124-.192a3.365 3.365 0 0 1-1.124.192v-1.5c.22 0 .43-.037.624-.106l.5 1.414Z"/><path fill="currentColor" fill-rule="evenodd" d="M8.005 13.41a.75.75 0 0 0-1.444.407c.66 2.35 2.4 3.895 4.689 4.171v2.964a.75.75 0 0 0 1.5 0v-2.964c1.244-.15 2.325-.675 3.16-1.5l-1.06-1.06c-.73.717-1.711 1.105-2.85 1.105-1.951 0-3.437-1.138-3.995-3.123Zm7.712.763c.11-.238.202-.492.278-.762a.75.75 0 1 1 1.444.406 6.48 6.48 0 0 1-.61 1.469l-1.112-1.113Z" clip-rule="evenodd"/></g></svg>