<svg xmlns="http://www.w3.org/2000/svg" width="24" height="24"><g fill="none"><path fill="currentColor" fill-rule="evenodd" d="M11.999 9.525c-.086.074-.175.202-.175.464v1.251c0 .11.09.2.2.2h.597a.5.5 0 0 1 .5.5v.76a.5.5 0 0 1-.5.5h-.597a.2.2 0 0 0-.2.2v1.039c0 .11.09.2.2.2h2.467a.5.5 0 0 1 .5.5v.76a.5.5 0 0 1-.5.5H9.783a.5.5 0 0 1-.5-.5v-.76a.5.5 0 0 1 .5-.5h.082a.2.2 0 0 0 .2-.2V13.4a.2.2 0 0 0-.2-.2h-.596a.5.5 0 0 1-.5-.5v-.759a.5.5 0 0 1 .5-.5h.596a.2.2 0 0 0 .2-.2V9.99c0-.744.288-1.37.787-1.799.48-.413 1.092-.59 1.676-.59.584 0 1.195.177 1.676.59.499.429.787 1.055.787 1.798v.38a.5.5 0 0 1-.5.5h-.76a.5.5 0 0 1-.5-.5v-.38c0-.262-.088-.39-.174-.464-.104-.09-.284-.164-.53-.164-.244 0-.424.074-.528.164Z" clip-rule="evenodd"/><circle cx="12" cy="12" r="8.927" stroke="currentColor" stroke-width="1.5"/></g></svg>