<svg xmlns="http://www.w3.org/2000/svg" width="24" height="24"><g fill="none"><circle cx="12" cy="12" r="8.927" stroke="currentColor" stroke-width="1.5"/><path fill="currentColor" fill-rule="evenodd" d="M11.177 7.783a.195.195 0 0 1-.147.186 2.409 2.409 0 0 0-1.094.616c-.538.539-.735 1.279-.735 2.065 0 .401.092.774.297 1.098.202.321.48.537.76.685.514.27 1.15.36 1.61.424l.017.003c.545.076.896.127 1.132.235.06.028.092.05.107.064a.06.06 0 0 1 .018.027c.004.014.01.044.01.098 0 .385-.114.665-.276.84-.15.164-.412.313-.876.313-.532 0-.78-.132-.9-.253a.61.61 0 0 1-.083-.104c-.243-.385-.538-.796-.993-.796-.455 0-.838.374-.741.818.102.471.307.9.653 1.247a2.41 2.41 0 0 0 1.094.616.195.195 0 0 1 .147.186v.28a.823.823 0 0 0 1.646 0v-.303c0-.085.058-.159.14-.184a2.54 2.54 0 0 0 1.125-.705c.497-.54.711-1.248.711-1.955 0-.392-.1-.757-.322-1.068a1.903 1.903 0 0 0-.777-.62c-.467-.212-1.046-.292-1.482-.353l-.103-.014c-.527-.074-.87-.137-1.09-.253-.09-.048-.122-.086-.135-.107-.012-.019-.043-.075-.043-.22 0-.531.133-.779.253-.9.12-.12.368-.252.9-.252s.78.132.9.253a.603.603 0 0 1 .083.104c.243.384.538.796.993.796.455 0 .838-.374.741-.818-.102-.471-.307-.9-.653-1.247a2.409 2.409 0 0 0-1.094-.616.195.195 0 0 1-.147-.186v-.214a.823.823 0 0 0-1.646 0v.214Z" clip-rule="evenodd"/></g></svg>