<svg xmlns="http://www.w3.org/2000/svg" width="24" height="24"><g fill="none"><path stroke="currentColor" stroke-width="1.5" d="M3.848 6.926h16.053c.8 0 1.45.65 1.45 1.45v7.248c0 .8-.65 1.45-1.45 1.45H3.848c-.8 0-1.45-.65-1.45-1.45V8.376c0-.8.65-1.45 1.45-1.45Z"/><circle cx="12.312" cy="12" r="4.419" stroke="currentColor" stroke-width="1.5"/><path fill="currentColor" fill-rule="evenodd" d="M11.782 9.294c0 .053-.037.1-.089.113a1.55 1.55 0 0 0-.708.398c-.346.346-.473.822-.473 1.327 0 .258.06.498.19.706.131.206.31.345.49.44.33.174.74.232 1.035.273l.011.002c.35.049.576.082.727.15a.34.34 0 0 1 .07.042.04.04 0 0 1 .01.018.23.23 0 0 1 .008.063c0 .247-.074.427-.178.54-.097.105-.265.2-.563.2-.342 0-.501-.084-.579-.162a.387.387 0 0 1-.053-.067c-.157-.247-.346-.511-.639-.511-.292 0-.538.24-.476.525.065.303.197.58.42.802.199.2.442.326.708.397a.12.12 0 0 1 .09.114v.184a.53.53 0 1 0 1.058 0v-.199c0-.052.035-.097.085-.112.285-.089.532-.242.728-.454.32-.348.457-.803.457-1.257a1.17 1.17 0 0 0-.207-.688 1.223 1.223 0 0 0-.5-.397c-.3-.137-.672-.189-.952-.227l-.067-.01c-.338-.047-.559-.088-.7-.163-.058-.03-.079-.055-.087-.068-.008-.012-.028-.049-.028-.141 0-.342.086-.501.163-.579.078-.077.237-.162.579-.162.341 0 .5.085.578.162.018.018.036.04.053.067.157.247.347.512.64.512.291 0 .538-.24.476-.526a1.583 1.583 0 0 0-.42-.801 1.55 1.55 0 0 0-.709-.398.118.118 0 0 1-.089-.113V9.15a.53.53 0 0 0-1.059 0v.143Z" clip-rule="evenodd"/></g></svg>