<svg xmlns="http://www.w3.org/2000/svg" width="24" height="24"><g fill="none"><circle cx="12" cy="12" r="10" stroke="currentColor" stroke-width="2"/><path fill="currentColor" fill-rule="evenodd" d="M11.064 7.227a.194.194 0 0 1-.146.186c-.476.126-.909.35-1.264.706-.612.611-.836 1.453-.836 2.346 0 .457.105.88.338 1.249.23.364.545.61.864.778.585.308 1.308.41 1.83.483l.02.002c.618.087 1.018.145 1.286.268a.49.49 0 0 1 .122.072.07.07 0 0 1 .02.032.368.368 0 0 1 .012.11c0 .438-.13.756-.314.955-.171.186-.469.356-.996.356-.604 0-.886-.15-1.023-.287a.682.682 0 0 1-.094-.12c-.276-.436-.612-.903-1.13-.903-.516 0-.951.424-.842.93.117.535.35 1.023.743 1.416.355.356.788.58 1.264.706a.194.194 0 0 1 .146.186v.338a.936.936 0 1 0 1.872 0v-.363c0-.086.058-.16.14-.185a2.89 2.89 0 0 0 1.297-.806c.566-.614.81-1.419.81-2.222 0-.446-.116-.861-.367-1.215a2.163 2.163 0 0 0-.883-.703c-.531-.243-1.19-.334-1.685-.402l-.118-.016c-.598-.084-.988-.157-1.238-.289a.375.375 0 0 1-.154-.121c-.013-.021-.048-.085-.048-.249 0-.604.15-.886.287-1.023.137-.137.419-.287 1.023-.287.604 0 .886.15 1.023.287.031.031.063.07.094.119.277.437.612.904 1.13.904.516 0 .951-.424.842-.93-.116-.535-.35-1.023-.743-1.416a2.744 2.744 0 0 0-1.264-.706.194.194 0 0 1-.146-.186v-.264a.936.936 0 1 0-1.872 0v.264Z" clip-rule="evenodd"/></g></svg>