<svg xmlns="http://www.w3.org/2000/svg" width="24" height="24"><g fill="none"><circle cx="5.979" cy="16.34" r="2.038" stroke="currentColor" stroke-width="1.5"/><circle cx="18.989" cy="16.34" r="2.038" stroke="currentColor" stroke-width="1.5"/><path fill="currentColor" d="m3.191 13.552.69-.296-.69.296Zm2.516-4.16h.75-.75Zm6.819 1.123.711.237-.711-.238Zm-.794 2.806-.716.223.716-.223Zm1.682 1.311-.042.75.042-.75Zm2.975-6.435.648-.377-.648.377Zm2.6 4.426-.646.38.003.005.643-.385Zm-5.575 4.181.152.735-.152-.735ZM15.474 8l-.116-.741-.025.004-.024.005.166.732Zm-1.052-1.12.745-.087-.745.087Zm1.505-1.34.042-.75-.042.75ZM17.1 7.61l-.647-.38.647.38Zm-.703.6-.649.377.649-.377Zm-3.074-2.049a.75.75 0 0 0-.437 1.435l.437-1.435Zm1.1 1.119.738-.134-.739.134ZM4.12 14.48l.4-.634-.002-.001-.016-.01a2.948 2.948 0 0 1-.29-.218c-.195-.163-.306-.3-.332-.362l-1.379.591c.176.41.53.738.748.921a4.947 4.947 0 0 0 .456.338l.01.006.003.002.001.001h.001l.4-.634Zm-.24-1.225v.005a.402.402 0 0 1 .071-.135c.117-.164.336-.358.63-.556a7.105 7.105 0 0 1 1.114-.603 4.868 4.868 0 0 1 .1-.043l-.281-.695a155.008 155.008 0 0 0-.282-.695h-.001l-.003.001-.008.004-.029.011-.1.044a8.594 8.594 0 0 0-1.347.732c-.35.235-.744.549-1.015.93-.28.394-.495.967-.228 1.591l1.379-.59Zm1.634-2.027.742.11v-.004l.002-.012a39.97 39.97 0 0 0 .096-.717c.047-.385.102-.889.102-1.214h-1.5c0 .22-.042.634-.09 1.031a31.774 31.774 0 0 1-.094.695l.742.11Zm.942-1.837a.7.7 0 0 1-.243.531.59.59 0 0 1-.202.116c-.044.014-.048.008.028.004a5.7 5.7 0 0 1 .68.03 30.65 30.65 0 0 1 2.307.326c.849.147 1.686.318 2.299.469.31.076.542.143.684.194.078.028.092.038.074.027a.543.543 0 0 1-.139-.12.718.718 0 0 1-.13-.692l1.422.475a.782.782 0 0 0-.151-.757.94.94 0 0 0-.237-.196 1.966 1.966 0 0 0-.333-.15 9.05 9.05 0 0 0-.831-.237c-.657-.162-1.53-.34-2.4-.491a32.087 32.087 0 0 0-2.43-.341 6.836 6.836 0 0 0-.887-.035 1.636 1.636 0 0 0-.411.065.913.913 0 0 0-.318.174.8.8 0 0 0-.282.608h1.5Zm4.56 4.152c.164.528.426.995.856 1.33.43.336.947.476 1.5.507l.082-1.498c-.354-.02-.543-.1-.66-.192-.116-.09-.241-.254-.347-.592l-1.432.445Zm2.355 1.837c1.171.065 1.969-.686 2.43-1.148l-1.06-1.06c-.467.467-.838.735-1.287.71l-.083 1.498Zm2.43-1.148c.216-.215.468-.457.671-.759.218-.324.368-.69.464-1.168l-1.47-.296c-.064.317-.147.491-.238.625-.105.156-.237.288-.487.538l1.06 1.06Zm1.135-1.927c.084-.42-.044-.86-.163-1.18a9.59 9.59 0 0 0-.5-1.078c-.199-.379-.368-.68-.536-1.007-.164-.32-.265-.549-.305-.695l-1.447.397c.086.311.254.663.418.983.16.312.378.707.541 1.018.179.34.328.646.423.903.107.29.094.385.098.363l1.47.296Zm1.41.703 1.393 2.323 1.287-.772-1.394-2.323-1.287.771Zm-10.044 4.26.014.75h.038c.025-.002.06-.002.107-.004l.39-.012c.331-.012.793-.032 1.317-.066 1.04-.066 2.36-.184 3.396-.398l-.303-1.47c-.927.193-2.161.306-3.187.371a48.292 48.292 0 0 1-1.653.076l-.1.003h-.033l.014.75Zm5.262.27c.683-.141 1.524-.382 2.18-.582a48.923 48.923 0 0 0 1.07-.341l.067-.022a.842.842 0 0 0 .018-.006l.005-.002h.001l-.24-.71-.24-.711-.005.001-.015.005a56.612 56.612 0 0 1-.298.098c-.2.066-.481.155-.802.253a24.79 24.79 0 0 1-2.044.548l.303 1.469Zm-1.75-7.262c-.184.55-.521 1.536-.63 1.816l1.4.54c.123-.319.472-1.34.652-1.881l-1.423-.475Zm-.63 1.816c-.019.051-.04.09-.07.145-.023.043-.092.16-.139.295-.119.343-.066.67.04 1.011l1.432-.445a1.448 1.448 0 0 1-.04-.163.243.243 0 0 1-.014.088c-.005.015-.012.024.035-.061.04-.073.1-.183.156-.33l-1.4-.54Zm-5.802-.126 6.371 1.134.263-1.477-6.37-1.134-.264 1.477Zm10.05-3.621a.552.552 0 0 1-.014.334.448.448 0 0 1-.099.16c-.018.019-.026.022-.013.014a.551.551 0 0 1 .06-.031 1.562 1.562 0 0 1 .276-.093h-.001l-.167-.731-.167-.732-.002.001-.005.001a1.445 1.445 0 0 0-.05.013 3.35 3.35 0 0 0-.506.176 1.68 1.68 0 0 0-.488.324c-.172.173-.393.515-.27.96l1.446-.396Zm.042-.347.117.74h-.002l-.002.001.012-.002a1.323 1.323 0 0 1 .226-.009.389.389 0 0 1 .093.012.28.28 0 0 1-.059-.033.433.433 0 0 1-.12-.134l1.297-.754a1.14 1.14 0 0 0-.618-.494 1.847 1.847 0 0 0-.518-.095 2.83 2.83 0 0 0-.536.026h-.006l.116.742Zm-.308-1.207a.465.465 0 0 1 .1-.334c.055-.065.203-.194.617-.171l.085-1.498c-.803-.045-1.439.217-1.847.7a1.963 1.963 0 0 0-.445 1.476l1.49-.173Zm.717-.505c.156.009.338.008.466.01.147.002.253.007.333.019.092.013.065.025.001-.021a.442.442 0 0 1-.181-.344h1.5c0-.367-.169-.677-.445-.875a1.494 1.494 0 0 0-.659-.245 4.128 4.128 0 0 0-.528-.034c-.171-.002-.29-.001-.402-.008l-.085 1.498Zm.619-.336c0 .163.01.329.017.467.008.146.014.268.012.384-.002.234-.035.354-.079.428l1.294.76c.239-.407.282-.837.285-1.173a7.54 7.54 0 0 0-.014-.48c-.008-.15-.015-.271-.015-.386h-1.5Zm-.763 2.623.008.013 1.297-.754-.008-.013-1.297.754Zm.008.013c.242.415.89 1.52 1.479 2.52l.779 1.323.245.418.068.115.018.03.005.008v.002h.001l.646-.38.647-.381-.002-.003-.004-.007-.018-.03-.068-.116-.246-.417a4524.65 4524.65 0 0 1-2.253-3.836l-1.297.754Zm.705-1.357c.004-.005-.01.017-.056.062a1.58 1.58 0 0 1-.158.128 2.484 2.484 0 0 1-.197.13l-.01.005a237.914 237.914 0 0 1 .728 1.311h.002l.003-.002.008-.005.024-.014a3.409 3.409 0 0 0 .323-.211c.165-.12.452-.346.627-.644l-1.294-.76ZM14.71 8.544l.726-.188v-.002l-.002-.006a1.67 1.67 0 0 1-.006-.023l-.023-.088a27.575 27.575 0 0 1-.074-.304c-.06-.247-.127-.547-.17-.787l-1.477.267c.051.282.127.615.188.87a30.363 30.363 0 0 0 .103.415l.006.025a.38.38 0 0 1 .002.007v.003l.727-.189Zm.45-1.398c.007.037.002.053.007-.02.002-.023.006-.076.008-.124a1.371 1.371 0 0 0-.008-.21l-1.49.173c-.002-.022-.001-.033-.002-.019a.844.844 0 0 1-.005.077c-.004.064-.016.22.014.39l1.477-.267Zm-2.274.45 1.318.401.437-1.435-1.319-.4-.436 1.434Z"/></g></svg>