<svg xmlns="http://www.w3.org/2000/svg" width="24" height="24"><g fill="none"><circle cx="5.21" cy="16.204" r="2.193" stroke="currentColor" stroke-width="1.462"/><circle cx="18.854" cy="16.204" r="2.193" stroke="currentColor" stroke-width="1.462"/><path fill="currentColor" d="m2.286 13.28.672-.288-.672.288Zm2.638-4.362h.73-.73Zm7.151 1.177.694.231-.694-.231Zm-.832 2.944-.698.217.698-.217Zm1.763 1.374-.04.73.04-.73Zm3.12-6.748.632-.368-.632.368Zm2.728 4.64-.63.372.003.005.627-.376Zm-5.848 4.386.148.716-.148-.716Zm2.162-9.234-.114-.722-.024.003-.024.006.162.713Zm-1.104-1.175.726-.084-.726.084Zm1.578-1.406.04-.73-.04.73Zm1.23 2.173-.63-.37.63.37Zm-.738.63-.631.367.631-.368Zm-3.24-2.096a.73.73 0 1 0-.425 1.398l.425-1.398Zm1.17 1.12.72-.13-.72.13ZM3.261 14.255l.39-.619c0 .001 0 .001 0 0h-.003a2.22 2.22 0 0 1-.089-.061 3.682 3.682 0 0 1-.237-.182c-.206-.173-.33-.323-.364-.4l-1.344.575c.179.417.541.754.77.946a5.122 5.122 0 0 0 .472.35l.01.006.003.002h.001a.012.012 0 0 1 .001.001l.39-.618Zm-.303-1.263c-.005-.011-.006-.014-.003-.027a.468.468 0 0 1 .084-.164c.128-.18.364-.387.675-.596a7.502 7.502 0 0 1 1.176-.638 5.192 5.192 0 0 1 .103-.044l.004-.002-.275-.677-.274-.678-.001.001-.003.001a1.622 1.622 0 0 0-.038.016l-.104.045a9.841 9.841 0 0 0-1.405.763c-.365.246-.77.57-1.05.962-.287.404-.503.984-.233 1.614l1.344-.576Zm1.764-2.148.723.107.001-.004.002-.012.007-.046a32.728 32.728 0 0 0 .094-.705c.05-.404.106-.929.106-1.266H4.193c0 .234-.044.672-.095 1.088a33.33 33.33 0 0 1-.098.73l.722.108Zm.933-1.926a.68.68 0 0 1-.235.515.564.564 0 0 1-.193.11c-.039.013-.038.006.044.002.146-.007.389.002.72.032.651.06 1.534.187 2.425.342.89.155 1.77.334 2.414.493.325.08.571.15.723.205.083.03.102.042.087.033a.557.557 0 0 1-.132-.114.697.697 0 0 1-.126-.672l1.387.462a.765.765 0 0 0-.149-.74.93.93 0 0 0-.234-.193 2.008 2.008 0 0 0-.34-.152 9.44 9.44 0 0 0-.866-.249 39.342 39.342 0 0 0-2.513-.513 33.59 33.59 0 0 0-2.544-.357 7.115 7.115 0 0 0-.922-.037c-.117.006-.272.02-.417.066a.901.901 0 0 0-.315.171.783.783 0 0 0-.276.596h1.462Zm4.89 4.338c.17.546.44 1.025.88 1.367.44.343.97.488 1.54.52l.082-1.46c-.379-.02-.59-.108-.723-.213-.134-.104-.27-.287-.383-.649l-1.396.435Zm2.42 1.887c1.202.067 2.022-.703 2.507-1.187l-1.033-1.034c-.49.49-.894.79-1.392.762l-.081 1.46Zm2.507-1.187c.227-.227.487-.478.697-.788.224-.333.378-.71.478-1.206l-1.434-.287c-.067.338-.157.527-.256.675-.114.169-.258.312-.518.572l1.033 1.034Zm1.175-1.994c.085-.423-.045-.872-.168-1.206a10 10 0 0 0-.522-1.125c-.207-.394-.386-.714-.562-1.056-.172-.335-.28-.58-.325-.74l-1.41.387c.088.32.262.686.434 1.02.169.328.396.74.568 1.068.187.357.345.68.446.953.113.305.104.418.105.412l1.434.287Zm1.58.72 1.462 2.436 1.253-.752-1.462-2.436-1.253.752Zm-10.58 4.496.013.731h.042l.11-.003.41-.013a51.6 51.6 0 0 0 1.38-.07c1.088-.068 2.471-.192 3.553-.416l-.296-1.432c-.976.202-2.273.322-3.35.39a50.33 50.33 0 0 1-1.735.08l-.106.002h-.034l.013.732Zm5.507.229c.713-.147 1.593-.4 2.28-.61a53.065 53.065 0 0 0 1.123-.356l.07-.023.018-.007.004-.001h.002l-.234-.693-.234-.693-.005.002-.016.005-.066.022a44.492 44.492 0 0 1-1.089.347c-.68.207-1.505.442-2.149.575l.296 1.432Zm-1.772-7.543a74.287 74.287 0 0 1-.66 1.906l1.364.526a76.79 76.79 0 0 0 .683-1.97l-1.387-.462Zm-.66 1.906c-.022.058-.045.1-.077.16-.026.046-.095.165-.142.3-.12.343-.068.673.042 1.026l1.396-.435a.94.94 0 0 1-.045-.182c0-.003.001.007-.001.023a.235.235 0 0 1-.01.046c-.004.01-.009.016.04-.072.041-.076.102-.188.16-.34l-1.363-.525Zm-6.128-.207 6.682 1.19.256-1.44-6.681-1.189-.257 1.44ZM15.07 7.836c.03.108.022.22-.013.316a.414.414 0 0 1-.09.148c-.016.016-.021.017-.005.007a.645.645 0 0 1 .07-.037 1.695 1.695 0 0 1 .28-.096l.017-.005h.003-.001l-.163-.712-.162-.713h-.003l-.004.002a.965.965 0 0 0-.053.012 3.404 3.404 0 0 0-.52.182 1.689 1.689 0 0 0-.496.329c-.172.173-.39.513-.27.953l1.41-.386Zm.098-.38a153.869 153.869 0 0 1 .113.723h-.002a.722.722 0 0 1 .072-.008 1.458 1.458 0 0 1 .269.004l.025.005.007.002-.012-.005a.398.398 0 0 1-.145-.145l1.263-.735a1.14 1.14 0 0 0-.619-.493 1.881 1.881 0 0 0-.527-.097 2.915 2.915 0 0 0-.55.026l-.005.001h-.002l.113.723Zm-.378-1.258a.543.543 0 0 1 .117-.393c.07-.084.244-.224.693-.199l.083-1.46c-.827-.046-1.476.223-1.892.714a2.003 2.003 0 0 0-.453 1.506l1.452-.168Zm.81-.592c.162.01.35.009.486.01.155.003.27.008.357.02.1.015.082.029.025-.011a.409.409 0 0 1-.166-.316h1.461a1.05 1.05 0 0 0-.443-.872 1.51 1.51 0 0 0-.667-.247 4.272 4.272 0 0 0-.546-.035c-.178-.003-.304-.002-.424-.008l-.083 1.46Zm.702-.297c0 .17.01.341.017.487.009.153.015.283.014.406-.003.25-.038.387-.09.477l1.26.74c.243-.414.288-.854.291-1.203a7.81 7.81 0 0 0-.015-.499 7.262 7.262 0 0 1-.016-.408h-1.461Zm-.808 2.723.009.014 1.263-.735-.008-.014-1.264.735Zm.009.014a900.882 900.882 0 0 0 2.367 4.03l.258.437.07.121a11.609 11.609 0 0 0 .026.042l.63-.37.63-.371h-.001l-.001-.003a.32.32 0 0 0-.005-.008l-.019-.032-.07-.12-.259-.438-.816-1.388a908.199 908.199 0 0 1-1.547-2.635l-1.263.735Zm.74-1.367c0-.002-.003.005-.016.02a.704.704 0 0 1-.054.056 1.707 1.707 0 0 1-.17.14 2.694 2.694 0 0 1-.224.145h.001l.354.638a225.947 225.947 0 0 0 .355.64l.002-.001.002-.002.008-.004a2.329 2.329 0 0 0 .106-.063 4.14 4.14 0 0 0 .254-.17c.172-.125.464-.357.642-.659l-1.26-.74Zm-1.877 1.35.707-.184v-.002a.28.28 0 0 0-.002-.006l-.006-.024a25.435 25.435 0 0 1-.102-.412c-.062-.26-.134-.575-.18-.828l-1.438.26c.053.294.132.642.196.908a29.356 29.356 0 0 0 .108.435l.007.027.001.007v.002h.001l.708-.183Zm.418-1.456c.005.03 0 .04.005-.035.002-.025.006-.08.008-.13a1.39 1.39 0 0 0-.007-.21l-1.452.168c-.002-.02-.001-.027-.002-.011 0 .019-.002.036-.005.082-.005.068-.017.225.014.395l1.438-.26Zm-2.315.408 1.383.42.425-1.398-1.383-.42-.425 1.398Z"/></g></svg>