<svg xmlns="http://www.w3.org/2000/svg" width="24" height="24"><g fill="currentColor"><path fill-rule="evenodd" d="M3.186 18.196a.2.2 0 0 0 .17.304h16.837a.2.2 0 0 0 .184-.28L15.192 6.435a.2.2 0 0 0-.369.006L12.58 12.05a.2.2 0 0 0 .029.198l1.677 2.135a1 1 0 1 1-1.572 1.236L8.418 10.15a.2.2 0 0 0-.328.02l-4.904 8.025Z" clip-rule="evenodd"/><path d="m14.286 14.382.394-.309-.394.31Zm-.168 1.404-.31-.393.31.393Zm-1.404-.168.393-.31-.393.31Zm-.134-3.569-.464-.185.464.185Zm.029.198-.393.309.393-.309Zm-4.19-2.096.392-.309-.393.309Zm-.329.02-.426-.261.426.26Zm7.102-3.735.457-.201-.457.201Zm-.369.006.464.186-.464-.186ZM3.186 18.196l-.427-.261.427.26Zm17.19.023-.457.202.458-.201Zm-.183.781H3.358v-1h16.837v1ZM15.65 6.235l5.185 11.783-.915.403-5.185-11.784.915-.402Zm-3.533 5.628 2.243-5.606.928.371-2.243 5.607-.928-.371Zm.886.075 1.678 2.135-.787.618-1.677-2.135.786-.618Zm1.678 2.135a1.5 1.5 0 0 1-.253 2.107l-.618-.787a.5.5 0 0 0 .084-.702l.787-.618Zm-.253 2.107a1.5 1.5 0 0 1-2.107-.253l.787-.618a.5.5 0 0 0 .702.084l.618.787Zm-2.107-.253L8.025 10.46l.786-.618 4.296 5.467-.787.618Zm-9.56 2.008L7.663 9.91l.853.521-4.904 8.025-.854-.521Zm10.284-5.7a.3.3 0 0 0-.042-.297l-.786.618a.7.7 0 0 1-.1-.692l.928.37Zm-5.02-1.775a.3.3 0 0 0 .492-.029l-.853-.521a.7.7 0 0 1 1.147-.068l-.786.618Zm6.71-3.823a.3.3 0 0 0 .552-.009l-.928-.371a.7.7 0 0 1 1.29-.022l-.915.402ZM3.356 19a.7.7 0 0 1-.598-1.065l.854.521A.3.3 0 0 0 3.357 18v1Zm16.837-1a.3.3 0 0 0-.275.42l.915-.402a.7.7 0 0 1-.64.982v-1Z"/></g></svg>