<svg xmlns="http://www.w3.org/2000/svg" width="24" height="24"><g fill="currentColor"><path fill-rule="evenodd" d="M3.193 17.943a.2.2 0 0 0 .17.304h17.273a.2.2 0 0 0 .183-.28L15.498 5.872a.2.2 0 0 0-.369.006l-2.315 5.787a.2.2 0 0 0 .029.198l1.712 2.18a1 1 0 0 1-1.573 1.235L8.57 9.662a.2.2 0 0 0-.328.02l-5.049 8.261Z" clip-rule="evenodd"/><path d="m14.555 14.042.59-.463-.59.463Zm-.169 1.405-.463-.59.463.59Zm-1.404-.169.59-.463-.59.463Zm-.168-3.613.697.279-.697-.279Zm.029.198-.59.463.59-.463Zm-4.273-2.2.59-.464-.59.463Zm-.328.018-.64-.39.64.39Zm7.256-3.809-.687.302.687-.302Zm-.369.006-.696-.278.696.278Zm5.69 12.089.687-.302-.687.302Zm-.183 1.03H3.364v-1.5h17.272v1.5ZM16.184 5.57l5.322 12.095-1.373.604L14.81 6.174l1.373-.604Zm-4.066 5.817L14.433 5.6l1.392.557-2.314 5.787-1.393-.557Zm1.314.013 1.713 2.179-1.18.927-1.712-2.18 1.18-.926Zm1.713 2.179a1.75 1.75 0 0 1-.295 2.457l-.927-1.18a.25.25 0 0 0 .042-.35l1.18-.927Zm-.295 2.457a1.75 1.75 0 0 1-2.457-.295l1.179-.926a.25.25 0 0 0 .351.042l.927 1.18Zm-2.457-.295L7.98 10.126l1.18-.927 4.412 5.616-1.18.926Zm-9.84 1.81 5.049-8.26 1.28.781-5.049 8.262-1.28-.782Zm10.958-5.607a.55.55 0 0 0-.079-.544l-1.18.926a.95.95 0 0 1-.134-.94l1.393.558Zm-5.53-1.819a.55.55 0 0 0 .9-.053l-1.28-.782A.95.95 0 0 1 9.16 9.2l-1.18.927Zm6.83-3.95a.55.55 0 0 0 1.014-.018L14.433 5.6c.312-.782 1.412-.8 1.751-.03l-1.373.604ZM3.364 18.996a.95.95 0 0 1-.81-1.445l1.28.782a.55.55 0 0 0-.47-.837v1.5Zm17.272-1.5a.55.55 0 0 0-.503.772l1.373-.604a.95.95 0 0 1-.87 1.332v-1.5Z"/></g></svg>