<svg xmlns="http://www.w3.org/2000/svg" width="24" height="24"><g fill="none" stroke="currentColor" stroke-width="1.5"><path stroke-linecap="round" stroke-linejoin="round" d="M20 15V6.5m-10 11V9m10-2.5V4.28a1 1 0 0 0-1.242-.97l-8 2a1 1 0 0 0-.758.97V9m10-2.5L10 9"/><path d="M13.533 15.5c0 1.428 1.357 2.75 3.25 2.75 1.892 0 3.25-1.322 3.25-2.75s-1.358-2.75-3.25-2.75c-1.893 0-3.25 1.322-3.25 2.75Zm-10.055 2c0 1.428 1.358 2.75 3.25 2.75s3.25-1.322 3.25-2.75-1.358-2.75-3.25-2.75-3.25 1.322-3.25 2.75Z"/></g></svg>