<svg xmlns="http://www.w3.org/2000/svg" width="24" height="24"><g fill="none"><path fill="currentColor" fill-rule="evenodd" d="m10.648 10.526 2.826 2.826a2 2 0 0 0-2.826-2.826Z" clip-rule="evenodd"/><path fill="currentColor" fill-rule="evenodd" d="M13.913 18.034A8.758 8.758 0 0 1 12 18.25c-2.19 0-4.165-.87-5.717-1.868a18.045 18.045 0 0 1-3.363-2.837 1.606 1.606 0 0 1-.103-2.079A16.046 16.046 0 0 1 5.008 9.13l1.063 1.064a14.522 14.522 0 0 0-2.061 2.183.11.11 0 0 0-.026.073.12.12 0 0 0 .036.076 16.552 16.552 0 0 0 3.075 2.595c1.418.912 3.11 1.63 4.905 1.63.202 0 .403-.01.602-.026l1.31 1.31Zm1.938-2.304 1.108 1.107c.262-.146.515-.3.758-.455a18.042 18.042 0 0 0 3.363-2.837 1.606 1.606 0 0 0 .103-2.079c-.564-.74-1.664-2.032-3.208-3.144C16.43 7.21 14.402 6.25 12 6.25c-1.692 0-3.199.476-4.482 1.147l1.12 1.12C9.646 8.052 10.773 7.75 12 7.75c1.99 0 3.717.795 5.098 1.79 1.382.995 2.38 2.163 2.892 2.836a.11.11 0 0 1 .026.073.119.119 0 0 1-.035.076 16.551 16.551 0 0 1-3.076 2.595c-.336.217-.689.422-1.054.61Z" clip-rule="evenodd"/><path stroke="currentColor" stroke-linecap="round" stroke-width="1.5" d="m4 5 15 15"/></g></svg>