<svg xmlns="http://www.w3.org/2000/svg" width="24" height="24"><g fill="none" stroke="currentColor" stroke-width="1.5"><path stroke-linecap="round" stroke-linejoin="round" d="M10.294 18.353H6.78c-.78 0-1.272-.86-.906-1.55.771-1.448 1.773-3.567 1.773-4.803v-2c0-2 2.205-4 4.412-4 2.206 0 4.412 2 4.412 4v2c0 1.464 1.078 3.25 2.043 4.556.523.707.033 1.797-.847 1.797h-3.844m-3.529 0c0 .882-.17 2.647 1.765 2.647 1.935 0 1.764-1.765 1.764-2.647m-3.529 0h3.53"/><path d="M13.25 4a1.25 1.25 0 1 1-2.5 0 1.25 1.25 0 0 1 2.5 0Z"/></g></svg>