<svg xmlns="http://www.w3.org/2000/svg" width="24" height="24"><g fill="none" stroke="currentColor" stroke-linecap="round" stroke-linejoin="round" stroke-width="1.5"><path fill="currentColor" d="M18.17 20.692C9.594 19.619 3.632 13.539 3.15 5.469a.96.96 0 0 1 .925-1.005l4.43-.218a1 1 0 0 1 .981.636l.827 2.121a1 1 0 0 1-.441 1.234L7.21 9.735a1 1 0 0 0-.223 1.571l5.456 5.576a1 1 0 0 0 1.568-.18l1.652-2.708a1 1 0 0 1 1.212-.412l2.119.812a1 1 0 0 1 .638 1.022l-.39 4.39a.966.966 0 0 1-1.073.886Z"/><path d="m13.915 9.75 4.69-4.69m0 0 .226 3.681m-.226-3.682-3.682-.226"/></g></svg>