<svg xmlns="http://www.w3.org/2000/svg" width="24" height="24"><g fill="none"><path stroke="currentColor" stroke-width="1.5" d="M5.712 5.478a2.25 2.25 0 0 1 2.25-2.25h7.963a2.25 2.25 0 0 1 2.25 2.25v13.199a2.25 2.25 0 0 1-2.25 2.25H7.962a2.25 2.25 0 0 1-2.25-2.25V5.478Z"/><path fill="currentColor" d="M7.58 5.969c0-.482.39-.873.873-.873h6.981a.873.873 0 0 1 0 1.745H8.453a.873.873 0 0 1-.873-.872Z"/><path stroke="currentColor" stroke-width="1.5" d="M8.33 13.205c0-.69.56-1.25 1.25-1.25h4.727c.69 0 1.25.56 1.25 1.25v3.854c0 .69-.56 1.25-1.25 1.25H9.58c-.69 0-1.25-.56-1.25-1.25v-3.854Z"/><path stroke="currentColor" stroke-linecap="round" stroke-width="1.5" d="M5.835 8.587h12.217"/></g></svg>