<svg xmlns="http://www.w3.org/2000/svg" width="24" height="24"><g fill="none"><path fill="currentColor" fill-rule="evenodd" d="M4.863 11.156v7.38c0 2.562 3.962 3.141 7.137 3.141 3.175 0 7.137-.58 7.137-3.141v-7.38a.998.998 0 0 0-1-.998H5.863c-.553 0-1 .446-1 .998Zm5.71 4.338c0 .453.196.86.51 1.14v1.429a1 1 0 0 0 1 1h.039a1 1 0 0 0 1-1v-1.429a1.53 1.53 0 1 0-2.55-1.14Z" clip-rule="evenodd"/><path stroke="currentColor" stroke-linecap="round" stroke-linejoin="round" stroke-width="1.5" d="M8.366 10.45V6.54c0-1.759 1.453-3.42 3.634-3.42 2.18 0 3.633 1.661 3.633 3.42"/></g></svg>