<svg xmlns="http://www.w3.org/2000/svg" width="24" height="24"><g fill="none"><path stroke="currentColor" stroke-linecap="round" stroke-linejoin="round" stroke-width="2" d="M8.182 10.703H6c-.552 0-1 .446-1 .998v7.218C5 21.432 8.886 22 12 22s7-.568 7-3.081V11.7a.998.998 0 0 0-1-.998h-2.182m-7.636 0V6.595C8.182 4.745 9.709 3 12 3c2.291 0 3.818 1.746 3.818 3.595v4.108m-7.636 0h7.636"/><path fill="currentColor" fill-rule="evenodd" d="M13 16.618V18a1 1 0 1 1-2 0v-1.382a1.5 1.5 0 1 1 2 0Z" clip-rule="evenodd"/></g></svg>