<svg xmlns="http://www.w3.org/2000/svg" width="24" height="24"><g fill="none"><path fill="currentColor" fill-rule="evenodd" d="M4.5 11.393V19.2c0 2.69 4.164 3.3 7.5 3.3 3.336 0 7.5-.609 7.5-3.301v-7.806a.998.998 0 0 0-1-.997h-13c-.552 0-1 .445-1 .997Zm6 4.61c0 .476.207.904.536 1.198v1.552a1 1 0 0 0 1 1h.143a1 1 0 0 0 1-1V17.2a1.607 1.607 0 1 0-2.679-1.198Z" clip-rule="evenodd"/><path stroke="currentColor" stroke-linecap="round" stroke-linejoin="round" stroke-width="2" d="M8.182 10.703V6.595C8.182 4.745 9.709 3 12 3c2.291 0 3.818 1.746 3.818 3.595"/></g></svg>