<svg xmlns="http://www.w3.org/2000/svg" width="24" height="24"><g fill="none"><path stroke="currentColor" stroke-linecap="round" stroke-linejoin="round" stroke-width="1.5" d="M8.36 10.345H6.324a1 1 0 0 0-1 1v6.835c0 2.396 3.706 2.938 6.675 2.938 2.97 0 6.675-.542 6.675-2.938v-6.835a1 1 0 0 0-1-1H15.64m-7.282 0V6.428C8.36 4.665 9.815 3 12 3s3.641 1.665 3.641 3.428v3.917m-7.282 0h7.282"/><path fill="currentColor" fill-rule="evenodd" d="M12.954 15.986v1.318a.954.954 0 0 1-1.908 0v-1.318a1.43 1.43 0 1 1 1.907 0Z" clip-rule="evenodd"/></g></svg>