<svg xmlns="http://www.w3.org/2000/svg" width="24" height="24"><g fill="none"><path stroke="currentColor" stroke-linecap="round" stroke-linejoin="round" stroke-width="1.5" d="M8.356 10.35H6.32a1 1 0 0 0-1 1v6.842c0 2.398 3.708 2.94 6.68 2.94 2.972 0 6.68-.542 6.68-2.94V11.35a1 1 0 0 0-1-1H8.356Zm0 0V6.43C8.356 4.666 9.813 3 12 3c2.187 0 3.644 1.666 3.644 3.43"/><path fill="currentColor" fill-rule="evenodd" d="M12.954 15.996v1.319a.954.954 0 0 1-1.908 0v-1.319a1.431 1.431 0 1 1 1.909 0Z" clip-rule="evenodd"/></g></svg>