<svg xmlns="http://www.w3.org/2000/svg" width="24" height="24"><g fill="none"><path stroke="currentColor" stroke-linecap="round" stroke-linejoin="round" stroke-width="1.5" d="M8.356 10.42V6.5c0-1.764 1.457-3.43 3.644-3.43 2.186 0 3.643 1.666 3.643 3.43v3.92"/><path fill="currentColor" fill-rule="evenodd" d="M4.843 11.125v7.402c0 2.57 3.973 3.15 7.157 3.15s7.157-.58 7.157-3.15v-7.402a.998.998 0 0 0-1-.998H5.843c-.552 0-1 .445-1 .998Zm5.726 4.353c0 .454.197.862.51 1.143v1.435a1 1 0 0 0 1 1h.046a1 1 0 0 0 1-1V16.62a1.534 1.534 0 1 0-2.556-1.143Z" clip-rule="evenodd"/></g></svg>