<svg xmlns="http://www.w3.org/2000/svg" width="24" height="24"><g fill="none"><path stroke="currentColor" stroke-width="1.5" d="M20.373 9.972c0 1.034-.045 1.851-.276 2.526-.216.631-.605 1.164-1.383 1.602-.807.455-1.354.644-1.926.734-.609.095-1.264.083-2.36.083-.765 0-1.393.38-1.713 1.005-.305.597-.282 1.316-.008 1.968.157.374.45.729.708 1.014.247.273.603.628.826.868.266.284.442.501.529.663l.007.014c-.206.287-.273.308-.38.337-.11.029-.282.051-.59.062-.303.01-.688.009-1.213.009-5.814 0-9.521-3.95-9.522-8.856A8.928 8.928 0 0 1 12 3.072c2.44 0 4.542 1.096 6.045 2.547 1.529 1.475 2.328 3.206 2.328 4.352Z"/><circle cx="6.688" cy="10.178" r="1" fill="currentColor"/><circle cx="10.187" cy="6.957" r="1" fill="currentColor"/><circle cx="14.089" cy="6.957" r="1" fill="currentColor"/><circle cx="16.875" cy="10.178" r="1" fill="currentColor"/></g></svg>