<svg xmlns="http://www.w3.org/2000/svg" width="24" height="24"><g fill="none"><path stroke="currentColor" stroke-linecap="round" stroke-width="1.5" d="M7.598 19.587v-2.87a1.5 1.5 0 0 1 1.5-1.5h6.391a1.5 1.5 0 0 1 1.5 1.5v2.87a1.5 1.5 0 0 1-1.5 1.5H9.098a1.5 1.5 0 0 1-1.5-1.5Z"/><path fill="currentColor" fill-rule="evenodd" d="M7.598 19.196H5.282a2.25 2.25 0 0 1-2.25-2.25v-6.392a2.25 2.25 0 0 1 2.25-2.25h13.436a2.25 2.25 0 0 1 2.25 2.25v6.392a2.25 2.25 0 0 1-2.25 2.25h-1.729v-1.5h1.729a.75.75 0 0 0 .75-.75v-6.392a.75.75 0 0 0-.75-.75H5.282a.75.75 0 0 0-.75.75v6.392c0 .414.336.75.75.75h2.316v1.5ZM9.815 5.163a.75.75 0 0 1 .75-.75h3.457a.75.75 0 0 1 .75.75v.848a.75.75 0 0 0 1.5 0v-.848a2.25 2.25 0 0 0-2.25-2.25h-3.457a2.25 2.25 0 0 0-2.25 2.25v.848a.75.75 0 1 0 1.5 0v-.848Z" clip-rule="evenodd"/></g></svg>