<svg xmlns="http://www.w3.org/2000/svg" width="24" height="24"><g fill="none"><path stroke="currentColor" stroke-width="1.5" d="M11.25 8.915a2.75 2.75 0 1 1-5.5 0 2.75 2.75 0 0 1 5.5 0Zm8.25-3.092a2.75 2.75 0 1 1-5.5 0 2.75 2.75 0 0 1 5.5 0Z"/><path stroke="currentColor" stroke-linecap="round" stroke-linejoin="round" stroke-width="1.5" d="M15.48 20.18c-1 1-12.712.862-13.41.14C1.37 19.598 5.41 15 9 15s7.056 4.605 6.48 5.18Z"/><path fill="currentColor" fill-rule="evenodd" d="M15.216 16.512c.493.535.925 1.08 1.284 1.575a65.602 65.602 0 0 0 2.383.063c.796.004 1.634-.013 2.329-.075.346-.031.676-.075.957-.14.242-.056.584-.155.831-.376.335-.3.423-.706.409-1.043-.014-.328-.122-.658-.263-.959-.284-.607-.785-1.27-1.41-1.877-1.236-1.205-3.139-2.367-5.203-2.367-1.135 0-2.052.128-2.88.49-.832.362-1.507.929-2.205 1.69l-.254.275a6.468 6.468 0 0 1 1.464.626c.58-.614 1.062-.985 1.594-1.217.565-.246 1.252-.364 2.281-.364 1.527 0 3.075.887 4.157 1.941.536.522.912 1.042 1.098 1.439.052.111.083.2.1.266a5.866 5.866 0 0 1-.811.122 24.54 24.54 0 0 1-2.186.069 58.005 58.005 0 0 1-2.764-.084l-.186-.01-.048-.003h-.015l-.662-.041Z" clip-rule="evenodd"/></g></svg>