<svg xmlns="http://www.w3.org/2000/svg" width="24" height="24"><g fill="none"><path fill="currentColor" d="M13 13.5a.5.5 0 0 1 .5-.5h2a.5.5 0 0 1 .5.5v2a.5.5 0 0 1-.5.5h-2a.5.5 0 0 1-.5-.5v-2Zm3 3a.5.5 0 0 1 .5-.5h2a.5.5 0 0 1 .5.5v2a.5.5 0 0 1-.5.5h-2a.5.5 0 0 1-.5-.5v-2Zm3-3a.5.5 0 0 1 .5-.5h2a.5.5 0 0 1 .5.5v2a.5.5 0 0 1-.5.5h-2a.5.5 0 0 1-.5-.5v-2Zm0 6a.5.5 0 0 1 .5-.5h2a.5.5 0 0 1 .5.5v2a.5.5 0 0 1-.5.5h-2a.5.5 0 0 1-.5-.5v-2Zm-6 0a.5.5 0 0 1 .5-.5h2a.5.5 0 0 1 .5.5v2a.5.5 0 0 1-.5.5h-2a.5.5 0 0 1-.5-.5v-2Z"/><path stroke="currentColor" stroke-linejoin="round" stroke-width="1.5" d="M2.75 4.571A1.82 1.82 0 0 1 4.571 2.75H8.43a1.82 1.82 0 0 1 1.821 1.821V8.43a1.821 1.821 0 0 1-1.821 1.821H4.57a1.821 1.821 0 0 1-1.82-1.822V4.57Zm0 11c0-1.005.815-1.821 1.821-1.821H8.43c1.006 0 1.821.816 1.821 1.821v3.858A1.821 1.821 0 0 1 8.43 21.25H4.57a1.821 1.821 0 0 1-1.821-1.821V15.57Zm11-11c0-1.006.816-1.821 1.821-1.821h3.858a1.82 1.82 0 0 1 1.821 1.821V8.43a1.821 1.821 0 0 1-1.821 1.821H15.57a1.821 1.821 0 0 1-1.821-1.821V4.57Z"/></g></svg>