<svg xmlns="http://www.w3.org/2000/svg" width="24" height="24"><g fill="none"><path stroke="currentColor" stroke-linejoin="round" stroke-width="1.5" d="M15.75 4c0-.69.56-1.25 1.25-1.25h3c.69 0 1.25.56 1.25 1.25v3c0 .69-.56 1.25-1.25 1.25h-3c-.69 0-1.25-.56-1.25-1.25V4Zm-13 0c0-.69.56-1.25 1.25-1.25h3c.69 0 1.25.56 1.25 1.25v3c0 .69-.56 1.25-1.25 1.25H4c-.69 0-1.25-.56-1.25-1.25V4Zm0 13c0-.69.56-1.25 1.25-1.25h3c.69 0 1.25.56 1.25 1.25v3c0 .69-.56 1.25-1.25 1.25H4c-.69 0-1.25-.56-1.25-1.25v-3Z"/><path fill="currentColor" d="M6 10.5a.5.5 0 0 1 .5-.5h1a.5.5 0 0 1 .5.5v1a.5.5 0 0 1-.5.5h-1a.5.5 0 0 1-.5-.5v-1ZM12.5 2h1a.5.5 0 0 1 .5.5v3a.5.5 0 0 1-.5.5h-1a.5.5 0 0 0-.5.5v1a.5.5 0 0 1-.5.5h-1a.5.5 0 0 1-.5-.5v-3a.5.5 0 0 1 .5-.5h1a.5.5 0 0 0 .5-.5v-1a.5.5 0 0 1 .5-.5ZM8 12.5a.5.5 0 0 1 .5-.5h3a.5.5 0 0 1 .5.5v1a.5.5 0 0 1-.5.5h-3a.5.5 0 0 1-.5-.5v-1Zm10-2a.5.5 0 0 1 .5-.5h3a.5.5 0 0 1 .5.5v1a.5.5 0 0 1-.5.5h-3a.5.5 0 0 1-.5-.5v-1Zm-6 8a.5.5 0 0 1 .5-.5h3a.5.5 0 0 1 .5.5v1a.5.5 0 0 1-.5.5h-3a.5.5 0 0 1-.5-.5v-1Zm-2-2a.5.5 0 0 1 .5-.5h1a.5.5 0 0 1 .5.5v1a.5.5 0 0 1-.5.5h-1a.5.5 0 0 1-.5-.5v-1Zm2-5v-1a.5.5 0 0 1 .5-.5h3a.5.5 0 0 1 .5.5V14h1.5a.5.5 0 0 1 .5.5v1a.5.5 0 0 1-.5.5h-3a.5.5 0 0 1-.5-.5v-3a.5.5 0 0 0-.5-.5h-1a.5.5 0 0 1-.5-.5Zm4.5 8.5h1a.5.5 0 0 0 .5-.5v-1a.5.5 0 0 1 .5-.5h1a.5.5 0 0 0 .5-.5v-3a.5.5 0 0 1 .5-.5h1a.5.5 0 0 1 .5.5v5a.5.5 0 0 1-.5.5h-1a.5.5 0 0 0-.5.5v1a.5.5 0 0 1-.5.5h-3a.5.5 0 0 1-.5-.5v-1a.5.5 0 0 1 .5-.5ZM2 13.5v-3a.5.5 0 0 1 .5-.5h1a.5.5 0 0 1 .5.5v1a.5.5 0 0 0 .5.5h1a.5.5 0 0 1 .5.5v1a.5.5 0 0 1-.5.5h-3a.5.5 0 0 1-.5-.5Z"/><path fill="currentColor" d="M13.5 22h-3a.5.5 0 0 1-.5-.5v-1a.5.5 0 0 1 .5-.5h1a.5.5 0 0 0 .5-.5v-1a.5.5 0 0 1 .5-.5h3a.5.5 0 0 1 .5.5v1a.5.5 0 0 1-.5.5h-1a.5.5 0 0 0-.5.5v1a.5.5 0 0 1-.5.5Z"/></g></svg>