<svg xmlns="http://www.w3.org/2000/svg" width="24" height="24"><g fill="none" stroke="currentColor" stroke-width="1.5"><path d="m16.18 7.577.187.562.59-.052a3.04 3.04 0 0 1 .253-.01c1.642 0 3.04 1.416 3.04 3.25 0 1.833-1.398 3.25-3.04 3.25H6.79c-1.641 0-3.04-1.417-3.04-3.25 0-1.639 1.122-2.952 2.53-3.205l.442-.08.138-.427c.675-2.082 2.528-3.539 4.666-3.539 2.126 0 3.97 1.439 4.654 3.5Z"/><path stroke-linecap="round" d="m7.045 17.56.835 3.114m3.703-3.114.834 3.114m3.703-3.114.835 3.114"/></g></svg>