<svg xmlns="http://www.w3.org/2000/svg" width="24" height="24"><g fill="none"><path stroke="currentColor" stroke-linecap="round" stroke-width="1.5" d="m16.272 3.13 1.174 3.023a1 1 0 0 1-.57 1.295l-3.022 1.174m-6.639 12.21-.682-3.17a1 1 0 0 1 .768-1.188l3.17-.682"/><path fill="currentColor" fill-rule="evenodd" d="M17.5 7.58c.431-.213.563-.768.231-1.116a8 8 0 0 0-13.693 6.753c.074.475.595.708 1.027.495.319-.157.483-.513.436-.865a6.5 6.5 0 0 1 11.047-5.448c.25.251.633.338.952.18ZM6.392 16.402c.319-.158.7-.072.952.18a6.5 6.5 0 0 0 11.047-5.448c-.048-.352.117-.708.436-.865.43-.213.952.02 1.026.495A8 8 0 0 1 6.16 17.518c-.332-.348-.2-.903.231-1.115Z" clip-rule="evenodd"/></g></svg>