<svg xmlns="http://www.w3.org/2000/svg" width="24" height="24"><path fill="currentColor" fill-rule="evenodd" d="M5.5 3.5a2 2 0 0 0-2 2v13a2 2 0 0 0 2 2h13a2 2 0 0 0 2-2v-13a2 2 0 0 0-2-2h-13ZM6.846 19a1.846 1.846 0 1 0 0-3.692 1.846 1.846 0 0 0 0 3.692Zm-.786-7.841a.78.78 0 0 1 .781-.781 6.78 6.78 0 0 1 6.781 6.78.781.781 0 0 1-1.562 0 5.218 5.218 0 0 0-5.219-5.218.781.781 0 0 1-.78-.781Zm.786-4.94a.781.781 0 1 0 0 1.562 9.372 9.372 0 0 1 9.373 9.373.781.781 0 1 0 1.562 0A10.936 10.936 0 0 0 6.846 6.219Z" clip-rule="evenodd"/></svg>