<svg xmlns="http://www.w3.org/2000/svg" width="24" height="24"><mask id="a" fill="currentColor"><path fill-rule="evenodd" d="M5.456 3.75c-.942 0-1.706.764-1.706 1.706v13.088c0 .942.764 1.706 1.706 1.706h13.088c.942 0 1.706-.764 1.706-1.706V5.456c0-.942-.764-1.706-1.706-1.706H5.456Zm2.577 13.744a1.5 1.5 0 1 0 0-3 1.5 1.5 0 0 0 0 3Zm-1.497-6.673a.75.75 0 0 1 .75-.75 6.642 6.642 0 0 1 6.643 6.643.75.75 0 0 1-1.5 0 5.142 5.142 0 0 0-5.144-5.143.75.75 0 0 1-.75-.75Zm.75-5.464a.75.75 0 1 0 0 1.5 9.857 9.857 0 0 1 9.857 9.857.75.75 0 0 0 1.5 0A11.357 11.357 0 0 0 7.286 5.357Z" clip-rule="evenodd"/></mask><g fill="currentColor"><path fill-rule="evenodd" d="M5.456 3.75c-.942 0-1.706.764-1.706 1.706v13.088c0 .942.764 1.706 1.706 1.706h13.088c.942 0 1.706-.764 1.706-1.706V5.456c0-.942-.764-1.706-1.706-1.706H5.456Zm2.577 13.744a1.5 1.5 0 1 0 0-3 1.5 1.5 0 0 0 0 3Zm-1.497-6.673a.75.75 0 0 1 .75-.75 6.642 6.642 0 0 1 6.643 6.643.75.75 0 0 1-1.5 0 5.142 5.142 0 0 0-5.144-5.143.75.75 0 0 1-.75-.75Zm.75-5.464a.75.75 0 1 0 0 1.5 9.857 9.857 0 0 1 9.857 9.857.75.75 0 0 0 1.5 0A11.357 11.357 0 0 0 7.286 5.357Z" clip-rule="evenodd"/><path d="m9.828 10.577-.574 1.386.574-1.386Zm2.155 1.44-1.06 1.06 1.06-1.06Zm1.44 2.155-1.386.574 1.386-.574Zm-1.386.574 1.386-.574-1.386.574Zm-1.115-1.668-1.06 1.06 1.06-1.06Zm-1.668-1.115.574-1.386-.574 1.386Zm1.804-4.356.574-1.385-.574 1.385Zm6.72 4.761 1.386-.574-1.386.574Zm-2.462-3.684 1.061-1.061-1.06 1.06ZM2.25 5.456A3.206 3.206 0 0 1 5.456 2.25v3a.206.206 0 0 0-.206.206h-3Zm0 13.088V5.456h3v13.088h-3Zm3.206 3.206a3.206 3.206 0 0 1-3.206-3.206h3c0 .114.092.206.206.206v3Zm13.088 0H5.456v-3h13.088v3Zm3.206-3.206a3.206 3.206 0 0 1-3.206 3.206v-3a.206.206 0 0 0 .206-.206h3Zm0-13.088v13.088h-3V5.456h3ZM18.544 2.25a3.206 3.206 0 0 1 3.206 3.206h-3a.206.206 0 0 0-.206-.206v-3Zm-13.088 0h13.088v3H5.456v-3Zm5.577 13.744a3 3 0 0 1-3 3v-3h3Zm-3-3a3 3 0 0 1 3 3h-3v-3Zm-3 3a3 3 0 0 1 3-3v3h-3Zm3 3a3 3 0 0 1-3-3h3v3Zm-.747-7.423a.75.75 0 0 0 .75-.75h-3a2.25 2.25 0 0 1 2.25-2.25v3Zm1.968.392a5.142 5.142 0 0 0-1.968-.392v-3c1.069 0 2.128.211 3.116.62l-1.148 2.772Zm1.668 1.115a5.142 5.142 0 0 0-1.668-1.115l1.148-2.772a8.145 8.145 0 0 1 2.642 1.765l-2.122 2.122Zm1.115 1.668a5.142 5.142 0 0 0-1.115-1.668l2.121-2.122a8.146 8.146 0 0 1 1.766 2.642l-2.772 1.148Zm.391 1.968c0-.675-.133-1.344-.391-1.968l2.772-1.148c.409.988.62 2.047.62 3.116h-3Zm.75-.75a.75.75 0 0 0-.75.75h3a2.25 2.25 0 0 1-2.25 2.25v-3Zm.75.75a.75.75 0 0 0-.75-.75v3a2.25 2.25 0 0 1-2.25-2.25h3Zm-.505-2.542a6.64 6.64 0 0 1 .505 2.542h-3c0-.478-.094-.952-.277-1.394l2.772-1.148Zm-1.44-2.155a6.643 6.643 0 0 1 1.44 2.155L10.65 15.32a3.643 3.643 0 0 0-.79-1.182l2.122-2.12Zm-2.155-1.44a6.641 6.641 0 0 1 2.155 1.44L9.86 14.138a3.643 3.643 0 0 0-1.181-.79l1.148-2.77Zm-2.542-.506c.872 0 1.736.172 2.542.506L8.68 13.35a3.643 3.643 0 0 0-1.394-.278v-3Zm.75.75a.75.75 0 0 0-.75-.75v3a2.25 2.25 0 0 1-2.25-2.25h3Zm-3-4.714a2.25 2.25 0 0 1 2.25-2.25v3a.75.75 0 0 0 .75-.75h-3Zm2.25 2.25a2.25 2.25 0 0 1-2.25-2.25h3a.75.75 0 0 0-.75-.75v3Zm3.198.636a8.358 8.358 0 0 0-3.198-.636v-3c1.491 0 2.968.294 4.346.865l-1.148 2.771Zm2.711 1.812a8.358 8.358 0 0 0-2.711-1.812l1.148-2.771a11.33 11.33 0 0 1 3.684 2.462l-2.12 2.12Zm1.812 2.711a8.357 8.357 0 0 0-1.812-2.711l2.121-2.121a11.357 11.357 0 0 1 2.462 3.684l-2.771 1.148Zm.636 3.198a8.357 8.357 0 0 0-.636-3.198l2.771-1.148c.571 1.378.865 2.855.865 4.346h-3Zm2.25 2.25a2.25 2.25 0 0 1-2.25-2.25h3a.75.75 0 0 0-.75-.75v3Zm2.25-2.25a2.25 2.25 0 0 1-2.25 2.25v-3a.75.75 0 0 0-.75.75h3Zm-.979-4.92a12.86 12.86 0 0 1 .979 4.92h-3a9.856 9.856 0 0 0-.75-3.772l2.771-1.148Zm-2.787-4.171a12.857 12.857 0 0 1 2.787 4.171l-2.771 1.148a9.858 9.858 0 0 0-2.137-3.198l2.121-2.121Zm-4.171-2.787a12.857 12.857 0 0 1 4.171 2.787l-2.121 2.121a9.859 9.859 0 0 0-3.198-2.137l1.148-2.771Zm-4.92-.979c1.688 0 3.36.333 4.92.979l-1.148 2.771a9.857 9.857 0 0 0-3.772-.75v-3Z" mask="url(#a)"/></g></svg>