<svg xmlns="http://www.w3.org/2000/svg" width="24" height="24"><g fill="none"><path fill="currentColor" stroke="currentColor" stroke-width="1.266" d="M15.62 5.54a1.477 1.477 0 1 1-2.953 0 1.477 1.477 0 0 1 2.954 0Z"/><path fill="currentColor" d="M12.093 9.236c.777 0 1.769.811 1.769.811-.967 2.066-1.769 2.778-1.769 4.422H9.941c1.686-3.472 1.206-3.367 2.152-5.233Z"/><path stroke="currentColor" stroke-linecap="round" stroke-linejoin="round" stroke-width="2.215" d="M9.941 14.47c-1.3 2.298-4.071 5.588-4.071 5.588m4.07-5.588h2.152m-2.152 0c1.686-3.472 1.206-3.367 2.152-5.233.777 0 1.769.811 1.769.811-.967 2.066-1.769 2.778-1.769 4.422m0 0c1.344 2.299-.67 6.1-.67 6.1"/><path stroke="currentColor" stroke-linecap="round" stroke-linejoin="round" stroke-width="1.92" d="m14.038 10.063.938 3.903 3.155-1.978m-6.097-2.933-2.851-.027-1.638 2.985"/></g></svg>