<svg xmlns="http://www.w3.org/2000/svg" width="24" height="24"><g fill="none"><path fill="currentColor" stroke="currentColor" stroke-width="1.5" d="M15.884 4.992a1.539 1.539 0 1 1-3.077 0 1.539 1.539 0 0 1 3.077 0Z"/><path fill="currentColor" d="M12.12 9.001c.844 0 1.92.88 1.92.88-1.05 2.242-1.92 3.014-1.92 4.798H9.787c1.828-3.767 1.308-3.654 2.335-5.678Z"/><path stroke="currentColor" stroke-linecap="round" stroke-linejoin="round" stroke-width="1.5" d="M14.04 9.882s-1.076-.88-1.92-.88m1.92.88c-1.05 2.24-1.92 3.013-1.92 4.797m1.92-4.797 1.205 4.256 3.386-2.122M12.121 9c-1.027 2.024-.507 1.911-2.335 5.678M12.12 9H9.015l-1.896 3.33m2.667 2.348c-1.412 2.494-4.417 6.064-4.417 6.064m4.417-6.064h2.335m0 0c1.458 2.494-.729 6.618-.729 6.618"/></g></svg>