<svg xmlns="http://www.w3.org/2000/svg" width="24" height="24"><g fill="none"><circle cx="12" cy="11.85" r="8.777" stroke="currentColor" stroke-width="1.5"/><path fill="currentColor" fill-rule="evenodd" d="M8.693 15.492c-.177.182-.458.23-.662.08a6.968 6.968 0 0 1-.473-.378.451.451 0 0 1-.034-.65c1.148-1.235 2.73-1.999 4.476-1.999 1.809 0 3.44.82 4.597 2.133a.452.452 0 0 1-.052.649 6.97 6.97 0 0 1-.484.365c-.208.143-.487.087-.658-.1-.893-.967-2.112-1.547-3.403-1.547-1.245 0-2.424.54-3.307 1.447Z" clip-rule="evenodd"/><path fill="currentColor" d="M9.883 8.674a1.323 1.323 0 1 1-2.646 0 1.323 1.323 0 0 1 2.646 0Zm6.88 0a1.323 1.323 0 1 1-2.646 0 1.323 1.323 0 0 1 2.646 0Z"/></g></svg>