<svg xmlns="http://www.w3.org/2000/svg" width="24" height="24"><path fill="currentColor" d="M20.338 21.399a.75.75 0 0 0 1.06-1.062l-1.06 1.062Zm-3.767-11.173a6.344 6.344 0 0 1-6.345 6.345v1.5a7.844 7.844 0 0 0 7.845-7.845h-1.5Zm-6.345 6.345a6.344 6.344 0 0 1-6.344-6.345h-1.5a7.844 7.844 0 0 0 7.844 7.845v-1.5Zm-6.344-6.345a6.344 6.344 0 0 1 6.344-6.344v-1.5a7.844 7.844 0 0 0-7.844 7.844h1.5Zm6.344-6.344a6.344 6.344 0 0 1 6.345 6.344h1.5a7.844 7.844 0 0 0-7.845-7.844v1.5Zm4.478 11.9 5.634 5.617 1.06-1.062-5.635-5.617-1.059 1.063Z"/></svg>