<svg xmlns="http://www.w3.org/2000/svg" width="24" height="24"><g fill="none"><path fill="currentColor" fill-rule="evenodd" d="m9.594 19.622.715-.415-.059-.101-.018-.031-.02-.029-.068-.095-.02-.028-.022-.025-.076-.09-.023-.026-.026-.025-.085-.081-.023-.023-.026-.02-.091-.074-.028-.023-.03-.02-.098-.064-.03-.02-.03-.016-.103-.054-.03-.016-.031-.013-.108-.045-.033-.015-.035-.01-.11-.035-.034-.01-.033-.008-.114-.024-.034-.007-.035-.004-.115-.014-.035-.004H8.65l-.116-.004H8.5l-.035.002-.116.008-.035.002-.036.006-.114.019-.035.005-.034.01-.113.029.172.656-.179-.654-.141.039-.117.024-.119.015-.12.008-.12-.001-.118-.009-.119-.017-.116-.025-.116-.034-.113-.04-.11-.049-.106-.056-.103-.064-.098-.07-.093-.077-.088-.083-.083-.09-.076-.095-.07-.099-.063-.105-.056-.11-.048-.11-.041-.116-.034-.12-.025-.12-.017-.12-.01-.123v-.123l.008-.124.015-.121.024-.12.038-.144-.745-.2.749.192.029-.114.008-.034.006-.033.018-.117.006-.034.002-.035.008-.117.002-.034v-.033l-.003-.118-.001-.035-.004-.034-.014-.117-.004-.034-.006-.033-.025-.115-.006-.033-.01-.032-.034-.113-.01-.034-.014-.033-.045-.109-.013-.03-.015-.03-.054-.104-.016-.03-.019-.03-.063-.098-.02-.03-.022-.029-.072-.092-.02-.026-.023-.024-.08-.086-.024-.026-.027-.023-.088-.078-.025-.022-.028-.02-.094-.069-.03-.021-.03-.018-.1-.06-.462.778.454-.782-.127-.074-.1-.067-.095-.074-.09-.081-.086-.087-.078-.092-.073-.098-.066-.103-.059-.107-.051-.11-.044-.115-.037-.118-.029-.12-.02-.12-.012-.123-.004-.123.004-.123.012-.122.02-.12.029-.12.037-.118.044-.114.051-.11.059-.108.066-.103.073-.098.078-.092.085-.087.09-.08.096-.075.1-.067.127-.075-.455-.781.463.778.1-.06.03-.018.03-.021.094-.07.028-.02.025-.022.088-.077.027-.024.024-.026.08-.085.023-.024.02-.026.072-.092.023-.028.02-.03.062-.1.02-.028.015-.031.054-.104.015-.03.013-.03.045-.11.013-.032.01-.034.035-.113.01-.032.006-.033.025-.115.006-.034.004-.033.014-.117.004-.034v-.035l.003-.118.001-.033-.002-.034-.008-.117-.002-.035-.006-.034-.018-.117-.006-.034-.008-.033-.03-.114-.746.191.744-.199-.039-.143-.024-.12-.015-.122-.008-.124v-.123l.01-.122.017-.122.025-.12.034-.119.04-.115.049-.112.056-.11.063-.104.07-.1.076-.094.083-.09.088-.083.093-.077.098-.07.103-.064.107-.056.109-.048.113-.041.116-.034.116-.025.119-.017.119-.009h.12l.12.007.118.015.117.024.141.039.18-.654-.173.656.113.03.034.008.035.006.114.019.036.006.035.002.116.008.035.002h.034l.116-.003.036-.001.035-.004.115-.014.035-.004.034-.007.114-.025.033-.007.033-.01.111-.035.035-.01.033-.014.108-.046.03-.013.03-.016.104-.054.03-.017.03-.019.097-.064.03-.02.029-.023.09-.073.027-.02.023-.024.085-.081.026-.025.023-.027.076-.089.022-.025.02-.027.068-.096.02-.029.018-.03.06-.102-.716-.415.72.409.073-.13.067-.101.074-.097.08-.092.086-.086.09-.08.097-.072.101-.067.105-.059.108-.052.112-.044.115-.036.116-.029.117-.02.12-.012.12-.005.119.005.12.012.117.02.116.029.115.036.112.044.108.052.104.06.102.066.096.073.09.08.087.085.08.092.074.097.066.102.074.129.562-.32-.56.326.058.101.018.031.02.029.069.096.02.027.021.025.077.09.023.026.026.025.084.081.024.023.026.02.09.074.029.023.03.02.098.064.03.02.03.016.103.054.03.016.03.013.108.045.034.015.034.01.111.035.033.01.034.007.114.025.034.007.034.004.116.014.035.004h.035l.117.004h.034l.034-.002.117-.008.035-.002.035-.006.115-.019.034-.006.034-.008.113-.03-.22-.84.23.838.14-.039.118-.024.118-.015.12-.008.12.001.12.009.117.017.117.025.116.034.113.04.11.049.106.056.103.064.098.07.093.077.088.083.083.09.076.095.07.099.063.105.056.109.048.112.041.115.034.12.025.12.017.12.009.123v.123l-.007.124-.015.121-.024.12-.039.144.724.194-.726-.186-.029.114-.008.033-.006.034-.018.117-.006.034-.002.035-.008.117-.002.034v.033l.003.118v.035l.005.034.013.117.004.033.007.034.024.115.007.033.01.032.034.113.01.034.014.033.045.109.012.03.016.03.054.104.016.03.018.03.064.098.02.03.021.029.073.092.02.026.023.024.08.085.024.027.027.023.088.077.025.023.027.02.095.069.029.021.03.018.101.06.296-.497-.292.5.128.075.1.067.095.074.09.081.085.087.079.092.072.098.066.103.06.107.05.11.045.115.036.118.029.12.02.12.013.123.004.122-.004.123-.013.123-.02.12-.029.12-.036.118-.044.114-.052.11-.059.108-.066.103-.072.098-.079.092-.085.087-.09.08-.095.075-.1.067-.128.074.291.5-.295-.496-.1.06-.031.018-.03.021-.094.07-.027.02-.025.021-.088.078-.027.023-.024.026-.08.086-.023.024-.02.026-.073.092-.022.028-.02.03-.063.1-.018.028-.016.031-.054.104-.016.03-.012.03-.045.11-.013.032-.01.034-.035.113-.01.032-.007.033-.024.115-.007.034-.004.033-.013.117-.004.034v.035l-.004.118v.033l.002.034.008.117.002.035.005.034.02.117.005.033.008.034.03.114.727-.186-.726.194.039.143.024.12.015.122.008.124-.001.123-.009.122-.017.122-.025.12-.034.119-.04.115-.049.112-.056.109-.063.105-.07.1-.076.094-.083.09-.088.083-.093.077-.098.07-.103.064-.107.056-.109.048-.113.041-.116.034-.117.025-.118.017-.119.009h-.12l-.12-.007-.118-.015-.117-.024-.141-.039-.23.838.22-.84-.113-.03-.034-.009-.034-.005-.115-.019-.035-.006-.035-.002-.117-.008-.034-.002h-.034l-.117.003H15.1l-.035.005-.116.014-.034.004-.034.007-.114.024-.034.008-.033.01-.11.035-.035.01-.034.015-.107.045-.031.013-.03.016-.103.054-.03.017-.03.019-.098.064-.03.02-.028.023-.091.073-.026.02-.024.024-.084.081-.026.025-.023.027-.076.088-.022.026-.02.028-.068.095-.02.029-.019.03-.059.102.56.325-.561-.319-.074.13-.066.101-.074.097-.08.092-.086.086-.091.08-.096.072-.101.067-.105.059-.108.052-.112.044-.115.036-.116.029-.117.02-.12.012-.12.005-.12-.005-.119-.012-.117-.02-.116-.029-.115-.036-.112-.044-.108-.052-.105-.06-.1-.066-.097-.073-.091-.08-.086-.085-.08-.092-.074-.097-.067-.102-.073-.129-.72.409ZM4.292 8.424l-.045-.168-.007-.023-.004-.025-.034-.17-.005-.025-.003-.025-.022-.172-.003-.025-.002-.025-.01-.172-.002-.025v-.025l.001-.173v-.025l.002-.026.013-.172.001-.025.004-.025.024-.171.003-.026.006-.025.036-.17.005-.024.006-.024.047-.167.007-.023.008-.024.058-.163.008-.024.01-.023.07-.159.01-.023.011-.023.08-.154.01-.022.013-.02.09-.148.012-.022.015-.021.099-.142.015-.02.016-.021.108-.134.016-.02.017-.018.117-.127.017-.018.018-.018.125-.118.019-.017.019-.016.133-.11.02-.016.02-.016.14-.1.021-.015.022-.013.147-.09.02-.013.022-.012.152-.08.023-.012.024-.011.157-.07.023-.01.025-.009.16-.058.025-.009.024-.007.165-.047.024-.007.025-.006.167-.036.026-.005.026-.004.17-.024.025-.004.025-.002.17-.013.027-.002h.248l.17.011.026.002.025.003.17.022.026.004.026.005.167.034.025.005.024.007.166.045.07.019.044.007.047.003h.046l.046-.006.046-.01.044-.014.043-.018.043-.023.038-.025.037-.03.035-.033.031-.037.028-.039.042-.07.083-.145.012-.021.013-.02.095-.145.014-.022.016-.02.105-.138.015-.02.016-.018.113-.13.017-.02.018-.017.122-.122.018-.018.019-.017.13-.113.019-.017.02-.015.137-.104.02-.015.021-.014.144-.095.021-.014.023-.013.15-.084.021-.012.023-.011.155-.074.024-.012.024-.01.16-.062.023-.01.024-.007.163-.052.025-.008.024-.006.167-.04.025-.007.025-.004.169-.03.026-.004.026-.003.17-.017.025-.003h.025l.17-.007h.054l.171.007h.025l.024.003.17.017.027.003.026.004.168.03.026.004.025.006.166.041.025.006.024.008.164.052.024.008.023.009.16.063.024.01.024.01.154.075.023.01.023.013.149.084.022.013.022.014.144.095.02.014.02.015.137.104.02.015.02.017.13.113.019.017.018.018.121.122.018.018.017.019.114.13.016.018.015.02.104.137.017.021.014.022.095.145.013.02.012.02.085.151h-.001l.037.065.028.04.031.036.035.033.037.03.039.025.042.023.043.018.044.014.046.01.046.005.047.001.046-.003.045-.007.08-.021.157-.043.025-.007.024-.005.168-.034.026-.005.026-.004.17-.022.025-.003.026-.002.17-.01.026-.002h.025l.171.001h.026l.026.002.17.013.026.002.025.004.17.024.026.004.026.005.167.036.025.006.024.007.165.047.024.007.024.009.161.058.024.01.024.01.157.069.024.01.023.013.151.08.022.012.021.013.146.09.022.013.021.015.14.1.021.016.02.016.133.11.02.016.018.017.125.118.018.018.017.018.117.127.017.018.016.02.108.134.016.02.015.021.099.142.014.02.014.023.089.148.012.02.011.022.08.154.011.023.01.023.07.159.01.023.008.024.058.163.008.024.006.023.047.167.007.024.005.024.036.17.005.025.004.026.024.171.003.025.002.025.013.172.002.026v.248l-.011.172-.002.025-.003.025-.022.172-.003.025-.005.026-.034.17-.005.024-.006.023-.044.165-.02.075-.007.049-.003.05v.049l.007.049.01.049.014.046.019.046.023.044.025.04.03.038.033.035.036.031.038.028.07.041-.001.001.141.082.021.013.02.013.143.096.022.015.021.016.136.106.02.016.018.016.128.115.02.017.017.018.12.124.018.018.016.019.112.13.017.02.015.021.102.139.015.02.014.02.093.146.014.021.012.023.083.15.013.023.01.023.073.156.011.024.01.024.062.161.008.023.008.024.051.165.008.024.005.024.04.169.007.024.004.025.029.17.004.026.002.026.018.172.002.024v.024l.007.173v.053l-.006.173-.001.024-.002.024-.018.172-.002.026-.004.025-.03.17-.003.026-.006.024-.04.169-.006.024-.008.024-.051.165-.008.024-.008.023-.063.161-.009.024-.01.024-.074.156-.01.023-.013.022-.083.151-.012.023-.014.021-.093.146-.014.02-.015.02-.102.139-.015.02-.017.02-.112.131-.016.02-.018.017-.12.124-.018.018-.019.017-.128.115-.019.016-.02.016-.135.105-.02.017-.023.015-.143.096-.02.013-.02.013-.142.082-.07.042-.037.028-.036.031-.033.035-.03.038-.025.04-.023.044-.02.046-.013.046-.01.05-.006.048-.001.05.003.05.008.047.02.077.043.163.006.024.005.024.034.17.005.026.003.025.022.172.003.025.002.024.01.173.002.025v.025l-.001.173v.025l-.002.026-.013.172-.002.025-.003.025-.024.171-.004.026-.005.025-.036.17-.005.024-.007.024-.046.167-.007.023-.008.024-.058.163-.009.024-.01.023-.068.159-.01.023-.012.023-.08.154-.01.022-.013.02-.09.148-.013.022-.014.021-.1.142-.014.02-.016.02-.108.135-.016.02-.017.018-.117.127-.017.018-.018.018-.125.118-.019.017-.02.016-.132.11-.02.016-.02.015-.14.1-.022.016-.022.013-.146.09-.02.013-.023.012-.151.08-.023.012-.024.01-.157.07-.024.01-.024.01-.161.058-.024.009-.024.007-.165.047-.024.007-.025.005-.167.037-.026.005-.026.004-.17.024-.025.004-.025.002-.171.013-.026.002h-.248l-.17-.011-.026-.002-.025-.003-.17-.023-.026-.003-.026-.005-.168-.034-.024-.005-.025-.007-.158-.043-.079-.02-.045-.008-.046-.003h-.047l-.046.006-.046.01-.044.014-.043.018-.042.023-.039.025-.037.03-.035.033-.03.037-.029.039-.037.064h.001l-.085.151-.012.021-.013.02-.095.145-.014.022-.017.02-.104.138-.015.02-.016.018-.114.13-.017.02-.018.017-.121.122-.018.018-.02.017-.129.113-.02.017-.02.015-.136.104-.02.015-.021.014-.144.095-.021.014-.023.012-.15.085-.022.012-.023.011-.154.074-.024.012-.024.01-.16.062-.023.01-.024.007-.164.052-.024.008-.025.006-.166.04-.025.007-.026.004-.168.03-.026.004-.026.003-.17.017-.025.003h-.025l-.17.007h-.054l-.171-.007h-.025l-.024-.003-.17-.017-.027-.003-.026-.005-.169-.029-.025-.004-.025-.006-.166-.041-.025-.006-.025-.008-.163-.052-.024-.008-.023-.009-.16-.063-.024-.01-.024-.01-.155-.075-.023-.01-.022-.013-.15-.084-.022-.013-.021-.014-.144-.095-.02-.014-.02-.015-.137-.104-.021-.015-.02-.017-.13-.113-.018-.017-.018-.018-.122-.122-.018-.018-.017-.019-.113-.13-.016-.018-.015-.02-.105-.137-.016-.021-.014-.023-.095-.144-.013-.02-.012-.02-.082-.146h-.001l-.042-.07-.028-.04-.03-.036-.036-.033-.037-.03-.038-.025-.043-.023-.043-.018-.044-.014-.046-.01-.046-.005-.046-.001-.047.003-.045.007-.07.019-.165.045-.024.007-.025.005-.167.034-.026.005-.026.003-.17.023-.025.003-.026.002-.17.01-.026.002h-.025l-.171-.001h-.026l-.026-.002-.17-.013-.026-.002-.025-.004-.17-.024-.026-.004-.026-.005-.167-.037-.025-.005-.024-.007-.165-.047-.024-.007-.024-.009-.161-.058-.025-.01-.023-.01-.157-.07-.024-.01-.023-.012-.152-.08-.021-.012-.021-.013-.147-.09-.022-.013-.02-.015-.14-.1-.021-.016-.02-.016-.133-.11-.02-.016-.018-.017-.125-.118-.018-.018-.017-.018-.117-.127-.017-.018-.016-.02-.108-.134-.016-.02-.015-.021-.099-.142-.015-.02-.013-.023-.089-.148-.012-.02-.012-.022-.079-.154-.012-.023-.01-.023-.068-.159-.01-.023-.009-.024-.058-.163-.008-.024-.007-.023-.047-.167-.006-.024-.005-.024-.036-.17-.005-.025-.004-.026-.024-.171-.004-.025-.001-.025-.013-.172-.002-.026v-.197l-.001-.025.001-.025.011-.172.002-.025.003-.025.022-.172.003-.025.005-.026.034-.17.004-.024.007-.024.044-.167h.001l.019-.073.008-.048.003-.05-.001-.049-.006-.049-.01-.049-.014-.046-.019-.046-.023-.044-.025-.04-.03-.038-.033-.035-.036-.031-.038-.028-.065-.039-.149-.085-.02-.013-.021-.013-.143-.096-.022-.015-.02-.017-.136-.105-.02-.016-.018-.016-.129-.115-.019-.017-.018-.018-.12-.124-.017-.018-.017-.019-.112-.13-.016-.02-.016-.021-.102-.139-.015-.02-.013-.02-.094-.146-.013-.021-.013-.023-.083-.15-.012-.023-.01-.023-.074-.156-.01-.024-.01-.024-.062-.161-.009-.023-.007-.024-.052-.165-.007-.024-.006-.024-.04-.169-.006-.024-.004-.025-.03-.17-.004-.026-.002-.026-.017-.172-.003-.024v-.024l-.006-.173-.001-.027v-.026l.007-.173v-.024l.003-.024.017-.172.002-.026.005-.025.029-.17.004-.026.006-.024.04-.169.006-.024.007-.024.052-.165.007-.024.009-.023.062-.161.01-.024.01-.024.073-.156.01-.023.013-.022.083-.151.013-.023.013-.021.094-.146.013-.02.015-.02.102-.139.016-.02.016-.02.112-.131.017-.02.017-.017.12-.124.018-.018.02-.017.128-.115.018-.016.02-.016.135-.106.021-.016.022-.015.143-.096.02-.013.021-.013.149-.086.065-.038.038-.028.036-.031.033-.035.03-.039.025-.04.023-.043.019-.046.014-.046.01-.05.006-.048.001-.05-.003-.05-.008-.047-.019-.073Z" clip-rule="evenodd"/><path stroke="currentColor" stroke-width="1.5" d="M14.789 11.761a3.056 3.056 0 0 1-3.05 3.063 3.056 3.056 0 0 1-3.05-3.063A3.056 3.056 0 0 1 11.74 8.7a3.056 3.056 0 0 1 3.05 3.063Z"/></g></svg>