<svg xmlns="http://www.w3.org/2000/svg" width="24" height="24"><g fill="none"><path stroke="currentColor" stroke-width="1.5" d="m16.18 7.25.187.563.59-.052a3.04 3.04 0 0 1 .253-.011c1.642 0 3.04 1.416 3.04 3.25s-1.398 3.25-3.04 3.25H6.79c-1.641 0-3.04-1.416-3.04-3.25 0-1.638 1.122-2.95 2.53-3.205l.442-.08.138-.426c.675-2.082 2.528-3.539 4.666-3.539 2.126 0 3.97 1.439 4.654 3.5Z"/><circle cx="7" cy="18" r="1" fill="currentColor"/><circle cx="17" cy="18" r="1" fill="currentColor"/><circle cx="12" cy="18" r="1" fill="currentColor"/><circle cx="14" cy="21" r="1" fill="currentColor"/><circle cx="9" cy="21" r="1" fill="currentColor"/></g></svg>