<svg xmlns="http://www.w3.org/2000/svg" width="24" height="24"><g fill="none"><path stroke="currentColor" stroke-width="1.5" d="m16.18 7.577.187.562.59-.052a3.04 3.04 0 0 1 .253-.01c1.642 0 3.04 1.416 3.04 3.25 0 1.833-1.398 3.25-3.04 3.25H6.79c-1.641 0-3.04-1.417-3.04-3.25 0-1.639 1.122-2.952 2.53-3.205l.442-.08.138-.427c.675-2.082 2.528-3.539 4.666-3.539 2.126 0 3.97 1.439 4.654 3.5Z"/><circle cx="7.16" cy="17.687" r=".874" fill="currentColor"/><circle cx="16.84" cy="17.687" r=".874" fill="currentColor"/><circle cx="12" cy="17.687" r=".874" fill="currentColor"/><circle cx="14.42" cy="20.766" r=".874" fill="currentColor"/><circle cx="9.58" cy="20.766" r=".874" fill="currentColor"/></g></svg>