<svg xmlns="http://www.w3.org/2000/svg" width="24" height="24"><g fill="none"><path stroke="currentColor" stroke-width="1.5" d="M11.526 3.75c2.126 0 3.969 1.439 4.654 3.5l.187.563.59-.052c.083-.008.169-.011.254-.011 1.64 0 3.039 1.416 3.039 3.25s-1.398 3.25-3.04 3.25H6.79c-1.642 0-3.04-1.416-3.04-3.25 0-1.638 1.123-2.951 2.53-3.205l.442-.08.138-.427c.675-2.081 2.528-3.538 4.666-3.538Z"/><circle cx="7" cy="18" r="1" fill="currentColor"/><circle cx="17" cy="18" r="1" fill="currentColor"/><circle cx="12" cy="18" r="1" fill="currentColor"/><circle cx="14" cy="21" r="1" fill="currentColor"/><circle cx="9" cy="21" r="1" fill="currentColor"/></g></svg>