<svg xmlns="http://www.w3.org/2000/svg" width="24" height="24"><g fill="none" stroke="currentColor"><path stroke-width="1.5" d="M18.152 18.557a2.25 2.25 0 0 1-2.25 2.25H8.098a2.25 2.25 0 0 1-2.25-2.25V5.443a2.25 2.25 0 0 1 2.25-2.25h7.804a2.25 2.25 0 0 1 2.25 2.25v13.114Z"/><path stroke-width="1.5" d="M8.502 14.124a3.498 3.498 0 1 1 6.996 0 3.498 3.498 0 0 1-6.996 0Z"/><path fill="currentColor" d="M10.907 7.221a1.093 1.093 0 1 1 2.186 0 1.093 1.093 0 0 1-2.186 0Zm.531 6.903a.562.562 0 1 1 1.124 0 .562.562 0 0 1-1.124 0Z"/></g></svg>