<svg xmlns="http://www.w3.org/2000/svg" width="24" height="24"><g fill="none" stroke="currentColor"><path stroke-width="1.5" d="M15.902 20.807H8.098a2.25 2.25 0 0 1-2.25-2.25V5.443a2.25 2.25 0 0 1 2.25-2.25h7.804a2.25 2.25 0 0 1 2.25 2.25v13.114a2.25 2.25 0 0 1-2.25 2.25Z"/><path stroke-width="1.5" d="M12 17.621a3.498 3.498 0 1 1 0-6.996 3.498 3.498 0 0 1 0 6.996Z"/><path fill="currentColor" d="M12 8.314a1.093 1.093 0 1 1 0-2.185 1.093 1.093 0 0 1 0 2.185Zm0 6.372a.562.562 0 1 1 0-1.125.562.562 0 0 1 0 1.125Z"/></g></svg>