<svg xmlns="http://www.w3.org/2000/svg" width="24" height="24"><g fill="none"><path fill="currentColor" stroke="currentColor" stroke-width="1.5" d="M18.349 6.029a1.2 1.2 0 1 1-2.4 0 1.2 1.2 0 0 1 2.4 0Z"/><path stroke="currentColor" stroke-linecap="round" stroke-linejoin="round" stroke-width="1.5" d="M13.78 4.606H5m5.546 2.773H5.924m1.849 2.772H3.15"/><path fill="currentColor" stroke="currentColor" stroke-width="1.5" d="M18.397 6.029a1.2 1.2 0 1 1-2.4 0 1.2 1.2 0 0 1 2.4 0Z"/><path fill="currentColor" d="M15.302 9.445c.718 0 1.634.75 1.634.75-.893 1.91-1.634 2.568-1.634 4.087h-1.99c1.558-3.209 1.115-3.112 1.99-4.837Z"/><path stroke="currentColor" stroke-linecap="round" stroke-linejoin="round" stroke-width="1.5" d="M16.936 10.195s-.916-.75-1.634-.75m1.634.75c-.893 1.91-1.634 2.568-1.634 4.087m1.634-4.087 1.028 3.626 2.885-1.808m-5.547-2.568c-.875 1.725-.432 1.628-1.99 4.837m1.99-4.837h-2.646l-1.616 2.838m2.272 2c-1.202 2.124-3.763 5.166-3.763 5.166m3.763-5.167h1.99m0 0c1.242 2.125-.62 5.639-.62 5.639"/></g></svg>