<svg xmlns="http://www.w3.org/2000/svg" width="24" height="24"><path fill="none" stroke="currentColor" stroke-linejoin="round" stroke-width="1.5" d="M11.704 3.69a.325.325 0 0 1 .592 0l2.38 5.236a.325.325 0 0 0 .258.189l5.736.68c.284.034.39.39.17.573l-4.286 3.554a.325.325 0 0 0-.111.316l1.229 5.984a.325.325 0 0 1-.49.342l-5.01-3.108a.325.325 0 0 0-.343 0l-5.01 3.108a.325.325 0 0 1-.49-.342l1.228-5.984a.325.325 0 0 0-.111-.316L3.16 10.368a.325.325 0 0 1 .17-.573l5.736-.68a.325.325 0 0 0 .257-.189l2.38-5.237Z"/></svg>