<svg xmlns="http://www.w3.org/2000/svg" width="24" height="24"><path fill="none" stroke="currentColor" stroke-linejoin="round" stroke-width="1.626" d="M11.984 3.651a.325.325 0 0 1 .592 0l2.338 5.145a.325.325 0 0 0 .258.188l5.634.669c.284.033.39.39.17.573l-4.21 3.49a.325.325 0 0 0-.11.317l1.207 5.878a.325.325 0 0 1-.49.342L12.45 17.2a.325.325 0 0 0-.343 0l-4.921 3.053a.325.325 0 0 1-.49-.342l1.207-5.878a.325.325 0 0 0-.111-.316l-4.21-3.49a.325.325 0 0 1 .17-.574l5.634-.669a.325.325 0 0 0 .258-.188l2.339-5.145Z"/></svg>