<svg xmlns="http://www.w3.org/2000/svg" width="24" height="24"><g fill="currentColor"><circle cx="12" cy="12" r="5.097"/><path fill-rule="evenodd" d="M12.75 3.08a.75.75 0 0 0-1.5 0v2.534a6.498 6.498 0 0 1 1.5 0V3.08Zm0 15.307v2.532a.75.75 0 0 1-1.5 0v-2.532a6.496 6.496 0 0 0 1.5 0Zm8.17-5.637a.75.75 0 0 0 0-1.5h-2.534a6.496 6.496 0 0 1 0 1.5h2.533Zm-15.307 0H3.081a.75.75 0 0 1 0-1.5h2.532a6.498 6.498 0 0 0 0 1.5Zm13.224-6.527a.75.75 0 1 0-1.06-1.06l-1.791 1.79a6.496 6.496 0 0 1 1.06 1.061l1.791-1.79ZM8.014 17.046l-1.79 1.791a.75.75 0 1 1-1.061-1.06l1.79-1.791a6.494 6.494 0 0 0 1.061 1.06ZM6.223 5.163a.75.75 0 0 0-1.06 1.06l1.79 1.791a6.497 6.497 0 0 1 1.062-1.06L6.223 5.163Zm10.824 10.823 1.79 1.79a.75.75 0 0 1-1.06 1.061l-1.791-1.79a6.485 6.485 0 0 0 1.06-1.061Z" clip-rule="evenodd"/></g></svg>