<svg xmlns="http://www.w3.org/2000/svg" width="24" height="24"><g fill="none"><path stroke="currentColor" stroke-width="1.356" d="m14.406 13.047.17.508.533-.047a2.62 2.62 0 0 1 .23-.01c1.483 0 2.747 1.28 2.747 2.938 0 1.658-1.264 2.938-2.748 2.938h-9.42c-1.484 0-2.748-1.28-2.748-2.938 0-1.48 1.014-2.667 2.287-2.897l.4-.072.124-.386c.61-1.882 2.285-3.199 4.219-3.199 1.921 0 3.587 1.3 4.207 3.165Z"/><path fill="currentColor" fill-rule="evenodd" d="M10.816 6.256a.632.632 0 0 0-.791.985l1.32 1.06a4.283 4.283 0 0 1 .79-.986l-1.32-1.06Zm7.874 6.321a4.275 4.275 0 0 1-.791.985l1.32 1.06a.632.632 0 1 0 .79-.986l-1.32-1.059Zm2.814-2.847a.632.632 0 0 1-.559.696l-1.682.184a4.289 4.289 0 0 0-.137-1.256l1.682-.184a.632.632 0 0 1 .696.56Zm-7.196-5.779a.632.632 0 0 1 .696.56l.184 1.682a4.283 4.283 0 0 0-1.256.137l-.184-1.682a.632.632 0 0 1 .56-.696Zm4.795 1.399a.632.632 0 0 1 .097.888l-1.06 1.319a4.283 4.283 0 0 0-.984-.79l1.059-1.32a.632.632 0 0 1 .888-.097ZM11.79 9.47a3.37 3.37 0 1 1 5.123 3.754 3.268 3.268 0 0 0-1.863-.391 5.646 5.646 0 0 0-.105-.29 2.105 2.105 0 1 0-1.996-2.498 5 5 0 0 0-1.159-.576Z" clip-rule="evenodd"/></g></svg>