<svg xmlns="http://www.w3.org/2000/svg" width="24" height="24"><g fill="none"><path stroke="currentColor" stroke-width="1.5" d="M10.22 9.886c1.943 0 3.63 1.315 4.258 3.204l.187.562.59-.052c.076-.006.152-.01.23-.01 1.486 0 2.76 1.285 2.76 2.956 0 1.67-1.274 2.954-2.76 2.954H5.832c-1.486 0-2.76-1.284-2.76-2.954 0-1.492 1.023-2.684 2.299-2.914l.44-.08.14-.427c.618-1.908 2.314-3.24 4.27-3.24Z"/><path fill="currentColor" fill-rule="evenodd" d="M10.842 6.127a.632.632 0 1 0-.791.985l1.35 1.084a4.388 4.388 0 0 1 .79-.985l-1.35-1.084Zm8.069 6.478a4.382 4.382 0 0 1-.79.985l1.349 1.084a.632.632 0 1 0 .79-.985l-1.349-1.084Zm2.876-2.93a.632.632 0 0 1-.559.697l-1.72.188a4.401 4.401 0 0 0-.138-1.256l1.72-.188a.632.632 0 0 1 .697.56ZM14.43 3.77a.632.632 0 0 1 .697.558l.188 1.721a4.39 4.39 0 0 0-1.255.138l-.189-1.721a.632.632 0 0 1 .56-.697Zm4.902 1.428a.632.632 0 0 1 .097.888l-1.083 1.35a4.39 4.39 0 0 0-.986-.79l1.084-1.35a.632.632 0 0 1 .888-.098ZM11.85 9.407a3.452 3.452 0 1 1 5.248 3.847 3.347 3.347 0 0 0-1.908-.4 5.771 5.771 0 0 0-.096-.266 2.192 2.192 0 0 0 2.237-2.425 2.188 2.188 0 0 0-4.323-.185 5.12 5.12 0 0 0-1.158-.571Z" clip-rule="evenodd"/></g></svg>