<svg xmlns="http://www.w3.org/2000/svg" width="24" height="24"><g fill="none"><path fill="currentColor" fill-rule="evenodd" d="M6.195 12.517a.565.565 0 0 1 .017-.87l2.309-1.838a.565.565 0 0 0 0-.885L6.212 7.086a.565.565 0 0 1-.017-.87l.267-.23a.565.565 0 0 1 .721-.015l3.418 2.721c.46.366.46.982 0 1.348l-3.418 2.721a.565.565 0 0 1-.721-.014l-.267-.23Z" clip-rule="evenodd"/><path stroke="currentColor" stroke-width="1.5" d="M3.045 5.312a2.267 2.267 0 0 1 2.267-2.267h13.376a2.267 2.267 0 0 1 2.267 2.267v13.376a2.267 2.267 0 0 1-2.267 2.267H5.312a2.267 2.267 0 0 1-2.267-2.267V5.312Z"/><path fill="currentColor" d="M9.893 13.41c0-.313.254-.567.567-.567h4.836c.313 0 .567.254.567.566v.658a.567.567 0 0 1-.567.567H10.46a.567.567 0 0 1-.567-.567v-.658Z"/></g></svg>