<svg xmlns="http://www.w3.org/2000/svg" width="24" height="24"><g fill="none"><path stroke="currentColor" stroke-linecap="round" stroke-width="1.5" d="M9.683 13.908c.24-2.042.75-3.57 2.24-3.57 1.49 0 2.4 1.134 2.4 3.055 0 1.921-.828 5.11-1.52 7.065"/><path stroke="currentColor" stroke-linecap="round" stroke-width="1.5" d="M12.014 13.108c-.135 1.702-.608 5.355-1.42 6.356"/><path fill="currentColor" fill-rule="evenodd" d="M5.454 18.862c.338.322.7.62 1.083.89.096-.191.192-.39.285-.595.49-1.075.959-2.387 1.227-3.695a.682.682 0 0 0-1.337-.274c-.243 1.188-.674 2.401-1.13 3.403l-.128.271Zm1.701 1.291c.389.232.797.437 1.22.613.143-.31.288-.644.429-.984a42.805 42.805 0 0 0 1.17-3.2.682.682 0 0 0-1.301-.412c-.254.803-.68 2.005-1.13 3.09-.13.315-.26.616-.388.893Zm-3.207-3.136c.274.437.582.85.921 1.236.476-.947.891-1.959 1.008-2.749a.682.682 0 0 0-1.35-.2c-.066.447-.28 1.053-.579 1.713Z" clip-rule="evenodd"/><path fill="currentColor" fill-rule="evenodd" d="m15.711 20.742.261-.917c.146-.507.293-1.023.437-1.544.5-1.818.947-3.7.947-5.34 0-1.658-.457-3.148-1.379-4.236-.934-1.103-2.29-1.727-3.933-1.727-1.661 0-3.014.682-3.938 1.8-.912 1.102-1.373 2.584-1.373 4.163a.75.75 0 0 0 1.5 0c0-1.3.38-2.423 1.029-3.208.637-.77 1.565-1.255 2.782-1.255 1.237 0 2.161.456 2.788 1.196.64.755 1.024 1.872 1.024 3.267 0 1.415-.392 3.12-.893 4.942-.133.483-.274.975-.416 1.469-.184.644-.37 1.291-.54 1.926a9.436 9.436 0 0 0 1.704-.536Z" clip-rule="evenodd"/><path fill="currentColor" fill-rule="evenodd" d="M18.68 18.759c.528-1.622.919-3.41.919-5.159 0-2.731-.588-5.013-1.869-6.626-1.303-1.642-3.238-2.486-5.686-2.486-2.477 0-4.366.962-5.614 2.604C5.205 8.706 4.654 10.9 4.654 13.3a.75.75 0 0 0 1.5 0c0-2.196.507-4.032 1.47-5.3.942-1.24 2.373-2.012 4.42-2.012 2.077 0 3.543.698 4.511 1.918.991 1.249 1.544 3.148 1.544 5.694 0 2.305-.774 4.77-1.631 6.782a9.539 9.539 0 0 0 2.213-1.623Z" clip-rule="evenodd"/><path stroke="currentColor" stroke-linecap="round" stroke-width="1.5" d="M3.435 14.58a8.956 8.956 0 0 1 1.939-8.442m2.31-1.848a8.956 8.956 0 0 1 9.371.401m2.206 2.119a8.956 8.956 0 0 1 1.216 8.318"/></g></svg>