<svg xmlns="http://www.w3.org/2000/svg" width="24" height="24"><g fill="none"><path fill="currentColor" d="M13.442 6.25a.75.75 0 0 0 0-1.5v1.5ZM2.25 17c0 .626.51.915.745 1.015.276.118.595.172.85.2a6.992 6.992 0 0 0 1.016.035h.029l-.034-.75-.034-.75H4.82l-.011.001a5.7 5.7 0 0 1-.797-.027 1.704 1.704 0 0 1-.426-.088c-.113-.049.165.03.165.364h-1.5Zm21-.5v-3h-1.5v3h1.5Zm0-3v-3h-1.5v3h1.5ZM22 9.25h-1.5v1.5H22v-1.5Zm-1.5 0h-2v1.5h2v-1.5Zm-4 0h-4.216v1.5H16.5v-1.5ZM2.25 5.995V17h1.5V5.995h-1.5ZM12.534 9.5v-4h-1.5v4h1.5ZM3.5 6.25h8.284v-1.5H3.5v1.5Zm8.284 0h1.658v-1.5h-1.658v1.5Zm4.716 4.5h2v-1.5h-2v1.5Zm-2.5 7.5h2.286v-1.5H14v1.5Zm7-.5h1v-1.5h-1v1.5Zm-8.716-8.5a.25.25 0 0 1 .25.25h-1.5c0 .69.56 1.25 1.25 1.25v-1.5ZM3.75 5.995a.254.254 0 0 1-.25.255v-1.5c-.68 0-1.25.545-1.25 1.245h1.5Zm19.5 4.505c0-.69-.56-1.25-1.25-1.25v1.5a.25.25 0 0 1-.25-.25h1.5Zm-1.5 6a.25.25 0 0 1 .25-.25v1.5c.69 0 1.25-.56 1.25-1.25h-1.5Z"/><path stroke="currentColor" stroke-width="1.5" d="M5.355 11V9a1 1 0 0 1 1-1h2a1 1 0 0 1 1 1v2a1 1 0 0 1-1 1h-2a1 1 0 0 1-1-1ZM17 10V7.5a.5.5 0 0 1 .5-.5h1a.5.5 0 0 1 .5.5V10"/><circle cx="7.154" cy="17.504" r="1.938" stroke="currentColor" stroke-width="1.5"/><circle cx="11.85" cy="17.504" r="1.938" stroke="currentColor" stroke-width="1.5"/><circle cx="18.658" cy="17.504" r="1.938" stroke="currentColor" stroke-width="1.5"/></g></svg>