<svg xmlns="http://www.w3.org/2000/svg" width="25" height="24"><g fill="none"><path fill="currentColor" fill-rule="evenodd" d="M7.464 3.39c1.406-.67 3.243-.805 5.036-.805 1.793 0 3.63.135 5.036.804.721.344 1.351.838 1.796 1.54.444.704.668 1.56.668 2.57v8.793c0 .442-.148.843-.46 1.154-.287.285-.653.436-.988.528-.326.09-.711.144-1.122.183l1.426 2.393-1.7-.017-1.46-2.255c-1.943.108-4.327.11-6.285.006l-1.566 2.249h-1.69l1.487-2.355a7.232 7.232 0 0 1-1.138-.16c-.347-.085-.731-.233-1.031-.53-.327-.322-.473-.74-.473-1.196V7.499c0-1.01.224-1.866.668-2.57.445-.702 1.075-1.196 1.796-1.54ZM6.98 5.76c-.258.407-.428.962-.428 1.739v8.793c0 .062.01.088.01.092l.002.001c.013.014.086.071.313.127.375.093.873.121 1.545.16.194.01.403.022.627.036 2.126.137 4.92.135 7.02-.007l.268-.018c.808-.054 1.394-.093 1.804-.206.211-.057.285-.113.302-.13a.24.24 0 0 0 .005-.055V7.499c0-.777-.17-1.332-.428-1.74-.258-.407-.638-.724-1.151-.969-1.063-.506-2.588-.653-4.369-.653-1.781 0-3.306.147-4.369.653-.513.245-.893.562-1.151.97Z" clip-rule="evenodd"/><path stroke="currentColor" stroke-width="1.552" d="M16.638 7.048v3.865c0 .086-.804.145-1.91.177a80.117 80.117 0 0 1-4.382.002c-1.145-.032-1.984-.091-1.984-.179V7.048c0-.95 1.939-1.101 4.138-1.101 2.2 0 4.138.15 4.138 1.1Z"/><circle cx="9.397" cy="14.223" r="1.293" fill="currentColor" stroke="currentColor" stroke-width=".517"/><circle cx="15.603" cy="14.223" r="1.293" fill="currentColor" stroke="currentColor" stroke-width=".517"/></g></svg>