<svg xmlns="http://www.w3.org/2000/svg" width="24" height="24"><g fill="none"><path fill="currentColor" fill-rule="evenodd" d="M6.575 3.19c1.514-.722 3.494-.867 5.425-.867 1.931 0 3.911.145 5.425.866.777.37 1.456.902 1.935 1.66.48.757.72 1.68.72 2.768v9.473c0 .476-.16.908-.496 1.243-.308.307-.703.47-1.064.57-.35.095-.766.154-1.208.197l1.536 2.577-1.833-.018-1.572-2.43a66.82 66.82 0 0 1-6.771.007L6.985 21.66H5.164l1.603-2.537a7.79 7.79 0 0 1-1.227-.172c-.373-.092-.788-.251-1.111-.57-.352-.349-.51-.8-.51-1.29V7.617c0-1.088.242-2.01.72-2.768.48-.758 1.159-1.29 1.936-1.66Zm-.522 2.553c-.278.439-.461 1.036-.461 1.874v9.473c0 .067.01.095.011.099l.001.001c.015.015.093.077.338.137.404.1.94.13 1.664.172.21.011.434.024.676.04a63.552 63.552 0 0 0 7.851-.028c.872-.058 1.502-.1 1.945-.221.227-.062.307-.123.325-.14a.264.264 0 0 0 .005-.06V7.617c0-.838-.183-1.435-.46-1.874-.278-.44-.689-.781-1.241-1.044-1.146-.546-2.788-.704-4.707-.704s-3.561.158-4.707.704c-.552.263-.963.604-1.24 1.044Z" clip-rule="evenodd"/><path stroke="currentColor" stroke-width="1.5" d="M16.458 7.13v4.165c0 .092-.866.156-2.057.19-.721.022-1.561.032-2.401.032-.81 0-1.618-.01-2.321-.029-1.233-.034-2.137-.098-2.137-.193V7.131c0-1.024 2.089-1.186 4.458-1.186 2.37 0 4.458.162 4.458 1.186Z"/><circle cx="8.656" cy="14.861" r=".922" fill="currentColor" stroke="currentColor" stroke-width="1.5"/><circle cx="15.343" cy="14.861" r=".922" fill="currentColor" stroke="currentColor" stroke-width="1.5"/></g></svg>