<svg xmlns="http://www.w3.org/2000/svg" width="24" height="24"><path fill="currentColor" fill-rule="evenodd" d="M10.929 5.223a.612.612 0 0 1-.612.612H4.612A.612.612 0 0 0 4 6.447v1.224c0 .338.274.612.612.612h10.429c.415 0 .708.404.546.785-.584 1.376-1.495 2.581-2.79 4.108-.283.334-.584.657-.903.966a.58.58 0 0 1-.803 0 32.244 32.244 0 0 1-1.958-2.062 5.98 5.98 0 0 1-.976-1.519.59.59 0 0 0-.803-.282l-1.095.547a.615.615 0 0 0-.276.823c.322.646.714 1.376 1.32 2.058.489.55.982 1.107 1.544 1.673.293.295.232.794-.147.967a11.037 11.037 0 0 1-4.088.972.636.636 0 0 0-.612.627v1.223c0 .338.274.614.612.6 2.501-.1 4.625-.813 6.404-1.878a.637.637 0 0 1 .724.044c1.381 1.102 2.814 2.086 4.075 2.714.302.15.662.006.795-.305l.483-1.125a.649.649 0 0 0-.312-.825c-.841-.432-1.824-1.08-2.84-1.848a.624.624 0 0 1-.053-.935c.271-.277.53-.561.776-.852 1.853-2.185 3.017-4.067 3.635-6.027a.634.634 0 0 1 .6-.449h.4a.612.612 0 0 0 .612-.612V6.447a.612.612 0 0 0-.612-.612h-5.31a.612.612 0 0 1-.612-.612v-.611A.612.612 0 0 0 12.765 4H11.54a.612.612 0 0 0-.612.612v.611Z" clip-rule="evenodd"/></svg>