<svg xmlns="http://www.w3.org/2000/svg" width="24" height="24"><path fill="currentColor" fill-rule="evenodd" d="M12.372 4.79a7.224 7.224 0 0 1 6.512 5.03h1.294a1.5 1.5 0 0 1 1.5 1.5v1.36a1.5 1.5 0 0 1-1.5 1.5h-1.293A7.224 7.224 0 0 1 12 19.22l-.372-.01a7.222 7.222 0 0 1-6.51-5.03H3.822l-.153-.007a1.5 1.5 0 0 1-1.347-1.492v-1.362A1.5 1.5 0 0 1 3.67 9.827l.153-.008h1.293a7.224 7.224 0 0 1 6.885-5.04l.371.01Zm-5.66 9.39a5.72 5.72 0 0 0 10.576 0H6.713Zm-2.889-1.5h16.355v-1.36H3.823v1.36Zm8.178-6.4a5.722 5.722 0 0 0-5.288 3.54h10.575a5.721 5.721 0 0 0-5.287-3.54Z" clip-rule="evenodd"/></svg>