<svg xmlns="http://www.w3.org/2000/svg" width="24" height="24"><g fill="none"><path stroke="currentColor" stroke-linecap="round" stroke-linejoin="round" stroke-width="1.5" d="M8.759 8.713V3.311m0 5.402-2.701-2.16m2.7 2.16 2.702-2.16"/><path fill="currentColor" d="M10.464 19.699a.5.5 0 0 0-.477-.35H7.168a.5.5 0 0 0-.477.35l-.47 1.483a.5.5 0 0 1-.476.349H4.081a.5.5 0 0 1-.468-.677l3.651-9.657a.5.5 0 0 1 .468-.323h1.692a.5.5 0 0 1 .467.322l3.675 9.657a.5.5 0 0 1-.467.678h-1.69a.5.5 0 0 1-.476-.35l-.47-1.482ZM7.45 17.296a.2.2 0 0 0 .19.26h1.863a.2.2 0 0 0 .19-.26l-.93-2.937a.2.2 0 0 0-.382 0l-.93 2.937Zm11.169 4.234c-.093 0-.163-.012-.2-.097-.086-.194-.362-.304-.534-.181-.396.284-.88.425-1.454.425-.803 0-1.47-.22-2.001-.659-.526-.439-.788-1.007-.788-1.705 0-.83.318-1.471.956-1.925.643-.454 1.567-.686 2.772-.695h.261a.5.5 0 0 0 .5-.5v-.137c0-.356-.073-.608-.221-.754-.148-.146-.363-.22-.646-.22-.427 0-.708.14-.844.421-.12.249-.319.487-.595.487h-1.506c-.276 0-.508-.227-.445-.496.119-.513.431-.95.936-1.312.668-.478 1.509-.717 2.524-.717 1.051 0 1.863.227 2.436.68.578.45.867 1.094.867 1.933v3.726c.012.683 0 1.187 0 1.603a.124.124 0 0 1-.124.124h-1.894Zm-1.63-1.478c.277 0 .514-.046.708-.139.13-.061.237-.13.323-.207a.38.38 0 0 0 .111-.288v-.98a.5.5 0 0 0-.5-.5h-.102c-.425 0-.761.111-1.01.336-.241.224-.362.524-.362.9 0 .586.277.878.832.878Z"/></g></svg>