<svg xmlns="http://www.w3.org/2000/svg" width="24" height="24"><g fill="none"><path fill="currentColor" d="M10.783 14.613a.5.5 0 0 0-.473-.337H8.146a.5.5 0 0 0-.472.337l-.327.942a.5.5 0 0 1-.472.337H5.748a.5.5 0 0 1-.462-.691l2.85-6.892A.5.5 0 0 1 8.598 8h1.261a.5.5 0 0 1 .462.308L13.19 15.2a.5.5 0 0 1-.462.692h-1.146a.5.5 0 0 1-.473-.337l-.326-.942Zm-2.304-2.328a.5.5 0 0 0 .473.663h.545a.5.5 0 0 0 .473-.663l-.273-.787a.5.5 0 0 0-.945 0l-.273.787Zm8.876 3.607c-.073 0-.126-.01-.157-.075-.071-.148-.28-.233-.416-.142-.324.217-.721.325-1.193.325-.65 0-1.19-.163-1.621-.488-.426-.325-.638-.746-.638-1.263 0-.614.258-1.09.774-1.425.521-.336 1.27-.508 2.245-.515h.145c.26 0 .472-.211.472-.472 0-.263-.06-.45-.18-.558-.119-.108-.293-.162-.523-.162-.281 0-.485.069-.61.207-.185.204-.374.465-.65.465h-1.03c-.276 0-.51-.231-.418-.491.117-.327.357-.61.721-.848.54-.354 1.222-.531 2.044-.531.852 0 1.51.168 1.973.504.469.332.703.81.703 1.43v2.76c.01.505 0 .88 0 1.187 0 .05-.041.092-.092.092h-1.55Zm-1.314-1.095c.224 0 .416-.035.573-.103a1.21 1.21 0 0 0 .222-.124c.093-.067.13-.183.13-.298v-.554a.488.488 0 0 0-.488-.488c-.344 0-.617.083-.817.25a.83.83 0 0 0-.294.666c0 .434.224.65.674.65Z"/><path stroke="currentColor" stroke-width="1.5" d="M4 2.75h16c.69 0 1.25.56 1.25 1.25v16c0 .69-.56 1.25-1.25 1.25H4c-.69 0-1.25-.56-1.25-1.25V4c0-.69.56-1.25 1.25-1.25Z"/></g></svg>