<svg xmlns="http://www.w3.org/2000/svg" width="24" height="24"><g fill="none"><path stroke="currentColor" stroke-linecap="round" stroke-linejoin="round" stroke-width="1.5" d="M18.654 6.079H5.346a2 2 0 0 0-2 2v7.842a2 2 0 0 0 2 2h13.308a2 2 0 0 0 2-2V8.08a2 2 0 0 0-2-2Z"/><path fill="currentColor" fill-rule="evenodd" d="M15.644 9.723c-.267 0-.456.237-.456.504v3.546c0 .267.19.504.456.504a2.277 2.277 0 0 0 0-4.554Zm-7.288 0c.267 0 .456.237.456.504v3.546c0 .267-.19.504-.456.504a2.277 2.277 0 0 1 0-4.554Z" clip-rule="evenodd"/><path fill="currentColor" d="M10.634 10.723a1 1 0 0 1 1-1h.732a1 1 0 0 1 1 1v2.554a1 1 0 0 1-1 1h-.732a1 1 0 0 1-1-1v-2.554Z"/></g></svg>