<svg xmlns="http://www.w3.org/2000/svg" width="24" height="24"><g fill="none"><path stroke="currentColor" stroke-linecap="round" stroke-linejoin="round" stroke-width="2" d="M19.5 5.5h-15a2 2 0 0 0-2 2v9a2 2 0 0 0 2 2h15a2 2 0 0 0 2-2v-9a2 2 0 0 0-2-2Z"/><path fill="currentColor" fill-rule="evenodd" d="M16 9.5c-.293 0-.5.26-.5.553v3.894c0 .293.207.553.5.553a2.5 2.5 0 0 0 0-5Zm-8 0c.293 0 .5.26.5.553v3.894c0 .293-.207.553-.5.553a2.5 2.5 0 0 1 0-5Z" clip-rule="evenodd"/><path fill="currentColor" d="M10.5 10.5a1 1 0 0 1 1-1h1a1 1 0 0 1 1 1v3a1 1 0 0 1-1 1h-1a1 1 0 0 1-1-1v-3Z"/></g></svg>