<svg xmlns="http://www.w3.org/2000/svg" width="24" height="24"><g fill="none"><path fill="currentColor" stroke="currentColor" stroke-width="1.351" d="M13.37 5.14a1.576 1.576 0 1 1-3.152 0 1.576 1.576 0 0 1 3.151 0Z"/><path fill="currentColor" d="M11.778 14.831H9.482c.465-2.055.465-3.732.465-5.408l2.247.22c0 1.576-.416 3.434-.416 5.188Z"/><path stroke="currentColor" stroke-linecap="round" stroke-linejoin="round" stroke-width="2.363" d="M9.482 14.831c-1.388 2.453-2.531 6.28-2.531 6.28m2.53-6.28h2.297m-2.296 0c.465-2.055.465-3.732.465-5.408l2.247.22c0 1.576-.416 3.434-.416 5.188m0 0c1.434 2.453.687 6.28.687 6.28"/><path stroke="currentColor" stroke-linecap="round" stroke-linejoin="round" stroke-width="1.676" d="m12.66 9.423 2.19 3.574 2.682-1.11M9.805 9.089l-3.274.967L8.8 13.627"/></g></svg>