<svg xmlns="http://www.w3.org/2000/svg" width="24" height="24"><g fill="none"><path fill="currentColor" stroke="currentColor" stroke-width="1.5" d="M13.34 4.926a1.57 1.57 0 1 1-3.14 0 1.57 1.57 0 0 1 3.14 0Z"/><path fill="currentColor" d="M11.754 14.92H9.386c.48-2.12.48-3.848.48-5.577l2.317.227c0 1.625-.429 3.54-.429 5.35Z"/><path stroke="currentColor" stroke-linecap="round" stroke-linejoin="round" stroke-width="1.5" d="M9.386 14.92c-1.43 2.528-2.61 6.475-2.61 6.475m2.61-6.476h2.368m-2.368 0c.48-2.12.48-3.848.48-5.576l2.317.227c0 1.625-.429 3.54-.429 5.35m0 0c1.479 2.528.708 6.475.708 6.475M12.22 9.597l2.701 3.43 2.766-1.143M9.795 9.342l-3.451.653 2.34 3.682"/></g></svg>