<svg xmlns="http://www.w3.org/2000/svg" width="24" height="24"><g fill="none"><path stroke="currentColor" stroke-width="1.5" d="M5.712 5.323a2.25 2.25 0 0 1 2.25-2.25h8.076a2.25 2.25 0 0 1 2.25 2.25v13.354a2.25 2.25 0 0 1-2.25 2.25H7.962a2.25 2.25 0 0 1-2.25-2.25V5.323Z"/><path fill="currentColor" d="M7.601 5.842a.88.88 0 0 1 .88-.88h7.038a.88.88 0 1 1 0 1.76H8.481a.88.88 0 0 1-.88-.88Z"/><circle cx="12" cy="14.639" r="2.769" stroke="currentColor" stroke-width="1.5"/><path stroke="currentColor" stroke-linecap="round" stroke-width="1.5" d="M5.842 8.481h12.316"/></g></svg>