<svg xmlns="http://www.w3.org/2000/svg" width="24" height="24"><g fill="none"><circle cx="8" cy="3.5" r="1.75" fill="currentColor" stroke="currentColor" stroke-width="1.5"/><path fill="currentColor" d="M5 15.412V8h6v7.412H9V22H7v-6.588H5Z"/><path stroke="currentColor" stroke-linecap="round" stroke-linejoin="round" stroke-width="1.5" d="M7 15.412H5V8h6v7.412H9m-2 0V22h2v-6.588m-2 0h2"/><path fill="currentColor" d="M16 22v-5.5h-2.5L15.719 8h2.562l2.219 8.5H18V22h-2Z"/><path stroke="currentColor" stroke-linecap="round" stroke-linejoin="round" stroke-width="1.5" d="M16 16.5h2m-2 0V22h2v-5.5m-2 0h-2.5L15.719 8h2.562l2.219 8.5H18"/><circle cx="17" cy="3.5" r="1.75" fill="currentColor" stroke="currentColor" stroke-width="1.5"/></g></svg>