<svg xmlns="http://www.w3.org/2000/svg" width="24" height="24"><g fill="none"><circle cx="7.789" cy="4.539" r="1.466" fill="currentColor" stroke="currentColor" stroke-width="1.5"/><path fill="currentColor" d="M5.13 15.1V8.527h5.318V15.1H8.676v5.84H6.902V15.1H5.13Z"/><path stroke="currentColor" stroke-linecap="round" stroke-linejoin="round" stroke-width="1.5" d="M6.902 15.1H5.13V8.527h5.318V15.1H8.676m-1.774 0v5.84h1.774V15.1m-1.774 0h1.774"/><path fill="currentColor" d="M14.881 20.94v-4.876h-2.216l1.967-7.536h2.271l1.968 7.536h-2.217v4.876h-1.773Z"/><path stroke="currentColor" stroke-linecap="round" stroke-linejoin="round" stroke-width="1.5" d="M14.881 16.064h1.773m-1.773 0v4.876h1.773v-4.876m-1.773 0h-2.216l1.967-7.536h2.271l1.968 7.536h-2.217"/><circle cx="15.768" cy="4.539" r="1.466" fill="currentColor" stroke="currentColor" stroke-width="1.5"/></g></svg>