<svg xmlns="http://www.w3.org/2000/svg" width="24" height="24"><path fill="currentColor" d="m10.237 13.773.95-6.297a1 1 0 0 1 .989-.851h.219A1 1 0 0 1 13.38 7.8l-1.668 9.375a1 1 0 0 1-.985.825h-.645a1 1 0 0 1-.981-.806l-1.169-5.897-1.154 5.895a1 1 0 0 1-.981.808h-.652a1 1 0 0 1-.985-.824L2.486 7.8a1 1 0 0 1 .984-1.176h.234a1 1 0 0 1 .989.852l.942 6.289L6.82 7.44a1 1 0 0 1 .983-.816h.269a1 1 0 0 1 .983.816l1.183 6.332Zm10.903.437c.284 0 .513.24.48.522-.123 1.042-.473 1.85-1.052 2.424-.672.667-1.62 1-2.844 1-1.286 0-2.273-.422-2.96-1.265-.683-.85-1.024-2.058-1.024-3.625v-1.914c0-1.563.354-2.766 1.062-3.61.709-.849 1.693-1.273 2.953-1.273 1.24 0 2.18.346 2.82 1.039.555.594.904 1.412 1.048 2.452a.475.475 0 0 1-.481.532H19.86a.527.527 0 0 1-.516-.486c-.051-.543-.167-.933-.346-1.17-.224-.307-.638-.461-1.243-.461-.614 0-1.05.216-1.304.648-.256.428-.39 1.133-.407 2.118v2.148c0 1.13.125 1.906.375 2.328.256.422.69.633 1.305.633.604 0 1.021-.146 1.25-.438.178-.23.297-.605.355-1.122a.529.529 0 0 1 .516-.48h1.294Z"/></svg>