<svg xmlns="http://www.w3.org/2000/svg" width="24" height="24"><g fill="none"><path fill="currentColor" fill-rule="evenodd" d="M21.238 12.833a.58.58 0 0 1 0 .821l-7.39 7.39a.58.58 0 0 1-.822 0l-.822-.822a.58.58 0 0 1-.001-.82l3.196-3.216-7.801-7.801-3.194 3.214a.58.58 0 0 1-.822 0l-.82-.819a.58.58 0 0 1 0-.821l7.39-7.39a.58.58 0 0 1 .822 0l.82.82a.58.58 0 0 1-.002.822l-2.78 2.76 7.8 7.8 2.784-2.762a.58.58 0 0 1 .82.001l.822.823Z" clip-rule="evenodd"/><path stroke="currentColor" stroke-linecap="round" stroke-linejoin="round" stroke-width="1.742" d="m16.46 20.075-.822-.821 3.536-3.536.82.822-3.535 3.535ZM4.552 8.168l-.82-.82 3.535-3.536.821.82-3.536 3.536Z"/></g></svg>