<svg xmlns="http://www.w3.org/2000/svg" width="24" height="24"><g fill="none"><path fill="currentColor" d="M10.883 17.39c-.133.099-.132.29-.015.408l.99.99a.3.3 0 0 0 .424 0l.99-.99c.117-.117.118-.31-.015-.408A1.991 1.991 0 0 0 12.07 17c-.445 0-.855.145-1.187.39Z"/><path stroke="currentColor" stroke-linecap="round" stroke-width="1.5" d="M3.27 9.366a12.93 12.93 0 0 1 8.748-3.392 12.93 12.93 0 0 1 8.712 3.36M6.348 12.046a8.397 8.397 0 0 1 5.682-2.203c2.177 0 4.162.826 5.658 2.181m-8.476 2.893a4.241 4.241 0 0 1 2.869-1.113c1.1 0 2.102.417 2.857 1.102"/></g></svg>